<?xml version="1.0" encoding="UTF-8"?>
<svg id="Calque_1" xmlns="http://www.w3.org/2000/svg" version="1.1" viewBox="0 0 801 590">
  <!-- Generator: Adobe Illustrator 30.2.1, SVG Export Plug-In . SVG Version: 2.1.1 Build 1)  -->
  <defs>
    <style>
      .st0 {
        fill: #bcd64b;
      }

      .st1 {
        fill: #a3a6a3;
      }

      .st2 {
        fill: #62bb7c;
      }

      .st3 {
        fill: #284f41;
      }

      .st4 {
        fill: #6dad67;
      }

      .st5 {
        fill: #fbfcfb;
      }
    </style>
  </defs>
  <path class="st4" d="M536.05,453.45c-.24-.11-.67,0-.86-.17-3.04-2.69-7.6-2-11.07-.28,1.55-5.09,10.55-2.63,10.83-2.48.9.49.6,2.22,1.1,2.94Z"/>
  <g>
    <path class="st4" d="M129,187l-.04,54.07c-2.41-.08-1.76,2.85-2.36,5.07-3.3-2.19-2.82-24.38-11.6-18.14.95-3.09,7.22-2.88,8.2-.07l2.49,7.14,1.2-7.15.1-41.92c.74.16,1.45.47,2,1Z"/>
    <path class="st4" d="M129.13,263.91l-.04,45.12c0,.92-.13,1.65-.64,1.93-.39.21-1.02.04-1.46.04v-2c0-8.06.56-16.32-.32-24.74-1.39-13.16,2.6-6.9-1.42-16.48-.52,6.09-3.07,9.82-7.93,12.64-4.28,2.48-.8,11.11-3.43,10.58.59-2.68-.66-5.91.39-8.96.86-2.51,5.09-2.92,6.05-5.49l6.12-16.51c.93,1.47.5,2.43.8,3.21s1.06.99,1.88.66Z"/>
    <path class="st4" d="M129.59,411.89c-.19,1.52-2.44,28.28,2.4,25.06-1.21.44-4.4,2.24-4.66.11-1.19-10,.86-20.69-1.14-28.91,1.72-.04,3.61,1.97,3.39,3.73Z"/>
    <path class="st4" d="M129.14,373.88l-.14,10.35c-.92.17-2.1-.42-3-.13,1.6-3.46,1.54-7.66.16-11.19.49-.08.78-.63,1.26-.47.83.27,1.27,1.08,1.72,1.45Z"/>
    <g>
      <path class="st5" d="M260.75,138.15c.12,4.48.68,9.58-2.79,12.93-4.19-1.57-7.82-5.75-12.93-5.07-11.62-5.24-26.11,6.5-31.7-1.18,4.33-2.53,8.73-3.17,13.28-4.4,10.15-2.76,10.37-.09,13.4-3.43.3-.07.72.13,1,0,.72-.32,1.4-.71,2.14-1l17.61,2.15Z"/>
      <path class="st1" d="M243.14,136c-.73.29-1.42.68-2.14,1,.35-.89,1.15-1.98,1-3,.81.33,1.16,1.16,1.14,2Z"/>
      <g>
        <path class="st0" d="M318.24,175.34c.56.37.83,1.3,1.59,1.47-.07,5.96,6.92,13.35-4,20.09-2.51,1.55-9.1,4.06-10.27.06s2.53-9.41-.37-13.36c-.94-1.28-4.58-.85-5.91-.45-.75-1.39-1.17-2.99-2.27-4.15-3.23-3.4-3.56-8.53-4.71-13.18l-6.51-26.36c-3.24,4.1-1.97,8.95-4.04,13.43-1.78,3.84-.91,8.38-1.88,12.11l-6.88,26.71-11.07,1.59c-.85.12-1.79-.2-2.64-.15-1.16-11.36-5.42-17.7-12.22-26.14,2.32-2.1-2.95-16.5-2.03-21.01,5.12-.67,8.75,3.5,12.93,5.07l1.15,8.88c.11.87.92,1.65,1.38,1.68,1.88.13,3.47-10.99,3.72-12.64,1.03-6.62,2.02-14.74,7.3-19.48l7.45-6.69c9.09-8.18,23.74-7.78,30.48,2.52,1.87,2.86-8.35,9.03-12.12,11.26,4.54,3.57,5.11,8.23,7.32,12.83,3.44,7.15,10.12,14.59,10.68,22.18.14,1.85,1.81,3,2.92,3.73Z"/>
        <path class="st0" d="M248.99,110.88c.19,3.08,1.51,6.68,4.59,8.17l7.57-18.14c2.59-2.1,3.34-6.36,6.4-8.43,3.67-2.49,9.07-6.31,13.47-6.73,9.12-.87,14.93,14.91,9.88,20.27-2.42,2.57-5.62,3.45-8.89,4.96-2.59,1.19-4.17,4.12-7.25,4.74-3.28.67-6.58,2.02-8.29,4.52-5.11.75-5.82,14.17-5.72,17.9l-17.61-2.15c.02-.84-.33-1.67-1.14-2-.86-5.77,4.31-12.6,1.5-17.56-3.51-6.19-13.37-11.24-13.48-16.44-.02-1.09-.6-2.52-1.84-3.13-4.07-2.01-6.49-13.55-.14-17.84,6.37-1.65,13.56,3.05,15.18,9.61l3.18,12.83c.86,3.47,2.4,6.24,2.59,9.42Z"/>
        <path class="st1" d="M266.47,120.25c-4.05,6.69-3.34,14.6-3.72,22.62-.16,3.35-3.93,6.4-1.23,10.24,1.35-1.04,1.17-3.2,2.69-4.11-.26,1.65-1.84,12.77-3.72,12.64-.46-.03-1.26-.81-1.38-1.68l-1.15-8.88c3.47-3.35,2.91-8.46,2.79-12.93-.1-3.73.62-17.15,5.72-17.9Z"/>
        <path class="st4" d="M248.99,110.88c.43-1.26,3.19,7.93,4.73,4.82,3.16-6.39-1.38-7.62,7.43-14.78l-7.57,18.14c-3.08-1.49-4.4-5.09-4.59-8.17Z"/>
        <path class="st4" d="M228.03,79.03c-6.35,4.29-3.92,15.83.14,17.84,1.24.61,1.82,2.04,1.84,3.13-1.54-.03-2.94-1.59-3.65-3.26-2.68-6.3-7.64-3.2-4.59-15.06,1.62-1.35,4.45-2.18,6.25-2.65Z"/>
        <path class="st1" d="M297,179c1.1,1.16,1.52,2.76,2.27,4.15.89,2.27-24.99,8.37-26.29,8.56l6.88-26.71c.46,5.85-1.47,12.44-2.35,20.44-.07.63-1.32,1.56-1.47,2.03-.08.28.67.72,1.31,1.54,2.45-1.91,6.02-1.73,9.16-2.43,3.59-.8,6.54-2.65,10.32-2.64.42-2.08.14-3.46.16-4.95Z"/>
      </g>
      <g>
        <path class="st3" d="M166.98,154.02c4.52,3.48,20.39,4.75,15.4,1.68l-.11-1.43c2.42-.02,5.26-.14,6.73-2.27.29-1.15,1.8-.25,3.01-.96,1.84.29,3.25,1.89,5.68,1.83,3.71-6.04,10.4-7.22,15.99-3.58,2.49,1.62,5.27,2.45,7.25,4.87,1.33,1.63,3.38,1.99,5.07,1.96.23.18.73-.09,1,.04.18.34.56.84,1,.84,3.57,0,6.28,2.88,9,5,.88.69,1.66,1.35,2.92,1.2.27-.03.57.09.84.1.9,2.69,3.49,4.3,6.29,3.72,6.8,8.44,11.05,14.77,12.22,26.14.3,2.96.71,6.23.59,9.56-.09,2.32-1.61,4.39-.17,6.07.06.67-.51,1.47-.37,2.13-2.14,3.09-2.01,7.12-3.47,10.91l-9.73,25.27c2.04,2.99,7.91-2.69,10.59,2.97-.04.3.09.63.09.93.01.86.4,1.65,1.2,2.01,2.62,1.19,6.05,2.21,8.21,4.91,1.43,1.79,1.52,7.36-.02,9.24-6.2,7.58-24.24,2.63-31.68-1.66-3.76-2.17-6.8-5.21-10.3-7.65-1.79-1.25-2.29-3.15-2.21-4.84l.2-3.85c1.68.01,1.6-2.02,1.99-2.93,1.81-.61,2.95-2.33,2.69-4.39-.07-.53.09-1.09.06-1.62,1.5-1.34,1.88-3.45,1.96-5.37l.07-1.61c1.28-.4.92-2.2,1.1-3.29.08-.49.66-1.16.55-1.64,1.09-.58,1.89-1.94,2.35-3.46l6.44-21.43c.75-2.5,2.36-3.87.84-6.02s-3.37-1.82-5.26-2.55l-12.96-5.01c-2.36,1.32-3.91,3.96-6.47,4.7-8.12,2.33-15.68-2.05-20.27-9.04-1.57-7,.87-13.52,2.26-20.27.32-1.54-3.56-1.18-4.65-.35l-9.09,6.92c-1.65,1.26-.46,17.74,2.23,19.32-.12,3.09.72,5.73-2.3,7.88-2.32,1.66-4.48,1.5-7.04.25-1.92,3.31-3.11,7.45-3.37,10.75-1,.27-2.24.12-2.67-.93-.29-.69-.47-1.46-.67-2.26,5.78-7.41,2.43-4.84,2.1-11.79-.27-5.71,5.29-3.1.85-20.69-18.45-1.37-4.27,1.92-24.82-.6-8.53-1.05-15.4-5.39-23.34-8.57-7.33-2.94-17.45-4.63-21.74-12.09-3.22-5.6,3.79-12.92,6.32-17.19l5.06-8.54c2.74-4.63,7.88-9.37,12.63-12.03,4-2.23,4.76,3.76,5.82,5.8,12.72,24.56,6.93,9.51,20.54,26.55,3.19,3.99,9.89,3.54,13.57,6.37Z"/>
        <path class="st3" d="M199.88,122.02c-9.2-.34-11.83,4.76-15.48,2.2-1.87-4.76-5.39-8.67-8.46-13.01-6.85-9.68-10.72-5.04-17.13-13.11,2.18-4.04,6.24-4.79,10.21-6.13l19.35-6.53c3.56-1.2,7.37-.6,11.14.02,6.65,15.89,1.38,22.76.37,36.56Z"/>
        <path class="st5" d="M199.88,122.02c12.59.47,5.26.97,12.28,5.27-.18,2.73,2.08,5.44,1.57,8.52-.75,4.6-6.97,11.41-11.03,10.02-1.86-.63.94-11.21-6.73-12.48-4.68-.77-7.97,2.76-11.06,5.5-4.61,4.09-7.07,11.08-2.64,15.42l.11,1.43c-1.49.72-2.66-.01-3.9-1.11-6.99-6.2-6.82-15.98-.52-22.51,2.12-2.2,3.74-4.54,6.07-6.12.07-.5.57-1.24.37-1.74,3.65,2.56,6.29-2.55,15.48-2.2Z"/>
        <path class="st1" d="M240,137c-3.03,3.33-3.26.67-13.4,3.43-4.55,1.24-8.95,1.88-13.28,4.4,5.59,7.68,20.09-4.06,31.7,1.18-.92,4.51,4.35,18.9,2.03,21.01-2.81.58-5.4-1.03-6.29-3.72,1.55.06,2.1,2.03,4.47,1.73-2.87-8.89.98-11.7-3.9-18.65-7.14.59-14.08,1.79-21.57,3.78.68,3.46,4,4.17,6.25,5.96-1.69.03-3.73-.33-5.07-1.96-1.98-2.42-4.76-3.25-7.25-4.87-5.59-3.64-12.28-2.46-15.99,3.58-2.43.06-3.84-1.53-5.68-1.83,3.93-2.29,7.76-6.44,7.29-11.27-.2-2.09-1.86-4.08-3.08-4.68-2.01-.99-4.49.86-6.24,1.8-6.09,3.27-8.88,9.56-6.07,16.12l5.1-1.02c-1.48,2.13-4.31,2.25-6.73,2.27-4.43-4.34-1.97-11.34,2.64-15.42,3.09-2.74,6.37-6.28,11.06-5.5,7.67,1.26,4.87,11.85,6.73,12.48,4.06,1.38,10.28-5.42,11.03-10.02.5-3.08-1.75-5.78-1.57-8.52,2.32,1.42,3.33,4.3,3.85,6.4.89,3.61-1.78,5.15-3.14,8.85,14.73-6.13,13.34-3.44,27.13-5.54Z"/>
        <path class="st1" d="M184.03,125.96c-2.33,1.58-3.95,3.92-6.07,6.12-6.3,6.54-6.47,16.32.52,22.51,1.24,1.1,2.4,1.84,3.9,1.11,4.99,3.07-10.87,1.8-15.4-1.68,2.91.16,5.51,1.56,9.11.83-7.29-6.06-6.13-16.61-.51-23.24,2.39-2.82,4.85-5.64,8.45-5.65Z"/>
        <path class="st1" d="M235,194.84c1.89.73,3.77.44,5.26,2.55s-.09,3.51-.84,6.02l-6.44,21.43c-.46,1.52-1.26,2.88-2.35,3.46-.61-2.7,1.4-4.85,2.2-7.54l6.47-21.9c-12.81.18-24.72,1.78-37.27,1-5.71-.36-11.17-.81-16.51.6-.08,2.82.13,4.7-.31,6.89-6.41.48-4.64,6.19-7.65,5.44-1.86-.46-1.83-3.43-4.23-2.79.26-3.3,1.46-7.44,3.37-10.75,2.57,1.25,4.72,1.4,7.04-.25,3.02-2.16,2.18-4.79,2.3-7.88,2.02,1.02,2.72,3.18,2.02,5.95,3.24-.73,5.95.7,9.01.8,4.45.15,38.12,1.16,37.93-3.01Z"/>
        <path class="st1" d="M261.91,193.3c-1.03,3.77,1.65,13.92-2.23,15.49-1.44-1.69.08-3.76.17-6.07.13-3.33-.28-6.61-.59-9.56.85-.05,1.79.27,2.64.15Z"/>
        <path class="st1" d="M228.9,234.83c-.08,1.92-.45,4.03-1.96,5.37-.97-.87-1.05-2.09-.58-3.21s1.16-2.31,2.54-2.16Z"/>
        <path class="st1" d="M226.88,241.82c.26,2.07-.88,3.78-2.69,4.39-.09-1.88.45-4.46,2.69-4.39Z"/>
        <path class="st1" d="M230.07,229.92c-.18,1.09.18,2.89-1.1,3.29-.66-.55-.92-1.21-1.01-1.81-.17-1.07,1.05-2.21,2.11-1.47Z"/>
        <path class="st1" d="M239.92,163.2c-1.26.16-2.04-.51-2.92-1.2,1.05,0,3.05-.35,2.92,1.2Z"/>
        <path class="st1" d="M258,253c-.79-.36-1.19-1.15-1.2-2.01.94.2,1.32,1.12,1.2,2.01Z"/>
        <path class="st1" d="M228,157c-.44,0-.82-.5-1-.84.39.19.72.52,1,.84Z"/>
      </g>
    </g>
    <g>
      <path class="st1" d="M390.13,190.13c.29,1.88-1.42,4.66-3.14,5.01,1.22-3.4,1.06-7.09,1.02-11.18l-.5-49.04c-6.04,4.91-10.66,10.6-17.03,13.02,1.15-2.86,3.86-4.91,6.66-6.77,7.51-4.98,11.24-12.52,11.69-5.15,1.14,18.45-1.45,36.59,1.3,54.12Z"/>
      <path class="st1" d="M385.04,463.3c-1.81,4.06-5.37.61-5.93,10.7-.34-1.06-1.04-3.26-1.71-4.4-2.5-4.24-16.45,11.41-22.5,10,1.24-2.48,4.4-3.09,6.88-4.75,7.45-5.01,15.12-8.86,23.26-11.55Z"/>
      <path class="st1" d="M393.82,267.73c-1.57,0-3.28-.12-4.81,1.59l-.07,135.59c0,1.38.28,4.52,1.85,3.92,5.11-1.94,10.03-3.87,14.74-6.33,3.18-1.66,5.99-3.76,9.46-3.31.62,2.64,1.22,5.28,2.03,7.87-2.12-.38-2.13-2.71-3.16-5.72l-22.9,9.48c-1.11.46-2,1.49-2.82.54-.41-.48-.93-1.38-.72-2.35,1.69-8.02-1.77-20.8-.05-34.88.34-2.75-.25-4.57-.25-7.26l.03-92.78c0-3.65.76-7.07,3.01-8.93,1.33.48,2.72,1.39,3.65,2.58Z"/>
      <path class="st1" d="M585,396c-2.52,0-6.1.92-7-2,2,1.69,5.22-.04,7,2Z"/>
      <g>
        <path class="st5" d="M637.25,129.86c-2.21,3.61-4.75,7.06-6.26,11.03-.55.03-1.1.05-1.45.18-.64.25-.81.84-.54,1.41-.18-.39,2.54,2.4,3.3,2.35.36-.02.6-.66.9-.74,1.48-.32,3.17-.51,4.67-.75,2.03-.32,4.56.38,6.09-1.24,1.05.6,2.82.02,3.13,1.54.26,1.25.1,2.24-.1,3.26-2.06-1.19-3.98,6.51-1.46,7.81,1.12.58,2.43-.21,2.44-1.54.33-.17.8-.12,1.1-.32,3.54-2.31,6.91-4.2,10.86-1.99.23.13.66.21.93.22-.16,2.24,2.43,2.71,4.26,2.94.53.07,1.15.2,1.68.16-.66.8.27,1.44.86,1.66.54.2,1.04.24,1.5.22.24,0,.49.04.73.01-.59.82.22,1.57.81,1.8.82.32,1.61.24,2.32.18.14.56,1.07,1.08,1.07,1.78v126.01c-.01,1.31-1.61,1.71-2.01,1.36-5.85-7.32-2.82-6.78-15.12-8.08-.52,2.35-.96,5.25-.53,7.54,3.97,5.83,8.04,11.83,13.01,16.71,2.29,2.25,4.69,2.38,4.69,5.56l-.03,39.04c-18.88-1.26-16.31-5.03-27.3-3.28-1.65,6.31-5.87,4.56-3.18,7.29l.25,1.21c.33,1.6.27,3.24,0,4.84-.14.81.06,2.26.58,2.86.48.55,1.79,1.27,2.59.99l-.38,5.56c-.25,3.63,6.97,1.95,10.51,1.7l16.87-1.2.1,52.22c-.36.93-1.52,1.98-2.79,2.21-9.5,1.78-14.99,8.65-16.28,17.44-1.3,8.77,4.34,17.64,12.89,20.97l5.15-.91c2.34,8.56.15,17.72,1.3,27.6-5.53-1.98-8.01-5.52-12.4-6.79-.28-.08-.64.03-.93.03-1.92-3.22-6.04-4.19-9.41-6.21-3.52-2.11-6.51-5.12-10.35-5.49-.45-.33-1.08-1.13-1.61-1.36l-18.02-7.95-18.24-7.18c-3.15-1.24-5.99-1.79-9.21-2.71-8.53-2.43-12.23-4.55-20.19-4.9l-.9-.04c7.48-.61-29.39-5.6-26.4-5.34l-21.22-1.84c-10.5-.91-21.81-3.38-31.56-.65l-4.7,1.32-1.97-.41c.65-5.88,1.77-11.93.79-17.75.46-.49.93-1.13.98-1.74.12-1.39-1.4-1.31-2.09-1.52-.4-2.57-3.82-3.71-4.92-5.87-.92-1.83-1.55-3.38-4.27-2.89-.52.09-1.15-.12-1.68-.15.64-1.52-.85-2.12-1.71-2.11-1.34.01-2.56.28-3.7.46-.6.1-1.26-.19-1.86-.14-.89-1.76-3.17-2.21-4.84-1.29l-2.8-.08c.19-1.46-1.16-2.06-2.18-2.46-1.51-.6-3.04-.62-4.15.47l-1.67-.03c.6-.73-.12-1.55-.82-1.8-.93-.33-1.98.23-2.61.94l-1.59-.06c-.42-3.39-4.7-3.17-7.46-2.57-.92.2-1.96-.25-2.86-.22-.67-.73-1.1-1.8-.81-2.52.39-.97,1.72-3.05,3.09-2.89,3.72.45,6.63-1.15,9.96-1.75l15.12-2.72,16.85-1.79c9.87-1.05,36.34-1.13,45.87-.11l18.97,2.02,16.01,2.7c4.87.82,9.42,2.39,14.11,1.92.27-.03.76-.07,1,0,.9,2.92,4.48,2,7,2h1c-.21.84.08,1.51.65,1.84.8.47,1.8.05,2.79.34,11.38,3.38,21.97,7.71,32.9,12.25,1.78.74,3.58.66,4.22-1.06.44-1.19.31-3.08-1.26-3.51-.61-6.6-.3-13.24-.3-19.86.42.01,1.09.19,1.45-.04.47-.3.6-1.02.6-1.88v-8.15c0-.86-.13-1.58-.6-1.88-.36-.23-1.03-.06-1.45-.04v-36c.42.01,1.09.18,1.45-.04.47-.3.6-1.03.6-1.89v-16.14c0-.86-.13-1.59-.6-1.89-.36-.23-1.03-.06-1.45-.04v-7c.58.18,1.91.22,1.97-.97.15-3.18.91-10.67-1.97-9.03v-4c.57-.04,1.05-.09,1.43-.18.54-.12.91-.67.56-1.27-.3-.51-1.32-.49-1.99-.55v-16c.42.01,1.09.19,1.45-.04.47-.3.61-1.02.61-1.88v-9.15c0-.86-.14-1.59-.61-1.88-.36-.23-1.03-.06-1.45-.04v-21c.42.01,1.09.18,1.45-.04.48-.3.6-1.03.6-1.9l-.05-31.07c0-1.19-1.49-1.18-2-.98v-10c.43-.27.93-.24,1.02-.58.13-.51-.09-1.28-.53-1.45-.76-.3-1.32.15-1.5.91l-2,.04c-2.71.06-5.37.92-8.3,1.85l-28.72,9.2-1.97.93c-8.13-.11-24.9,7.58-32.58,7.34-2.84-7.62-13.45-6.69-15.5-11.23-3.34-7.41-10.2-21.34-18.54-25,4.24-2.42,7.48-3.94,7.89-7.79l8.5-1.66c.48-.09.27-1.46.23-1.58l3,.04c5.51.08,33.25-8.85,41.01-11.01l26.85-7.47c20.82-5.8,6.53-6.78,16.55-14.37,4.71-3.56,9.49-7.98,12.11-13.33.8-1.64,1.21-3.33,3-3.23,1.4.08,2.89,1.44,2.62,3.34-.2,1.42-.33,2.98-.89,3.89Z"/>
        <path class="st1" d="M676.8,161.09c-.68,1.79.18,3.53.17,5.99l-.04,130.97c.2.48-4.43-10.27-4.36-7.8.11-.99-.56-2.07-.52-3.08.4.35,2-.05,2-1.36v-126.01c.72.37,2.35.4,2.74,1.28Z"/>
        <path class="st1" d="M573.14,444.86c-6.04-.26-11.99-.55-18.37-1.41l-15.91-2.15c-3.24-.44-6.67-1-9.95-1.03l-38.92-.27c.03-.65-.25-1.24-.73-1.66l4.7-1.32c9.76-2.73,21.06-.26,31.56.65l21.22,1.84c-2.99-.26,33.88,4.74,26.4,5.34Z"/>
        <path class="st1" d="M661.99,480.67c4.4,1.27,6.88,4.82,12.4,6.79-1.15-9.88,1.04-19.04-1.3-27.6,5.42-9.12,1.08-12.15,3.76-16.86l.07,43.81c.01,9.64-13.68-4.9-14.93-6.14Z"/>
        <path class="st1" d="M641.77,129c-.44-.37-.45-1.04-1.26-2.02-.94,1.2-1.74,2.57-3.26,2.89.56-.91.69-2.47.89-3.89.26-1.9-1.22-3.26-2.62-3.34-1.79-.1-2.2,1.59-3,3.23-2.61,5.35-7.4,9.77-12.11,13.33-10.03,7.59,4.27,8.58-16.55,14.37l-26.85,7.47c-7.76,2.16-35.5,11.09-41.01,11.01,11.78-6.74,25.82-8.25,39.2-12,12.86-3.6,24.63-9.16,38.06-10.64,4.41-17.67,14.79-11.24,18.54-29.65,5.61.15,10.28,4.39,9.96,9.24Z"/>
        <path class="st1" d="M639.7,467.63c-3.16.55-6.82.79-9.64-1.69-2.37-2.08-5.44-2.51-8.03-4-14.81-8.59-10.08-2.36-25.96-9-5.35-2.24-10.53-4.18-16.14-5.85-2.22-.66-5.11.27-5.89-2.18,7.95.35,11.66,2.46,20.19,4.9,3.22.92,6.06,1.47,9.21,2.71l18.24,7.18,18.02,7.95Z"/>
        <path class="st1" d="M661.07,480.7c-4.37-.09-7.2-2.5-10.49-5.32-2.88-2.47-8.14-2.6-9.27-6.38,3.84.38,6.83,3.38,10.35,5.49,3.37,2.02,7.49,2.98,9.41,6.21Z"/>
        <path class="st1" d="M413.14,452.17l-2.44,2.77c-.24,1.17-3.04,1.12-3.74,1.93-.68-.47-1.29-1.02-1.81-1.67,2.07-2.18,5.13-2.82,7.99-3.04Z"/>
        <path class="st1" d="M455.11,441.6l.07,2.3c-5.01,1.32-10.15,1.32-15.3.97-.45-1.08.32-1.66.88-1.63l3.24.15c4.12.19,7.43-2.55,11.12-1.8Z"/>
        <path class="st1" d="M438.96,444.91c-1.77,3.11-8.25.23-7.07,4.95-1.42-.76-3.12-1.02-4.69-1.23,2.18-4.01,6.21-2.46,11.76-3.72Z"/>
        <path class="st1" d="M394.22,459.18c.06,2.58-3.52,2-5.31,2.83-.14-2.67,3.27-2.54,5.31-2.83Z"/>
        <path class="st1" d="M424.21,448.97c-.96,1.45-2.71,1.88-4.38,1.94-.15-1.29.83-1.99,2.14-2.55.75-.32,1.48.01,2.24.6Z"/>
        <path class="st1" d="M418.23,450.97c-.42,1.3-2.25.97-3.34,1.06-.73-1.04.38-2.26,1.53-2.07.57.1,1.25.36,1.81,1.01Z"/>
        <path class="st1" d="M403.27,455.31c-.24,1.18-1.26,1.66-2.38,1.7-.49-.69.07-1.79.69-1.96s1.27.15,1.69.26Z"/>
        <path class="st1" d="M398.29,457.33c.58.57.07.87-.29,1.11-.75.5-1.43.54-2.09.58-.51-.75-.03-1.7.72-1.87.6-.14,1.17.16,1.66.19Z"/>
        <path class="st1" d="M577,394c-4.69.47-9.24-1.1-14.11-1.92l-16.01-2.7-18.97-2.02c-9.53-1.01-35.99-.93-45.87.11l-16.85,1.79-15.12,2.72c-3.33.6-6.24,2.19-9.96,1.75-1.36-.16-2.7,1.92-3.09,2.89-.29.72.15,1.78.81,2.52-.54.32-.9.66-1.3.47-.96-.46-1.63-1.42-1.54-2.55.19-2.4,1.87-3.58,2.97-5-.06,2.07,13.1-3.14,19.03-3.72,4.05-.4,7.35-.95,11.21-1.95,5.03-1.31,10.29.34,15.57-.72,4.13-.82,8.57,1.68,12.88-.14,2.6-1.1,6.15-2.58,9.13-1.34,8.22,3.41,25.14.57,35.94,2.24l13,2.01c7.86,1.22,15.33,3.06,22.27,5.56Z"/>
        <path class="st3" d="M625,211v175c0,6.62-.3,13.27.3,19.86l-.23,1.12c-.61.19-.81-.2-1.08-1.21v-204.78h1.01v10Z"/>
        <path class="st1" d="M677,367.73v47.27c-.01,2.06-.7,3.7-1.01,5.24-.61.08-1.25-.09-1.86-.09l-.1-52.22.96-.16,2.01-.04Z"/>
        <path class="st1" d="M676.12,309.11l-.12,3.89c-.04,1.46,1.04,3,1.03,4.97l-.03,25.06c0,1.96-.77,3.56-.88,5.06l-2.04-.14.03-39.04c.66-.03,1.34.26,2,.2Z"/>
        <path class="st1" d="M625.07,406.99l.23-1.12c1.57.43,1.7,2.32,1.26,3.51-.64,1.72-2.43,1.8-4.22,1.06-10.93-4.54-21.53-8.87-32.9-12.25-.99-.29-1.99.13-2.79-.34-.57-.33-.87-1.01-.65-1.84,8.38,0,36.59,13.28,37.37,12.96.7-.29,1.52-1.05,1.71-1.97Z"/>
        <path class="st1" d="M622,199.93c-5.2,4.03-30.46,12.27-37.02,11.05l28.72-9.2c2.93-.94,5.59-1.8,8.3-1.85Z"/>
        <path class="st1" d="M583,211.91c-10.22,4.81-21.23,7.7-32.09,10.91.03-1.23-.06-2.42-.49-3.57,7.68.24,24.45-7.45,32.58-7.34Z"/>
        <path class="st1" d="M625,245v-34c.51-.19,2-.2,2,.98l.05,31.07c0,.87-.12,1.61-.6,1.9-.36.23-1.03.06-1.45.04Z"/>
        <path class="st1" d="M625,338v-20c.42-.01,1.09-.18,1.45.04.47.3.6,1.03.6,1.89v16.14c0,.86-.13,1.59-.6,1.89-.36.23-1.03.06-1.45.04Z"/>
        <path class="st1" d="M625,279v-13c.42-.01,1.09-.19,1.45.04.47.3.61,1.02.61,1.88v9.15c0,.86-.14,1.59-.61,1.88-.36.23-1.03.06-1.45.04Z"/>
        <path class="st1" d="M625,386v-12c.42-.01,1.09-.19,1.45.04.47.3.6,1.02.6,1.88v8.15c0,.86-.13,1.58-.6,1.88-.36.23-1.03.06-1.45.04Z"/>
        <path class="st1" d="M625,311v-10c2.87-1.64,2.11,5.86,1.97,9.03-.06,1.18-1.38,1.15-1.97.97Z"/>
        <path class="st1" d="M646.98,146.9c-.32,1.66-1.26,4.98-.26,6.01.26.26.79.29,1.24.26-.02,1.34-1.32,2.12-2.44,1.54-2.52-1.3-.6-9,1.46-7.81Z"/>
        <path class="st1" d="M448.17,401.92l-6.87-1.31c-.75-.14-1.15-.85-.59-1.26,2.76-.6,7.05-.82,7.46,2.57Z"/>
        <path class="st1" d="M461.2,404.85c-2.18-.06-4.78-.25-6.33-1.98,1.11-1.09,2.65-1.07,4.15-.47,1.02.4,2.36,1,2.18,2.46Z"/>
        <path class="st1" d="M468.84,406.22c-1.61,1.19-3.74.2-4.84-1.29,1.68-.92,3.96-.47,4.84,1.29Z"/>
        <path class="st1" d="M476.11,408.01c-1.84-.11-5.28.88-5.41-1.65,1.14-.18,2.36-.45,3.7-.46.86,0,2.34.58,1.71,2.11Z"/>
        <path class="st1" d="M482.06,411.05c-1.74-.35-4.36-.7-4.27-2.89,2.72-.49,3.34,1.06,4.27,2.89Z"/>
        <path class="st1" d="M453.2,402.84c-1.1-.02-3,.48-3.44-.86.64-.71,1.69-1.27,2.61-.94.7.25,1.42,1.07.82,1.8Z"/>
        <path class="st1" d="M488.08,420.18c-1.34-.35-.98-2.17-1.11-3.25.69.21,2.21.12,2.09,1.52-.05.61-.52,1.25-.98,1.74Z"/>
        <path class="st1" d="M625,297v-2c.67.06,1.69.04,1.99.55.35.6-.02,1.15-.56,1.27-.38.08-.85.14-1.43.18Z"/>
        <path class="st1" d="M630.99,140.89c.07,1.42,1.03,2.48,2.19,3.2-.29.08-.53.72-.9.74-.76.05-3.47-2.73-3.3-2.35-.26-.57-.09-1.16.54-1.41.35-.14.91-.15,1.45-.18Z"/>
        <path class="st1" d="M625,201h-1v-1.12c.17-.76.73-1.2,1.5-.91.44.17.66.93.53,1.45-.09.34-.59.31-1.02.58Z"/>
        <path class="st5" d="M531.82,224.87c-6.5,4.53-19.32,4.75-26.82,9.13-4.32,2.53-9.34,3.27-14,5,2.22-2.18-10.32,2.36-10.95,1.84h-.86c-.49-2.27,1.62-5.09,3.71-5.83,9.27,3.78,14.7-10.51,15.35-19.36,6.55,3.7,13.88,2.43,17.72-2.82,11.09-2.59,5.43,2.86,15.85,12.03Z"/>
        <path class="st1" d="M533.1,226.92l-14.99,5.25c-4.45,1.56-8.72,2.47-13.11,1.82,7.5-4.38,20.32-4.6,26.82-9.13.6.53.91,1.48,1.28,2.06Z"/>
      </g>
    </g>
    <g>
      <path class="st0" d="M683.83,67.06c-3.55,1.57-11.98,4.84-13.12,8.09,9.18,8.08,17.46-4,20.19,1.96.49,1.06,1.41,1.89,1.96,2.91,2.56,4.76,4.99,9.87,9.01,13.97,9.61-3.05,10.9-2.18,20.55,3.6,2.46,1.47-.03,4.76-.36,6.51-2.48,12.81-20.05,9.26-8.48,19.95,1.2,1.08,3.56,3.19,4.11,5.11.51,1.77-.71,4.89-1.64,6.09-1.13,1.46-2.98,3.63-4.2,4.86-4.66,2.51-11.46,5.45-15.55.65-1.41-1.66-3.27-4.37-4.18-6.05-2.71-5.02,1.18-10.84-3.09-14.74-1.11-1.01-1.45-2.77-3.42-3.78-2.9-1.49-5.4-4.33-6.6-7.18-1.88-4.5-5.1-8.06-8.77-11.02l-6.19-13.02c-.56-.9-.91-1.91-1.04-2.96,2.05-1.6.32-4.64,1.05-7.11,1.13-3.8,2.8-7.05,1.7-10.74.59-.12.96-.73,1.25-1.15,7.17-1.05,11.66-3.05,16.83,4.06Z"/>
      <path class="st4" d="M722.87,80.85c-1.14-.98-.79-3.52-2.31-4.35-2.22-1.21-4.81-.27-6.87-.34-.47-1.29-1.83-2.32-3.68-2.31l-17.12.05,2.15-1.98c-1.69-2.47-3.9-3.69-5.79-5.31,1.6-.96,13.95-3.78,18.73-1.16,1.55.85,5.45.76,5.78-1.7,3.12-23.57-12.14-4.49-20.45-33.71-1.2-4.23.34-8.82-.25-13.02-.4-2.88,2.65-3.99,4.26-3.79,3.11.39,2.16,3.27,2.8,5.57,3.61,13.05-1.81,17.78,13.87,23.56-.38-6.19-1.84-10.68-2.45-15.98-.51-4.48-3.91-9.34-1.86-14s9.44,1.39,11.55,4.54c-1.44,1.16-2.58,1.83-3.13,2.86-.25.46,4.95,14.97,5.52,20.29,2.03,19.21,9.23,10.67,12.69,28.87.85,4.47,11.33,3.95,18.42,15.17,1.96,3.1,3.07,8.23,1.51,11.27-1.35,2.62-5.14,6.83-8.84,6.18-16.33-2.88-14.39-26.71-23.31-24.66-1.13.26-1.36,2.36-1.19,3.96ZM735.15,79.98c4.15-3.48-.26-9.65-3.74-11.42-2.34.26-2.88,4.86-2.15,7.31.59,1.99,3.91,5.77,5.89,4.11Z"/>
      <path class="st4" d="M670.23,97.98c-2.89,2.73-1.95,22.58-.25,27.02-1.24,4.55-2.82,1.99-3,7.14l-.07,2.08c-1.72,1.25-3.84,3.54-4.52,5.76-1.02,3.31,7.94,4.94,8.6,6.98.83,2.55,2.95,1.32,4.76,2.09l11.07,7.23c1.46.88,1.01,3.52,2.15,4.73,6.34,1.22,11.22,5.4,13.65,11.37,3.23,1.69,6.21,3.03,9.53,4.45,1.05.45,2.44-2.42,2.65-3.49.02-.11-3.74-9.29-4.58-9.67-4.21-1.9-7.34-6.46-4.21-11,1.13-1.63,6.04-.58,7.29.86,1.38,1.58,2.85,2.3,4.36,1.55,6.18-3.05-3.36-5.57-4.63-11.07-.28-1.24-1.99-2.32-1.19-3.9,1.22-1.23,3.07-3.4,4.2-4.86,1.81,2.2,5.69,2.73,7.43,5.15,2.52,3.5,4.84,7.69,6.07,11.62,1.92,6.12-.81,10.73-7.01,13.16,2.32,3.18,2.24,6.53,2.56,9.66.71,6.98-3.13,11.1-8.96,12.06-9.32,1.53-13.79-2.84-19.01-9.06-3.33-3.97-8.36-6.9-11.64-11.44-1.89-2.62-7.27-2.15-8.68-5.29-.39-.88-2.02-.91-2.73-1.28,0-.7-.93-1.22-1.07-1.78-.17-.72.1-1.66-.67-1.89-.95-.29-1.74-.16-2.47-.09-.24.02-.49-.02-.73-.01.52-.49.22-.99-.14-1.42-.62-.74-1.46-.52-2.21-.45-.53.05-1.15-.09-1.68-.16.17-2.28-2.35-2.85-4.26-2.94-.27-.01-.7-.09-.93-.22-1.18-1.84-3.46-2.79-5.82-3.83-2.26,1.87-4.25,3.49-5.04,5.82-.31.2-.78.15-1.1.32-.44.03-.98,0-1.24-.26-1-1.03-.07-4.35.26-6.01.2-1.01.35-2.01.1-3.26-.31-1.51-2.08-.94-3.13-1.54-1.54-.88-5.53-1.01-5.88-.6-.33.39-.26,1.26-.21,1.84-1.51.24-3.2.43-4.67.75-1.16-.72-2.13-1.78-2.19-3.2,1.51-3.97,4.05-7.42,6.26-11.03,1.51-.32,2.31-1.68,3.26-2.89.8.98.81,1.66,1.26,2.02-.24,3.67,1.84,6.65,6.07,7.4,2.15.38,4.09,1.25,5.89-.06,1.47-1.06,1.27-3.76,2.31-5.36,5.6-8.63,9.11-17.31,10.73-27.46.61-3.78,3.01-7.32-.66-10.85-2-1.93-2.4-5.16-2.07-7.72l6.19,13.02Z"/>
      <path class="st0" d="M662,75c.32,4.88-3.11,7.32-5.17,10.9-2.57,4.47-5.6,8.2-10.99,9.82-9.05,9.92-29.96,14.63-41.82,11.26-.65-.97-1.06-2.28-1.06-3.92l-.1-27.1,1.21-7.89c1.07-.89,2.1-.48,2.93-.07,12.87,1.52,13.1,7.49,24.99,5.02,2.4-.5,5.19.78,7.34-.57,3.29-2.06,6.23-4.36,9.88-4.62,3.52-.6,6.12-2.01,8.8-4.06,6.3,8.31,3.94,10.41,3.99,11.23Z"/>
      <path class="st5" d="M665.75,64.15c1.1,3.68-.57,6.93-1.7,10.74-.74,2.48,1,5.51-1.05,7.11-.35-2.32,1.05-5.4-1-7-.05-.81,2.31-2.92-3.99-11.23-2.68,2.05-5.28,3.46-8.8,4.06.11-2.35,1.54-4.44,2.85-6.71-2.87-.66-6.1.86-8.27-.87-4.76-3.8-5.27-9.77-6.44-15.04,2.71-1.65,2.03-5.41,4-8.03,2.44-3.25,5.1-6.34,7.69-9.02,7.36-.53,9.72-4.84,19.3-1.77,1.91.61,2.61,2.73,1.96,4.07-1.98,4.05-7.1-2.04-16.77,5.86-2.92,2.38-4.54,4.87-3.82,8.7.49,2.57,2.44,5.41,5.73,6.18,6.3,1.49,6.07-8.71,14.33-13.3,1.77-.98,4.41-1.19,5.71.17,6.88,7.19-9,15.13-11.99,19.45-1.66,2.41.63,5.19,2.26,6.61Z"/>
      <path class="st0" d="M645.94,22.04c1.33,1.92,3.01,3.71,3.1,6.13-2.59,2.68-5.25,5.77-7.69,9.02-1.97,2.62-1.29,6.37-4,8.03-6.81-1.4-14.09-2.38-21.17-.06-1.61.53-3.09,1.02-3.68-.28-.31-.68-1.06-2.83-.3-3.57,5.73-5.58,5.4-14.85,18.96-28.32,2.88-2.86,9.19,2.04,10.65,4.82,1.06,2.02,2.57,3.65,4.12,4.23Z"/>
      <path class="st5" d="M738,32.17c.32-.03.68.15,1,.08,3.15,3.22,27.9,3.82,28.54,7.23.43,2.29-4.47,3.87-4.19,7.27l-3.56,3.42c-11.92,11.46-2.24,13.21-3.89,15.11-1.99,2.29-7.02-2.48-6.91-.49-2.55-.38-3.47-2.59-5.31-4.18l-2.14-8.29c-5.19-20.07-7.87-7.07-7.47-20.18,1.7-.37,2.76-.09,3.93.03Z"/>
      <path class="st1" d="M722.87,80.85c.42,4.02-1.44,7.74-1.93,12.25-.26,2.38,4.02,3.73,4.02,6.02,0,7.97-6.58,13.04-12.24,17.5-1.82,1.88.48,5.63.86,7.42-11.57-10.69,6-7.14,8.48-19.95.34-1.75,2.82-5.04.36-6.51-9.64-5.78-10.93-6.65-20.55-3.6-4.02-4.1-6.45-9.21-9.01-13.97,3.69,2.32,6.43,5.78,7.67,10.58,3.39.75,6.5.71,10.04-.06.76-1.76,1.23-16.79,3.11-14.37,2.05.07,4.65-.86,6.87.34,1.52.82,1.16,3.37,2.31,4.35Z"/>
      <path class="st5" d="M692.89,73.9c-.77.28-1.26.24-1.55.68-.57.86-.52,1.94-.42,2.52-2.73-5.96-11.01,6.12-20.19-1.96,1.13-3.25,9.57-6.52,13.12-8.09,1.51-.67,3.88.46,5.4-.45,1.9,1.62,4.1,2.84,5.79,5.31l-2.15,1.98Z"/>
      <path class="st1" d="M667,63c-.29.42-.66,1.03-1.25,1.15-1.63-1.42-3.92-4.2-2.26-6.61,2.99-4.32,18.87-12.26,11.99-19.45-1.31-1.37-3.95-1.16-5.71-.17-8.25,4.59-8.02,14.79-14.33,13.3-3.29-.78-5.24-3.61-5.73-6.18-.72-3.82.91-6.31,3.82-8.7,9.67-7.91,14.79-1.81,16.77-5.86.65-1.33-.05-3.46-1.96-4.07-9.58-3.07-11.94,1.24-19.3,1.77-.1-2.42-1.77-4.22-3.1-6.13,2.03.76,2.89,2.7,4.21,4.96,7.85-2.09,7.75-6.77,18.16-2.26,2.04.89,4.91-.17,4.81,2.83-.05,1.66-.21,3.43-1.78,4.82-3.76,3.32-8.47,2.57-13.47,2.52-3.22-.04-4.78,4.66-5.62,6.88-1.17,3.06,1.25,5.54,2.79,8.66,10.77-6.72,8.25-12.74,15.32-15.13,3.48-1.18,6.13.29,7.65,3.19,1.28,2.46,1.31,5.11-1.05,7.61l-11.6,12.28c-1.33,1.41.55,3.92,1.65,4.59Z"/>
      <path class="st1" d="M763.36,46.75c-.29-3.4,4.62-4.97,4.19-7.27-.64-3.41-25.39-4.01-28.54-7.23,3.46-.69,29.15,2.24,32.46,6.75-2.7,3.15-5.68,5.41-8.11,7.75Z"/>
      <path class="st1" d="M607,68c-.82-.41-1.85-.82-2.93.07l-1.21,7.89.1,27.1c0,1.64.41,2.95,1.06,3.92-1.85-.53-3.09-2.25-3.08-3.94l.17-29.02c.02-2.65,1.62-5.78,3.17-7.75,1.01-1.29,2.5,1.11,2.71,1.74Z"/>
      <path class="st1" d="M738,32.17c-1.17-.12-2.22-.4-3.93-.03-.4,13.11,2.28.11,7.47,20.18l2.14,8.29c-2.95-2.57-3.6-4.88-4.28-9.39-1-6.66-10.02-12.84-6.46-18.39.65-1.02,1.31-1.93,2.6-1.94.91-.01,1.88.37,2.45,1.28Z"/>
      <path class="st1" d="M759.8,50.17c-2.94,11.49-5.69,3.06-1.43,17.22-3.8,2.01-7.23-.44-9.37-2.6-.1-2,4.92,2.77,6.91.49,1.66-1.9-8.03-3.65,3.89-15.11Z"/>
      <path class="st2" d="M659.92,150.85c-3.94-2.21-7.31-.31-10.86,1.99.79-2.33,2.77-3.96,5.04-5.82,2.36,1.04,4.64,1.99,5.82,3.83Z"/>
      <path class="st1" d="M643.95,142.11c-1.53,1.62-4.06.92-6.09,1.24-.05-.58-.11-1.45.21-1.84.35-.41,4.34-.28,5.88.6Z"/>
      <path class="st2" d="M665.11,154.01c-1.83-.23-4.42-.69-4.26-2.94,1.91.08,4.43.65,4.26,2.94Z"/>
      <path class="st2" d="M673.01,158.03c-.71.06-1.49.14-2.32-.18-.59-.23-1.4-.98-.81-1.8.72-.08,1.51-.21,2.47.09.77.24.49,1.17.67,1.89Z"/>
      <path class="st2" d="M669.15,156.04c-.46.02-.96-.02-1.5-.22-.59-.21-1.52-.86-.86-1.66.75-.06,1.59-.29,2.21.45.37.44.66.93.14,1.42Z"/>
      <path class="st5" d="M679,109c-2.25-2.37-7.89,15.9-9.03,16-1.7-4.44-2.64-24.28.25-27.02,3.67,2.95,6.89,6.51,8.77,11.02Z"/>
      <path class="st1" d="M711.83,140.1c-.8,1.57.91,2.66,1.19,3.9-2.6-3.92-5.41,3.76-10.82,2.72-3.73-.71-6.1-3.9-8.24-6.62-2.28-1.21-3.21-3.18-3.04-5.3l1.18-.11c.91,1.69,2.76,4.39,4.18,6.05,4.08,4.8,10.88,1.86,15.55-.65Z"/>
      <path class="st3" d="M692.11,134.7l-1.18.11c-1.2-.6-1.92-2.01-1.92-3.78v-11.07c4.29,3.89.4,9.72,3.11,14.74Z"/>
      <path class="st1" d="M735.15,79.98c-1.98,1.66-5.3-2.12-5.89-4.11-.73-2.45-.2-7.05,2.15-7.31,3.48,1.77,7.89,7.94,3.74,11.42Z"/>
      <path class="st5" d="M670.98,146.96c-.66-2.04-9.62-3.68-8.6-6.98.68-2.22,2.81-4.51,4.52-5.76,1.76-.14,3.87-.24,6.78-1.55.12,2.76,2.34,17.19-2.7,14.29Z"/>
      <path class="st1" d="M675.74,149.05c-1.82-.78-3.93.46-4.76-2.09,5.05,2.9,2.83-11.53,2.7-14.29-2.91,1.31-5.02,1.41-6.78,1.55l.07-2.08c2.35.17,4.74-1.63,7.37-1.62,4.6.02,2.65,16.46,1.4,18.53Z"/>
    </g>
    <g>
      <path class="st2" d="M238,411v1l-.1,1-.02,1c-1.37,1.39-1.13,4.07-.91,6,.55,4.69-.92,8.93-2.31,13.68s-1.64,9.45-4.64,13.45l-8.93,11.89c-3.34,4.45-5.88,8.21-11.11,8.95-3.76.53-7.31,3.57-11.22,4.78-8.96,2.78-14.94-.6-17.65,2.83-.89,1.13-1.29,2.69-1.19,4.24-.28.08-.67-.08-.93.04-.88.42-1.61,1.13-2.01,2.02-.32.06-.67-.02-1,.02-.41.24-.76.56-1,.97l-1,.02c-4.73.11-9.3-.68-14-.93l-2-.1c-.36-.63-1.11-1.91-2-1.9-3.36.07-6.17-1.25-7.48-4.16-5.58-12.39,5.42-7.29,12.92-20.69l5-8.94,7.26-12.62c3.52-6.13,11.76-2.22,15.28,2.23,2.41,3.04,5.96,4.86,8.54,5.32,4.22.75,6.74-1.38,9.74-3.35,5.66-3.73,4.56-15.77,1.76-17.81.08-1.24-2.31-3.27.64-4.51,3.76-1.58,11.43-2.61,9.56-4.25.45.25,1.2-.18,1.68,0,1.68,1.29,3.92.03,5.23-1.34l1.66-.02c2.62-.04,5.06-1.82,8.03-1.38,1.11.16,1.4,2.14,2.18,2.55Z"/>
      <path class="st2" d="M129.14,373.88c-.44-.38-.89-1.18-1.72-1.45-.48-.16-.77.4-1.26.47-.57.09-1.62.23-2.16.04-1.67-.58-2.73.58-4.04,1.02-10.78,3.62-13.64,5.3-21.27,13.79-6.74,7.51-2.75,20.87-2.08,28.32.39,4.29-2.66,8.25-3.69,11.96-3.58-.9-4.28,10.47-10.2,9.77,1.63-1.95,1.87-5.28,3.13-6.56,2.33-2.37,2.48-5.31,4.01-8.24,1.34-2.57,1.96-5.91-.34-9.35-2.67,1.46-2.94,4.84-2.89,7.24-1.37.86-1.71,2.49-1.79,4.04-.01.28-.1.57-.08.85-3.31,0-3.41,7.9-9,9.09-3.95.85,4.43-10.41,3-8.92,7.83-8.13,7.22-19.11,4.24-13.46,1.76,3.75-1.52,4.14-2.77,5.64-2.69,3.23-8.33,12.41-13.02,11.9-6.23-6.41,11.83-10.07,10.75-20.34-3.8,1.4-5.41,4.58-9.09,5.28-1.96.37-3.98-.78-4.75-2.61-1.34-3.17,10.24-5.9,13.06-11.22,2.43-4.57,3-10.49,6.62-14.48s4.81-10.16,8.83-12.95l12.47-8.65c7.63-5.29,22.91-5.27,21.91-5.05.71-.16,1.48-.07,2.2-.16,9.95-1.14,16.29-14.18,21.23-10.28,1.58,1.25-.77,3.91-1.6,5.87l9.54.06c1.88,1.58-.47,4.58-2.58,5.03-1.1.23-1.94,1.09-1.5,1.94.49.96,4.09.22,4.51,1.17,2.17,4.89-8.46,6.77-12.38,6.67l-1.06,7c-9.13,2.53-11.1-3.86-16.22-3.45Z"/>
      <path class="st2" d="M128.99,384.23c-.04,3.03,1.11,6.26.74,9.68-.5,4.58.59,7.88,4.64,9.93l12.43,6.29-4.43,11.93c-5.9-2.55-10.07-10.68-12.78-10.16.22-1.76-1.67-3.78-3.39-3.73-1.6.04-7.02-5.05-7.35-12.19-.25-5.37,2.19-10.29,7.15-11.88.9-.29,2.07.31,3,.13Z"/>
      <path class="st4" d="M179.94,479.82c-.1-1.54.3-3.1,1.19-4.24,2.71-3.43,8.69-.05,17.65-2.83,3.91-1.21,7.46-4.25,11.22-4.78-3.08,3.71-8.02,5.25-12.57,7.42-9.05,4.32-9.95-1.9-17.49,4.43Z"/>
      <path class="st4" d="M92.92,428.04c-1.54,5.54-4.9,12.77-11.54,12.54-2.37-.85-1.08-5.85-.39-7.58.27-.22.99.1,1.42-.17.59-.36.62-1.18.58-1.83l1.94.14.91.11c-1.26,1.28-1.5,4.61-3.13,6.56,5.92.7,6.62-10.67,10.2-9.77Z"/>
      <path class="st1" d="M87,425l-2.16-.07c.08-1.54.42-3.17,1.79-4.04.43-.27.69-.98,1.3-.99-.25,1.71-.97,3.34-.92,5.1Z"/>
      <path class="st1" d="M89.86,423.01c-1.53,2.93-1.69,5.87-4.01,8.24l-.91-.11.06-2.14c1.86-.44,1.14-3,2-4,1.24-1.44,2.41-2.86,2-5,1.48.11.98,1.99.86,3.01Z"/>
      <path class="st1" d="M78.76,425.94c1.44-1.49-6.95,9.77-3,8.92,5.59-1.19,5.69-9.09,9-9.09.1,1.07.27,2.15.24,3.23-.58.14-1.48-.02-1.77.65-.19.44-.25.95-.23,1.35.04.65,0,1.48-.58,1.83-.43.27-1.15-.06-1.42.17l-3.78,3.14c-1.25,1.03-2.85,1.23-3.75-.09-2.13-3.1.92-5.66-2.47-5.05,4.04-2.65,6.17-8.38,7.76-5.06Z"/>
      <path class="st3" d="M207.26,437.76c-.21-2.2-.23-4.72.84-6.76,1.79-3.41.68-7.32.92-11.05,2.8,2.03,3.91,14.08-1.76,17.81Z"/>
      <path class="st4" d="M174,482.9c-3.85,3.22-10.91,3.14-14-.93,4.7.25,9.27,1.04,14,.93Z"/>
      <path class="st1" d="M236.98,420c-.22-1.93-.46-4.61.91-6-.03,1.98,1.05,4.77-.91,6Z"/>
      <path class="st4" d="M78.76,425.94c-1.59-3.32-3.73,2.41-7.76,5.06-1.57,1.03-2.9-.07-3.79-.98,4.69.51,10.32-8.67,13.02-11.9,1.25-1.5,4.53-1.89,2.77-5.64,2.98-5.66,3.6,5.33-4.24,13.46Z"/>
      <path class="st4" d="M124,372.94c-.56,1.63-2.68,1-4.04,1.02,1.31-.44,2.37-1.6,4.04-1.02Z"/>
      <path class="st1" d="M237.9,413l.1-1c1.17.04,1,.79-.1,1Z"/>
      <path class="st4" d="M158,481.87c-1.02-.05-1.72-.96-2-1.9.89-.02,1.64,1.26,2,1.9Z"/>
      <path class="st4" d="M177,481.88c.4-.89,1.13-1.59,2.01-2.02-.27,1-.97,1.82-2.01,2.02Z"/>
      <path class="st4" d="M175,482.87c.24-.41.59-.73,1-.97-.07.52-.48.96-1,.97Z"/>
      <path class="st4" d="M89.86,423.01c.12-1.02.62-2.9-.86-3.01-.33-.02-.75-.11-1.08-.1-.61.01-.87.72-1.3.99-.05-2.4.22-5.78,2.89-7.24,2.31,3.44,1.68,6.79.34,9.35Z"/>
      <g>
        <path class="st3" d="M128.96,241.07l.17,22.84c-.82.34-1.59.11-1.88-.66s.13-1.74-.8-3.21l-6.12,16.51c-.95,2.57-5.18,2.98-6.05,5.49-1.05,3.05.19,6.28-.39,8.96-.06.27-.13.75-.02,1-.89.81-1.45,1.89-1.88,3-1.63.16-2.66,1.47-3,3h-1c-3.59,0-6.73-1.35-9.77-3.17.28-.42-.03-.85-.23-1.83-.12-.6-.2-1.17-1-1-.13.03-.47-.01-1.01-.05-4.45.86-3.81,6.88-8.99,5.99-.61-.42-2.06-1.05-2.79-.96.59-.66-.07-1.73-.74-1.93-.91-.27-2.66-.39-2.63.84-1.33-.32-3.3.02-4.67,0,.16-1.09-1.1-.88-1.69-.96-1.21-.15-2.27.84-1.66,1.96-.47-.15-1.06.18-1.56.11-.45-.06-.97.01-1.59.2s-.65,1.19-.77,1.8c-3.57,2.87-6.12,7.25-6.81,11.81-.11.76-1,1.4-.91,2.38.12,1.47-.19,3.11-.22,4.57-.02.27-.53.58-.65.97-.16.52.34,1.02.59,1.43l-.03,11.7c-.23.28-.63.61-.65.92-.06.75.17,1.63.99,1.36.06.47-.19,1.4,0,1.87l-2.25,5.02c-1.27,2.84.24,6.28-1.15,8.88-2.36,1.09-3.91,3.04-7.26,1.19-.93-.51-2.28.79-2.53,1.52-1.62,4.93,2.01-1.29,10.55,6.62,5.55,5.14,6.18,16.26,6.71,23.6.27,3.73,1.25,6.75.11,10.6s-3.82,16.7-10.67,15.44c-1.4-.26-2.59-1.52-3.61-3.04-5.74-8.53-.95-16.38-4.47-19.85-1.33.75-3.41,2.49-4.32,2.76-7.9.35-6.56-9.16-9.34-11.84-6.96-6.71-9.72,1.95-17.92-31.85-.63-2.58.94-5.45-1.05-7.06v-1c2-5.83.53-13.81,10.01-17.82-.87-7.93,2.35-15.37,6.12-21.83,1.89-3.23,3.08-6.95,6.53-7.36,3.91-.46,6.52-.05,9.83,3.75.82-7.6,6.08-15.19,7.47-20.95,1.49-6.19,5.83-14.13,12.94-14.74,6.51-.56,7.59,6.44,10.12,11.88,2.17-6.82,4.42-12.66,10.77-15.09,8.94-3.42,11.02,2.87,12.63,2.14.5-.23,1.52-1.15,1.52-2.04-.03-6.37,7.28-22.85,13.06-26.95,8.78-6.24,8.3,15.95,11.6,18.14.61-2.22-.05-5.15,2.36-5.07Z"/>
        <path class="st5" d="M80.84,295.9c1.07.5,2.05,1.25,3.37,1.09.73-.09,2.18.53,2.79.96,1.46,1.01,2.66,4.47.83,7.22,5.01-.65,6.76-4.54,10.37-7.69,1.9,2.42.2,4.66-.47,7.59,4.44,2.16,11.17,2.57,12.2,5.09.34.82.97,2.81-.27,3.29-3.44,1.31-6.68-.04-10.04-.88-2.41-.61-7.51.81-5.73,3.44.16.23-.13.72-.04.99,1.71,3.39,5.6,5.76,9.14,7.01.87.67,2.03,1.74,2.87,2.32,2.59,5.7,5.65,13.11.99,18.65-3.36,3.99-8.83-.51-10.82-3.9-1.65-2.81-5.31-4.54-7.7-6.02-2.61-1.61-6.21.04-8.47-1.84-.94-.78-.44-3.03-1.68-3.28,0-.24.05-.68-.04-.92-.19-.49-.69-.82-1.15-1-.1-.65.23-1.36.09-2-.43-1.95.4-5-1.45-6.7-1.21-1.11-3.14.4-3.93,1,.44-.34-7.06,20.11,7.36,27.7l1.91,1.01,3.6,2.48c2.22,1.53,2.65,3.73,1.95,5.67-.84,2.33-2.79,3.52-5.58,3.16-12.41-1.6-16.89-17.47-19.75-24.32-.19-.47.05-1.39,0-1.87-.03-.3.63-.61.62-.92-.04-.71-.12-1.64-.95-1.35l.03-11.7c.92.27,1.37-.76,1.09-1.65-.15-.48-.39-1.04-1.03-.74.03-1.46.34-3.09.22-4.57.64.6,1.45-.08,1.8-.73.32-.59,0-1.88-.89-1.65.68-4.56,3.24-8.94,6.81-11.81.73.09,1.48-.08,2.11-.74.31-.32.72-.72.25-1.26.5.07,1.08-.26,1.56-.11,1.31.41,2.38-.48,3.35-1.01,1.36.02,3.34-.32,4.67,0ZM85.77,311.98c-.02-.98-1.69-.94-2.19-.74-2.65,1.06-1.79,17.98,1.83,15.41,2.44-1.73.54-6.83.36-14.68Z"/>
        <path class="st1" d="M98.23,294.83c3.05,1.82,6.18,3.17,9.77,3.17-.66,1.83-3.27.5-4.94,1.07-1.31.44-2.61,4.45-1.44,5.03,1.31.66,13.88,3.42,10.7,9.74-2.93,5.82-12.56-1.57-18.42,2.16-1.78-2.62,3.32-4.05,5.73-3.44,3.36.84,6.59,2.19,10.04.88,1.25-.48.61-2.47.27-3.29-1.03-2.52-7.76-2.93-12.2-5.09.67-2.93,2.37-5.17.47-7.59-3.61,3.15-5.37,7.04-10.37,7.69,1.83-2.75.63-6.21-.83-7.22,5.19.89,4.54-5.13,8.99-5.99-1.41,2.68-4.7,4.32-3.93,8.15,2.66-1.19,3.61-3.46,6.16-5.26Z"/>
        <path class="st1" d="M77.09,326c-1.42-1.02-.99-3.29-3.41-4.53-4.52,9.6-.69,18.98,5.39,26.54-14.42-7.59-6.92-28.04-7.36-27.7.79-.61,2.72-2.11,3.93-1,1.85,1.69,1.01,4.74,1.45,6.7Z"/>
        <path class="st1" d="M80.98,349.02c3.72.04,8.79,2.2,8.01,6.97-.85,5.18-6.93,7.14-11.4,5.5-11.24-4.13-10.03-12.26-15.76-15.44-1.1,1.27-2.41,3.11-4.03,3.86,1.39-2.6-.12-6.04,1.15-8.88l2.25-5.02c2.86,6.85,7.34,22.72,19.75,24.32,2.79.36,4.75-.83,5.58-3.16.7-1.94.27-4.14-1.95-5.67l-3.6-2.48Z"/>
        <path class="st1" d="M78.19,329.92c1.24.24.74,2.5,1.68,3.28,2.27,1.88,5.86.23,8.47,1.84,2.39,1.48,6.05,3.21,7.7,6.02,1.99,3.39,7.46,7.89,10.82,3.9,4.66-5.54,1.6-12.95-.99-18.65,4.29,1.47,7.47,9.02,4.68,15.32-1.6,3.62-5.57,8.1-10.1,5.86-3.5-1.74-5.61-5.97-8.52-8.39-3.76-3.12-8.92-2.21-13.12-3.89-1.62-.79-.65-3.98-.63-5.29Z"/>
        <path class="st1" d="M112,295c-.7,1.27-1.04,3-3,3,.34-1.53,1.37-2.84,3-3Z"/>
        <path class="st1" d="M103,324c-3.54-1.25-7.43-3.61-9.14-7.01l9.14,7.01Z"/>
        <path class="st4" d="M112,295c.43-1.11.98-2.19,1.88-3,.8,1.76-1.37,2.07-1.88,3Z"/>
        <path class="st1" d="M78.15,329c-.56-.02-1.07-.44-1.15-1,.46.19.97.51,1.15,1Z"/>
        <path class="st1" d="M84.21,296.99c-1.32.16-2.3-.59-3.37-1.09-.03-1.23,1.72-1.11,2.63-.84.67.2,1.34,1.27.74,1.93Z"/>
        <path class="st1" d="M76.17,295.9c-.97.53-2.04,1.42-3.35,1.01-.61-1.12.45-2.11,1.66-1.96.59.07,1.85-.13,1.69.96Z"/>
        <path class="st1" d="M61.17,313.2c-.08-.98.8-1.62.91-2.38.89-.23,1.21,1.06.89,1.65-.35.65-1.16,1.33-1.8.73Z"/>
        <path class="st1" d="M61.2,334.14c-.82.28-1.04-.61-.99-1.36.02-.31.42-.64.65-.92.83-.29.91.65.95,1.35.02.31-.65.63-.62.92Z"/>
        <path class="st1" d="M60.89,320.16c-.25-.4-.75-.9-.59-1.43.12-.39.63-.69.65-.97.65-.3.89.27,1.03.74.27.88-.18,1.92-1.09,1.65Z"/>
        <path class="st1" d="M71.26,297.02c.47.54.06.94-.25,1.26-.63.66-1.39.83-2.11.74.13-.61.15-1.61.77-1.8s1.14-.26,1.59-.2Z"/>
        <path class="st1" d="M98,293c-.37-.3-.7-.63-1-1,.8-.17.88.4,1,1Z"/>
        <path class="st2" d="M85.77,311.98c.19,7.84,2.09,12.94-.36,14.68-3.62,2.56-4.48-14.36-1.83-15.41.5-.2,2.17-.25,2.19.74Z"/>
      </g>
    </g>
    <g>
      <path class="st3" d="M437.98,392.05c-1.1,1.41-2.78,2.6-2.97,5-.09,1.14.58,2.09,1.54,2.55.4.19.76-.15,1.3-.47.9-.03,1.94.42,2.86.22-.55.4-.16,1.11.59,1.26l6.87,1.31,1.59.06c.44,1.34,2.33.84,3.44.86l1.67.03c1.55,1.73,4.15,1.92,6.33,1.98l2.8.08c1.1,1.49,3.23,2.48,4.84,1.29.61-.04,1.26.24,1.86.14.13,2.52,3.57,1.54,5.41,1.65.53.03,1.16.25,1.68.15-.1,2.19,2.52,2.54,4.27,2.89,1.1,2.17,4.52,3.31,4.92,5.87.13,1.08-.23,2.9,1.11,3.25.98,5.82-.14,11.88-.79,17.75s-.61,11.64-1.67,17.64l-2.39,13.55c-1.13,6.43,9.29,16.03,1.83,18.22-1,.29-1.71.85-1.95,1.54l-8.88.16c-1.54-1.75-4.8-1.64-6.32.16l-3.72.73c.14-1.03-1.07-.93-1.7-1-1.08-.11-2.37.73-1.7,1.87l-5.57.14c-1.9-1.56-6-.63-6.42,1.88-.86.15-2.1.14-2.94.09-.83-.42-1.69-1.1-2.74-.89.03-.33-.17-.7-.11-1.02.17-.95-.35-1.47-1-2-5.51-4.49-10.41-10.16-14.31-16.54-2.01-3.29-5.24-4.85-7.42-7.6-2.96-3.73-4.57-9.33-9.56-9.92l2.44-2.77,1.75-.14c1.09-.08,2.91.25,3.34-1.06l1.6-.06c1.67-.06,3.42-.49,4.38-1.94.9.21,2.07-.46,3-.34,1.57.21,3.27.47,4.69,1.23,13.4,7.15,17.07,17.07,19.56,9.6l4.04-12.11c.47-1.42.59-2.68-.32-3.45l-.07-2.3c1.39.28,3.41-.62,4.27-1.59s.83-2.56.83-3.78c.83.72,1.38-.29,1.58-.88.18-.53.19-1.01.21-1.46.05-.85.38-1.75.31-2.61.82.64,1.25-.47,1.4-.95.17-.55.32-.99.33-1.44l.02-.73c1.17-.01,2.05-.49,2.06-1.64.02-1.05-.76-1.3-1.53-2.11-1.23-1.29-2.59-1.9-3.71-.76-.58.05-1.27-.43-1.83-.3-1.59-.96-3.98-1.83-6.31-2.03-9.25-.81-17.54-3.12-25.79-6.13-.5-.18-1.24-.33-1.77-.34.64-.79-.25-1.43-.85-1.66-.51-.2-1.01-.25-1.47-.23-.24,0-.5-.06-.73-.02.22-.74-.1-1.49-.78-1.88-.41-.23-.9-.29-1.37-.17-1.16-.94-2.17-2.67-2.98-3.82-.82-2.59-1.41-5.23-2.03-7.87-.5-2.13,2.06-3.59,2.45-5.59.9-4.62,2.14-8.33,5.79-11.44,4.36-3.72,9.91-11.27,16.04-6.89,5.46,3.9,2.04,12.48-1.3,16.77Z"/>
      <path class="st3" d="M450.93,505.99l-1.26,17.83c-.47,6.69-1.53,12.66,1.89,18.88,1.01,1.84-.83,3.86-1.63,4.99-1.28,1.82-14.55,3.38-19.03-3.55-1.94-3.01-4.17-4.92-7.06-7.06-6.25-4.63-6.67-14.04-1.48-19.65,4.26-4.61,7.13-9.44,10.46-14.69,1.47-2.31,5.1-2.45,6.32-4.73,3.96,5.53,12.27,1.24,11.79,7.98Z"/>
      <path class="st3" d="M405.15,455.2c.52.64,1.13,1.2,1.81,1.67-1.48,6.47-5.78,11.79-5.81,19.35-.02,3.98-1.44,12.71-7.24,12.37-6.47-.38-13.14-9.47-14.79-14.6.56-10.09,4.12-6.64,5.93-10.7,1.29-.43,2.61-.71,3.86-1.29,1.8-.83,5.37-.25,5.31-2.83.56-.08,1.13-.13,1.7-.17.66-.04,1.33-.08,2.09-.58.36-.24.88-.54.29-1.11.88.05,1.74-.29,2.61-.32,1.11-.04,2.13-.52,2.38-1.7l1.88-.11Z"/>
      <path class="st5" d="M467.91,489.2c1.78,2.24,4.36-.12,6.32-.16l8.88-.16c2.34.43,2.56,2.96,1.97,4.94-2.93.59-5.79,1.73-8.28,3.35-3.95-1.12-7.74.96-12,1.53-4.51.6-9.07.68-11.83,4.29-.7.92-.75,2.48-2.04,2.99.48-6.74-7.83-2.45-11.79-7.98.47-.87,1.25-1.67,2.04-2.14,1.94-.2,3.85-1.11,4.68-2.95.84.05,2.08.06,2.94-.09,2.17-.37,4.8-.27,6.42-1.88l5.57-.14c1.43-.04,2.3.03,3.4-.88l3.72-.73Z"/>
      <path class="st4" d="M489.27,438.34c.49.42.77,1.01.73,1.66-3.1-.27-1.61,12.94-4.14,22.85-3.94,15.45,6.92,12.97,1.76,27.78l11.34,1.56h.94c.17,1.91-1.05,1.85-1.77,2.86-3.94-2.54-8.56-2.14-13.05-1.23.6-1.98.37-4.51-1.97-4.94.24-.69.95-1.24,1.95-1.54,7.46-2.19-2.96-11.79-1.83-18.22l2.39-13.55c1.06-6,1.03-11.91,1.67-17.64l1.97.41Z"/>
      <path class="st4" d="M445.85,492.92c-.83,1.84-2.73,2.75-4.68,2.95.31-1.38.9-2.78,1.93-3.84,1.05-.21,1.91.47,2.74.89Z"/>
      <path class="st4" d="M443,491c-.81-.32-1.02-1.2-1-2,.65.53,1.17,1.05,1,2Z"/>
      <path class="st1" d="M459.07,423.34c-3.99.96-28.82-2.89-32.1-8.17,8.25,3.01,16.54,5.32,25.79,6.13,2.33.2,4.72,1.07,6.31,2.03Z"/>
      <path class="st1" d="M464.07,428.15c.66-2.32-1.58-3.26-3.17-4.51,1.12-1.14,2.48-.53,3.71.76.77.8,1.54,1.05,1.53,2.11-.02,1.15-.9,1.63-2.06,1.64Z"/>
      <path class="st1" d="M462.01,433.88c-.03.45-.03.93-.21,1.46-.21.6-.76,1.6-1.58.88,0-.72-.39-1.59.36-2.22.41-.34.96-.53,1.44-.12Z"/>
      <path class="st1" d="M464.05,428.89c-.01.45-.16.89-.33,1.44-.15.48-.58,1.59-1.4.95-.06-.73-.54-1.62.24-2.29.44-.37,1.03-.55,1.5-.1Z"/>
      <path class="st1" d="M425.2,414.84c-.73-.01-1.58.3-2.19-.47-.35-.44-.61-.94-.13-1.42.45-.02.95.03,1.47.23.59.23,1.49.87.85,1.66Z"/>
      <path class="st1" d="M422.15,412.93c-.69.11-1.57.12-1.95-.55-.24-.42.01-1.21-.21-1.49.47-.12.97-.07,1.37.17.68.39,1,1.14.78,1.88Z"/>
      <path class="st4" d="M474.23,489.04c-1.96.04-4.54,2.4-6.32.16,1.53-1.8,4.78-1.91,6.32-.16Z"/>
      <path class="st4" d="M455.21,490.94c-1.62,1.61-4.24,1.51-6.42,1.88.42-2.51,4.52-3.44,6.42-1.88Z"/>
      <path class="st4" d="M464.19,489.93c-1.1.91-1.97.84-3.4.88-.67-1.14.63-1.98,1.7-1.87.63.06,1.84-.04,1.7,1Z"/>
      <g>
        <path class="st0" d="M535.19,453.28c-2.21,4.65.94,4.68.81,11.72-.99,2.05-.76,3.13-2.19,4.9l-8.97,11.08c-.95,1.18-1.42,3.61.1,4.31,7.66-6.72,25.58-13.49,33.69-7.71,4.16,2.97,4.62,10.48,1.13,14s-7.85,2.85-11.61,3.96c.56-.87-.23-.93-1.28-1.08-3.26.51-6.28,1.79-9.49,3.03-.88.34-.33,2.1.31,2.43,6.03,3.12,11.51-2.86,22.82,9.69,3.2,4.5,2.81,12.11-1.46,15.33-6.78,5.11-16.26,2.41-21.99-2.75l1.34,7.31c3.37,18.38.82,14.17.14,22.42-.63,7.6-4.6,9.57-10.56,11.05-2.58-.13-6.58,1.17-8.63-1.47-4.67-6.03-2.92-13.95-.79-20.67,1.04-3.27-.02-6.48,1.53-9.8-1.61.54-2.24,1.08-3.87.7-2.26,8.2-4.77,15.13-8.6,23.3s-17.56,14.38-24.28,6.58c-5.99-6.94,2-18.61,8.76-21.04,2.15-.77,3.66-3.18,2.46-4.03-3.82-2.7-9.16,7.84-19.98,2.98-2.69-1.21-4.77-2.54-5.23-5.43-.39-2.41.08-6.76,3.49-7.17,2.93-.35,7.34.59,7.58-2.71,3.3,1.61,6.95.53,10.53.89,8.8.89,16.35-2.97,21-10.25,1.3-2.04,3.54-3.41,4.08-6.04.33-1.58-.25-3.11-1.57-3.6-3.18-1.19-6.3,9.87-14.78,12.45-1.86.56-4.1.18-5.05-.87-5.01-5.56,12.71-18.4,15.48-20.78,4.02-3.45-2.6-13.6-3.4-15.89l-5.92-17.1c-.52-1.5-.65-3.54.69-4.18.89-.42,3.08-.67,4.41.15,6.97,4.28,8.17,13.11,6.46,20.34,1.03.83,2.54.66,3.53-.17.85-.71,5.36-21.86,8.17-25.18.05-.55-.02-.88.02-1,3.47-1.71,8.03-2.41,11.07.28Z"/>
        <path class="st5" d="M503.17,478.22c1.05.37,1.86,2.61,3.57,1.91.79,2.3,7.42,12.44,3.4,15.89-2.77,2.38-20.49,15.22-15.48,20.78.95,1.05,3.2,1.43,5.05.87,8.48-2.57,11.6-13.64,14.78-12.45,1.31.49,1.89,2.03,1.57,3.6-.54,2.63-2.78,4-4.08,6.04-4.65,7.28-12.2,11.14-21,10.25-3.58-.36-7.23.72-10.53-.89-.6-.29-.88-1.46-2.53-1.45-.26-.31-.64-.49-.91-.78-1.44-4.18-3.66-9.02-1.66-13.77.98-2.33,4.98-1.12,6.77-1.43,6.57-1.12,12.9-5.91,16.02-11.75.73-1.02,1.94-.96,1.77-2.87-.59-6.82-4.9-9.26-1.96-12.78.89-1.07,3.62-1.75,5.23-1.18Z"/>
        <path class="st4" d="M524.1,454c-2.8,3.32-7.32,24.47-8.17,25.18-.99.83-2.5,1.01-3.53.17,1.7-7.23.5-16.06-6.46-20.34-1.33-.82-3.52-.58-4.41-.15-1.35.64-1.21,2.68-.69,4.18l5.92,17.1c-1.71.69-2.52-1.54-3.57-1.91-.12-.35.11-.89-.07-1.22-.61-1.15-7.18-20.06-2.81-20.22,5.61-2.79,11.61,3.55,13.24,8.57,1.14,3.51-.7,6.69,1.08,9.84l5.71-17.83c.59-1.83,2.2-3.41,3.76-3.36Z"/>
        <path class="st4" d="M480.44,524.23c-.24,3.3-4.65,2.36-7.58,2.71-3.41.4-3.88,4.75-3.49,7.17.46,2.89,2.54,4.22,5.23,5.43,10.81,4.86,16.16-5.68,19.98-2.98,1.2.85-.32,3.26-2.46,4.03-6.76,2.43-14.75,14.1-8.76,21.04,6.73,7.8,20.49,1.53,24.28-6.58s6.33-15.1,8.6-23.3c1.63.38,2.26-.15,3.87-.7-1.55,3.31-.49,6.53-1.53,9.8-2.13,6.72-3.88,14.63.79,20.67,2.05,2.64,6.04,1.34,8.63,1.47-3.57.89-4.99,3.54-9.56-.21-4.15-3.4-4.46-9-4.81-15.12-4.26,9.79-11.94,19.4-22.81,18.57-4.81-.37-9.79-2.87-11.35-7.17-3.7-10.17,7.41-13.74,7.66-18.17-3.04.11-5.06,2.8-7.98,1.94-4.05-1.19-8.93-2.88-11.58-6.32-1.43-1.86-.67-6.74.29-8.59,2.06-3.97,7.01-2.97,10.06-5.15,1.65,0,1.93,1.16,2.53,1.45Z"/>
        <path class="st1" d="M476.79,497.18c-.07,5.33,5.6,5.42,5.32,9.62-1.79.31-5.79-.91-6.77,1.43-2,4.76.22,9.59,1.66,13.77-2.63-2.73-4.99-6.59-4.88-10.82.09-3.37,3.86-4.4,5.51-6.48,1.55-1.95-1-3.72-2.05-4.8-1.86-1.9-17.97,3.63-22.61,3.1,2.75-3.61,7.32-3.69,11.83-4.29,4.26-.57,8.05-2.66,12-1.53Z"/>
        <path class="st4" d="M548.15,495.54c-3.46,1.02-6.35,1.87-8.43,4.4,6.7-.64,21.47,1.61,20.79,9.67-11.31-12.55-16.79-6.57-22.82-9.69-.65-.33-1.19-2.1-.31-2.43,3.22-1.24,6.23-2.52,9.49-3.03,1.05.15,1.84.22,1.28,1.08Z"/>
        <path class="st1" d="M503.11,477c.17.33-.06.87.07,1.22-1.61-.57-4.34.11-5.23,1.18-2.94,3.52,1.37,5.96,1.96,12.78h-.94c.21-2.46-7.78-10.32-2.29-14.39,1.91-1.42,4.64-.41,6.44-.79Z"/>
        <path class="st1" d="M536,465c.13-7.04-3.02-7.07-.81-11.72.19.17.62.06.86.17,3.66,3.31,1.64,8.05-.05,11.55Z"/>
        <path class="st0" d="M498.13,495.06c-3.12,5.84-9.45,10.63-16.02,11.75.28-4.2-5.39-4.3-5.32-9.62,2.5-1.62,5.36-2.76,8.28-3.35,4.49-.9,9.11-1.3,13.05,1.23Z"/>
      </g>
    </g>
    <g>
      <path class="st5" d="M387,195.14c-.1.98-.87,1.8-1.01,2.73-4.72-1.09-2.05,13.11-4.71,16.47l-10.57,3.29c-2.1.65-3.66,2.5-3.64,4.5,0,.24.04.5-.02.73-3.31-2.15-4.55,15.51-.1,14.25.07.21,0,.49,0,.72.02.45.07.93.27,1.5.22.63,1.24.59,1.77.8.65,1.63,2.67,2.91,3.9,3.86.68.53.44,2.74,2.22,2.06.21.02.57.13.77.22.99,3.62,5.81,4.08,9.15,3.62l4.96-.69-.13,3.58-.86,1.01c-1.32.11-2.1,1.07-2.67,2.07-1,1.75-.09,3.01,1.51,3.32l2.31,5.96c-2.26,1.86-3.01,5.28-3.01,8.93l-.03,92.78c0,2.69.59,4.51.25,7.26-1.73,14.08,1.74,26.85.05,34.88-.21.97.31,1.87.72,2.35.82.96,1.71-.08,2.82-.54l22.9-9.48c1.03,3.02,1.03,5.34,3.16,5.72.81,1.15,1.82,2.87,2.98,3.82.22.28-.04,1.07.21,1.49.38.66,1.26.66,1.95.55.23-.04.5.03.73.02-.48.48-.22.98.13,1.42.61.77,1.45.46,2.19.47.53.01,1.27.16,1.77.34,3.27,5.28,28.1,9.12,32.1,8.17.57-.14,1.26.35,1.83.3,1.59,1.25,3.83,2.19,3.17,4.51l-.02.73c-.47-.45-1.06-.27-1.5.1-.78.66-.29,1.56-.24,2.29.07.86-.26,1.76-.31,2.61-.48-.4-1.03-.22-1.44.12-.75.64-.36,1.5-.36,2.22,0,1.22.05,2.79-.83,3.78s-2.88,1.87-4.27,1.59c-3.69-.75-6.99,1.99-11.12,1.8l-3.24-.15c-.57-.03-1.34.54-.88,1.63-.28-.02-.63-.03-.91.04-5.55,1.26-9.57-.28-11.76,3.72-.93-.13-2.1.54-3,.34-.76-.59-1.49-.93-2.24-.6-1.31.56-2.29,1.26-2.14,2.55l-1.6.06c-.56-.66-1.23-.92-1.81-1.01-1.15-.19-2.26,1.03-1.53,2.07l-1.75.14c-2.86.22-5.92.86-7.99,3.04l-1.88.11c-.42-.11-1.06-.43-1.69-.26s-1.17,1.27-.69,1.96c-.86.03-1.73.37-2.61.32-.49-.03-1.06-.34-1.66-.19-.74.18-1.23,1.12-.72,1.87-.56.03-1.14.09-1.7.17-2.04.29-5.46.16-5.31,2.83-1.25.58-2.57.86-3.86,1.29-8.14,2.69-15.82,6.54-23.26,11.55-2.48,1.67-5.64,2.28-6.88,4.75-.23-.05-.72.05-.93.17l-14.38,8.22.18-109.59c-8.72-1.1-13.88,3.01-26.27,6.12-3.15.79-6.59,1.29-8.5,3.48-.24.05-.76,0-1-.08-2.92-.95-5.76,1.35-8.99,1.99-2.09.42-30.54,7.46-28.16,8.94-.21.05-.68.1-.9.04-2.29-.59-6.34,1.08-9.12,1.98-9.2,2.96-18.37,4.85-27.79,7.29-.92.24-1.93.8-1.26,1.66l-1.66.02c-1.67-1.35-3.96-.09-5.23,1.34-.49-.17-1.24.26-1.68,0-2.33-1.32-4.02,1.58-6.2,2.06-8.25,1.82-15.98,4.35-24.16,6.75-2.7.79-5.32.36-8.21,1.71-2.62,1.22-13.72,3.16-15.31,5.23s-.78,4.4-1.14,7.11l-1.33,9.96-.24,1.16c-3.05,5.28-7.16,8.01-8.51,11.55-1.23.34-2.08,2-3.3,2.45-4.48,1.64-2.57,5.33-11.22,5.41-1.69.02-2.37-2.1-4.16-3.47.03-.36-.24-.74-.25-1.09-.25-3.46-.31-6.93-.16-10.82,2.01-1.37,1.5-4.07,2.54-5.6,2.38-3.48,6.64-3.54,10.08-5.11,2.21-1.01.8-4.35-.39-5.42-1.61-1.44-4.02-1.83-5.41-.04-1.92,2.46-7.34,3.01-9.85,3.93-4.84,3.22-2.59-23.54-2.4-25.06,2.71-.52,6.87,7.61,12.78,10.16l4.43-11.93-12.43-6.29c-4.05-2.05-5.14-5.35-4.64-9.93.37-3.42-.78-6.65-.74-9.68l.14-10.35c5.12-.41,7.09,5.98,16.22,3.45l1.06-7c3.92.1,14.55-1.78,12.38-6.67-.42-.95-4.02-.21-4.51-1.17-.44-.86.41-1.71,1.5-1.94,2.11-.45,4.46-3.44,2.58-5.03l-9.54-.06c.83-1.96,3.19-4.62,1.6-5.87-4.94-3.91-11.29,9.14-21.23,10.28-.2-8.38-.52-16.99.07-25.82.22-3.29-.31-4.89-1.6-7.17-2.47-4.36-6.04-8.15-6.64-13.39,1.81-.51,3.19-1.13,2.97-2.48h3c.44,0,1.07.17,1.46-.04.51-.27.64-1,.64-1.93l.04-45.12-.17-22.84.04-54.07c3.04-.71,5.56,1.39,8.61,2.23l9.39,2.58c2.52.69,5.09,1.53,7.58,2.18,4.7,1.24,9.4.84,14.23,3.87-2.5,2.65-3.94,5.86-2.21,8.65.55.88,2.76.11,3.39.29.19.8.38,1.57.67,2.26.44,1.05,1.67,1.2,2.67.93,2.39-.64,2.37,2.33,4.23,2.79,3.01.75,1.24-4.97,7.65-5.44.43-2.19.23-4.07.31-6.89,5.34-1.41,10.79-.96,16.51-.6,12.54.79,24.46-.81,37.27-1l-6.47,21.9c-.79,2.69-2.81,4.84-2.2,7.54.11.48-.47,1.14-.55,1.64-1.07-.73-2.28.4-2.11,1.47.09.6.35,1.26,1.01,1.81l-.07,1.61c-1.38-.15-2.06,1-2.54,2.16s-.39,2.34.58,3.21c.03.54-.13,1.09-.06,1.62-2.25-.06-2.78,2.51-2.69,4.39-.39.91-.31,2.95-1.99,2.93l-23.23-.3-9.85-.93c-3.95-.37-7.48-2.17-11.39-1.17-.72,5.37-.76,10.57-.75,16.35l.15,103.85c0,1.27.24,2.21.58,2.97.36.81,1.86.84,3.06.47l22.16-6.75c3.28-1,7.88-.44,9.07-3.64.3-.03.71-.08,1,0,3.68,1.01,8.14-.85,12.07-2.01l21.82-6.42c3.04-.9,5.86-1.34,8.9-2.26l6.87-2.1,24.17-6.73c1.57-.44,3.2-.69,3.31-2.15,3,.5,6.99-1.19,9.87-2.33,3.75.78,7.15-1.02,11-2.12l24.99-7.11c2.45-.7,4.02-1.95,4.01-4.9l-.26-102.97c-2.02-2.56-8.2,2.49-9.51,3.77-.3-.16-.87.33-1.23.28-3.88.79-7.21,3.37-11.31,4.98-2.07.81-4.89.4-4.69,3.07-3.12.63-7.23,1.86-10,3.35.24-1.06-.63-1.94-.89-.15l-18.67,5.91c-3.75,1.19-19.62,4.3-23.42,4.52-3.18.19-9.81,4.32-12.33.8-.81-1.13,1.33-1.32,1.65-2.17l8.31-22.18c1.32-3.52,2.36-6.88,1.67-10.17-.14-.66.42-1.45.37-2.13,3.87-1.57,1.19-11.72,2.23-15.49l11.07-1.59c1.31-.19,27.18-6.29,26.29-8.56,1.33-.4,4.97-.83,5.91.45,2.9,3.95-.86,9.18.37,13.36s7.76,1.49,10.27-.06c10.93-6.74,3.93-14.13,4-20.09l12.51-5.58c8.67-3.87,16.62-8.47,24.68-13.37,4.42-2.69,9.32-4.48,12.06-8.5.3-.44,1.03-1.07,1.41-1.42,6.38-2.41,10.99-8.1,17.03-13.02l.5,49.04c.04,4.09.2,7.79-1.02,11.18Z"/>
      <path class="st4" d="M353.97,479.77c-.38.79-16.96,16.7-16.97,9.05v-108.82c-5.47.78-10.06,3.28-15.23,4.63-1.47.38-14.91,2.74-16.78,3.36,1.91-2.19,5.35-2.69,8.5-3.48,12.39-3.1,17.55-7.22,26.27-6.12l-.18,109.59,14.38-8.22Z"/>
      <path class="st1" d="M219.22,411.19c1.87,1.64-5.79,2.66-9.56,4.25-2.95,1.24-.57,3.27-.64,4.51-.24,3.73.87,7.64-.92,11.05.06-4.59-.26-8.84-1.44-14.3-5.97,3.08-12.33,3.48-18.92,5.02-7.39,1.73-14.18,4.16-21.26,6.52-1.48,4.57-.62,16.78-3.61,15.77l1.33-9.96c.36-2.72-.43-5.07,1.14-7.11s12.69-4,15.31-5.23c2.88-1.34,5.51-.91,8.21-1.71,8.19-2.41,15.91-4.93,24.16-6.75,2.18-.48,3.88-3.38,6.2-2.06Z"/>
      <path class="st1" d="M172.08,195c.33,6.95,3.68,4.38-2.1,11.79-.63-.17-2.84.59-3.39-.29-1.73-2.79-.29-6.01,2.21-8.65-4.82-3.03-9.52-2.63-14.23-3.87-2.48-.65-5.06-1.49-7.58-2.18l-9.39-2.58c-3.05-.84-5.57-2.94-8.61-2.23-.55-.53-1.26-.84-2-1,0-2.72,14.12,2.22,18.78,3.46l11,2.92c5.2,1.38,10.2,3.17,15.3,2.63Z"/>
      <path class="st1" d="M304,387.92c-.39.68-1.16,1.4-2.3,1.78l-11.91,3.96c-8.79,2.93-14.8,3.85-22.94,5.2-2.38-1.49,26.07-8.52,28.16-8.94,3.22-.65,6.06-2.95,8.99-1.99Z"/>
      <path class="st1" d="M265.96,398.9c-1.5,3.62-31.59,8.28-27.96,12.1-.78-.41-1.06-2.39-2.18-2.55-2.97-.44-5.41,1.34-8.03,1.38-.68-.86.34-1.42,1.26-1.66,9.41-2.44,18.59-4.33,27.79-7.29,2.79-.9,6.84-2.57,9.12-1.98Z"/>
      <path class="st4" d="M129.2,359.86c-.73.08-1.49,0-2.2.16l.02-29.02c0-1.34-.82-2.2-1.02-3l1.67-1.13c1.29,2.28,1.82,3.88,1.6,7.17-.59,8.83-.27,17.44-.07,25.82Z"/>
      <path class="st1" d="M319.83,176.81c-.76-.17-1.03-1.1-1.59-1.47,8.16-1.56,14.93-6.45,22.52-10.57,5.81-3.15,12.46-4.85,17.35-9.68,3.21-3.16,6.84-4.84,10.96-5.73-2.74,4.02-7.64,5.81-12.06,8.5-8.06,4.9-16.01,9.5-24.68,13.37l-12.51,5.58Z"/>
      <path class="st1" d="M150.82,459.17c-.97,4.77-6.39,8.68-11.64,7.72-2.85-.52-3.91-3.68-3.75-5.79,1.79,1.37,2.47,3.49,4.16,3.47,8.65-.08,6.74-3.76,11.22-5.41Z"/>
      <path class="st1" d="M162.63,445.17c-.97,4.76-3.74,10.23-8.51,11.55,1.35-3.53,5.46-6.27,8.51-11.55Z"/>
      <path class="st1" d="M124,311c.21,1.35-1.16,1.97-2.97,2.48.6,5.25,4.17,9.03,6.64,13.39l-1.67,1.13c-.37-1.53-1.03-3.18-2.41-4.58-4.07-4.14-4.97-11.37-1.6-12.6.72-.26,1.3-.74,2.01.19Z"/>
      <path class="st1" d="M135.18,460.01c-1.91-1.22-1.02-3.64-1.22-6.02-.73-8.73,4.56-16.49,13.56-17.34-.7-3.83-3.59-3.49-5.68-3.63,1.4-1.79,3.8-1.4,5.41.04,1.19,1.06,2.6,4.4.39,5.42-3.44,1.58-7.7,1.64-10.08,5.11-1.05,1.53-.53,4.22-2.54,5.6-.15,3.9-.09,7.36.16,10.82Z"/>
      <path class="st1" d="M127,311h-1c-.02-.8.19-1.68,1-2v2Z"/>
      <path class="st1" d="M222.2,249.15l-.2,3.85c-.81-1.54-2.73-2.44-4.92-2.14-5.9.8-11.31-.37-17.01-.75-7.01-.46-13.5.75-20.07-2.36-.48-.23-1.24,1.17-1.53,1.28-.77.27.5,1.22.5,2.24l.05,117.9c11-4.26,21.83-7.87,32.99-9.17-1.19,3.2-5.79,2.64-9.07,3.64l-22.16,6.75c-1.2.37-2.7.34-3.06-.47-.34-.76-.58-1.7-.58-2.97l-.15-103.85c0-5.78.03-10.99.75-16.35,3.91-1,7.44.8,11.39,1.17l9.85.93,23.23.3Z"/>
      <path class="st1" d="M300,336l7.97-3.15c9.7-3.83,19.38-6.24,29.03-8.85v-102c-2.03-2.32-4.26,2.03-6.77.67,1.31-1.28,7.49-6.33,9.51-3.77l.26,102.97c0,2.95-1.56,4.21-4.01,4.9l-24.99,7.11c-3.85,1.1-7.25,2.9-11,2.12Z"/>
      <path class="st1" d="M259.32,210.92c.69,3.28-.35,6.64-1.67,10.17l-8.31,22.18c-.32.85-2.45,1.04-1.65,2.17,2.52,3.53,9.16-.61,12.33-.8,3.8-.23,19.67-3.33,23.42-4.52l18.67-5.91c.26-1.79,1.13-.91.89.15-9.17,4.92-26.37,11.39-37.94,11.63-3.79.08-7.79.16-8.35,4.08-2.68-5.66-8.55.02-10.59-2.97l9.73-25.27c1.46-3.79,1.33-7.82,3.47-10.91Z"/>
      <path class="st1" d="M290.13,338.33c-.11,1.46-1.74,1.72-3.31,2.15l-24.17,6.73-6.87,2.1c-3.03.93-5.85,1.37-8.9,2.26l-21.82,6.42c-3.93,1.16-8.39,3.02-12.07,2.01,13.75-3.58,23.05-9.25,38.16-11.24,10.8-1.42,30.67-11.81,38.97-10.44Z"/>
      <path class="st1" d="M329,222.95c-4.36,4.34-10.08,6.85-16,8.05-.21-2.66,2.62-2.26,4.69-3.07,4.11-1.61,7.43-4.2,11.31-4.98Z"/>
      <path class="st1" d="M226.13,409.85c-1.3,1.37-3.55,2.63-5.23,1.34,1.27-1.43,3.56-2.68,5.23-1.34Z"/>
      <path class="st3" d="M337,324v-102,102Z"/>
    </g>
    <path class="st2" d="M491,239c-3.45,1.28-7.84,4.57-10.95,1.84.64.52,13.17-4.02,10.95-1.84Z"/>
    <g>
      <path class="st3" d="M749,332c1.23,2.76,2.31,7.89-.45,10.29s-6.99-.56-9.29-2.56c-3.61-3.14-3.16-8.22-4.85-12.15-1.99-4.63-1.23-8.14.23-12.69.61-1.91-1.01-4.52.51-6.91s.62-6.86-2.04-7.17c-.31-1-.73-1.92-1.24-2.84-1.22-2.22-1.28-5.51-3.12-7.8-3.07-3.82-8.6-2.9-13.12-3.44-1.33-1.66-2.39-3.3-3.29-4.7-4.86-7.56-4.77-18.31.51-26.24,2.63-3.96,9.92-3.97,12.64-.47,6.12,7.89,3.1-1.95,9.98-8.8,2.81-2.79,6.81-3.19,10.78-1.52,4.26,1.78,8.87,6.81,8.65,11.95-.24,5.83-4.17,10.5-6.37,15.48-.5,1.13-.22,2.28-.64,3-.46.79,1.07,2.55,2.13,1.57l11.45-10.66c2.63-2.45,8.26-2.08,11.52-.35,6.4,3.4,6.8,12.18,2.22,17.13-6.13,6.63,2.6,8.95-21.1,12.07-1.91.25-5.84,2.42-5,4.65,2.69,7.17,14.63-6.38,26.05-2.18,6.04,2.22,9.46,8,7.76,14.57-3.44,13.23-18.38,19.01-30.86,13.63-2.63-1.13-4.67-3.2-8.04-.84,4.08,1.49,4.12,5.1,4.97,6.96ZM725.58,274.75c1.84-1.15,3.26-2.88,2.1-4.33-1.11-1.37-3.3.1-3.59,1.12-.4,1.42-.38,4.37,1.49,3.2Z"/>
      <path class="st4" d="M719.74,342.98c1.53,4.34,8.22,3.76,9.49,8.93-.9-.12-1.65-1.36-3.34-.77,3.14,11.23,10.15,9.2,11.01,24.87.61,11.09-7.66,20.81-17.69,23.84-1.54.46-3.36,1.39-3.32,2.58.04.94.99,2.72,2.26,3.63,5.73,4.11,9.74,12.79,5.05,19.12-4.54,6.12-13.08,7.01-19.81,8.11-3.3.54-20.47,5.84-19.39,5.66-.74.13-1.6.13-2,.89-.32-.03-.68.02-1,.03-.77.04-1.64.22-2,.98-.3-.02-.7-.03-1,.03-.53.11-1.01.58-1.11,1.11-.06.32-.03.68-.03,1-2.68,4.72,1.67,7.74-3.76,16.86l-5.15.91c-8.55-3.33-14.19-12.2-12.89-20.97,1.3-8.79,6.78-15.66,16.28-17.44,1.27-.24,2.43-1.29,2.79-2.21.61,0,1.25.17,1.86.09,6.43-.88,13.51-1.14,19.64-4.97,2.87-1.79-6.91-7.29-4.4-16.34,1.07-3.84,12.04-12.69,15.65-13.98,9.12-3.25,2.02-17.55-2.12-22.72-2.3-2.87-4.15-5.64-5.97-8.5-11.03,11.62-11.33,7.33-21.8,14l-2.01.04c-.34-2.3,1.76-4.21,4.18-4.48,3.57-.39,5.98-2.48,8.79-4.02,4.01-2.2,6.22-4.93,8.56-8.9.96-1.64,2.99-2.5,3.01-5.16.02-2.09,1.73-3.83,3.38-4.25,0,2.21-1.76,3.92-.62,7.1,2.18-1.65,4.01-5.08.62-7.1.15-1.64,1.85-2.25,3.44-1.7,2.79.98.12,7.97-.88,9.24-4.22,5.34,2.55,12.24,1.2,11.4,4.86,3.01-1.16-8.4,2.59-9.51.84-.33,3.4,1.28,3.94.01l2.54-5.89c.45-1.04,3.51.15,4-1.55ZM710.39,366.04c1.07-.51.46-1.55.63-2.53.18-1.07-.17-1.93-2.06-1.41-.15,1.52,1,2.2,1.43,3.95Z"/>
      <path class="st5" d="M731.88,297.97c.51.92.93,1.84,1.24,2.84,1.92,6.16-.06,11.6-4.83,15.84-.94.83-2.6,1.03-3.61,1.49-5.07-.24-10.96,1.94-12.82,6.81-.12.32,0,.74-.07,1.07-5.41,1.39-9.14-1.72-11.92-6.28.51-1.38.85-2.83.76-4.31.26-.65,1.01-.92,1.38-1.44.8.02,1.68-.19,2-1,.33.02.67.02,1,0,4.58-.27,9.63-2.38,12.81-6.14,1.23-1.45-.09-4.14-1.39-4.34s-2.45.45-3.83,1.2c-1.98,1.07-16.27.92-14.41-1.72.13-.25.04-.64.07-.92,5.97-9.27,17.83-13.34,27.62-7.15,2.21,1.4,3.77,3.45,6.01,4.05Z"/>
      <path class="st5" d="M784,329c1.95,2.75-.65,5.86-.37,9.6l-11.64,4.36c-2.94,1.1-5.32.81-5.95,5.37-.58,4.19-2.12,11.17-7.53,12.24-10.28,2.03-19.24-4.52-26.63-7.58-.87-.36-1.95-.33-2.65-1.08-1.27-5.18-7.96-4.59-9.49-8.93-.63-1.79-.18-4.08-.69-5.91l.92-.85c.55.39,1.25.84,1.96.8,4.49,2.67,11.52,9.19,15.76,9.99.42.08.9-.12,1.31-.01.32.34.59.77,1,1l1.91,1.09c4.42,2.54,9.49,3.97,14.67,2.4,6.14-7.53-1.25-17.45,16.02-20.96,4.1-.83,7.67-2.23,11.41-1.53Z"/>
      <path class="st1" d="M731.88,297.97c-2.24-.6-3.79-2.65-6.01-4.05-9.79-6.19-21.65-2.12-27.62,7.15.7-7.85,7.99-11.72,16.38-11.23-1.43-3.84-3.49-5.33-2.28-7.8.9,1.4,1.96,3.04,3.29,4.7,4.53.54,10.06-.39,13.12,3.44,1.83,2.29,1.89,5.58,3.12,7.8Z"/>
      <path class="st1" d="M784,329c-3.74-.7-7.3.7-11.41,1.53-17.27,3.51-9.89,13.43-16.02,20.96-5.18,1.57-10.25.14-14.67-2.4,4.18-.82,9.48,2.74,13.48.3,3.26-2.24,1.47-8.56,3.28-11.84,6.32-11.44,23.65-11.78,25.19-9.94.29.35-.06,1.09.15,1.39Z"/>
      <path class="st4" d="M676.94,298.05c1.77,4.21,19.43,24.28,23.68,17.39.09,1.48-.25,2.93-.76,4.31-2.97.94-11.24-3.69-13.33-6.19-6.46-7.73-14.85-15.37-13.95-23.3-.07-2.48,4.56,8.27,4.36,7.8Z"/>
      <path class="st1" d="M771.99,342.96c-5.09,2.88-4.29,12.24-8.85,17.08-6.64,7.04-26.88-.03-31.25-7.05,7.38,3.06,16.35,9.61,26.63,7.58,5.41-1.07,6.96-8.05,7.53-12.24.63-4.56,3.01-4.27,5.95-5.37Z"/>
      <path class="st1" d="M749,332c2.53,2.7,4.91,8.5,1.07,12.27-1.33,1.3-5.85,1.31-7.64.22-10.13-6.17-7.6-13.12-11.42-26.41-.39-1.36-1.9-1.84-2.73-1.42,4.77-4.24,6.75-9.68,4.83-15.84,2.66.31,3.48,4.91,2.04,7.17-1.52,2.39.1,4.99-.51,6.91-1.46,4.56-2.22,8.07-.23,12.69,1.69,3.93,1.24,9.01,4.85,12.15,2.3,2,6.45,5.03,9.29,2.56s1.68-7.53.45-10.29Z"/>
      <path class="st1" d="M705,313c3-3.51,4.68.83,11.52-7.89-5.12.83-21.24,2.32-18.34-3.12-1.86,2.64,12.43,2.79,14.41,1.72,1.39-.75,2.56-1.4,3.83-1.2s2.62,2.89,1.39,4.34c-3.17,3.76-8.23,5.87-12.81,6.14Z"/>
      <path class="st4" d="M714.12,326c3.68,1.7,4.11,5.55,5.85,10.22l-.92.85c-4.41-2.09.46-4.55-7.28-11.05.07-.33-.05-.75.07-1.07l2.27,1.05Z"/>
      <path class="st1" d="M737.69,347.01c-4.23-.8-11.27-7.32-15.76-9.99,3.93-.21,14.68,6.79,15.76,9.99Z"/>
      <path class="st1" d="M724.67,318.14c-.23,3.09-12.7,2.25-10.55,7.86l-2.27-1.05c1.86-4.87,7.75-7.05,12.82-6.81Z"/>
      <path class="st4" d="M704,313c-.32.81-1.2,1.02-2,1,.49-.67,1.12-1.06,2-1Z"/>
      <path class="st1" d="M684,438.96c-.12,1-1.21.96-2,.89.4-.76,1.26-.77,2-.89Z"/>
      <path class="st1" d="M681,439.88c-.05,1.06-1.18,1.04-2,.98.36-.75,1.23-.93,2-.98Z"/>
      <path class="st1" d="M740,348c-.41-.23-.68-.66-1-1,.48.13.84.55,1,1Z"/>
      <path class="st1" d="M676.89,442c.1-.53.58-1,1.11-1.11-.31.43-.69.8-1.11,1.11Z"/>
      <path class="st2" d="M672.06,287.18c-.04,1,.63,2.08.52,3.08-.9,7.94,7.49,15.57,13.95,23.3,2.09,2.5,10.35,7.13,13.33,6.19,2.78,4.55,6.5,7.66,11.92,6.28,7.74,6.5,2.86,8.95,7.28,11.05.51,1.84.06,4.12.69,5.91-.49,1.69-3.55.51-4,1.55l-2.54,5.89c-.54,1.26-3.1-.35-3.94-.01-3.75,1.11,2.27,12.52-2.59,9.51,1.35.84-5.41-6.06-1.2-11.4,1-1.27,3.67-8.26.88-9.24-1.58-.56-3.29.06-3.44,1.7-1.65.42-3.36,2.16-3.38,4.25-.03,2.66-2.05,3.52-3.01,5.16-2.34,3.97-4.55,6.7-8.56,8.9-2.81,1.54-5.22,3.63-8.79,4.02-2.42.27-4.52,2.18-4.18,4.48l-.96.16-16.87,1.2c-3.54.25-10.76,1.93-10.51-1.7l.38-5.56c1.89-.65,4.35-1.85,6.71-1.36,1.68.35,1.2,2.86,1.13,4.33,2.19-2.16,4.17-1.36,6.54-1.19,3.66.27,6.39-3.06,9.79-4.19,1.8-.6,6.31.21,6.32-2.49,0-1.9-4.25-2.18-5.61-1.46-2.89,1.52-5.45-1.73-7.68-1.13-2.81.76-4.43-.31-6.67-.62-12.58-1.76-8.47-3.71-13.05-3.67-.75,0-.93,1.11-.89,1.87-2.69-2.73,1.53-.98,3.18-7.29,10.99-1.76,8.41,2.01,27.3,3.28l2.04.14c-.01.17.06.39.11.56,1.11,3.32,5.47.73,8.14.16,4.91-1.06,10.24-3.04,12.54-7.47-1.64-5.12-6.81-12.18-7.03-13.54-.55-3.39-2.81-5.23-5-7.74-2.69-3.07-5.86-11.2-8.76-10.94-.66.06-1.34-.22-2-.2,0-3.18-2.4-3.31-4.69-5.56-4.97-4.88-9.04-10.88-13.01-16.71-.43-2.29.01-5.19.53-7.54,12.3,1.3,9.27.75,15.12,8.08Z"/>
      <path class="st4" d="M647.03,361.87c-.8.27-2.11-.44-2.59-.99-.52-.6-.71-2.05-.58-2.86,4-.66,7.77,2.32,12.88-.87l-12.88-3.97-.25-1.21c-.04-.77.14-1.87.89-1.87,4.59-.04.47,1.91,13.05,3.67,2.24.31,3.86,1.39,6.67.62,2.23-.61,4.79,2.65,7.68,1.13,1.36-.72,5.61-.44,5.61,1.46,0,2.7-4.53,1.9-6.32,2.49-3.4,1.13-6.14,4.45-9.79,4.19-2.37-.17-4.35-.97-6.54,1.19.07-1.48.55-3.98-1.13-4.33-2.35-.49-4.81.71-6.71,1.36Z"/>
      <path class="st2" d="M643.86,358.02c.27-1.6.32-3.24,0-4.84l12.88,3.97c-5.12,3.19-8.88.21-12.88.87Z"/>
      <path class="st2" d="M710.39,366.04c-.43-1.75-1.59-2.42-1.43-3.95,1.9-.51,2.25.34,2.06,1.41-.17.99.44,2.02-.63,2.53Z"/>
      <path class="st4" d="M676.24,348.65c5.69-1.19,11.48-1.88,16.05-7.25-1.98-4.67-3.52-10.03-6.18-14.43-2.07-3.43-4.72-6.05-6.11-9.96-.67-1.87-3.14-2.58-3.99-4l.12-3.89c2.9-.27,6.07,7.87,8.76,10.94,2.2,2.51,4.46,4.35,5,7.74.22,1.36,5.39,8.42,7.03,13.54-2.3,4.44-7.62,6.42-12.54,7.47-2.66.57-7.02,3.16-8.14-.16Z"/>
    </g>
    <g>
      <path class="st2" d="M454.82,157.14c.57-.24,1.42.18,2.03.04-.38.84.31,1.48.83,1.66.9.32,1.63.25,2.33.26.29,0,.74-.1,1,.02.31.33.64.64,1,.91,7.93,2.05-8.31,22.9-7.13,22.43-5.58,2.21-20.5-7.87-23.78,4.64-1.09,4.17.48,7.54,1.07,11.05.32,1.9.23,3.84.85,5.73.31,1.51-2.92,3.44-1.45,5.56,1.16,1.67,3.2,3.25,4.29,4.62-2.82,3.93,2.04,5.73,2.17,17.03.06,5.17-5.07,9.98-9.8,8.13-2.88-1.13-5.78-2.75-6.57-4.67-1.17-2.87-1.5-7.12.63-9.18,1.47-1.42,3.65-.94,5.42-1.64-.14-5.22-6.64-16.02-11.65-13.16-1.84,1.05-.35,9.07-1.31,13.24-3.27,14.27,4.96,17.37,2.86,21.1-4.02,7.13-12.42-8.97-9.99-18.23,2.98-11.34-1.89-3.8-6.58-17.66.33-1.22-1.47-1.37-1.19-.06-2.28.67-4.37,2.56-3.98,4.93-.37.41-1.22,1.09-.87,1.6.55.81,1.39,1.21,1.99.68.09.85.31,1.71.31,2.58,0,.48-.32,1.04-.18,1.66.17.77,1.12,1.04,1.89.66l.29,1.67c-.17,1.12-.29,2.24-.35,3.38-1.51,1.41-1.33,3.74-1.63,5.62-.07.45-.38,1.03-.23,1.66.15.68,1.11,1.48,1.87.82.13,4.06,4.36,6.79,4.89,9.7-.7-.16-1.52-.23-2.2.21-.59.38-1.32,1.14-.79,1.91-1.31.11-2.68,1.22-3.99,1.17-2.52-.28-5.25-.13-6.88,2.04l-4.96.69c-3.2-.82-6.13-2.2-9.15-3.62-.2-.09-.56-.2-.77-.22.63-.73-.09-1.54-.73-1.89-.46-.25-1.02-.23-1.49-.17-1.24-.96-3.26-2.24-3.9-3.86.15-.74,0-1.54-.69-2.12-.4-.34-.82-.74-1.34-.18,0-.23.06-.51,0-.72-1.62-4.68-.98-9.49.1-14.25.05-.23.02-.49.02-.73l6.24-3.98c2.7-1.72,6.95-.17,10.06-1.97l2.63-18.31c.13-.94.91-1.75,1.01-2.73,1.72-.35,3.43-3.13,3.14-5.01.27-.07.65.08.9-.04.91-.41,1.67-1.12,2.01-2.06,4.01-1.91,8.5-4.01,12.95-4.04,6.99,6.16,1.49-11.45,13.02-21.89,10.7-9.67,29.33-2.21,35.8-4.98ZM398.33,207.51c2.28.55,5.27-5.94,2.92-8.15-2.49-.78-6.14,6.71-2.92,8.15Z"/>
      <path class="st3" d="M466.17,192.93c2.58,1.58,5.63.85,9,1.63,4.77,1.1,9.38,3.84,14.52,2.91-1.31.24,11.76-6.38,9.35-6.31l2.88.06c.83,1.41,2.92.68,4.29.6l1.78-.1c3.03,1.59,5.84,3.47,8.65,5.43.1,1.57,1.7,3.06,1.33,4.78-.1.45.16.95.1,1.41-2.99,2.23-3.52,6.15-2.09,9.52-3.83,5.24-11.17,6.51-17.72,2.82-.65,8.84-6.08,23.14-15.35,19.36-.79-3.22-3.83-5.49-6.71-6.92.29-1.94-.54-5.5-2.57-6.65s-4.59.04-6.45-.35c-.51-.16-.96-.98-1.67-1.05s-1.14.9-1.69.88l-2.61-.08c.49-.52.22-1-.19-1.33-.73-.59-1.53-.38-2.22-.33-1.21.09-2.44,0-3.65-.07-.67-3.18-2.71-6.07-2.07-10.23.21-1.33-1.03-2.66-1.83-2.86-7.45-1.84-4.72,12.21-7.32,11.16-3.1.09-5.22-2.39-8.07-3.14-1.09-1.37-3.14-2.95-4.29-4.62-1.47-2.11,1.76-4.04,1.45-5.56,13.89-2.24,5.57-7.77,15.25-9.88,1.9-.41,5.24-.98,5.85-3s2.06-2.81,3.35-4.22c.55-.73.49,0,.8.24,1.28,1.02-1.38,2.16-1.97,3.57-1.32,3.19,8.45,2.12,9.86,2.35Z"/>
      <path class="st2" d="M487.15,156.23c-2.45,1.16,16.08,1.33,13.78-.01,19.29,1.64,13.91,3.32,18.93,5.85l4.4,13.17c-.41,3.84-3.65,5.37-7.89,7.79,8.34,3.65,15.2,17.59,18.54,25,2.05,4.54,12.66,3.6,15.5,11.23.43,1.15.52,2.34.49,3.57l-.05,2.18c-.28.3-.74.59-.87,1-.33.99-.55,2.03-1.03,2.97-.43.22-.78.56-1,.99-7.08,3.41-6.84,2.86-14.86-3.04-.36-.57-.67-1.53-1.28-2.06-10.41-9.17-4.76-14.62-15.85-12.03-1.43-3.36-.9-7.29,2.09-9.52l.97-.19c8.78,5.82-.76-17.08-15.82-19.32.44-2.17-3.49-2.33-5.14-1.91-.77-1.08-2.35-2.97-3.9-2.99,1.18-1.3-10.67-9.31-11.39-9.48-2.87-.65-5.19,3.35-4.68,5.62.06.25.05.74-.04.97-1.25-1.01-4,4.21-4.08,4.5-.18.66.02,1.6,1.01,1.48-.2.44-.79,1.25-1.33,1.08-.73-.87-1.3-.74-1.62-.29-.66.9-1.26,2.57-1.27,3.17-1.09.83-2.25,1.97-3,3.1s-.44,2.94-1.61,3.88c-1.41-.22-11.18.85-9.86-2.35.59-1.41,3.24-2.55,1.97-3.57-.31-.25-.25-.97-.8-.24,6.03-6.61,11.72-18.45,15.77-22.46,1.15-1.14,2.71-1.7,2.88-2.97.2-1.51-.04-3.06-1.25-4.24-7.28-7.06-14.28-2.36-14.58-5.83-.5-5.75,6.27-7.06,6.67-7,6.9.97,11.58,6.96,13.44,13.72,2.69.29,4.47-1.73,6.76-1.77ZM491.2,167.34c2.75.72,11,8.96,17.9,8.76-1.22-4.37-.97-7.73-2.7-11.79-5.56-.56-11.44-1.16-16.48.46-.24-.9-.98-1.3-1.6-1.34-.83-.05-2,.54-2.16,1.18-.23.92,6.37,6.46,5.04,2.72Z"/>
      <path class="st4" d="M454.82,157.14c-6.47,2.77-25.1-4.7-35.8,4.98-11.54,10.43-6.03,28.05-13.02,21.89,4.35-1.52-1.24-7.45,8.04-19.11,1.67-2.09,4.64-4.25,6.87-5.89,7.51-5.53,17.26-5.66,26.03-4.01,3.06.58,6.08-.1,7.87,2.15Z"/>
      <path class="st1" d="M433.02,203.87c-.62-1.89-.53-3.83-.85-5.73,5.05,1.38,9.17-4.02,13.86-5.17l8.1-1.98c-.61,2.02-3.95,2.59-5.85,3-9.69,2.1-1.36,7.63-15.25,9.88Z"/>
      <path class="st4" d="M533,172c.04.12.25,1.49-.23,1.58l-8.5,1.66-4.4-13.17c3.81,1.92,4.94,3.97,5.41,9.2.27,2.99,5.79,2.2,7.73.74Z"/>
      <path class="st4" d="M500.94,156.21c2.3,1.35-16.23,1.17-13.78.01,3.38-4,9.81-2.64,13.78-.01Z"/>
      <path class="st4" d="M460,159.1c-.7,0-1.42.06-2.33-.26-.51-.18-1.2-.82-.83-1.66,1.44-.33,2.92.39,3.15,1.92Z"/>
      <path class="st1" d="M391.04,190.1c.2-1.13,1.08-1.62,2.01-2.06-.34.94-1.1,1.65-2.01,2.06Z"/>
      <path class="st4" d="M462,160.03c-.36-.27-.7-.58-1-.91.41.18.69.61,1,.91Z"/>
      <path class="st2" d="M455.14,219.11c.79,3.74,1.04,7.44,3.47,11.21,2.22,3.45,3.06,7.79,6.4,11.03,4.62-3.98,7.61-9.3,11.18-13.26,2.88,1.43,5.93,3.7,6.71,6.92-2.09.74-4.2,3.56-3.71,5.84l-1.33,1.37c-2.77-.15-5.73,1.73-8.21,3.68,3.71,4.99,9.37,3.38,14.15,5.3s9.5,3.89,14.64,3.51c.39.55-.04,1.62.32,2.22-5.6.58-11.06-1.98-17.45-.14,4.07,3.96,8.55.67,12.86,3.28-11.41,3.85-16.51-4.43-18.72,3.95-.84-2.34-1.3-3.91-3.07-3.86l-1.21-1.15c-.4-.2-.7-.98-1.16-1.04-2.25-.28-3.45-2.58-5.94-3.3-19.03,10.2-7.49,9.36-29.62,14.85l-13.44,3.34c.01-1.15-1.27-1-1.07.1-.59.17-1.3.06-1.87.29,2.01-1.94-14.13-1.61-12.06-.39-4.07-1.5-9.28-1.44-12.18-5.14-.93-1.19-2.32-2.1-3.65-2.58l-2.31-5.96c.2-1.83.73-3.6,1.16-5.39l.86-1.01,9.03-2.88c.58-.16,1.36.23,1.98.23-.25,2.25,2.51,2.64,4.3,2.75.25.01.5.03.75.03-.35.48-.21.99.09,1.39.57.75,1.44.48,2.15.58,2.82.4,2.47,4.13,7.64,4.11.67,1.16,5.13,6.01,6.62,5.99.95-.01,2.7-.39,2.62-1.86h1.93c.33.67.81.6,1.09.35.51-.43.76-1.21,1.02-1.47,5.9-.48,12.38-2.48,15.99-7.03,1.67-2.11,6.33-2.61,6.86-5.93,1.6-.52,3.78-1.39,5.76-3.06-10.63-11.64-9.08-17.28-13.79-28.83,2.59,1.05-.14-13.01,7.32-11.16.8.2,2.04,1.53,1.83,2.86-.64,4.15,1.4,7.05,2.07,10.23ZM400.27,263.58c3.54,1.38,6.97,4.12,11.29,1.5-1.66-2.77-4.47-3.06-6.76-4.78-2.11-1.59-5.85-3.36-8.24-.69-1.5,1.67,1.57,3.68,3.71,3.96Z"/>
      <path class="st1" d="M385.99,197.88l-2.63,18.31c-3.11,1.8-7.36.25-10.06,1.97l-6.24,3.98c-.02-2.01,1.55-3.85,3.64-4.5l10.57-3.29c2.66-3.36,0-17.56,4.71-16.47Z"/>
      <path class="st1" d="M396.89,247.18c.22,1.18,1.08,2.05,2.02,2.74l-9.03,2.88.13-3.58c1.64-2.17,4.36-2.32,6.88-2.04Z"/>
      <path class="st1" d="M367.05,222.86c-1.08,4.77-1.72,9.57-.1,14.25-4.45,1.26-3.21-16.4.1-14.25Z"/>
      <path class="st1" d="M385.04,249.9c-3.35.46-8.17,0-9.15-3.62,3.02,1.42,5.96,2.8,9.15,3.62Z"/>
      <path class="st1" d="M389.02,253.81c-.43,1.79-.96,3.56-1.16,5.39-1.6-.31-2.51-1.57-1.51-3.32.57-1,1.35-1.95,2.67-2.07Z"/>
      <path class="st1" d="M368.99,240.14c-.52-.22-1.55-.17-1.77-.8-.2-.57-.25-1.06-.27-1.5.52-.56.94-.16,1.34.18.69.59.84,1.38.69,2.12Z"/>
      <path class="st1" d="M375.12,246.06c-1.79.69-1.54-1.53-2.22-2.06.47-.06,1.03-.08,1.49.17.64.34,1.37,1.16.73,1.89Z"/>
      <path class="st5" d="M401.05,209c4.69,13.86,9.56,6.33,6.58,17.66-2.43,9.25,5.97,25.36,9.99,18.23,2.1-3.72-6.14-6.83-2.86-21.1.96-4.17-.53-12.19,1.31-13.24,5.01-2.86,11.51,7.94,11.65,13.16-1.77.7-3.95.21-5.42,1.64-2.13,2.06-1.8,6.31-.63,9.18.78,1.92,3.68,3.54,6.57,4.67,4.73,1.86,9.86-2.96,9.8-8.13-.13-11.3-4.98-13.1-2.17-17.03,2.85.75,4.97,3.24,8.07,3.14,4.71,11.54,3.16,17.19,13.79,28.83-1.98,1.66-4.16,2.54-5.76,3.06-2.32-.35-4.1.55-6.55,1.41-6.12,2.13-12.13,3.98-18.47,5.56-1.32.33-3.02.07-2.79,1.56-1.47.16-2.92.51-4.2,1.27-1.34-.5-2.79-.32-4.12.15-5.17.02-4.82-3.71-7.64-4.11.6-.76-.22-1.43-.82-1.72-.47-.22-.97-.25-1.42-.25-.25,0-.5-.02-.75-.03.07-2.21-2.45-2.76-4.3-2.75-.61,0-1.4-.39-1.98-.23-.95-.69-1.8-1.56-2.02-2.74,1.31.05,2.68-1.06,3.99-1.17s3.29-.46,2.99-2.11c-.53-2.91-4.76-5.64-4.89-9.7-.01-.42-.06-.98-.21-1.5-.14-.49-.59-1.63-1.43-.98.3-1.89.12-4.21,1.63-5.62.61-.57,2.58.31,2.14-1.61-.21-.9-.57-1.68-1.8-1.77l-.29-1.67c-.11-.64-.11-1.31-.61-2.03-.25-.36-.54-.84-1.1-.29,0-.86-.22-1.72-.31-2.58s-.12-1.98-1.12-2.28c-.39-2.37,1.7-4.26,3.98-4.93.36-.1.82.15,1.19.06Z"/>
      <path class="st1" d="M398.98,226.09c.05-1.13.17-2.26.35-3.38,1.23.09,1.59.87,1.8,1.77.44,1.91-1.53,1.04-2.14,1.61Z"/>
      <path class="st1" d="M403.87,243.9c.3,1.66-1.75,2.01-2.99,2.11-.52-.77.21-1.53.79-1.91.68-.43,1.5-.37,2.2-.21Z"/>
      <path class="st1" d="M399.03,221.04c-.77.38-1.73.12-1.89-.66-.14-.63.18-1.19.18-1.66.56-.56.85-.07,1.1.29.5.72.5,1.4.61,2.03Z"/>
      <path class="st1" d="M397,216.14c-.6.54-1.44.13-1.99-.68-.35-.51.51-1.19.87-1.6.99.3,1.02,1.4,1.12,2.28Z"/>
      <path class="st1" d="M398.98,234.19c-.76.65-1.72-.14-1.87-.82-.14-.63.16-1.21.23-1.66.84-.65,1.29.49,1.43.98.15.52.2,1.08.21,1.5Z"/>
      <path class="st5" d="M503.22,183.81c15.05,2.24,24.59,25.14,15.82,19.32-.24-.5-.58-.96-1.08-1.22.37-1.72-1.23-3.21-1.33-4.78-.25-4.07-8.27-7.23-8.65-5.43l-1.78.1c.65-1.23-.67-1.98-1.76-1.92-.96.05-1.92.43-2.54,1.32l-2.88-.06c-7.65.37-7.74,8.6-18.89,2.96-2.78-1.4-5.82.02-8.69-2.81,6.66-2.49,26.09-8.34,31.77-7.49Z"/>
      <path class="st5" d="M458.79,219.18c-.68.82.23,1.5.86,1.63.59.12,1.1.01,1.55.03l2.61.08c-.25.94.99,1.02,1.68,1.06.55.03,1.85.07,1.67-.88,1.86.39,4.34-.85,6.45.35s2.86,4.72,2.57,6.65c-3.57,3.96-6.55,9.28-11.18,13.26-3.34-3.25-4.17-7.58-6.4-11.03-2.43-3.77-2.68-7.47-3.47-11.21,1.21.08,2.43.16,3.65.07Z"/>
      <path class="st1" d="M498.08,181.91c1.66-.43,5.58-.26,5.14,1.91-5.68-.85-25.11,5-31.77,7.49,2.86,2.82,5.91,1.4,8.69,2.81,11.16,5.64,11.24-2.59,18.89-2.96,2.42-.06-10.65,6.55-9.35,6.31-5.13.93-9.75-1.81-14.52-2.91-3.37-.77-6.42-.04-9-1.63,1.17-.94.84-2.71,1.61-3.88,3.25.78,6.1-.93,9.41-1.78l20.89-5.37Z"/>
      <path class="st1" d="M516.64,197.13c-2.81-1.95-5.61-3.84-8.65-5.43.38-1.81,8.4,1.36,8.65,5.43Z"/>
      <path class="st1" d="M506.2,191.81c-1.37.08-3.46.81-4.29-.6.62-.89,1.57-1.27,2.54-1.32,1.09-.06,2.41.69,1.76,1.92Z"/>
      <path class="st2" d="M467.17,221.1c.18.95-1.12.91-1.67.88-.68-.04-1.93-.11-1.68-1.06.54.02.97-.96,1.69-.88s1.16.9,1.67,1.05Z"/>
      <path class="st2" d="M461.2,220.84c-.45-.01-.96.1-1.55-.03-.63-.13-1.54-.82-.86-1.63.69-.05,1.49-.26,2.22.33.41.33.68.81.19,1.33Z"/>
      <path class="st1" d="M519.04,203.14l-.97.19c.05-.46-.2-.96-.1-1.41.5.26.84.72,1.08,1.22Z"/>
      <path class="st4" d="M494.18,178.92c-3.89-.04-4.33-4.94-12.28-7-1.85-.14-2.49,2.63-3.79,3.14-.5-2.27,1.82-6.27,4.68-5.62.72.16,12.57,8.18,11.39,9.48Z"/>
      <path class="st4" d="M489.92,164.78c-.55,1.05.17,2.28,1.28,2.57,1.34,3.74-5.26-1.8-5.04-2.72.16-.64,1.33-1.23,2.16-1.18.63.04,1.36.44,1.6,1.34Z"/>
      <path class="st4" d="M478.07,176.02c-1.03,1.99-2.14,3.94-3.07,5.98-1,.12-1.19-.81-1.01-1.48.08-.29,2.83-5.51,4.08-4.5Z"/>
      <path class="st4" d="M473.67,183.08c-.35,1.55-1.79,2.04-2.89,2.87,0-.6.61-2.26,1.27-3.17.33-.45.89-.57,1.62.29Z"/>
      <path class="st1" d="M549.99,226c.14-.41.59-.7.87-1-.01.49-.37.95-.87,1Z"/>
      <path class="st1" d="M547.96,229.96c.22-.43.57-.78,1-.99-.19.38-.62.81-1,.99Z"/>
      <path class="st4" d="M477.86,242.22c.1,1.95-1.79,2.25-4.2,3.22,6.9,7.81,9.71,2.02,19.39-1.21-.14,1.48.21,3.39,1.89,3.73.87.18,2.32-.22,3.33.13,3.24,1.14-1.32,4.51.18,6.61-5.14.38-9.64-1.51-14.64-3.51s-10.45-.31-14.15-5.3c2.48-1.95,5.44-3.83,8.21-3.68ZM495.98,250.56c-2.36-.89-3.5-.97-4.06.18,1.79.42,3.01.61,4.06-.18Z"/>
      <path class="st4" d="M498.77,256.93c-1.38,1.12-2.2,2.95-3.45,4.42-5.8,6.83-16.7-2.27-17.19,1.48l-.43,3.24c-.08.61-1.76,1.58-2.66.74-1.85-1.7-2.07-4.59-2.66-6.66,1.78-.05,2.23,1.52,3.07,3.86,2.22-8.38,7.31-.1,18.72-3.95-4.31-2.61-8.79.68-12.86-3.28,6.4-1.83,11.86.72,17.45.14Z"/>
      <path class="st1" d="M451.96,249.08c-.53,3.32-5.18,3.82-6.86,5.93l-7.2,1.94c-3.86-3.25-7.17,2.65-13.76.66-.24-1.49,1.47-1.23,2.79-1.56,6.35-1.58,12.35-3.43,18.47-5.56,2.46-.86,4.23-1.76,6.55-1.41Z"/>
      <path class="st4" d="M400.27,263.58l4.52-3.27c2.29,1.72,5.1,2.01,6.76,4.78-4.32,2.61-7.74-.13-11.29-1.5Z"/>
      <path class="st4" d="M445.1,255.01c-3.61,4.55-10.08,6.55-15.99,7.03,1.86-1.78,6-4.34,8.79-5.09l7.2-1.94Z"/>
      <path class="st1" d="M404.79,260.31l-4.52,3.27c-2.14-.28-5.21-2.29-3.71-3.96,2.39-2.67,6.12-.9,8.24.69Z"/>
      <path class="st4" d="M418.06,273.26c-3.94,1.66-8.4.96-12.06-.39-2.07-1.22,14.07-1.56,12.06.39Z"/>
      <path class="st1" d="M419.94,258.87c.22,1.37.47,2.84,1.4,4.3.73,1.15,2.45.68,3.72-.02.08,1.46-1.67,1.84-2.62,1.86-1.49.02-5.94-4.83-6.62-5.99,1.33-.46,2.78-.65,4.12-.15Z"/>
      <path class="st1" d="M405.19,252.9c-1.79-.11-4.56-.5-4.3-2.75,1.85,0,4.37.54,4.3,2.75Z"/>
      <path class="st1" d="M408.19,254.91c-.71-.1-1.58.17-2.15-.58-.31-.4-.45-.91-.09-1.39.46,0,.96.03,1.42.25.6.29,1.43.96.82,1.72Z"/>
      <path class="st1" d="M429.11,262.04c-.26.25-.51,1.03-1.02,1.47-.29.24-.76.31-1.09-.36.05-1.19,1.26-1.03,2.11-1.1Z"/>
      <path class="st4" d="M421,272.86c-.34.08-.73,0-1.07.1-.2-1.1,1.08-1.25,1.07-.1Z"/>
      <path class="st4" d="M471.16,259.01c-.38-.36-.81-.66-1.16-1.04.46.06.76.84,1.16,1.04Z"/>
      <path class="st2" d="M494.94,247.96c-1.68-.34-2.03-2.25-1.89-3.73.98-.33,1.76-.06,2.51.73.88.92.09,2.11-.62,3Z"/>
      <path class="st2" d="M495.98,250.56c-1.05.79-2.28.6-4.06.18.57-1.16,1.7-1.07,4.06-.18Z"/>
    </g>
  </g>
</svg>