<?xml version="1.0" encoding="UTF-8"?><svg id="Layer_2" xmlns="http://www.w3.org/2000/svg" viewBox="0 0 1497.31 388.26"><defs><style>.cls-1{fill:#034638;}</style></defs><g id="Layer_1-2"><path class="cls-1" d="M296.83,88.79V0C225.9,63.46,94.93,93.99,0,57.38v273.87l239.81-64.24v121.25c113.44-75.52,274.84-75.53,388.26,0V.03l-331.24,88.77ZM239.81,207.98l-182.83,49V127.2c62.73,8.37,127.7-3.21,182.83-32.33v113.11ZM571.08,301.34c-83.48-35.9-190.77-35.91-274.26,0v-153.55l274.26-73.5v227.06Z"/><path class="cls-1" d="M835.42,62.82h-93.4v262.98h93.4c81.69,0,134.06-56.4,134.06-132.96s-50.54-130.02-134.06-130.02ZM832.51,277.82h-34.8V110.81h34.8c52.37,0,79.84,29.66,79.84,82.04s-27.47,84.98-79.84,84.98Z"/><path class="cls-1" d="M1159.6,188.45c23.44-12.08,37-31.5,37-55.68,0-45.05-34.07-69.95-89.38-69.95h-98.88v262.98h102.92c57.87,0,93.76-28.57,93.76-77.29,0-28.93-16.11-49.82-45.41-60.07ZM1058.87,106.78h43.96c27.11,0,41.03,11.72,41.03,30.4s-13.92,30.76-41.03,30.76h-43.96v-61.16ZM1106.85,281.85h-47.98v-69.59h47.98c30.04,0,45.79,13.19,45.79,34.07,0,22.35-15.75,35.53-45.79,35.53Z"/><path class="cls-1" d="M1438.34,217.38c-6.6,37.73-35.53,64.11-72.88,64.11-45.05,0-75.45-35.9-75.45-87.55s30.4-86.8,75.45-86.8c33.35,0,60.28,20.71,70.1,52.01h59.66c-13.53-60.97-65.36-101.83-130.5-101.83-74,0-131.87,59.7-131.87,136.62s57.87,137.37,131.87,137.37c69.22,0,123.44-45.79,132.59-113.92h-58.97Z"/></g></svg>