<svg preserveAspectRatio="none" width="100%" height="100%" overflow="visible" style="display: block;" viewBox="0 0 595.616 216.842" fill="none" xmlns="http://www.w3.org/2000/svg">
<g id="Layer_1-2">
<path id="Vector" d="M443.23 197.281C437.17 196.551 431.11 195.671 424.86 197.191C423.59 196.851 422.19 196.471 420.7 196.061C412.99 196.541 405.19 197.271 397.43 195.261C393.62 194.281 392.52 194.621 387.96 195.721C391.43 198.561 395.12 199.641 399.35 199.021C401.36 198.731 403.38 198.471 405.4 198.411C406.07 198.391 406.76 199.031 407.41 199.361C406.73 201.371 405.09 201.471 403.74 201.491C399.08 201.541 394.42 201.501 389.77 201.241C387.18 201.101 384.67 201.041 382.05 201.251C376.56 201.691 370.99 201.551 365.59 199.921C363.92 199.421 362.21 198.981 360.49 198.701C359.06 198.471 357.42 198.061 356.16 198.521C349.28 201.021 342.32 199.571 335.38 199.351C332.77 199.271 330.15 199.491 327.53 199.661C327.02 199.691 326.53 200.151 326.03 200.411C326.16 200.891 326.29 201.371 326.42 201.871C328.86 203.071 331.51 203.281 334.11 202.861C337.05 202.381 339.89 202.881 342.79 203.071C349.47 203.521 356.17 203.631 362.86 203.861C366.93 204.001 370.99 203.941 374.96 205.301C376.54 205.841 378.42 205.491 380.16 205.611C382.14 205.751 384.22 205.201 386.04 206.391C386.44 207.481 385.78 208.401 384.99 208.161C380.15 206.681 375.29 207.071 370.33 207.081C363.07 207.091 355.73 207.361 348.52 205.971C347.38 205.751 346.19 205.531 345.05 205.631C336.32 206.381 327.61 205.251 318.89 205.281C302.85 205.341 286.81 205.301 270.77 205.311C264.94 205.311 259.11 205.261 253.28 205.411C251 205.471 248.73 206.001 245.67 206.431C244.77 206.241 243.08 205.661 241.36 205.591C239.34 205.511 237.31 205.881 235.42 206.041C233.24 208.861 230.69 210.481 227.18 209.911C227.11 210.531 227.05 211.041 226.95 211.931C231.14 213.061 235.55 212.341 239.99 213.251C240.09 213.891 240.2 214.661 240.37 215.791C237.92 216.181 235.67 216.871 233.42 216.841C223.26 216.731 213.09 216.981 202.98 215.671C199.5 215.221 196.1 214.451 193.02 212.021C191.5 208.461 189.86 204.781 190.17 200.271C190.53 199.481 191 198.431 191.47 197.391C190.72 190.281 189.96 183.181 189.22 176.121C188.9 175.931 188.64 175.641 188.4 175.651C182.9 176.081 177.45 176.061 171.95 175.161C169.13 174.701 166.14 175.231 163.23 175.341C159.16 175.501 155.09 175.701 150.25 175.911C149.93 176.081 148.92 176.641 148.15 177.061C130.56 178.491 113.18 179.641 95.97 178.571C95.26 178.131 94.68 177.911 94.31 177.511C93.53 176.671 92.87 175.731 92.05 174.701C92.53 172.711 93 170.771 93.55 168.501C92.7 167.611 91.72 166.591 90.45 165.261C89.36 158.521 88.21 151.441 87.01 144.021C87.43 142.901 87.94 141.551 88.53 140.011C87.82 138.351 87.05 136.551 86.23 134.621C87.43 133.861 88.4 133.251 89.64 132.471C96.68 133.541 103.94 133.121 111.2 132.511C114.98 132.191 118.76 131.951 121.2 133.031C131.3 131.771 140.2 130.661 149.25 129.531C148.88 129.281 148.69 129.041 148.5 129.031C142.68 128.781 136.85 128.461 131.03 128.351C121.11 128.171 111.2 128.081 101.32 127.001C97.56 126.591 93.75 126.701 89.96 126.611C72.73 126.211 55.64 124.471 38.65 121.641C37.35 121.421 35.88 120.941 34.49 122.401C38.75 125.171 44.11 125.101 48.05 128.181C50.72 128.531 53.32 128.871 56.07 129.241C57.47 130.001 59 130.821 60.68 131.731C59.71 134.571 57.31 133.141 55.69 134.091C54.34 132.951 53.25 132.031 52.16 131.101H39.93C35.91 129.771 32.6 128.681 28.88 127.451C25.48 125.591 23.67 121.841 21.29 118.401C21.35 117.291 21.41 116.151 21.5 114.551C21.4 112.301 18.68 110.711 18.67 107.791C18.67 105.561 17.59 103.331 16.7 100.061C16.93 97.1215 17.9 93.0815 16.49 88.8415C14.04 87.1615 11.43 85.3615 8.56 83.4015C7.87 81.0815 7.14 78.5915 6.39 76.0615C6.64 74.0415 6.9 72.0215 7.17 69.8415C6.36 64.5415 4.08 59.3215 4.69 53.6315C3.92 51.7115 3.13 49.8415 2.4 47.9415C1.34 45.2015 0.76 42.4115 0.74 39.4315C0.7 35.0615 0.28 30.7015 0 25.9415C1.33 21.9215 2.77 17.5515 4.25 13.0415C11.7 9.33149 19.78 8.30149 28 9.02149C32.98 9.45149 37.86 9.61149 42.79 8.72149C44.2 8.47149 45.7 8.72149 47.15 8.60149C49.18 8.43149 51.37 8.55149 53.19 7.81149C59.83 5.10149 66.87 5.05149 73.79 4.39149C84.23 3.39149 94.68 2.53149 105.22 2.74149C112.18 2.88149 119.17 1.89149 126.15 1.50149C130.51 1.26149 134.87 1.13149 139.24 1.05149C157.02 0.711489 174.8 0.381489 192.58 0.101489C213.86 -0.238511 235.14 0.371489 256.42 0.531489C277.13 0.691489 297.84 0.831489 318.54 1.10149C328.16 1.22149 337.78 1.60149 347.4 1.87149C354.69 2.07149 361.97 2.19149 369.25 2.52149C389.35 3.43149 409.44 4.38149 429.54 5.40149C444.97 6.18149 460.41 7.00149 475.83 7.99149C486.88 8.70149 497.91 9.74149 508.95 10.6215C511.57 10.8315 514.18 11.0615 516.8 11.2315C536.01 12.5015 555.1 14.8015 574.03 18.2815C579.18 19.2315 584.25 20.6015 589.3 22.0115C591.19 22.5415 592.9 23.7315 594.8 24.6715C595.12 26.2915 595.68 27.7015 595.61 29.0915C595.42 32.8615 594.96 36.6115 594.6 40.3715C594.35 42.9815 593.89 45.5915 593.91 48.2015C593.95 53.2315 592.67 57.9715 591.4 62.7415C590.37 62.9215 589.53 63.0815 588.34 63.2915C583.3 59.2215 577.1 57.9615 570.63 57.4915C568.91 57.3615 567 57.3315 565.53 56.5615C561.87 54.6415 558.2 55.1315 554.6 55.8715C549.97 54.6715 545.64 52.3515 541.11 54.2715C536.67 52.5815 532.42 51.9215 527.98 51.9615C524.8 51.9915 521.63 51.4215 518.44 51.3215C512.94 51.1515 507.55 49.9515 501.96 50.2115C496.48 50.4715 490.87 49.9115 485.46 48.9315C481.37 48.1915 477.46 47.9215 473.43 48.7915C467.67 47.6415 461.82 48.1515 456.01 47.8415C453.68 47.7115 451.35 47.6715 449.02 47.5815C446.4 47.4815 443.72 46.9915 441.17 47.3815C438.89 47.7215 436.52 46.3415 434.37 47.8415C430.42 47.0315 426.46 46.2215 422.16 45.3515C419.1 46.0615 415.76 47.1015 412.33 47.5315C409.47 47.9015 406.51 47.7115 403.62 47.4915C400.39 47.2515 397.22 47.1415 394.36 48.4715C384.77 46.4715 365.99 45.5115 356.86 46.5215C356.16 47.3915 355.46 48.2615 354.84 49.0415C352.73 49.3515 350.78 47.6815 348.78 49.0715C343.5 47.6915 338.18 46.2915 332.82 44.8915C332.4 45.1615 331.92 45.4615 331.13 45.9615C328.59 45.6215 325.76 45.2415 323.19 44.9015C321.71 45.9715 320.55 46.8115 319.28 47.7315C311.26 47.5315 303.14 48.4415 294.86 47.1915C296.59 45.7415 298.37 46.3515 300.07 46.3215C301.43 46.2915 303 46.8215 304.04 45.0415C303.14 44.8215 302.33 44.4415 301.5 44.4315C284.6 44.3015 267.69 44.3615 250.79 44.0715C239.43 43.8815 228.09 44.4515 216.74 44.3715C210.61 44.3315 204.57 44.4515 198.47 45.3615C193.32 46.1215 188.01 45.7515 182.77 45.8815C181.38 45.9115 180 45.9815 178.66 47.2415C179.74 47.6515 180.53 48.2115 181.32 48.2015C186.84 48.1515 192.35 47.7915 197.87 47.8915C204.3 48.0115 210.67 47.8415 216.99 46.4915C218.63 46.1415 220.4 46.4415 221.87 46.4415C222.91 47.8415 221.76 48.1615 221.16 49.0315C205.98 49.9615 190.49 48.4515 175.54 50.8515C174.39 52.2015 174.24 53.2015 175.43 54.5215C178.21 55.4715 181.45 55.1915 184.61 55.2215C193.64 55.3115 202.68 55.1915 211.71 55.1615C213.46 55.1615 215.28 54.9315 216.94 55.3215C228.11 57.9415 239.54 57.5715 250.84 57.9415C277.36 58.8015 303.9 59.0315 330.43 59.4715C351.13 59.8215 371.83 60.0915 392.53 60.4115C395.74 60.4615 398.97 60.3815 402.15 60.7215C415.23 62.1315 428.37 61.6515 441.48 62.0315C451.1 62.3115 460.72 62.5215 470.31 63.4715C473.78 63.8215 477.3 63.8615 480.79 63.8415C491.88 63.7715 502.95 64.2915 513.99 65.3115C515.73 65.4715 517.49 65.4215 519.23 65.5015C525.63 65.8015 532.04 66.1315 538.44 66.4215C544.85 66.7115 551.26 67.0015 557.67 67.2315C567.01 67.5715 576.26 68.7215 585.5 69.9815C587.78 70.2915 590.01 70.9615 592.41 71.5015C592.8 73.0815 593.46 74.4715 593.44 75.8615C593.38 80.2215 593.09 84.5815 592.86 88.9415C592.66 92.7215 592.38 96.4915 592.2 100.271C592.04 103.481 591.6 106.621 590.34 109.791C586.37 111.571 582.36 110.471 578.2 110.121C575.42 106.781 571.75 105.631 567.43 105.461C561.62 105.231 555.76 105.261 550.04 103.921C549.21 103.731 548.29 103.801 547.42 103.851C538.08 104.491 528.83 102.981 519.53 102.751C518.08 102.711 516.51 102.451 515.22 102.921C512.95 103.741 510.7 103.751 508.36 103.811C506.05 103.871 503.77 104.461 501.46 104.731C497.99 105.141 494.54 105.531 491.12 104.171C489.8 103.641 488.29 103.561 486.87 103.301C484.32 102.831 481.77 102.371 477.72 101.641C474.65 102.071 470.06 102.721 464.91 103.441C463.55 102.841 461.69 102.031 459.84 101.221C453.77 100.841 447.68 99.5915 441.82 101.941C439.7 101.381 437.74 100.871 435.53 100.291C433.47 100.761 431.21 101.761 428.98 101.701C422.29 101.511 415.64 102.811 408.93 101.841C403.15 101.001 397.35 101.671 391.29 102.241C391.6 103.271 391.82 103.991 391.98 104.541C392.48 104.791 392.76 105.061 393 105.041C398.24 104.511 403.39 105.451 408.57 105.871C421.93 106.941 435.3 108.051 448.66 109.091C450.98 109.271 453.33 109.201 455.65 109.341C459.14 109.551 462.63 109.821 466.11 110.091C469.31 110.341 472.5 110.691 475.7 110.851C479.76 111.051 483.78 110.861 487.83 111.991C490.82 112.831 494.18 112.481 497.37 112.481C509.06 112.481 520.65 113.951 532.29 114.741C547.7 115.781 563.11 116.901 578.51 118.111C583.43 118.501 588.32 119.291 592.87 119.851C593.5 120.751 594.03 121.191 594.12 121.701C595 126.931 594.26 132.151 593.86 137.361C593.62 140.511 592.65 143.601 592.13 146.141C592.55 148.111 592.84 149.491 593.18 151.071C591.12 152.961 589.22 154.701 587.41 156.351C586.3 156.421 585.42 156.591 584.58 156.501C579.65 155.961 574.72 155.451 569.82 154.731C565.77 154.141 561.75 153.491 557.65 154.011C557.36 154.051 557.05 154.091 556.78 154.011C549.06 151.881 541.14 153.391 533.34 152.751C533.06 152.731 532.79 152.611 532.52 152.531C532.27 152.041 532.02 151.541 531.67 150.861C532.35 150.091 533.08 149.271 533.8 148.451C522.83 146.251 521.35 146.221 516.13 148.231C517.72 150.171 519.9 149.371 521.75 149.611C523.74 149.871 525.76 149.891 527.56 150.001C528.53 151.511 529.31 152.721 529.93 153.691C539.62 155.751 549.27 156.531 558.29 160.871C558.57 162.381 559.01 163.761 559.07 165.161C559.33 171.291 558.48 177.361 557.79 183.421C557.63 184.821 556.87 186.141 556.41 187.421C556.72 189.221 557.01 190.921 557.36 192.931C555.47 193.841 553.7 194.701 551.92 195.551C545.5 190.761 538.48 188.311 530.72 187.581C527.58 187.281 524.46 186.231 521.45 185.191C517.98 183.991 514.71 183.531 511.37 185.531C509.54 186.621 507.44 186.441 505.4 186.171C501.88 185.721 498.63 184.541 495.5 182.631C480.48 182.001 465.36 181.441 450.52 181.391C449.35 182.761 449.4 183.701 450.2 184.821C450.86 185.741 451.21 186.871 451.69 187.891C451.1 188.281 450.65 188.831 450.27 188.791C443.61 188.091 436.96 187.291 430.3 186.561C428.62 186.381 426.84 185.921 425.44 187.421C425.56 187.971 425.68 188.511 425.87 189.401C427.1 189.711 428.49 190.071 429.88 190.421C430.41 191.361 430.94 192.301 431.51 193.311C435.11 193.311 438.12 190.331 441.76 191.711C442.39 193.501 441.81 195.621 443.24 197.191L443.3 197.211L443.23 197.281ZM416.92 94.1615C415.82 94.0415 414.72 93.8415 413.63 93.8615C413.22 93.8615 412.82 94.3915 412.42 94.6915C412.69 95.1215 412.97 95.5515 413.29 96.0515C414.52 95.4215 415.76 94.7815 416.99 94.1515C417.2 94.9815 417.42 95.8015 417.7 96.8715C418.83 97.0315 419.97 97.4115 421.05 97.2915C422.24 97.1615 423.74 97.4315 424.73 95.6215C421.98 95.1015 419.45 94.6315 416.93 94.1615H416.92ZM314.24 135.491C315.71 137.271 317.46 137.131 319.45 136.201C317.66 135.261 315.9 135.211 314.08 135.671C313.48 135.091 312.97 134.171 312.27 133.991C310.62 133.561 308.88 133.311 307.17 133.291C303.7 133.251 300.23 133.491 296.75 133.491C288.34 133.491 279.92 133.421 271.51 133.411C271.3 133.411 271.08 133.781 270.86 133.981C271.01 134.421 271.16 134.861 271.43 135.661C277.67 135.731 284.04 135.891 290.41 135.831C295.06 135.791 299.67 135.551 304.28 136.571C306.79 137.121 309.45 136.991 311.79 137.161C312.8 136.471 313.51 135.981 314.23 135.491H314.24ZM215.15 91.3115C213.52 90.9415 211.9 90.5015 210.25 90.2515C209.56 90.1515 209.3 90.7215 209.65 91.6415C211.51 92.0315 213.42 91.3915 215.35 91.1615C216.36 91.6615 217.36 92.5715 218.38 92.5915C221.82 92.6515 225.27 92.4015 228.71 92.2615C230.43 92.1915 232.21 91.8115 233.87 92.1115C241.03 93.4015 248.25 92.6715 255.44 93.0015C255.85 93.0215 256.28 92.5015 256.7 92.2415C256.33 91.8415 256.01 91.1715 255.58 91.0915C253.9 90.7615 252.18 90.4515 250.47 90.4115C241.81 90.2415 233.16 90.2315 224.5 90.0215C221.28 89.9415 218.16 90.2015 215.14 91.3215L215.15 91.3115ZM285.43 126.451C284.85 125.441 284.64 124.561 284.11 124.271C283.4 123.881 282.38 123.681 281.6 123.881C277.85 124.821 274.1 124.471 270.38 123.961C266.64 123.441 262.8 124.701 259.13 123.281C255.06 124.431 251.03 123.091 246.98 123.101C242.62 123.121 238.26 123.051 233.9 122.951C225.46 122.751 217.01 122.051 208.6 122.411C201.57 122.701 194.65 122.241 187.69 121.671C185.96 121.531 184.13 121.311 182.48 121.691C179.54 122.381 176.69 121.931 173.8 121.661C171.78 121.471 169.75 121.311 167.72 121.301C158.4 121.301 149.08 121.371 139.75 121.361C130.44 121.361 121.12 121.261 111.81 121.261C111.49 121.261 111.16 121.751 110.43 122.331C113.74 122.531 116.61 122.751 119.48 122.861C125.3 123.101 131.16 122.901 136.92 123.581C145.33 124.571 153.77 124.341 162.18 124.861C172.62 125.501 183.12 124.811 193.56 125.911C196.15 125.151 198.69 127.211 201.29 126.061C209.4 126.691 217.5 127.021 225.61 126.051C226.18 125.981 226.77 126.111 227.35 126.151C245.39 127.241 263.45 126.851 281.5 126.891C282.63 126.891 283.77 126.651 285.41 126.471L285.43 126.451ZM188.96 172.121C190.53 170.161 190.69 168.861 189.48 167.141C187.46 167.011 185.17 166.761 182.88 166.751C159.09 166.661 135.3 167.061 111.52 167.931C108.37 168.051 105.31 168.621 101.47 169.401C105.79 171.111 109.58 171.281 113.28 171.631C117 171.981 120.79 171.711 125.07 171.711C126.48 172.161 128.39 172.761 130.23 173.351C131.03 172.431 131.74 171.621 132.5 170.751C134.61 171.001 136.62 171.241 138.27 171.431C140.35 172.561 142.1 173.511 143.54 174.291C145.4 173.841 146.86 173.621 148.21 173.111C149.77 172.521 151.23 171.681 152.68 170.971C153.52 172.071 154.2 172.941 154.81 173.731C157.7 173.381 157.68 173.361 161.13 171.081C161.73 170.691 162.72 170.891 163.48 170.831C163.88 172.071 164.2 173.071 164.45 173.851C165.41 174.121 165.97 174.421 166.52 174.421C168.84 174.391 171.19 174.491 173.47 174.151C178.58 173.381 183.72 172.751 188.95 172.111L188.96 172.121ZM302.32 161.761C296.19 161.001 290.12 161.011 284.04 161.441C283.46 161.481 282.88 161.421 282.3 161.381C278.53 161.071 274.77 160.591 271 160.461C266.98 160.331 262.92 161.681 258.95 160.041C247.05 159.531 235.13 160.541 223.24 159.691C222.67 159.651 222.07 159.731 221.51 159.871C218.91 160.561 216.31 160.091 213.7 160.031C207.89 159.891 202.07 159.851 196.26 159.851C195.53 159.851 194.47 159.851 194.56 161.141C194.98 161.491 195.34 162.021 195.82 162.171C196.91 162.521 198.1 163.001 199.18 162.861C202.37 162.451 205.51 162.141 208.65 163.211C209.45 163.481 210.41 163.571 211.23 163.411C219.62 161.781 228 164.381 236.38 163.381C241.59 164.201 246.81 163.891 252.03 163.591C253.48 163.511 254.98 163.381 256.38 163.661C261.21 164.621 266.22 163.091 271.02 164.861C272.26 165.321 273.88 164.701 275.33 164.621C276.77 164.541 278.23 164.351 279.65 164.511C290.68 165.771 301.74 164.881 312.78 164.921C313.17 164.921 313.56 164.341 313.96 164.021C313.24 161.911 311.34 161.961 309.7 161.921C307.77 161.871 306.55 160.691 305.17 159.711C304.46 160.221 303.76 160.721 302.32 161.761ZM315.87 100.981C316.64 101.231 317.42 101.681 318.22 101.721C321.98 101.911 325.74 102.041 329.5 102.111C334.7 102.201 339.95 101.791 345.09 102.391C350.53 103.031 356.02 102.551 361.43 103.591C363.54 103.991 365.86 103.951 367.96 102.861C367.02 100.901 365.46 100.191 363.86 99.5515C359.66 98.9515 355.41 101.051 351.24 99.3115C345.8 100.721 340.41 97.5715 334.96 99.1215C329.54 97.7715 324.01 98.7615 318.54 98.3815C317.76 98.3315 316.93 98.8415 316.2 99.0715C316.09 99.7615 316 100.291 315.89 100.981H315.87ZM401.15 162.531C395.66 160.431 390.4 159.381 384.78 159.741C380.15 160.031 375.5 159.801 369.93 159.801C366.46 158.141 361.93 157.521 357.21 158.181C356.08 158.341 354.84 158.261 353.75 157.961C349.98 156.921 346.24 157.411 342.73 158.061C339.13 156.761 335.73 156.091 332.23 157.151C331.36 157.411 330.9 158.091 331.68 159.361C333.34 160.021 335.39 160.051 337.39 160.111C346.1 160.351 354.83 160.001 363.48 161.441C364.05 161.531 364.64 161.521 365.22 161.521C373.66 161.451 382.07 161.881 390.47 162.711C393.36 163.001 396.29 162.961 399.2 163.011C399.72 163.011 400.25 162.771 401.15 162.551V162.531ZM130.24 48.0415C126.53 48.4415 123.96 48.8615 121.37 48.9615C113.52 49.2715 105.67 49.4315 97.82 49.7215C95.79 49.7915 93.71 49.8815 91.77 50.4015C87.2 51.6215 82.59 51.7515 77.92 51.5915C77.29 51.5715 76.65 51.9415 74.65 52.5415C93.81 53.4515 111.41 52.1015 128.89 50.7615C129.24 50.0415 129.48 49.5515 130.23 48.0315L130.24 48.0415ZM169.87 115.721C163.14 113.081 156.15 114.611 149.31 114.111C148.61 114.061 147.86 114.721 147.1 115.061C147.49 115.661 147.69 116.401 148.09 116.531C149.44 116.961 150.85 117.381 152.24 117.431C163.21 117.791 174.18 118.091 185.15 118.321C185.85 118.341 186.57 117.691 187.48 117.261C186.98 116.361 186.58 115.671 186.13 114.861C180.88 114.041 175.78 114.961 169.87 115.721ZM316.51 199.711C312.17 197.561 307.57 197.631 302.98 198.341C298.92 198.971 294.8 199.341 290.82 198.661C284.39 197.571 278.12 198.761 271.42 198.801C273.29 200.771 275.45 200.651 277.35 201.091C279.59 201.611 281.93 201.661 283.86 201.871C291.35 198.741 298.42 199.241 304.42 201.591H315.79C316.07 200.851 316.26 200.341 316.51 199.701V199.711ZM304.82 107.721C302.38 107.281 300.69 106.821 298.98 106.721C296.38 106.561 293.75 106.501 291.16 106.671C288.25 106.861 285.41 106.851 282.54 106.191C280.32 105.681 278 105.471 275.66 106.641C275.96 107.401 276.25 108.131 276.48 108.731C281.24 110.071 285.87 109.721 290.4 109.361C292.94 111.071 295.32 112.671 297.85 114.371C299.23 114.181 300.61 113.991 301.99 113.761C302.02 113.761 301.95 113.221 301.93 112.931C301.18 111.701 299.05 112.171 298.77 110.381C300.05 108.361 302.63 110.191 304.82 107.731V107.721ZM395.71 139.641C396.38 140.271 396.89 141.081 397.59 141.351C398.93 141.851 400.37 142.191 401.79 142.311C406.7 142.731 411.62 143.161 416.55 143.331C420.31 143.461 424.08 143.241 427.84 143.031C428.5 142.991 429.13 142.201 430.33 141.371C421.1 139.051 412.43 141.241 403.67 140.451C401.3 139.371 398.84 137.281 395.7 139.641H395.71ZM136.86 89.2915C134.78 87.0115 132.48 86.8215 130.22 86.7715C127.61 86.7015 125 86.8815 122.39 86.9515C121.23 86.9815 120.06 86.9015 118.91 87.0315C114.88 87.4915 110.85 88.0115 106.82 88.5215C106.55 88.5515 106.29 88.6915 106.04 88.8215C105.99 88.8515 106.06 89.0815 106.09 89.3215C116.18 89.9715 126.28 90.1715 136.86 89.2915ZM198.34 117.191C204.56 119.061 209.07 119.271 219.26 118.621C218.97 117.881 218.71 117.221 218.44 116.551C211.62 115.471 205 116.391 198.33 117.191H198.34ZM420.29 171.951C427.48 172.411 434.69 172.551 441.9 172.321C444.82 172.231 447.57 172.851 450.08 173.541C451.52 172.711 452.05 171.941 450.72 170.771C441 170.431 431.19 170.091 421.38 169.761C421.1 169.761 420.78 169.791 420.53 169.921C420.29 170.041 420.13 170.311 419.92 170.531C420.03 170.971 420.15 171.441 420.29 171.951ZM268.19 116.791C261.52 115.571 255.65 117.941 249.63 118.181C249.52 118.181 249.44 118.621 249.22 119.151C250.04 119.741 250.91 120.371 251.68 120.921C257.54 121.211 263.39 122.851 268.62 119.031C268.52 118.491 268.41 117.951 268.19 116.781V116.791ZM152.01 49.2315C156.89 50.1115 161.81 49.7915 166.71 49.4515C167.83 49.3715 168.96 48.8515 170 48.3615C170.64 48.0615 171.6 47.6415 170.57 46.2615C165.31 46.0215 159.83 45.9015 154.38 46.8615C153.31 47.0515 152.19 47.5715 152.01 49.2415V49.2315ZM488.28 148.411C491.38 148.501 494.5 148.451 497.59 148.721C500.74 149.001 503.86 149.621 507.01 150.011C507.51 150.071 508.2 149.831 508.55 149.481C508.88 149.161 508.87 148.501 509.01 147.991C499.98 145.401 494.61 145.231 488.28 148.411ZM531.85 46.9015C523.92 44.6415 516.01 43.4715 507.71 44.3015C508.18 45.1115 508.45 45.5715 508.9 46.3615C516.46 46.2215 524.06 49.0715 531.85 46.9015ZM110.97 113.991C111.16 115.671 112.26 116.061 113.42 115.971C119.48 115.481 125.5 116.191 131.54 116.441C133.54 116.521 135.56 116.341 137.56 116.161C137.9 116.131 138.2 115.501 138.75 114.881C134.93 113.831 131.24 113.651 127.56 114.101C122.66 114.701 117.85 114.971 113.11 113.171C112.56 112.961 111.65 113.711 110.96 113.991H110.97ZM520.81 97.3715C519.03 97.9515 517.22 98.0615 516.2 99.7015C516.7 99.9515 517.19 100.401 517.68 100.411C524.06 100.461 530.44 100.471 536.83 100.411C537.63 100.411 537.79 99.7815 537 98.8415C535.95 98.7115 534.53 98.6215 533.16 98.3215C531.48 97.9615 529.84 97.4315 528.49 97.0615C526.75 97.5715 525.38 97.9715 524.22 98.3115C522.86 97.9415 521.76 97.6415 520.81 97.3915V97.3715ZM320.09 120.351C320.5 121.181 320.68 122.021 320.96 122.061C324.64 122.471 328.32 122.851 332.02 123.051C335.14 123.211 338.3 123.711 341.77 122.481C340.86 121.941 340.22 121.251 339.55 121.211C333.13 120.851 326.73 119.161 320.09 120.361V120.351ZM239.53 116.581C232.27 116.668 227.753 117.315 225.98 118.521C228.23 121.291 230.64 119.431 233.02 118.791C236.72 119.131 240.41 120.291 244.19 119.191C244.1 118.881 244.09 118.561 243.97 118.501C242.4 117.801 240.82 117.131 239.54 116.581H239.53ZM326.9 107.961C322.23 107.221 317.89 107.441 313.57 107.581C313.16 107.591 312.77 108.141 312.15 108.601C312.79 109.211 313.34 110.211 313.94 110.231C317.7 110.371 321.47 110.301 325.39 110.301C325.81 109.651 326.24 108.991 326.9 107.961ZM448.55 95.6215C442.78 93.7315 437.62 95.2115 432.53 95.1215C432.14 95.1215 431.74 95.7615 431.34 96.1015C433.75 97.7815 434.79 98.0015 442.51 98.2915C444.52 98.3715 446.53 98.3515 448.54 95.6215H448.55ZM565.99 52.1315C565.86 51.8715 565.8 51.4915 565.59 51.3715C561.99 49.3615 557.87 49.3015 553.98 48.3715C551.5 47.7815 548.85 47.7915 545.93 48.6415C546.9 49.2115 547.55 49.7615 548.29 50.0015C553.81 51.7815 559.6 51.8615 565.29 52.6115C565.5 52.6415 565.76 52.3015 565.99 52.1315ZM210.03 104.891C207.03 103.371 204.21 104.091 201.61 103.981C198.46 103.841 195.3 104.101 192.14 104.041C189.3 103.991 186.47 103.871 183.33 104.471C184.15 105.031 184.56 105.541 185.01 105.571C186.72 105.681 188.45 105.731 190.16 105.631C192.47 105.501 194.69 105.471 196.93 106.351C199.65 107.411 202.48 105.351 205.31 106.391C206.03 106.651 206.98 106.311 207.82 106.201C208.09 106.161 208.35 105.991 208.6 105.851C208.85 105.711 209.08 105.531 210.04 104.891H210.03ZM469.13 96.4015C468.24 95.9915 467.99 95.7715 467.73 95.7615C463.49 95.6815 459.24 95.6215 455 95.6015C454.8 95.6015 454.61 95.9915 454.23 96.3815C454.5 96.9315 454.82 97.5915 455.45 98.9015C459.81 96.8015 464.27 100.351 468.76 98.4215C468.88 97.7715 468.97 97.2615 469.13 96.3915V96.4015ZM343.94 136.071C339.73 134.151 335.42 135.911 331.27 135.411C331.07 136.241 330.96 136.721 330.82 137.281C335 138.281 339.19 138.831 343.38 138.211C343.6 137.371 343.74 136.851 343.94 136.081V136.071ZM325.29 128.071C322.32 125.871 320.24 127.091 318.31 126.811C316.06 126.481 313.85 125.841 311.7 125.351C310.54 126.771 307.92 125.481 307.6 128.141C309.33 128.331 311.06 128.691 312.79 128.661C316.54 128.591 320.28 128.321 325.29 128.081V128.071ZM348.66 107.491C345.88 107.891 343.38 108.261 340.88 108.591C339.46 108.781 338.02 108.841 336.61 109.101C336.31 109.161 336.11 109.811 335.86 110.201C345.68 112.461 347.24 112.451 351.32 110.111C351.04 108.431 349.65 107.941 348.66 107.491ZM528.13 73.4615C533.38 74.3415 541.28 74.0915 545.96 72.7315C542.91 72.6615 540.96 72.7515 539.04 72.5215C537.06 72.2815 535.14 71.5615 533.16 71.3815C531.55 71.2315 529.74 71.1015 528.12 73.4615H528.13ZM145.56 93.5615C140.46 93.2215 135.36 92.8815 130.25 92.5615C129.68 92.5215 129.09 92.5915 128.53 92.7015C127.98 92.8115 127.33 92.9115 126.94 93.2615C126.6 93.5615 126.56 94.2015 126.27 95.0115C127.7 95.2415 129.11 95.7815 130.42 95.6115C135.51 94.9615 140.71 95.8615 145.54 93.5615H145.56ZM295.08 121.371C299.89 121.461 304.82 122.371 310.38 120.521C305.2 118.891 300.56 119.661 296.04 119.211C295.66 119.171 295.16 119.801 294.82 120.201C294.71 120.321 294.93 120.721 295.09 121.381L295.08 121.371ZM480.39 145.081C476.557 144.481 474.09 145.015 472.99 146.681C475.36 148.221 477.75 148.011 480.2 147.191C480.25 146.601 480.3 146.091 480.39 145.081ZM420.84 162.481C420.64 162.271 420.45 161.891 420.24 161.881C416.23 161.771 412.22 161.701 408.21 161.651C407.99 161.651 407.77 162.001 407.55 162.191C407.58 162.381 407.55 162.701 407.66 162.751C411.52 164.631 415.61 162.601 419.55 163.421C419.9 163.491 420.41 162.811 420.84 162.471V162.481ZM263.93 199.641C256.957 198.641 252.317 198.641 250.01 199.641C254.55 200.991 258.8 199.861 263.93 199.641ZM383.5 183.601C380.807 182.648 376.47 182.641 370.49 183.581C375.38 184.221 379.2 185.251 383.5 183.601ZM490.23 70.7215C496.01 72.7215 500.25 72.6915 503.17 71.5415C502.41 70.5715 501.43 70.1815 500.2 70.4015C499.08 70.6015 497.96 70.8915 496.84 70.9015C495.72 70.9115 494.6 70.5415 493.48 70.5015C492.4 70.4615 491.32 70.6415 490.23 70.7215ZM510.39 71.4215C510.57 72.3915 510.54 72.8215 510.68 72.8915C511.39 73.2515 512.2 73.8515 512.89 73.7615C515.55 73.3915 518.35 74.7315 521.05 73.2815C520.7 72.8515 520.54 72.4615 520.34 72.4415C517.26 72.1015 514.18 71.8015 510.39 71.4215ZM313.98 85.4715C310.74 84.8615 307.48 84.6115 304.2 84.9515C303.98 84.9715 303.79 85.3215 302.63 86.4215C307.05 86.2015 310.51 86.3915 313.98 85.4715ZM308.67 92.0615C311.94 93.5315 314.7 94.2715 316.81 93.9815C317.6 93.8715 319.11 93.7515 318.39 92.0615H308.67ZM99.02 121.011C99.04 120.661 99.06 120.311 99.07 119.961C95.99 119.961 92.91 119.961 89.83 119.971C89.57 119.971 89.29 120.101 89.07 120.241C88.99 120.291 89.06 120.571 89.06 121.001H99.02V121.011ZM334.36 165.741C337.6 165.741 340.07 165.741 342.55 165.711C342.67 165.711 342.79 165.301 343.01 164.921C342.63 164.331 342.2 163.681 341.62 162.811C339.42 162.991 337.22 163.171 335.18 163.331C334.89 164.181 334.73 164.661 334.36 165.741ZM280.05 120.531C276.59 118.441 274.91 117.311 272.58 118.681C272.79 119.311 273.02 119.981 273.31 120.861C275.07 120.771 276.72 120.691 280.04 120.531H280.05ZM233.68 106.981C236.87 107.421 239.69 107.821 242.51 108.171C242.67 108.191 242.87 107.871 243.3 107.491C240.94 105.531 238.11 105.211 235.32 104.341C234.75 105.251 234.34 105.921 233.68 106.981ZM356.65 94.4115C353.31 93.1515 350.61 93.7115 346.64 94.1515C350.62 94.8815 353.32 95.0415 356.65 94.4115ZM373.21 94.6215C369.757 93.5748 366.843 93.6715 364.47 94.9115C366.41 95.1315 367.83 95.4915 369.22 95.4015C370.54 95.3215 372.09 96.0015 373.22 94.6215H373.21ZM372.64 103.051C375.44 104.381 378.16 104.181 381.15 104.001C381.08 102.891 381.04 102.161 380.99 101.261C379.45 101.481 378.12 101.671 376.78 101.851C375.48 101.451 374.19 101.061 372.65 100.591V103.051H372.64ZM450.33 143.051C451.29 144.821 452.31 145.571 453.92 145.091C455.19 144.191 455.67 143.081 454.88 141.611C453.04 140.411 451.86 141.641 450.33 143.041V143.051ZM146.97 49.1015C144.21 47.1115 142.42 47.6715 140.75 47.5915C139.34 47.5215 137.9 47.7615 136.5 48.0415C136.21 48.1015 136.05 48.8915 135.81 49.4015C136.59 49.7515 137.38 50.1015 138.49 50.6015C140.72 50.2115 143.2 49.7715 146.97 49.1115V49.1015ZM176.79 104.901C173.7 103.631 170.66 102.791 167.71 104.831C170.73 107.131 173.8 105.331 176.79 104.901ZM123.87 103.281C127.37 105.031 130.32 103.471 133.63 103.921C131.99 102.061 130.2 102.531 128.64 102.271C127.3 102.051 125.86 101.841 123.87 103.281ZM350.92 122.581C353.91 123.541 356.77 123.721 359.66 123.421C360.62 123.321 360.99 122.611 360.02 121.361C358.57 121.361 356.84 121.251 355.13 121.401C353.8 121.521 352.32 121.281 350.93 122.581H350.92ZM407.15 169.741C407.34 170.481 407.32 170.821 407.48 170.991C408.33 171.911 409.43 172.181 410.54 171.681C410.89 171.521 411.25 170.681 411.13 170.331C410.67 169.031 409.52 168.991 408.37 169.181C408.11 169.221 407.87 169.401 407.15 169.751V169.741ZM476.67 97.4415C478.13 98.6615 478.77 99.1915 479.59 99.8715C480.91 99.7415 482.35 99.7615 483.69 99.4015C484.29 99.2415 484.69 98.3315 485.3 97.6215C482.63 96.1315 480.25 96.2315 476.67 97.4315V97.4415ZM297.61 99.1915C301.39 101.781 301.51 101.791 304.23 99.6415C303.95 98.2815 302.84 98.0415 301.27 97.7115C300.38 98.0715 299.11 98.5815 297.62 99.1815L297.61 99.1915ZM391.8 94.4415C391.8 95.4315 391.73 95.8815 391.8 95.9115C394.193 96.7315 396.773 96.6382 399.54 95.6315C397.26 93.7815 394.69 94.8915 391.79 94.4415H391.8ZM274.7 92.0715C276.83 92.9715 278.85 93.7415 280.75 92.0715H274.7ZM474.5 155.551C473.41 155.251 472.69 154.931 471.96 154.871C470.88 154.791 469.79 154.891 468.76 154.921C468.43 156.671 469.1 157.321 470.72 157.541C471.7 157.021 472.92 156.381 474.5 155.541V155.551ZM194.1 90.4515C194.22 91.0015 194.33 91.9415 194.45 91.9415C196.44 91.9415 198.43 91.8615 200.41 91.6915C200.59 91.6715 200.72 90.9915 200.89 90.5715C198.58 90.0515 196.36 89.5215 194.1 90.4415V90.4515ZM246.23 134.931C250.22 135.071 252.19 135.191 254.16 135.181C254.67 135.181 255.18 134.791 256.3 134.331C253.2 133.031 250.64 132.971 246.23 134.931ZM368.34 123.611C368.25 123.791 368.18 123.931 368.11 124.071C368.38 124.121 368.65 124.201 368.92 124.201C370.36 124.211 371.81 124.201 373.25 124.201C373.25 124.001 373.25 123.801 373.25 123.601H368.35L368.34 123.611ZM500.86 43.6315C499.17 43.3815 497.46 43.0915 496.62 45.1815C498.22 46.0615 499.79 45.7215 501.36 45.1015C501.19 44.6115 501.03 44.1215 500.86 43.6315ZM220.38 64.5715C216.65 62.8415 216.65 62.8015 212.01 65.2215C215.56 64.6315 217.89 66.6615 220.38 64.5715ZM300.95 92.6915C297.63 91.1015 297.61 91.1015 294.7 92.8115C298.18 93.7015 298.18 93.6715 300.95 92.6915ZM257.59 97.9515C255.47 96.6315 253.47 96.6315 251.21 97.7315C253.48 99.1815 255.48 99.4215 257.59 97.9515ZM252.13 111.641C252.87 111.041 253.44 110.571 253.94 110.161C252.59 105.621 252.37 105.441 249.34 106.401C250.24 108.081 251.12 109.751 252.13 111.641ZM442.77 141.691C440.603 141.225 439.087 141.711 438.22 143.151C440.567 143.525 442.083 143.038 442.77 141.691ZM323.58 157.451C322.14 157.161 321.37 156.881 320.6 156.881C319.78 156.881 318.97 157.141 317.51 157.411C318.9 157.701 319.66 157.971 320.42 157.981C321.24 157.981 322.07 157.731 323.58 157.461V157.451ZM491.54 157.361C486.37 156.181 486.37 156.201 484.81 157.881C486.12 158.421 487.37 158.931 488.76 159.501C489.66 158.801 490.48 158.171 491.54 157.351V157.361ZM193.81 117.051C193.73 116.791 193.69 116.491 193.55 116.261C192.82 115.131 191.67 114.961 190.68 115.811C189.98 116.421 189.78 117.631 190.47 117.971C191.15 118.301 192.04 118.391 192.79 118.271C193.18 118.211 193.47 117.471 193.81 117.041V117.051ZM89.9 113.541C87.1533 112.268 85.2667 112.285 84.24 113.591C85.73 115.131 87.34 114.301 89.9 113.541ZM290.4 78.4215C288.94 77.4015 287.31 77.4415 285.69 77.7915C285.3 77.8715 285 78.3615 284.64 78.6815C286.667 79.3348 288.587 79.2482 290.4 78.4215ZM183.87 130.771C185.54 131.141 187.21 132.031 189.44 130.771H183.87ZM364.83 137.961C362.52 136.891 362.52 136.901 359.12 138.161C361.05 138.711 362.97 139.481 364.83 137.961ZM419.3 187.151C417.03 185.571 415.24 185.881 413.37 186.911C415.06 188.301 416.82 188.321 419.3 187.151ZM106.81 114.651C105.77 113.871 105.25 113.271 104.6 113.071C104.24 112.961 103.54 113.401 103.23 113.791C102.75 114.391 103.4 115.551 104.28 115.551C104.94 115.551 105.6 115.101 106.81 114.651ZM262.74 66.2915C263.05 64.3915 261.94 64.1315 260.8 64.0515C260.27 64.0115 259.72 64.3015 259.19 64.4415C259.6 65.0615 259.89 65.9415 260.46 66.2215C261.09 66.5315 262 66.2915 262.74 66.2915ZM450.06 153.781C450.44 154.181 450.79 154.621 451.21 154.971C451.4 155.131 451.75 155.221 451.99 155.171C452.21 155.131 452.57 154.751 452.54 154.691C452.29 154.241 452.05 153.601 451.65 153.471C451.2 153.331 450.6 153.651 450.06 153.771V153.781ZM330.2 166.431C329.39 164.911 329.23 164.331 328.86 163.991C328.21 163.421 327.21 163.241 326.8 164.051C326.54 164.561 326.8 165.711 327.25 166.111C327.68 166.501 328.65 166.301 330.21 166.431H330.2ZM538.85 85.5815C540.1 86.5515 541.29 86.5315 542.47 85.4615C541.22 84.6715 540.02 84.3015 538.85 85.5815ZM332.9 171.331C331.75 170.481 330.64 170.491 329.51 171.371C330.66 172.101 331.78 172.411 332.9 171.331ZM284.14 99.9215C286.33 100.201 287.35 100.421 288.38 100.441C289.9 100.471 290.03 100.111 289.12 98.3515C287.88 98.4815 286.5 97.7915 284.14 99.9215ZM313.87 98.1215C310.54 98.1815 308.9 97.2115 307.81 99.3715C309.8 101.571 309.81 101.601 313.87 98.1215ZM166.67 53.3315C167.6 54.4415 168.67 55.2715 169.14 53.4515C168.22 53.4015 167.44 53.3715 166.67 53.3315ZM244.9 64.4415C244.42 64.2815 243.95 64.0815 243.46 64.0015C243.25 63.9715 243 64.2015 242.78 64.3215C243.09 64.6015 243.41 65.1215 243.71 65.1115C244.11 65.1115 244.5 64.6815 244.91 64.4415H244.9ZM183.54 75.3415C184.08 75.9315 184.58 76.5515 185.16 77.0815C185.31 77.2215 185.9 77.1815 185.94 77.0815C186.14 76.6115 186.47 75.9615 186.29 75.6215C185.67 74.4215 184.73 74.2415 183.53 75.3615L183.54 75.3415ZM491.66 83.7415C492.19 83.8915 492.72 84.1715 493.24 84.1515C493.97 84.1215 494.35 83.5015 493.96 82.9015C493.74 82.5615 492.92 82.2915 492.55 82.4315C492.14 82.6015 491.94 83.2715 491.66 83.7315V83.7415ZM546.22 92.5115C545.76 92.3115 545.31 91.9515 544.86 91.9515C544.45 91.9515 544.04 92.3315 543.63 92.5415C544.07 92.7415 544.51 93.1015 544.95 93.1015C545.37 93.1015 545.79 92.7315 546.22 92.5215V92.5115ZM339.6 94.3215C339.58 94.1015 339.62 93.7115 339.53 93.6815C339.08 93.5015 338.57 93.2715 338.14 93.3615C337.88 93.4215 337.75 94.0315 337.56 94.4015C338.03 94.5115 338.5 94.6615 338.97 94.7015C339.17 94.7115 339.38 94.4615 339.59 94.3315L339.6 94.3215ZM226.47 104.591C226.22 104.651 225.96 104.701 225.71 104.761C225.92 105.171 226.09 105.611 226.35 105.981C226.41 106.061 226.95 105.951 227.05 105.801C227.42 105.211 227.18 104.781 226.47 104.591ZM381.87 111.951C380.75 110.631 379.63 110.661 378.49 111.941C379.62 113.341 380.73 113.071 381.87 111.951ZM170.15 131.061C171.16 132.401 172.5 132.231 173.86 131.901C174.09 131.841 174.44 131.431 174.4 131.351C174.2 130.951 173.96 130.391 173.6 130.271C172.34 129.841 171.03 129.601 170.15 131.061ZM359.27 148.091C360.21 149.381 361.19 149.521 361.9 148.331C362.1 148.001 361.33 147.091 360.83 146.111C360.13 147.001 359.69 147.561 359.27 148.091ZM381.92 149.951C382.13 149.831 382.33 149.701 382.54 149.581C382.27 149.191 382.01 148.801 381.74 148.411C381.41 148.641 381.09 148.881 380.76 149.111C381.15 149.391 381.53 149.671 381.92 149.951ZM502.77 158.721C502.76 158.871 502.75 159.021 502.74 159.171C503.47 159.231 504.2 159.291 504.93 159.351C504.94 159.191 504.95 159.031 504.97 158.871C504.24 158.821 503.51 158.771 502.78 158.721H502.77ZM321.88 171.381C321.37 171.231 320.81 170.441 320.38 171.491C320.88 171.461 321.38 171.421 321.88 171.381ZM348.85 193.981C350.53 194.471 351.22 194.771 351.93 194.821C352.15 194.831 352.43 194.161 352.62 193.771C352.64 193.731 352.21 193.331 352.02 193.361C351.29 193.441 350.57 193.631 348.85 193.991V193.981ZM400.73 150.241C400.29 150.001 399.87 149.631 399.41 149.581C399.2 149.551 398.92 150.141 398.67 150.461C398.89 150.581 399.14 150.841 399.33 150.801C399.81 150.691 400.27 150.451 400.73 150.251V150.241ZM370.47 147.991C369.68 147.851 368.97 147.661 368.26 147.651C368.14 147.651 367.79 148.651 367.9 148.731C368.83 149.451 369.75 149.601 370.47 147.991ZM352.47 148.261C352.26 148.151 352.03 147.921 351.84 147.951C351.11 148.061 350.97 148.411 351.47 148.791C351.63 148.911 351.98 148.871 352.18 148.791C352.32 148.731 352.37 148.451 352.46 148.271L352.47 148.261ZM297.85 144.691C297.65 144.811 297.44 144.921 297.24 145.041C297.44 145.161 297.64 145.371 297.84 145.371C298.04 145.371 298.25 145.161 298.45 145.041C298.25 144.921 298.05 144.801 297.85 144.681V144.691ZM508.04 132.711C508.92 133.631 509.8 133.701 510.78 132.761C509.9 131.881 509.02 131.721 508.04 132.711ZM400.57 132.691C399.197 132.178 398.263 132.378 397.77 133.291C398.88 133.901 399.83 133.811 400.57 132.691ZM156.49 130.901C156.54 131.171 156.49 131.561 156.65 131.681C157.05 132.001 157.55 132.201 158.01 132.451C158.19 131.971 158.63 131.381 158.49 131.031C158.36 130.701 157.63 130.551 157.14 130.441C156.97 130.401 156.71 130.741 156.49 130.901ZM163.42 130.041C163.17 129.671 162.94 129.341 162.71 129.001C162.51 129.171 162.13 129.431 162.15 129.481C162.34 129.861 162.62 130.201 162.87 130.561C163.06 130.391 163.24 130.211 163.42 130.041ZM139.42 103.151C139.96 103.181 140.38 103.201 140.8 103.221C140.75 103.071 140.66 102.781 140.65 102.791C140.27 102.881 139.9 103.001 139.42 103.151ZM546.32 99.9615C545.45 98.7215 544.76 98.7315 543.82 99.9615H546.32ZM331.91 94.0515C331.5 93.7515 331.1 93.2315 330.69 93.2215C330.25 93.2115 329.81 93.6815 329.36 93.9515C329.77 94.2315 330.17 94.7315 330.58 94.7415C331.01 94.7515 331.46 94.3015 331.9 94.0515H331.91ZM529.83 92.6015C529.62 92.4315 529.43 92.1615 529.2 92.1315C528.96 92.1015 528.7 92.3115 528.44 92.4215C528.65 92.5915 528.84 92.8715 529.06 92.8915C529.3 92.9215 529.57 92.7115 529.82 92.6015H529.83ZM184.13 90.8015C185.06 91.7115 185.97 91.8015 186.9 90.7815C185.96 90.0415 185.06 89.6715 184.13 90.8015ZM238.26 199.841C238.54 199.831 238.84 199.881 239.08 199.771C239.25 199.691 239.47 199.301 239.42 199.241C239.26 199.051 238.96 198.781 238.78 198.831C238.36 198.941 237.98 199.211 237.59 199.411C237.82 199.551 238.04 199.691 238.27 199.831L238.26 199.841ZM223.84 76.9315L224.49 76.7715L223.95 76.6115L223.84 76.9315ZM161.06 75.7715C161.49 75.5215 161.92 75.2715 162.35 75.0215C162.16 74.8215 161.97 74.4615 161.78 74.4615C161.26 74.4715 160.75 74.6315 160.24 74.7415C160.51 75.0815 160.79 75.4315 161.07 75.7715H161.06ZM93.89 73.1315C94.41 74.1815 95.12 73.7615 95.83 73.3815C95.72 73.1815 95.58 72.8115 95.49 72.8215C94.95 72.8715 94.42 73.0215 93.89 73.1415V73.1315ZM364.68 182.301C364.43 182.701 364.19 183.101 363.95 183.501C364.18 183.641 364.46 183.941 364.62 183.881C365.04 183.731 365.41 183.431 365.8 183.201C365.43 182.901 365.06 182.601 364.69 182.301H364.68ZM481.99 71.5615C481.45 70.6415 480.77 70.8015 480.08 71.3515C480.05 71.3715 480.32 71.9415 480.41 71.9315C480.94 71.8615 481.46 71.6915 481.99 71.5615ZM465.44 70.1715C466.14 70.4515 466.44 70.2415 466.23 69.5915C466.2 69.5115 465.74 69.4915 465.53 69.5715C465.44 69.6015 465.47 69.9615 465.45 70.1815L465.44 70.1715ZM413.12 68.0015C413.61 68.3615 414.13 69.1415 414.47 67.8715C414.02 67.9115 413.57 67.9515 413.12 68.0015ZM385.34 67.8815C385.76 68.1515 386.17 68.6015 386.61 68.6415C387.05 68.6715 387.51 68.2815 387.96 68.0815C387.54 67.8115 387.13 67.3715 386.68 67.3315C386.25 67.3015 385.79 67.6815 385.33 67.8815H385.34ZM313.45 66.4715C313.69 66.4915 313.93 66.5415 314.16 66.5015C314.21 66.5015 314.22 66.1915 314.24 66.0215C314 66.0115 313.76 65.9615 313.54 66.0015C313.48 66.0115 313.48 66.3015 313.45 66.4715ZM501.15 177.471C500.71 176.751 500.55 176.161 500.21 176.031C499.82 175.881 499.21 176.031 498.82 176.261C498.68 176.341 498.84 177.381 499 177.421C499.62 177.561 500.29 177.481 501.16 177.481L501.15 177.471ZM288.52 66.1815C288.97 66.4515 289.4 66.9215 289.85 66.9315C290.3 66.9415 290.77 66.5015 291.23 66.2515C290.81 65.9915 290.38 65.5115 289.96 65.5115C289.48 65.5115 289 65.9415 288.52 66.1815ZM521.38 160.841C520.49 159.751 519.6 159.761 518.67 160.801C519.57 161.711 520.45 162.011 521.38 160.841Z" fill="var(--fill-0, black)"/>
<path id="Vector_2" d="M440.84 213.261C444.34 212.251 447.73 212.751 451.27 213.111C451.63 213.711 451.98 214.311 452.51 215.191C448.04 216.141 444.52 214.331 440.84 213.261Z" fill="var(--fill-0, black)"/>
<path id="Vector_3" d="M304.3 213.161H313.99C310.65 214.441 307.46 213.381 304.3 213.161Z" fill="var(--fill-0, black)"/>
<path id="Vector_4" d="M398.83 207.941C400.8 207.801 402.44 207.681 404.1 207.551C404.05 209.051 403.98 209.161 403.1 208.971C401.78 208.681 400.47 208.341 398.83 207.941Z" fill="var(--fill-0, black)"/>
<path id="Vector_5" d="M419.65 210.001H413.53C414.81 209.221 414.81 209.201 419.65 210.001Z" fill="var(--fill-0, black)"/>
<path id="Vector_6" d="M443.17 197.271C445.41 197.151 447.65 197.031 451 196.851C447.7 198.901 445.45 197.251 443.23 197.291L443.17 197.271Z" fill="var(--fill-0, black)"/>
<path id="Vector_7" d="M257.99 213.481H254.3C254.3 213.391 254.3 213.301 254.3 213.211C255.01 213.261 255.71 213.311 257.98 213.481H257.99Z" fill="var(--fill-0, black)"/>
<path id="Vector_8" d="M461.66 184.991C462.18 184.891 462.7 184.681 463.19 184.731C463.7 184.781 464.18 185.091 464.67 185.291C464.12 185.381 463.56 185.571 463.03 185.531C462.57 185.491 462.12 185.181 461.66 184.991Z" fill="var(--fill-0, black)"/>
<path id="Vector_9" d="M72.14 132.561C72.67 132.561 73.18 132.541 73.68 132.581C73.74 132.581 73.78 132.921 73.82 133.101C73.21 133.131 72.44 133.711 72.13 132.561H72.14Z" fill="var(--fill-0, black)"/>
<path id="Vector_10" d="M431.47 211.681C430.99 211.791 430.51 211.931 430.02 211.981C429.94 211.981 429.81 211.631 429.71 211.451C430.19 211.341 430.67 211.201 431.16 211.141C431.24 211.141 431.36 211.491 431.46 211.681H431.47Z" fill="var(--fill-0, black)"/>
<path id="Vector_11" d="M491.19 185.521H489.3C489.3 185.391 489.3 185.261 489.3 185.131H491.19C491.19 185.261 491.19 185.391 491.19 185.521Z" fill="var(--fill-0, black)"/>
</g>
</svg>
