<svg preserveAspectRatio="none" width="100%" height="100%" overflow="visible" style="display: block;" viewBox="0 0 592.377 91.2755" fill="none" xmlns="http://www.w3.org/2000/svg">
<g id="Layer_1-2">
<path id="Vector" d="M337.188 76.0431C333.578 79.1131 329.288 78.513 325.178 77.953C310.908 76.003 296.618 74.363 282.228 73.813C277.578 73.633 273.328 72.1031 268.928 71.1131C266.588 70.5831 272.028 67.9431 268.308 67.2231C266.078 66.7931 263.788 66.6231 261.528 66.3231C259.648 66.0731 257.778 65.7031 255.888 65.5431C253.998 65.3831 252.088 65.423 250.188 65.383V65.4131C248.288 65.1931 246.368 64.7131 244.498 64.8331C242.268 64.9731 237.608 61.6531 239.018 68.1431C239.058 68.3431 237.158 69.1731 236.098 69.3631C230.538 70.3231 224.718 68.863 220.738 66.023C215.888 62.563 211.228 62.373 205.958 61.983C201.808 61.673 197.508 62.773 193.448 60.893C197.888 56.913 203.488 57.463 208.738 57.473C225.178 57.513 241.448 61.793 257.998 59.663C268.368 62.883 279.198 62.663 289.838 63.743C301.668 64.933 313.368 67.5831 325.358 67.0831C327.258 67.0031 329.178 67.2931 331.078 67.5131C340.958 68.6531 350.808 70.1731 360.728 70.9131C376.368 72.0831 392.058 71.303 407.748 72.953C422.978 74.553 438.398 74.243 453.748 74.703C466.388 75.083 478.958 76.9031 491.688 76.0531C497.328 75.6731 503.118 76.2231 508.868 77.0331C517.078 78.1931 525.468 78.4431 534.348 76.1831C531.088 73.7331 527.878 73.893 524.988 73.093C523.538 72.693 521.888 72.4331 520.438 72.6931C509.058 74.7431 497.738 73.1731 486.398 72.4131C477.318 71.8031 468.068 72.7131 459.328 69.1231C458.308 68.7031 457.058 68.7331 455.908 68.7131C445.958 68.5531 435.978 69.043 426.138 66.923C425.048 66.693 423.848 67.013 422.688 67.063C413.078 67.473 403.528 66.643 393.968 65.883C379.428 64.743 364.868 62.713 350.348 62.933C333.358 63.203 316.798 59.853 299.978 58.943C282.808 58.013 265.748 55.033 248.578 53.933C235.988 53.123 223.468 51.623 210.768 51.353C196.288 51.043 181.768 48.923 167.178 48.843C156.058 48.783 144.928 48.593 133.808 48.563C130.938 48.563 129.078 50.333 129.248 52.613C129.458 55.413 131.598 54.873 133.468 55.113C146.368 56.813 159.308 55.793 172.228 55.813C179.928 55.813 187.618 55.163 193.808 61.073C191.888 61.223 189.868 61.853 188.078 61.443C178.228 59.143 168.268 60.403 158.358 60.213C149.148 60.033 139.928 59.583 130.748 58.813C126.788 58.483 123.008 58.153 119.798 60.753C116.858 63.133 113.418 63.383 109.998 63.483C103.858 63.663 97.7276 63.963 91.5776 63.033C85.5176 62.123 79.4176 61.663 73.2376 62.293C70.2076 62.603 66.8676 62.803 64.0676 61.863C50.5276 57.333 36.5876 59.853 22.8776 59.513C14.3676 59.303 10.2976 58.523 5.5176 46.703C1.2476 36.103 -0.232396 25.383 0.947603 14.083C1.2576 11.113 0.277603 8.03305 0.0176035 4.99305C-0.192397 2.54305 1.4976 0.403048 3.9576 0.243048C7.4076 0.00304845 10.8876 -0.0569515 14.3376 0.0530485C23.1776 0.313048 32.0076 0.743048 40.8476 1.04305C64.2876 1.81305 87.7376 2.50305 111.178 3.31305C149.228 4.63305 187.298 5.50305 225.308 7.54305C251.018 8.92305 276.648 11.863 302.288 14.343C335.598 17.573 368.998 19.513 402.418 21.153C425.458 22.283 448.478 23.813 471.528 24.693C490.738 25.433 509.978 25.553 529.208 25.803C540.358 25.953 551.518 25.873 562.668 25.823C567.268 25.803 571.908 26.163 576.358 24.463C577.398 24.063 578.608 24.033 579.748 23.963C590.658 23.373 593.238 26.193 592.148 37.243C591.848 40.293 591.848 43.383 591.748 46.453C591.688 48.373 592.228 50.483 591.588 52.183C587.968 61.893 589.758 71.8831 589.638 81.7831C589.628 82.9331 589.638 84.093 589.548 85.243C589.158 90.543 587.288 92.2231 582.228 90.7831C576.908 89.2731 571.548 89.6631 566.208 89.4331C550.458 88.7531 534.698 88.1631 518.948 87.6931C511.308 87.4631 503.658 87.7731 496.018 87.5031C483.728 87.0531 471.438 86.293 459.148 85.703C447.628 85.153 436.108 84.6431 424.588 84.1031C421.898 83.9731 419.188 83.9631 416.528 83.5731C409.038 82.4731 401.628 80.553 393.978 82.523C392.778 82.833 391.848 81.803 392.028 80.523C392.118 79.923 392.908 79.3831 393.448 78.9031C393.978 78.4331 394.598 78.0731 395.968 77.1231C389.808 75.5531 384.228 75.8531 378.648 76.3631C378.068 76.4131 377.058 77.2931 377.098 77.7231C377.308 80.3931 375.728 80.9931 373.628 80.8931C363.648 80.4031 353.668 79.9231 343.698 79.2931C341.018 79.1231 338.298 78.6231 336.898 75.8031C337.658 75.8031 338.428 75.9031 339.138 75.7631C339.718 75.6531 340.228 75.2531 340.778 74.9731C340.148 74.8631 339.438 74.5131 338.908 74.6931C338.248 74.9131 337.748 75.5731 337.178 76.0431H337.188ZM382.198 57.073C381.658 57.393 380.638 55.683 380.448 57.483C381.118 57.243 381.788 57.013 382.448 56.773C382.358 57.113 382.258 57.453 382.178 57.803C381.988 58.693 382.338 59.323 383.228 59.303C383.768 59.293 384.298 58.873 384.838 58.643C384.308 58.213 383.808 57.753 383.248 57.363C382.968 57.173 382.588 57.113 382.198 57.073ZM371.878 57.383C361.528 54.333 350.948 55.503 339.748 54.693C340.838 56.123 341.208 57.103 341.678 57.153C349.238 58.003 356.798 58.813 364.378 59.433C366.988 59.643 369.808 59.793 371.688 57.253L372.248 57.613L371.878 57.383ZM42.4276 46.963C42.4276 47.383 42.4076 47.803 42.4076 48.223C46.1476 48.353 49.8976 48.313 53.6276 48.643C57.3576 48.973 60.8276 50.483 64.8176 50.093C68.5076 49.733 72.5076 50.243 75.9676 52.083C81.3176 54.923 86.9376 54.983 92.7076 54.133C101.078 52.903 109.468 53.283 117.868 53.683C119.008 53.733 120.138 54.163 121.258 54.133C122.838 54.093 124.368 53.633 124.418 51.663C124.458 49.943 123.358 48.743 121.828 48.373C119.998 47.923 118.068 47.743 116.178 47.713C96.3676 47.433 76.5476 47.193 56.7376 46.973C51.9676 46.923 47.2076 46.973 42.4376 46.973L42.4276 46.963ZM248.288 19.043C248.228 19.423 248.168 19.813 248.108 20.193C249.478 20.513 250.828 20.993 252.208 21.133C265.888 22.443 279.568 23.703 293.248 24.953C295.518 25.163 297.978 24.803 300.048 25.543C304.878 27.263 309.808 27.033 314.768 27.273C318.948 27.473 323.108 28.163 327.268 28.683C335.978 29.763 344.708 30.163 353.498 28.703C318.428 25.483 283.358 22.263 248.288 19.043ZM169.028 14.613H116.468C133.988 15.473 151.508 16.413 169.028 14.613ZM183.498 15.963C196.578 17.913 209.948 18.043 223.178 20.063C224.538 20.273 225.998 18.933 225.308 18.313C224.788 17.843 224.128 17.253 223.518 17.233C210.178 16.763 196.838 16.373 183.498 15.963ZM452.768 35.083C452.838 34.503 452.918 33.923 452.988 33.343C441.948 32.583 430.898 31.803 419.848 31.113C419.248 31.073 418.248 31.693 418.038 32.233C417.528 33.583 418.588 34.283 419.708 34.313C430.728 34.613 441.738 34.833 452.758 35.083H452.768ZM202.018 45.023C210.048 46.073 217.818 47.143 225.608 48.043C226.848 48.183 228.938 48.603 228.878 46.273C228.848 44.953 227.488 44.693 226.348 44.493C218.318 43.113 210.318 43.413 202.028 45.023H202.018ZM151.178 44.063C151.188 43.943 151.198 43.813 151.208 43.693C153.108 43.693 155.018 43.693 156.918 43.693C157.858 43.693 158.428 43.193 158.388 42.263C158.378 41.983 157.968 41.583 157.658 41.463C152.878 39.673 148.068 39.803 143.268 41.383C143.038 41.463 142.818 41.973 142.828 42.273C142.828 42.593 143.088 43.173 143.288 43.193C145.908 43.533 148.538 43.783 151.168 44.063H151.178ZM387.118 31.323C394.288 33.593 399.888 31.783 405.488 31.333C399.888 31.713 394.308 28.523 387.118 31.323ZM169.978 41.963C170.108 42.543 170.248 43.123 170.378 43.713C175.268 44.153 180.158 44.643 185.058 44.973C185.588 45.013 186.188 44.133 186.748 43.683C186.078 42.853 185.398 41.293 184.738 41.303C179.818 41.353 174.898 41.713 169.978 41.973V41.963ZM499.238 35.863C503.644 36.8497 508.561 36.6997 513.988 35.413C507.728 35.693 503.668 34.293 499.238 35.863ZM401.538 59.293C403.218 62.213 405.898 61.993 408.538 61.583C409.038 61.503 409.708 60.583 409.738 60.023C409.768 59.403 409.308 58.373 408.808 58.173C406.238 57.123 403.788 57.463 401.548 59.293H401.538ZM97.9776 40.923C97.9876 40.703 97.9976 40.483 98.0176 40.263H86.2776C86.2776 40.483 86.2776 40.703 86.2776 40.923H97.9876H97.9776ZM302.618 52.083C299.718 50.753 297.048 49.863 294.118 50.853C293.818 50.953 293.468 51.363 293.438 51.663C293.408 51.963 293.688 52.453 293.958 52.573C296.808 53.843 299.578 53.153 302.618 52.083ZM247.588 46.133C246.848 46.473 245.568 46.823 245.578 47.103C245.668 49.153 247.428 49.303 248.908 49.413C249.488 49.463 250.638 48.743 250.678 48.313C250.868 45.983 249.048 46.223 247.588 46.133ZM268.138 49.473C266.798 47.823 265.018 47.713 263.178 47.913C262.878 47.943 262.488 48.233 262.338 48.513C261.908 49.323 262.218 49.973 263.128 49.983C264.788 50.013 266.578 50.933 268.138 49.473ZM278.378 48.933C277.868 49.263 277.328 49.613 276.798 49.953C277.188 50.523 277.538 51.133 277.998 51.643C278.218 51.883 278.618 52.013 278.968 52.093C280.008 52.333 281.398 52.663 281.808 51.523C282.468 49.673 280.908 49.223 279.488 48.943C279.148 48.873 278.778 48.933 278.398 48.933H278.378ZM460.918 33.573C460.548 34.123 460.178 34.673 459.808 35.213C460.458 35.483 461.108 35.953 461.768 35.973C462.688 36.003 463.238 35.223 462.788 34.493C462.488 33.993 461.568 33.863 460.928 33.573H460.918ZM425.048 61.453C427.118 61.893 428.888 62.483 430.678 62.553C431.498 62.583 432.358 61.583 433.198 61.043C432.598 60.663 432.038 60.053 431.398 59.953C429.278 59.623 427.178 59.683 425.048 61.453ZM133.978 41.863C134.018 40.233 133.098 39.733 131.948 39.823C131.308 39.873 130.368 40.293 130.168 40.783C129.668 42.023 130.488 42.793 131.678 43.023C132.818 43.253 133.738 42.893 133.978 41.853V41.863ZM121.868 41.853C122.088 41.003 121.768 40.383 120.888 40.353C120.208 40.333 119.518 40.633 118.828 40.793C119.208 41.333 119.498 42.153 120.008 42.333C120.508 42.513 121.248 42.043 121.878 41.853H121.868ZM470.428 35.173C470.428 35.443 470.358 35.903 470.438 35.933C470.758 36.043 471.138 36.093 471.468 36.023C471.768 35.963 472.038 35.733 472.318 35.573C471.688 35.433 471.058 35.303 470.418 35.173H470.428ZM485.608 35.883C486.288 36.103 486.928 36.363 487.588 36.473C487.888 36.523 488.348 36.383 488.548 36.163C489.008 35.653 487.168 34.893 486.248 35.293C485.998 35.403 485.828 35.673 485.608 35.883ZM541.728 76.8031C541.868 77.0331 542.018 77.453 542.148 77.453C542.768 77.433 543.378 77.2931 543.998 77.1931C543.848 76.9731 543.688 76.553 543.548 76.563C542.938 76.573 542.338 76.713 541.738 76.813L541.728 76.8031ZM503.278 84.383C504.168 85.433 505.288 85.2931 506.458 85.0431C507.428 84.8331 507.958 84.2231 507.518 83.3531C506.868 82.0731 505.578 82.143 504.518 82.673C503.958 82.953 503.668 83.803 503.268 84.383H503.278ZM373.978 30.453C373.358 30.453 372.728 30.443 372.098 30.493C372.068 30.493 372.078 31.013 372.078 31.293C372.708 31.293 373.348 31.313 373.978 31.323V30.463V30.453ZM236.628 48.243C237.298 47.953 237.968 47.663 238.638 47.383C238.018 46.993 237.428 46.343 236.778 46.293C236.148 46.243 235.468 46.803 234.808 47.093C235.408 47.483 236.018 47.863 236.618 48.253L236.628 48.243ZM319.978 55.473C320.578 55.113 321.178 54.753 321.778 54.393C321.228 53.963 320.698 53.223 320.118 53.193C319.538 53.153 318.908 53.813 318.298 54.163C318.858 54.603 319.408 55.033 319.968 55.473H319.978ZM479.748 62.873C479.428 62.873 479.028 62.753 478.818 62.893C478.148 63.353 478.328 63.753 479.288 63.823C479.558 63.843 479.858 63.613 480.138 63.493C480.008 63.293 479.878 63.083 479.748 62.873ZM92.8776 15.183L92.9576 14.613L92.2976 14.823L92.8776 15.193V15.183ZM236.568 19.403C236.248 19.303 235.928 19.133 235.608 19.133C235.508 19.133 235.408 19.573 235.308 19.823C235.628 19.913 235.948 20.073 236.258 20.063C236.368 20.063 236.468 19.643 236.568 19.403ZM74.6676 40.793L74.7476 40.193L73.8976 40.423L74.6676 40.803V40.793ZM560.908 77.4731L561.658 77.1131L560.938 76.7231L560.908 77.4731Z" fill="var(--fill-0, black)"/>
<path id="Vector_2" d="M250.188 65.3731C250.908 66.2231 251.698 67.023 252.338 67.923C252.958 68.803 255.678 68.9031 253.588 70.8231C253.168 71.2031 252.138 71.0831 251.428 70.9431C250.028 70.6631 249.938 69.663 250.388 68.523C250.798 67.453 251.028 66.4031 250.178 65.4131V65.3731H250.188Z" fill="var(--fill-0, black)"/>
</g>
</svg>
