<svg preserveAspectRatio="none" width="100%" height="100%" overflow="visible" style="display: block;" viewBox="0 0 626.754 67.8748" fill="none" xmlns="http://www.w3.org/2000/svg">
<g id="Layer_1-2">
<path id="Vector" d="M562.592 66.1305C545.252 66.9705 524.732 62.2105 504.002 63.0705C480.942 64.0305 457.902 63.8605 434.842 63.7505C426.402 63.7105 417.962 62.9505 409.522 62.7405C389.552 62.2405 369.582 61.9605 349.622 61.4505C321.202 60.7205 292.772 60.2805 264.382 58.9405C234.412 57.5305 204.452 58.0005 174.482 57.5305C156.432 57.2505 138.402 55.9805 120.352 55.4005C91.9224 54.4705 63.4924 54.5105 35.1124 56.6105C26.6924 57.2305 18.2824 58.0305 9.86245 58.6705C8.35245 58.7905 6.80245 58.6905 5.30245 58.4505C3.27245 58.1205 1.72245 57.0005 1.41245 54.8205C0.452446 48.0605 -1.64755 41.2805 2.36245 34.6905C3.31245 33.1305 3.71245 31.1305 3.97245 29.2705C4.78245 23.5305 4.70245 23.4305 9.15245 23.3105C16.4524 23.1005 23.7624 23.1905 31.0424 22.8505C42.0324 22.3405 53.0124 22.8505 63.5324 17.7005C68.5424 15.2505 74.8824 17.1105 80.1324 19.7605C82.1324 20.7705 83.5524 20.5805 85.4224 19.7205C93.2024 16.1205 101.132 13.7205 109.542 17.8205C109.872 17.9805 110.302 18.0505 110.672 18.0105C122.352 16.7105 134.422 17.9805 145.532 12.9505C149.492 11.1605 153.442 9.79055 157.742 11.3705C163.362 13.4305 168.772 10.0205 174.352 10.9505C178.432 11.6305 182.162 11.5405 186.372 9.64055C191.142 7.48055 196.942 7.74055 201.832 10.9005C204.112 12.3705 205.962 12.3905 207.902 10.3605C209.992 8.18055 212.862 8.59055 215.502 8.53055C219.732 8.44055 223.982 8.83055 228.182 8.45055C231.462 8.15055 236.072 10.5905 237.422 4.95055C241.552 3.70055 245.692 3.71055 249.832 4.91055C249.692 7.25055 249.442 9.88055 253.032 9.19055C255.952 8.63055 261.242 13.2705 261.332 5.64055C261.332 5.24055 264.042 4.57055 265.502 4.53055C274.322 4.26055 283.162 4.20055 291.982 3.93055C297.732 3.75055 303.552 3.84055 309.202 2.93055C321.472 0.950546 333.702 1.17055 345.972 2.40055C351.322 2.93055 356.612 2.99055 362.012 2.63055C371.962 1.97055 381.962 1.67055 391.902 3.19055C393.412 3.42055 394.952 3.54055 396.472 3.50055C434.472 2.37055 472.542 3.76055 510.452 0.500546C521.202 -0.419454 531.622 0.0605463 542.292 0.880546C554.882 1.85055 567.572 1.65055 580.192 3.04055C589.382 4.06055 598.652 3.35055 607.682 1.22055C612.352 0.120546 616.852 0.830546 621.362 1.53055C625.202 2.12055 626.802 4.09055 626.752 7.77055C626.692 13.1505 626.402 18.5205 626.192 23.8905C626.102 26.2105 625.352 28.2205 624.282 30.3705C622.792 33.3705 621.272 37.0105 621.672 40.1305C622.112 43.6105 621.242 46.0805 619.542 48.6605C618.042 50.9405 617.182 53.0905 617.532 56.1105C618.182 61.6705 615.622 65.5705 610.802 66.0405C604.342 66.6705 598.032 68.4305 591.352 67.7005C582.962 66.7805 574.482 66.7405 562.612 66.1405L562.592 66.1305ZM394.732 14.6505C394.152 14.1205 394.252 13.8205 395.032 13.7405C395.032 13.9605 395.032 14.1805 395.032 14.3705L394.362 14.0905L394.732 14.6405V14.6505ZM100.762 41.1205C101.072 41.0405 101.982 40.4605 101.022 41.4305L100.502 41.4505L100.762 41.1305V41.1205ZM295.142 45.8805C294.622 44.3605 293.602 44.1805 292.472 44.1505C285.572 44.0105 278.662 43.9605 271.772 43.6905C257.982 43.1505 244.212 42.2305 230.412 41.9305C214.302 41.5805 198.172 41.6505 182.052 41.6805C176.702 41.6905 171.362 42.1105 166.022 42.4705C165.742 42.4905 165.462 43.6305 165.352 44.2805C165.302 44.5405 165.662 45.0905 165.912 45.1405C167.022 45.3605 168.162 45.5605 169.292 45.5605C178.112 45.5405 187.012 44.6905 195.712 45.7005C201.802 46.4105 207.722 47.0005 213.712 45.9505C228.272 43.4105 242.622 48.8105 257.152 47.0305C257.502 46.9905 257.892 47.2105 258.252 47.3405C262.402 48.8305 266.592 48.1905 270.782 47.6205C272.672 47.3605 274.592 46.8005 276.452 46.9705C279.452 47.2405 282.522 49.5105 285.382 47.7905C288.502 45.9205 292.222 47.9105 295.152 45.9005L295.142 45.8805ZM307.602 46.4505C320.232 51.3705 331.502 48.5205 342.462 49.7705C349.542 50.5805 356.782 48.1105 363.922 51.2305C366.482 52.3505 370.022 51.7105 373.012 51.2605C379.922 50.2005 386.692 49.8405 393.562 51.6905C396.842 52.5705 400.412 52.6605 403.752 51.4205C404.862 51.0105 405.562 49.8705 405.312 48.6305C405.192 48.0505 404.482 47.1905 403.972 47.1405C400.152 46.8005 396.322 46.4805 392.482 46.4305C375.612 46.1805 358.742 46.0805 341.882 45.8005C332.682 45.6405 323.482 45.1705 314.282 44.9705C312.822 44.9405 311.342 45.5905 307.612 46.4505H307.602ZM157.522 44.0805C152.782 43.4805 148.832 39.7005 143.772 39.9605C138.862 40.2205 133.912 39.4205 128.972 39.2605C123.662 39.0905 118.342 39.1005 113.022 39.1105C112.362 39.1105 111.342 39.4505 111.102 39.9405C110.422 41.3305 111.722 42.0005 112.662 42.1105C121.642 43.1605 130.612 44.2905 139.622 44.9905C145.282 45.4305 151.002 45.9505 156.662 44.7505C156.982 44.6805 157.242 44.3105 157.532 44.0805H157.522ZM459.732 50.2305C446.322 48.1305 433.052 48.3605 419.782 48.4305C418.282 48.4305 416.772 48.7805 415.272 49.0405C415.032 49.0805 414.792 49.4805 414.652 49.7705C414.262 50.5905 414.502 51.3605 415.402 51.6105C416.842 52.0205 418.452 52.7405 419.792 52.4405C427.662 50.6905 435.462 52.0505 443.312 52.4205C448.852 52.6805 454.552 53.0405 459.722 50.2205L459.732 50.2305ZM394.942 56.4005C392.582 56.4005 391.722 57.1405 391.892 58.4405C391.942 58.8505 393.082 59.3205 393.762 59.4105C394.832 59.5505 396.272 59.4605 396.342 58.1305C396.402 56.8905 395.142 56.4105 394.942 56.4005ZM378.622 57.6605C378.002 57.8405 377.382 58.0205 376.772 58.2105C377.092 58.6005 377.372 59.2605 377.742 59.3205C378.312 59.4105 378.942 59.0805 379.542 58.9205C379.242 58.5005 378.932 58.0805 378.622 57.6605ZM506.882 57.7905C505.892 57.7905 505.422 58.1605 505.692 58.8005C505.792 59.0305 506.332 59.2405 506.632 59.1905C507.292 59.0805 507.922 58.8005 508.562 58.5905C508.002 58.3205 507.442 58.0605 506.892 57.8005L506.882 57.7905ZM462.712 59.1905C462.552 58.9105 462.462 58.4905 462.222 58.3905C461.922 58.2605 461.332 58.2305 461.182 58.4105C460.582 59.1405 460.862 59.7005 461.852 59.7705C462.122 59.7905 462.422 59.4005 462.712 59.2005V59.1905ZM424.582 58.7205L423.932 58.3405L423.832 58.9205L424.592 58.7305L424.582 58.7205Z" fill="var(--fill-0, black)"/>
</g>
</svg>
