<svg preserveAspectRatio="none" width="100%" height="100%" overflow="visible" style="display: block;" viewBox="0 0 753.517 515" fill="none" xmlns="http://www.w3.org/2000/svg">
<g id="Layer_1-2">
<path id="Vector" d="M751.819 336.653C748.589 324.993 746.059 313.113 741.169 301.933C739.849 298.903 737.529 295.893 738.689 292.123C742.129 290.243 745.579 288.353 749.569 286.173C749.279 279.603 749.009 273.543 747.359 267.293C742.499 248.933 738.279 230.393 733.889 211.903C733.659 210.923 734.219 209.753 734.509 208.133C737.759 206.513 741.269 204.773 744.029 203.393C747.819 197.783 746.999 192.623 745.429 187.613C743.369 181.003 740.689 174.593 738.669 167.973C735.779 158.533 732.709 149.243 726.079 142.223C728.149 133.573 727.679 125.663 725.839 117.773C724.659 112.713 723.389 107.673 722.399 102.583C719.679 88.4731 714.489 75.3431 706.819 62.7231C702.959 63.2931 699.029 63.8831 695.169 64.4531C691.389 63.1031 688.219 60.5331 683.739 61.1631C679.809 61.7231 675.629 61.4931 671.099 57.4831C665.239 42.9631 664.229 24.8131 652.589 11.8731C647.199 9.80313 642.189 8.30313 637.569 6.01313C631.159 2.83313 624.369 1.67313 617.439 1.63313C593.199 1.47313 568.979 1.30313 544.749 0.293128C525.129 -0.516872 505.529 0.473128 485.919 1.78313C451.389 4.09313 416.809 5.65313 382.289 8.12313C358.139 9.85313 334.039 12.3331 309.969 14.9031C284.149 17.6531 258.259 19.2831 232.359 20.9031C213.919 22.0531 195.479 23.2631 177.049 24.5631C152.889 26.2631 128.749 28.1731 104.589 29.8131C85.5493 31.1031 66.4993 30.8131 47.4593 29.3731C45.7993 29.2531 44.0893 29.8931 41.8893 30.2631C38.3993 33.6731 34.5693 37.1331 32.8693 43.7631C33.3293 56.3031 33.9493 70.1031 35.9793 83.8131C36.7393 88.9531 37.2893 94.1231 37.7393 99.2931C37.9893 102.203 37.6193 105.073 35.0293 107.133C23.9793 111.883 12.2393 106.803 1.2693 108.963C0.669295 109.823 0.0592951 110.293 0.0492951 110.763C-0.510705 136.753 3.8393 162.373 6.0593 188.143C6.1993 189.783 7.2593 191.353 7.7693 192.633C11.6293 196.583 16.2093 196.763 20.9093 196.393C32.9993 195.443 45.0893 194.483 57.1793 193.453C60.1293 193.203 62.9393 193.233 65.3293 195.333C66.3693 198.613 67.5893 201.913 64.6693 205.173C59.9993 206.663 55.1693 208.213 50.9193 209.573C46.4193 217.823 46.9193 226.013 46.7393 234.073C46.6393 238.673 46.8993 243.293 46.7393 247.893C46.3393 258.813 45.5193 269.723 45.4093 280.643C45.3693 285.123 45.6493 289.883 48.3893 293.693C49.5093 294.463 50.4493 295.113 52.0293 296.193C69.2293 293.583 87.0993 294.403 104.969 295.243C115.349 295.733 125.729 296.133 136.109 296.573C159.189 297.543 182.289 298.313 205.349 299.563C220.329 300.373 235.269 302.003 250.249 303.063C276.739 304.943 303.229 306.753 329.719 308.443C342.979 309.293 356.259 310.093 369.539 310.433C386.259 310.863 402.989 310.743 419.719 311.033C422.489 311.083 425.249 311.963 427.419 312.353C428.239 313.793 428.759 314.713 429.219 315.523C431.409 313.833 433.579 312.163 435.039 311.033C439.369 310.633 441.109 312.553 442.289 315.213C441.329 315.413 440.299 315.513 439.589 316.053C432.929 321.063 425.609 322.683 417.529 320.883C415.889 323.313 413.189 323.533 410.609 323.693C401.139 324.283 391.659 324.723 382.189 325.213C382.159 325.213 382.129 325.233 382.099 325.243C376.849 319.863 370.959 318.843 364.459 322.723C363.399 324.303 362.479 325.683 361.559 327.063C355.499 328.453 349.449 330.093 343.229 327.923L343.669 327.693C343.139 327.593 342.609 327.503 342.209 327.433C342.509 327.583 342.869 327.753 343.229 327.923C333.499 333.203 322.669 332.123 312.339 333.563C307.379 331.533 302.699 329.623 296.569 327.113C291.509 329.993 284.589 328.233 278.379 331.053C278.349 331.013 278.319 330.973 278.289 330.933C275.519 330.913 272.749 330.893 269.969 330.873C270.119 332.563 270.259 334.093 270.439 336.003C268.429 336.743 266.319 337.523 263.489 338.573C257.389 336.713 250.859 334.713 244.879 332.883C238.089 332.813 231.809 332.493 225.569 332.753C216.709 333.123 207.639 331.743 199.109 335.333C199.069 335.313 199.039 335.273 198.999 335.253C191.059 333.463 183.069 333.253 174.919 333.363C148.939 333.733 122.949 333.393 96.9593 333.643C80.2293 333.803 63.5093 334.523 46.7793 334.973C44.4393 335.033 42.1893 335.243 40.0293 337.983C40.2693 348.683 37.4693 360.173 40.9693 368.793C40.8693 378.393 40.0793 385.383 40.9293 392.163C41.7193 398.463 42.8093 404.673 42.5593 411.063C42.3993 415.273 43.6993 419.033 47.6693 422.593C49.6693 422.803 52.7093 423.943 55.2393 423.243C70.4893 418.993 86.1993 419.273 101.709 418.633C125.329 417.653 148.989 417.643 172.639 417.723C218.239 417.883 263.689 414.873 309.099 411.303C343.609 408.583 377.909 403.693 412.439 401.163C417.029 400.823 421.579 399.823 426.129 399.033C428.959 398.543 431.739 397.463 434.579 397.323C451.309 396.443 467.929 394.833 484.249 390.873C511.959 389.133 539.119 383.393 566.529 379.473C601.399 374.483 636.379 370.863 671.499 368.273C691.069 366.833 710.579 364.573 730.109 362.543C737.519 361.773 744.959 360.903 751.369 357.643C754.009 346.253 754.269 345.463 751.849 336.693L751.819 336.653ZM210.849 116.693C209.929 116.593 209.019 116.413 208.119 116.253C208.179 115.893 208.289 115.173 208.319 115.173C209.239 115.273 210.149 115.433 211.059 115.583C210.989 115.963 210.879 116.683 210.849 116.683V116.693ZM218.309 131.993C217.079 131.773 215.849 131.553 214.619 131.333C214.659 131.083 214.709 130.843 214.749 130.593C215.979 130.813 217.209 131.033 218.439 131.253C218.399 131.503 218.349 131.743 218.309 131.993ZM227.339 115.383C232.379 113.813 237.299 109.653 242.779 114.603C236.769 117.483 236.769 117.653 227.339 115.383ZM321.949 18.8331C322.329 18.8031 322.899 19.2631 323.099 19.6531C323.219 19.8731 322.829 20.7031 322.609 20.7231C321.629 20.8231 320.619 20.8031 319.639 20.6631C319.449 20.6331 319.369 19.8731 319.239 19.4531C320.139 19.2231 321.029 18.8931 321.939 18.8331H321.949ZM322.669 108.973C322.959 111.693 320.899 111.513 319.539 111.463C315.799 111.323 312.069 110.923 308.339 110.593C312.779 107.443 318.009 110.533 322.669 108.973ZM255.589 114.793C255.219 114.813 254.819 114.253 254.439 113.963C255.049 113.503 255.759 112.593 256.259 112.693C257.039 112.853 257.679 113.703 258.389 114.263C257.449 114.453 256.519 114.753 255.589 114.793ZM266.589 23.8831C266.919 23.5231 267.589 23.1531 268.009 23.2631C269.489 23.6231 269.739 24.4931 268.629 25.3431C268.339 25.5631 267.609 25.2031 267.049 25.1031C266.899 24.7331 266.449 24.0431 266.589 23.8931V23.8831ZM270.639 113.793C270.159 113.923 269.599 113.733 269.069 113.683C268.709 113.333 268.339 112.973 267.979 112.623C268.789 112.333 269.589 111.923 270.429 111.833C270.749 111.793 271.289 112.433 271.449 112.863C271.529 113.063 270.999 113.703 270.639 113.803V113.793ZM287.969 127.613C287.519 127.593 287.089 127.073 286.649 126.783C286.909 126.453 287.139 125.903 287.449 125.843C287.949 125.743 288.679 125.793 289.029 126.103C290.089 127.053 289.669 127.703 287.969 127.623V127.613ZM302.219 111.473C303.729 109.453 305.459 110.513 307.129 110.913C305.779 112.533 304.279 113.393 302.219 111.473ZM316.419 125.523C324.109 123.293 329.239 121.133 335.479 123.643C327.189 126.903 327.199 127.033 316.419 125.523ZM341.789 108.713C341.279 108.783 340.309 108.623 340.259 108.393C339.979 107.013 340.719 106.683 342.209 107.483C342.069 107.913 341.989 108.683 341.789 108.713ZM375.839 122.153C374.859 121.853 373.959 121.293 372.879 120.763C373.899 120.463 374.859 119.883 375.679 120.033C376.349 120.153 376.849 121.163 377.429 121.773C376.889 121.913 376.289 122.283 375.839 122.143V122.153ZM403.259 118.563C405.189 118.583 406.509 118.593 407.689 118.603C407.009 119.033 406.339 119.463 405.609 119.773C405.319 119.893 404.749 119.353 403.259 118.563ZM409.339 118.243C411.359 116.853 411.599 116.883 414.239 117.403C412.809 119.493 411.039 118.603 409.339 118.243ZM424.309 116.513C425.929 113.773 427.969 114.623 430.069 115.793C428.903 117.586 426.983 117.826 424.309 116.513ZM425.219 102.433C427.349 100.243 429.319 100.243 431.329 102.063C428.899 105.713 427.179 102.433 425.219 102.433ZM199.269 335.443C201.469 335.153 203.769 334.483 205.469 337.023C202.499 339.513 201.089 336.703 199.269 335.443ZM205.049 364.613C204.669 364.543 204.469 364.513 204.379 364.493C204.609 364.533 205.559 364.703 206.609 364.893C205.139 367.893 203.269 365.403 205.049 364.613ZM220.079 365.553C218.609 365.233 218.369 364.503 219.469 363.843C219.799 363.643 220.509 363.873 220.929 364.113C221.229 364.283 221.329 364.803 221.519 365.163C221.039 365.303 220.509 365.643 220.079 365.553ZM229.859 348.453C235.909 347.913 240.929 347.443 245.969 347.083C246.339 347.053 246.769 347.783 247.169 348.153C239.029 352.803 239.019 352.863 229.859 348.453ZM250.809 364.013C249.939 363.733 249.129 363.293 248.299 362.903C248.569 362.553 248.949 361.863 249.079 361.903C249.949 362.193 250.769 362.643 251.609 363.033C251.339 363.383 250.959 364.053 250.809 364.013ZM324.219 341.463C325.829 343.253 324.969 344.863 323.219 344.903C319.629 344.983 316.019 344.473 312.419 344.153C315.699 340.553 320.119 341.613 324.219 341.473V341.463ZM278.459 331.163C281.629 330.973 284.669 331.383 287.779 332.913C283.609 336.863 282.289 336.563 278.459 331.163ZM287.919 345.993C287.469 345.913 287.089 345.423 286.669 345.113C286.939 344.783 287.389 344.143 287.439 344.173C288.129 344.593 288.759 345.103 289.399 345.593C288.899 345.743 288.369 346.083 287.919 346.003V345.993ZM291.519 358.793C295.139 359.123 297.759 359.363 300.279 359.593C296.629 361.993 296.339 361.853 291.519 358.793ZM305.659 360.283C304.259 360.173 302.879 359.723 301.499 359.363C302.199 358.733 302.879 357.973 303.689 357.783C304.649 357.543 305.799 358.073 306.949 358.273C307.659 359.483 307.229 360.403 305.659 360.283ZM302.829 344.033C305.739 343.013 308.449 343.873 311.169 344.373C308.419 345.703 305.669 346.263 302.829 344.033ZM320.039 357.973C325.299 355.783 330.019 354.473 335.129 355.723C335.569 355.833 335.869 356.533 336.529 357.313C331.199 359.133 326.199 361.633 320.039 357.983V357.973ZM567.169 105.363L567.649 106.283L566.389 106.073L567.169 105.363ZM526.429 164.633C511.399 168.413 508.399 168.463 501.169 165.283C512.899 161.673 514.589 161.563 526.429 164.633ZM504.229 309.453C501.519 310.393 499.989 310.933 498.519 311.443C498.699 310.453 498.879 309.453 499.089 308.243C500.409 308.553 501.699 308.863 504.219 309.453H504.229ZM486.689 311.533C490.439 309.403 494.219 310.183 498.009 311.543C494.239 311.543 490.459 311.543 486.689 311.533ZM494.039 321.713C493.253 324.633 491.099 325.616 487.579 324.663C488.989 321.933 491.539 322.353 494.039 321.713ZM496.479 109.853C492.369 114.773 491.539 114.893 483.939 111.853C488.449 111.133 492.129 110.543 496.479 109.853ZM459.819 113.463C461.449 113.073 463.029 112.243 464.669 112.123C466.099 112.023 467.569 112.663 469.789 113.143C464.749 115.823 460.389 115.493 455.899 114.093C457.209 113.893 458.539 113.773 459.819 113.463ZM454.539 315.273C450.169 320.363 449.739 320.343 442.999 315.223C444.869 314.463 446.709 313.533 448.659 313.163C450.839 312.743 453.109 313.113 454.539 315.283V315.273ZM416.699 331.823C417.559 332.033 418.279 332.853 419.069 333.423C418.059 333.583 417.059 333.843 416.059 333.853C415.659 333.853 415.259 333.323 414.859 333.033C415.479 332.593 416.209 331.703 416.699 331.823ZM381.449 325.393C379.659 325.883 377.759 326.413 374.829 327.213C377.379 323.283 379.519 324.813 381.449 325.393ZM359.229 354.123C361.729 351.913 363.869 353.333 366.019 354.303C363.799 355.383 361.569 357.113 359.229 354.123ZM366.899 354.183C367.119 353.773 367.339 353.343 367.659 353.223C375.529 350.483 383.459 348.683 391.529 352.133C383.419 354.113 375.239 355.103 366.899 354.173V354.183ZM424.019 348.623C413.649 350.613 403.249 352.473 392.609 352.053C393.179 351.253 393.699 350.263 394.449 350.023C404.859 346.723 415.399 344.613 426.309 347.083C425.569 347.703 424.849 348.463 424.019 348.623ZM427.169 346.863C428.319 343.383 430.819 345.013 433.949 344.493C431.559 348.723 429.279 347.473 427.169 346.863ZM442.389 331.223C439.259 332.033 436.039 332.453 433.089 332.983C431.439 330.143 433.409 329.433 434.679 328.863C437.729 327.503 440.869 327.613 443.939 328.923C443.459 329.813 443.059 331.053 442.389 331.223ZM444.539 328.833C447.189 326.393 447.299 326.433 450.319 328.543C448.409 329.893 446.479 329.553 444.539 328.833ZM450.119 343.243C453.609 341.923 455.589 341.163 457.489 340.443C457.169 341.453 456.849 342.493 456.409 343.883C454.969 343.733 453.439 343.583 450.119 343.243ZM463.639 342.663C461.649 342.063 459.759 341.143 457.839 340.323C460.419 340.533 462.999 340.753 466.059 341.013C464.969 341.793 464.119 342.813 463.629 342.663H463.639ZM468.149 314.513C474.039 309.973 479.799 309.663 485.849 311.763C485.669 312.283 485.539 312.953 485.209 313.063C479.839 315.013 474.359 315.603 468.149 314.513ZM483.809 338.913C489.769 336.903 491.839 335.823 494.019 335.543C498.869 334.913 503.779 334.673 509.859 334.183C501.459 338.803 499.369 339.223 483.809 338.913ZM522.089 334.143C524.309 331.483 527.129 330.573 533.039 331.563C528.269 333.913 525.629 336.403 522.089 334.143ZM552.319 314.773C551.699 314.903 550.919 314.283 550.219 314.003C550.789 313.923 551.349 313.843 551.919 313.763C552.919 313.623 553.919 313.493 554.969 313.353C554.069 313.863 553.249 314.573 552.329 314.763L552.319 314.773ZM603.719 157.863C596.989 159.033 590.229 160.063 583.449 160.813C569.809 162.313 556.109 163.383 542.499 165.083C537.429 165.713 532.599 164.983 527.679 164.513C528.869 162.563 530.769 161.813 532.969 161.553C543.179 160.353 553.379 159.023 563.609 158.003C577.759 156.593 591.939 155.423 605.909 154.173C607.269 157.413 604.779 157.683 603.729 157.863H603.719ZM640.719 159.633C635.949 159.573 631.649 158.553 627.569 156.513C627.979 155.463 628.109 153.993 628.689 153.803C636.829 151.043 645.289 151.123 653.739 151.493C654.459 151.523 655.119 152.823 656.069 153.803C651.569 157.753 645.849 158.193 640.719 159.643V159.633Z" fill="var(--fill-0, black)"/>
<path id="Vector_2" d="M429.209 315.503C429.209 315.503 429.119 315.573 429.069 315.613C428.729 315.723 428.379 315.823 428.039 315.923C428.539 315.983 429.049 316.043 429.549 316.103C429.439 315.903 429.329 315.703 429.209 315.503Z" fill="var(--fill-0, black)"/>
<path id="Vector_3" d="M737.099 372.353C736.669 371.373 735.529 370.703 734.059 369.223C731.329 369.223 727.939 369.223 726.589 369.223C716.569 373.973 708.569 378.743 699.949 381.673C674.659 390.253 648.099 392.453 621.829 396.003C611.579 397.393 601.289 398.453 590.999 399.543C586.779 399.993 584.479 403.733 580.789 405.123C576.599 403.493 572.819 400.253 567.889 401.163C560.089 402.593 552.059 402.763 544.269 404.933C544.939 406.403 545.379 407.383 546.329 409.453C542.899 409.653 540.429 412.433 536.709 411.243C535.289 409.573 533.869 407.913 532.589 406.413C528.249 406.493 524.189 406.243 520.229 406.743C517.469 407.093 514.839 408.483 512.159 409.403C512.279 409.423 512.409 409.443 512.529 409.473C512.449 409.483 512.379 409.493 512.299 409.513C510.869 409.163 509.439 408.813 508.029 408.473C507.429 410.623 506.999 412.153 506.539 413.813C498.429 417.703 489.999 418.103 481.369 417.053C477.959 419.393 474.159 418.943 470.359 418.333C468.589 417.023 466.859 415.753 465.129 414.473C463.479 416.623 462.179 418.333 460.939 419.953C453.469 422.043 446.239 423.913 439.329 423.543C434.439 421.833 431.219 417.373 425.689 419.313C422.239 422.833 418.199 426.133 412.829 426.783C391.099 429.423 369.359 432.013 347.599 434.383C343.659 434.813 339.269 433.073 335.639 434.153C326.039 437.023 316.179 436.063 306.499 437.293C305.409 437.433 304.249 436.933 303.119 436.733C301.269 435.473 299.419 434.213 297.269 432.743C295.769 434.663 294.449 436.353 292.389 439.003C285.709 436.853 278.319 441.123 270.899 438.173C270.479 438.003 270.289 437.243 269.989 436.763C270.539 435.803 271.079 434.843 271.639 433.883C264.559 430.223 260.199 435.003 255.919 438.953C249.879 436.883 244.059 434.883 239.459 433.303C232.309 433.603 226.539 433.783 220.789 434.093C206.979 434.843 193.179 434.823 179.339 434.803C155.769 434.783 132.199 435.743 108.619 435.013C106.239 434.943 104.099 435.763 102.309 439.223C102.499 444.353 102.399 450.653 103.069 456.863C103.799 463.733 105.109 470.543 106.409 477.343C107.809 484.703 109.369 492.033 111.079 499.333C112.289 504.503 114.629 509.083 119.379 511.743C128.739 515.773 138.519 515.043 148.279 514.763C163.859 514.313 179.449 513.353 195.009 513.753C208.349 514.093 221.479 512.133 234.719 511.673C241.609 511.433 248.359 510.993 255.319 511.523C262.679 512.083 270.199 510.423 277.649 509.743C278.219 509.693 278.809 509.653 279.379 509.733C294.439 511.733 309.249 509.533 324.079 507.253C329.759 506.373 335.619 505.033 341.209 505.643C351.839 506.813 361.849 504.803 370.649 502.093C389.309 502.983 406.469 501.673 423.249 496.253C430.569 498.783 438.049 497.263 445.389 496.073C457.329 494.133 469.289 492.553 481.319 491.373C492.779 490.243 504.339 489.533 515.639 487.473C537.269 483.523 559.169 482.093 580.969 480.053C620.619 476.353 659.979 471.093 698.909 462.773C713.609 459.633 728.059 455.623 741.779 449.303C746.159 447.293 749.669 444.593 750.949 440.433C748.939 427.883 746.809 415.993 745.189 404.023C743.709 393.113 741.569 382.433 737.109 372.323L737.099 372.353ZM412.739 436.843C413.159 436.913 413.519 437.373 413.899 437.663C413.649 437.983 413.219 438.593 413.189 438.563C412.549 438.163 411.959 437.693 411.359 437.233C411.819 437.083 412.319 436.773 412.739 436.843ZM407.419 454.163L407.439 454.043C409.489 454.413 411.539 454.773 413.589 455.143C413.529 455.173 413.469 455.203 413.409 455.243C411.409 454.883 409.409 454.523 407.409 454.173L407.419 454.163ZM413.669 455.103C414.059 454.103 414.449 453.113 414.829 452.113C415.839 452.113 416.849 452.123 419.079 452.143C416.709 453.443 415.169 454.283 413.669 455.103ZM438.899 449.733C446.739 446.163 446.989 446.033 456.649 447.203C451.169 450.183 445.189 451.043 438.899 449.733ZM459.529 447.033C459.629 447.033 459.619 447.033 459.529 447.033ZM458.919 447.023C460.169 446.793 459.799 446.863 458.919 447.023ZM485.349 444.413C484.949 444.303 484.679 443.743 484.349 443.383C484.849 443.273 485.399 442.973 485.829 443.093C486.229 443.203 486.499 443.763 486.829 444.123C486.329 444.233 485.779 444.523 485.349 444.403V444.413ZM509.779 441.333C509.679 441.593 508.899 441.753 508.489 441.673C508.059 441.593 507.699 441.163 507.309 440.883C507.609 440.603 507.859 440.153 508.209 440.063C509.579 439.733 510.209 440.243 509.789 441.333H509.779ZM515.209 409.963C517.329 410.343 519.469 410.723 521.769 411.133C519.089 412.683 517.199 410.933 515.209 409.963Z" fill="var(--fill-0, black)"/>
<path id="Vector_4" d="M417.819 320.403C417.599 320.533 417.379 320.673 417.149 320.803C417.269 320.833 417.389 320.843 417.519 320.873C417.619 320.723 417.739 320.583 417.829 320.413C417.829 320.413 417.829 320.413 417.819 320.413V320.403Z" fill="var(--fill-0, black)"/>
<path id="Vector_5" d="M428.039 315.923C424.709 315.523 421.399 315.133 418.159 314.743C414.909 315.583 411.779 316.393 408.529 317.233C411.019 320.653 414.909 319.043 417.819 320.403C419.459 319.443 421.059 318.403 422.789 317.653C424.469 316.923 426.259 316.443 428.029 315.923H428.039Z" fill="var(--fill-0, black)"/>
<path id="Vector_6" d="M405.779 422.493C405.559 422.103 405.079 421.633 404.689 421.613C403.189 421.543 402.779 422.203 403.669 423.163C403.939 423.453 404.609 423.373 405.109 423.463C405.339 423.143 405.859 422.643 405.779 422.493Z" fill="var(--fill-0, black)"/>
<path id="Vector_7" d="M342.179 327.413C341.379 327.033 340.999 326.843 342.179 327.413Z" fill="var(--fill-0, black)"/>
<path id="Vector_8" d="M341.669 327.313C341.789 327.333 341.969 327.363 342.179 327.403C341.939 327.363 341.779 327.333 341.669 327.313Z" fill="var(--fill-0, black)"/>
<path id="Vector_9" d="M341.669 327.313C341.439 327.273 341.399 327.263 341.669 327.313Z" fill="var(--fill-0, black)"/>
<path id="Vector_10" d="M313.789 431.143C314.699 431.303 315.609 431.473 316.599 431.643C315.769 430.383 314.969 429.483 313.789 431.143Z" fill="var(--fill-0, black)"/>
<path id="Vector_11" d="M314.229 329.063C314.709 328.043 314.079 327.513 312.639 327.743C312.279 327.803 311.979 328.223 311.659 328.473C312.059 328.763 312.449 329.053 312.849 329.333C313.329 329.253 314.109 329.313 314.229 329.063Z" fill="var(--fill-0, black)"/>
<path id="Vector_12" d="M482.829 412.483C482.509 412.353 482.189 412.223 481.859 412.103C481.839 412.333 481.809 412.563 481.789 412.793C481.939 412.763 482.099 412.723 482.249 412.693C482.439 412.623 482.639 412.553 482.829 412.483Z" fill="var(--fill-0, black)"/>
<path id="Vector_13" d="M487.789 411.833C487.669 411.503 486.839 411.143 486.449 411.253C485.219 411.583 484.019 412.043 482.819 412.483C483.929 412.923 485.039 413.383 486.199 413.633C487.589 413.933 488.249 413.123 487.789 411.833Z" fill="var(--fill-0, black)"/>
<path id="Vector_14" d="M475.669 414.173C477.789 415.033 479.619 415.763 481.419 416.493C481.539 415.263 481.669 414.033 481.789 412.793C479.899 413.213 477.979 413.643 475.669 414.163V414.173Z" fill="var(--fill-0, black)"/>
<path id="Vector_15" d="M481.419 416.493C481.399 416.683 481.379 416.873 481.359 417.063C481.539 416.933 481.729 416.833 481.919 416.693C481.749 416.623 481.579 416.553 481.409 416.493H481.419Z" fill="var(--fill-0, black)"/>
</g>
</svg>
