<svg preserveAspectRatio="none" width="100%" height="100%" overflow="visible" style="display: block;" viewBox="0 0 708.539 182.356" fill="none" xmlns="http://www.w3.org/2000/svg">
<g id="Layer_1-2">
<path id="Vector" d="M242.704 131.042C242.344 130.632 242.054 129.992 241.604 129.842C239.414 129.102 237.184 128.492 234.574 127.712C233.264 128.102 231.604 128.592 229.754 129.142C227.944 129.152 226.204 127.842 223.994 128.212C222.064 128.542 219.934 128.232 218.004 127.752C215.954 127.242 213.984 127.622 211.984 127.542C205.334 127.252 198.614 128.482 192.014 126.582C190.424 126.122 188.574 126.542 186.854 126.542C172.884 126.492 158.934 125.252 144.944 126.142C141.514 126.362 138.024 125.402 134.554 125.042C133.054 124.882 131.674 125.222 130.444 126.762C130.964 127.272 131.474 128.212 132.044 128.262C133.764 128.392 135.514 128.162 137.244 128.082C142.484 127.812 147.724 127.722 152.914 128.692C153.304 128.762 153.574 129.482 153.924 129.942C153.504 130.192 153.094 130.652 152.674 130.652C145.384 130.732 138.104 130.752 130.814 130.772C129.654 130.772 128.454 130.822 127.324 130.602C120.984 129.342 114.574 129.362 108.174 129.492C99.9639 129.662 91.9139 128.192 83.7939 127.462C82.3839 127.332 81.0239 126.662 79.6539 126.242C78.6239 124.782 77.6639 123.412 76.6539 121.992C75.1839 122.712 73.9239 123.322 72.3439 124.092C67.7239 124.342 63.7539 121.712 59.6339 119.952C56.9739 114.632 54.4139 109.502 51.5439 103.752C48.8039 103.022 45.4439 102.122 41.6539 101.102C39.6139 99.7515 37.2439 98.0515 34.1739 97.8415C30.4039 97.5715 27.7339 95.3715 25.1339 92.2515C24.8139 88.0115 23.7039 83.5215 23.3839 78.8615C23.0939 74.5915 24.0439 70.0815 21.9139 66.1815C19.7139 63.7815 16.6739 65.4215 13.8539 63.8515C10.9739 58.2615 10.3839 51.6415 9.50388 45.2215C7.71388 42.9915 4.92388 44.4015 2.37388 42.7215C0.653878 40.5715 0.283878 37.3015 0.323878 34.1715C0.413878 27.4715 -0.516122 20.7815 0.423878 14.0715C0.783878 11.5015 0.453878 8.84153 0.473878 6.22153C0.483878 4.16153 0.673878 2.13153 2.66388 0.251534C3.71388 0.191534 5.15388 -0.108466 6.55388 0.0415338C21.3539 1.68153 36.2339 1.72153 51.0839 2.47153C66.5239 3.24153 81.9639 3.65153 97.4139 4.00153C102.074 4.11153 106.714 4.62153 111.374 4.84153C119.234 5.22153 127.104 5.44153 134.964 5.87153C155.334 6.98153 175.714 8.06153 196.064 9.37153C206.224 10.0215 216.364 11.1615 226.504 12.0615C229.114 12.2915 231.734 12.4515 234.354 12.6215C236.104 12.7315 237.864 12.6615 239.594 12.9015C251.144 14.5015 262.754 15.4615 274.364 16.5115C287.704 17.7115 301.004 19.5015 314.324 20.9515C330.834 22.7515 347.354 24.4915 363.884 26.1815C366.794 26.4815 369.604 27.0515 372.454 27.6615C377.844 28.8015 383.354 29.3515 388.834 30.0315C396.344 30.9615 403.864 31.8115 411.384 32.6615C413.984 32.9515 416.614 33.0915 419.214 33.3815C423.264 33.8315 427.304 34.3515 431.344 34.8415C432.214 34.9515 433.074 35.1315 433.944 35.1915C445.544 35.9915 457.024 37.8715 468.614 38.8215C473.254 39.2015 477.854 40.0215 482.494 40.5015C495.514 41.8515 508.554 43.0515 521.564 44.4415C528.794 45.2215 535.984 46.3615 543.204 47.1715C551.014 48.0415 558.844 48.7015 566.664 49.4815C573.014 50.1115 579.364 50.7815 585.714 51.4615C590.314 51.9515 594.904 52.5815 599.504 52.9615C611.104 53.9315 622.564 56.1515 634.214 56.7715C637.694 56.9515 641.134 57.7215 644.594 58.2215C652.664 59.3815 660.744 60.4915 668.794 61.7415C670.174 61.9515 671.454 62.7915 672.414 63.1815C673.874 65.0615 674.054 66.7715 673.404 68.5015C672.064 72.0315 670.614 75.5115 669.194 79.0415C668.024 79.8815 666.864 80.7115 665.524 81.6815C665.494 82.3515 665.454 83.1315 665.414 83.9615C668.014 85.3515 670.714 84.4715 673.264 84.7815C675.554 85.0615 677.904 84.7315 680.234 84.7615C682.774 84.8015 685.534 84.0015 687.684 86.6415C687.784 87.3015 688.204 88.2215 687.994 88.9715C686.074 95.9515 683.904 102.862 681.114 109.872C678.494 110.242 675.964 110.592 673.494 110.942C673.264 111.832 673.064 112.592 672.864 113.372C668.874 113.822 664.744 113.602 660.634 115.372C658.954 122.912 655.944 130.192 656.044 137.782C657.194 139.492 658.614 139.852 660.054 140.062C668.984 141.412 677.934 142.662 686.854 144.072C692.614 144.982 698.334 146.082 704.054 147.192C705.434 147.462 706.724 148.132 707.704 148.492C709.054 150.912 708.474 152.912 707.994 154.882C706.094 162.732 705.544 170.982 701.264 178.272C700.014 178.512 698.854 179.012 697.774 178.882C692.604 178.262 687.264 179.112 682.254 177.102C675.554 176.912 669.114 174.302 662.324 174.972C657.254 173.692 651.924 173.852 646.934 172.132C645.534 171.652 644.114 171.472 642.714 172.282C642.324 173.892 644.164 173.642 644.334 174.332C650.384 175.292 656.124 176.132 661.834 177.142C668.424 178.312 675.074 178.922 681.724 179.632C684.024 179.882 686.374 179.872 688.744 181.402C687.784 181.682 687.114 182.022 686.424 182.062C683.804 182.192 681.154 182.542 678.574 182.232C671.924 181.442 665.324 180.232 658.674 179.402C651.754 178.532 644.974 176.602 637.934 176.712C637.064 176.722 636.164 176.712 635.334 176.492C620.914 172.772 606.034 171.652 591.484 168.672C586.374 167.622 581.074 167.262 575.844 167.012C567.944 166.642 560.284 164.802 552.484 163.802C543.534 162.662 534.654 160.952 525.694 159.832C518.184 158.892 510.614 158.432 503.074 157.762C500.174 157.502 497.284 157.402 494.464 156.422C492.864 155.872 491.034 156.002 489.304 155.822C487.394 155.622 485.364 156.162 483.564 154.892C485.104 153.752 486.714 153.412 488.504 153.822C489.924 154.152 491.384 154.822 492.764 154.662C499.244 153.942 505.514 155.392 511.834 156.312C516.084 156.932 520.574 156.002 524.604 158.182C524.834 158.302 525.184 158.242 525.474 158.222C537.514 157.462 549.084 161.512 561.024 161.722C566.284 163.462 572.014 162.432 577.264 164.602C579.344 165.462 581.834 165.462 584.154 165.552C586.434 165.642 588.724 165.352 591.014 165.232C593.394 166.162 595.794 167.162 598.394 166.392C598.974 166.222 599.374 165.412 600.084 164.662C598.894 164.262 598.074 163.682 597.374 163.812C595.154 164.202 592.984 164.852 590.794 165.392C590.524 164.892 590.254 164.382 589.984 163.872C586.624 161.822 582.694 162.172 579.054 161.342C575.944 160.642 572.724 160.392 569.614 159.692C564.814 158.612 559.954 158.122 555.064 157.942C546.624 157.642 538.324 156.232 530.034 154.762C528.604 154.512 527.124 153.932 525.734 154.102C519.254 154.892 513.124 152.502 506.764 152.202C500.384 151.902 494.094 150.612 487.764 150.002C482.634 149.502 477.544 148.562 472.374 148.312C467.474 148.072 462.644 146.942 457.694 146.882C454.574 146.842 451.564 145.832 448.314 146.152C445.484 146.432 442.544 145.542 439.644 145.332C436.454 145.102 433.234 145.192 430.044 144.872C427.754 144.642 425.484 144.062 423.244 143.472C416.704 141.732 410.554 141.392 402.764 141.742C398.144 141.952 393.424 141.832 388.874 141.082C383.114 140.142 377.344 140.102 371.574 139.712C367.184 139.412 362.884 138.902 358.944 136.942C357.984 137.112 357.124 137.432 356.284 137.382C345.854 136.702 335.344 137.142 324.974 135.482C321.834 134.982 318.754 134.082 315.204 133.262C311.664 134.922 307.734 135.072 304.144 132.922C296.364 132.832 288.814 133.392 281.364 131.652C279.414 131.202 277.304 131.292 275.274 131.362C267.724 131.622 260.224 130.152 252.664 130.892C251.864 130.972 250.994 130.452 250.164 130.192C247.514 129.342 244.994 129.782 242.524 130.902L242.734 131.042H242.704ZM434.234 138.402C433.514 137.362 432.474 136.862 431.274 136.882C427.794 136.932 424.324 137.072 419.034 137.232C425.324 138.512 429.844 138.562 434.394 138.222C440.844 140.462 444.304 140.712 451.524 139.362C450.454 139.002 449.704 138.542 448.944 138.522C444.044 138.422 439.144 138.432 434.244 138.402H434.234ZM312.854 128.332C317.181 129.605 320.317 129.775 322.264 128.842C319.537 127.962 316.334 127.855 312.654 128.522C309.844 125.962 306.234 125.862 302.874 126.032C297.734 126.302 292.704 125.732 287.624 125.352C287.554 125.352 287.424 126.192 287.304 126.722C289.394 127.732 291.664 127.722 293.914 127.782C300.224 127.962 306.524 128.152 312.834 128.332H312.854ZM628.404 169.832C628.914 171.082 629.744 171.582 631.634 170.702C630.274 170.212 629.274 170.092 628.274 170.002C627.144 167.712 624.594 167.612 623.174 166.692C619.884 166.602 617.034 166.532 614.174 166.442C612.454 166.392 610.724 166.202 609.004 166.272C608.264 166.302 607.544 166.852 606.784 167.172C607.054 167.602 607.164 168.022 607.354 168.062C613.004 169.082 618.644 170.182 624.334 170.972C625.614 171.152 627.044 170.242 628.404 169.832ZM352.174 131.172C346.694 129.222 344.404 129.082 338.094 131.012C344.054 131.612 348.164 132.302 352.354 130.982C353.684 131.522 354.984 132.342 356.364 132.532C359.534 132.962 362.744 133.182 365.944 133.282C369.154 133.382 372.304 133.582 375.484 134.122C379.194 134.762 383.014 134.762 386.784 134.952C387.274 134.982 387.784 134.502 388.914 133.952C385.394 131.712 381.944 134.002 378.034 132.912C377.464 132.712 376.104 131.832 374.734 131.812C368.654 131.722 362.614 130.212 356.494 131.532C355.144 131.822 353.624 131.302 352.174 131.152V131.172ZM485.564 142.942C481.564 141.822 478.934 142.332 476.424 141.892C473.874 141.442 471.384 140.662 468.824 140.352C466.554 140.082 464.224 140.212 461.924 140.272C461.324 140.292 460.734 140.722 458.694 141.532C468.174 141.972 475.944 144.432 485.564 142.942ZM516.454 145.872C513.954 145.612 511.304 145.772 508.974 145.002C504.474 143.512 500.024 144.382 495.514 144.552C499.474 144.992 503.364 145.602 507.244 146.492C510.174 147.162 513.374 147.682 516.454 145.882V145.872ZM211.774 122.082C218.944 122.292 226.024 123.152 235.144 121.812C230.854 121.392 228.574 121.052 226.284 120.972C223.694 120.872 221.084 121.152 218.504 120.992C216.314 120.852 214.144 120.332 211.774 119.952V122.092V122.082ZM118.964 124.882C114.784 124.392 111.074 124.062 107.244 125.342C110.014 126.042 112.444 127.542 115.234 128.042C116.084 128.192 116.984 128.412 117.794 128.262C118.544 128.122 119.214 127.532 119.894 127.152C119.604 126.462 119.394 125.952 118.954 124.892L118.964 124.882ZM556.634 151.212C551.474 150.472 546.774 149.072 541.824 149.802C543.114 150.202 544.464 150.212 545.744 150.502C547.154 150.822 548.464 151.582 549.884 151.852C551.584 152.172 553.344 152.232 555.084 152.282C555.464 152.292 555.854 151.772 556.644 151.212H556.634ZM270.334 123.192C270.214 124.082 270.124 124.792 269.984 125.852C273.344 125.972 276.434 126.112 279.514 126.152C279.974 126.152 280.444 125.692 280.914 125.442C279.564 123.872 277.744 124.812 276.164 124.512C274.264 124.142 272.394 123.672 270.324 123.202L270.334 123.192ZM411.074 136.382L411.384 135.362C408.524 135.262 405.674 135.142 402.814 135.112C402.454 135.112 402.074 135.592 401.694 135.862C401.964 136.062 402.194 136.362 402.434 136.372C405.314 136.402 408.194 136.392 411.074 136.392V136.382ZM192.614 120.402C184.394 119.202 184.304 119.202 181.744 120.402H192.614ZM532.394 148.152C529.704 146.812 527.214 147.562 524.724 148.132C527.174 148.402 529.594 149.462 532.394 148.152ZM248.344 123.742C246.094 121.272 245.984 121.302 244.634 123.682C245.854 124.592 247.094 124.612 248.344 123.742ZM334.244 49.6515C335.224 50.9415 336.264 51.0515 337.444 49.9315C336.434 48.9415 335.474 47.7815 334.244 49.6515ZM567.844 153.212C569.234 154.502 570.684 154.472 572.184 153.442C570.804 152.012 569.334 152.412 567.844 153.212ZM170.424 120.042C171.574 120.292 172.084 120.472 172.604 120.512C173.354 120.562 173.694 120.182 173.444 119.572C173.364 119.372 172.974 119.122 172.794 119.172C172.154 119.332 171.544 119.612 170.424 120.042ZM204.984 120.242C204.754 120.342 204.534 120.432 204.304 120.532C204.574 120.922 204.814 121.342 205.124 121.692C205.174 121.752 205.554 121.512 205.774 121.422C205.514 121.032 205.244 120.642 204.974 120.252L204.984 120.242ZM413.244 107.542C414.204 108.652 414.874 108.472 415.664 107.542H413.244ZM124.544 126.102C124.244 125.732 123.974 125.352 123.634 125.042C123.574 124.992 123.084 125.242 123.014 125.432C122.934 125.632 123.094 126.152 123.184 126.162C123.634 126.212 124.094 126.132 124.554 126.092L124.544 126.102ZM360.264 125.232C360.784 125.622 361.354 126.452 361.684 125.082C361.214 125.132 360.734 125.182 360.264 125.232ZM279.124 43.2915L279.494 42.9115H278.764L279.134 43.2915H279.124ZM388.784 40.6515C388.544 40.7315 388.314 40.8115 388.074 40.8815C388.324 41.1615 388.534 41.5115 388.844 41.7015C388.984 41.7915 389.314 41.5615 389.554 41.4815C389.294 41.2015 389.034 40.9315 388.784 40.6515ZM180.554 40.7615C180.294 40.8515 179.914 40.8615 179.804 41.0415C179.494 41.5415 179.804 41.9015 180.574 41.9215C180.834 41.9215 181.224 41.8215 181.334 41.6415C181.654 41.1215 181.334 40.7915 180.554 40.7515V40.7615ZM394.664 134.842C394.714 134.602 394.764 134.372 394.814 134.132C394.334 134.092 393.864 134.042 393.384 134.032C393.364 134.032 393.304 134.622 393.334 134.632C393.774 134.732 394.214 134.782 394.664 134.832V134.842ZM257.784 123.722C256.794 122.452 255.864 122.432 254.884 123.762C255.974 124.672 256.904 124.702 257.784 123.722ZM136.194 118.452C136.054 118.272 135.954 118.002 135.784 117.932C135.554 117.842 135.164 117.802 135.014 117.932C134.534 118.372 134.724 118.732 135.504 118.782C135.724 118.792 135.964 118.562 136.194 118.452ZM475.724 113.042C476.174 113.292 476.604 113.702 477.054 113.712C477.344 113.712 477.644 113.142 477.944 112.832C477.704 112.702 477.424 112.432 477.214 112.472C476.704 112.582 476.224 112.832 475.724 113.032V113.042ZM606.004 158.842C606.004 158.692 606.024 158.552 606.034 158.402C605.414 158.352 604.794 158.312 604.174 158.262C604.164 158.422 604.154 158.582 604.144 158.742C604.764 158.772 605.384 158.812 606.004 158.842Z" fill="var(--fill-0, black)"/>
<path id="Vector_2" d="M242.504 130.902C243.744 132.772 245.584 133.322 247.704 133.362C249.074 133.392 249.734 134.112 249.434 135.532L249.644 135.462C243.004 135.072 236.374 134.682 229.734 134.272C228.324 134.182 226.914 133.992 225.324 133.832C226.834 131.482 230.614 131.292 240.134 132.802C240.854 132.302 241.784 131.672 242.714 131.032L242.504 130.892V130.902Z" fill="var(--fill-0, black)"/>
<path id="Vector_3" d="M294.424 137.312C289.704 138.352 285.124 138.312 280.644 137.752C280.394 137.062 280.224 136.602 280.064 136.152C280.294 135.982 280.544 135.652 280.754 135.682C285.314 136.202 289.864 136.762 294.424 137.322V137.312Z" fill="var(--fill-0, black)"/>
<path id="Vector_4" d="M477.334 153.542C470.767 153.702 466.391 153.138 464.204 151.852C466.294 150.132 467.844 152.392 469.674 152.592C471.584 152.812 473.484 153.062 477.334 153.542Z" fill="var(--fill-0, black)"/>
<path id="Vector_5" d="M445.064 150.352C446.514 150.482 447.964 150.622 449.414 150.742C450.564 150.842 451.724 151.032 452.874 151.012C454.254 150.982 455.614 150.842 457.584 151.622C453.704 152.582 450.554 151.522 447.784 152.002C446.684 151.202 445.974 150.702 445.264 150.192L445.064 150.362V150.352Z" fill="var(--fill-0, black)"/>
<path id="Vector_6" d="M445.264 150.192C441.524 150.852 437.794 151.262 434.094 150.092C434.194 148.112 434.504 147.732 435.764 148.032C438.864 148.782 441.964 149.572 445.064 150.352L445.264 150.182V150.192Z" fill="var(--fill-0, black)"/>
<path id="Vector_7" d="M339.534 140.812C341.524 140.162 343.274 140.232 344.484 142.302C340.714 143.222 340.704 143.242 339.534 140.812Z" fill="var(--fill-0, black)"/>
<path id="Vector_8" d="M175.484 130.242C171.474 131.652 169.404 130.822 167.304 130.242H175.484Z" fill="var(--fill-0, black)"/>
<path id="Vector_9" d="M198.134 132.112C198.004 130.612 198.864 130.112 200.554 130.062C201.164 130.582 202.004 131.282 202.874 132.012C201.154 133.242 199.634 133.112 198.134 132.112Z" fill="var(--fill-0, black)"/>
<path id="Vector_10" d="M249.424 135.532H258.154C258.154 135.672 258.144 135.812 258.134 135.952C255.304 135.792 252.464 135.622 249.634 135.462L249.424 135.532Z" fill="var(--fill-0, black)"/>
<path id="Vector_11" d="M419.054 148.112C417.464 148.852 415.874 148.662 413.704 148.022C414.854 147.772 415.504 147.492 416.134 147.522C417.114 147.562 418.254 147.062 419.054 148.112Z" fill="var(--fill-0, black)"/>
<path id="Vector_12" d="M186.024 131.262C184.094 132.402 182.424 132.352 181.014 130.292C184.744 129.772 184.734 129.802 186.024 131.262Z" fill="var(--fill-0, black)"/>
<path id="Vector_13" d="M379.974 144.602C378.634 145.532 377.304 145.392 375.954 144.562C377.324 142.852 378.644 143.112 379.974 144.602Z" fill="var(--fill-0, black)"/>
<path id="Vector_14" d="M401.124 146.132C400.064 147.432 398.784 147.112 397.484 146.652C398.231 145.872 399.444 145.698 401.124 146.132Z" fill="var(--fill-0, black)"/>
<path id="Vector_15" d="M310.024 139.452C309.764 139.532 309.454 139.742 309.244 139.672C308.324 139.342 308.394 139.052 309.404 139.012C309.604 139.012 309.814 139.292 310.024 139.452Z" fill="var(--fill-0, black)"/>
</g>
</svg>
