<svg preserveAspectRatio="none" width="100%" height="100%" overflow="visible" style="display: block;" viewBox="0 0 450.953 227.621" fill="none" xmlns="http://www.w3.org/2000/svg">
<g id="Layer_1-2">
<path id="Vector" d="M378.533 77.183C380.733 81.923 379.993 84.063 376.183 83.843C374.513 83.743 372.823 83.553 371.193 83.163C358.493 80.163 345.803 77.093 333.113 74.063C329.843 73.283 326.583 72.233 323.253 71.903C302.733 69.903 282.183 68.173 261.653 66.153C249.043 64.913 236.423 65.653 223.803 65.633C216.663 65.623 209.523 65.973 202.383 66.093C188.863 66.323 175.433 68.123 162.373 71.083C141.483 75.823 120.563 80.813 100.433 88.343C86.2535 93.643 72.0435 98.903 58.4635 105.693C55.8435 107.003 53.2735 108.593 50.4935 109.393C43.2635 111.493 38.0735 116.243 33.4735 121.823C31.3335 124.413 29.5335 127.293 27.4135 129.903C26.3935 131.153 24.8035 133.183 23.7835 133.003C14.4735 131.453 16.1135 138.243 15.8735 143.283C15.6935 147.023 16.3135 150.793 16.4235 154.553C16.4635 155.863 13.4635 157.453 12.4135 156.683C9.06347 154.253 5.70347 151.803 2.56347 149.123C0.883467 147.693 0.513467 145.363 0.763467 143.283C1.58347 136.523 0.383467 129.873 0.0634671 123.173C-0.506533 111.233 2.85347 99.823 6.50347 88.633C8.44347 82.683 11.4935 77.033 14.4735 71.483C21.7535 57.953 33.4835 49.213 46.8035 42.333C62.5135 34.213 78.6735 27.243 95.9635 23.133C97.9635 22.653 99.7535 21.363 101.683 20.543C104.773 19.233 107.803 17.603 111.033 16.823C127.353 12.853 143.673 8.87302 160.103 5.40302C167.033 3.94302 174.073 3.37302 181.373 3.73302C188.773 4.10302 196.473 2.89302 203.893 1.83302C221.553 -0.686985 239.233 -0.116985 256.853 0.663015C292.663 2.24302 328.173 6.81301 363.003 15.443C385.943 21.123 408.163 28.883 427.883 42.543C438.723 50.053 446.423 59.913 449.383 72.683C451.563 82.123 451.403 91.953 449.333 101.543C446.853 113.063 444.253 124.553 441.413 135.983C439.913 142.053 438.323 148.253 432.493 151.993L432.853 151.823C430.533 152.943 430.143 155.063 429.993 157.303L430.303 156.883C426.413 157.613 425.473 161.033 424.043 163.923C422.763 166.503 422.033 169.643 419.453 171.123C408.643 177.323 399.893 186.073 390.373 193.883C389.943 194.243 388.853 193.793 388.043 193.713C388.023 193.693 387.623 193.033 387.623 193.033L387.883 193.913C385.473 192.163 383.123 193.003 380.773 194.083C376.973 195.833 373.283 197.993 368.853 195.563C368.043 195.123 365.833 195.593 365.473 196.283C363.703 199.603 360.773 199.343 357.823 199.323C357.403 199.323 356.863 199.273 356.593 199.503C349.013 205.743 339.383 205.193 330.573 207.273C325.363 208.503 322.523 211.083 321.913 216.523C321.503 220.193 320.793 224.113 316.273 225.363L316.513 225.663C316.583 222.753 316.643 219.833 316.713 216.923C316.783 213.853 315.073 212.453 312.253 211.833C307.653 210.833 305.643 212.273 305.993 216.743C306.243 219.893 306.783 223.023 307.223 226.413C303.173 224.853 302.203 221.513 300.903 218.433C299.563 215.253 296.793 214.483 293.773 214.053C290.673 213.613 288.663 214.803 288.243 217.683C287.823 220.563 287.773 223.493 287.443 226.383C287.323 227.413 286.473 227.863 285.513 227.493C284.833 227.233 283.813 226.773 283.703 226.253C283.363 224.633 283.243 222.943 283.313 221.283C283.513 216.543 282.053 214.643 276.693 213.793C271.413 212.963 265.793 214.833 260.763 211.403C259.853 210.783 257.463 211.773 256.033 212.543C250.503 215.523 244.743 214.923 238.823 214.403C233.943 213.973 229.133 211.863 223.983 214.543C221.323 215.923 212.213 212.393 209.493 209.283C206.333 205.663 202.223 204.673 198.163 204.833C188.453 205.233 178.883 205.653 170.073 200.543C161.283 201.733 152.993 196.873 144.103 198.433C141.743 198.843 139.123 198.273 136.703 197.773C133.373 197.083 134.113 195.433 136.093 193.753C135.103 193.053 134.103 192.343 132.403 191.143C137.793 191.143 142.363 190.983 146.913 191.173C169.643 192.113 192.363 194.053 215.083 193.943C249.193 193.773 283.383 192.953 316.803 184.733C349.323 176.733 378.113 161.633 402.733 138.823C409.893 132.193 416.023 124.763 420.143 115.783C424.123 107.083 422.333 101.163 413.703 97.203C409.553 95.293 405.073 93.683 400.583 93.023C394.003 92.053 389.653 89.123 388.003 82.573C387.463 80.443 386.393 78.653 384.543 77.483C382.613 76.263 380.543 76.543 378.533 77.393C378.543 77.353 379.063 76.673 379.063 76.673L378.483 77.183H378.533ZM217.543 207.453C216.843 207.673 216.113 207.823 215.463 208.143C215.213 208.263 215.143 208.753 214.983 209.083C215.623 209.163 216.633 209.523 216.833 209.273C217.233 208.753 217.183 207.903 217.333 207.253L217.543 207.453ZM142.793 19.093C143.813 18.253 144.243 18.253 143.863 18.973C143.783 19.123 143.093 18.963 142.683 18.943C142.023 18.303 141.363 17.653 140.703 17.013C141.393 17.723 142.093 18.423 142.793 19.093ZM321.863 60.163C325.763 63.623 329.793 63.123 333.893 62.323C330.113 61.673 326.983 58.013 321.863 60.163ZM146.483 59.053C145.903 58.723 145.273 58.073 144.733 58.133C143.623 58.273 141.733 58.633 141.623 59.183C141.293 60.883 142.993 60.133 143.813 60.253C144.843 60.413 146.103 60.563 146.483 59.043V59.053ZM229.113 209.083C228.593 208.543 228.133 207.713 227.463 207.483C226.863 207.273 226.033 207.693 225.303 207.843C225.813 208.403 226.223 209.253 226.843 209.433C227.523 209.633 228.393 209.223 229.113 209.093V209.083ZM209.853 52.133C209.673 51.853 209.493 51.333 209.323 51.333C208.633 51.343 207.813 51.333 207.293 51.683C206.663 52.113 207.013 52.853 208.013 52.883C208.613 52.903 209.233 52.393 209.853 52.123V52.133ZM165.663 56.543L165.283 55.983L164.913 56.653L165.663 56.543ZM176.003 54.493L176.833 54.933L177.023 54.373L176.003 54.493ZM123.773 64.353C123.423 64.373 122.863 64.273 122.753 64.443C122.343 65.093 122.773 65.353 123.803 65.033C123.853 65.013 123.783 64.583 123.763 64.353H123.773ZM125.893 18.873L125.853 19.713L126.853 19.323L125.893 18.873ZM363.313 69.853L364.083 70.283L364.173 69.573L363.313 69.843V69.853Z" fill="var(--fill-0, black)"/>
<path id="Vector_2" d="M432.533 152.013C435.093 153.563 434.113 155.233 432.703 156.913L432.973 157.323C432.943 155.493 432.923 153.663 432.893 151.833L432.533 152.003V152.013Z" fill="var(--fill-0, black)"/>
<path id="Vector_3" d="M431.183 162.693C430.903 160.763 430.623 158.833 430.333 156.903L430.023 157.323C431.003 157.323 431.983 157.323 432.963 157.323L432.693 156.913C432.063 158.953 431.423 160.993 430.793 163.023L431.183 162.693Z" fill="var(--fill-0, black)"/>
<path id="Vector_4" d="M190.503 208.853C190.413 209.093 190.313 209.533 190.233 209.533C189.293 209.513 189.083 209.133 189.693 208.603C189.803 208.503 190.223 208.763 190.503 208.853Z" fill="var(--fill-0, black)"/>
<path id="Vector_5" d="M316.313 225.373C316.673 226.913 315.903 227.473 314.503 227.303C314.263 227.273 313.843 226.573 313.933 226.413C314.533 225.363 315.293 224.523 316.553 225.673L316.313 225.373Z" fill="var(--fill-0, black)"/>
<path id="Vector_6" d="M430.793 163.023C430.713 162.773 430.623 162.533 430.543 162.283C430.083 162.953 430.303 163.073 431.193 162.663C431.193 162.683 430.793 163.013 430.793 163.013V163.023Z" fill="var(--fill-0, black)"/>
</g>
</svg>
