<svg preserveAspectRatio="none" width="100%" height="100%" overflow="visible" style="display: block;" viewBox="0 0 1248.26 154.872" fill="none" xmlns="http://www.w3.org/2000/svg">
<g id="Layer_1-2">
<path id="Vector" d="M339.61 81.85C337.46 80.61 335.14 80.54 332.8 80.97C331.44 81.22 330.34 81.94 330.22 83.7C332.58 85.77 335.6 86.34 338.51 85.87C343.26 85.11 347.83 85.95 352.47 86.47C356.44 86.92 360.44 87.13 365.67 87.54C369.82 89.61 375.39 89.33 381.14 89.31C390.07 89.27 399.12 88.68 407.89 91.6C411.01 92.64 414.44 92.82 417.76 93.14C427.05 94.05 436.4 94.05 445.72 94.7C455.05 95.35 464.44 95.13 473.8 95.39C479.47 95.54 485.12 95.74 490.78 96.39C496.4 97.04 502.16 97.09 507.81 96.71C517.53 96.05 527.19 96.82 536.87 97.05C541.54 97.16 546.22 97.44 550.93 97.64C553.58 99.76 556.17 101.81 559.89 101.22C564.89 100.43 570.13 100.19 574.76 102.03C578.97 103.71 583.28 102.37 587.37 103.76C588.02 103.98 589.09 102.98 589.86 102.59C589.86 102.11 589.98 101.7 589.84 101.56C587.72 99.53 584.83 99.97 582.29 99.35C576.12 97.84 569.69 100.33 562.67 98.27C564.2 97.75 564.99 97.25 565.77 97.26C577.47 97.41 589.15 97.49 600.85 98C617.19 98.72 633.58 98.54 649.94 98.74C654.42 97.37 659.18 98.25 663.69 97.06C666.65 96.28 669.64 96.24 672.64 96.84C678.63 98.05 684.5 98.3 690.38 95.94C692.46 95.11 694.99 95.23 697.31 95.24C704.33 95.29 711.34 95.54 718.33 94.5C719.95 94.26 721.66 94.62 723.32 94.62C726.28 94.62 729.24 94.56 732.88 94.51C730.34 92.9167 726.213 92.29 720.5 92.63C720.16 92.11 719.76 91.61 719.5 91.05C719.39 90.82 719.59 90.45 719.66 90.14C730.43 86.81 735.62 85.75 743.96 85.37C747.97 85.19 751.98 85.11 756 85.13C761.7 85.15 767.35 85.07 772.81 83C774.33 82.42 776.08 82.37 777.74 82.28C785.75 81.86 793.76 81.53 801.77 81.12C807.44 80.83 813.11 80.41 818.78 80.13C821.41 80 824.11 80.4 826.67 79.94C830.59 79.25 834.57 79.34 838.48 78.41C842.01 77.57 845.77 77.46 849.42 77.44C866.47 77.33 883.52 77.33 900.57 77.35C910.25 77.36 919.92 76.65 929.6 76.57C933.6 76.54 937.64 77.24 941.56 76.63C945.23 76.06 948.76 75.93 952.39 76.65C953.66 76.9 955.14 76.85 956.36 76.44C959.34 75.45 962.33 75.88 965.31 76C971.64 76.24 977.97 76.89 984.31 76.04C985.62 75.86 986.98 76.06 988.31 76.09C1003.35 76.49 1018.4 76.8 1033.43 77.33C1043.45 77.68 1053.45 78.51 1063.47 78.84C1074.16 79.2 1084.87 79.16 1095.57 79.43C1106.25 79.69 1116.93 80.12 1127.61 80.48C1130.95 80.59 1134.3 80.65 1137.63 80.81C1145.98 81.2 1154.32 81.63 1162.66 82.06C1169.34 82.4 1176.02 82.64 1182.68 83.16C1193.34 83.99 1204 84.88 1214.64 85.98C1221.94 86.73 1229.23 87.73 1236.48 88.9C1239.75 89.43 1242.95 90.52 1246.11 91.58C1246.9 91.85 1247.38 93.01 1248.26 94.08C1247.03 96.35 1245.8 98.63 1244.51 101.01C1241.49 101.87 1238.63 102.69 1235.25 103.66C1234.47 105.02 1233.5 106.71 1232.61 108.25C1221.47 113.94 1209.77 115.68 1197.78 114.12C1195.82 115.5 1194.21 116.65 1192.41 117.92C1188.67 119.1 1184.64 118.57 1180.66 118.4C1177.33 118.26 1174.01 117.67 1170.68 117.44C1164.68 117.03 1158.65 116.15 1153.04 118.82C1143.14 115.11 1133.1 115.09 1123.09 114.88C1110.05 114.62 1097.02 114.53 1083.98 114.23C1073.96 114 1063.94 113.46 1053.92 113.28C1048.94 113.19 1043.92 112.25 1038.96 113.76C1038.11 114.02 1037.04 113.55 1036.07 113.45C1034.1 113.25 1032.12 112.9 1030.15 112.9C1023.16 112.9 1016.16 113.39 1009.17 112.9C1008.27 112.84 1007.33 113.3 1006.09 113.59C1006.4 114.99 1006.67 116.18 1006.93 117.37C1006.49 117.73 1006.07 118.37 1005.6 118.41C1002.94 118.66 1000.27 118.9 997.6 118.91C978.89 119.02 960.17 119.05 941.46 119.15C938.79 119.16 936.11 119.54 933.45 119.44C931.02 119.34 928.99 120.47 926.66 121.11C925.55 120.6 924.35 120.06 922.7 119.31C920.81 119.52 918.5 119.83 916.19 120.02C914.25 120.18 912.44 119.98 910.46 121.08C908.64 122.09 906.06 121.73 903.89 121.97C903.31 121.44 902.82 120.99 902.15 120.37C899.35 119.99 896.44 120.39 893.55 121.19C893.13 122.12 892.73 123.01 892.21 124.19C891.08 124.34 889.78 124.67 888.47 124.67C884.52 124.69 880.56 124.58 876.7 124.52V121.06C874.9 120.93 873.22 120.48 871.65 120.74C865.85 121.71 859.91 120.24 853.99 121.47C855.29 124.23 857.84 122.54 859.4 123.73C859.4 123.97 859.5 124.38 859.38 124.46C859.12 124.63 858.75 124.7 858.42 124.69C844.71 124.27 831.03 125.15 817.33 125.36C808.66 125.49 799.99 126.02 791.32 126.29C779.3 126.67 767.28 126.98 755.25 127.32C745.91 127.58 736.56 127.91 727.22 128.1C715.87 128.32 704.51 128.47 693.16 128.57C677.12 128.71 661.08 128.93 645.04 128.83C625.32 128.71 605.6 128.79 585.89 127.49C574.89 126.77 563.83 127.03 552.79 126.9C529.72 126.62 506.65 126.57 483.59 126.06C463.88 125.62 444.18 124.67 424.47 123.94C417.13 123.67 409.78 123.45 402.45 123.08C395.11 122.71 387.77 122.17 380.44 121.73C377.11 121.53 373.77 121.35 370.43 121.25C357.41 120.86 344.36 121.01 331.41 119.13C329.77 118.89 328.07 118.99 326.4 118.96C314.36 118.74 302.37 117.82 290.35 117.18C269.97 116.08 249.78 113.05 229.42 111.94C222.1 111.54 214.82 110.36 207.52 109.54C206.86 109.47 206.19 109.46 205.52 109.41C190.86 108.44 176.16 107.82 161.54 106.38C149.88 105.23 138.21 104.92 126.52 104.52C109.47 103.94 92.49 104.62 75.49 106.16C62.5 107.34 49.58 108.95 36.67 110.67C29.39 111.64 22.17 113.06 15.21 114.22C13.28 114.16 13.02 112.59 12.04 111.53C10.31 111.07 8.43 110.57 6.63 110.09C5.53 107.2 6.23 103.7 3.2 102.55C2.11 97.73 1.16 93.53 0 88.42C0.23 85.77 1.85 82.37 0.67 78.53C-0.34 75.27 1.08 71.96 2.28 68.87C4.83 66.15 8.32 65.96 11.53 65.36C20.4 63.71 29.28 62.12 38.22 60.88C52.12 58.96 66.06 57.35 79.99 55.64C81.98 55.4 83.99 55.3 85.99 55.28C99.7 55.18 113.4 55.07 127.11 55.09C130.1 55.09 133.09 55.57 136.08 55.83C147.06 56.79 157.91 58.53 168.78 60.43C177.63 61.98 186.75 61.92 195.75 62.62C207.42 63.52 219.1 64.31 230.74 65.47C235.68 65.97 240.53 67.29 245.42 68.28C248.36 68.88 251.25 69.79 254.21 70.16C262.83 71.24 271.47 72.07 280.1 73.09C284.06 73.56 288.09 73.89 291.93 74.9C295.26 75.78 298.52 75.57 301.69 75.5C304.15 76.92 306.38 78.29 309.22 78.36C313.9 78.48 318.56 78.89 323.24 79.08C327.91 79.28 332.59 79.36 336.86 79.48C337.91 80.49 338.63 81.18 339.36 81.87L339.52 81.82L339.61 81.85ZM968.05 112.18C964.77 112.47 963.51 112.41 962.37 112.74C961.42 113.01 959.96 112.5 959.42 114.58C961.76 113.85 964 114.92 968.05 112.18ZM565.78 104.43C565.43 104.82 562.84 101.42 560.81 104.77C563.34 104.6 565.53 104.45 565.78 104.43ZM980.96 114.25H984.7C983.59 112.59 982.28 113.46 980.96 114.25ZM320.97 81.71C319.5 80.33 318.08 80.77 316.64 81.76C318.11 83.18 319.54 83.71 320.97 81.71ZM518.83 103.77C518.83 103.89 518.84 104 518.85 104.12H520.97C520.97 103.96 520.97 103.8 520.96 103.64C520.25 103.68 519.54 103.73 518.83 103.77ZM844.69 122.08C847.43 123.85 847.43 123.84 849.77 121.91C848.02 120.38 846.34 120.71 844.69 122.08Z" fill="var(--fill-0, black)"/>
<path id="Vector_2" d="M339.45 81.91C342.96 80.95 346.43 80.57 350.15 80.98C355.02 81.51 359.98 81.2 365.03 81.26C364.92 82.82 363.87 82.6 363.26 82.58C355.37 82.38 347.49 82.11 339.6 81.86L339.44 81.91H339.45Z" fill="var(--fill-0, black)"/>
<path id="Vector_3" d="M1014.48 115.76C1016.24 115.16 1016.82 114.77 1017.34 114.83C1017.85 114.89 1018.3 115.41 1018.78 115.73C1018.31 116.02 1017.86 116.5 1017.36 116.55C1016.83 116.61 1016.25 116.27 1014.49 115.75L1014.48 115.76Z" fill="var(--fill-0, black)"/>
<path id="Vector_4" d="M271.94 154.54C271.37 154.66 270.72 155 270.28 154.82C269.88 154.66 269.72 153.92 269.46 153.44C270 153.33 270.65 152.98 271.05 153.16C271.47 153.35 271.65 154.06 271.94 154.54Z" fill="var(--fill-0, black)"/>
<path id="Vector_5" d="M73.27 0C73.47 0.54 73.67 1.09 73.86 1.63C73.33 1.82 72.81 2 72.28 2.19C72.11 1.7 71.67 1.05 71.84 0.75C72.06 0.36 72.76 0.24 73.26 0H73.27Z" fill="var(--fill-0, black)"/>
</g>
</svg>
