<svg preserveAspectRatio="none" width="100%" height="100%" overflow="visible" style="display: block;" viewBox="0 0 960.451 587.543" fill="none" xmlns="http://www.w3.org/2000/svg">
<g id="Layer_1-2">
<path id="Vector" d="M219.636 479.143C206.356 478.403 193.176 478.733 180.016 481.143C169.816 483.013 159.426 483.843 149.166 485.423C144.636 486.123 140.226 487.613 135.736 488.613C131.876 489.473 128.406 492.223 123.546 490.903C122.836 489.903 121.316 488.683 121.006 487.193C118.766 476.513 115.866 465.933 115.886 454.863C115.886 450.843 115.376 446.783 114.606 442.833C114.186 440.713 112.716 438.803 111.896 437.153C103.356 434.223 96.8059 439.553 88.8359 440.673C87.5459 439.503 85.9459 438.063 83.6759 436.003C79.3659 437.303 74.5059 438.773 68.6459 440.533C65.7959 439.083 62.2759 437.283 58.7159 435.463C55.3859 435.053 52.0059 434.643 49.0859 434.293C47.9959 432.883 46.8759 432.073 46.6959 431.093C45.1359 422.653 43.3959 414.233 45.5159 405.543C46.0159 403.513 44.8659 401.073 44.4659 398.793C45.5459 397.313 46.5459 395.953 47.6459 394.433C57.2059 391.093 67.9159 390.463 77.2059 383.273C74.7159 382.743 73.0159 381.823 71.6659 382.193C62.7659 384.603 53.9159 387.193 45.1159 389.913C39.0359 391.793 32.9659 393.153 26.5259 393.593C20.2959 394.013 14.1659 396.013 7.44589 397.433C3.40589 396.163 2.03589 392.333 1.79589 388.273C0.865894 372.783 -0.894106 357.293 0.545894 342.913C2.25589 338.073 5.49589 336.533 8.67589 335.283C13.4959 333.383 18.5459 332.053 23.4159 330.273C26.0859 329.293 28.5859 327.863 31.7259 326.373C30.6759 317.723 29.2859 309.273 28.7359 300.763C28.1859 292.183 27.8559 283.513 29.5959 274.533C33.3859 272.053 37.1959 269.573 40.6759 267.293C41.3259 265.833 42.0559 264.823 42.1959 263.753C42.6759 259.753 43.5159 255.683 43.2259 251.713C42.1459 237.183 44.9359 223.053 46.5859 209.353C50.5059 204.313 55.8859 203.663 60.7559 202.123C77.8159 196.733 94.9259 191.523 112.006 186.183C114.176 185.503 116.236 184.463 118.586 183.493C122.216 175.353 122.606 166.663 123.026 158.093C123.506 148.193 125.426 138.673 128.136 130.113C130.716 124.873 134.776 122.483 139.036 120.723C147.026 117.423 155.246 114.683 163.276 111.483C169.116 109.153 175.706 108.543 181.446 103.453C182.706 95.2028 185.736 86.5328 185.746 77.1428C185.756 69.4728 186.206 69.4728 191.406 61.2328C220.916 51.5928 250.766 42.9028 281.486 37.3528C289.996 35.8128 298.376 33.5528 306.826 31.6428C333.306 25.6728 360.226 22.3128 386.976 17.9128C404.616 15.0128 422.196 11.7628 439.796 8.59277C447.206 7.26277 454.666 8.55277 462.196 7.57277C470.656 6.46277 479.226 5.35277 487.956 5.77277C495.956 6.15277 504.036 4.91277 512.086 4.41277C519.526 3.95277 526.816 3.55277 534.226 1.64277C541.896 -0.327232 550.276 0.242768 558.346 0.102768C569.876 -0.0972319 581.416 0.0527681 592.946 0.0727681C609.696 0.102768 626.446 0.112768 643.196 0.222768C645.476 0.232768 647.746 0.772768 650.326 1.10277C651.776 2.78277 653.236 4.47277 654.496 5.93277C654.496 7.54277 654.886 8.87277 654.436 9.78277C651.876 14.9228 649.316 20.0928 646.376 25.0228C642.856 30.9328 639.396 36.7928 637.676 43.8928C639.796 44.7928 641.246 45.9128 642.736 45.9728C658.936 46.6828 675.076 45.5928 691.186 43.9428C713.646 41.6428 736.156 41.8728 758.676 42.2028C759.726 42.2228 760.766 43.0428 761.766 43.4728C763.776 45.2528 763.646 47.5128 763.336 49.8128C763.256 50.3828 763.076 50.9428 762.866 51.4828C757.096 65.8728 751.306 80.2628 745.526 94.6428C745.786 97.9828 748.686 99.2428 750.736 101.233C754.126 102.943 755.676 99.0028 758.916 98.6228C761.296 98.6228 764.246 98.2428 767.036 98.7328C769.766 99.2028 772.336 100.573 774.876 101.503C777.016 100.433 779.026 99.4228 780.996 98.4328C809.166 96.7528 878.586 96.9328 905.086 98.8428C907.106 100.163 909.926 101.993 913.056 104.033C912.876 106.633 913.336 109.143 912.456 111.033C910.526 115.183 907.966 119.053 905.586 122.983C903.516 126.413 901.166 129.693 899.256 133.213C897.936 135.633 895.776 137.873 896.486 141.093C897.526 143.683 900.196 144.493 902.166 144.003C911.276 141.733 920.496 142.433 929.706 142.073C938.326 141.733 946.916 140.683 956.786 139.833C957.986 141.123 959.516 142.783 959.926 143.223C961.356 148.843 959.626 151.913 957.576 154.703C948.686 166.883 942.656 180.703 935.076 193.623C934.216 195.083 933.956 196.893 933.156 199.313C933.816 201.413 934.666 204.113 935.836 207.823C935.226 209.663 934.816 212.663 933.356 215.023C926.376 226.273 919.106 237.343 911.936 248.483C899.286 253.303 885.856 252.513 872.966 253.703C867.679 258.549 864.723 262.433 864.096 265.353C865.046 265.903 865.976 266.873 866.956 266.923C869.826 267.063 872.746 266.543 875.576 266.853C877.746 267.093 879.806 268.223 882.056 269.003C882.056 271.193 882.566 273.093 881.976 274.563C875.556 290.633 869.016 306.653 853.586 316.663C848.566 323.973 841.136 325.933 832.816 326.473C805.746 328.243 778.716 330.643 751.636 331.903C738.806 332.503 726.656 336.123 714.136 337.943C708.926 338.693 704.106 338.883 698.826 338.073C692.726 337.133 686.306 338.283 680.026 338.483C676.516 338.593 673.106 338.263 670.356 335.693C670.916 334.233 671.466 332.793 672.016 331.353C671.136 330.843 670.256 329.913 669.366 329.903C656.666 329.813 644.056 330.213 631.416 332.373C617.796 334.703 603.906 335.343 590.166 337.033C580.456 338.223 570.816 339.933 561.146 341.383C556.586 342.063 552.006 343.223 547.436 343.233C530.586 343.283 514.246 347.053 497.706 349.373C490.296 350.413 482.796 350.753 474.426 351.483C473.336 352.393 471.616 353.833 469.266 355.783C471.676 356.373 473.336 357.273 474.846 357.063C493.126 354.543 511.326 351.283 529.826 350.623C541.906 346.153 555.156 348.653 567.266 344.323C568.326 343.943 569.556 343.943 570.706 343.973C586.996 344.483 602.696 340.713 618.486 337.513C620.726 337.063 623.086 336.973 625.376 337.033C633.516 337.243 641.486 336.323 649.356 334.143C652.086 333.383 655.066 333.173 657.846 335.063V338.333C651.926 340.793 646.086 343.213 639.316 346.023C633.336 346.253 626.416 346.453 619.516 346.803C612.056 347.173 604.376 346.713 597.216 348.423C590.596 350.003 582.966 347.233 577.726 353.033C560.636 353.803 543.766 353.333 529.026 360.453C525.806 359.363 523.646 358.623 521.836 358.013C518.346 358.593 515.946 359.613 517.446 364.213C524.026 364.913 530.856 364.433 537.696 363.973C550.366 363.103 563.026 361.993 575.706 361.513C596.476 360.723 617.266 360.243 638.056 359.833C669.786 359.203 701.526 358.713 733.256 358.223C736.716 358.173 740.196 358.353 743.636 358.723C748.376 359.233 752.456 361.213 756.176 365.723C756.046 367.273 756.456 369.753 755.586 371.653C752.006 379.493 748.026 387.153 743.606 396.093C739.856 398.543 735.076 401.683 730.426 404.723C727.796 404.953 725.506 405.333 723.216 405.313C712.246 405.243 701.526 405.963 690.676 408.543C681.866 410.633 672.276 410.203 663.086 409.763C645.136 408.893 627.336 409.353 609.526 411.843C604.456 412.553 599.156 412.133 594.026 411.623C584.816 410.713 575.726 410.183 566.536 412.213C562.096 413.193 557.346 412.963 552.736 412.993C547.516 413.023 542.406 413.193 537.356 414.883C534.696 415.773 531.576 416.443 528.896 415.943C518.416 414.013 508.316 416.513 498.096 417.873C492.966 418.553 487.846 419.353 482.696 419.713C473.526 420.353 464.226 419.563 455.326 422.833C453.756 423.413 451.896 423.373 450.176 423.333C440.886 423.093 431.796 424.073 423.006 427.243C420.606 428.113 417.586 426.573 415.226 429.373C421.846 429.663 428.126 429.933 434.406 430.213L434.166 429.883C432.286 431.783 430.416 433.673 428.536 435.573C429.236 436.333 429.996 437.793 430.646 437.753C437.526 437.293 444.396 436.683 451.246 435.913C454.666 435.523 458.046 434.143 461.446 434.143C489.166 434.173 516.636 429.103 544.406 430.233C546.706 430.323 549.106 430.473 551.306 429.963C564.406 426.923 577.736 427.913 590.986 427.373C605.956 426.753 620.906 425.363 635.876 424.883C657.226 424.183 678.586 423.913 699.946 423.643C709.176 423.523 718.416 423.923 727.656 423.973C733.516 424.013 739.166 424.793 744.146 427.843C747.426 430.573 747.516 434.073 746.176 437.403C742.296 447.023 738.106 456.513 733.636 466.973C731.356 469.063 728.396 471.773 725.626 474.313C723.606 474.813 721.956 475.453 720.266 475.583C717.396 475.803 714.486 475.983 711.636 475.693C686.846 473.193 662.116 476.523 637.346 476.273C617.296 479.403 597.066 478.663 576.896 479.233C575.826 479.263 574.776 479.963 573.716 480.363C571.986 482.913 573.576 484.393 576.166 486.273C582.916 486.103 590.196 486.433 597.716 484.653C603.586 483.263 610.096 484.573 616.326 484.653C619.126 484.693 621.936 484.653 626.596 484.653C631.026 486.523 638.556 487.243 641.136 496.633C636.776 509.223 629.146 521.563 626.076 535.433C616.696 538.143 608.136 538.203 599.566 538.463C565.496 539.503 531.576 542.283 497.956 548.023C496.396 548.293 494.946 549.243 493.246 549.963C494.796 551.393 495.966 552.473 497.186 553.593C495.046 555.963 491.916 556.153 489.356 555.943C482.816 555.413 476.786 557.283 470.656 558.813C458.896 561.743 447.176 564.833 435.386 567.603C431.486 568.523 427.406 568.673 423.406 569.183C420.556 569.543 417.566 569.493 414.866 570.353C395.536 576.483 375.176 577.423 355.566 582.383C343.386 585.463 330.536 585.863 317.406 587.543C315.906 586.503 314.046 585.213 311.436 583.413C305.866 584.153 299.626 584.993 292.416 585.953C290.076 584.713 287.086 583.123 284.226 581.613C276.976 569.493 274.436 556.783 276.316 543.273C278.356 538.543 282.066 535.853 286.606 534.473C293.766 532.293 300.936 529.973 308.276 528.603C336.056 523.433 363.936 518.763 391.726 513.623C409.166 510.393 426.616 507.133 443.826 501.973C443.246 501.123 443.076 500.653 442.736 500.423C442.286 500.123 441.696 499.853 441.176 499.863C438.876 499.883 436.546 499.863 434.266 500.133C416.506 502.283 398.636 503.813 381.026 506.833C349.786 512.203 318.696 518.463 287.566 524.423C284.766 524.963 282.066 526.053 279.296 526.903C274.096 525.863 269.036 524.853 263.866 523.823C249.456 527.873 235.036 531.923 220.616 535.963C215.526 534.913 210.536 533.893 205.146 532.773C204.196 529.913 202.346 527.143 202.596 524.573C203.756 512.513 196.166 501.023 200.166 488.813C204.616 484.273 210.626 484.063 215.976 482.193C217.356 481.713 218.276 479.923 219.406 478.733C228.276 481.103 236.186 477.453 244.246 474.763C244.576 474.653 244.666 473.823 245.066 472.853C244.356 470.573 243.516 467.923 242.786 465.603C239.406 464.513 236.756 464.193 234.746 466.953C234.946 468.063 235.136 469.153 235.336 470.243C231.946 473.513 227.506 474.403 223.236 475.783C221.846 476.233 220.856 477.953 219.686 479.093L219.636 479.143ZM634.146 213.503C638.096 212.063 642.706 212.953 646.436 210.153C643.166 207.983 639.956 208.763 636.426 209.583C635.826 210.843 635.146 212.283 634.466 213.733C626.816 211.483 626.796 211.613 621.466 213.983C625.796 216.623 629.916 213.593 634.146 213.503ZM506.186 230.623C510.446 230.133 514.716 229.603 518.976 229.163C522.326 228.813 525.326 227.883 527.216 224.823C533.763 225.656 538.516 225.209 541.476 223.483C533.786 222.663 533.786 222.633 527.626 225.253C521.576 225.683 515.516 226.103 509.396 226.543C508.376 227.963 507.426 229.293 506.476 230.613C501.386 230.253 496.296 229.843 491.196 229.583C490.126 229.523 489.026 229.983 487.976 230.293C487.886 230.323 487.996 231.023 488.026 231.583C494.166 233.303 500.096 230.163 506.186 230.633V230.623ZM402.556 176.713C391.746 176.443 381.046 176.833 370.466 179.723C365.586 181.053 360.326 180.913 355.256 181.633C354.396 181.753 353.666 182.823 352.876 183.453C353.296 183.803 353.716 184.443 354.126 184.443C368.376 184.403 382.216 180.623 396.386 179.723C398.386 179.593 400.276 177.583 402.216 176.443C408.836 177.453 415.496 178.033 422.096 176.563C424.156 176.103 426.026 174.783 427.976 173.853C450.006 175.343 471.546 169.783 493.446 169.343C494.566 169.323 495.826 169.043 496.736 168.443C497.506 167.933 497.856 166.793 498.356 166.003C497.976 165.593 497.566 164.823 497.236 164.863C474.906 167.043 452.576 169.283 430.246 171.523C429.566 172.393 428.896 173.263 428.216 174.133C424.936 173.873 421.636 173.703 418.366 173.353C412.706 172.743 407.426 173.703 402.556 176.733V176.713ZM451.676 357.493C448.816 357.323 445.966 357.083 443.106 356.983C429.846 356.543 417.206 361.383 403.986 361.683C400.346 361.763 396.346 363.423 393.506 366.473C395.436 368.253 397.696 368.193 399.976 367.683C405.006 366.563 409.976 364.993 415.066 364.273C425.266 362.833 435.546 361.983 445.746 360.513C447.726 360.223 449.456 358.233 451.296 357.023C452.336 357.183 453.406 357.573 454.416 357.453C455.946 357.273 456.306 356.373 455.356 355.463C455.046 355.173 454.166 355.073 453.846 355.303C453.036 355.903 452.396 356.733 451.686 357.473L451.676 357.493ZM408.916 244.833C413.396 243.983 417.846 242.933 422.366 242.313C431.986 240.993 441.826 240.653 451.226 238.443C456.876 237.113 462.386 236.403 468.076 236.073C469.406 235.993 471.296 235.893 470.786 233.103C450.146 231.823 430.576 238.093 410.976 241.283C410.186 242.963 409.706 243.983 409.216 245.013C400.986 242.103 392.746 242.003 382.956 244.783C385.796 245.933 387.296 247.113 388.696 247.003C395.446 246.473 402.176 245.603 408.916 244.853V244.833ZM445.736 296.403C448.286 299.793 451.376 299.503 453.866 298.773C465.016 295.523 476.516 294.963 487.946 293.733C495.376 292.933 502.776 291.833 510.176 290.783C531.266 287.783 552.306 284.353 573.456 281.813C599.196 278.723 625.016 276.323 650.816 273.713C661.106 272.673 671.416 271.873 681.716 270.973C684.396 270.743 684.796 270.103 684.296 266.063C672.926 266.593 661.436 266.673 650.046 267.763C628.916 269.783 607.826 272.313 586.736 274.793C574.726 276.203 562.766 278.973 550.746 279.253C537.916 279.543 525.906 284.273 513.196 284.463C503.296 288.123 493.006 288.633 483.866 287.973C478.776 289.413 474.966 290.753 471.036 291.523C466.536 292.413 461.896 292.613 457.376 293.443C453.556 294.153 449.836 295.333 445.736 296.403ZM184.486 415.943C186.466 417.473 186.956 418.173 187.376 418.133C195.996 417.453 204.666 417.113 213.206 415.863C241.176 411.773 268.436 404.233 296.086 398.543C298.136 398.123 299.906 396.393 302.396 394.933C300.446 394.413 299.316 393.713 298.396 393.923C278.176 398.563 257.516 400.803 237.206 405.003C235.036 405.453 232.666 404.933 230.396 404.843C228.126 404.753 225.776 404.203 223.606 404.623C210.726 407.093 197.616 408.843 184.486 415.963V415.943ZM432.736 299.443C431.706 298.853 430.726 297.773 429.786 297.823C421.796 298.203 413.406 297.433 405.936 299.673C397.486 302.213 388.856 301.663 380.436 303.723C369.346 306.433 357.916 307.703 346.656 309.723C346.266 309.793 346.116 311.263 345.796 312.283C349.946 312.283 353.886 312.343 357.826 312.263C360.126 312.213 362.436 312.073 364.706 311.723C375.506 310.043 386.246 307.783 397.106 306.673C408.546 305.513 419.636 302.153 431.166 301.763C431.716 301.743 432.216 300.263 432.736 299.463V299.443ZM533.986 490.043C539.036 489.593 544.066 489.133 548.906 488.703C550.076 486.703 550.886 485.303 551.636 484.023C549.136 480.223 545.466 480.783 542.266 481.263C532.106 482.783 521.906 483.043 511.676 483.123C510.016 483.133 509.786 484.293 511.696 485.633C518.826 485.723 526.936 485.003 533.986 490.053V490.043ZM291.796 322.033C300.736 320.663 309.706 319.413 318.616 317.873C323.016 317.113 327.326 315.813 332.306 314.603C328.336 311.963 324.796 312.563 321.566 313.373C311.696 315.853 301.196 315.703 291.796 322.033ZM732.346 264.303C705.746 262.883 704.586 262.973 695.126 267.133C696.056 267.543 696.996 268.333 697.926 268.313C709.226 268.063 720.516 267.703 731.706 267.373C731.976 266.063 732.166 265.183 732.346 264.303ZM512.086 163.923C532.436 167.493 541.356 166.383 551.666 160.393C546.096 160.233 541.516 159.653 537.046 160.103C533.116 160.493 529.366 162.373 525.436 162.973C521.046 163.653 516.546 163.633 512.086 163.923ZM578.416 159.443C583.946 160.103 585.626 160.633 587.216 160.433C596.886 159.223 606.576 158.853 616.306 159.053C616.806 159.063 617.336 157.843 618.386 156.523C612.126 156.833 606.536 157.323 600.936 157.333C594.766 157.343 588.536 155.523 578.416 159.443ZM657.176 209.983C667.486 209.263 676.466 208.653 685.446 207.983C687.676 207.813 689.916 207.573 692.076 207.043C692.506 206.943 692.586 205.413 692.826 204.533C690.616 203.093 688.556 204.663 686.426 204.833C683.616 205.053 680.806 205.213 677.996 205.303C675.736 205.373 673.466 205.163 671.206 205.313C668.386 205.503 665.586 205.913 662.776 206.263C660.656 206.523 658.116 206.013 657.176 209.973V209.983ZM713.906 326.283C723.246 326.203 731.236 326.253 739.226 326.033C743.166 325.923 747.276 327.213 751.036 324.963C750.746 324.553 750.446 324.143 749.716 323.123C738.706 323.463 727.256 323.813 715.816 324.223C715.446 324.233 715.106 324.963 713.906 326.293V326.283ZM746.926 266.273C756.046 264.923 764.796 263.623 773.556 262.323C773.486 261.913 773.406 261.503 773.156 260.113C764.506 262.863 755.596 258.333 747.156 261.143C744.646 263.393 744.946 265.063 746.926 266.263V266.273ZM279.326 321.833C271.026 322.583 264.916 323.003 258.866 323.823C257.876 323.953 257.126 325.883 255.506 327.943C262.896 327.173 268.956 326.553 275.006 325.893C275.536 325.833 276.096 325.553 276.536 325.233C276.946 324.933 277.216 324.443 279.326 321.843V321.833ZM659.756 152.993C649.736 153.433 643.076 153.723 636.416 154.073C636.146 154.083 635.916 154.763 635.666 155.133C636.126 155.443 636.576 156.033 637.036 156.033C643.206 156.033 649.386 155.983 655.556 155.873C656.016 155.873 656.456 155.283 659.756 152.993ZM730.376 203.383C721.726 199.153 714.726 202.853 707.616 203.143C714.676 204.573 721.716 205.923 730.376 203.383ZM371.006 248.153C360.156 246.203 359.066 246.343 352.606 250.573C355.059 251.799 361.193 250.993 371.006 248.153ZM402.926 431.923C395.306 430.776 389.916 431.523 386.756 434.163C387.306 435.573 388.106 435.573 389.506 435.023C391.036 434.423 392.776 434.313 394.436 434.103C395.546 433.953 396.736 434.183 397.806 433.903C399.276 433.523 400.666 432.823 402.926 431.923ZM556.936 221.103C558.776 223.263 561.156 222.103 563.236 221.923C565.956 221.683 569.006 222.763 571.466 220.263C566.916 218.683 562.386 219.363 557.886 219.823C557.536 219.863 557.266 220.653 556.946 221.113L556.936 221.103ZM681.686 328.103C688.356 330.573 693.376 329.443 698.326 329.353C699.086 329.343 699.826 328.443 702.626 326.613C695.116 327.143 689.716 325.913 681.686 328.103ZM327.296 190.093C331.526 188.863 335.766 187.633 339.986 186.353C339.996 186.353 339.806 185.643 339.706 185.263C333.566 185.396 329.433 187.006 327.306 190.093H327.296ZM776.796 200.923C768.676 198.903 762.619 198.673 758.626 200.233C759.086 200.533 759.536 201.093 760.006 201.103C762.846 201.193 765.696 201.193 768.546 201.163C771.296 201.123 774.046 201.003 776.796 200.923ZM485.176 487.003C481.436 486.713 479.336 486.373 477.256 486.443C474.866 486.533 472.236 485.993 470.046 488.093C474.756 489.313 479.166 489.853 485.176 487.003ZM802.626 196.743C799.116 196.613 795.536 193.473 792.626 197.653C796.196 197.323 799.406 197.033 802.626 196.743ZM328.596 255.253C322.726 254.443 322.726 254.393 317.196 256.233C321.016 255.953 324.986 257.823 328.596 255.253ZM674.176 151.183C675.116 152.373 675.866 153.753 676.996 154.623C677.726 155.183 679.026 155.013 680.536 155.243C681.796 153.583 685.576 154.443 685.546 150.083C681.836 149.703 678.186 148.323 674.166 151.173L674.176 151.183ZM796.226 258.683C798.966 261.563 801.566 261.053 804.386 258.513C801.406 257.213 798.756 256.323 796.226 258.683ZM368.456 443.053C365.496 442.603 363.176 443.423 361.906 446.363C364.476 448.453 366.886 447.813 369.246 445.983C368.986 445.013 368.716 444.043 368.456 443.063V443.053ZM360.916 369.133C366.336 371.413 369.516 371.643 372.686 370.803C374.206 370.403 374.276 369.343 372.266 367.733C369.886 368.023 366.746 368.413 360.916 369.133ZM306.566 258.923C303.866 256.373 301.436 256.133 299.146 259.423C301.756 261.173 304.166 261.013 306.566 258.923ZM347.366 373.343C344.976 372.753 344.016 372.293 343.096 372.353C342.416 372.403 341.786 373.143 341.136 373.573C341.576 373.783 342.026 374.193 342.446 374.153C343.646 374.053 344.836 373.773 347.366 373.343ZM449.926 369.993C451.516 370.653 452.526 371.163 453.586 371.473C454.086 371.613 454.836 371.533 455.226 371.233C456.016 370.643 457.006 369.933 457.266 369.073C457.706 367.653 455.466 366.073 453.736 366.823C452.356 367.413 451.316 368.783 449.916 369.983L449.926 369.993ZM476.286 366.433C481.566 369.023 483.326 365.603 485.646 363.353C481.926 360.763 479.546 363.203 476.286 366.433ZM293.896 192.743C296.656 193.649 299.519 193.716 302.486 192.943C299.726 191.053 299.726 191.103 293.896 192.743ZM594.356 216.893C591.589 216.353 588.696 216.523 585.676 217.403C588.989 218.003 591.883 217.833 594.356 216.893ZM444.766 490.223C444.236 490.393 443.696 490.553 443.166 490.723C443.826 491.163 444.436 491.753 445.166 492.003C445.596 492.153 446.546 491.893 446.666 491.583C447.126 490.463 446.376 489.963 444.766 490.223ZM724.306 150.873C722.406 150.073 720.536 148.833 719.216 151.653C721.126 152.573 722.936 153.483 724.306 150.873ZM282.746 262.393C283.916 262.663 284.896 262.983 285.886 263.073C286.366 263.123 286.886 262.753 287.386 262.583C286.696 262.173 286.016 261.463 285.326 261.443C284.526 261.423 283.706 262.013 282.746 262.393ZM777.716 320.743C775.776 320.783 773.656 318.143 771.746 321.863C773.879 322.396 775.869 322.023 777.716 320.743ZM864.216 193.053L862.906 192.373L862.676 193.343L864.216 193.053ZM282.906 383.443C281.019 382.629 279.103 382.703 277.156 383.663C279.129 384.476 281.046 384.403 282.906 383.443ZM310.666 449.943L311.856 449.653L310.896 449.213L310.656 449.953L310.666 449.943ZM286.436 456.593C286.166 456.293 285.896 455.723 285.556 455.683C285.136 455.633 284.666 456.013 284.226 456.203C284.566 456.503 284.876 456.983 285.246 457.033C285.646 457.083 286.106 456.733 286.436 456.593ZM260.496 463.833C261.136 464.423 261.786 465.023 262.426 465.623C262.706 465.243 263.296 464.613 263.226 464.523C262.706 463.893 262.056 463.353 261.396 462.873C261.356 462.843 260.816 463.503 260.496 463.843V463.833ZM407.866 493.753C407.456 493.993 406.976 494.173 406.696 494.523C406.606 494.633 407.076 495.493 407.236 495.473C408.136 495.373 409.016 495.123 409.906 494.923C409.716 494.573 409.596 494.053 409.306 493.913C408.896 493.713 408.356 493.793 407.866 493.753ZM463.456 498.353C462.556 497.923 461.696 497.253 460.776 497.173C460.296 497.133 459.726 498.143 459.196 498.683C459.656 498.903 460.156 499.363 460.566 499.293C461.546 499.113 462.486 498.683 463.446 498.353H463.456ZM566.596 162.123C566.546 161.713 566.596 160.993 566.446 160.943C565.556 160.673 564.466 160.193 563.736 160.493C562.516 161.003 562.606 162.213 563.906 162.643C564.666 162.893 565.686 162.323 566.596 162.123Z" fill="var(--fill-0, black)"/>
<path id="Vector_2" d="M499.576 422.903C498.236 423.973 496.906 425.033 495.446 426.193C485.716 426.803 476.066 427.313 466.446 430.003C458.836 432.133 450.456 431.473 441.046 432.143C439.606 431.673 436.866 430.793 434.136 429.903L434.376 430.233C436.436 427.953 439.146 427.443 442.066 427.173C450.576 426.373 459.056 425.103 467.576 424.553C478.366 423.863 489.186 423.693 499.986 423.293L499.576 422.893V422.903Z" fill="var(--fill-0, black)"/>
<path id="Vector_3" d="M499.986 423.303C500.906 422.633 501.776 421.493 502.766 421.373C508.466 420.713 514.176 420.193 519.906 419.833C522.096 419.693 524.316 420.123 527.316 420.353C524.069 422.653 514.823 423.503 499.576 422.903L499.986 423.303Z" fill="var(--fill-0, black)"/>
</g>
</svg>
