<svg preserveAspectRatio="none" width="100%" height="100%" overflow="visible" style="display: block;" viewBox="0 0 659.414 69.5398" fill="none" xmlns="http://www.w3.org/2000/svg">
<g id="Layer_1-2">
<path id="Vector" d="M66.7518 1.01291C85.2418 -1.61709 104.692 1.57291 124.242 2.72291C149.192 4.18291 174.192 4.99291 199.192 5.26291C261.102 5.92291 323.022 6.49291 384.942 6.33291C420.692 6.23291 456.422 8.36291 492.162 6.80291C505.212 6.23291 518.292 5.83291 531.302 4.69291C563.892 1.83291 596.462 0.0329137 629.172 2.72291C636.402 3.32291 643.722 3.60291 651.052 2.77291C657.492 2.04291 660.352 5.64291 658.152 11.9129C657.012 15.1529 657.142 17.7229 658.302 20.6929C659.872 24.7029 659.382 28.8029 659.182 33.0629C658.772 41.7829 656.082 50.3229 657.302 59.1529C657.632 61.5129 656.522 63.6229 655.132 65.5429C653.892 67.2629 652.192 68.3329 650.202 67.7429C635.582 63.3429 620.542 64.3329 605.592 64.0929C585.602 63.7729 565.652 64.5929 545.712 65.7729C530.752 66.6629 515.802 67.8229 500.832 68.7229C476.242 70.1929 451.632 69.3529 427.042 68.7229C419.492 68.5229 411.582 70.3629 404.332 66.4629C404.052 66.3129 403.592 66.3129 403.272 66.4129C388.582 71.1429 373.482 69.0429 358.622 68.3929C344.022 67.7529 329.482 68.4729 314.922 68.4329C293.382 68.3729 271.852 68.3929 250.312 68.4429C213.402 68.5329 176.532 67.0429 139.662 65.6029C127.752 65.1329 115.852 64.8829 103.972 63.6629C96.3418 62.8829 88.6118 62.7729 80.9318 62.7729C60.9418 62.7729 40.9518 62.9229 20.9718 61.7529C17.9418 61.5729 14.8718 62.0329 11.8218 62.2829C6.27177 62.7329 3.18177 60.2229 2.35177 54.7929C1.84177 51.4229 3.27177 48.2729 2.13177 44.6029C0.721772 40.0229 0.551772 34.8429 0.121772 30.0529C-0.508228 23.0029 1.46177 15.7029 2.47177 8.53291C2.75177 6.52291 4.24177 5.16291 6.15177 4.43291C11.1818 2.52291 16.1818 0.862914 21.7418 0.952914C36.3518 1.16291 50.9718 1.02291 66.7518 1.02291V1.01291ZM190.912 52.5529C189.812 52.5529 188.672 52.4029 187.612 52.6129C187.102 52.7129 186.372 53.5029 186.382 53.9729C186.382 54.5029 187.092 55.4429 187.532 55.4629C189.342 55.5429 191.172 55.4529 192.952 55.1629C193.372 55.0929 193.672 54.0429 193.922 53.3929C193.962 53.2929 193.422 52.8329 193.102 52.7729C192.392 52.6229 191.642 52.6129 190.912 52.5429V52.5529ZM435.002 19.6529C431.372 18.3129 427.652 16.6229 423.382 19.0829C427.762 19.2929 431.382 19.4729 435.002 19.6529ZM249.992 54.9229C248.332 55.0129 247.442 56.2029 246.842 57.4929C246.672 57.8529 247.282 59.0029 247.752 59.1629C249.462 59.7529 251.572 58.0229 251.362 56.2029C251.302 55.7329 250.472 55.3529 250.002 54.9229H249.992ZM219.742 52.4129C219.242 52.7529 218.332 53.0829 218.312 53.4429C218.252 54.8229 218.362 56.3629 220.102 56.7129C220.522 56.7929 221.422 56.1129 221.562 55.6229C222.022 54.0529 221.392 52.8929 219.742 52.4029V52.4129ZM318.952 59.8029C319.522 59.0129 320.092 58.2029 320.672 57.3929C320.022 57.1629 319.362 56.7029 318.732 56.7429C317.672 56.8229 316.412 57.1529 317.082 58.6729C317.292 59.1529 318.162 59.3429 318.942 59.7929L318.952 59.8029ZM449.602 18.1429C448.952 18.1829 448.292 18.2229 447.642 18.2729C447.902 18.4429 448.152 18.6929 448.432 18.7729C448.742 18.8529 449.112 18.8229 449.432 18.7429C449.532 18.7129 449.552 18.3529 449.602 18.1529V18.1429ZM238.462 53.9529C238.392 53.0229 237.912 52.5529 237.072 52.7329C236.212 52.9129 235.902 53.5629 236.232 54.3929C236.482 55.0229 236.872 56.1029 237.202 56.1029C238.612 56.1029 238.232 54.7829 238.462 53.9629V53.9529ZM615.922 13.5229L616.062 14.0029L616.752 13.7529L615.922 13.5229ZM625.732 14.1029C626.042 13.3929 625.672 13.1629 624.652 13.4629C624.602 13.4729 624.652 14.0629 624.692 14.0729C625.032 14.1329 625.392 14.1029 625.732 14.1029ZM407.132 18.0529H405.062C405.062 18.2929 405.052 18.7429 405.062 18.7529C405.752 18.8029 406.442 18.8129 407.132 18.8229V18.0529ZM502.912 18.5829L502.762 18.1429L502.152 18.4029L502.912 18.5729V18.5829ZM295.622 52.9029C295.282 52.9029 294.942 52.9029 294.602 52.9029C294.622 53.1929 294.552 53.6929 294.682 53.7429C294.962 53.8629 295.332 53.7629 295.662 53.7429C295.652 53.4529 295.632 53.1629 295.622 52.8929V52.9029ZM310.022 52.9629C309.732 52.8829 309.402 52.6629 309.152 52.7329C308.172 52.9929 308.122 53.4729 309.022 53.9229C309.242 54.0329 309.692 53.9429 309.892 53.7729C310.052 53.6429 309.992 53.2429 310.032 52.9629H310.022ZM606.172 13.3529L606.042 14.0829L606.932 13.8329L606.172 13.3529ZM546.402 16.1429L545.552 15.6529L545.422 16.3929L546.402 16.1429ZM211.092 53.3629L211.182 52.6529L210.202 52.9129L211.092 53.3529V53.3629ZM318.542 52.8629C318.602 53.1029 318.582 53.4629 318.732 53.5629C318.972 53.7229 319.412 53.8729 319.622 53.7529C320.412 53.3329 320.332 52.8529 319.402 52.6029C319.152 52.5329 318.832 52.7729 318.542 52.8629ZM418.722 52.6429C418.462 52.8029 418.212 52.9529 417.952 53.1129C418.102 53.3429 418.252 53.5729 418.402 53.8029C418.782 53.5229 419.162 53.2429 419.542 52.9629C419.272 52.8529 418.992 52.7529 418.722 52.6429Z" fill="var(--fill-0, black)"/>
</g>
</svg>
