<svg preserveAspectRatio="none" width="100%" height="100%" overflow="visible" style="display: block;" viewBox="0 0 644.76 546.948" fill="none" xmlns="http://www.w3.org/2000/svg">
<g id="Layer_1-2">
<path id="Vector" d="M343.55 325.36C344.1 327.75 343.61 329.87 342.09 331.82C338.58 336.34 335.03 340.85 334.82 346.91C335.9 347.57 336.83 348.14 338.39 349.09C346.44 344.26 354.93 339.44 363.14 334.19C402.55 308.99 442.04 283.9 481.2 258.31C511.17 238.73 541.3 219.36 570.21 198.19C580.5 190.66 590.42 182.84 599.02 173.34C606.37 165.22 606.88 165.27 619.49 160.18C620.39 161.28 621.68 162.48 622.5 163.95C627.55 172.92 631.78 182.32 636.63 191.4C635.71 195.45 638.83 197.49 640.69 200.33C642.52 203.14 643.29 206.65 644.76 210.49C640.65 217.34 634.84 222.49 627.32 226.03C612.61 232.96 600.13 243.26 587.27 252.98C584.12 260.33 576.96 263.6 571.31 268.33C566.04 272.75 560.19 276.47 555.04 280.18C550.8 280.49 547.38 280.75 543.43 281.04C542.83 282.26 542.12 283.71 541.17 285.64C539.47 285.41 537.42 285.12 535.37 284.84C529.69 291.83 529.59 291.79 528.98 299.84C533.78 298.11 536.93 293.82 542.5 293C547.4 292.28 551.89 288.8 556.55 286.51C561.21 284.22 565.87 281.91 570.51 279.58C575.15 277.25 579.76 274.87 584.39 272.51C588.99 270.17 593.6 267.83 598.68 265.25C601.52 267.67 604.73 269.42 606.51 272.12C612.84 281.74 618.62 291.72 624.73 301.49C626.55 304.4 628.77 307.05 630.84 309.79C633.62 313.45 636.44 317.09 638.95 320.36V329.93C628.94 335.81 619.19 341.94 612.86 351.52C600.88 355.1 591.75 361.94 583.03 369.72C577.07 375.03 570.1 379.21 562.67 384.55C560.61 387.36 562.67 391.43 562.53 395.35C566.45 404.24 574.72 410.47 578.21 419.92C569.82 426.69 560.69 431.87 554.7 440.51C553.79 441.82 553.69 443.68 553.16 445.44C558.31 449.07 564.94 444.1 569.67 448.91C573.25 454.57 571.29 461.04 571.22 466.45C572.85 469.22 574.02 471.2 575.1 473.03C573.82 478.81 567.34 477.87 564.33 482.28C564.96 483.75 565.76 485.6 566.59 487.53C561.34 491.86 556.08 496.2 550.47 500.83C553.32 501.81 555.9 502.71 558.97 503.77C558.2 505.35 557.82 507.01 556.8 508.06C553.21 511.78 549.82 515.95 545.56 518.71C540.06 522.28 535.84 526.73 533.37 531.34C529.56 533.75 526.7 533.37 524.02 532.14C520.35 530.46 516.82 528.48 513.46 526.75C503.61 517.62 494.36 508.04 481.73 504.14C479.94 504.8 478.8 505.07 477.82 505.62C476.32 506.45 474.92 507.47 472.87 508.8H459.39C453.36 506.15 447.23 503.07 444.52 495.99C439.7 494.17 434.88 492.36 430.32 490.64C427.55 487.18 425.03 484.04 422.41 480.77C419.68 479.15 416.81 477.45 413.83 475.68C414.62 470.01 415.32 464.97 416.02 459.87C418.34 458.14 420.61 456.46 423.39 454.4C423.61 452.6 423.87 450.43 424.12 448.35C422.55 447.87 421.32 447.03 420.52 447.33C414.36 449.64 414.09 450.8 408.44 458.94C409.01 461.1 409.58 463.26 410.14 465.38C409.33 470.28 406.33 473.99 402.97 477.01C394.37 484.77 386.97 493.63 379.03 501.99C375.47 505.73 371.57 509.15 368.04 512.51C364 512.93 360.56 513.3 358.48 513.51C349.32 512.78 345.42 506.69 341.45 501.8C334.14 499.28 328.21 496.04 325.01 489.12C321.44 487.5 317.79 485.83 314.31 484.25C313.27 482.52 312.4 481.07 311.26 479.18C319.47 463.31 330.96 449.59 341.59 435.24C351.8 421.45 363.37 408.68 373.19 394.55C371.82 393.61 371.17 392.94 370.95 393.06C356.69 400.63 343.12 409.24 328.69 421.54C319.14 424.54 308.35 430.78 298.23 438.76C284.24 449.79 269.46 459.79 253.76 468.45C244.74 473.43 236.69 480.23 228.39 486.45C221 491.98 213.86 497.85 206.18 503.9C202.58 504.55 198.66 505.26 193.93 506.11C191.52 508.36 188.61 511.09 185.85 513.68C186 516.96 186.12 519.79 186.24 522.42C185.42 523.55 184.75 524.48 183.95 525.6C181.44 526.24 178.76 526.93 176.12 527.61C176.22 529.37 176.31 530.94 176.42 532.91C174.44 533.58 172.37 534.28 169.57 535.23C167.64 537.98 165.36 541.23 163.41 544.01C156.8 547.69 150.84 548.22 144.84 543.83C142.75 540.7 140.56 537.42 139.09 535.22C134.06 532.16 128.48 535.86 125.39 530.9C125.39 529.72 125.07 528.46 125.45 527.49C126.51 524.82 127.51 522.02 129.15 519.71C143.56 499.49 158.03 479.3 175.15 461.2C196.98 438.12 219.12 415.36 242.25 393.55C266.63 370.56 290.26 346.79 314.18 323.32C315.81 321.72 317.1 319.76 318.39 318.16C318.1 313.38 314.55 311.01 312.14 307.94C309.34 306.37 306.42 306.81 303.83 308.11C298.77 310.66 294.69 314.97 288.5 315.51C286.49 315.69 284.53 317.75 282.78 319.23C279.7 321.83 276.95 324.86 273.76 327.3C271.13 329.31 268.04 330.74 265.21 332.4C266.99 336.62 270.89 332.25 272.68 335.12C273.07 336.13 273.47 337.18 274.03 338.65C271.12 343.8 266.09 346.29 260.45 348.45C257.54 346.67 254.68 344.91 251.48 342.95C216.53 363.48 184.42 387.77 153.61 414.99C151.22 423.75 145.34 430.68 137.82 436.98C135.13 436.98 132.31 437.05 129.5 436.96C127.21 436.89 124.92 436.63 123.11 436.49C121.69 435.6 120.41 435.21 119.8 434.35C112.4 423.91 103.08 415.53 91.77 408.45C91.35 404.73 90.91 400.8 90.64 398.44C92.03 391.2 97.11 387.23 97.39 381.26C90.16 383.18 89.29 383.69 79.41 392.72C73.88 397.78 68.47 402.97 62.93 408.17C59.87 408.4 57.06 408.61 54.99 408.76C47.86 405.61 43.22 400.32 36.98 397.18C30.98 394.16 25.71 389.34 20.82 384.59C15.85 379.76 11.22 374.67 4.45 371.01C3.08 366.47 1.6 361.56 0 356.27C2.02 351.6 4.07 346.87 6.36 341.58C13.86 335.04 21.46 327.93 29.59 321.49C35.62 316.72 40.34 311.14 43.9 304.63C41 298.12 34.78 287.95 30.72 285.06C24.44 280.58 21.28 273.59 16.43 268C11.3 262.09 8.49 254.16 4.42 246.66C5.76 243.08 7.16 239.34 8.58 235.56C24.25 222.59 39.82 209.71 55.38 196.83C74.06 181.36 92.49 165.57 111.49 150.49C127.78 137.57 144.72 125.48 161.36 113C171.05 105.74 180.38 98.06 189.5 90.07C198.61 82.09 208.51 75.11 219.73 70.1C228.14 66.34 236.22 61.85 245.92 56.94C251.14 56.85 257.84 55.81 263.28 50.69C265.01 49.06 267.19 48.27 269.47 50.03C269.49 54.79 264.78 56.29 262.81 59.7C263.73 59.99 264.89 60.78 265.5 60.48C280.06 53.24 293.11 43.74 305.28 33.06C312.26 26.93 319.34 21.11 330.53 18.17C335.15 12.92 340.86 6.43 346.53 0C353.57 1.23 359.78 2.31 366.49 3.47C371.92 7.03 377.71 10.82 383.46 14.58C386.34 18.98 389.14 23.27 392.27 28.04C384.22 36.96 376.86 45.79 368.78 53.9C359.41 63.3 349.36 72.03 339.7 81.14C332.14 88.27 324.5 95.33 317.3 102.8C302.48 118.19 287.84 133.75 273.32 149.42C269.02 154.06 265.36 159.3 261.53 164.36C260.98 165.09 261.13 166.36 260.84 168.02C262.58 167.5 264.18 167.33 265.46 166.6C285.53 155.16 305.49 143.54 325.6 132.17C350.72 117.97 375.96 103.97 401.12 89.85C418.75 79.96 436.43 70.16 453.92 60.01C462.92 54.79 471.23 48.6 477.97 40.41C480.82 36.94 484.81 34.41 487.46 32.15C493.33 31.47 496.78 33.8 499.05 37.2C503.52 43.9 507.46 50.95 511.56 57.9C512.14 58.88 512.26 60.11 512.76 61.15C514.27 64.26 515.28 67.85 517.52 70.32C526.16 79.87 528.46 93.22 536.43 102.15C540.25 104.07 542.81 102.94 545.33 101.33C555.17 95.01 563.12 86.65 570.66 77.86C572.53 75.68 574.18 73.31 576.22 70.66C580.03 68.73 584.1 66.66 588.57 64.39C590.64 65.68 593.1 66.44 594.31 68.1C599.04 74.59 603.8 81.12 607.73 88.1C610.47 92.96 611.87 98.58 614.12 104.53C612.23 108.73 610.13 113.39 608.21 117.65C608.63 118.7 608.77 119.55 609.01 119.58C612.2 119.97 616 118.39 618.45 123.55C617.83 125.99 617 129.27 616.35 131.86C609.49 138.32 603.2 144.25 598.4 148.77C596.92 153.82 596.12 156.55 595.35 159.18C594.52 160.15 593.86 161.12 593 161.88C582.97 170.74 571.21 176.97 559.78 183.7C553.82 187.2 547.56 190.23 541.8 194.02C532.61 200.06 522.95 205.12 512.93 209.63C507.69 211.99 502.62 214.83 497.75 217.89C493.38 220.63 489.74 224.51 484.21 225.25C482.64 225.46 481.05 226.7 479.78 227.81C475.37 231.65 470.75 234.7 464.79 235.95C461.63 236.61 458.88 239.21 455.87 240.98C453.73 239.95 451.7 238.98 449.19 237.77C445.41 239.63 441.32 241.64 437.47 243.54C436.46 245.29 435.62 246.76 434.66 248.43C432.15 249.34 429.47 250.31 427.37 251.07C408.36 267.75 391.93 286.37 372.13 301.77C370.32 306.38 368.44 311.19 367.06 314.69C363.6 318.99 359.82 318.03 356.53 318.72C351.51 320.16 348.64 325.7 342.94 325.85C351.59 313.03 362.11 302.01 374.55 293.38C374.41 289.98 379.49 286.95 374.23 284.31C368.8 286.9 366.7 292.78 362.25 296.15C351.27 304.48 343.48 315.92 333.55 325.27C333.15 325.64 333.91 327.23 334.12 328.27C337.97 329.62 340.29 326.05 343.49 325.35L343.55 325.36ZM260.89 398.54C265.19 398.39 265.98 394.16 268.54 391.97C269.45 389.85 273.74 389.98 272.3 385.86C268.65 386.94 269.43 389.97 269.03 392.36C267.04 392.78 264.92 392.9 263.1 393.69C260.91 394.64 260.5 396.69 261.23 398.92C258.99 398.23 256.97 398.17 255.82 400.77C258.61 402.42 259.75 400.46 260.89 398.52V398.54ZM490.95 271.63C497.24 271.84 500.37 269.9 501.21 265.63C501.26 265.36 500.46 264.91 500.05 264.55C499.05 264.94 497.86 265.11 497.09 265.77C495.07 267.5 493.23 269.43 490.95 271.64V271.63ZM466.98 286.82C473.65 286.99 475.14 285.92 475.2 281.3C470.89 280.72 468.23 282.45 466.98 286.82ZM288.73 375.53C288.27 374.25 287.74 372.79 286.96 370.6C284.74 372.24 282.74 373.35 281.27 374.93C280.2 376.08 279.82 377.87 279.11 379.41C282.77 380.377 285.977 379.08 288.73 375.52V375.53ZM319.6 347.83C312.51 344.33 312.46 344.31 306.58 351.32C310.93 353.2 310.97 353.28 319.6 347.83ZM383.85 483.33C384.85 482.96 385.97 482.8 386.77 482.2C388.53 480.89 390.28 479.37 387.18 477.58C384.3 478.54 381.87 479.67 383.85 483.32V483.33ZM432.76 310.59C430.533 309.843 428.853 310.83 427.72 313.55C430.64 314.63 431.39 312.12 432.76 310.59ZM437.11 438.61C431.36 436.93 430.53 437.51 431.12 442.82C433.17 441.38 434.93 440.15 437.11 438.61ZM355.83 277.31C356.66 276.91 357.49 276.52 358.31 276.13C357.81 275.5 357.38 274.79 356.78 274.3C356.58 274.14 355.53 274.56 355.53 274.72C355.51 275.58 355.71 276.44 355.83 277.31ZM328.06 295.91L328.25 294.83L327.29 295.26L328.06 295.91ZM325.51 335.4C325.34 334.97 325.17 334.54 324.99 334.11C324.21 334.51 323.23 334.75 322.73 335.37C322.51 335.64 323.25 336.69 323.55 337.39C324.2 336.73 324.86 336.07 325.51 335.41V335.4ZM408.68 354.6C413.05 351.9 414.18 351.52 414.78 350.73C415.28 350.08 415.16 348.96 415.32 348.04C414.37 347.94 412.99 347.41 412.55 347.83C411.59 348.77 411.1 350.2 408.68 354.59V354.6ZM320.92 356.41C320.29 357.04 319.65 357.67 319.02 358.3C319.41 358.54 320.02 359.08 320.15 358.98C320.79 358.5 321.3 357.85 321.86 357.27C321.55 356.98 321.24 356.7 320.92 356.41ZM382.16 369.33C381.77 369.03 381.39 368.51 380.99 368.5C380.56 368.48 379.78 368.89 379.73 369.2C379.49 370.72 380.17 371.32 381.38 370.7C381.77 370.5 381.9 369.8 382.15 369.33H382.16Z" fill="var(--fill-0, black)"/>
</g>
</svg>
