<svg preserveAspectRatio="none" width="100%" height="100%" overflow="visible" style="display: block;" viewBox="0 0 553.629 334.647" fill="none" xmlns="http://www.w3.org/2000/svg">
<g id="Layer_1-2">
<path id="Vector" d="M211 323.56C214.79 317.37 221.44 320.95 226.46 318.99C227.2 318.7 228.19 317.68 228.13 317.08C228.06 316.24 227.17 315.43 226.51 314.71C226.19 314.36 225.63 314.2 225.14 314.06C224.16 313.77 223.08 313.17 222.18 313.35C211.51 315.45 204.58 307.35 196.02 303.77C194.72 303.23 193.78 301.69 192.84 300.49C192.05 299.49 192.31 298.45 193.41 297.85C193.8 297.64 194.56 297.61 194.88 297.85C196.5 299.06 197.91 300.58 199.61 301.64C202.67 303.54 204.25 302.76 204.17 298.91C204.12 296.25 206.28 295.55 208.43 295.44C212.99 295.21 217.57 295.25 222.13 295.04C225.52 294.88 226.06 293.16 226.92 290.54C228.52 285.68 225.67 285.76 222.58 285.47C215.52 284.81 208.34 286.88 201.02 284.82C202.51 280.7 205.84 281.86 208.12 282.13C221.08 283.66 233.67 280.2 246.46 279.65C247.98 279.58 249.95 279.61 250.91 278.72C259.66 270.64 270.5 272.88 280.19 274.17C288.92 275.33 296.24 271.51 304.31 271.07C305.15 271.02 306.57 270.13 306.65 269.49C307.85 260.4 315.59 262.25 320.92 261.69C330.53 260.68 340.3 260.75 349.99 260.95C356.3 261.08 361.17 259.18 363.85 253.45C366.37 248.07 370.95 246.49 376.11 245.38C421.84 235.59 464.09 217.75 502.46 190.86C508.86 186.38 514.48 181.29 518.84 174.8C520.74 171.97 521.21 169.14 519.31 166.21C515.69 160.61 512.45 154.68 508.23 149.57C496.38 135.21 482.55 123.12 466.34 113.71C437 96.68 405.39 86.89 371.8 83.13C332.84 78.76 294.01 80.46 255.05 84.08C223.56 87.01 193.57 95.47 163.63 104.65C158.79 106.13 154.2 108.67 149.76 111.19C139.02 117.3 127.54 121.58 116.15 126.24C101.52 132.23 87.5002 139.82 74.1602 148.47C71.6702 150.08 71.3902 152.44 72.3302 155.19C77.0502 169.08 75.9602 183.56 76.3202 197.86C76.4902 204.52 73.9902 209.93 66.6702 211.73C65.1402 212.11 63.3902 213.5 64.1002 214.88C68.1402 222.76 61.8202 221.07 58.5902 220.39C48.5702 218.29 38.0102 216.93 28.9602 212.58C19.4202 208 11.7102 200.39 7.97023 189.26C4.65023 179.37 2.97023 169.64 2.81023 159.21C2.68023 150.61 2.83023 141.82 0.520228 133.28C-0.889772 128.07 0.720228 123.16 3.50023 118.58C8.07023 111.06 13.7602 104.47 20.0302 98.36C34.1202 84.64 50.2702 73.69 67.3502 64.18C88.8802 52.2 110.67 40.69 133.22 30.68C163.47 17.25 195.05 8.37 227.9 4.65C271.86 -0.300003 316.01 -1.35 360.15 1.75C397.34 4.36 433.01 12.92 466.68 29.68C502.69 47.6 528.13 75.4 546.05 110.77C551.5 121.53 554.25 133.06 553.51 145.04C552.46 161.93 552.32 178.89 549.01 195.62C547.08 205.38 543.97 214.4 538.14 222.48C528.47 235.87 517.62 247.93 502.74 255.85C495.5 259.7 488.55 264.12 481.48 268.3C477.98 270.37 473.87 272 475.52 277.51C475.74 278.25 475.1 279.8 474.42 280.18C465.09 285.29 456.39 291.69 445.94 294.54C444.52 294.93 442.88 294.52 441.35 294.48L441.72 294.87C442.11 292.34 444.41 292.13 446.12 291.14C446.84 290.73 447.74 289.62 447.63 288.97C447.35 287.24 445.95 286.38 444.28 287.05C433.31 291.42 422.09 294.84 410.6 297.7C389.66 302.92 368.3 305.65 347.13 309.47C338.68 311 329.99 311.38 321.91 314.91C319.71 315.87 316.95 315.69 314.43 315.75C309.4 315.87 304.36 315.78 299.09 315.78C300.31 320.6 304.52 317.36 306.66 319.19C308.58 320.83 310.61 322.36 312.64 323.86C313.57 324.54 314.14 324.01 314.58 322.64C315.49 319.79 317.73 318.93 320.52 318.81C335.73 318.14 350.95 317.51 365.52 312.26C366.84 311.78 368.58 312.13 370.04 312.47C371.97 312.92 373.81 313.75 375.74 314.43C374.32 318.88 373.41 323.45 368.79 324.34C362.41 325.57 355.44 329.01 349.49 324.37C343.35 319.58 336.87 321.1 330.34 321.5C328.44 321.62 325.68 322.43 324.91 323.81C320.64 331.53 313.09 330.95 306.1 331.91C277.98 335.79 249.84 335.18 221.67 332.35C218.07 331.99 216.35 330.37 215.01 327.2C214.3 325.53 212.14 324.49 210.64 323.16L210.98 323.55L211 323.56ZM242.79 292.65L243.56 292.12L242.37 292.77C242.93 291.46 243.69 290.18 243.94 288.81C244.04 288.25 243.15 287.06 242.53 286.91C241.53 286.66 240.94 287.58 241.26 288.69C241.65 290.07 242.2 291.4 242.8 292.65H242.79ZM264.43 317.97C260.41 315.73 256.6 316.03 252.83 316.56C252.1 316.66 251.02 317.62 250.95 318.26C250.87 319.01 251.57 320.34 252.23 320.57C256.59 322.1 260.79 322.4 264.42 317.96L264.43 317.97ZM433.37 238.89C429.41 239.23 427.4 240.82 426.62 244.25C426.03 246.87 426.83 248.16 429.49 247.57C431.38 247.15 433.33 246.65 435 245.72C436.9 244.67 437.67 242.64 436.46 240.75C435.79 239.71 434.12 239.31 433.37 238.88V238.89ZM297.33 61.27C296.87 61.44 296.2 61.48 295.98 61.81C295.31 62.82 295.68 63.72 296.93 64.02C298.39 64.37 299.93 64.84 301.37 64.66C302.5 64.52 302.72 62.98 301.64 62.39C300.38 61.7 298.79 61.62 297.34 61.27H297.33ZM399.17 290.16C397.64 290.62 396.21 291.37 396.48 293.17C396.55 293.62 398.22 294.16 399.11 294.1C400.65 293.99 402.32 293.37 401.68 291.33C401.49 290.73 400.04 290.53 399.17 290.16ZM265.06 65.26C264.85 64.9 264.65 64.22 264.44 64.22C262.52 64.22 260.59 64.31 258.67 64.46C258.5 64.47 258.39 65.12 258.25 65.48C259.64 65.8 261.02 66.32 262.42 66.35C263.29 66.37 264.18 65.65 265.06 65.27V65.26ZM351.93 302.66C352.34 302.51 352.76 302.37 353.17 302.22C352.83 301.99 352.41 301.5 352.18 301.57C351.61 301.76 351.12 302.22 350.6 302.57C351.04 302.6 351.49 302.63 351.93 302.66ZM365.66 64.24C365.33 64.49 364.75 64.71 364.72 65C364.6 66.05 365.26 66.5 366.4 66.17C366.78 66.06 367.08 65.68 367.42 65.43C366.83 65.03 366.25 64.64 365.66 64.24ZM377.38 67.81C377.62 68.06 377.82 68.43 378.11 68.53C378.5 68.67 379.1 68.78 379.36 68.57C380.16 67.94 379.84 67.42 378.55 67.37C378.17 67.36 377.77 67.65 377.38 67.8V67.81ZM328.64 265.84C328.32 265.58 328 265.09 327.68 265.09C326.36 265.09 326.04 265.76 326.87 266.77C327.07 267.01 327.76 267.09 328.05 266.93C328.35 266.76 328.45 266.22 328.64 265.84ZM377.67 298.46C377.71 297.09 377.16 296.81 376.13 297.77C375.99 297.9 376.33 298.53 376.45 298.93C376.86 298.77 377.26 298.62 377.67 298.46ZM339.43 64.15L338.6 64.6L339.46 65L339.43 64.15ZM281.45 293.32C281.53 292.37 281.06 292.17 280.11 292.79C280.05 292.83 280.26 293.56 280.37 293.57C280.72 293.59 281.08 293.42 281.44 293.32H281.45Z" fill="var(--fill-0, black)"/>
<path id="Vector_2" d="M210.66 323.17C209.81 324.41 208.24 325.67 208.27 326.89C208.31 328.72 209.94 331.02 206.97 331.52C199.11 332.83 191.27 332.68 183.45 330.73C184.57 325.64 190.08 327.06 191.33 323.29C191.59 322.5 193.3 321.36 193.52 321.53C198.99 325.46 205.54 319.68 210.97 323.54C211 323.57 210.65 323.18 210.65 323.18L210.66 323.17Z" fill="var(--fill-0, black)"/>
<path id="Vector_3" d="M398.08 310.18C397.74 311.1 397.65 312.3 397 312.87C395.1 314.55 393.07 316.1 390.94 317.48C387.48 319.73 384.23 319.21 383.27 316.43C382.29 313.58 383.71 311.16 387.52 309.49C390.32 308.26 393.18 306.9 396.32 308.05C397.07 308.33 397.5 309.44 398.08 310.17V310.18Z" fill="var(--fill-0, black)"/>
<path id="Vector_4" d="M441.35 294.47C438.24 301.46 433.3 306.1 425.32 306.42C424.11 306.47 422.53 305.27 421.68 304.21C420.51 302.73 421.74 301.39 422.96 300.5C428.53 296.42 435 295.24 441.71 294.87L441.35 294.48V294.47Z" fill="var(--fill-0, black)"/>
<path id="Vector_5" d="M266.51 265.77C266.99 266.47 267.95 267.24 267.86 267.86C267.59 269.71 266.16 269.62 264.8 269.04C263.71 268.57 263.35 267.57 264.14 266.75C264.68 266.19 265.7 266.08 266.51 265.78V265.77Z" fill="var(--fill-0, black)"/>
<path id="Vector_6" d="M170.65 330.21C168.83 330.5 167.54 330.87 166.26 330.84C165.43 330.82 164.61 330.21 163.79 329.86C165.08 329.51 166.35 328.97 167.65 328.9C168.44 328.86 169.26 329.57 170.65 330.21Z" fill="var(--fill-0, black)"/>
<path id="Vector_7" d="M214.7 290.94C214.31 290.8 213.69 290.76 213.59 290.51C213.21 289.54 213.73 289.06 214.9 289.33C215.23 289.41 215.46 289.91 215.73 290.22C215.39 290.46 215.05 290.7 214.71 290.94H214.7Z" fill="var(--fill-0, black)"/>
<path id="Vector_8" d="M171.42 321.82C171.01 321.56 170.25 321.32 170.24 321.05C170.2 320.03 171.01 319.61 172.29 319.95C172.74 320.07 173.12 320.43 173.54 320.68C172.83 321.06 172.12 321.44 171.42 321.83V321.82Z" fill="var(--fill-0, black)"/>
<path id="Vector_9" d="M300.29 259.74L299.23 259.23L300.34 258.83L300.29 259.74Z" fill="var(--fill-0, black)"/>
<path id="Vector_10" d="M197.99 289.27V290.37L196.71 289.84L197.99 289.27Z" fill="var(--fill-0, black)"/>
<path id="Vector_11" d="M337.3 326.71C337.16 327.01 337.01 327.58 336.88 327.58C335.52 327.55 335.22 327.05 336.12 326.38C336.32 326.23 336.9 326.58 337.3 326.71Z" fill="var(--fill-0, black)"/>
</g>
</svg>
