<svg preserveAspectRatio="none" width="100%" height="100%" overflow="visible" style="display: block;" viewBox="0 0 1143.5 115.868" fill="none" xmlns="http://www.w3.org/2000/svg">
<g id="Layer_1-2">
<path id="Vector" d="M672.3 34.5314C670.17 33.3114 667.83 33.3114 665.48 33.3414C658.12 33.4114 650.79 32.9514 643.47 32.1014C638.84 31.5614 634.13 31.6714 629.48 31.2814C615.84 30.1514 602.19 29.1414 588.56 27.8414C573.94 26.4414 559.23 25.9414 544.56 25.1314C542.96 25.0414 541.34 25.5014 539.54 25.7214C539.94 26.4114 540.07 26.9014 540.28 26.9414C546.47 28.1014 552.59 29.5014 558.95 29.7614C563.57 29.9514 568.21 30.7814 572.72 31.8214C576.71 32.7414 580.5 32.8614 584.56 32.1514C590.13 31.1714 595.81 30.6914 601.39 32.5914C602.62 33.0114 604 33.0414 605.32 33.1014C612.65 33.4614 619.99 33.7814 627.32 34.1114C627.98 34.1414 628.68 34.2914 629.31 34.1514C635.06 32.8014 640.46 34.7414 645.88 36.0314C650.77 37.1914 655.65 37.9214 660.68 38.1114C665.98 38.3114 671.27 39.0214 676.05 39.4714C678.51 41.0714 680.45 42.3214 682.31 43.5314C683.5 43.3614 684.57 43.4314 685.43 43.0414C687.54 42.0814 689.56 40.9114 691.5 39.8814C697.73 39.4314 703.68 39.7414 709.61 41.0814C713.18 41.8814 716.86 42.1914 720.03 42.6514C722.11 42.0614 723.72 41.6114 725.31 41.1614C730.51 42.7814 735.69 43.7914 741.13 43.7514C744.07 43.7314 747.01 44.7014 750.98 45.4114C753.54 45.0414 757.16 44.5114 760.83 43.9714C769.13 46.5914 778.11 45.1114 787.31 49.1914C787.32 49.2014 785.71 49.7814 785.98 50.7014C787.52 51.7014 789.19 51.1114 790.77 50.7814C792.39 50.4414 793.94 49.7714 794.88 49.4614C799.6 49.0514 803.28 51.8514 807.36 50.8614C808.94 50.4714 810.42 49.6314 812 48.9714C815.94 49.3014 819.93 49.6314 824 49.9714C826.73 51.0314 829.52 52.1214 832.17 53.1514C834.34 52.8514 836.31 52.5714 838.11 52.3214C842.21 53.7414 848.9 54.2181 858.18 53.7514C859.81 54.2514 861.72 54.8314 863.77 55.4514C865.31 55.1714 866.98 54.9814 868.58 54.5414C874.26 52.9714 879.81 53.4314 885.33 55.2714C889.44 56.6314 893.5 58.3314 898 57.6714C898.32 57.6214 898.71 57.6514 898.99 57.7914C905.27 61.0014 911.98 60.0114 918.62 59.9214C921.95 59.8814 925.28 60.1914 928.61 60.4514C932.27 60.7414 935.91 61.3614 939.56 61.4614C942.99 61.5514 946.19 62.1414 948.53 63.7714C952.12 64.0214 955.1 64.2114 958.08 64.4314C959.4 64.5314 960.83 65.1014 962.01 64.7614C967.94 63.0914 973.95 64.9514 979.88 64.1714C980.85 64.0414 982 63.9714 982.83 64.3714C986.61 66.1614 990.72 65.9014 994.66 66.1714C999.99 66.5314 1005.2 67.4214 1010.4 68.4614C1011.7 68.7214 1013.13 69.5014 1014.28 69.2014C1018.03 68.2314 1021.44 69.6014 1025.02 70.0214C1028.31 70.4114 1031.62 71.2214 1034.83 71.2814C1039.57 71.3714 1044.02 72.3114 1048.58 73.2514C1053.14 74.1814 1057.79 74.7814 1062.43 75.1614C1071.4 75.8914 1080.15 78.5614 1089.25 78.0714C1090.55 78.0014 1091.98 78.1414 1093.18 78.6114C1097.96 80.4914 1103.02 80.1714 1108.11 80.8514C1117.03 85.2414 1126.96 86.6414 1137 88.7414C1139.05 90.5814 1141.25 92.5714 1143.5 94.5914C1143.29 96.0214 1143.1 97.3214 1142.93 98.4614C1140.19 100.641 1137.62 102.701 1135.37 104.501C1131.72 105.891 1128.37 105.781 1125.04 105.461C1120.39 105.021 1115.77 104.401 1111.12 103.931C1107.17 103.531 1103.2 102.441 1099.26 104.041C1097.86 102.535 1096.64 102.351 1095.59 103.491C1097 103.591 1098.25 103.671 1099.5 103.761C1101.28 106.831 1104.92 105.971 1107.42 107.511C1114.55 106.921 1120.97 110.991 1128.13 110.601C1130.32 110.481 1132.58 111.771 1135.11 112.501C1134.66 113.391 1134.28 114.131 1133.85 114.981C1124.77 113.871 1115.83 112.751 1106.88 111.721C1104.29 111.421 1101.6 110.611 1099.1 112.451V115.201C1096.14 116.011 1093.06 116.191 1090.29 115.131C1086.11 113.521 1081.77 113.291 1077.48 113.071C1068.45 112.611 1059.52 111.401 1050.59 110.141C1050.26 110.091 1049.93 110.031 1049.59 110.021C1040.56 109.741 1031.78 107.591 1022.84 106.591C1013.87 105.591 1004.9 104.561 995.92 103.611C987.3 102.701 978.65 101.941 970.04 100.961C965.38 100.431 960.77 100.141 956.08 100.791C952.06 101.351 948.02 100.671 944.17 99.5314C937.35 97.5014 930.36 97.2514 923.35 97.1814C919.01 97.1414 914.65 97.4914 910.52 95.7214C903.19 95.3614 895.97 93.6914 888.59 93.9914C886.93 94.0614 885.25 93.9714 883.61 93.7514C876.67 92.8214 869.8 91.3114 862.73 91.8014C857.94 90.0814 852.88 89.7514 847.94 89.8414C835.52 90.0714 823.32 87.9514 811 87.1414C802.34 86.5714 793.67 86.1614 785.01 85.7114C780.64 85.4914 779.65 85.2214 773.31 82.1014C767.79 83.6714 761.87 84.0814 755.88 83.0114C750.29 82.0114 744.59 82.4714 738.94 81.7114C730.01 80.5014 720.98 80.1114 712.01 79.1414C709.06 78.8214 706.18 77.7814 702.84 76.9614C697.7 76.8814 692.08 76.7914 686.46 76.7214C684.13 76.6914 681.79 76.5714 679.47 76.7414C677.11 76.9114 674.81 77.0214 672.54 76.2014C671.92 75.9814 671.22 75.8314 670.57 75.8614C661.83 76.2714 653.3 74.2414 644.65 73.6314C638.99 73.2314 633.33 73.0714 627.73 71.8014C624.87 71.1514 621.8 71.4514 619.09 71.3314C617.71 69.9514 616.58 68.8114 615.79 68.0114C613.18 67.5414 612.54 69.5314 610.71 70.5514C610.24 70.6514 609.25 71.0914 608.3 71.0014C603.99 70.6114 599.61 69.3214 595.42 69.8014C591 70.3114 586.83 69.0714 582.53 69.3214C580.9 69.4214 579.23 68.9414 577.16 68.6614C575.97 67.4114 574.61 65.9814 573.02 64.3214C569.7 62.5814 565.91 61.4914 561.4 62.1014C560.81 62.8714 560.07 63.8614 559.32 64.8414C556.5 64.7548 553.603 63.8514 550.63 62.1314C546.47 61.8214 542.01 60.1514 537.21 61.2414C535.74 61.5714 534.01 60.5414 532.37 60.3514C527.76 59.8314 523.12 58.5914 518.41 60.7014C515.95 60.5114 513.52 59.3314 510.7 59.8814C507.14 60.5914 503.43 60.2714 499.89 59.4414C491.78 57.5414 483.75 55.5014 475.26 56.3014C472.67 56.5514 469.97 55.6214 467.31 55.3914C465.32 55.2214 463.26 55.0814 461.31 55.3914C459.39 55.6914 457.55 56.5514 455.47 57.2414C454.06 56.7414 452.5 56.1914 450.39 55.4414C449.27 55.7414 447.68 56.1614 446.52 56.4614C443.3 55.6814 440.47 54.5814 437.57 54.3614C427.92 53.6314 418.24 53.2214 408.57 52.6814C404.9 52.4814 401.21 52.4514 397.58 52.0014C390.27 51.0914 382.93 51.1114 375.61 50.7214C352.63 49.4914 329.55 50.5014 306.65 47.6914C305.67 47.5714 304.66 47.5614 303.67 47.5714C285.62 47.7714 267.59 47.1814 249.58 45.9314C245.25 45.6314 240.89 45.6914 236.55 45.3914C234.6 45.2514 232.68 44.6414 230 44.1014C228.15 44.3014 225.52 44.7414 222.88 44.8314C220.22 44.9214 217.5 44.9614 214.89 44.5114C211.93 44.0014 208.96 42.7814 206.01 43.5614C202.87 44.3914 200.14 42.6714 197.13 42.8614C193.48 43.0914 189.81 42.9114 186.36 42.9114C184.7 41.9314 183.27 41.0914 181.3 39.9414H158.38C156.28 40.5114 152.77 41.4714 149.31 42.4014C147.31 41.3614 145.55 40.4614 143.84 39.5814C131.84 38.1314 119.88 37.3814 107.81 38.0014C100.82 38.3614 93.79 37.8814 86.78 37.8214C83.44 37.7914 80.18 38.1314 76.85 38.7214C72.28 39.5314 67.55 39.6614 62.89 39.6514C52.2 39.6214 41.5 39.3014 30.81 39.1514C25.81 39.0814 20.8 39.1414 15.6 39.1414C14.55 37.6914 13.61 35.9914 12.28 34.6814C11.13 33.5414 9.58 32.8114 8.16 31.9614C6.44 30.9414 4.68 29.9914 3.29 29.2114C1.8 27.0914 1.93 25.0614 1.91 23.0914C1.86 17.7614 1.35 12.4914 0 7.55143C2.11 3.51143 5.91 2.90143 9.45 2.17143C12.04 1.64143 14.78 1.74143 17.45 1.68143C32.49 1.32143 47.53 0.981431 62.57 0.651431C73.59 0.401431 84.62 0.0514307 95.65 0.00143068C102.99 -0.0285693 110.34 0.421431 117.68 0.581431C126.36 0.781431 135.04 0.911431 143.72 1.06143C150.39 1.17143 157.14 0.701431 163.72 1.53143C169.66 2.28143 175.64 2.15143 181.57 3.23143C187.43 4.30143 193.52 4.29143 199.52 4.47143C215.54 4.95143 231.57 5.24143 247.6 5.69143C251.26 5.79143 254.92 6.20143 258.57 6.52143C263.92 6.99143 269.25 7.16143 273.45 6.02143C278.13 6.67143 281.73 7.41143 285.35 7.61143C291.02 7.92143 296.7 7.84143 302.38 7.97143C305.05 8.03143 307.73 7.99143 310.37 8.34143C321.34 9.79143 332.39 9.48143 343.4 10.0214C358.08 10.7314 372.78 11.3114 387.45 12.2514C397.11 12.8714 406.73 14.0614 416.37 14.9614C419.03 15.2114 421.71 15.3214 424.38 15.4714C434.05 15.9914 443.73 16.1914 453.39 16.9814C463.37 17.7914 473.43 17.6314 483.44 18.0214C487.1 18.1614 490.74 18.6614 494.38 19.0014C495.71 19.1214 497.04 19.3014 498.37 19.3714C511.72 20.0614 525.06 20.7214 538.41 21.4314C542.41 21.6414 546.44 21.7814 550.41 22.3414C564.66 24.3614 578.98 25.2814 593.35 25.7014C595.69 25.7714 598.07 25.7414 600.34 26.2014C607.27 27.6114 614.3 27.4514 621.29 27.9614C633.6 28.8714 645.99 28.8914 658.19 31.3114C662.09 32.0814 666.17 31.9414 670.14 32.2114C670.89 33.0314 671.56 33.7614 672.23 34.4914L672.32 34.5314H672.3ZM533.42 24.3914C531.71 24.0814 530.12 23.6514 528.51 23.5314C520.21 22.9214 511.91 22.3414 503.6 21.8714C499.62 21.6514 495.62 21.7514 491.63 21.6214C488.32 21.5114 484.95 21.6514 481.72 21.0614C470.51 18.9914 459.19 19.2414 447.88 19.0514C447.08 19.0414 446.27 19.7914 445.36 20.2314C446.08 20.7514 446.58 21.4214 447.12 21.4614C459.02 22.4914 470.92 23.6714 482.89 23.3914C487.23 23.2914 491.49 23.5314 495.79 24.1714C501.71 25.0514 507.67 25.9614 513.64 26.1114C519.92 26.2614 526.18 26.6614 532.46 26.9414C532.72 26.9514 533 26.6214 533.42 26.3514V24.4014V24.3914ZM166.76 35.9114C182.94 37.6114 198.76 37.4214 214.58 37.4714C214.16 37.0714 213.76 36.3314 213.33 36.3114C205.71 36.0414 198.09 35.8614 190.46 35.6714C187.15 35.5914 183.84 35.5014 180.54 35.4714C177.22 35.4414 173.9 35.4414 170.59 35.5014C169.31 35.5214 168.04 35.7614 166.76 35.9014V35.9114ZM438.68 18.4314C427.8 16.9614 415.71 16.8914 407.92 18.2414C408.1 18.4614 408.26 18.8714 408.45 18.8914C418.35 19.7314 428.26 20.5414 437.93 21.3314C438.46 20.7314 438.83 20.5114 438.85 20.2614C438.88 19.6514 438.75 19.0414 438.69 18.4214L438.68 18.4314ZM1090.6 110.881C1090.44 110.591 1090.32 110.111 1090.1 110.051C1087.25 109.261 1084.39 108.501 1081.52 107.801C1080.9 107.651 1080.21 107.731 1079.55 107.751C1078.2 107.791 1076.99 108.121 1076.18 109.631C1076.54 110.321 1076.97 111.131 1077.35 111.841C1084.18 112.268 1088.6 111.948 1090.61 110.881H1090.6ZM331.55 42.4414C340.84 44.2914 346.92 44.1714 349.63 41.7414C344.95 41.6714 340.63 41.5514 336.31 41.5614C334.7 41.5614 332.96 41.1514 331.56 42.4314L331.55 42.4414ZM278.03 40.1414C278.68 40.5114 279.13 41.0014 279.6 41.0114C284.53 41.1414 289.46 41.2214 294.39 41.2314C294.82 41.2314 295.24 40.7114 296.32 40.0014C290.8 39.7614 285.91 39.5114 281.02 39.3914C280.09 39.3714 279.14 39.8514 278.02 40.1414H278.03ZM305.1 40.5114C308.81 42.9014 312.37 41.1214 315.91 40.7914C312.38 40.5514 308.88 38.3014 305.1 40.5114ZM234.73 38.4614C231.91 37.7514 229.11 36.3214 226.08 38.3614C229.14 39.8514 231.96 39.2914 234.73 38.4614ZM815.19 82.2514C812.22 82.0814 809.66 81.9014 807.1 81.8414C806.88 81.8414 806.64 82.5714 806.35 83.0514C808.95 83.7414 811.39 84.3914 814.1 85.1114C814.42 84.2814 814.72 83.5214 815.2 82.2614L815.19 82.2514ZM399.67 17.6414C398.81 17.2214 398.05 16.6914 397.21 16.4914C396.84 16.4014 396.3 16.9714 395.88 17.3014C395.83 17.3414 396.07 17.9414 396.3 18.0514C397.39 18.6114 398.52 19.2514 399.67 17.6314V17.6414ZM261.4 39.2414C263.58 39.4114 264.54 39.6714 265.42 39.5114C266.33 39.3514 267.65 39.7314 268.29 37.9014C266.14 38.3514 264.28 37.0614 261.4 39.2414ZM380.01 16.2014C381.77 16.9614 382.95 17.5814 384.4 16.2014H380.01ZM1130.29 101.321C1129.37 100.471 1128.16 99.3314 1127.76 101.321H1130.29ZM1080.29 100.691C1081.36 101.181 1082.01 101.671 1082.71 101.741C1083.13 101.781 1083.62 101.191 1084.08 100.891C1083.58 100.591 1083.1 100.101 1082.57 100.041C1082.02 99.9814 1081.42 100.341 1080.29 100.691ZM1069.81 100.461C1071.03 101.961 1072.15 101.841 1073.33 100.361C1072.01 99.4414 1070.88 99.3414 1069.81 100.461ZM1065.07 107.041C1066.1 108.281 1067.14 108.151 1068.28 107.091C1067.22 105.481 1066.18 105.451 1065.07 107.041ZM983.43 88.7414C982.41 87.6514 981.38 87.5714 980.23 88.6614C981.26 89.7514 982.28 89.8214 983.43 88.7414ZM810.16 74.5614C809.9 74.4614 809.64 74.2514 809.39 74.2714C808.48 74.3414 808.32 74.6714 808.97 75.0414C809.19 75.1714 809.55 75.1414 809.81 75.0614C809.96 75.0114 810.05 74.7314 810.16 74.5514V74.5614ZM750.01 70.3914C749.63 70.0514 749.24 69.7214 748.86 69.3814C748.7 69.6114 748.36 70.0014 748.4 70.0514C748.71 70.4014 749.09 70.7014 749.48 70.9514C749.52 70.9814 749.83 70.5814 750.01 70.3814V70.3914ZM695.54 65.1314C695.5 64.8814 695.54 64.5014 695.39 64.4114C695.18 64.2814 694.77 64.2314 694.57 64.3514C693.91 64.7714 694 65.2314 694.82 65.4614C695.01 65.5214 695.3 65.2514 695.55 65.1314H695.54ZM381.13 44.1614H379.48C379.48 44.3914 379.48 44.8214 379.48 44.8214C380.02 44.8514 380.57 44.8414 381.12 44.8014C381.14 44.8014 381.12 44.3814 381.12 44.1614H381.13ZM358.7 42.3714L358.78 42.8614L359.37 42.6014L358.7 42.3714ZM249.74 38.4814C250.39 38.8614 251.13 39.8614 251.52 38.2514C250.93 38.3314 250.33 38.4014 249.74 38.4814ZM243.9 38.4114C243.32 38.2714 242.74 38.0914 242.15 38.0214C242.04 38.0114 241.89 38.4514 241.75 38.6814C242.34 38.8314 242.92 39.0214 243.52 39.1114C243.61 39.1214 243.77 38.6614 243.9 38.4114ZM156.74 36.4714C156.5 36.3014 156.27 36.0114 156.03 36.0114C155.78 36.0114 155.52 36.2814 155.26 36.4314C155.49 36.5914 155.72 36.8614 155.96 36.8714C156.22 36.8714 156.48 36.6214 156.74 36.4814V36.4714Z" fill="#D8E142"/>
<path id="Vector_2" d="M1100.63 74.2214C1084.82 72.1114 1069.02 69.9614 1053.21 67.9114C1046.96 67.1014 1040.66 66.7814 1034.41 65.7814C1026.55 64.5314 1018.57 64.0714 1010.65 63.1514C1002.07 62.1614 993.51 61.0114 984.93 59.9914C981.31 59.5614 977.66 59.2814 974.08 58.9314C973.36 58.0514 972.74 57.2914 972.11 56.5214L971.94 56.6214C986.86 57.9714 1001.75 59.4814 1016.58 61.7014C1023.8 62.7814 1031.16 63.2114 1038.42 64.0414C1050.64 65.4514 1062.97 66.2514 1075.04 68.9014C1076.01 69.1114 1077 69.3014 1077.99 69.4014C1081.64 69.7714 1085.32 69.9314 1088.94 70.4714C1092.54 71.0114 1096.08 71.9014 1099.65 72.6414C1099.9 73.2114 1100.15 73.7814 1100.4 74.3514L1100.62 74.2014L1100.63 74.2214Z" fill="#D8E142"/>
<path id="Vector_3" d="M791.88 42.5114C786.13 43.6214 780.44 43.5914 774.89 42.6414C770.25 41.8414 765.63 41.6714 760.99 41.3614C753.35 40.8614 745.74 39.8814 738.1 39.5814C730.09 39.2614 722.19 38.1714 714.25 37.2414C713.69 37.1714 713.19 36.6514 712.65 36.3314C714.12 35.1614 715.84 35.5314 717.46 35.6514C727.1 36.3314 736.81 36.5814 746.35 37.9614C753.63 39.0114 760.95 39.1314 768.19 40.0814C776.09 41.1114 783.97 42.0314 791.89 42.5214L791.88 42.5114Z" fill="#D8E142"/>
<path id="Vector_4" d="M822.48 45.4914C826.13 45.4614 829.8 45.2714 833.44 45.4414C844.07 45.9414 854.71 46.4514 865.31 47.5314C875.57 48.5814 885.86 49.2614 896.14 50.1614C896.65 50.2114 897.12 50.8014 897.61 51.1514C890.86 51.6914 878.83 51.4514 873.99 50.6714C872.02 50.3514 870.05 49.7014 868.09 49.7414C855.4 50.0214 842.92 47.4314 830.27 47.1714C827.58 47.1114 824.93 47.0414 822.68 45.2714L822.48 45.5014V45.4914Z" fill="#D8E142"/>
<path id="Vector_5" d="M704.76 34.2914C699.66 38.1714 694.66 34.9014 689.41 35.3614C689.04 33.5014 690.33 33.8414 690.91 33.8514C695.53 33.9414 700.14 34.1314 704.76 34.2914Z" fill="#D8E142"/>
<path id="Vector_6" d="M822.68 45.2714C816.09 45.1514 809.49 45.0614 802.9 44.8814C802.38 44.8714 801.87 44.3114 800.9 43.7414C807.55 43.5214 813.75 43.6714 819.94 44.2214C820.82 44.3014 821.63 45.0514 822.48 45.4914L822.68 45.2614V45.2714Z" fill="#D8E142"/>
<path id="Vector_7" d="M972.12 56.5314C969.59 57.3814 967.06 57.9714 964.33 57.7414C960.37 57.4114 956.4 57.2814 952.45 57.0614C952.32 55.1414 952.66 54.7414 954.17 54.8914C960.1 55.4614 966.02 56.0514 971.95 56.6214L972.12 56.5214V56.5314Z" fill="#D8E142"/>
<path id="Vector_8" d="M906.8 52.1114C907.39 51.9114 907.99 51.5214 908.57 51.5314C911.86 51.6314 915.15 51.8214 918.55 51.9914C918.26 53.9814 916.79 53.3314 915.96 53.3514C913.01 53.4014 910.06 53.2114 907.11 53.1214C907 52.7814 906.9 52.4514 906.79 52.1114H906.8Z" fill="#D8E142"/>
<path id="Vector_9" d="M935.09 54.4814C938.37 53.4414 940.86 53.7014 943.39 54.2914C940.96 55.4614 940.96 55.4914 935.09 54.4814Z" fill="#D8E142"/>
<path id="Vector_10" d="M45.47 42.3314H47.27C47.27 42.4014 47.29 42.4814 47.3 42.5514H45.46C45.46 42.4814 45.46 42.4014 45.47 42.3314Z" fill="#D8E142"/>
<path id="Vector_11" d="M1100.41 74.3714C1102.9 73.6614 1105.4 73.0814 1107.97 74.0614C1108.12 75.4614 1107.02 75.3214 1106.31 75.2214C1104.41 74.9814 1102.53 74.5614 1100.64 74.2114L1100.42 74.3614L1100.41 74.3714Z" fill="#D8E142"/>
<path id="Vector_12" d="M672.22 34.4914C674.07 34.4914 675.83 33.1414 678.53 34.5314H672.31L672.22 34.4914Z" fill="#D8E142"/>
</g>
</svg>
