<svg preserveAspectRatio="none" width="100%" height="100%" overflow="visible" style="display: block;" viewBox="0 0 496.143 304.831" fill="none" xmlns="http://www.w3.org/2000/svg">
<g id="Layer_1-2">
<path id="Vector" d="M434.6 273.758C426.48 283.248 414.97 285.718 403.66 288.378C400.51 289.118 396.89 288.858 394.14 286.538C389.09 282.288 384.11 283.948 379.07 286.418L379.45 286.158C371.89 286.488 364.32 286.398 356.92 288.558C354.16 289.358 351.1 289.208 348.17 289.368C339.82 289.828 331.39 289.038 323.17 291.698C320.49 292.568 317.32 292.098 314.38 292.008C310.07 291.878 306.05 293.018 302.06 294.388C300.45 294.948 298.45 295.698 298.36 297.428C297.94 305.678 292.16 304.958 286.64 304.688C285.02 304.608 283.42 304.118 281.87 303.828C281.41 300.878 283.6 301.108 284.97 300.808C287.41 300.278 289.94 300.178 292.38 299.668C293 299.538 293.79 298.558 293.86 297.898C293.92 297.328 293.2 296.498 292.61 296.088C291.95 295.628 291.06 295.288 290.26 295.258C284.01 295.048 278 295.188 271.95 291.998C266.54 289.148 261.29 295.338 255.19 294.658C245.62 293.578 235.98 292.828 226.3 294.128C224.48 294.368 222.28 293.048 220.5 292.028C217.22 290.138 214.98 290.578 213.61 294.238C213.11 295.588 211.88 296.198 210.64 296.088C205.29 295.648 200.07 295.798 195.66 291.178C190.43 285.698 185.03 286.038 178.02 290.808C175.5 292.528 173.58 292.858 172.1 289.578C171.63 288.548 170.69 287.238 169.73 286.998C164.87 285.758 159.7 283.388 155.07 284.118C148.54 285.158 145.13 281.648 140.99 278.348C138.91 276.688 138.83 275.388 140.44 273.208C142.58 270.308 144.73 268.468 148.69 268.688C155.84 269.088 162.96 269.328 170.05 270.518C175.34 271.408 180.77 271.898 187.71 268.048C179.78 266.478 173.76 265.558 167.57 265.628C154.89 265.778 142.58 263.408 130.61 260.458C142.71 254.618 155.63 256.328 168.43 256.698C184.01 257.148 199.59 257.638 215.17 258.218C242.6 259.238 269.97 257.638 297.31 256.058C324.68 254.478 351.87 251.158 378.69 245.298C395.62 241.598 412.06 236.188 427.41 228.118C443.65 219.568 457.39 207.978 467.89 192.658C472.5 185.928 473.8 179.808 467.84 173.308C466.44 171.778 465.39 169.878 464.42 168.018C449.96 140.028 427.41 120.608 400.01 105.898C374.13 91.9978 346.45 83.4578 318.07 76.9178C297.93 72.2778 277.41 70.2178 256.8 68.5078C228.6 66.1578 200.4 65.9078 172.19 66.8578C153.68 67.4778 135.2 69.2878 116.97 72.7578C107.07 74.6478 97.32 77.2878 87.48 79.5178C74.69 82.4078 62.39 86.7078 50.43 92.0478C37.46 97.8378 26.76 106.498 18.1 117.708C17.84 118.038 17.57 118.378 17.37 118.738C15.37 122.368 12.47 124.828 8.18 123.848C4.38 122.988 3.47 119.268 2.48 116.088C1.87 114.138 1.96 111.968 1.73 109.888C0.96 102.818 2.58 95.5578 0 88.6378C2.47 77.8478 0.57 66.8578 1.52 55.9878C1.89 51.7478 4.34 48.9878 7.17 46.4978C17.04 37.7978 27.94 30.8478 40.4 26.2278C88.78 8.31783 138.83 0.417829 190.28 0.0378294C220.24 -0.192171 250.17 0.57783 279.93 3.69783C305.92 6.42783 331.52 11.8478 356.55 19.5678C370.23 23.7878 383.91 28.0578 396.89 34.2478C414.83 42.8078 432.1 52.4878 447.07 65.6978C470.87 86.6878 485.76 113.218 494.24 143.498C496.4 151.228 496.48 159.148 495.67 167.288C494.24 181.588 490.83 195.488 488.64 209.628C485.67 228.788 475.45 243.978 461.79 257.158C461.19 257.738 460.42 258.158 459.83 258.748C452.56 265.928 444.52 271.818 434.28 274.078C433.31 272.538 432.96 269.988 430.13 271.488C429.84 271.638 429.48 272.158 429.55 272.388C430.21 274.638 432.06 273.418 433.42 273.648C433.81 273.718 434.21 273.718 434.6 273.748V273.758ZM304.73 61.6478L305.11 61.6878L304.46 62.0378C303.69 61.2278 303.02 60.2778 302.12 59.6878C301.72 59.4278 300.84 59.9078 300.18 60.0478C300.54 60.4978 300.84 61.2378 301.29 61.3478C302.39 61.6278 303.56 61.6178 304.74 61.6478H304.73ZM284.35 57.6378C274.05 53.7878 263.44 55.4078 253.57 52.7678C253.06 52.6278 251.84 53.4978 251.66 54.1078C251.12 55.9578 252.84 56.2278 253.91 56.1978C261.04 55.9978 268.03 56.9678 275.05 58.1178C277.8 58.5678 280.82 59.4978 284.35 57.6378ZM224.8 269.678C216.14 269.318 210.03 269.048 203.92 268.848C203.63 268.848 203.33 269.368 203.01 269.658C207.277 271.271 214.537 271.278 224.79 269.678H224.8ZM327.16 65.4078C325.92 64.0778 324.35 64.4578 322.85 64.6178C322.53 64.6578 322.24 64.9778 321.93 65.1678C322.57 65.5678 323.16 66.1678 323.85 66.3178C324.88 66.5378 325.97 66.4578 327.04 66.4378C327.09 66.4378 327.12 65.7678 327.16 65.4078ZM156.81 281.328C157.58 281.168 158.35 281.008 159.11 280.848C158.42 280.558 157.74 280.078 157.04 280.038C156.28 279.988 155.49 280.338 154.72 280.508C155.42 280.778 156.12 281.058 156.82 281.328H156.81ZM245.72 270.028C244.98 269.948 244.24 269.818 243.5 269.808C243.31 269.808 243.12 270.178 242.92 270.388C243.66 270.478 244.4 270.608 245.14 270.618C245.33 270.618 245.52 270.238 245.71 270.028H245.72ZM399.8 284.148C399.87 283.788 400.04 283.138 399.99 283.118C399.34 282.898 398.58 282.508 398.01 282.688C397.2 282.938 397.11 283.868 397.87 284.318C398.33 284.588 399.15 284.228 399.81 284.148H399.8ZM419.97 274.348C419.38 274.698 418.34 275.018 418.3 275.418C418.25 276.018 418.76 277.028 419.29 277.248C420.65 277.798 421.47 276.948 421.41 275.618C421.39 275.178 420.48 274.768 419.97 274.348ZM313.5 19.3378C313.21 19.4278 312.91 19.5178 312.62 19.6078C312.71 19.8378 312.79 20.2478 312.9 20.2578C313.18 20.2878 313.48 20.1278 313.78 20.0478C313.69 19.8078 313.6 19.5778 313.51 19.3378H313.5ZM211.48 53.1378L211.58 52.1878L210.5 52.5578L211.47 53.1278L211.48 53.1378Z" fill="var(--fill-0, black)"/>
</g>
</svg>
