<svg preserveAspectRatio="none" width="100%" height="100%" overflow="visible" style="display: block;" viewBox="0 0 600.316 89.5136" fill="none" xmlns="http://www.w3.org/2000/svg">
<g id="Layer_1-2">
<path id="Vector" d="M182.116 51.8733C180.686 51.4333 179.276 50.8433 177.806 50.6133C176.646 50.4333 175.416 50.9033 175.026 52.1433C174.436 53.9933 175.826 54.6733 177.176 55.5133C180.316 57.4733 184.036 55.9133 187.206 57.3933C187.476 57.5233 187.686 57.9133 187.806 58.2333C188.136 59.1433 187.806 60.0233 186.876 60.0333C180.016 60.0533 173.156 60.0333 166.296 59.8433C165.356 59.8133 163.776 58.9733 163.636 58.2833C163.256 56.3933 164.986 55.9233 166.436 55.4833C167.786 55.0733 169.556 55.5333 170.346 53.2033C166.306 50.5433 161.946 48.9733 156.916 48.7033C149.276 48.2933 141.596 48.8733 133.996 46.8433C128.896 45.4833 123.526 49.5233 118.316 47.4733C112.676 45.2533 106.906 46.6633 101.226 46.1933C95.8862 45.7433 90.4662 46.1033 85.0962 46.2433C83.6062 46.2833 82.0762 46.6933 80.6662 47.2133C80.2262 47.3733 80.0262 48.4233 79.8862 49.0933C79.8462 49.3133 80.3262 49.8633 80.6262 49.9033C87.3662 50.8433 94.1062 52.3933 100.866 52.4833C112.356 52.6233 123.816 51.9733 135.196 54.3933C138.126 55.0133 141.316 54.4133 144.386 54.3733C146.296 54.3433 148.226 54.1033 150.086 54.3533C151.066 54.4833 152.436 55.2833 152.736 56.1033C153.146 57.2433 151.816 58.0933 150.776 58.2333C148.136 58.5933 145.356 59.2433 142.806 58.8033C134.756 57.4033 126.696 57.8533 118.646 58.2133C110.976 58.5533 103.306 56.7433 95.0962 58.5433C100.816 60.1733 106.076 59.6733 111.376 59.1433C113.216 58.9633 115.136 59.4333 117.006 59.6833C117.266 59.7133 117.546 60.1333 117.686 60.4233C118.116 61.3033 117.866 62.0533 116.906 62.2633C115.446 62.5933 113.916 63.0533 112.456 62.9233C97.8462 61.6333 83.2662 62.5233 68.6762 63.4533C52.5462 64.4833 36.4162 64.9433 20.2762 63.8333C12.1562 63.2733 10.1562 61.8933 8.17617 54.2833C7.61617 52.1133 8.47617 49.2433 7.36617 47.5833C-0.733832 35.5133 1.93617 21.5633 0.116168 8.44334C-0.743832 2.29334 3.25617 -1.27666 9.29617 0.423338C18.7662 3.08334 28.2362 2.78334 37.8562 2.27334C78.1962 0.173338 118.496 0.283338 158.816 3.63334C187.536 6.02334 216.356 7.29334 245.126 9.08334C277.346 11.0933 309.566 13.1933 341.796 15.1433C350.236 15.6533 358.706 15.8733 367.156 16.0333C410.596 16.8733 454.046 17.2933 497.466 18.5733C522.046 19.2933 546.586 21.3833 571.146 22.8733C575.356 23.1333 579.526 23.6433 583.766 22.7133C587.576 21.8733 591.456 22.4833 595.126 23.7233C598.876 24.9833 601.216 28.2133 599.986 31.7133C598.106 37.0533 598.676 42.3033 598.936 47.6533C598.986 48.8033 599.316 50.0533 598.986 51.0933C595.576 61.8933 596.566 73.0633 596.066 84.1033C596.036 84.8633 595.976 85.6533 595.756 86.3733C595.136 88.3833 593.876 89.8833 591.626 89.4333C586.376 88.3733 581.156 87.1133 575.946 85.8733C574.836 85.6133 573.676 85.2433 572.746 84.6133C570.286 82.9533 569.096 79.4633 565.666 79.2533C558.806 78.8233 551.936 78.5033 545.076 78.3833C542.836 78.3433 540.456 78.6633 538.746 80.5933C536.396 83.2633 533.246 82.8833 530.166 82.7533C526.846 82.6133 526.646 82.1633 528.996 78.3333C529.886 76.8833 529.336 76.4933 528.106 76.2133C527.356 76.0433 526.556 76.1033 525.826 75.8933C525.136 75.6833 524.506 75.2633 523.276 74.6433C525.486 71.7533 529.296 72.0233 531.656 70.0133C531.766 69.2133 531.326 68.7833 530.326 68.7933C527.626 68.7933 525.076 68.5333 522.536 67.2133C520.576 66.1933 517.636 64.9433 516.056 65.7033C510.516 68.3633 505.726 65.4733 500.566 64.9333C491.846 64.0133 482.966 63.5333 474.226 64.1033C466.146 64.6233 458.236 64.5233 450.286 63.2033C449.166 63.0133 447.906 62.6033 446.896 62.8933C439.306 65.1233 431.726 63.2933 424.136 63.0233C418.906 62.8333 413.806 64.4833 408.726 65.2533C403.526 66.0433 399.026 65.6133 394.286 64.1133C392.856 63.6633 391.416 63.1433 389.936 62.9133C386.416 62.3633 383.636 66.9833 380.196 64.9133C376.996 62.9733 373.726 63.0833 370.336 62.5533C363.536 61.4833 356.886 63.6233 349.956 62.4333C343.486 61.3233 336.596 62.6633 329.896 62.8933C328.796 62.9333 327.526 63.1433 326.606 62.7133C316.166 57.7633 304.786 59.9333 293.896 58.4133C290.606 57.9533 289.606 59.5433 290.766 63.5233C291.396 65.6933 290.816 66.5933 289.176 66.5433C279.976 66.2433 270.776 65.7833 261.586 65.2133C259.906 65.1133 257.906 65.0533 256.716 62.9933C257.946 62.7933 259.256 62.1233 260.126 62.4933C267.616 65.7233 275.266 63.5733 282.856 63.4233C284.306 63.3933 284.946 62.3833 284.646 61.1533C284.386 60.1233 283.736 58.5633 282.986 58.3833C279.286 57.4833 275.506 56.4733 271.726 56.3933C244.926 55.8033 218.266 53.0133 191.526 51.5033C188.466 51.3333 185.386 51.5633 182.306 51.6033L182.106 51.8633L182.116 51.8733ZM525.366 58.3833C521.206 56.6633 517.266 57.6733 512.936 58.6033C517.316 59.2333 521.326 60.8933 525.366 58.3833ZM437.246 56.2333C433.696 54.3833 430.466 55.7033 425.216 56.3533C430.456 56.5633 433.686 58.8633 437.246 56.2333ZM450.626 56.4433C453.836 57.1233 457.246 58.5233 460.966 56.1133C457.216 54.3833 453.986 55.2333 450.626 56.4433ZM488.796 55.4533C488.086 55.6133 487.206 55.5933 486.716 56.0133C486.366 56.3033 486.246 57.4433 486.536 57.7933C487.626 59.1433 489.246 58.9233 490.726 58.6733C491.636 58.5233 491.946 57.7933 491.616 56.9633C491.486 56.6333 491.226 56.2533 490.936 56.1233C490.256 55.8233 489.526 55.6633 488.806 55.4533H488.796ZM64.7162 48.8633C64.3862 47.6433 63.4862 46.7933 62.3462 47.1333C61.4162 47.4133 60.3562 48.2733 59.9762 49.1533C59.4362 50.3833 61.4262 51.7533 62.9762 51.2833C64.1362 50.9333 64.7462 50.1033 64.7162 48.8633ZM194.216 44.7133C196.086 46.2633 198.266 46.7033 200.556 46.4433C201.086 46.3833 201.536 45.5833 202.026 45.1233C201.526 44.6333 201.096 43.8433 200.516 43.7233C198.336 43.2533 196.146 43.1933 194.216 44.7033V44.7133ZM384.436 56.6433C386.806 55.4833 389.766 59.0033 392.046 54.7533C389.166 55.9433 386.596 54.0233 384.436 56.6433ZM89.0262 40.1233C88.7262 39.9333 88.3762 39.5433 88.1362 39.6033C86.6562 39.9533 84.9362 38.2133 83.6362 40.0933C85.0662 40.1533 86.5062 40.2333 87.9362 40.2733C88.2962 40.2833 88.6562 40.1733 89.0162 40.1233H89.0262ZM234.246 47.7633C234.946 47.5533 235.656 47.3533 236.356 47.1433C235.726 46.8433 235.106 46.3133 234.476 46.2933C233.636 46.2733 232.316 45.7233 232.246 47.3133C232.246 47.4333 233.546 47.6133 234.236 47.7633H234.246ZM299.346 51.2633C300.356 51.5533 300.776 51.6833 301.196 51.8033C301.146 51.6633 301.116 51.4033 301.036 51.3933C300.686 51.3233 300.326 51.3333 299.346 51.2633ZM363.446 54.8133C362.536 54.8733 362.106 55.3433 362.366 56.1533C362.426 56.3433 363.036 56.5133 363.346 56.4533C363.956 56.3333 364.536 56.0533 365.136 55.8433C364.576 55.5033 364.016 55.1533 363.456 54.8133H363.446ZM403.536 56.9233C404.196 56.8133 404.956 56.8733 405.496 56.5633C406.046 56.2333 405.696 55.6533 404.726 55.5833C404.076 55.5333 403.296 55.5533 402.776 55.8633C402.236 56.1933 402.606 56.7333 403.536 56.9233ZM71.3362 48.4133C70.7762 48.0633 70.2262 47.6633 69.6262 47.4133C69.5162 47.3633 68.8962 48.0333 68.9562 48.1433C69.2362 48.7033 69.5762 49.4933 70.0762 49.6433C70.9062 49.8933 71.3862 49.2933 71.3462 48.4133H71.3362ZM547.946 72.5333L548.986 72.2933L548.166 71.8933L547.936 72.5233L547.946 72.5333ZM563.676 72.2633C563.506 71.9733 563.396 71.5133 563.146 71.4133C562.176 71.0033 561.676 71.3733 561.886 72.3433C561.936 72.5633 562.476 72.8233 562.776 72.8033C563.086 72.7833 563.376 72.4533 563.686 72.2633H563.676ZM113.766 39.0633C113.176 39.3233 112.576 39.5833 111.986 39.8433C112.506 40.1133 113.016 40.4533 113.566 40.6133C113.816 40.6833 114.276 40.4933 114.466 40.2733C114.976 39.6933 114.696 39.2533 113.766 39.0733V39.0633ZM48.5462 49.7233C48.5262 49.4433 48.5462 49.0033 48.4962 48.9933C48.1762 48.9333 47.8462 48.9833 47.5162 48.9933C47.5262 49.2433 47.4962 49.6733 47.5662 49.6933C47.8762 49.7733 48.2162 49.7233 48.5462 49.7233ZM261.386 49.2833C260.816 48.9833 260.236 48.4333 259.676 48.4533C259.106 48.4733 258.566 49.0633 258.006 49.4033C258.586 49.7033 259.176 50.2633 259.746 50.2433C260.306 50.2233 260.846 49.6333 261.396 49.2833H261.386ZM284.476 51.1033C284.136 51.0033 283.766 50.7533 283.456 50.8133C282.256 51.0333 282.186 51.5133 283.276 51.9833C283.566 52.1133 284.016 52.0033 284.326 51.8533C284.466 51.7933 284.426 51.3633 284.466 51.0933L284.476 51.1033ZM478.406 56.7533L478.496 56.0433L477.686 56.3133L478.406 56.7433V56.7533ZM499.646 58.5533C499.576 58.3033 499.576 57.9233 499.406 57.8233C499.136 57.6533 498.656 57.5033 498.446 57.6333C497.626 58.1433 497.746 58.6633 498.736 58.8733C498.996 58.9333 499.336 58.6633 499.636 58.5433L499.646 58.5533ZM271.956 49.2533L272.726 49.6733L272.806 48.9833L271.966 49.2533H271.956ZM339.716 53.5733L339.646 54.2033L340.516 53.9633L339.716 53.5833V53.5733Z" fill="var(--fill-0, black)"/>
</g>
</svg>
