<svg preserveAspectRatio="none" width="100%" height="100%" overflow="visible" style="display: block;" viewBox="0 0 864.086 168.851" fill="none" xmlns="http://www.w3.org/2000/svg">
<g id="Layer_1-2">
<path id="Vector" d="M495.505 87.35C494.495 85.88 493.055 85.12 491.305 85.04C487.315 84.87 483.325 84.64 479.335 84.67C474.025 84.72 468.725 84.99 463.535 85.17C462.955 86.19 462.525 87.04 461.995 87.83C461.865 88.02 461.415 87.99 460.805 88.13C460.485 87.35 460.145 86.53 459.775 85.62C459.295 85.42 458.705 84.96 458.105 84.95C450.135 84.89 442.145 85.07 434.185 84.84C427.885 84.65 421.525 85.52 415.285 84.03C409.315 85.11 403.545 82.07 396.335 83.61C394.795 84.26 391.965 85.64 388.915 84.7C383.465 83.02 377.805 83.34 372.255 82.89C366.985 82.46 361.625 83.09 356.305 83.23C354.975 83.27 353.635 83.33 352.325 83.18C348.285 82.73 344.355 83.11 340.705 84.63C333.945 83.33 327.395 81.88 320.725 83.64C312.805 83.03 304.885 83.64 296.965 83.53C285.665 83.36 274.365 83.3 263.065 83.19C260.135 84.98 257.275 83.5 254.385 83.05C253.415 82.9 252.315 82.62 251.455 82.91C247.215 84.34 242.835 81.91 238.605 83.54C236.065 84.51 233.395 84.64 230.765 83.71L230.965 83.84C228.095 81.9 224.945 81.04 221.325 81.35C220.475 82.14 219.525 83.03 218.415 84.05H209.575C207.795 83.06 206.075 82.09 204.035 80.95C196.995 81.08 189.725 80.6 182.375 81.96C177.175 82.92 171.725 82.69 166.385 82.64C150.685 82.49 134.995 82.06 119.295 82C115.485 81.99 112.235 80.11 107.725 79.88C107.285 80.03 106.045 80.47 104.295 81.08C103.195 80.6 101.685 79.95 99.5453 79.02C89.8353 79.15 79.4853 79.26 69.1453 79.44C67.4953 79.47 65.6053 79.32 64.2653 80.06C60.8353 81.93 57.2153 81.84 53.5453 81.97C42.8553 82.34 32.1853 82.76 21.4853 82.06C17.1053 81.77 13.0153 81.38 9.19534 78.66C7.12534 77.18 4.14534 76.98 2.14534 73.86C0.0653401 67.84 -1.28466 61.07 1.87534 53.64C2.83534 52.53 4.13534 51.04 5.42534 49.55C5.42534 47.16 5.44534 44.83 5.42534 42.51C5.35534 35.82 5.97534 29.25 7.69534 22.72C9.47534 15.96 10.6153 9.03 12.1253 1.73C12.4853 1.39 13.1953 0.72 13.9653 0C14.9753 0.17 15.9853 0.19 16.8953 0.5C31.2053 5.32 46.0053 7.79 60.8853 10.03C73.1253 11.88 85.4553 13 97.7753 13.47C107.435 13.83 117.065 14.91 126.755 14.8C136.105 14.69 145.465 14.95 154.815 14.91C170.515 14.85 186.205 14.78 201.905 14.51C211.925 14.34 221.925 13.73 231.945 13.43C237.615 13.26 243.305 13.32 248.975 13.26C250.625 13.24 252.285 13.19 253.935 13.12C257.605 12.95 261.275 12.66 264.945 12.6C274.955 12.42 284.975 12.33 295.725 12.2C296.525 12.57 298.015 13.27 299.485 13.96C300.165 13.93 300.975 14.13 301.455 13.83C304.095 12.16 307.015 11.51 310.055 11.49C316.355 11.45 322.725 10.29 328.905 12.65C329.785 12.98 330.895 12.81 331.885 12.72C333.815 12.54 335.425 10.56 337.565 11.59C339.925 12.73 342.125 11.18 344.435 11.32C346.435 11.44 348.445 11.35 350.745 11.35C351.185 11.97 351.715 12.71 352.395 13.67C354.375 14.68 355.765 12.5 357.615 12.12C358.685 12.82 359.745 13.51 360.885 14.25C362.245 13.34 363.585 12.45 365.345 11.28C367.575 12.01 370.065 12.82 373.125 13.82C376.475 14.02 380.455 14.25 384.345 14.48C385.355 13.36 386.215 12.41 387.075 11.47C389.495 10.83 390.715 12.42 391.205 13.99C394.845 14.65 397.725 12.54 400.705 13.84C403.675 11.97 406.705 15.23 409.455 13.94C412.485 12.52 415.085 15.24 418.175 14.04C420.925 12.97 423.925 15.2 427.825 14.91C431.295 12.75 435.985 13.11 440.665 13.11C444.615 13.11 448.515 14.94 452.495 13.38C455.715 14.18 458.935 14.97 462.605 15.88C472.335 14.26 482.585 14.49 492.845 15.66C494.455 15.84 496.125 15.58 497.765 15.44C500.085 15.25 502.545 14.62 504.585 16.04C506.645 17.47 508.325 15.04 510.245 15.87C512.065 16.66 513.935 17.33 516.795 18.45C519.075 18.27 522.435 18.24 525.695 17.67C530.035 16.91 534.305 17.1 538.655 17.45C547.635 18.16 556.645 18.54 565.645 19.04C569.315 19.24 572.995 19.29 576.655 19.57C590.975 20.68 605.315 21.57 619.585 23.1C629.535 24.17 639.595 24.28 649.445 26.34C650.415 26.54 651.435 26.5 652.435 26.59C662.755 27.44 673.095 28.07 683.385 29.21C696.315 30.64 709.215 32.42 722.115 34.19C731.375 35.47 740.605 36.96 749.845 38.41C762.715 40.44 775.435 43.21 788.065 46.38C794.215 47.92 800.375 49.5 806.595 50.68C811.915 51.69 816.905 53.38 821.525 55.91C824.805 59.45 823.785 63.1 821.145 65.87C818.775 68.37 817.345 71.25 815.985 74.13C813.515 74.91 811.295 75.61 808.635 76.44C807.915 78.03 807.105 79.8 806.385 81.4C806.965 82.03 807.295 82.71 807.805 82.89C810.955 83.99 814.145 84.98 817.805 86.16C818.955 87.66 820.345 89.47 821.555 91.03C820.715 95.43 817.195 97.26 814.815 100.23C814.585 101 814.365 101.97 814.015 102.9C813.675 103.8 813.195 104.66 812.645 105.83C809.825 106.52 806.925 107.23 803.885 107.98C802.705 108.88 801.395 109.88 800.005 110.93C790.585 111.61 781.625 108.02 772.385 107.63C770.585 108.21 770.375 111.51 767.645 110.22C766.955 109.15 766.255 108.08 765.515 106.95C760.305 105.77 755.115 104.61 749.715 104.7C747.755 104.73 745.775 104.24 743.815 103.94C741.835 103.64 739.875 103.06 737.895 103.01C735.245 102.94 732.585 103.26 730.275 103.4C729.085 104.14 728.225 104.67 727.375 105.2L727.505 105.06C725.185 104.89 722.865 104.72 720.545 104.54C718.435 104.38 716.325 104.22 713.455 104C715.955 102.93 718.445 104.47 719.405 101.79C710.485 99.21 708.195 98.9 700.815 99.26C700.555 100.14 700.295 101.07 699.965 102.22C698.485 102.22 696.715 102.63 695.225 102.14C690.705 100.66 686.115 100.59 681.445 100.53C678.115 100.49 674.775 100.09 671.475 99.62C662.225 98.3 652.785 98.79 643.635 96.6C642.365 96.29 640.965 96.33 639.645 96.44C632.265 97.02 624.995 96.03 617.695 95.16C604.425 93.58 591.055 93.5 577.745 92.66C576.445 92.58 575.145 92.37 574.005 92.24C573.625 90.99 573.345 90.05 572.955 88.73C571.935 88.38 570.745 87.96 569.425 87.51C568.735 88.55 568.215 89.35 567.455 90.5C566.555 90.79 565.305 91.49 564.035 91.52C561.375 91.59 558.715 91.3 556.045 91.18C551.385 90.97 546.715 90.77 542.055 90.56C538.085 90.37 534.055 91.31 530.165 89.65C529.345 89.3 528.215 89.69 527.235 89.75C521.255 90.09 515.295 90.4 509.355 89.01C507.195 88.5 504.855 88.75 502.375 88.64C504.025 85.04 507.825 88.8 509.325 85.9C509.095 85.7 508.875 85.34 508.645 85.34C505.325 85.3 501.995 85.31 497.805 85.31C497.425 85.58 496.355 86.34 495.285 87.09L495.565 87.35H495.505ZM305.535 55.67C308.025 57.05 309.715 57.99 311.165 58.79C314.865 58.6 318.345 59.03 321.455 58.15C328.795 56.08 335.905 57.51 343.175 58.56C349.035 55.74 354.795 57.59 360.635 59.48C364.145 58.42 367.615 57.39 371.075 56.31C371.265 56.25 371.325 55.77 371.495 55.36C367.885 54.57 364.295 54.28 360.605 54.37C349.625 54.63 338.645 54.52 327.665 54.84C324.235 54.94 321.155 54.04 318.935 53.26C314.175 54.12 310.335 54.81 305.545 55.67H305.535ZM613.855 93C610.465 90.12 608.585 88.52 606.525 86.77C604.915 87.1 603.405 87.41 602.285 87.64C601.075 89.5 600.325 90.91 601.895 92.96C604.915 94.21 608.345 93.5 613.855 92.99V93ZM688.675 98.24C686.209 97.0933 682.039 96.5867 676.165 96.72C676.445 97.58 676.685 98.34 676.875 98.94C680.775 98.94 684.365 98.95 687.955 98.91C688.195 98.91 688.425 98.48 688.665 98.24H688.675ZM296.875 58.44C298.055 57.55 299.005 56.84 300.045 56.05C298.365 55.1033 296.312 54.9633 293.885 55.63C293.685 57.28 294.815 57.78 296.875 58.43V58.44ZM381.245 56.25C383.465 56.47 385.415 56.73 387.365 56.83C388.245 56.87 388.465 56.3 388.015 55.58C385.785 54.89 383.605 54.83 381.245 56.25ZM288.605 41.76C287.495 41.18 286.715 40.74 285.895 40.37C285.695 40.28 285.375 40.43 285.115 40.47C285.355 40.9 285.525 41.62 285.845 41.7C286.615 41.88 287.455 41.76 288.605 41.76ZM365.595 39.59C364.145 39.25 362.715 38.66 361.415 39.93C362.885 40.51 364.285 40.71 365.595 39.59ZM401.405 41.2C403.085 41.82 404.865 43.34 406.325 41.2H401.405ZM437.085 41.17C435.205 41.32 433.875 41.42 432.535 41.53C433.905 41.96 435.305 43 437.085 41.17ZM472.525 43.57C474.005 44.07 475.589 44.1733 477.275 43.88C475.815 43.36 474.232 43.2567 472.525 43.57ZM660.455 95.78C662.515 97.69 664.485 97.35 666.575 95.92C664.635 94.26 662.685 94.08 660.455 95.78ZM626.345 91.78C626.345 91.94 626.355 92.1 626.365 92.25C627.155 92.21 627.945 92.17 628.735 92.14C628.735 91.99 628.725 91.83 628.715 91.68C627.925 91.71 627.135 91.75 626.345 91.78ZM403.515 55.28C402.685 55.02 401.865 54.57 401.025 54.54C399.255 54.47 398.895 55.34 399.735 57.35C401.275 57.31 402.865 57.38 403.515 55.28ZM418.295 41.75C417.015 40.5 415.855 40.48 414.705 42C416.055 42.69 417.235 42.9 418.295 41.75ZM232.755 43.7C233.195 43.39 233.675 43.13 234.035 42.76C234.145 42.65 233.895 41.95 233.815 41.95C233.315 41.95 232.815 42.07 232.325 42.16C232.465 42.67 232.615 43.19 232.755 43.7ZM638.655 95.06C639.175 94.74 639.685 94.42 640.205 94.09C639.795 93.7 639.435 93.09 638.955 92.96C637.885 92.66 636.705 93.54 637.135 94.15C637.445 94.59 638.135 94.77 638.655 95.06ZM518.945 83.63C518.745 83.79 518.365 84 518.395 84.11C518.455 84.37 518.665 84.75 518.885 84.81C519.715 85.04 520.075 84.68 519.755 83.95C519.675 83.76 519.225 83.73 518.945 83.63ZM276.865 41.08C276.575 41.41 276.285 41.75 275.995 42.08C276.285 42.19 276.575 42.39 276.865 42.39C277.155 42.39 277.575 42.28 277.715 42.07C278.075 41.53 277.735 41.16 276.865 41.08Z" fill="var(--fill-0, black)"/>
<path id="Vector_2" d="M705.715 153.06C705.645 151.41 705.595 150.44 705.555 149.48C703.465 147.32 701.815 147.08 696.655 148.14C697.895 149.12 699.135 150.1 700.395 151.09C699.765 151.78 699.385 152.57 698.935 152.61C697.285 152.76 695.605 152.78 693.955 152.63C685.305 151.86 676.675 150.88 668.015 150.24C657.695 149.48 647.355 149.04 637.025 148.38C627.025 147.74 617.035 147.06 607.055 146.25C604.755 146.06 602.505 145.28 600.445 144.82C599.485 143.58 598.705 142.58 597.735 141.32C596.565 142.51 595.675 143.41 594.515 144.6C593.175 144.72 591.535 144.88 589.605 145.05C588.305 144.31 586.875 143.49 585.075 142.46C584.225 143.14 583.245 143.91 581.845 145.02C575.285 145.94 568.275 145.07 561.315 144.73C557.395 144.54 553.295 145.12 549.425 143.52C548.315 143.06 546.825 143.52 545.515 143.52C541.185 143.52 536.865 143.52 532.475 143.52C531.415 142.74 530.355 141.96 528.945 140.92C528.015 141.52 526.965 142.2 525.955 142.85C511.565 142.85 497.225 142.85 482.875 142.85C468.855 142.85 454.815 142.72 440.825 142.4C426.535 142.07 412.205 142.14 397.595 141.34C396.975 140.28 396.345 139.19 395.635 137.96C393.015 136.38 392.665 139.41 390.975 140.61C390.315 140.75 389.365 141.1 388.395 141.15C385.195 141.31 382.805 139.38 380.395 137.88C376.495 137.73 372.925 138.23 369.655 141.13C357.225 141.13 344.545 141.21 331.865 141.11C317.845 141 303.825 140.77 289.805 140.51C285.805 140.43 281.815 140.07 277.815 139.82C277.155 139.78 276.465 139.55 275.825 139.64C265.805 141.13 255.865 138.81 245.865 139.04C236.185 139.27 226.485 139.2 216.805 139.13C210.795 139.09 204.795 138.8 198.785 138.65C178.115 138.13 157.425 138.68 136.765 137.44C135.445 137.36 134.065 137.23 132.785 137.48C124.815 139.05 116.785 137.48 108.795 137.93C107.535 138 106.225 137.33 104.995 137.02C104.145 135.83 103.395 134.77 102.645 133.72C99.1953 131.88 96.2153 134.68 93.0753 134.66C89.5853 134.64 87.6753 136.99 84.6553 138.45C78.0853 139.58 71.0153 139.31 64.0853 138.7C60.2153 138.36 56.2853 137.16 52.3953 136.33C47.7853 135.34 43.2053 134.8 38.4953 134.89C36.8753 134.92 35.2453 134.37 33.7853 134.11C33.0053 133.09 32.3953 132.31 31.6053 131.29C31.7253 125.52 31.1253 119.6 32.9853 113.71C33.7653 111.25 33.3953 108.42 33.6053 104.79C34.4153 102.93 35.6053 100.2 36.5653 97.99C40.0253 95.57 43.3953 95.57 46.7353 95.53C59.4353 95.4 72.1453 95.45 84.8353 95.15C97.1953 94.86 109.535 94.16 121.895 93.74C127.895 93.54 133.915 93.53 139.925 93.51C149.625 93.48 159.315 93.51 169.015 93.5C174.385 93.49 179.685 93.94 184.825 95.64C188.595 93.76 192.655 94.28 196.625 94.34C211.995 94.59 227.375 94.88 242.745 95.25C270.815 95.93 298.875 96.59 326.945 97.42C363.695 98.51 400.455 99.09 437.215 99.38C459.945 99.55 482.685 99.49 505.385 100.33C526.765 101.12 548.155 100.74 569.525 101.6C570.525 101.64 571.555 101.4 572.525 101.55C587.775 103.82 603.175 102.86 618.485 103.7C621.135 103.85 623.765 104.3 626.415 104.57C628.735 104.81 631.045 105.07 633.375 105.18C640.045 105.5 646.735 105.61 653.395 106.05C669.065 107.09 684.735 108.2 700.395 109.43C708.055 110.03 715.685 111.03 723.335 111.77C744.285 113.8 765.205 116.15 786.105 118.66C802.695 120.66 819.255 122.74 835.735 125.48C842.305 126.57 848.805 128.12 855.315 129.59C858.235 130.25 861.145 131.09 863.315 133.16C864.535 135.22 864.105 137.23 863.405 139.1C861.295 144.71 859.655 150.51 856.375 155.65C854.765 158.17 853.535 160.92 852.055 163.73C850.005 164.75 847.935 165.77 846.055 166.7C840.095 166.81 834.735 163.88 828.985 164.92C828.855 165.49 828.725 166.05 828.545 166.82C829.755 167.2 830.965 167.58 832.165 167.95C832.165 168.2 832.245 168.59 832.145 168.64C831.865 168.79 831.515 168.86 831.195 168.85C822.165 168.59 813.195 167.75 804.325 165.93C797.785 164.58 791.235 163.32 784.545 162.81C779.225 162.4 773.905 161.67 768.645 160.72C760.415 159.23 751.995 159.4 743.815 157.94C732.265 155.88 720.655 155.03 708.985 154.34C708.055 154.29 707.155 153.65 705.735 153.08L705.715 153.06ZM445.365 128.74C445.405 128.36 445.445 127.98 445.475 127.59C439.825 127.59 434.175 127.51 428.535 127.61C422.945 127.71 417.305 126.21 411.655 127.98C412.325 128.26 412.885 128.7 413.455 128.7C424.095 128.74 434.725 128.73 445.365 128.73V128.74ZM397.455 126.45C395.735 127.31 393.555 126.58 392.185 128.56C395.605 128.74 398.865 128.95 402.125 129.03C402.425 129.03 402.735 128.22 403.205 127.55C401.135 127.15 399.235 126.79 397.455 126.45ZM609.435 131.73C612.115 133.09 614.395 132.85 616.685 131.73H609.435ZM364.735 128.06C366.195 129.48 367.625 129.05 369.075 128.06C367.625 127.05 366.185 126.68 364.735 128.06ZM462.825 128.69C461.705 127.85 460.595 126.92 458.985 128.48C460.505 128.56 461.665 128.63 462.825 128.69ZM561.305 129.61C559.165 129.53 557.475 128.48 555.445 130.55C557.515 130.81 559.195 131.78 561.305 129.61ZM718.335 149.38C720.565 150.26 721.065 150.53 721.605 150.64C721.855 150.69 722.165 150.41 722.455 150.28C721.675 150.11 720.895 149.94 718.335 149.38ZM586.505 131.72C585.995 131.62 585.485 131.5 584.965 131.46C584.885 131.46 584.775 131.83 584.675 132.04C585.195 132.13 585.705 132.25 586.225 132.29C586.305 132.29 586.405 131.92 586.495 131.72H586.505ZM539.475 130.36C538.575 129.84 537.532 129.84 536.345 130.36H539.475ZM525.655 129.28C526.565 130.79 527.675 131.46 528.435 129.47C527.425 129.4 526.535 129.34 525.655 129.28ZM549.425 130.08C548.635 128.5 547.435 127.87 545.705 128.42C545.595 129.01 545.475 129.59 545.365 130.17C546.745 131.12 548.095 131.39 549.425 130.07V130.08ZM356.835 138.18C357.685 138.69 358.265 139.33 358.725 139.25C359.495 139.12 360.195 138.53 361.095 138.04C360.235 137.52 359.655 136.88 359.195 136.96C358.425 137.1 357.725 137.69 356.835 138.18ZM515.545 130.2L515.825 129.93H515.185L515.555 130.2H515.545ZM383.125 128.47C383.405 128.47 383.785 128.59 383.945 128.45C384.465 128 384.265 127.63 383.435 127.58C383.195 127.57 382.935 127.79 382.685 127.91C382.825 128.1 382.975 128.28 383.115 128.47H383.125ZM295.175 126.58C295.415 126.42 295.655 126.27 295.895 126.11C295.705 125.9 295.535 125.57 295.305 125.52C294.525 125.34 294.155 125.67 294.405 126.32C294.465 126.48 294.905 126.5 295.175 126.58Z" fill="var(--fill-0, black)"/>
<path id="Vector_3" d="M727.325 105.2C730.355 105.45 733.505 104.06 736.825 105.75C733.945 106.463 730.825 106.237 727.465 105.07L727.335 105.21L727.325 105.2Z" fill="var(--fill-0, black)"/>
<path id="Vector_4" d="M752.685 107.72C750.735 109.08 748.885 108.22 746.265 108.46C748.985 105.62 750.775 108.11 752.685 107.72Z" fill="var(--fill-0, black)"/>
<path id="Vector_5" d="M474.745 88.63C473.095 88.42 471.905 88.26 470.285 88.05C471.965 87.59 473.255 86.36 474.745 88.63Z" fill="var(--fill-0, black)"/>
<path id="Vector_6" d="M481.355 87.16C482.475 87.21 483.605 87.27 485.045 87.34C483.495 89.45 482.425 88.38 481.355 87.16Z" fill="var(--fill-0, black)"/>
<path id="Vector_7" d="M495.225 87.09C494.335 88.01 493.395 88.79 491.965 88.28C491.575 87.61 491.825 87.17 492.715 87.16C493.645 87.16 494.575 87.28 495.495 87.35L495.215 87.09H495.225Z" fill="var(--fill-0, black)"/>
<path id="Vector_8" d="M230.745 83.72H227.205C228.865 82.63 229.875 83.44 230.935 83.85L230.735 83.72H230.745Z" fill="var(--fill-0, black)"/>
</g>
</svg>
