<svg preserveAspectRatio="none" width="100%" height="100%" overflow="visible" style="display: block;" viewBox="0 0 515.625 459.638" fill="none" xmlns="http://www.w3.org/2000/svg">
<g id="Layer_1-2">
<path id="Vector" d="M59.5099 329.384C59.5599 329.604 59.6399 329.824 59.6799 330.044L59.8799 329.624C59.7499 329.544 59.6299 329.464 59.4999 329.384H59.5099Z" fill="var(--fill-0, black)"/>
<path id="Vector_2" d="M75.4599 73.1443C75.4599 73.1443 75.4599 73.0643 75.4599 73.0243C75.3299 72.9943 75.1999 72.9743 75.0799 72.9343L75.4499 73.1443H75.4599Z" fill="var(--fill-0, black)"/>
<path id="Vector_3" d="M62.2999 329.334C62.1799 329.234 62.0099 329.084 62.0099 329.084C62.0399 329.224 62.0699 329.364 62.0999 329.494C62.1999 329.474 62.2999 329.444 62.3999 329.424C62.3699 329.354 62.3399 329.284 62.3099 329.214C62.2099 329.174 62.1199 329.114 62.0099 329.084L62.2999 329.334Z" fill="var(--fill-0, black)"/>
<path id="Vector_4" d="M83.9299 51.0743C83.8499 51.1443 83.7699 51.2243 83.6899 51.3043C83.6199 51.1643 83.5899 51.0543 83.5999 50.9643C83.5399 50.9943 83.4599 51.0143 83.3799 51.0443C82.9399 51.1843 83.1699 51.6743 83.6899 51.3143C83.5599 51.4343 83.4299 51.5543 83.3199 51.6743C83.5199 51.6543 83.6999 51.6343 83.9099 51.6243L83.9399 51.0843L83.9299 51.0743Z" fill="var(--fill-0, black)"/>
<path id="Vector_5" d="M75.5599 62.8443C76.2799 62.9143 77.3599 62.7943 77.7399 62.3243C80.3199 59.1843 80.4599 54.6943 83.3099 51.6743C77.7199 52.1943 76.7399 57.1543 74.7199 61.1243C74.2699 62.0143 74.5499 62.7543 75.5599 62.8543V62.8443Z" fill="var(--fill-0, black)"/>
<path id="Vector_6" d="M157.1 414.774C157.12 414.904 157.15 415.034 157.17 415.154L157.26 414.784C157.2 414.784 157.15 414.784 157.09 414.774H157.1Z" fill="var(--fill-0, black)"/>
<path id="Vector_7" d="M59.6799 330.054C59.7799 330.034 59.8899 330.004 59.9899 329.984C59.9599 329.864 59.9199 329.754 59.8799 329.634L59.6799 330.054Z" fill="var(--fill-0, black)"/>
<path id="Vector_8" d="M59.9899 329.984C60.6899 332.354 61.8299 334.454 63.6299 336.164C63.1199 333.944 62.6099 331.724 62.0999 329.494C61.3999 329.654 60.6899 329.824 59.9899 329.984Z" fill="var(--fill-0, black)"/>
<path id="Vector_9" d="M466.04 359.284C466.09 359.604 466.04 359.484 466.04 359.284Z" fill="var(--fill-0, black)"/>
<path id="Vector_10" d="M467.38 358.124C467.72 358.224 467.59 358.144 467.38 358.124Z" fill="var(--fill-0, black)"/>
<path id="Vector_11" d="M466 359.024C466.02 359.134 466.03 359.224 466.04 359.284C466.04 359.194 466.06 359.084 466.11 358.994C466.36 358.964 466.63 358.944 466.93 358.994L466.95 358.964C466.66 358.184 467.09 358.094 467.37 358.124C467.29 358.094 467.18 358.064 467.03 358.014C466.14 357.694 465.8 357.994 465.98 358.924C465.98 358.934 465.98 358.944 465.98 358.954C464.91 358.954 463.84 358.944 462.77 358.934C462.94 359.644 463.1 360.364 463.27 361.074C464.06 360.194 464.8 359.234 465.99 359.014L466 359.024ZM466.86 358.954C466.62 358.954 466.38 358.954 466.13 358.954C466.23 358.804 466.44 358.734 466.86 358.954Z" fill="var(--fill-0, black)"/>
<path id="Vector_12" d="M462.78 358.934C462.75 358.824 462.73 358.704 462.7 358.594C462.57 358.694 462.48 358.794 462.37 358.894C462.37 358.904 462.37 358.924 462.37 358.934C462.51 358.934 462.64 358.934 462.78 358.934Z" fill="var(--fill-0, black)"/>
<path id="Vector_13" d="M83.5999 50.9643C84.4099 50.6443 83.6299 50.5043 83.5999 50.9643Z" fill="var(--fill-0, black)"/>
<path id="Vector_14" d="M166.4 420.364C165.43 419.734 164.46 419.104 163.49 418.474C162.49 417.844 161.48 417.204 160.48 416.574C160.32 416.484 160.17 416.404 160.01 416.314C160.05 416.494 160.09 416.674 160.14 416.854C161.15 417.464 162.17 418.064 163.18 418.674C164.15 419.334 165.13 419.994 166.1 420.654C166.22 420.574 166.32 420.484 166.43 420.404C166.43 420.394 166.41 420.384 166.4 420.374V420.364Z" fill="var(--fill-0, black)"/>
<path id="Vector_15" d="M159.52 414.234C159.54 414.334 159.57 414.434 159.59 414.534C159.73 414.494 159.86 414.464 160 414.424C159.89 414.354 159.78 414.284 159.66 414.214C159.61 414.214 159.56 414.214 159.51 414.214L159.52 414.234Z" fill="var(--fill-0, black)"/>
<path id="Vector_16" d="M157.18 415.164C157.35 415.124 157.53 415.074 157.7 415.034C157.56 414.954 157.41 414.874 157.27 414.794L157.18 415.164Z" fill="var(--fill-0, black)"/>
<path id="Vector_17" d="M157.7 415.024C158.47 415.454 159.23 415.874 160 416.304C159.86 415.714 159.73 415.124 159.59 414.534C158.96 414.694 158.33 414.854 157.7 415.024Z" fill="var(--fill-0, black)"/>
<path id="Vector_18" d="M72.7199 67.1343L72.1699 67.5143L72.7899 67.7643L72.7199 67.1343Z" fill="var(--fill-0, black)"/>
<path id="Vector_19" d="M73.3799 75.8643C73.2999 75.9043 73.2499 75.9643 73.1699 76.0043C73.2599 76.0943 73.3599 76.1943 73.4499 76.2843C73.5099 76.2543 73.5499 76.2143 73.6099 76.1943C73.5399 76.0743 73.4499 75.9743 73.3799 75.8643Z" fill="var(--fill-0, black)"/>
<path id="Vector_20" d="M75.0299 73.3943C74.2399 73.8643 73.4399 74.3343 72.6499 74.7943C72.9099 75.1443 73.1499 75.4943 73.3799 75.8643C74.3399 75.2943 74.8999 74.4843 75.0299 73.3943Z" fill="var(--fill-0, black)"/>
<path id="Vector_21" d="M75.0899 72.9343C75.0899 73.1043 75.0499 73.2443 75.0299 73.4043C75.1699 73.3243 75.3199 73.2343 75.4599 73.1543L75.0899 72.9443V72.9343Z" fill="var(--fill-0, black)"/>
<path id="Vector_22" d="M72.7399 73.9343L72.4799 74.5443L72.5899 74.8243C72.5899 74.8243 72.6299 74.8043 72.6399 74.7943C72.6299 74.7743 72.6099 74.7543 72.5999 74.7343C72.6299 74.5343 72.7299 73.9343 72.7299 73.9343H72.7399Z" fill="var(--fill-0, black)"/>
<path id="Vector_23" d="M102.57 395.244C102.42 395.124 102.22 394.944 102.22 394.944L102.43 395.234C102.43 395.234 102.7 395.354 102.71 395.364C102.71 395.364 102.71 395.364 102.7 395.364L103.18 395.284L102.57 395.254V395.244Z" fill="var(--fill-0, black)"/>
<path id="Vector_24" d="M514.91 247.024C516.34 236.394 515.56 225.854 513.15 215.424C511.62 208.824 510.02 202.234 508.66 195.594C506.75 186.284 502.54 178.044 498.07 169.914C498.35 165.714 498.46 161.504 498.24 157.264C498 152.534 497.74 147.844 498.15 143.034C498.47 139.284 498.37 135.004 495.88 131.434C495.33 130.654 495.61 129.294 495.56 128.784C495.79 126.394 497.85 125.174 497.17 123.084C496.12 122.114 495.04 121.124 493.8 119.974C492.66 117.074 491.46 114.004 490.34 111.164C491.38 107.134 490.9 103.544 489.04 100.204C486.89 96.3543 484.98 92.2943 482.3 88.8343C476.2 80.9643 469.49 73.5943 462.16 66.8443C459.46 64.3543 456.29 62.3743 453.65 59.8343C448.56 54.9443 442.7 51.0743 436.88 47.2543C426.72 40.5743 416.02 34.7743 404.99 29.5943C387.26 21.2643 369.06 14.1443 349.8 10.4243C340.5 8.62432 331.09 7.11432 321.65 6.16432C320.87 5.79432 319.99 5.52432 318.96 5.40432C313.33 4.77432 307.33 4.68432 302.25 2.54432C293.9 -0.975676 285.62 -0.0556763 277.22 0.704324C269.98 1.35432 262.43 1.15432 255.85 4.73432C251.96 6.84432 248.44 7.23432 244.24 6.10432C241.16 5.27432 237.5 6.22432 234.64 5.06432C228.41 2.52432 223.77 4.98432 219.05 8.42432C214.79 11.5243 210.49 14.5743 206.19 17.6343C202.53 17.8843 199.2 18.1243 196.41 18.3143C191.45 20.4243 187.29 22.4843 182.97 23.9943C181.39 24.0943 179.83 24.2443 178.28 24.5143C172.74 25.4843 168.19 25.0843 163.8 20.8143C159.36 16.5043 153.11 18.3143 147.55 17.8143C143.76 17.4743 142.89 20.4143 141.12 22.4343C139.66 24.0943 137.77 24.4543 135.7 24.7243C133.74 24.9743 131.18 25.0343 130.02 26.2643C123.81 32.8043 113.19 34.6043 110.67 45.3743C109.87 48.8143 105.57 51.4943 102.72 54.3743C98.7399 58.4043 94.6799 62.3643 90.5499 66.2443C87.2599 69.3343 84.0799 72.2043 78.8199 69.3543C77.0099 68.3743 75.5399 70.7343 75.4799 73.0143C76.8599 73.2943 78.5499 73.0843 78.8799 75.0643C79.0999 76.3843 78.3599 77.4043 77.1599 77.8843C75.3999 78.5843 74.4699 77.3343 73.4599 76.2943C71.5999 77.2743 70.8299 79.0643 70.0899 80.8943C68.2799 85.3643 66.4099 89.8143 64.6199 94.2943C63.9699 95.9143 63.0099 96.9543 61.1999 97.2643C53.4899 98.5443 50.8499 104.444 50.2599 110.414C49.5199 110.804 48.7799 111.194 48.0399 111.574C48.7099 111.934 49.3899 112.284 50.1099 112.674C50.0499 114.204 49.8899 115.634 49.6099 116.974C47.2099 118.534 44.7199 119.964 42.2699 121.454C33.2199 130.434 24.0899 139.284 16.4599 149.634C12.0299 155.644 7.56991 161.554 5.87991 168.774C4.19991 175.944 0.449915 182.524 0.0999145 190.024C0.0499145 191.124 -0.0400855 192.244 0.0199145 193.344C0.539915 202.934 1.76991 212.454 4.89991 221.524C6.96991 227.524 8.39991 233.524 8.46991 239.094C10.8699 244.964 13.9599 249.464 17.7799 253.474C19.5499 255.334 21.4599 257.084 23.0599 259.074C24.4099 260.764 26.3499 262.714 26.3899 264.584C26.4899 268.714 28.2899 271.764 30.5699 274.624C35.4399 289.244 41.1599 303.504 49.5799 316.564C52.5099 321.114 54.6699 326.344 59.5199 329.404C58.0499 323.324 54.2699 318.314 51.7499 312.714C50.9899 311.024 49.7399 309.264 51.4199 307.374C52.1199 307.754 53.1499 307.954 53.3899 308.504C56.4299 315.384 59.3699 322.304 62.3199 329.224C64.6799 330.164 65.0499 332.974 66.9499 334.344C65.9899 335.044 64.9999 335.784 64.0199 336.534C63.8899 336.424 63.7699 336.294 63.6399 336.174C63.6799 336.354 63.7199 336.534 63.7699 336.724L64.0499 336.564C64.4899 337.704 64.7299 338.974 65.3899 339.954C76.3599 356.034 86.8499 372.494 101.27 385.874C105.14 389.464 108.88 393.144 109.78 398.704L110.81 398.524C110.81 398.524 110.13 398.734 110.11 398.744C107.76 399.824 108.54 401.454 109.81 402.474C120.43 410.994 131.13 419.414 141.84 427.824C142.43 428.284 143.31 428.474 144.09 428.584C145.36 428.764 146.71 428.364 146.62 426.934C146.47 424.574 146.11 422.164 145.43 419.904C144.39 416.454 142.93 413.134 141.77 409.724C141.25 408.214 140.9 406.514 142.67 405.484C144.19 404.604 145.81 404.884 147.19 405.814C149.5 407.364 151.71 409.074 153.96 410.714L153.76 410.664C153.68 410.644 153.61 410.624 153.61 410.624C153.71 410.684 153.81 410.744 153.91 410.804C152.41 414.254 152.62 414.534 157.11 414.804C156.96 414.044 156.82 413.284 156.67 412.524C156.77 412.584 156.87 412.644 156.96 412.704C156.96 412.704 156.94 412.684 156.91 412.654C156.82 412.564 156.64 412.394 156.64 412.394C157.65 413.014 158.66 413.624 159.66 414.244C162.1 413.984 164.18 415.104 166.16 416.214C168.44 417.484 168.26 419.024 166.42 420.414C169.59 424.654 173.35 427.964 178.55 429.704C180.62 430.394 182.26 432.354 184.08 433.784C180.9 435.544 180.99 438.574 181.31 441.694H181.03C181.26 442.704 181.48 443.714 181.71 444.714L181.96 444.584C189.91 449.734 198.4 453.294 207.96 454.174C223.69 455.624 239.39 457.564 255.14 458.724C266.05 459.534 277.03 459.514 287.98 459.624C296.09 459.704 304.18 459.484 312.14 457.314C316.42 456.144 320.94 455.874 325.36 455.264C334.6 453.994 343.84 452.724 353.1 451.544C358.11 450.904 361.86 447.144 366.58 446.084C379.82 443.094 391.75 437.134 403.37 430.434C410.46 426.344 417.12 421.774 420.33 413.704C421.42 410.974 423.73 409.354 425.93 407.484C430.24 403.824 435.1 400.254 437.92 395.564C440.69 390.954 444.54 387.724 447.8 383.784C451.39 379.454 456.86 375.654 457.29 369.954C457.64 365.304 461.41 364.444 462.94 361.454L463.37 361.534C463.34 361.384 463.3 361.244 463.27 361.094C463.18 361.194 463.09 361.304 462.99 361.394C461.5 360.864 461.11 360.074 462.36 358.904C462.55 357.354 462.58 355.764 462.98 354.264C463.27 353.154 463.67 352.054 464.06 350.954C464.98 349.824 465.79 348.544 466.48 347.104C467.54 344.894 469.98 343.344 471.79 341.504C471.77 341.544 471.56 342.074 471.56 342.074L471.96 341.704C471.96 341.704 471.81 341.504 471.79 341.494L471.95 341.714C477.69 338.834 480.96 336.124 482.66 330.044C483.5 327.034 484.91 324.934 487.23 324.294C492.5 322.854 493.99 319.154 494.51 314.504C494.87 311.224 495.69 308.004 497.96 305.614C502.24 301.114 503.98 295.484 505.11 289.744C506.28 283.794 509.15 278.344 509.87 272.294C509.96 271.574 510.77 270.474 511.4 270.364C516.1 269.484 515.88 265.854 515.1 262.804C513.74 257.494 514.18 252.334 514.89 247.054L514.91 247.024ZM486.85 198.144C486.77 197.994 486.7 197.844 486.62 197.694C484.85 194.284 484.4 190.554 483.65 186.894C483.95 187.364 484.32 187.924 484.79 188.614C485.27 188.534 485.75 188.464 486.24 188.384C486.83 190.224 487.54 192.024 488.3 193.814C487.85 195.264 487.37 196.704 486.86 198.144H486.85ZM61.1099 134.974C62.8399 132.274 64.1099 129.234 65.2499 126.214C65.7199 124.974 66.2199 123.754 66.7399 122.534C68.1399 121.324 69.8299 120.414 72.0099 120.024C73.6699 121.024 75.2099 121.944 77.1099 123.094C79.9899 119.744 81.0799 115.094 84.9799 112.724C86.8799 112.314 87.8799 113.394 87.5599 115.034C86.8699 118.644 85.8199 122.184 84.7699 126.344C82.1099 130.124 79.0499 134.274 76.1899 138.574C70.1799 147.604 66.1499 157.384 65.3399 168.334C65.2399 169.734 64.6999 171.104 64.3699 172.494C62.7499 167.414 61.0299 162.364 59.6599 157.214C61.9799 150.174 65.4699 143.574 67.7099 136.564C65.8099 134.984 65.6499 135.034 64.2999 136.354C62.8299 137.794 62.4399 140.494 59.6599 140.414C59.3999 140.134 58.9199 139.834 58.9599 139.624C58.9899 139.454 59.0199 139.274 59.0499 139.104C59.5599 137.724 60.2399 136.354 61.1199 134.974H61.1099ZM343.52 378.274C343.34 378.204 343.17 378.124 343 378.044C344.34 377.384 345.63 376.644 346.88 375.864C347.29 376.174 347.56 376.594 347.4 377.184C347.37 377.294 347.33 377.374 347.29 377.474C346.05 377.774 344.79 378.034 343.51 378.274H343.52ZM473.82 142.834C473.96 143.214 473.77 143.514 473.27 143.554C473.17 143.554 473.07 143.534 472.96 143.494C473.24 143.274 473.53 143.054 473.82 142.834ZM123.96 329.024L123.85 329.004C123.91 328.634 123.96 328.264 124.02 327.884C124 328.264 123.98 328.634 123.96 329.014V329.024ZM187.32 260.904C186.19 259.914 185.97 258.744 186.07 256.654C186.2 254.054 186.47 251.474 186.73 248.884C188.09 252.484 188.55 256.124 188.94 259.704C188.39 260.094 187.85 260.504 187.32 260.904ZM184.28 248.024C184.6 247.554 185.09 247.044 185.61 246.314C185.72 246.524 185.8 246.724 185.89 246.934C185.36 247.374 184.82 247.784 184.28 248.024ZM82.2199 221.854C81.7699 220.594 81.2999 219.344 80.8399 218.084C81.3399 214.724 82.9399 211.534 82.5799 208.004C84.8199 215.214 87.6399 222.344 85.7799 230.854C85.6399 230.754 85.5099 230.654 85.3699 230.554C84.2399 227.684 83.2599 224.754 82.2199 221.844V221.854ZM98.0299 243.364C97.9999 243.054 98.2699 242.704 98.4099 242.374C99.1799 242.954 99.2499 243.584 98.6099 244.254C98.3999 243.954 98.0599 243.674 98.0199 243.364H98.0299ZM82.5099 207.884C80.9199 208.634 79.5199 210.084 77.8599 208.844C76.3199 202.554 75.1299 196.174 74.0299 189.794C73.7399 188.104 74.3899 186.254 74.6199 184.464C77.0699 184.894 77.7699 186.734 78.9099 188.284C77.5299 195.204 78.6099 201.754 82.5199 207.884H82.5099ZM101.42 275.594C101.61 275.474 102.67 276.294 102.96 276.864C103.47 277.884 103.49 279.004 102.52 279.904C102.01 279.454 101.27 279.104 101.02 278.534C100.58 277.544 100.25 276.334 101.42 275.604V275.594ZM110.81 308.484C108.79 303.504 106.82 298.494 104.61 292.974C106.21 293.434 107.28 293.424 107.51 293.854C109.67 298.024 111.78 302.234 113.68 306.534C114.08 307.434 113.95 309.234 113.33 309.764C112.31 310.634 111.26 309.614 110.81 308.484ZM120.2 337.814C121.3 337.164 122.32 337.924 122.88 338.874C123.44 339.834 123.88 340.954 124.03 342.044C124.07 342.344 123.91 342.714 123.68 343.064C123.06 343.144 122.41 343.414 121.73 343.964C121.49 343.804 121.29 343.534 121.14 343.174C120.7 342.114 120.26 341.064 119.89 340.164C119.99 339.214 119.82 338.024 120.2 337.794V337.814ZM464.05 307.344C464.66 307.174 465.34 307.234 466 307.254C465.52 307.794 465.03 308.324 464.49 308.804C464.36 308.924 463.86 308.854 463.74 308.704C463.32 308.194 463.41 307.514 464.05 307.344ZM466.73 306.564C466.66 306.664 466.57 306.754 466.47 306.834C466.49 306.594 466.52 306.354 466.54 306.114C466.61 306.274 466.78 306.494 466.73 306.574V306.564ZM316.08 18.6243L316.68 18.3543L316.79 18.8443L316.08 18.6243ZM126.95 354.294C127.54 354.754 128.44 355.104 128.64 355.694C128.71 355.904 128.76 356.134 128.8 356.354C127.98 355.954 127.18 355.524 126.38 355.084C126.58 354.814 126.79 354.554 126.95 354.284V354.294ZM309.94 416.944C311.65 414.524 314.08 413.744 316.92 414.004C317.15 414.024 317.34 414.524 317.54 414.794C317.47 415.174 317.51 415.614 317.32 415.914C315.97 418.004 314.04 419.154 311.54 419.024C310.91 418.994 310.26 418.444 309.72 418.004C309.58 417.894 309.73 417.224 309.93 416.934L309.94 416.944ZM380.51 29.4143C380.92 30.1043 381.45 31.0043 382.08 32.0543C382.23 32.1343 382.54 32.3843 382.88 32.4643C388.91 33.8943 394.94 35.2343 400.69 37.7243C406.09 40.0543 411.71 41.8643 417.24 43.8743C422.14 45.6543 426.53 48.2643 430.5 51.6543C441.55 61.1043 450.2 72.3943 456.71 84.9943C455.93 86.8743 454.78 86.6543 454.03 85.9443C451.36 83.4143 448.84 80.7343 446.24 78.1343C442.09 73.9743 438.16 69.6243 433.45 66.0043C429.35 62.8543 425.29 59.8043 420.64 57.4543C416.06 55.1343 411.84 52.1043 407.4 49.4843C398.84 44.4343 390.11 39.7043 380.96 35.7743C378.96 34.9143 377.13 33.6243 374.51 32.1343C376.83 30.1143 378.04 28.5843 380.5 29.4243L380.51 29.4143ZM370.07 26.9043C369.45 28.8243 368.25 28.1543 367.03 26.9043H370.07ZM161.01 26.3043L161.43 26.9943L160.71 27.0543L161.01 26.3043ZM16.9899 217.184C14.4599 204.604 14.6199 192.054 18.3999 179.934C17.3899 190.094 17.2099 200.324 17.7599 210.574C18.0399 215.804 18.5299 221.014 19.1699 226.194C18.3399 223.224 17.5999 220.224 16.9899 217.184ZM66.8299 336.524C66.8299 335.854 66.9299 335.174 67.0299 334.444C67.1499 335.364 67.2799 336.284 67.3999 337.204C67.1999 336.974 66.8299 336.754 66.8199 336.524H66.8299ZM131.24 373.004C130.86 372.384 130.24 371.784 130.18 371.124C130.06 369.994 130.79 369.584 131.42 370.324C131.86 370.834 131.9 371.714 132 372.444C132.02 372.594 131.5 372.824 131.24 373.014V373.004ZM145.66 399.644C140.79 401.284 139.34 400.464 138.23 395.424C138.07 394.704 138.11 393.684 138.52 393.194C138.85 392.794 140.05 392.674 140.57 392.964C143.24 394.414 145.86 395.984 148.48 397.534C148.43 397.854 148.75 398.014 149.32 398.024C149.39 398.064 149.47 398.114 149.54 398.154C148.27 398.644 146.99 399.194 145.66 399.644ZM149.81 398.044C149.81 398.044 149.82 398.014 149.83 397.994C149.87 397.994 149.91 397.994 149.96 397.994C149.91 398.014 149.86 398.034 149.82 398.054L149.81 398.044ZM151.23 378.774L151.31 379.364L151.18 379.344L151.23 378.784V378.774ZM188.01 438.094C184.98 438.254 184.31 436.294 184.45 433.814C186.78 432.724 188.83 432.924 189.84 435.634C190.31 436.894 189.21 438.034 188.01 438.104V438.094ZM198.35 438.054C198.62 437.894 198.89 437.604 199.15 437.624C199.51 437.644 199.95 437.804 200.19 438.064C200.65 438.564 201.09 439.094 201.52 439.624C201.02 439.454 200.46 439.394 199.91 439.264C199.32 439.114 198.86 438.484 198.34 438.074L198.35 438.054ZM202.66 440.494C202.66 440.494 202.69 440.494 202.7 440.484C202.72 440.564 202.75 440.654 202.8 440.744C202.76 440.644 202.71 440.574 202.66 440.494ZM203.04 440.444C203.43 440.554 203.11 441.284 203.04 440.444ZM219.38 443.604C228.56 440.554 236.77 444.044 245.99 447.354C233.89 451.744 229.18 450.994 219.38 443.604ZM283.86 414.594L282.96 414.454L283.96 413.984L283.86 414.584V414.594ZM329.93 427.284C321.12 432.324 311.9 433.444 302.31 429.814C300.85 429.264 299.49 428.044 299.87 426.134C300.24 424.224 301.93 423.994 303.49 423.544C311.06 422.914 318.62 422.224 326.2 421.744C327.24 421.674 328.38 422.604 329.4 423.184C330.76 423.954 331.11 426.614 329.93 427.284ZM351.44 423.994C350.33 427.814 346.99 426.554 344.35 426.814C342.73 426.974 341.11 427.234 339.5 427.204C338.9 427.194 337.91 426.554 337.82 426.074C337.7 425.434 338.11 424.274 338.62 424.024C340.05 423.334 341.66 422.994 341.84 422.934C348.91 421.334 352.05 421.884 351.44 424.004V423.994ZM355.33 416.934C355.96 417.004 356.59 417.064 357.26 417.144C357.23 417.154 357.21 417.174 357.18 417.184C356.56 417.104 355.95 417.014 355.33 416.934ZM417.29 389.614C413.55 394.854 408.89 399.434 404.91 404.524C403.57 406.224 402.02 407.234 400.19 408.084C398.35 408.934 396.13 409.434 394.8 410.794C388.88 416.854 382.41 416.704 374.77 414.344C368.94 412.544 362.85 414.414 357.29 417.134C352.69 414.264 347.97 415.934 343.24 416.884C342.15 417.104 340.55 417.434 340.54 415.724C340.54 414.764 341.36 413.484 342.2 412.904C344.19 411.544 346.47 410.614 348.51 409.314C349.86 408.454 351.67 407.484 352.12 406.174C355.78 395.504 365.77 392.154 374.15 387.274C377.56 385.294 380.89 383.224 384.15 381.084C385.66 381.204 387.17 381.494 388.69 381.924C392.01 382.864 395.11 382.024 398.2 381.234C401.32 380.434 404.56 379.674 407.37 378.194C412.23 375.644 417.92 374.664 421.99 370.624L421.49 370.424C421.49 370.424 421.85 370.464 421.84 370.444C424.56 370.694 427.14 370.494 429.62 369.924C427.07 377.334 421.81 383.304 417.31 389.614H417.29ZM494.49 240.084C494.26 241.114 494.67 242.504 493.07 242.964C491.46 240.914 492.14 238.504 492.24 236.294C492.55 229.524 492.14 222.844 490.53 216.244C490.18 214.834 489.53 213.294 489.78 211.964C489.95 211.034 490.04 210.124 490.05 209.234C490.48 206.884 491.16 204.644 491.98 202.494C492.55 203.974 493.07 205.474 493.5 207.014C494.6 211.004 495.53 214.924 495.23 219.094C494.72 226.084 496.08 233.134 494.5 240.084H494.49Z" fill="var(--fill-0, black)"/>
<path id="Vector_25" d="M483.39 335.124C483.39 335.124 483.15 335.324 483.17 335.304L483.14 335.324C483.14 335.324 483.24 335.364 483.29 335.384C483.27 335.444 483.25 335.514 483.22 335.574C483.31 335.534 483.41 335.494 483.5 335.464C483.66 335.524 483.81 335.574 483.81 335.564C484.15 334.854 483.99 334.694 483.37 335.124H483.39Z" fill="var(--fill-0, black)"/>
<path id="Vector_26" d="M478.88 342.714C478.36 342.054 478.42 342.294 478.51 342.574C478.35 342.734 478.36 342.804 478.57 342.784C478.59 342.854 478.6 342.904 478.58 342.924L478.89 342.724L478.9 342.714C478.9 342.714 478.89 342.714 478.88 342.714Z" fill="var(--fill-0, black)"/>
<path id="Vector_27" d="M42.1899 121.114C42.1899 121.244 42.1599 121.374 42.1599 121.504C42.1899 121.484 42.2199 121.464 42.2599 121.444C42.3499 121.354 42.4399 121.264 42.5299 121.174C42.4199 121.144 42.2999 121.134 42.1899 121.114Z" fill="var(--fill-0, black)"/>
<path id="Vector_28" d="M38.5099 119.794C39.5699 121.094 40.9499 120.914 42.1899 121.104C42.3299 118.694 43.6699 116.834 45.1099 115.024C42.3199 115.824 39.6999 116.854 38.5099 119.794Z" fill="var(--fill-0, black)"/>
</g>
</svg>
