<svg preserveAspectRatio="none" width="100%" height="100%" overflow="visible" style="display: block;" viewBox="0 0 1264.42 523.002" fill="none" xmlns="http://www.w3.org/2000/svg">
<g id="Layer_1-2">
<path id="Vector" d="M1264.42 166.237C1262.32 170.387 1261.81 174.857 1260.76 179.197C1260.24 181.337 1260.51 185.247 1256.43 183.967C1254.84 183.467 1253.19 181.587 1252.54 179.947C1250.59 175.047 1248.75 170.047 1247.54 164.927C1245.38 155.827 1244.61 146.577 1248.18 137.637C1250.45 131.957 1255.47 126.087 1243.11 126.707C1239.96 126.867 1242.82 118.707 1237.38 117.557C1234.18 119.777 1235.39 123.557 1234.44 126.537C1231.66 135.197 1230.98 135.867 1221.78 134.397C1217.86 133.767 1214.01 132.697 1210.12 131.847C1194.55 128.427 1179 124.937 1163.41 121.627C1147.51 118.247 1131.57 115.057 1115.63 111.787C1116.62 107.667 1119.53 107.327 1122.03 107.247C1126.66 107.087 1131.31 107.597 1135.95 107.627C1141.29 107.667 1144.01 105.467 1142.71 100.467C1140.75 92.9365 1141.81 86.3165 1145.26 79.6565C1149.66 71.1465 1146.61 62.3165 1143.74 54.7665C1140.81 47.0765 1134.72 40.7165 1136.75 31.4265C1137 30.2665 1134.48 28.5165 1133.27 27.0065C1128.89 21.5265 1126.61 16.2965 1130.92 9.08654C1133.58 4.64654 1129.32 -0.483463 1124.24 0.0365369C1083.23 4.24654 1042.06 2.33654 1000.97 3.34654C987.694 3.67654 974.394 4.12654 961.184 5.41654C955.764 5.94654 948.864 4.57654 945.564 11.3365C960.564 11.1165 975.564 13.4665 990.574 11.2365C994.524 10.6465 998.474 11.0565 1001.46 14.5165C1002.88 16.1665 1005.16 16.4065 1006.57 14.8065C1012.28 8.34654 1019.92 10.1065 1027 9.83654C1043.5 9.21654 1060.06 9.42654 1076.51 8.16654C1083.92 7.59654 1090.84 7.86654 1097.97 9.68654C1108.87 12.4765 1114.57 16.1865 1112.42 19.8765C1108.71 26.2465 1102.14 24.6265 1096.4 24.7065C1091.8 24.7665 1087.18 23.7465 1082.59 23.9065C1077.35 24.0865 1072.15 25.1865 1066.91 25.5865C1062.31 25.9365 1057.55 25.2365 1053.11 26.1565C1047.93 27.2265 1042.94 29.4265 1037.66 27.2465C1032.51 25.1265 1031.03 29.9865 1027.86 31.4865C1023.48 33.5565 1017.38 31.5865 1012.28 32.6365C1006.93 33.7365 1002.13 35.9965 999.404 28.7465C999.124 28.0165 994.964 27.5565 994.024 28.4565C985.854 36.2565 977.244 33.9665 968.424 30.2165L968.524 30.2765C962.354 36.8065 955.374 35.2765 948.254 32.3065L948.314 32.4565C945.304 33.7665 942.314 36.1565 939.274 36.2165C904.214 36.9365 869.674 44.4165 834.434 43.4965C819.974 43.1165 805.464 46.3465 790.934 47.1865C764.444 48.7265 737.834 48.7765 711.444 51.2165C690.274 53.1765 669.084 52.6265 647.944 54.1365C631.394 55.3165 614.824 56.2165 598.244 56.7965C572.394 57.6965 546.524 58.2965 520.664 58.8565C494.124 59.4265 467.514 61.1065 441.044 59.8765C415.234 58.6665 389.554 60.2165 363.814 59.9965C331.974 59.7265 300.124 59.1065 268.284 58.8965C242.444 58.7265 216.594 59.0365 190.744 58.9365C181.484 58.9065 171.354 61.0865 163.264 56.5165C154.544 51.5865 145.854 53.0565 137.054 52.4665C120.584 51.3665 104.054 50.8765 87.6336 49.2165C80.5436 48.5065 73.0636 48.0365 66.6136 43.7965C64.5136 42.4165 61.6036 41.4465 59.1336 41.5665C44.8536 42.2565 31.7236 37.8665 18.5236 33.3565C13.3036 31.5765 10.8036 34.1865 10.4236 40.7765C9.55361 55.7965 4.62361 70.4965 6.91361 85.8065C7.17361 87.5465 5.86361 89.5965 5.09361 91.4165C-0.486385 104.647 1.55361 118.867 0.103615 132.617C-0.566385 139.037 1.96361 141.757 9.13361 143.727C18.7336 146.357 28.4536 148.707 38.2636 150.347C82.2136 157.707 126.544 161.947 170.934 165.317C255.744 171.737 340.504 179.007 425.564 181.697C454.764 182.617 483.954 184.117 513.154 185.397C569.544 187.867 626.044 188.037 682.254 193.977C685.534 194.327 688.914 194.357 692.174 193.937C700.834 192.837 709.374 194.187 717.974 194.387C736.524 194.797 754.954 197.657 773.654 195.727C785.354 194.517 797.374 195.017 809.114 198.167C807.814 202.767 804.254 202.807 801.094 203.147C778.684 205.537 756.304 208.867 733.824 209.877C705.944 211.137 678.484 215.897 650.704 217.897C610.974 220.767 571.324 224.677 531.614 227.877C498.524 230.537 465.374 232.507 432.304 235.337C400.474 238.057 368.744 239.347 337.104 233.607C333.114 232.887 329.204 232.217 325.354 233.807C316.074 237.637 307.044 232.867 297.874 233.137C288.594 225.927 277.534 229.117 267.264 228.217C254.104 227.077 240.734 229.857 227.644 226.097C224.284 225.127 221.194 226.557 218.354 228.557C215.694 230.437 212.984 232.447 209.994 233.627C206.834 234.877 202.794 234.877 200.924 231.747C195.804 223.187 187.254 222.317 178.834 220.397C162.704 216.697 146.214 214.407 130.664 208.357C126.794 206.847 123.754 208.657 123.724 212.557C123.524 241.087 117.054 268.777 112.634 296.747C109.964 313.637 110.484 314.677 126.824 318.027C129.424 318.557 132.054 318.967 134.694 319.337C159.044 322.777 183.344 326.587 207.754 329.537C319.304 343.007 431.304 350.647 543.524 355.647C558.054 356.297 572.524 358.227 586.304 359.497C570.764 362.347 554.424 364.387 538.604 368.447C510.544 375.657 482.334 377.647 453.634 374.607C442.464 373.417 431.184 370.877 420.124 371.557C406.094 372.417 392.274 371.597 378.364 370.807C337.234 368.457 296.034 367.247 255.084 362.187C247.324 361.227 246.214 362.697 245.294 370.747C243.644 385.187 244.494 400.027 240.134 413.997C236.134 426.797 234.794 439.987 232.654 453.037C230.374 466.987 235.704 472.337 250.314 472.647C262.254 472.897 274.204 473.027 286.124 473.647C330.584 475.977 375.024 478.857 419.494 480.867C503.814 484.687 587.984 490.877 672.114 497.417C743.664 502.977 815.014 510.997 886.754 514.277C936.534 516.547 986.254 520.207 1036.02 522.647C1052.58 523.457 1069.23 522.707 1085.83 522.127C1094.85 521.807 1096.87 519.117 1097.02 509.487C1097.28 493.517 1095.12 477.727 1092.57 462.037C1090.89 451.707 1088.78 441.347 1085.68 431.377C1081.47 417.807 1076.26 414.737 1062.06 416.587C1037.59 419.777 1013.06 419.507 988.504 418.727C970.074 418.137 951.694 416.407 933.314 415.427C914.794 414.447 896.244 413.517 877.704 412.637C852.554 411.447 827.624 406.947 802.334 407.877C797.934 408.037 793.374 407.007 791.274 401.337C794.014 400.487 796.464 399.427 799.024 398.987C844.744 391.127 890.394 382.797 936.244 375.747C962.444 371.717 988.604 367.297 1015.31 366.537C1045.16 365.697 1074.94 362.717 1104.75 360.567C1108.03 360.327 1111.3 359.547 1114.49 358.717C1117.19 358.017 1119.47 356.177 1119.64 353.337C1120.64 336.407 1126.27 319.467 1119.99 302.507C1117.12 294.757 1114.33 286.957 1110.93 279.427C1108.98 275.097 1106.4 270.817 1108.19 266.207C1110.72 259.687 1105.58 255.487 1103.58 249.477C1112.83 248.417 1121.34 247.017 1129.89 246.537C1156.41 245.027 1182.94 243.247 1209.49 242.837C1221.92 242.647 1234.75 242.257 1246.84 246.977C1249.97 248.197 1253.18 249.027 1254.16 252.807C1254.32 253.447 1254.34 254.127 1254.43 254.777C1254.57 255.747 1254.71 256.717 1254.85 257.687C1255.16 256.407 1255.38 255.097 1255.78 253.847C1258.72 244.547 1261.82 235.577 1260.5 225.227C1258.99 213.437 1260.33 201.427 1262.15 189.567C1263.33 181.867 1263.67 174.027 1264.39 166.257L1264.42 166.237ZM120.504 141.317L119.804 140.157L121.424 140.337L120.514 141.317H120.504ZM173.654 146.627C164.634 146.517 155.604 146.367 146.594 146.017C146.014 145.997 144.954 144.017 145.124 143.157C145.314 142.217 146.664 140.827 147.534 140.817C152.674 140.727 157.824 140.977 162.964 141.117C166.804 141.287 170.754 140.337 174.334 142.597C174.874 142.937 175.584 143.437 175.674 143.957C175.964 145.557 175.164 146.657 173.664 146.637L173.654 146.627ZM196.444 148.987C195.464 148.807 194.044 147.387 193.994 146.477C193.864 144.277 195.984 142.757 197.614 143.007C210.294 144.957 222.924 147.237 235.574 149.407C222.204 152.257 209.264 151.357 196.444 148.977V148.987ZM251.574 153.127C256.674 147.507 261.734 151.097 269.664 152.677C262.074 156.867 257.134 155.237 251.574 153.127ZM282.444 156.557C279.744 155.667 278.314 153.677 278.924 150.667C279.374 148.457 281.024 147.557 283.054 147.447C289.764 147.077 295.864 148.167 300.524 156.347C293.664 158.897 288.014 158.397 282.444 156.557ZM339.254 157.687C338.904 158.717 338.294 160.347 337.584 160.457C330.414 161.617 323.384 160.997 316.324 158.107C320.484 156.087 324.374 154.107 328.344 152.307C332.824 150.277 335.734 153.087 338.524 155.937C338.944 156.367 339.404 157.227 339.244 157.687H339.254ZM352.324 70.2665C351.324 70.1765 350.384 69.4565 349.414 69.0065C350.354 68.6565 351.344 67.9365 352.234 68.0365C353.294 68.1465 354.284 68.9465 355.364 69.4865C354.314 69.7865 353.284 70.3465 352.324 70.2665ZM146.174 227.677C144.284 227.407 142.444 226.807 140.584 226.347L141.474 227.807L140.664 226.787C139.854 224.877 138.244 222.857 138.654 221.387C139.204 219.397 141.714 219.297 143.714 219.977C146.264 220.837 148.434 222.207 148.584 225.247C148.664 226.877 147.694 227.887 146.174 227.677ZM237.574 236.747C237.074 236.907 236.444 237.337 235.994 237.197C235.604 237.077 235.104 236.247 235.184 235.827C235.484 234.197 236.484 233.927 237.684 235.157C237.924 235.407 237.624 236.187 237.574 236.747ZM299.254 321.187C297.484 321.137 295.724 320.897 293.964 320.737C293.974 320.537 293.994 320.347 294.004 320.147C295.914 320.207 297.864 320.047 299.724 320.377C301.294 320.657 301.204 319.877 301.154 319.707C301.184 319.807 301.304 320.087 301.614 320.677C300.824 320.867 300.034 321.227 299.254 321.197V321.187ZM327.704 324.237C327.734 323.707 327.764 323.177 327.794 322.647C331.544 322.997 335.304 323.337 339.054 323.687C339.054 324.047 339.054 324.397 339.064 324.757C335.274 324.587 331.484 324.407 327.694 324.237H327.704ZM360.984 326.887C368.144 321.327 373.424 321.937 381.064 327.487C373.164 329.107 367.884 328.747 360.984 326.887ZM842.164 424.307C841.184 426.457 839.794 425.487 838.464 425.027C839.304 424.427 840.114 423.797 841.004 423.287C841.164 423.197 842.234 424.157 842.174 424.297L842.164 424.307ZM834.604 425.027C835.434 424.827 836.374 425.047 837.294 425.207C836.614 425.967 835.984 426.827 835.134 427.217C834.394 427.557 833.274 427.067 832.324 426.947C833.074 426.277 833.734 425.237 834.604 425.027ZM820.094 427.787L821.384 428.827L819.734 429.227L820.094 427.787ZM805.934 423.357C807.094 423.557 808.194 424.167 809.314 424.597C809.074 425.087 808.774 426.017 808.614 425.997C807.404 425.807 806.014 425.727 805.074 425.057C803.364 423.857 803.804 422.987 805.944 423.357H805.934ZM1153.74 140.417C1154.02 140.977 1154.55 141.557 1154.52 142.097C1154.42 143.647 1153.4 144.317 1151.86 143.817C1151.42 143.677 1151.2 142.887 1150.88 142.397C1151.83 141.737 1152.79 141.077 1153.75 140.417H1153.74ZM1138.33 141.197C1138.85 141.117 1139.39 140.937 1139.88 141.017C1140.04 141.047 1140.24 142.097 1140.14 142.147C1138.7 142.877 1138.08 142.527 1138.32 141.197H1138.33ZM1122.63 87.9065C1115.94 90.4665 1111.08 87.9965 1106.16 87.2165C1111.13 86.6065 1116.13 84.7765 1122.63 87.9065ZM1104.83 29.7365C1105.23 29.7665 1105.61 30.1865 1105.99 30.4365C1105.54 30.5965 1105.08 30.9265 1104.65 30.8865C1104.23 30.8465 1103.85 30.4365 1103.45 30.1865C1103.91 30.0165 1104.39 29.7065 1104.83 29.7365ZM1089.43 130.627C1099.78 128.097 1109.98 130.067 1120.06 132.367C1121.18 132.627 1122.19 135.377 1122.4 137.077C1122.68 139.307 1121.04 140.327 1118.78 140.227C1107.84 139.757 1097.18 138.037 1086.85 133.757C1087.9 132.427 1088.5 130.857 1089.43 130.627ZM958.094 49.6365C958.204 49.3165 959.024 49.0665 959.484 49.1165C959.864 49.1565 960.194 49.6965 960.544 50.0065C960.234 50.4165 960.004 51.0765 959.604 51.2065C958.244 51.6365 957.624 50.9965 958.094 49.6365ZM944.484 49.2165C944.854 49.4365 944.864 50.2865 945.024 50.8565C944.444 51.0065 943.864 51.1565 943.284 51.2965C943.124 50.7265 942.964 50.1565 942.804 49.5865C943.384 49.4365 944.124 48.9965 944.484 49.2065V49.2165ZM924.044 89.0365C948.644 91.2965 972.944 86.1565 997.454 86.2265C1017.2 86.2765 1036.93 83.9965 1056.72 87.3565C1063.68 88.5465 1071.16 86.6165 1078.41 86.2165C1080.94 86.0765 1083.73 85.0865 1086.27 88.5665C1081.93 92.0065 1077.71 91.2165 1073.91 91.3365C1024.92 92.8365 975.934 94.1565 926.944 95.3865C922.434 95.4965 917.904 94.6265 912.724 94.1465C916.134 89.5165 920.134 88.6865 924.044 89.0465V89.0365ZM1076.58 131.627L1076.3 132.577L1075.33 131.827L1076.58 131.627ZM998.894 128.137C977.684 130.027 954.324 123.247 930.504 125.027C925.974 125.367 921.294 124.177 916.734 123.407C915.714 123.237 914.384 121.957 914.154 120.957C913.974 120.207 915.234 118.337 915.984 118.267C925.134 117.397 933.624 113.457 943.164 113.817C956.344 114.317 969.544 115.037 982.774 115.177C1005.88 115.427 1028.96 118.417 1052.04 120.397C1055.29 120.677 1058.93 120.967 1061.58 122.577C1064.22 124.187 1066.19 127.567 1065.33 131.057C1064.51 134.377 1061.34 133.867 1058.78 133.627C1039.68 131.907 1020.58 130.127 998.904 128.127L998.894 128.137ZM1051.88 141.347C1051.27 142.227 1050.77 143.737 1050.02 143.887C1047.55 144.377 1044.96 144.597 1042.45 144.407C1041.6 144.337 1040.4 142.797 1040.26 141.797C1040.17 141.167 1041.64 139.977 1042.62 139.637C1043.79 139.237 1045.18 139.467 1046.47 139.437C1047.74 139.737 1049.02 139.957 1050.25 140.347C1050.84 140.527 1051.33 141.007 1051.87 141.357L1051.88 141.347ZM1015.87 138.367C1015.14 138.767 1014.41 139.167 1013.68 139.557C1013.18 139.327 1012.68 139.107 1012.18 138.877C1012.88 138.517 1013.56 138.007 1014.3 137.847C1014.76 137.747 1015.34 138.177 1015.87 138.367ZM997.104 139.447C996.644 140.367 995.074 141.347 994.064 141.297C988.914 141.037 983.784 140.447 978.644 139.977C978.604 140.347 978.564 140.707 978.534 141.077C973.414 140.367 968.294 139.677 963.194 138.877C962.804 138.817 962.174 137.797 962.294 137.467C962.664 136.457 963.584 134.677 963.884 134.747C974.134 137.377 984.554 132.257 994.744 135.417C996.704 136.027 998.174 137.297 997.104 139.457V139.447ZM961.524 154.447C961.264 154.797 960.524 154.787 960.004 154.947C959.564 154.247 959.124 153.547 958.684 152.847C959.204 152.697 959.764 152.357 960.244 152.437C961.744 152.677 962.254 153.497 961.524 154.457V154.447ZM957.014 181.747L955.434 182.187L955.724 180.767L957.014 181.747ZM941.054 136.957C940.254 135.597 940.724 134.127 942.224 133.737C944.014 133.257 946.004 133.007 947.804 133.287C948.474 133.397 949.564 135.537 949.274 136.297C948.214 139.057 942.524 139.437 941.054 136.957ZM944.744 151.587C943.714 151.867 942.694 152.167 941.644 152.337C941.574 152.347 941.074 151.297 941.234 150.947C941.844 149.547 942.974 149.187 944.194 150.007C944.564 150.257 944.574 151.047 944.744 151.587ZM895.454 152.377C894.524 152.767 893.194 152.317 892.074 152.067C891.834 152.017 891.754 151.217 891.604 150.767C892.704 150.527 893.884 149.917 894.894 150.137C896.574 150.497 896.834 151.797 895.454 152.377ZM897.024 177.597C898.844 177.357 900.774 177.357 902.554 177.747C903.484 177.947 904.204 179.167 905.014 179.927C903.934 180.357 902.884 180.877 901.774 181.177C901.214 181.327 900.544 181.097 899.734 181.027C898.694 180.837 897.454 180.677 896.254 180.357C895.704 180.207 895.234 179.747 894.734 179.427C895.494 178.787 896.194 177.707 897.024 177.597ZM925.924 201.427C923.714 206.407 918.314 208.257 916.444 207.897C903.184 205.357 890.134 208.267 877.024 208.167C875.974 208.167 874.934 206.807 873.894 206.087C874.714 205.107 875.474 204.067 876.384 203.177C876.824 202.747 877.554 202.397 878.154 202.387C893.884 202.047 909.624 201.747 925.934 201.437L925.924 201.427ZM915.864 150.907L917.244 151.207L916.274 152.477L915.864 150.907ZM914.304 139.427C901.924 137.467 889.534 136.427 877.014 136.197C873.644 136.137 870.944 133.937 870.064 130.267C883.364 127.317 910.984 128.777 931.464 133.967C924.434 137.637 919.534 140.257 914.304 139.427ZM869.474 51.8165C870.474 51.8565 872.144 52.9765 872.264 53.7965C872.614 56.0165 871.054 57.1165 868.874 57.3165C867.934 56.6565 866.304 56.0965 866.164 55.2765C865.754 53.0165 867.404 51.7465 869.474 51.8265V51.8165ZM889.794 117.297C892.364 117.497 894.934 117.747 896.374 120.367C897.414 122.257 892.614 124.847 888.684 124.487C879.494 123.647 870.314 122.797 859.484 121.797C870.244 115.367 880.044 116.527 889.794 117.297ZM842.654 100.367L842.374 99.8565C842.264 99.7565 842.194 99.2265 842.194 99.2265L842.654 100.367ZM822.554 56.9665C821.974 57.1965 821.394 57.4265 820.814 57.6465C820.374 57.2265 819.934 56.8065 819.494 56.3865C820.814 55.2965 821.834 55.4965 822.554 56.9665ZM803.814 55.0365C804.814 55.1865 806.314 56.3965 806.414 57.2565C806.664 59.4065 805.384 60.8065 802.994 60.8265C802.134 60.0265 800.654 59.3265 800.494 58.3865C800.104 56.1265 801.534 54.6965 803.814 55.0265V55.0365ZM794.434 73.5865L795.554 74.3065L794.114 74.3765L794.434 73.5765V73.5865ZM796.854 98.9165C797.684 99.4565 798.544 101.127 798.274 101.917C797.814 103.277 796.284 103.277 795.284 102.047C794.514 101.097 794.054 99.8965 793.444 98.7865C794.624 98.7865 796.044 98.3965 796.854 98.9165ZM784.594 57.7265C786.054 57.2365 787.364 58.2465 787.114 59.6765C786.944 60.6265 785.694 61.9565 784.824 62.0365C784.004 62.1165 783.044 60.7865 782.154 60.0765C782.954 59.2565 783.624 58.0465 784.594 57.7265ZM771.304 57.6765C771.704 57.4865 772.624 57.6665 772.894 57.9965C773.814 59.1565 773.554 60.3065 772.194 60.9465C771.784 61.1365 771.074 60.6865 770.504 60.5265C769.674 59.3965 769.894 58.3565 771.304 57.6765ZM853.004 128.727C853.394 128.747 853.744 129.617 854.104 130.087C853.844 130.657 853.644 131.687 853.314 131.727C845.504 132.747 837.424 131.917 829.984 135.507C829.034 135.967 827.064 135.597 826.244 134.867C818.154 127.507 808.834 130.917 799.754 131.437C785.984 132.217 772.074 129.477 758.364 133.067C756.664 133.507 754.444 132.537 752.644 131.787C751.684 131.387 750.524 130.077 750.504 129.157C750.484 128.137 751.474 126.437 752.364 126.177C754.844 125.467 757.504 124.967 760.064 125.057C791.044 126.187 822.024 127.437 853.004 128.717V128.727ZM830.234 150.107C829.274 149.767 827.744 148.597 827.854 148.137C828.124 147.017 829.004 145.767 830.004 145.167C833.684 142.957 837.494 143.597 841.004 145.587C841.834 146.057 842.394 147.887 842.224 148.967C842.084 149.827 840.724 151.037 839.804 151.127C837.924 151.327 835.974 150.887 834.044 150.707C834.044 150.647 834.054 150.587 834.064 150.537C832.774 150.417 831.414 150.537 830.234 150.107ZM812.574 146.867C812.264 147.637 811.944 148.407 811.634 149.177C806.464 148.417 801.294 147.687 796.144 146.837C795.874 146.797 795.774 145.717 795.594 145.117C796.824 144.927 798.094 144.427 799.264 144.597C803.714 145.237 808.134 146.087 812.574 146.857V146.867ZM780.634 141.667C779.214 141.317 777.784 140.967 776.364 140.607C776.384 140.587 776.414 140.577 776.434 140.557C777.834 140.927 779.234 141.297 780.634 141.667ZM776.364 140.617C772.11 145.89 766.21 148.157 758.664 147.417C762.664 140.217 771.234 144.887 776.364 140.617ZM740.814 61.6865C743.824 57.5865 750.124 56.5565 754.984 59.3465C755.794 59.8165 755.864 61.5765 756.274 62.7465C753.914 67.3765 744.574 69.0765 741.204 65.3165C740.514 64.5565 740.264 62.4365 740.814 61.6865ZM709.684 126.417C720.254 126.447 726.374 126.467 737.394 126.497C726.434 132.047 720.434 127.837 709.684 126.417ZM727.044 143.597C726.154 144.077 725.274 144.567 724.384 145.047C723.934 144.237 723.484 143.437 723.034 142.627C724.044 142.497 725.064 142.237 726.074 142.297C726.424 142.317 726.724 143.137 727.044 143.597ZM727.374 59.7465C728.554 60.0465 729.724 60.3565 730.904 60.6665C730.064 61.4665 729.284 62.8165 728.354 62.9365C727.304 63.0665 725.534 62.3765 725.114 61.5365C724.504 60.3065 725.694 59.4965 727.374 59.7565V59.7465ZM708.124 63.1165L708.744 64.7765L707.174 64.6065L708.124 63.1165ZM694.474 60.4865C696.174 60.6065 696.664 61.2565 695.644 62.6965C695.424 63.0065 694.384 63.0165 693.874 62.7965C691.644 61.8165 689.474 60.7065 687.284 59.6465C687.294 59.6465 687.304 59.6265 687.314 59.6165C689.694 59.9165 692.074 60.3165 694.474 60.4765V60.4865ZM659.254 64.4965C662.424 61.6665 666.484 61.8365 670.404 61.6365C676.074 61.3565 682.114 64.2665 687.264 59.6665C686.164 61.9465 684.894 66.2165 684.044 66.1365C675.824 65.3365 669.224 71.0265 661.414 71.2765C659.374 71.3465 657.664 70.0765 657.644 67.8765C657.634 66.7365 658.374 65.2665 659.254 64.4865V64.4965ZM612.554 64.1265C622.854 64.4465 633.304 61.8165 643.724 64.4465C645.234 64.8265 646.504 66.9265 647.364 68.5265C647.594 68.9665 645.934 71.2765 645.104 71.2965C633.824 71.5965 621.984 75.4765 612.034 66.6265C611.794 66.4165 612.274 65.3965 612.564 64.1265H612.554ZM730.774 108.277C683.464 110.347 640.144 115.937 596.664 110.087C618.904 105.837 706.264 101.287 730.774 108.277ZM693.144 137.267C693.334 139.887 693.534 142.777 690.394 143.727C681.584 146.367 674.464 145.817 661.784 142.047C669.654 138.967 669.664 138.887 685.034 140.737C688.654 141.167 691.074 139.777 693.144 137.267ZM693.234 137.167C693.324 137.067 693.404 136.967 693.494 136.857L693.924 137.557L693.234 137.167ZM660.194 121.537L659.814 122.977L658.494 121.917L660.184 121.537H660.194ZM644.024 144.417C639.174 143.367 633.934 145.757 628.514 142.407C633.364 139.697 637.844 137.817 642.884 138.377C644.444 138.547 646.584 139.927 647.124 141.287C647.984 143.447 645.944 144.827 644.014 144.407L644.024 144.417ZM594.374 67.4265C595.134 67.9165 595.784 69.9565 595.374 70.6365C594.194 72.6365 592.024 72.6865 590.344 71.3565C589.534 70.7165 589.484 69.1065 589.094 67.9565C590.704 66.2165 592.704 66.3465 594.374 67.4165V67.4265ZM575.024 65.4565C576.864 65.2565 578.974 66.5665 579.294 68.8865C579.594 71.1065 578.094 72.5165 576.184 73.1065C560.064 78.0565 543.984 78.3165 523.684 72.0165C543.254 64.2065 559.404 67.1965 575.034 65.4565H575.024ZM574.484 110.217C572.074 110.217 569.654 110.247 567.244 110.167C566.664 110.147 566.094 109.737 565.524 109.497C565.834 109.217 566.144 108.687 566.444 108.687C568.934 108.707 571.424 108.787 573.904 108.967C574.124 108.987 574.294 109.787 574.484 110.217ZM558.224 138.677C558.094 139.107 557.344 139.347 556.874 139.667C556.444 139.357 555.684 139.087 555.664 138.747C555.624 138.287 556.024 137.557 556.444 137.337C557.974 136.527 558.704 137.077 558.224 138.687V138.677ZM530.454 137.777C529.294 138.137 528.124 138.507 526.964 138.867C525.974 138.177 524.984 137.487 523.994 136.797C525.164 136.407 526.404 135.597 527.504 135.757C528.564 135.907 529.484 137.067 530.464 137.787L530.454 137.777ZM501.694 136.397C500.974 137.307 500.314 138.937 499.514 139.007C496.484 139.297 493.404 139.087 490.344 139.057C490.244 138.337 490.144 137.617 490.044 136.897C492.984 136.057 495.894 135.047 498.894 134.507C499.694 134.367 500.754 135.717 501.694 136.387V136.397ZM430.694 67.9365C438.994 68.5665 447.274 69.4065 455.564 70.1665C455.584 70.5865 455.594 71.0065 455.614 71.4265C447.284 71.8165 438.954 72.2665 430.614 72.5065C429.484 72.5365 427.524 71.7165 427.334 70.9465C426.704 68.4065 428.864 67.7965 430.694 67.9365ZM380.224 68.2265C383.294 68.1265 386.364 68.1265 389.434 68.1965C389.594 68.1965 389.734 68.8865 390.034 69.6365C387.014 70.2665 384.074 70.9265 381.104 71.4165C380.804 71.4665 380.154 70.5565 380.004 69.9965C379.854 69.4365 380.114 68.2265 380.224 68.2265ZM371.874 161.377C371.014 161.087 370.114 159.257 370.214 158.247C370.314 157.257 371.554 155.757 372.504 155.567C381.164 153.877 388.524 157.647 399.354 161.417C387.834 164.937 379.814 164.027 371.884 161.377H371.874ZM469.504 166.327C466.314 166.937 463.004 167.437 459.774 167.287C443.984 166.567 428.204 165.617 408.834 164.557C412.764 161.647 413.294 160.917 413.734 160.977C431.414 163.207 449.074 160.057 466.734 160.857C467.984 160.917 469.254 161.507 470.424 162.047C470.964 162.297 471.744 163.257 471.624 163.497C471.084 164.567 470.384 166.167 469.504 166.337V166.327ZM471.964 117.077C471.314 117.037 470.654 117.057 470.044 116.887C469.934 116.857 470.054 116.007 470.064 115.537C470.704 115.567 471.374 115.517 471.974 115.687C472.084 115.717 471.974 116.587 471.964 117.077ZM471.804 68.3465C479.954 68.6265 485.084 68.6965 490.194 69.0465C492.254 69.1865 494.154 70.5765 493.254 72.7965C492.674 74.2265 490.774 75.7165 489.224 76.0565C482.804 77.4665 478.394 73.2965 471.804 68.3465ZM604.874 172.637C596.984 172.857 588.994 173.547 581.204 172.657C559.454 170.167 537.634 171.177 515.854 170.497C513.214 170.417 510.594 170.037 507.954 169.787C502.694 169.317 497.424 168.937 492.194 168.237C491.274 168.117 489.914 166.707 489.824 165.787C489.614 163.587 491.314 162.087 493.274 161.887C496.514 161.567 499.824 161.607 503.074 161.887C506.294 162.167 509.734 163.987 512.644 163.287C528.564 159.497 543.834 166.137 559.584 165.687C574.644 165.247 589.754 166.587 604.824 167.337C605.674 167.377 607.074 169.047 607.084 169.977C607.094 170.897 605.694 172.607 604.874 172.637ZM611.024 142.137C610.024 141.927 609.074 141.527 608.094 141.197C608.374 140.827 608.724 140.107 608.914 140.147C609.914 140.377 610.874 140.787 611.854 141.147C611.574 141.497 611.224 142.177 611.024 142.137ZM803.174 180.377C789.954 179.357 776.684 178.667 763.414 180.207C759.484 180.667 755.454 180.557 751.484 180.377C712.494 178.527 673.494 176.617 634.514 174.627C631.954 174.497 629.364 173.727 626.954 172.807C626.104 172.487 625.664 170.867 625.264 169.767C625.194 169.567 626.164 168.857 626.744 168.577C627.924 168.007 629.194 167.107 630.394 167.147C644.864 167.597 659.344 167.887 673.794 168.817C690.244 169.867 706.894 167.927 723.144 171.977C730.704 166.207 739.854 170.297 748.024 168.007C750.354 167.357 753.604 167.427 755.604 168.587C767.314 175.367 779.914 173.747 792.474 173.327C800.404 173.057 808.354 172.997 816.294 173.217C819.614 173.307 823.184 174.407 825.904 172.207C831.594 167.597 837.354 171.127 843.084 171.417L843.734 172.327L842.744 171.447C843.274 174.317 849.004 178.117 840.534 179.177C828.084 180.727 815.724 181.347 803.174 180.387V180.377ZM803.944 209.667C814.664 210.687 825.854 207.917 836.094 213.017C825.404 214.677 814.624 216.357 803.794 217.687C801.384 217.977 798.154 217.287 798.234 213.837C798.304 210.527 801.374 209.417 803.944 209.667ZM856.134 248.117C855.814 253.527 852.354 254.847 849.424 255.397C844.284 256.367 838.844 257.157 833.724 256.507C825.784 255.487 818.134 254.817 810.494 257.897C805.644 259.857 801.774 256.357 797.624 253.677C817.354 254.277 836.384 247.657 856.134 248.107V248.117ZM772.734 214.787C774.304 214.607 775.024 215.767 774.494 217.157C774.304 217.657 773.644 218.107 773.094 218.297C771.554 218.857 770.524 218.287 770.094 216.787C770.964 216.077 771.794 214.897 772.734 214.787ZM653.364 370.957C652.924 371.747 650.984 372.597 650.404 372.257C648.344 371.057 649.024 369.237 650.164 367.657C650.404 367.327 650.774 367.097 651.154 366.877C652.654 367.847 654.584 368.767 653.354 370.957H653.364ZM634.534 227.557C635.224 227.537 636.554 229.257 636.504 230.087C636.424 231.177 635.494 232.557 634.524 233.177C630.004 236.077 625.064 237.427 619.614 236.827C612.544 236.057 605.454 235.487 594.054 234.437C609.734 225.277 622.324 227.817 634.534 227.547V227.557ZM632.874 310.867C632.744 311.267 632.664 311.967 632.464 312.007C631.844 312.127 631.124 312.137 630.534 311.927C629.994 311.737 629.584 311.197 629.114 310.817C630.364 310.837 631.624 310.847 632.874 310.867ZM628.834 244.337C627.064 244.137 625.334 243.497 623.594 243.007C625.414 242.627 627.224 242.067 629.064 241.967C629.954 241.917 630.884 242.797 631.794 243.257C630.804 243.647 629.764 244.447 628.834 244.337ZM623.174 243.017C621.754 244.187 620.524 245.517 619.134 246.667C618.814 246.937 617.714 246.697 617.294 246.327C616.104 245.257 616.244 243.707 617.854 243.247C619.514 242.767 621.384 243.017 623.174 243.017ZM613.254 309.167C612.654 309.867 612.384 310.457 612.134 310.447C610.294 310.337 608.384 310.367 606.644 309.837C605.124 309.377 605.524 308.587 607.564 308.667C609.364 308.737 611.154 308.977 613.254 309.167ZM490.834 239.647C518.414 237.017 546.024 234.687 573.634 232.367C575.534 232.207 577.614 232.527 579.394 233.187C580.274 233.517 580.814 235.077 581.244 236.177C581.424 236.627 581.084 237.737 580.714 237.897C572.334 241.367 564.244 247.277 554.674 244.747C542.894 241.627 531.244 242.257 519.454 243.587C506.884 245.007 494.414 244.167 481.594 242.337C484.344 239.157 487.914 239.917 490.824 239.647H490.834ZM581.024 275.547C580.774 275.867 580.574 276.357 580.244 276.467C580.084 276.517 579.914 276.517 579.734 276.527C580.164 276.207 580.594 275.887 581.014 275.557L581.024 275.547ZM541.934 307.527C541.404 307.687 540.874 307.857 540.344 308.017C539.844 307.827 538.984 307.757 538.894 307.447C538.564 306.347 539.364 305.897 540.864 306.407C541.294 306.557 541.584 307.137 541.934 307.527ZM394.034 327.407C393.114 327.447 392.204 327.477 391.284 327.517C391.284 326.997 391.214 326.017 391.264 326.007C392.184 325.897 393.134 325.897 394.064 325.877C394.054 326.387 394.034 326.897 394.024 327.407H394.034ZM569.134 339.527C534.104 336.807 498.894 338.217 463.904 334.227C448.814 332.507 433.524 332.567 418.344 331.647C417.424 331.587 416.024 330.117 415.894 329.167C415.784 328.387 417.224 326.647 418.014 326.617C434.584 326.027 451.134 326.537 467.444 329.727C475.344 331.267 483.204 331.707 491.194 331.387C494.714 331.247 497.574 329.927 500.254 327.877C499.164 327.907 498.064 327.937 496.974 327.967C498.014 327.877 499.044 327.787 500.084 327.697C508.904 330.427 517.674 331.537 527.014 330.717C545.764 329.077 564.524 329.117 582.524 336.237C583.354 336.567 584.774 335.427 585.934 334.927C581.124 339.487 575.134 339.987 569.144 339.527H569.134ZM585.954 334.917C585.954 334.917 585.974 334.907 585.984 334.907C596.554 334.627 607.124 334.307 617.694 334.087C620.274 334.037 623.144 333.777 624.584 336.697C625.514 338.587 621.224 341.047 616.914 341.087C614.924 341.107 612.864 341.367 610.974 340.917C602.634 338.947 593.794 338.997 585.954 334.917ZM624.774 378.337C605.244 382.957 585.974 381.527 563.634 376.957C574.464 373.047 581.594 366.847 591.434 369.807C605.254 365.227 619.944 366.087 634.024 363.007C637.844 362.167 641.834 361.927 645.754 361.887C648.674 361.857 650.024 364.217 651.034 366.647C647.874 367.067 643.154 366.877 642.514 368.407C639.004 376.767 631.774 376.677 624.774 378.327V378.337ZM640.584 430.637L641.564 431.617C641.444 431.617 641.334 431.597 641.214 431.597L640.584 430.627V430.637ZM641.564 431.627C649.354 424.317 658.064 430.997 666.184 429.507C658.434 437.017 649.834 431.907 641.564 431.627ZM678.014 368.377C676.944 368.557 675.724 367.797 674.574 367.457C676.094 366.447 677.514 365.177 679.184 364.537C680.054 364.197 681.354 364.957 682.454 365.217C681.854 367.497 679.864 368.067 678.014 368.377ZM683.554 296.667C678.334 296.347 673.124 295.757 666.304 295.127C675.524 288.997 683.494 291.077 691.254 291.477C692.154 291.527 692.984 292.837 693.844 293.557C693.004 294.487 692.274 296.017 691.294 296.217C688.774 296.707 686.124 296.827 683.554 296.677V296.667ZM678.054 268.417L678.254 267.027L679.694 267.927L678.054 268.427V268.417ZM692.424 313.967C692.234 313.967 692.024 313.167 691.814 312.727C692.954 312.577 694.094 312.377 695.234 312.357C695.434 312.357 695.644 313.147 695.854 313.577C694.714 313.727 693.564 313.937 692.424 313.957V313.967ZM699.174 238.447C697.564 239.167 695.884 239.707 694.364 240.267C693.354 239.217 692.604 238.437 691.854 237.657C692.704 236.947 693.574 235.627 694.404 235.657C696.084 235.697 697.764 236.447 699.404 237.007C699.494 237.037 699.434 238.347 699.174 238.467V238.447ZM723.604 225.347C716.464 226.117 709.284 227.107 702.134 226.957C693.434 226.767 685.194 227.177 677.224 231.447C669.994 235.317 663.404 232.847 657.274 227.867C660.884 223.307 665.424 221.547 669.824 222.107C686.394 224.197 702.644 220.177 719.074 220.297C721.524 220.317 723.974 220.877 726.424 221.227C726.224 223.097 725.744 225.117 723.614 225.347H723.604ZM726.964 221.167C732.154 217.967 738.264 219.317 743.834 217.957C744.514 217.797 745.604 219.337 746.504 220.097C745.594 220.867 744.724 222.227 743.754 222.307C738.114 222.757 732.374 223.767 726.964 221.167ZM735.454 393.517L735.704 392.377L737.014 393.207L735.454 393.517ZM738.594 296.807C738.064 294.717 739.394 292.987 741.454 292.657C746.094 291.907 750.654 292.577 756.524 294.987C750.464 297.937 746.144 299.467 741.464 299.087C740.414 298.997 738.854 297.787 738.604 296.807H738.594ZM742.734 419.687C743.044 418.577 743.144 417.557 743.364 417.527C757.254 415.837 770.564 420.577 784.374 421.497C770.094 426.877 756.274 425.487 742.744 419.687H742.734ZM794.294 298.447C793.934 298.147 793.804 297.287 793.924 296.777C794.054 296.227 794.614 295.777 794.984 295.277C795.724 296.087 796.464 296.897 797.214 297.707C796.534 299.137 795.494 299.457 794.294 298.447ZM855.014 372.547L854.064 371.677L855.434 371.537L855.014 372.557V372.547ZM891.674 289.837C869.834 288.847 847.944 288.507 826.134 288.107C805.004 287.717 783.794 286.207 762.604 287.377C758.194 287.617 753.744 287.047 749.314 286.217C803.244 273.967 857.904 275.497 912.544 276.897C915.734 276.977 919.094 278.077 921.234 282.297C912.224 288.247 902.294 290.327 891.664 289.847L891.674 289.837ZM928.214 371.807C927.704 371.757 927.244 371.197 926.764 370.857C927.294 370.617 927.854 370.147 928.364 370.197C928.874 370.247 929.334 370.797 929.814 371.137C929.274 371.377 928.724 371.847 928.214 371.807ZM940.884 280.327C941.034 280.307 941.204 280.287 941.354 280.257L941.664 281.327L940.884 280.327ZM941.944 280.177C942.794 280.057 943.644 279.937 944.514 279.817C943.734 282.227 942.824 280.807 941.944 280.177ZM986.214 289.597C982.374 289.737 978.514 289.527 974.664 289.467L973.794 289.087L975.154 289.457C977.414 284.817 981.064 282.767 986.134 283.777C987.214 283.997 988.574 285.057 988.964 286.067C989.854 288.347 988.204 289.537 986.224 289.607L986.214 289.597ZM990.774 260.897C990.654 260.897 990.594 260.097 990.514 259.677C991.744 259.667 992.974 259.617 994.204 259.707C994.324 259.707 994.384 260.527 994.474 260.967C993.244 260.967 992.004 260.997 990.774 260.897ZM1045.69 257.297C1034.63 258.307 1023.63 260.957 1012.38 258.777C1023.98 256.797 1035.38 253.367 1047.34 254.467C1046.76 255.517 1046.3 257.237 1045.69 257.297ZM1047.94 254.457C1051.24 254.037 1054.63 251.757 1057.89 254.957C1054.38 256.407 1051.1 256.147 1047.94 254.457ZM1087.13 234.887C1052.88 237.887 1018.6 240.457 984.364 243.467C946.894 246.757 909.454 250.377 871.984 253.737C871.024 253.827 869.474 252.667 869.014 251.697C868.054 249.687 868.944 247.387 870.974 247.047C885.964 244.587 900.984 240.687 916.024 240.577C934.004 240.457 951.634 237.927 969.314 235.967C986.444 234.067 1003.54 232.567 1020.74 232.247C1039.22 231.897 1057.58 230.037 1075.83 227.437C1087.03 225.837 1098.04 226.997 1109.14 227.517C1102.82 233.077 1094.93 234.207 1087.13 234.887ZM1109.8 227.477C1118.76 225.917 1127.68 224.097 1136.68 222.897C1144.47 221.867 1152.29 222.117 1160.62 225.117C1146.05 231.027 1129.93 231.657 1109.79 227.467L1109.8 227.477Z" fill="var(--fill-0, black)"/>
<path id="Vector_2" d="M787.594 17.6565C775.954 18.8965 763.504 15.5965 749.274 24.5065C776.274 23.6665 799.574 22.3265 822.504 16.3965C810.854 16.7565 799.144 16.4265 787.594 17.6565Z" fill="var(--fill-0, black)"/>
<path id="Vector_3" d="M642.104 30.5765C650.414 29.4465 659.784 33.7865 669.574 23.7665C649.734 28.5265 632.134 24.1165 612.374 29.6765C624.104 33.3565 633.144 31.7865 642.104 30.5765Z" fill="var(--fill-0, black)"/>
<path id="Vector_4" d="M294.554 52.2465C293.514 51.6565 292.534 50.6965 291.434 50.5565C287.164 49.9965 282.864 49.6965 276.404 49.1065C282.314 53.2765 286.914 52.3865 291.184 53.0065C292.244 53.1565 293.424 52.5265 294.544 52.2565L294.554 52.2465Z" fill="var(--fill-0, black)"/>
<path id="Vector_5" d="M683.164 206.167C682.584 204.717 682.454 203.227 681.744 202.867C679.934 201.927 678.114 202.567 677.074 204.357C675.964 206.277 676.644 208.127 678.774 208.227C680.214 208.297 681.724 206.897 683.164 206.167Z" fill="var(--fill-0, black)"/>
<path id="Vector_6" d="M577.184 50.3165C576.104 49.9165 575.044 49.3465 573.924 49.1765C572.714 48.9865 571.444 49.1765 570.194 49.2065C571.284 49.5765 572.374 49.9565 573.464 50.3265C574.704 50.3265 575.944 50.3165 577.174 50.3065L577.184 50.3165Z" fill="var(--fill-0, black)"/>
<path id="Vector_7" d="M225.514 37.6265C222.654 35.9965 219.764 35.4865 216.674 36.9665C219.474 39.3465 222.494 38.1465 225.514 37.6265Z" fill="var(--fill-0, black)"/>
<path id="Vector_8" d="M332.494 229.927C333.524 230.187 334.924 229.997 335.824 229.457C336.974 228.767 336.614 227.447 335.084 227.207C333.494 226.957 331.814 227.327 329.704 227.457C330.954 228.617 331.614 229.707 332.494 229.927Z" fill="var(--fill-0, black)"/>
<path id="Vector_9" d="M291.004 36.5765C292.154 36.6765 293.334 36.4765 294.504 36.4065C294.094 36.0265 293.704 35.3665 293.264 35.3365C292.084 35.2465 290.884 35.4165 289.694 35.4965C290.134 35.8765 290.544 36.5465 291.004 36.5865V36.5765Z" fill="var(--fill-0, black)"/>
<path id="Vector_10" d="M201.124 50.8565C200.914 50.4665 200.094 50.1965 199.574 50.2365C198.434 50.3265 197.314 50.6565 196.194 50.8865C197.224 51.3265 198.244 51.7565 199.274 52.1865C200.924 52.3765 201.664 51.8665 201.124 50.8565Z" fill="var(--fill-0, black)"/>
<path id="Vector_11" d="M412.934 52.0265C413.074 51.9865 413.124 50.7865 412.964 50.7065C412.444 50.4765 411.804 50.5365 411.234 50.4765C410.584 51.9665 411.174 52.5065 412.944 52.0165L412.934 52.0265Z" fill="var(--fill-0, black)"/>
<path id="Vector_12" d="M1080.76 17.6165C1081.25 17.6665 1081.8 17.1065 1082.33 16.8165C1081.87 16.4365 1081.44 15.7965 1080.95 15.7465C1080.45 15.6965 1079.9 16.2365 1079.37 16.5165C1079.83 16.9065 1080.26 17.5665 1080.76 17.6165Z" fill="var(--fill-0, black)"/>
<path id="Vector_13" d="M238.274 51.0165C237.844 50.7565 237.424 50.3365 236.974 50.2965C236.524 50.2465 236.024 50.5865 235.554 50.7465C235.984 51.0065 236.424 51.2565 236.854 51.5165C237.324 51.3565 237.804 51.1865 238.274 51.0265V51.0165Z" fill="var(--fill-0, black)"/>
<path id="Vector_14" d="M962.934 29.2865C962.324 29.1865 961.284 28.8565 961.174 29.0465C960.444 30.3165 961.124 30.8365 962.964 30.6365C964.804 30.4365 966.664 30.3765 968.514 30.2565C968.514 30.2565 968.414 30.1965 968.364 30.1865C966.524 29.8765 964.724 29.5765 962.924 29.2765L962.934 29.2865Z" fill="var(--fill-0, black)"/>
<path id="Vector_15" d="M576.084 35.5965C576.934 35.3465 577.464 34.0065 578.134 33.1565C576.974 33.0265 575.564 32.4365 574.724 32.8965C573.944 33.3165 573.534 34.4365 573.044 35.4065C574.094 35.5965 575.174 35.8765 576.084 35.6065V35.5965Z" fill="var(--fill-0, black)"/>
<path id="Vector_16" d="M572.794 35.8965C572.794 35.8965 572.794 35.8965 572.794 35.8865C572.884 35.7365 572.964 35.5665 573.044 35.4065C572.794 35.3665 572.554 35.3165 572.314 35.2865L572.784 35.8965H572.794Z" fill="var(--fill-0, black)"/>
<path id="Vector_17" d="M946.474 32.4665C946.044 32.4665 945.604 32.4665 945.174 32.4865C945.594 32.5265 946.024 32.5165 946.474 32.4665Z" fill="var(--fill-0, black)"/>
<path id="Vector_18" d="M942.594 32.5965C942.814 32.8765 943.824 32.5165 944.474 32.4965C944.704 32.4965 944.944 32.4965 945.174 32.4965C944.924 32.4765 944.684 32.4465 944.454 32.3665C942.534 31.7165 941.864 31.6665 942.594 32.6065V32.5965Z" fill="var(--fill-0, black)"/>
<path id="Vector_19" d="M946.474 32.4665C947.094 32.4665 947.704 32.4465 948.324 32.4465C948.324 32.4465 948.264 32.2965 948.254 32.2965C947.674 32.3165 947.074 32.4065 946.474 32.4665Z" fill="var(--fill-0, black)"/>
<path id="Vector_20" d="M944.974 11.3465C945.084 11.3865 945.194 11.4365 945.314 11.4765L945.454 11.5565C945.494 11.4765 945.534 11.4065 945.574 11.3265C945.414 11.3265 945.254 11.3265 945.084 11.3265C945.044 11.3265 945.014 11.3265 944.974 11.3365V11.3465Z" fill="var(--fill-0, black)"/>
<path id="Vector_21" d="M938.794 10.8865C939.724 11.1565 940.644 11.5865 941.574 11.6365C942.694 11.6965 943.834 11.4665 944.974 11.3465C943.924 10.9465 942.934 10.4965 941.904 10.3965C940.894 10.2965 939.834 10.6965 938.794 10.8765V10.8865Z" fill="var(--fill-0, black)"/>
<path id="Vector_22" d="M505.114 51.1465L504.794 51.7965L506.074 51.6065L505.114 51.1465Z" fill="var(--fill-0, black)"/>
<path id="Vector_23" d="M1248.17 117.467L1247.3 118.537L1248.33 118.867L1248.17 117.467Z" fill="var(--fill-0, black)"/>
<path id="Vector_24" d="M697.364 26.1265C697.764 26.2665 698.324 25.9465 698.804 25.8365C698.734 25.4565 698.804 24.8865 698.574 24.7265C698.184 24.4565 697.524 24.2065 697.134 24.3565C695.754 24.8765 695.834 25.6165 697.354 26.1265H697.364Z" fill="var(--fill-0, black)"/>
<path id="Vector_25" d="M624.964 370.797C625.464 371.137 625.954 371.477 626.454 371.817C627.014 371.567 627.584 371.307 628.144 371.047C627.244 369.737 626.184 369.647 624.964 370.797Z" fill="var(--fill-0, black)"/>
<path id="Vector_26" d="M595.354 374.317C594.454 374.837 593.714 375.647 592.914 376.347C593.894 376.857 594.884 377.357 595.864 377.867C597.384 377.327 597.784 376.387 596.864 375.197C596.514 374.747 595.614 374.167 595.354 374.317Z" fill="var(--fill-0, black)"/>
</g>
</svg>
