<svg preserveAspectRatio="none" width="100%" height="100%" overflow="visible" style="display: block;" viewBox="0 0 486.444 462.405" fill="none" xmlns="http://www.w3.org/2000/svg">
<g id="Layer_1-2">
<path id="Vector" d="M294.447 444.332C290.187 448.792 284.227 449.732 278.817 451.672C260.887 458.082 242.157 460.312 223.307 461.722C203.547 463.202 183.787 462.292 164.377 458.862C143.707 455.212 123.747 448.692 105.117 438.612C101.587 436.702 99.3467 434.362 97.9467 430.482C96.0867 425.302 95.0267 420.022 93.9767 414.672C93.0367 409.862 91.2567 409.532 86.3567 413.022H86.5067C83.3167 407.832 79.2167 404.802 72.8767 403.132C66.2767 401.392 59.6367 397.382 60.2167 388.412C60.3367 386.512 59.5067 385.292 58.0267 384.262C53.9267 381.402 49.8767 378.472 45.7867 375.592C44.0667 374.382 42.3867 373.152 41.8767 370.922L41.5767 371.322C42.9267 370.442 44.7267 369.872 44.4067 367.752C44.2067 366.432 43.3567 365.442 41.9667 365.352C39.6867 365.202 39.6867 367.322 38.9167 368.662L39.2167 368.332C36.8867 367.782 34.7367 365.692 36.1867 364.072C40.2967 359.442 38.1467 355.552 35.7967 351.502C32.8467 346.422 29.8067 341.392 26.6767 336.422C24.4367 332.872 22.7367 327.902 19.4567 326.282C9.17668 321.212 9.84668 310.062 4.71668 302.262C3.75668 300.802 4.29668 298.202 4.49668 296.162C4.71668 294.002 4.79668 292.012 3.45668 290.152C1.83668 287.892 -0.923316 286.322 0.306684 282.572C2.11668 277.082 1.75668 270.342 7.14668 266.872C12.4867 263.442 13.9667 258.942 14.2867 253.132C14.5467 248.552 15.7567 244.012 16.5467 239.462L16.2467 239.752C18.7667 236.712 18.0867 233.522 16.7467 230.272C13.6967 222.912 10.7367 215.532 7.62668 208.202C5.26668 202.632 3.87668 197.362 7.90668 191.672C9.75668 189.062 9.65668 185.142 11.2167 182.232C13.3467 178.252 13.7867 174.612 12.5667 170.192C10.4967 162.702 12.4767 155.132 13.5267 147.672C14.7367 139.022 15.7567 130.452 21.2667 122.842C24.6167 118.222 26.1167 112.182 28.0767 106.652C29.5067 102.612 32.8367 101.572 35.9667 99.2418C37.4667 103.832 35.7067 106.922 34.9467 110.102C33.5767 115.822 32.0667 121.512 30.3767 127.142C28.7167 132.672 28.1667 138.652 23.3067 142.902C21.9167 144.122 21.4267 146.612 20.9867 148.632C19.4067 155.982 17.5967 163.312 16.7067 170.762C16.0167 176.582 17.8267 182.412 19.7767 187.852C20.3567 189.472 24.0367 189.512 23.2567 193.132C21.5667 200.952 26.4767 207.532 28.0467 214.762C28.1667 215.302 29.2967 215.912 29.9867 215.932C30.4667 215.952 31.4267 215.012 31.4067 214.522C31.0767 204.882 32.3967 195.172 30.2367 185.602C29.7667 183.522 29.5267 181.002 27.4067 180.282C22.7367 178.692 23.3767 174.902 22.3267 171.272C19.9567 163.092 23.0867 156.012 25.2267 148.632C25.4767 149.362 25.8867 150.092 25.9467 150.842C26.0667 152.522 25.9067 154.582 27.9367 154.952C30.0967 155.342 30.4167 153.412 30.6267 151.732C31.2467 146.732 31.9567 141.742 32.4867 136.732C33.0767 131.202 34.6767 125.872 37.4467 121.192C44.0867 109.982 48.9667 97.8218 56.5867 87.1218C61.7567 79.8718 67.1767 73.0418 74.4767 67.8618L74.3767 67.4818C75.0467 71.1218 77.4867 71.1618 79.5567 69.2818C81.5667 67.4518 82.7867 64.7518 84.3567 62.4318C86.3867 61.9218 88.4867 61.5418 89.7467 59.6018C89.9167 59.3418 89.9367 58.7818 89.7667 58.5618C89.5767 58.3218 88.9667 58.1118 88.7367 58.2418C86.9067 59.3118 85.4367 60.7318 84.6567 62.7518C82.9467 62.5918 81.2467 62.4318 79.5367 62.2718L79.9267 62.4018C85.1867 55.7918 89.7367 48.7418 93.1167 40.9818L93.0267 41.1818C93.7467 42.2018 94.2567 43.5418 95.2267 44.2018C100.407 47.7218 100.977 48.5018 100.877 53.2918C99.8967 53.2518 99.7667 53.1118 100.507 52.8218C100.477 53.0818 100.447 53.3318 100.417 53.5918C104.807 51.5218 108.937 49.2218 112.647 45.8818C117.177 41.8018 122.207 38.1918 128.137 36.2318C128.237 37.4218 128.317 38.6018 128.487 39.7618C128.657 40.8618 129.227 41.1418 129.917 40.4818C130.067 40.3318 129.947 39.7518 129.787 39.4618C129.217 38.4618 128.577 37.5018 127.967 36.5218C128.897 34.3418 130.647 32.4418 130.287 29.8218L130.097 29.8818C131.327 28.8218 131.477 27.7718 130.077 26.7318L130.157 26.7918C135.557 22.8118 141.977 22.3718 148.277 21.5818C148.207 21.9718 148.047 22.3618 148.107 22.7318C148.317 24.0418 148.997 24.7818 150.427 24.3018C150.777 24.1818 151.347 23.9318 151.367 23.6918C151.537 21.9518 150.027 22.3618 149.107 22.0418C148.747 21.9218 148.337 21.9518 147.957 21.9118C150.447 19.7118 152.727 17.2118 155.457 15.3718C160.807 11.7618 162.857 11.9318 168.507 16.7418C170.637 18.5518 172.647 19.2718 175.267 19.0818C178.177 18.8718 181.097 18.7218 184.017 18.6818C189.067 18.6118 191.887 17.3618 190.717 15.6918C188.737 12.8518 186.177 16.1518 183.587 15.0818C183.917 13.5918 184.457 12.0818 184.547 10.5418C184.697 7.7618 186.367 6.9518 188.667 7.2518C190.287 7.4618 191.857 8.1518 193.397 8.7318C196.187 9.7818 198.117 9.2818 199.327 6.2518C199.667 5.3918 201.207 4.9018 202.287 4.4718C204.157 3.7218 205.297 4.9018 204.947 7.0818C203.697 14.8118 205.477 17.0118 212.157 14.7318C217.297 12.9718 221.547 12.6618 226.227 15.9218C228.447 17.4718 231.657 18.0818 234.847 16.8818C235.207 14.2518 233.037 15.3818 231.987 15.1018C230.787 14.7818 229.477 14.8518 228.327 14.4418C227.647 14.2018 226.927 13.4218 226.717 12.7318C226.517 12.0818 226.727 10.7018 227.127 10.5418C234.107 7.7718 241.147 4.5318 248.017 10.8318L247.787 10.6018C248.987 13.9018 250.467 16.8018 254.707 16.7518C259.727 16.6918 264.757 16.7418 270.037 16.7418C268.577 14.3718 266.557 12.2018 265.207 11.4718C265.617 10.9318 266.027 9.9218 266.437 9.9218C273.547 9.9118 280.817 8.6118 287.637 11.5718C291.787 13.3718 294.507 12.2118 297.507 8.9918C301.797 4.3618 310.537 4.4418 315.567 8.5118C316.867 9.5618 316.387 13.8918 314.607 15.1718C312.937 16.3618 311.067 17.3218 309.187 18.1518C306.937 19.1418 304.587 19.8818 302.247 20.7418C302.697 21.6118 302.987 22.8518 303.417 22.8918C312.747 23.9318 320.357 29.6318 328.877 32.7818C336.987 35.7718 345.337 38.8918 353.127 43.0818C358.617 46.0318 364.817 47.6418 370.687 49.8918C373.097 50.8218 375.317 51.9818 375.287 55.1018L375.677 54.7418C374.077 55.0018 372.287 54.7418 370.477 57.3718C372.847 59.3418 375.237 61.6918 377.967 63.5518C385.307 68.5418 390.777 75.1118 396.327 82.0118C410.517 99.6118 419.867 119.362 426.457 140.782C429.417 150.382 430.447 161.262 440.357 167.462C441.577 168.222 442.127 170.282 442.677 171.842C443.507 174.202 443.907 176.722 444.817 179.052C445.197 180.032 446.307 181.172 447.277 181.382C449.007 181.772 449.047 180.072 449.087 178.922C449.237 173.922 448.667 168.752 452.667 164.782C452.427 165.462 452.207 166.092 451.987 166.732C452.217 166.132 452.447 165.522 452.677 164.922C451.217 158.642 450.727 152.012 453.937 146.512C458.117 139.362 459.787 132.872 455.057 125.462C453.997 123.802 454.007 121.432 453.587 119.382C453.157 117.332 452.507 115.522 451.107 113.782C446.917 108.562 443.387 102.792 438.977 97.7818C432.407 90.3218 426.637 81.8118 416.697 78.0918L417.007 78.2418C414.527 72.0618 409.807 68.8218 403.367 67.8218C400.307 61.3418 394.387 59.0518 388.067 57.3218L388.347 57.6518C385.547 52.1218 380.487 49.4418 375.177 46.9318C372.507 45.6718 371.437 43.7618 374.457 41.3718C375.687 40.4018 374.947 39.0218 374.017 38.1918C372.797 37.1018 371.347 36.2718 369.997 35.3218L369.787 35.6018C371.137 33.0618 372.257 30.3618 373.887 28.0218C375.577 25.5818 378.987 26.0218 381.827 28.2218C386.047 31.5018 390.447 34.5518 394.857 37.5918C395.817 38.2618 397.387 39.1218 398.197 38.7718C404.817 35.9318 409.067 40.7118 414.027 43.3318C415.457 44.0918 417.077 44.4918 418.607 45.0618L418.337 44.6418C419.377 46.8018 420.407 46.4718 421.447 44.6418L421.267 45.0618C423.927 47.3118 423.897 51.3218 428.517 52.7618C434.167 54.5318 436.717 60.9618 440.247 65.5918C443.457 69.8118 445.817 74.4518 449.817 78.3318C453.887 82.2818 456.347 88.0318 459.027 93.2418C460.397 95.9018 461.487 98.6218 463.987 100.362C471.377 105.502 474.427 113.302 476.887 121.412C480.917 134.712 484.137 148.152 484.037 162.222C484.007 167.232 486.917 171.902 486.377 177.112C485.387 186.732 484.507 196.352 483.617 205.982C483.187 210.592 482.407 215.222 482.577 219.812C482.897 228.362 481.227 236.572 479.237 244.742C476.547 255.772 473.987 266.852 470.617 277.672C465.737 293.302 460.097 308.682 454.937 324.222C451.797 333.662 446.207 341.402 439.147 348.212L439.217 348.492C438.147 348.492 437.077 348.472 436.007 348.462L436.077 348.172C432.727 347.742 429.527 347.102 428.627 343.082C431.207 343.892 433.467 343.762 434.037 340.562C434.257 339.342 433.357 337.952 431.977 338.132C428.917 338.532 428.267 340.652 428.917 343.372C427.017 344.932 424.547 346.142 423.327 348.122C420.337 352.972 416.097 356.002 411.057 358.202L411.277 358.582C410.327 356.042 408.737 355.332 406.807 357.452C405.197 359.222 403.527 361.102 403.267 363.702L403.577 363.262C402.627 364.232 401.667 365.202 400.717 366.172L401.097 365.922C400.127 366.892 399.167 367.852 398.197 368.822L398.357 368.502C396.177 370.392 393.937 372.212 391.827 374.182C390.567 375.352 389.897 376.922 390.437 378.662C391.057 380.682 392.857 380.722 394.497 380.562C398.217 380.192 401.907 379.502 405.637 379.262C408.087 379.102 410.597 379.302 413.017 379.712C414.487 379.962 414.567 381.412 414.087 382.652C413.797 383.412 413.397 384.262 412.797 384.742C401.797 393.582 390.777 402.402 379.687 411.112C378.357 412.152 376.527 412.562 375.997 409.932C375.997 409.912 375.937 409.172 375.937 409.172L375.877 410.262C370.047 409.862 365.457 412.772 360.927 415.832C344.037 427.242 324.957 433.962 306.147 441.252C304.997 441.692 303.657 441.642 302.407 441.812L302.507 442.132C301.917 440.812 301.327 439.492 300.797 438.212C301.587 438.512 302.297 438.812 303.047 438.982C303.277 439.032 303.587 438.712 303.867 438.562C302.897 438.472 301.927 438.382 300.957 438.282C299.067 440.052 295.847 439.562 294.397 442.102L294.837 441.792C287.087 443.172 279.327 444.512 271.597 445.982C270.987 446.102 270.547 447.092 269.997 447.702C271.507 449.842 273.577 449.002 275.457 448.632C281.927 447.352 288.077 444.542 294.837 444.682L294.457 444.382L294.447 444.332ZM358.267 370.972C359.337 370.432 359.427 370.142 358.527 370.102C358.527 370.462 358.527 370.822 358.507 371.182C357.357 372.052 356.207 372.932 355.057 373.802C354.307 374.022 353.527 374.172 352.827 374.492C352.577 374.612 352.307 375.272 352.417 375.482C352.857 376.302 353.717 376.462 354.317 375.702C354.717 375.182 354.637 374.292 354.797 373.572C355.957 372.702 357.107 371.832 358.267 370.962V370.972ZM366.077 363.862L366.377 363.172C366.377 363.172 366.467 363.782 366.417 363.772L365.517 363.692L366.077 363.872V363.862ZM440.157 298.962C440.787 298.352 441.327 298.532 441.127 299.352C440.937 300.152 440.307 300.112 439.937 299.352C441.007 299.152 441.177 299.332 440.467 299.902C440.367 299.592 440.257 299.282 440.157 298.962ZM103.857 271.302C103.857 270.312 104.507 270.352 104.307 270.842C103.697 272.392 105.167 270.702 103.517 271.072C103.227 270.072 103.517 269.902 104.357 270.602C104.387 270.632 104.047 271.092 103.857 271.312V271.302ZM143.297 123.142C143.437 122.842 143.567 122.542 143.707 122.242C143.677 122.542 143.637 122.852 143.547 123.142L142.727 123.502L143.297 123.142ZM308.847 379.622L309.217 378.642C309.217 378.642 308.957 379.512 308.927 379.522C308.537 379.412 308.147 379.302 307.767 379.192C308.127 379.342 308.487 379.482 308.857 379.632L308.847 379.622ZM391.027 198.632C391.457 199.252 390.167 201.032 392.297 200.502C391.777 199.972 391.257 199.432 390.727 198.902C390.647 198.142 390.827 197.162 390.417 196.672C389.837 195.982 388.997 196.482 389.227 197.492C389.337 197.972 390.407 198.242 391.027 198.632ZM140.267 143.532C139.697 143.812 138.087 143.042 138.987 144.802C139.317 144.262 139.637 143.722 139.977 143.192L140.757 143.052L140.267 143.532ZM97.4867 73.3018C97.1267 73.3218 96.7567 73.2918 96.4167 73.3618C96.1567 73.4218 95.9167 73.6118 95.6767 73.7418C96.1867 73.4818 96.6867 73.2118 97.1867 72.9218C98.0067 71.7818 98.8267 70.6518 99.6567 69.5118C101.347 70.2518 102.687 69.5818 103.847 68.4018C105.297 66.9218 107.047 66.1518 109.107 66.0418C112.707 63.4418 116.327 60.8818 119.857 58.2018C120.267 57.8918 120.217 56.8918 120.217 56.2118C120.217 56.0418 119.487 55.6418 119.257 55.7318C114.427 57.7218 109.397 59.5518 109.057 65.9918C105.317 65.6018 101.907 66.0218 99.9167 69.8218C99.1067 70.9818 98.2967 72.1318 97.4867 73.2918V73.3018ZM217.407 237.992C216.287 237.752 215.167 237.302 214.057 237.322C213.067 237.342 212.727 238.182 213.217 238.982C213.377 239.242 213.967 239.512 214.197 239.412C215.247 238.942 216.247 238.342 217.127 237.702C216.997 237.622 216.857 237.552 216.727 237.472C216.957 237.642 217.187 237.812 217.407 237.982V237.992ZM116.057 79.2618C116.537 78.6018 116.957 77.8818 117.517 77.2818C118.217 76.5318 118.327 75.8418 117.557 75.2418C117.297 75.0418 116.607 75.0018 116.437 75.1818C115.937 75.7218 115.267 76.4118 115.267 77.0518C115.267 77.8018 115.877 78.5518 116.137 79.2318C115.857 78.9618 115.587 78.6918 115.307 78.4218C115.557 78.7018 115.807 78.9718 116.057 79.2518V79.2618ZM439.957 326.622C438.917 327.142 437.857 327.622 436.847 328.192C436.537 328.372 436.267 328.782 436.167 329.142C436.087 329.402 436.317 329.752 436.417 330.052C436.957 329.622 437.707 329.312 437.987 328.752C438.537 327.682 438.777 326.442 440.177 326.202C439.187 326.412 439.137 325.722 439.677 325.842C441.297 326.192 439.487 325.002 439.957 326.622ZM169.927 286.072C171.017 286.272 172.097 286.522 173.197 286.622C173.417 286.642 173.837 286.162 173.917 285.842C174.137 284.952 173.587 284.422 172.637 284.782C171.587 285.172 170.647 285.872 169.667 286.442C169.697 285.212 169.887 283.952 169.677 282.752C169.607 282.322 168.597 282.062 168.007 281.722C167.717 282.372 166.997 283.322 167.207 283.612C167.917 284.592 168.947 285.332 169.927 286.072ZM191.637 88.4418C193.167 88.7918 194.697 89.0918 196.207 89.4918C197.347 89.7918 197.857 89.5618 197.607 88.6918C197.577 88.5718 196.857 88.6318 196.457 88.6318C194.877 88.6118 193.297 88.5918 191.847 88.7018C191.907 89.4218 191.937 90.1418 192.037 90.8618C192.267 92.5318 190.747 91.0418 192.217 91.8318C192.887 92.1918 193.327 91.2918 192.827 90.3718C192.467 89.7118 192.037 89.0818 191.637 88.4418ZM157.717 115.992L157.657 115.032L158.047 115.732C159.237 117.992 161.127 118.032 163.147 117.182C164.357 116.672 165.227 115.442 164.517 114.322C164.057 113.602 162.367 112.992 161.577 113.282C160.147 113.812 158.977 115.052 157.717 115.982V115.992ZM190.527 155.222C193.967 156.852 197.507 157.142 201.097 155.842C202.297 155.402 203.087 154.412 202.747 153.112C202.637 152.682 201.517 152.132 201.017 152.262C197.557 153.162 193.657 152.792 190.847 155.632C189.427 156.502 187.997 157.332 186.617 158.262C186.377 158.422 186.177 159.092 186.317 159.322C186.787 160.132 187.557 160.172 188.407 159.572C189.897 158.512 190.507 157.022 190.527 155.242V155.222ZM328.617 137.282C327.517 137.782 326.367 138.192 325.347 138.812C323.827 139.732 322.897 141.132 324.117 142.742C324.737 143.562 326.147 144.372 327.067 144.242C328.707 144.002 329.877 142.752 329.517 140.822C329.297 139.642 328.877 138.502 328.617 137.352C330.337 137.422 332.057 137.502 333.777 137.572C334.057 140.192 335.267 142.172 337.577 143.562C340.837 145.512 341.827 145.192 345.097 140.732C346.797 140.282 349.617 141.542 349.527 138.272C349.467 136.052 347.967 134.412 345.717 134.302C342.827 134.152 342.747 136.342 342.927 138.482C339.787 138.202 336.647 137.932 333.417 137.722C331.827 137.572 330.227 137.432 328.637 137.282H328.617ZM331.777 121.852C332.107 121.642 332.437 121.422 332.767 121.212C332.567 121.212 332.257 121.112 332.167 121.212C331.907 121.502 331.737 121.872 331.537 122.212C331.477 121.012 331.887 119.412 331.277 118.672C329.037 115.972 325.967 114.842 322.447 115.392C321.707 115.512 321.047 116.182 320.357 116.602C320.957 117.582 321.357 119.132 322.207 119.432C325.287 120.522 328.517 121.192 331.777 121.852ZM384.607 369.482C384.457 371.002 383.827 371.552 383.067 369.912C382.867 369.482 384.127 369.122 384.837 369.782C382.317 372.432 379.757 375.042 377.327 377.772C376.917 378.232 376.757 379.472 377.077 379.892C377.487 380.422 378.507 380.702 379.267 380.712C384.617 380.782 385.777 379.502 385.267 374.212C385.117 372.612 384.817 371.022 384.607 369.482ZM205.427 167.522C202.687 169.902 199.037 169.242 195.927 170.382C192.407 171.682 188.797 172.832 185.437 174.472C183.627 175.352 183.847 177.182 185.317 178.592C186.947 180.162 188.707 181.202 190.717 179.222C193.737 176.242 197.127 173.922 201.137 172.412C203.097 171.672 204.617 170.102 205.007 167.862C205.927 167.802 206.077 167.952 205.467 168.292C205.457 168.032 205.437 167.772 205.427 167.512V167.522ZM446.737 310.332C456.707 302.052 458.597 297.512 457.007 284.162C451.407 292.822 445.857 300.392 447.007 310.632L446.307 310.602L446.747 310.332H446.737ZM296.697 114.662C299.407 115.762 302.047 117.202 304.867 117.852C306.797 118.302 308.997 117.802 311.037 117.472C312.507 117.232 312.947 115.882 312.477 114.672C311.417 111.952 310.387 109.102 306.877 108.572C302.327 107.882 297.797 107.102 293.237 106.522C292.677 106.452 291.717 107.262 291.447 107.882C291.167 108.512 291.267 109.562 291.637 110.162C292.937 112.252 296.477 111.942 296.997 115.072C296.397 115.492 295.757 115.862 295.217 116.342C294.377 117.092 294.567 117.592 295.707 117.592C295.957 117.592 296.357 117.192 296.427 116.912C296.597 116.182 296.617 115.412 296.697 114.662ZM239.967 296.392C230.757 295.742 221.547 294.942 212.327 294.482C207.047 294.222 203.137 296.082 203.987 297.862C205.387 300.802 208.247 301.732 211.087 302.532C213.527 303.222 215.987 303.512 218.557 302.902C220.157 302.522 222.297 301.972 223.477 302.682C228.867 305.972 233.977 303.102 239.017 302.132C243.027 301.362 240.947 298.472 239.907 296.362C243.417 297.532 246.897 298.812 250.457 299.832C254.127 300.882 255.157 300.242 258.377 295.642C252.127 293.562 246.117 296.702 239.977 296.392H239.967ZM121.957 189.342C122.817 187.942 123.777 186.602 124.477 185.132C124.767 184.522 124.557 183.622 124.417 182.892C124.377 182.672 123.757 182.352 123.477 182.422C118.727 183.552 115.357 186.892 113.257 192.472C116.277 191.312 119.297 190.152 122.317 188.992C120.497 194.302 118.087 199.152 112.567 201.592L112.827 201.882C108.527 198.022 105.347 201.172 102.137 203.672C101.557 204.122 101.107 204.992 100.997 205.732C100.747 207.512 105.037 209.962 109.247 210.192C112.147 210.352 115.087 210.212 117.977 209.942C121.457 209.622 125.837 205.942 124.857 202.722C123.867 199.452 124.397 198.172 126.807 196.892C130.977 194.682 132.717 191.482 131.407 186.792C127.847 186.152 125.197 188.952 121.937 189.352L121.957 189.342ZM176.997 392.842C169.187 395.632 161.667 394.832 154.397 391.002C144.097 385.572 134.507 378.572 122.687 376.432C122.297 376.362 121.907 376.092 121.577 375.842C118.267 373.262 114.887 372.772 111.037 374.872C108.147 376.452 105.297 375.042 102.587 373.862C92.5967 369.492 82.6067 365.112 72.6467 360.692C68.4267 358.822 64.2567 356.842 60.0767 354.882C59.1367 354.442 58.4467 354.582 58.3667 354.722C57.3967 356.822 57.9967 357.912 58.7167 358.922C67.5867 371.322 77.6267 382.552 90.4167 391.112C93.1867 392.972 95.9667 394.972 98.2767 397.342C103.317 402.512 109.067 404.052 116.377 404.092C129.007 404.172 141.427 401.692 154.147 402.372C160.947 402.732 168.337 401.352 175.157 398.702C179.027 397.202 177.347 395.022 176.887 392.812C180.727 393.242 183.677 395.822 187.127 397.102C191.787 398.822 196.477 399.092 200.847 394.982C192.687 391.102 184.817 392.282 176.997 392.842ZM225.917 106.442C228.697 109.332 230.937 110.332 232.777 109.722C241.477 106.872 249.067 110.942 256.967 113.112C258.977 113.662 260.917 114.472 262.927 114.962C265.047 115.482 267.207 115.362 268.247 113.052C269.407 110.492 272.537 108.102 270.817 105.142C269.087 102.162 265.687 101.002 262.137 101.282C260.077 101.442 257.897 101.572 256.037 102.342C250.467 104.642 244.687 105.242 238.877 104.342C234.437 103.652 230.767 105.392 225.917 106.442ZM410.127 171.182C411.327 153.992 406.457 138.362 396.307 124.352C395.107 122.692 393.417 121.352 391.797 120.062C391.307 119.672 390.077 119.622 389.577 119.982C389.047 120.362 388.527 121.592 388.767 122.112C391.187 127.372 392.577 133.112 396.357 137.762C398.447 140.332 401.057 143.122 401.637 146.162C403.297 154.832 408.407 162.362 410.127 171.192V171.182ZM446.477 220.532C446.567 222.212 446.397 223.972 448.237 224.792C450.077 225.622 451.627 224.532 452.527 223.192C458.447 214.372 459.477 204.802 456.467 194.722C456.067 193.372 453.297 193.102 452.197 194.292C451.367 195.192 450.177 196.122 449.997 197.182C448.707 204.942 447.627 212.742 446.477 220.522V220.532ZM227.147 83.9818C225.087 84.7418 223.017 85.2318 221.287 86.2818C220.487 86.7618 219.877 88.4118 220.027 89.4018C220.237 90.7218 221.967 91.4218 223.017 90.9318C229.287 87.9718 234.917 88.5518 240.367 92.9818C241.387 93.8118 243.617 93.3018 245.257 93.1118C245.927 93.0318 246.987 92.1818 247.027 91.6218C247.107 90.4918 246.917 89.1018 246.277 88.2318C245.607 87.3218 244.337 86.4618 243.237 86.3318C237.867 85.6918 232.357 86.2918 227.147 83.9818ZM378.057 214.712C379.887 222.912 380.307 228.812 383.157 234.042C383.437 234.562 384.457 234.762 385.167 234.932C385.387 234.982 385.927 234.472 386.027 234.132C387.357 229.752 388.397 225.462 386.617 220.792C385.257 217.222 381.417 218.642 378.057 214.712ZM152.927 41.1218C144.687 41.8818 135.427 45.6118 130.667 49.7718C129.837 50.5018 129.827 51.2418 130.537 51.7518C130.847 51.9718 131.297 52.2918 131.597 52.2118C139.247 50.2718 146.047 46.7518 152.927 41.1218ZM267.957 390.572C274.057 389.652 279.567 388.832 285.067 387.962C286.307 387.762 287.587 386.952 286.947 385.722C286.557 384.972 284.767 384.422 283.767 384.612C278.987 385.512 274.247 386.652 269.527 387.862C269.037 387.982 268.797 389.072 267.957 390.582V390.572ZM454.877 181.682C454.887 181.882 454.857 183.582 455.217 185.182C455.347 185.762 456.427 186.442 457.097 186.472C457.607 186.502 458.477 185.642 458.637 185.042C459.047 183.422 459.167 181.722 459.387 180.062C459.747 177.332 461.807 174.262 458.207 172.242C456.217 171.122 454.917 174.162 454.877 181.682ZM179.327 300.102C180.617 299.982 181.067 300.042 181.427 299.882C182.117 299.572 183.367 298.912 183.327 298.802C182.917 297.712 182.537 296.252 181.667 295.782C179.927 294.832 177.917 294.192 175.947 293.882C174.207 293.602 171.517 292.422 171.267 295.502C171.177 296.582 172.997 298.252 174.317 298.892C176.077 299.742 178.197 299.852 179.337 300.102H179.327ZM217.667 283.742C217.547 282.092 214.737 280.152 212.967 280.502C210.717 280.952 208.557 283.582 208.687 285.702C208.887 288.812 210.967 291.002 213.167 290.402C215.667 289.722 217.867 286.472 217.667 283.742ZM440.967 204.292C440.637 204.432 440.097 204.512 440.027 204.732C439.097 207.532 439.307 210.172 441.347 212.462C441.587 212.732 442.227 213.042 442.377 212.932C442.947 212.492 443.647 211.972 443.827 211.342C444.547 208.842 443.827 206.622 442.047 204.772C441.797 204.512 441.337 204.442 440.977 204.292H440.967ZM340.667 126.702C338.847 126.702 337.947 126.512 337.197 126.762C336.507 126.982 335.787 127.572 335.427 128.192C334.877 129.142 335.347 129.892 336.447 130.042C338.897 130.372 341.357 130.712 343.817 130.852C344.177 130.872 344.687 129.812 344.947 129.182C345.037 128.972 344.647 128.372 344.347 128.232C342.857 127.552 341.317 126.972 340.667 126.712V126.702ZM261.407 88.8418C261.137 88.1218 261.067 87.1318 260.547 86.7218C258.487 85.1118 256.067 84.5118 253.537 85.2818C252.137 85.7018 251.887 86.9318 252.567 88.2018C254.277 91.3818 258.107 92.1818 260.907 89.9418C261.187 89.7218 261.237 89.2118 261.407 88.8418ZM120.297 160.352C120.057 160.132 119.777 159.652 119.497 159.662C117.407 159.682 112.717 164.242 113.177 165.852C113.427 166.742 114.207 166.742 115.147 166.352C117.447 165.392 119.247 163.932 120.217 161.592C120.357 161.262 120.277 160.832 120.297 160.362V160.352ZM319.197 386.252C320.187 386.092 321.357 385.902 322.527 385.702C323.557 385.532 324.057 384.872 323.617 383.962C323.317 383.352 322.637 382.572 322.057 382.522C320.917 382.412 319.687 382.592 318.587 382.932C317.487 383.272 316.487 384.122 316.887 385.382C317.027 385.832 318.267 385.932 319.207 386.252H319.197ZM281.357 88.3718C280.797 87.7718 280.377 86.8818 279.857 86.8318C278.567 86.6918 277.627 87.5718 277.577 88.8318C277.527 90.0918 278.337 91.0818 279.727 90.7618C280.937 90.4918 281.447 89.4518 281.357 88.3718ZM210.857 89.7218C211.167 90.4418 211.337 91.6718 211.807 91.7918C213.837 92.3218 214.847 90.8018 215.417 89.2218C215.587 88.7418 214.867 87.4718 214.307 87.2818C212.217 86.5618 211.307 87.8918 210.867 89.7218H210.857ZM267.547 248.562C265.797 247.662 265.127 247.042 264.437 247.012C262.567 246.932 260.917 244.932 258.917 246.352C258.777 246.452 258.787 247.062 258.947 247.272C260.297 248.972 262.217 249.372 264.227 249.392C264.977 249.392 265.727 249.032 267.537 248.562H267.547ZM336.787 383.952C338.277 384.272 339.837 383.812 340.937 382.452C341.017 382.352 340.617 381.582 340.347 381.522C339.217 381.262 338.037 380.952 336.917 381.062C336.277 381.122 335.707 381.952 335.107 382.432C335.647 382.942 336.107 383.802 336.787 383.952ZM291.397 88.5418C290.117 88.3918 288.947 88.0918 287.807 88.1818C286.807 88.2718 286.407 89.1818 286.947 90.0518C287.717 91.2818 288.987 91.3718 290.097 90.6818C290.647 90.3418 290.867 89.4518 291.387 88.5418H291.397ZM210.787 99.3718C209.847 98.7518 209.257 98.1118 208.547 97.9318C207.327 97.6318 206.017 97.7718 205.457 99.1118C205.377 99.2918 206.617 100.432 207.217 100.412C208.347 100.362 209.457 99.7918 210.777 99.3718H210.787ZM254.277 389.602C253.597 388.412 252.457 388.172 251.317 388.452C250.677 388.612 249.597 389.482 249.677 389.712C250.137 391.062 251.447 391.012 252.547 390.802C253.187 390.682 253.717 390.022 254.287 389.612L254.277 389.602ZM257.967 120.152C258.267 119.922 258.567 119.682 258.867 119.452C258.247 119.082 257.657 118.472 257.007 118.392C256.007 118.272 255.417 119.012 255.907 119.512C256.357 119.962 257.257 119.962 257.967 120.152ZM133.297 200.112C132.717 199.712 132.097 198.952 131.557 199.002C130.967 199.052 130.447 199.852 129.887 200.322C130.467 200.712 131.077 201.452 131.617 201.412C132.207 201.362 132.737 200.582 133.297 200.112ZM432.247 238.002L432.487 239.122L432.837 238.242L432.247 238.002ZM268.007 260.842C267.417 260.172 266.807 260.182 266.177 260.862C266.467 261.022 266.767 261.312 267.057 261.302C267.377 261.292 267.687 261.012 268.007 260.842ZM354.987 382.502C354.857 382.182 354.757 381.612 354.597 381.602C353.837 381.532 352.937 381.372 352.317 381.692C351.427 382.152 351.667 382.992 352.837 383.132C353.517 383.222 354.267 382.732 354.987 382.502ZM218.297 394.832C217.987 394.692 217.667 394.412 217.377 394.442C216.317 394.562 216.127 395.002 216.867 395.472C217.117 395.622 217.567 395.572 217.867 395.472C218.057 395.402 218.147 395.052 218.287 394.832H218.297ZM168.577 36.1218C168.487 35.9018 168.417 35.5118 168.317 35.5118C168.027 35.5018 167.727 35.6318 167.427 35.7118C167.507 35.9318 167.597 36.3418 167.677 36.3418C167.977 36.3418 168.277 36.2018 168.577 36.1218ZM159.767 38.0118L159.727 38.8118L160.697 38.4318L159.757 38.0118H159.767ZM341.047 154.862L340.267 154.422L340.147 155.072L341.047 154.862ZM222.897 238.792L223.927 238.352L222.927 237.872L222.897 238.792ZM234.907 289.502L235.717 288.802C235.467 288.552 235.227 288.112 234.957 288.082C233.957 287.992 233.547 288.442 233.947 289.142C234.077 289.372 234.577 289.382 234.907 289.502ZM57.9667 345.272C57.8767 345.552 57.6167 345.972 57.7167 346.102C58.1967 346.722 58.5567 346.512 58.5867 345.562C58.5867 345.472 58.1867 345.372 57.9767 345.272H57.9667ZM217.387 385.172C216.857 384.372 216.207 384.302 215.437 384.932C215.737 385.152 216.017 385.512 216.347 385.552C216.677 385.592 217.037 385.312 217.387 385.172ZM12.0767 270.982L12.7567 271.462L12.8667 270.722L12.0767 270.982Z" fill="#D8E142"/>
<path id="Vector_2" d="M367.057 41.5418C357.207 40.4518 351.747 35.4718 345.257 33.1518C344.447 32.8618 343.467 30.9618 343.707 30.1718C345.067 25.7818 342.217 22.3818 341.277 18.5718C340.437 15.1618 342.517 12.0518 345.947 12.3518C349.387 12.6518 352.547 13.8218 354.387 16.9018C356.077 19.7418 357.387 22.8118 358.747 25.8318C359.997 28.6118 358.237 29.4018 355.937 29.8918C355.237 30.0418 354.657 30.7418 354.027 31.1818C355.687 36.3618 361.247 37.2018 367.047 41.5418H367.057Z" fill="#D8E142"/>
<path id="Vector_3" d="M375.297 55.0418C380.007 54.0718 383.987 56.8418 388.357 57.5818L388.077 57.2518C390.877 61.4818 396.757 62.6518 398.617 67.8218C390.277 64.6618 381.877 61.6018 375.687 54.6818L375.297 55.0418Z" fill="#D8E142"/>
<path id="Vector_4" d="M120.567 19.0018C124.407 16.3418 126.487 14.1018 129.737 14.7018C131.087 14.9518 131.957 15.9018 132.097 17.2218C132.257 18.7118 131.167 19.5518 129.897 19.5618C127.497 19.5818 125.087 19.3018 120.577 19.0018H120.567Z" fill="#D8E142"/>
<path id="Vector_5" d="M18.9667 354.592C21.1767 358.782 26.1267 359.922 28.8667 363.482C29.2467 363.982 29.1167 365.092 28.8767 365.812C28.5467 366.802 27.7267 366.912 26.9367 366.252C23.2867 363.182 18.2667 360.982 19.5067 354.752L18.9667 354.592Z" fill="#D8E142"/>
<path id="Vector_6" d="M274.867 2.3618C277.117 2.5318 279.067 2.5518 280.947 2.9018C281.477 3.0018 282.127 4.0318 282.177 4.6718C282.207 5.0818 281.237 5.9018 280.677 5.9418C278.267 6.1418 276.157 5.5418 274.877 2.3618H274.867Z" fill="#D8E142"/>
<path id="Vector_7" d="M84.1667 41.2918C84.6367 43.3018 85.4567 45.3018 85.4667 47.3118C85.4767 49.0518 84.0867 50.3618 82.1467 50.2918C81.4667 50.2618 80.3667 49.6018 80.2467 49.0518C79.9867 47.9318 79.8167 46.3918 80.3967 45.5718C81.5667 43.9018 83.2467 42.5918 84.7167 41.1318L84.1667 41.2918Z" fill="#D8E142"/>
<path id="Vector_8" d="M50.6767 70.5518C52.9967 70.9418 54.4967 69.3218 56.0967 68.1618C58.2367 66.6218 60.4967 66.0818 63.0467 66.4518L63.3367 66.1318C61.9767 66.8118 60.3467 67.2118 59.2967 68.2218C56.7867 70.6418 53.8667 70.8518 50.7067 70.5118L50.6767 70.5518Z" fill="#D8E142"/>
<path id="Vector_9" d="M332.897 20.6318C332.257 21.9018 331.147 22.2818 329.947 21.8418C329.447 21.6618 328.757 20.5818 328.907 20.2518C329.417 19.1318 330.497 18.3618 331.747 18.8118C332.277 19.0018 332.527 20.0118 332.897 20.6418V20.6318Z" fill="#D8E142"/>
<path id="Vector_10" d="M240.837 3.2118C240.027 3.5318 239.307 4.0518 238.607 4.0218C238.007 4.0018 237.437 3.3518 236.847 2.9818C237.567 2.7118 238.287 2.2118 238.997 2.2318C239.597 2.2418 240.187 2.8418 240.837 3.2218V3.2118Z" fill="#D8E142"/>
<path id="Vector_11" d="M115.137 21.6918C113.857 24.5418 110.077 25.4418 109.537 28.8718V28.9118C109.947 25.2818 111.717 22.6718 115.207 21.3518L115.147 21.6918H115.137Z" fill="#D8E142"/>
<path id="Vector_12" d="M180.477 1.2518C181.117 0.841798 181.727 0.361798 182.407 0.051798C182.697 -0.078202 183.397 0.051798 183.507 0.271798C183.907 1.0818 183.457 1.6918 182.387 1.6418C181.637 1.6018 180.897 1.2318 180.157 1.0018L180.477 1.2518Z" fill="#D8E142"/>
<path id="Vector_13" d="M248.027 10.7718C249.577 10.2918 251.097 9.6918 252.677 9.3718C253.677 9.1718 254.397 9.9218 254.097 10.8118C253.907 11.3618 252.977 12.1218 252.507 12.0318C250.937 11.7418 249.417 11.1218 247.837 10.5818C247.797 10.5418 248.017 10.7718 248.017 10.7718H248.027Z" fill="#D8E142"/>
<path id="Vector_14" d="M50.6067 79.6418C49.4367 79.5118 48.2267 79.5118 47.1167 79.2018C46.5967 79.0518 46.2567 78.3018 45.8367 77.8218C46.4567 77.7718 47.1967 77.4718 47.6767 77.7118C48.7267 78.2418 49.6367 79.0318 50.6067 79.7218V79.6518V79.6418Z" fill="#D8E142"/>
<path id="Vector_15" d="M403.287 366.052C401.897 370.742 401.617 370.872 398.357 368.442L398.197 368.762C399.167 367.792 400.127 366.832 401.097 365.862L400.717 366.112C401.697 366.152 402.677 366.192 403.647 366.232L403.287 366.052Z" fill="#D8E142"/>
<path id="Vector_16" d="M302.397 441.762C300.027 443.482 297.337 444.222 294.447 444.332L294.827 444.632C294.827 443.672 294.827 442.702 294.827 441.742L294.387 442.052C297.087 442.052 299.787 442.072 302.497 442.082L302.397 441.762Z" fill="#D8E142"/>
<path id="Vector_17" d="M168.187 5.6118L167.097 5.8618L167.317 5.0018L168.187 5.6118Z" fill="#D8E142"/>
<path id="Vector_18" d="M154.577 8.1718C155.297 7.8418 155.987 7.4418 156.737 7.2218C156.887 7.1818 157.517 7.9018 157.457 8.1418C157.177 9.1418 156.397 9.4818 155.437 9.0718C155.087 8.9218 154.857 8.4818 154.577 8.1718Z" fill="#D8E142"/>
<path id="Vector_19" d="M109.537 28.8718C106.957 28.7218 104.377 28.5818 101.787 28.4318L101.497 28.7418C104.197 27.5618 106.877 27.3718 109.537 28.8918C109.537 28.9018 109.537 28.8618 109.537 28.8618V28.8718Z" fill="#D8E142"/>
<path id="Vector_20" d="M93.1267 40.9818C93.4567 41.2018 94.0367 41.6618 94.0967 41.6018C94.6567 41.0418 94.2767 40.8618 93.0467 41.1818L93.1367 40.9718L93.1267 40.9818Z" fill="#D8E142"/>
<path id="Vector_21" d="M50.5867 79.7218C50.6067 76.6718 50.6367 73.6318 50.6667 70.5718C50.6667 70.5618 50.6967 70.5218 50.7067 70.5218C50.6667 73.5218 50.6267 76.5318 50.5967 79.5918C50.6067 79.6518 50.5967 79.7218 50.5967 79.7218H50.5867Z" fill="#D8E142"/>
<path id="Vector_22" d="M46.0167 89.0018C44.8367 86.5318 45.8367 88.7718 45.9267 89.0418L46.0167 89.0018Z" fill="#D8E142"/>
<path id="Vector_23" d="M45.9267 89.0418C45.1467 88.7918 44.3767 88.5518 43.5967 88.3018C44.3867 88.5318 45.1767 88.7718 45.9967 89.0018C46.0167 89.0018 45.9267 89.0418 45.9267 89.0418Z" fill="#D8E142"/>
<path id="Vector_24" d="M86.3667 413.022C85.3367 412.882 84.2967 412.742 83.2667 412.602C83.5367 412.432 83.8667 412.082 84.0867 412.142C84.8867 412.342 85.6467 412.692 86.4767 412.992C86.5267 413.012 86.3767 413.022 86.3767 413.022H86.3667Z" fill="#D8E142"/>
<path id="Vector_25" d="M180.147 1.0018L180.537 2.0018C180.537 2.0018 180.537 1.3018 180.497 1.2818C180.467 1.2618 180.137 1.0118 180.137 1.0118L180.147 1.0018Z" fill="#D8E142"/>
<path id="Vector_26" d="M115.197 21.3518C116.197 22.7118 114.137 22.7618 115.517 21.7818C115.567 21.7518 115.387 21.3918 115.307 21.1918C115.237 21.3818 115.167 21.5718 115.117 21.7318C115.137 21.6918 115.197 21.3518 115.197 21.3518Z" fill="#D8E142"/>
<path id="Vector_27" d="M130.297 29.8018C130.267 28.7918 130.227 27.7818 130.187 26.7618C130.177 26.7618 130.097 26.7018 130.097 26.7018C130.097 27.7518 130.107 28.8018 130.117 29.8518L130.307 29.7918L130.297 29.8018Z" fill="#D8E142"/>
<path id="Vector_28" d="M101.787 28.4318L101.997 29.3418C101.997 29.3418 101.547 28.7318 101.517 28.7418C101.487 28.7518 101.787 28.4318 101.787 28.4318Z" fill="#D8E142"/>
<path id="Vector_29" d="M94.3767 34.3818C94.6367 34.4818 95.0967 34.7018 95.1167 34.6618C95.5567 33.8818 95.3967 33.6918 94.6767 34.1018L94.3767 34.3718V34.3818Z" fill="#D8E142"/>
<path id="Vector_30" d="M370.007 35.2518L370.247 34.6618C370.247 34.6618 369.877 35.4618 369.837 35.5018C369.797 35.5418 370.007 35.2518 370.007 35.2518Z" fill="#D8E142"/>
<path id="Vector_31" d="M94.6767 34.1118C94.5067 34.2818 94.3467 34.4518 94.1767 34.6118C94.9067 35.0118 94.9867 34.9318 94.3967 34.3718C94.3767 34.3818 94.6767 34.1118 94.6767 34.1118Z" fill="#D8E142"/>
<path id="Vector_32" d="M84.7067 41.1318C83.8967 42.6118 83.4367 40.3818 84.3567 41.7918C84.3867 41.8318 84.7167 41.6718 84.9067 41.6018C84.6467 41.5118 84.3867 41.4318 84.1467 41.3118C84.1567 41.2818 84.7067 41.1218 84.7067 41.1218V41.1318Z" fill="#D8E142"/>
<path id="Vector_33" d="M419.717 40.3718C418.047 40.5918 419.697 38.6518 418.777 40.0618C418.247 40.8818 418.467 41.3018 419.447 41.3418C421.137 41.4118 418.577 41.6218 419.747 40.4018L419.717 40.3718Z" fill="#D8E142"/>
<path id="Vector_34" d="M418.617 45.0018C418.987 43.4618 419.347 41.9218 419.717 40.3818L419.747 40.4118C419.017 42.3618 420.377 43.6018 421.287 45.0018L421.467 44.5818C420.427 44.5818 419.397 44.5818 418.357 44.5818L418.627 45.0018H418.617Z" fill="#D8E142"/>
<path id="Vector_35" d="M63.0467 66.4518C62.8267 64.7818 64.2667 66.6818 62.9467 65.6418C63.0567 65.8118 63.1767 65.9818 63.3167 66.1418C63.3467 66.1318 63.0567 66.4518 63.0567 66.4518H63.0467Z" fill="#D8E142"/>
<path id="Vector_36" d="M77.5967 65.1818C78.3767 64.2618 79.1567 63.3318 79.9367 62.4118L79.5467 62.2818L77.1867 65.0818L77.6067 65.1818H77.5967Z" fill="#D8E142"/>
<path id="Vector_37" d="M74.4867 67.8618C75.5267 66.9718 76.5667 66.0718 77.5967 65.1818L77.1767 65.0818C76.2467 65.8818 75.3067 66.6818 74.3767 67.4818L74.4767 67.8618H74.4867Z" fill="#D8E142"/>
<path id="Vector_38" d="M16.5767 239.462C16.1967 239.162 15.8067 238.852 15.4267 238.552C15.6667 238.622 16.0367 238.612 16.1067 238.762C16.2567 239.042 16.2267 239.412 16.2767 239.752L16.5767 239.462Z" fill="#D8E142"/>
<path id="Vector_39" d="M439.147 348.152C438.127 348.142 437.107 348.122 436.077 348.112C436.077 348.112 435.997 348.402 436.007 348.402C437.077 348.402 438.147 348.422 439.217 348.432L439.147 348.152Z" fill="#D8E142"/>
<path id="Vector_40" d="M19.5067 354.752C17.9967 355.502 18.6667 353.492 18.7967 355.142C18.8467 355.682 19.5567 355.452 18.9867 354.602C18.9667 354.592 19.5067 354.742 19.5067 354.742V354.752Z" fill="#D8E142"/>
<path id="Vector_41" d="M411.047 358.152C410.187 358.982 409.317 359.822 408.457 360.652L408.577 361.012C409.477 360.182 410.367 359.352 411.267 358.532L411.047 358.152Z" fill="#D8E142"/>
<path id="Vector_42" d="M408.457 360.652C407.577 361.512 406.707 362.382 405.827 363.242L406.027 363.652C406.877 362.772 407.727 361.892 408.577 361.012L408.457 360.652Z" fill="#D8E142"/>
<path id="Vector_43" d="M405.837 363.242C404.987 364.182 404.137 365.112 403.287 366.052L403.647 366.232C403.627 365.222 403.597 364.212 403.577 363.212L403.267 363.652C404.187 363.652 405.117 363.652 406.037 363.652L405.837 363.242Z" fill="#D8E142"/>
<path id="Vector_44" d="M32.7867 370.332L32.5367 369.682L33.1767 369.762L32.7867 370.332Z" fill="#D8E142"/>
<path id="Vector_45" d="M41.8967 370.922C41.2367 371.132 40.5967 371.382 39.9667 371.672L40.2767 371.622C39.9367 370.522 39.5867 369.432 39.2467 368.332L38.9467 368.662C40.3867 368.992 41.2467 369.912 41.6067 371.322L41.9067 370.922H41.8967Z" fill="#D8E142"/>
<path id="Vector_46" d="M39.9667 371.662L39.4067 371.252C39.4067 371.252 40.2167 371.592 40.2467 371.602C40.2767 371.602 39.9667 371.662 39.9667 371.662Z" fill="#D8E142"/>
<path id="Vector_47" d="M370.837 416.572L370.867 416.062L370.657 416.812L370.837 416.572Z" fill="#D8E142"/>
<path id="Vector_48" d="M370.657 416.812L370.307 416.952C370.307 416.952 370.857 416.542 370.847 416.552C370.837 416.562 370.657 416.802 370.657 416.802V416.812Z" fill="#D8E142"/>
<path id="Vector_49" d="M398.137 67.3818C399.957 67.3718 401.767 67.3618 403.587 67.3518C404.697 68.9118 405.817 70.4618 406.927 72.0218L407.177 71.8918C402.587 73.5418 400.167 70.8618 398.137 67.3818Z" fill="#D8E142"/>
<path id="Vector_50" d="M406.927 72.0218L406.147 72.4918C406.147 72.4918 407.057 71.9318 407.117 71.9118C407.177 71.8918 406.927 72.0218 406.927 72.0218Z" fill="#D8E142"/>
<path id="Vector_51" d="M412.107 78.6418C412.227 78.4618 412.337 78.2718 412.457 78.0918C411.787 77.6818 411.607 77.8418 411.927 78.5618C411.947 78.5618 412.107 78.6418 412.107 78.6418Z" fill="#D8E142"/>
<path id="Vector_52" d="M416.707 78.0118C415.207 78.2118 413.707 78.4218 412.147 78.6318C412.097 78.6318 411.947 78.5618 411.917 78.5618C413.577 78.4118 415.257 78.2718 416.977 78.1418C417.007 78.1618 416.697 78.0118 416.697 78.0118H416.707Z" fill="#D8E142"/>
<path id="Vector_53" d="M112.587 201.592C112.457 202.732 112.007 203.102 111.297 202.622C111.247 202.592 111.467 201.882 111.667 201.812C112.007 201.692 112.447 201.832 112.847 201.872L112.587 201.592Z" fill="#D8E142"/>
<path id="Vector_54" d="M342.557 138.132C343.917 138.742 345.147 139.462 345.487 141.082C343.837 140.772 342.857 139.792 342.557 138.132Z" fill="#D8E142"/>
</g>
</svg>
