<svg preserveAspectRatio="none" width="100%" height="100%" overflow="visible" style="display: block;" viewBox="0 0 1087.51 575.39" fill="none" xmlns="http://www.w3.org/2000/svg">
<g id="Layer_1-2">
<path id="Vector" d="M848.87 63.97V0C797.77 45.72 703.42 67.71 635.03 41.34V238.64L807.8 192.36V279.71C889.52 225.31 1005.8 225.3 1087.51 279.71V0.02L848.88 63.97H848.87ZM807.8 149.83L676.09 185.13V91.63C721.28 97.66 768.08 89.32 807.8 68.34V149.83ZM1046.45 217.09C986.31 191.22 909.02 191.22 848.87 217.09V106.47L1046.45 53.52V217.09Z" fill="var(--fill-0, black)"/>
<path id="Vector_2" d="M95.19 301.74H0V569.78H95.19C178.45 569.78 231.83 512.3 231.83 434.26C231.83 356.22 180.32 301.74 95.19 301.74ZM92.22 520.87H56.75V350.64H92.22C145.6 350.64 173.6 380.87 173.6 434.25C173.6 487.63 145.6 520.86 92.22 520.86V520.87Z" fill="var(--fill-0, black)"/>
<path id="Vector_3" d="M425.6 429.79C449.49 417.48 463.31 397.69 463.31 373.04C463.31 327.12 428.59 301.74 372.21 301.74H271.43V569.78H376.33C435.31 569.78 471.89 540.66 471.89 491.01C471.89 461.53 455.47 440.24 425.6 429.79ZM322.93 346.54H367.73C395.36 346.54 409.54 358.49 409.54 377.53C409.54 396.57 395.36 408.88 367.73 408.88H322.93V346.54ZM371.84 524.98H322.93V454.05H371.84C402.46 454.05 418.51 467.5 418.51 488.77C418.51 511.55 402.46 524.98 371.84 524.98Z" fill="var(--fill-0, black)"/>
<path id="Vector_4" d="M709.7 459.27C702.98 497.73 673.49 524.61 635.41 524.61C589.49 524.61 558.51 488.02 558.51 435.38C558.51 382.74 589.5 346.91 635.41 346.91C669.4 346.91 696.85 368.02 706.86 399.92H767.67C753.88 337.77 701.05 296.14 634.67 296.14C559.25 296.14 500.27 356.99 500.27 435.38C500.27 513.77 559.25 575.39 634.67 575.39C705.22 575.39 760.48 528.72 769.81 459.28H709.71L709.7 459.27Z" fill="var(--fill-0, black)"/>
</g>
</svg>
