<svg preserveAspectRatio="none" width="100%" height="100%" overflow="visible" style="display: block;" viewBox="0 0 1153.2 127.172" fill="none" xmlns="http://www.w3.org/2000/svg">
<g id="Layer_1-2">
<path id="Vector" d="M403.524 59.6416C405.214 61.5816 407.564 61.8716 409.874 61.9616C413.514 62.0916 417.154 62.0016 421.024 62.0016C422.944 62.8916 425.024 63.8516 426.824 64.6916C427.534 65.7916 428.064 66.6216 428.594 67.4316C429.254 67.2416 429.864 67.0716 430.464 66.9016H430.484C429.644 66.4316 428.764 65.5116 427.974 65.5816C425.354 65.8216 422.754 66.4116 419.684 66.9516C416.544 66.6616 412.894 66.3516 409.244 65.9716C399.654 64.9716 389.994 64.7916 380.394 63.7816C372.124 62.9116 363.794 62.6616 355.494 62.1716C354.844 62.1316 354.144 62.5016 353.534 62.3716C348.994 61.4216 344.504 60.7016 339.784 60.8216C334.794 60.9516 329.794 60.1716 324.794 59.8516C320.124 59.5516 315.414 59.6216 310.784 59.0216C300.174 57.6616 289.454 58.1016 278.824 56.5816C270.914 55.4516 262.824 55.3316 254.814 55.2916C244.784 55.2416 234.824 54.2116 224.834 53.6416C216.544 53.1616 208.264 53.1516 199.974 52.0916C190.724 50.9116 181.324 50.8416 172.034 49.6916C170.054 49.4416 168.024 49.6516 166.024 49.6016C162.354 49.5116 158.684 49.4016 155.024 49.2816C151.364 49.1716 147.694 49.1016 144.034 48.8916C141.744 48.7616 139.474 48.3916 137.194 48.1316C136.264 48.4916 135.334 48.8516 134.224 49.2816C132.814 48.7716 131.324 47.9116 129.744 47.7016C126.454 47.2616 123.074 47.4616 119.834 46.8316C116.564 46.2016 113.304 48.2016 110.124 46.5716C107.494 47.5016 104.964 46.8716 102.294 46.5016C97.364 45.8216 92.334 45.8016 87.334 45.7116C84.384 45.6616 81.434 45.9916 78.474 46.1516C78.504 46.6416 78.544 47.1716 78.584 47.8316C79.854 47.9116 81.134 47.9916 82.414 48.0816C82.524 48.3416 82.644 48.6016 82.754 48.8616C82.454 48.9916 82.154 49.2016 81.834 49.2316C79.414 49.4516 77.194 48.7116 75.124 47.5616C73.674 46.7616 72.304 45.8116 70.674 44.7816C54.134 44.3016 37.444 43.8216 20.424 43.3316C20.264 42.6016 20.074 41.7416 19.734 40.2116C19.104 39.8916 18.024 38.9716 16.854 38.8216C14.884 38.5816 12.854 38.8016 10.854 38.8716C8.12397 38.9716 5.53397 38.4216 2.84397 37.0016C0.303971 33.8316 0.0339706 29.8016 0.00397059 25.8116C-0.0260294 20.1416 0.113971 14.4716 0.423971 8.81156C0.553971 6.51156 1.66397 4.38156 2.50397 2.14156C7.61397 0.691559 12.514 -0.0384407 17.554 0.00155932C33.264 0.121559 48.974 0.131559 64.674 0.381559C70.674 0.481559 76.674 1.07156 82.664 1.51156C91.634 2.17156 100.714 1.40156 109.594 3.50156C110.834 3.79156 112.244 3.24156 113.574 3.27156C118.894 3.41156 124.204 3.24156 129.274 5.63156C131.614 6.73156 134.474 7.08156 137.104 7.12156C143.424 7.21156 149.694 8.38156 156.084 7.20156C158.894 6.68156 162.124 7.18156 164.914 8.05156C169.164 9.37156 173.414 9.59156 177.774 9.74156C182.424 9.90156 187.074 10.4416 193.464 10.9516C193.694 10.9016 195.644 10.4616 197.944 9.94156C199.524 10.4816 201.404 11.1116 203.064 11.6816C224.664 10.5116 245.894 12.1216 267.014 15.1316C270.294 14.8816 273.604 14.2216 276.854 14.4316C296.194 15.6716 315.514 17.2016 334.864 18.4016C340.174 18.7316 345.424 19.5816 350.844 19.2316C355.744 18.9116 360.734 20.0116 365.684 20.4816C366.534 21.4416 367.384 22.4016 368.474 23.6316C373.494 21.9216 378.814 22.7216 384.034 22.1416C389.214 21.5716 393.624 24.5416 399.594 24.8816C405.794 24.1316 413.064 22.9416 420.514 26.8616C424.144 26.6316 428.374 26.2216 432.604 26.1716C433.784 26.1616 434.984 27.2116 436.054 27.7116C445.164 27.9516 454.154 28.1816 463.274 28.4216C465.334 29.3416 467.464 30.2916 469.704 31.2916C471.564 31.1916 473.724 31.5516 475.504 30.8816C479.504 29.3816 483.414 30.7516 487.334 30.7916C490.274 30.8316 493.194 32.0316 496.154 32.3016C499.134 32.5816 502.154 32.3616 506.474 32.3616C509.274 33.2416 513.384 34.5316 517.234 35.7416C522.034 34.2816 526.604 34.8516 530.944 34.7816C531.974 35.5416 532.774 36.1416 533.574 36.7516C535.804 36.6316 538.274 35.8516 540.194 36.5716C542.734 37.5116 544.754 36.0516 547.284 36.2816C548.504 36.9816 549.924 37.8116 551.904 38.9516C556.664 39.3816 561.834 37.6516 567.074 37.7716C572.024 37.8816 576.974 38.4016 581.804 38.7316C583.374 39.6616 584.794 40.5016 586.244 41.3616C587.234 41.3616 588.234 41.3816 589.224 41.3616C591.194 41.3116 593.324 40.7016 595.114 41.2516C600.144 42.8016 604.954 42.1016 609.714 40.4516C610.914 41.3716 611.944 42.1616 613.384 43.2716C614.934 43.4116 616.944 43.4616 618.894 43.8116C620.834 44.1616 622.734 44.8016 624.664 45.3316C625.594 45.0216 626.544 44.6916 628.044 44.1916C629.454 44.7016 631.314 45.3616 633.194 46.0316C637.174 46.2016 641.154 46.2416 644.614 44.0616C648.207 44.5616 651.401 45.6682 654.194 47.3816C655.144 46.8116 656.224 46.1516 657.314 45.4916C660.364 46.5816 663.414 47.6716 666.194 48.6616C669.244 47.9116 671.824 47.2716 674.304 46.6616C676.084 46.9516 677.714 47.2216 679.184 47.4716C680.354 48.4316 681.374 49.2716 682.214 49.9716C684.614 49.4416 686.804 48.9516 688.844 48.5016C691.554 49.2816 694.104 50.0116 696.374 50.6716C698.894 49.8416 701.074 49.1216 703.444 48.3416C705.774 49.8016 707.994 51.2016 710.344 52.6716C714.814 52.0516 719.344 51.4216 723.714 50.8216C724.464 51.2216 725.064 51.4816 725.604 51.8516C726.144 52.2216 726.624 52.6816 727.314 53.2616C733.714 52.9916 740.294 52.7016 747.434 52.4016C747.864 52.9816 748.394 53.8316 749.064 54.5416C749.504 55.0116 750.164 55.2716 751.314 55.9916C752.704 55.8716 754.654 55.4616 756.574 55.6016C758.194 55.7216 759.764 56.4616 761.174 56.8816C762.574 56.1116 763.734 55.4616 764.724 54.9216C768.914 53.9016 772.014 55.8116 774.874 57.9516C776.964 58.1816 777.974 56.7116 779.154 55.7216C781.054 55.0016 781.274 56.9816 783.084 57.9316C785.894 58.3616 789.494 58.9016 793.094 59.4516C794.884 58.5816 796.684 57.7016 798.174 56.9816H808.124C812.074 59.7616 817.364 60.9816 822.624 61.1416C827.784 61.2916 833.234 61.6116 838.044 58.3416C840.004 59.0516 841.934 59.5516 843.654 60.4416C845.374 61.3316 846.904 62.6116 848.484 63.6916C853.004 63.3916 857.314 62.4616 861.534 63.9416C865.574 62.8216 869.464 64.2316 873.424 64.6316C875.374 64.8316 877.364 64.6616 880.604 64.6616C881.864 65.1816 884.314 66.1916 886.764 67.2016C892.334 65.4516 897.954 66.0216 903.584 66.7916C907.854 67.3816 912.174 67.7316 916.394 68.5716C918.454 68.9816 920.274 68.8416 922.274 68.4916C923.434 68.2916 924.784 69.1516 926.524 69.6716C930.644 67.4716 934.754 68.2416 939.444 70.1616C944.194 72.1116 949.714 71.9716 955.904 70.8016C956.284 71.4516 956.934 72.5916 957.534 73.6316C959.784 73.2716 961.704 72.9116 963.644 72.6616C964.284 72.5816 964.964 72.7616 965.724 72.8316C966.764 73.4816 967.874 74.1716 969.234 75.0216C970.854 74.2316 972.614 73.3716 974.874 72.2616C976.704 72.3916 979.014 72.5516 981.444 72.7216C983.364 73.9616 985.294 75.2116 987.324 76.5216C989.274 75.7516 991.104 75.0316 992.904 74.3216C998.744 75.6316 1004.56 76.9416 1009.71 78.1016C1011.71 77.4716 1012.95 77.0816 1013.92 76.7816C1016.77 77.5016 1018.47 79.9116 1021.52 79.6816C1024.04 79.4916 1026.45 80.8216 1029.23 80.4916C1033.14 80.0216 1037.19 79.8816 1040.96 81.9616C1041.97 82.5216 1043.6 81.8516 1044.9 82.0316C1047.52 82.3916 1050.11 82.9416 1054.16 83.6716C1055.58 83.3116 1058.47 82.5816 1061.5 81.8116C1067.78 83.9016 1074.13 85.9516 1081.1 84.3716C1086.26 87.5316 1092.13 88.8216 1098.1 89.0616C1104.06 89.2916 1109.75 91.9416 1115.91 90.7516C1116.94 91.4516 1118.03 92.1816 1119.56 93.2116C1125.64 94.3116 1132.2 95.4916 1140.17 96.9216C1140.61 97.2516 1142.19 98.4216 1143.77 99.5916C1146.49 101.592 1150.53 100.012 1153.2 103.332C1153.11 104.242 1152.98 105.462 1152.81 107.102C1151.26 106.362 1150.11 105.812 1148.89 105.222C1144.31 106.162 1139.73 106.112 1135.12 104.782C1131.92 103.852 1128.62 103.202 1125.32 102.702C1122.05 102.202 1118.73 102.052 1115.41 101.962C1111.57 101.712 1108.18 98.2116 1103.97 100.552C1103.75 100.672 1103.72 101.152 1103.6 101.472C1104.89 103.702 1107.25 102.692 1109.04 102.992C1113.62 103.762 1118.12 104.332 1122.52 106.202C1126.42 107.862 1130.82 108.342 1135.86 109.552C1136.58 110.202 1137.99 111.482 1139.41 112.762C1138.07 114.142 1136.67 113.902 1135.4 113.692C1123.59 111.732 1111.71 110.092 1100.02 107.572C1091.15 105.662 1082.22 104.892 1073.24 104.132C1072.58 104.072 1071.91 104.202 1070.91 104.262C1070.2 105.022 1069.33 105.962 1068.07 107.322C1056.8 107.092 1045.41 105.272 1034.21 102.352C1032.65 102.842 1031.06 103.332 1029.27 103.882C1022.71 100.122 1015.36 100.402 1008.11 100.092C1006.45 100.022 1004.77 100.222 1003.14 100.002C995.594 98.9516 987.994 98.3216 980.444 97.1916C974.514 96.3016 968.484 96.0116 962.494 95.5716C958.574 95.2816 954.754 94.6516 950.974 93.5816C951.594 90.9016 953.884 92.3516 955.154 91.5016C955.714 90.7716 955.484 90.3316 954.464 90.3216C951.484 90.2816 948.584 90.5616 945.614 89.3516C942.884 88.2416 939.774 87.9916 936.794 87.6116C934.574 87.3316 932.314 87.4816 930.034 88.6316C932.494 90.9216 935.204 90.5016 937.814 90.7016C942.544 91.0716 942.544 91.1416 944.724 92.9416C936.194 93.8616 932.524 93.6116 920.234 91.2716C920.194 89.0216 922.874 90.2416 923.584 88.3416C923.234 87.8616 922.824 86.6916 922.204 86.5716C920.254 86.2016 918.234 86.1416 916.244 86.1216C911.614 86.0716 906.984 86.1016 902.394 86.1016C902.134 87.8116 903.244 87.6716 904.004 87.9116C906.844 88.8216 909.974 86.7516 912.954 88.8416C912.424 89.6416 911.924 90.3916 911.494 91.0516C901.684 90.1216 892.114 89.0516 881.364 89.3616C877.694 87.7416 872.744 87.3616 867.694 87.5416C861.674 87.7616 855.724 87.2416 849.774 86.1816C842.894 84.9516 835.914 84.2916 829.174 85.6216C824.714 84.6316 820.584 83.8216 816.164 83.8216C809.204 83.8216 802.214 83.3916 795.234 82.6216C784.004 81.3916 772.754 79.8316 761.394 80.3216C760.394 80.3616 759.394 80.2216 758.394 80.1216C753.114 79.6416 748.134 77.6716 742.584 78.0916C737.004 78.5116 731.304 77.4916 725.664 77.0416C720.344 76.6116 715.014 76.1516 709.704 75.6216C706.424 75.2916 703.104 76.3416 699.844 74.8616C696.394 73.3016 692.694 75.3216 689.024 74.4316C685.834 73.6616 682.394 73.9816 679.084 73.7016C664.454 72.4716 649.824 71.1916 635.184 69.9416C631.854 67.6716 628.074 69.3416 624.524 68.8916C621.344 68.4916 618.714 67.9616 616.784 65.3216H621.574C619.564 63.3216 618.454 65.8916 617.014 65.3516C613.181 67.2716 608.821 67.4549 603.934 65.9016C602.934 64.0816 605.234 64.1416 605.524 63.0316C605.434 62.8116 605.364 62.3716 605.234 62.3516C602.954 61.9816 600.664 61.6716 598.414 61.3516C598.374 61.4516 596.974 65.5616 596.844 65.9516C590.094 64.4716 583.104 65.7816 576.184 64.5316C573.344 64.0216 570.254 64.9516 567.624 65.1916C563.114 63.8716 558.964 62.6616 554.724 61.4216C551.454 61.6916 548.134 61.9616 544.444 62.2716C539.284 59.7116 533.004 60.6016 527.434 58.1316C524.814 56.9716 522.244 58.6616 519.424 59.1816C518.684 58.8816 517.744 58.1616 516.864 58.2216C510.894 58.5616 505.044 57.0416 499.054 57.2216C494.504 57.3516 489.934 56.4016 485.374 55.9016C484.384 55.7916 483.364 55.1916 482.454 55.3716C474.434 56.8916 466.634 54.7216 458.444 54.1016C458.174 54.7916 457.874 55.5516 457.414 56.7216C459.874 57.5216 462.044 58.2316 464.224 58.9416C467.274 56.9216 469.934 59.8316 472.904 59.6316C475.864 59.4316 478.874 59.8516 481.854 60.1616C487.794 60.7916 493.774 59.9916 499.744 61.3316C505.574 62.6416 511.634 63.0316 517.624 63.6116C525.254 64.3516 532.924 64.6416 540.524 65.5516C545.804 66.1816 551.044 66.9716 555.944 66.2416C557.924 67.2616 558.974 68.4716 559.524 70.1116L559.664 69.9316C557.334 71.4916 554.824 72.1216 552.064 71.3916C550.134 70.8816 548.214 70.3316 545.764 69.6516C542.334 70.4616 538.454 70.8416 534.484 69.4316C532.344 68.6716 529.924 68.6916 527.614 68.4416C522.684 67.9116 517.614 68.8116 512.814 66.7316C511.704 66.2516 510.174 66.5316 508.884 66.7316C507.234 66.9816 505.674 67.1016 503.984 66.6816C500.094 65.7216 496.144 65.5016 492.094 65.7216C489.504 65.8616 486.844 65.1516 484.244 64.6716C481.624 64.1916 479.044 63.5816 476.464 64.7616C476.624 65.3816 476.774 65.9716 476.954 66.6716C480.484 68.9916 484.814 66.8916 488.514 68.5516C488.634 69.4316 488.544 70.4316 488.954 71.1516C489.344 71.8416 490.254 72.2216 490.564 73.4616C488.714 72.8216 486.864 72.1816 484.764 71.4416C479.464 72.7916 473.974 72.0516 468.574 71.0016C468.064 67.7516 471.534 67.4416 472.224 64.9216C469.074 61.3616 465.084 62.7716 461.144 63.3116C457.714 62.4616 454.174 61.5816 450.444 60.6616C447.374 60.9416 444.254 61.5516 440.824 61.0616C433.964 60.0916 427.034 59.1016 419.994 59.7616C416.774 60.0616 413.444 59.2116 408.744 58.7416C407.894 58.9216 405.614 59.4116 403.334 59.9016C402.634 59.2416 401.924 58.5816 401.594 58.2716C395.814 57.6316 390.544 57.0516 385.004 56.4416C383.494 57.1616 381.704 58.0116 379.904 58.8716C379.464 57.9916 379.014 57.1016 378.464 56.0116C370.654 54.8916 362.564 56.0916 354.864 53.7016C349.104 54.7616 343.624 53.3116 338.454 51.6916C334.694 53.6216 331.194 53.9016 327.484 52.6816C325.624 52.0716 323.594 51.6716 321.634 51.6716C317.604 51.6716 313.704 51.1816 309.734 50.4516C304.514 49.4916 299.124 49.2016 294.014 51.4716C290.914 49.2216 287.434 50.3416 284.174 49.9116C275.264 48.7316 266.364 47.3616 257.344 47.4216C254.344 47.4416 251.264 48.0016 248.374 47.4716C240.454 46.0316 232.434 47.4516 224.524 46.2916C223.954 46.2116 223.314 46.6316 222.704 46.8216C222.794 47.0716 222.834 47.5016 222.984 47.5416C228.754 49.1616 234.554 50.2816 240.654 50.0616C244.954 49.9016 249.294 50.6716 253.614 51.0116C255.934 51.1916 258.264 51.3116 260.574 51.5216C267.904 52.2016 275.294 51.7016 282.574 52.3616C290.834 53.1116 299.044 54.5816 306.394 54.6916C308.844 55.7416 309.624 57.6716 311.574 57.4116C313.844 56.7816 316.034 55.8916 318.304 55.6116C320.934 55.2816 323.634 55.3616 326.304 55.4716C332.304 55.7216 338.304 56.0916 344.294 56.4216C345.954 56.5116 347.704 56.3516 349.264 56.7916C354.824 58.3716 360.464 58.3316 366.154 58.2516C370.804 58.1916 375.464 58.5316 380.124 58.6916C387.854 60.7416 395.684 60.2816 403.534 59.6416H403.524ZM495.394 43.8316C497.284 46.1916 499.904 45.8216 502.394 46.0116C502.494 45.4416 502.694 45.0416 502.574 44.9116C502.164 44.4316 501.644 43.6916 501.164 43.6916C499.194 43.6716 497.224 43.8916 495.254 44.0216C494.944 43.5216 494.734 42.7216 494.304 42.5716C492.424 41.9116 492.394 41.9916 488.174 43.4216C491.074 43.5816 493.234 43.7116 495.404 43.8316H495.394ZM148.464 41.6816C145.911 40.3349 143.371 40.2149 140.844 41.3216C143.494 42.3116 146.084 42.0516 148.684 41.4316C154.294 43.9316 156.904 44.2016 163.474 42.9616C156.674 40.7916 156.674 40.8216 152.394 41.4416C151.104 41.6316 149.784 41.6016 148.474 41.6716L148.464 41.6816ZM176.674 43.7216C174.347 42.7816 172.384 42.7016 170.784 43.4816H176.914C178.674 45.3316 181.004 45.7416 183.344 45.6816C190.344 45.4816 197.254 46.0916 204.124 47.4016C205.414 47.6516 206.774 47.7216 208.084 47.6616C208.564 47.6416 209.014 47.0016 209.604 46.5516C208.954 45.8016 208.324 45.0716 207.624 44.2616C197.294 44.0816 186.984 43.9016 176.674 43.7216ZM750.224 67.2916C764.124 67.2216 777.804 69.7116 791.294 70.7116C792.744 71.3616 793.924 71.8916 795.054 72.4016C796.244 70.7316 799.434 72.1716 799.324 68.8116C798.074 68.6016 796.814 68.3216 795.524 68.1916C788.954 67.5216 782.324 67.2416 775.834 66.1216C771.174 65.3116 766.624 66.3616 762.064 65.9116C758.054 65.5116 754.134 65.8716 750.204 66.5816C747.494 64.2316 744.204 63.9816 740.814 63.8916C735.184 63.7416 729.554 63.4416 724.674 63.2416C722.524 62.0216 721.094 61.2116 720.014 60.5916C717.874 60.9116 716.224 61.4116 714.594 61.3416C712.984 61.2816 711.384 60.6516 709.534 60.2116C707.824 60.7416 705.944 61.4116 704.014 61.8916C702.244 62.3316 700.424 62.5616 697.414 63.0916C706.534 64.4516 714.634 63.3116 722.274 66.1716C724.154 66.8716 726.184 66.3616 728.174 66.2516C733.794 65.9516 739.474 65.3916 744.384 67.2216C745.904 68.2516 746.944 68.9616 748.114 69.7616C748.984 68.7316 749.604 68.0116 750.214 67.2916H750.224ZM407.644 52.3016C409.174 52.4516 410.864 52.4016 412.444 52.8116C421.834 55.2116 431.374 55.9316 441.024 56.0316C444.994 56.0716 448.944 56.8216 452.914 57.1416C453.354 57.1816 453.844 56.5316 454.504 56.0616C453.794 55.3816 453.204 54.3516 452.414 54.1516C450.504 53.6816 448.334 54.0216 446.594 53.2716C444.374 52.3116 442.334 51.9416 439.904 52.1416C437.334 52.3516 434.554 52.2016 432.114 51.4316C424.344 48.9616 416.414 49.7016 408.504 49.7016C407.914 49.7016 407.324 50.2416 406.734 50.5316C407.004 51.0616 407.264 51.5916 407.624 52.3116L407.644 52.3016ZM344.174 45.6816C340.674 46.3116 337.054 45.2816 333.454 46.1716C334.364 47.9816 335.774 47.7316 337.044 47.6416C345.634 47.0416 367.634 50.2616 375.184 50.7816C376.044 50.3716 377.204 49.8116 378.824 49.0316C377.754 47.7616 376.984 46.8516 376.104 45.8116C373.904 46.4316 372.004 46.9616 370.004 47.5316C366.074 45.9916 357.324 44.4616 348.344 43.8116C347.194 44.3316 345.684 45.0116 344.174 45.6816ZM823.844 71.2616C824.794 72.0316 825.484 73.0516 826.314 73.1816C829.244 73.6416 832.254 74.1916 835.184 73.9916C843.204 73.4616 850.924 74.7416 858.554 77.0316C859.934 76.3016 861.874 76.3616 862.374 74.3716C862.204 73.7216 862.044 73.0916 861.874 72.4216C859.074 70.8816 855.744 72.9416 853.194 71.5716C850.424 70.0816 847.964 72.3516 845.484 71.3816C842.454 70.2016 839.624 72.3116 836.574 71.7816C835.234 70.9816 833.844 70.1416 832.374 69.2616C829.864 71.0016 826.534 69.1316 823.834 71.2516L823.844 71.2616ZM949.774 81.9616C951.184 83.1616 952.684 84.4216 954.464 85.9316C956.494 85.5516 958.754 85.1216 961.014 84.6916C963.684 86.4816 965.994 83.3716 968.804 84.1816C969.844 85.1116 971.034 86.1816 972.204 87.2416C973.734 86.1916 976.274 86.0316 975.544 83.2116C975.254 83.0216 975.014 82.7116 974.754 82.7016C967.134 82.4616 959.704 80.4016 952.044 80.3716C948.064 80.3516 944.094 79.5616 940.104 79.2616C938.814 79.1616 937.404 79.2616 936.344 80.9516C937.384 81.5716 938.424 82.1816 939.384 82.7516C942.854 82.4916 946.174 82.2316 949.754 81.9616H949.774ZM667.134 60.0116C669.314 61.6316 672.754 61.4016 675.904 62.1916C679.374 63.0616 682.474 61.6116 685.534 61.9416C687.064 62.9716 688.384 63.8616 689.794 64.8116C691.034 64.4216 692.234 64.0516 693.894 63.5316C692.954 62.4016 692.514 61.3516 691.794 61.1016C690.254 60.5616 688.574 60.3516 686.934 60.1616C683.954 59.8116 680.784 60.1116 678.004 59.2016C670.804 56.8516 663.544 58.2916 656.314 58.2216C656.064 58.2216 655.814 58.6116 655.554 58.8316C659.014 60.8616 662.804 59.1016 667.154 60.0116H667.134ZM402.034 48.3816C398.524 46.6416 395.394 49.0316 392.344 48.7216C390.494 47.6816 388.794 46.7316 387.434 45.9716C384.501 46.7716 382.581 48.0182 381.674 49.7116C382.434 50.2416 383.204 51.2416 384.004 51.2716C390.164 51.5016 396.364 53.4116 402.724 51.2916C402.434 50.0616 402.224 49.1516 402.044 48.3916L402.034 48.3816ZM867.144 75.5016C869.864 77.6816 872.974 75.6516 875.774 76.3816C878.604 77.1216 881.454 77.8316 884.674 78.6416C887.194 78.6416 890.154 78.6416 893.104 78.6416C896.984 78.6516 899.594 77.7816 900.454 75.8716C896.404 75.5116 892.474 75.6216 888.934 75.8116C884.354 74.7816 880.174 73.8316 875.864 72.8616C871.111 73.5882 868.204 74.4649 867.144 75.4916V75.5016ZM313.604 43.2016C312.364 42.7116 311.454 42.0716 310.514 42.0216C304.574 41.6716 298.624 41.4316 292.674 41.2216C292.074 41.2016 291.464 41.6516 290.854 41.8816C290.754 42.4716 290.654 43.0516 290.554 43.6416C291.464 44.8116 292.754 45.1216 294.094 44.9516C297.694 44.4716 301.274 43.8816 303.994 43.4716C307.134 44.3416 309.314 45.2416 311.574 45.5116C314.154 45.8216 316.794 45.5816 319.354 45.5816C319.887 44.1416 319.421 42.9516 317.954 42.0116C316.774 42.3316 315.514 42.6816 313.594 43.2116L313.604 43.2016ZM1008.8 86.0616C1007.18 86.0616 1005.53 86.1216 1003.88 86.0516C1000.93 85.9116 997.864 86.3916 995.214 84.5216C991.014 84.5816 986.784 83.5416 982.174 84.4916C984.924 87.4416 988.124 85.6716 990.784 86.5116C992.254 87.2716 993.724 88.0316 995.024 88.7116C999.794 88.5416 1004.36 88.3716 1008.93 88.2016C1008.89 87.5916 1008.85 87.0116 1008.79 86.0516L1008.8 86.0616ZM1081.82 97.0516C1081 96.3916 1080.31 95.6616 1079.47 95.2116C1078.61 94.7416 1077.61 94.3216 1076.65 94.2716C1073 94.0516 1069.34 93.8916 1065.69 93.9216C1064.74 93.9216 1064.03 94.7516 1065 95.8216C1067.62 96.2416 1070.27 96.5716 1072.87 97.1016C1075.8 97.7016 1078.7 98.7516 1081.81 97.0616L1081.82 97.0516ZM573.974 60.9216C579.814 61.4416 584.784 61.8816 589.744 62.3016C590.034 62.3216 590.404 62.2016 590.634 62.0216C590.834 61.8716 590.894 61.5316 591.294 60.6916C587.094 58.8816 582.694 61.1116 579.674 60.2716C577.494 59.3616 576.294 58.8516 575.104 58.3516C574.754 59.1416 574.514 59.6916 573.974 60.9216ZM805.574 69.4116C806.074 70.0916 806.444 71.1716 807.124 71.4116C810.294 72.5616 813.594 72.7016 816.874 71.8816C817.224 71.7916 817.404 71.0616 817.744 70.4916C815.944 69.5316 814.234 68.6116 812.414 67.6416C810.484 67.9416 808.524 68.2316 806.574 68.5716C806.294 68.6216 806.074 68.9716 805.564 69.4116H805.574ZM793.074 78.2416C802.464 80.4816 806.814 80.4016 810.464 78.2416H793.074ZM577.384 50.9716C575.464 48.1916 572.804 47.5816 569.314 48.2516C568.684 48.8816 567.824 49.7616 566.734 50.8516C570.594 52.3116 573.964 52.8516 577.384 50.9716ZM624.354 55.1716C623.784 54.8116 623.264 54.2016 622.724 54.1816C617.894 54.0016 613.054 53.9216 607.194 53.8016C610.564 55.5416 613.054 56.4116 615.764 56.0716C618.614 55.7116 621.654 57.1916 624.344 55.1716H624.354ZM636.434 57.1216C638.574 57.8316 640.414 58.6816 642.344 59.0016C643.574 59.2116 644.954 58.7316 646.204 58.3516C646.514 58.2516 646.564 57.3116 646.824 56.4816C644.174 55.4116 641.514 54.3316 638.684 53.1916C637.854 54.6516 637.214 55.7616 636.434 57.1316V57.1216ZM710.734 72.7116C715.754 74.0216 720.964 73.6216 726.114 73.9616C726.384 73.9816 726.704 73.7016 726.934 73.4916C727.094 73.3416 727.124 73.0616 727.744 71.5316C721.754 72.8016 716.334 71.7416 710.734 72.7116ZM920.374 75.8616C917.144 76.5416 914.124 77.6716 910.984 76.5216C910.894 77.4616 910.624 78.1416 910.834 78.5916C911.074 79.1016 911.744 79.4016 912.674 80.1416C915.114 80.1416 918.014 80.1916 920.914 80.0916C921.384 80.0716 921.834 79.3816 922.634 78.7116C921.914 77.8016 921.184 76.8916 920.374 75.8616ZM836.654 80.8116C836.404 80.5916 836.164 80.1916 835.914 80.1816C831.314 80.0916 826.714 80.0216 822.114 80.0416C821.514 80.0416 820.154 79.8316 820.794 81.7816C825.924 81.1016 831.104 82.5916 836.294 81.4616C836.454 81.4316 836.534 81.0316 836.654 80.8016V80.8116ZM783.554 76.9716C781.624 76.4716 780.444 75.9316 779.264 75.9116C776.004 75.8616 772.744 76.0016 769.494 76.1616C769.124 76.1816 768.794 76.7716 767.944 77.5516C773.234 77.8516 777.994 79.2316 783.554 76.9716ZM745.614 75.2116C744.434 74.5016 743.724 73.8616 742.904 73.6416C741.334 73.2316 739.694 72.8316 738.094 72.8716C736.994 72.8916 735.484 73.3616 736.294 75.2116C739.214 76.3216 742.104 76.3016 745.614 75.2116ZM1030.88 90.7216C1036.07 93.2616 1037.46 93.3016 1039.94 90.9716C1035.81 89.3116 1032.79 89.2282 1030.88 90.7216ZM1020.29 86.3316C1018.85 87.2016 1017.49 88.0116 1015.97 88.9316C1019.09 90.5516 1022.28 90.5982 1025.55 89.0716C1023.62 88.0716 1021.93 87.1916 1020.29 86.3416V86.3316ZM225.604 36.6916C220.271 36.1182 217.154 36.2349 216.254 37.0416C216.104 37.3316 215.794 37.6516 215.854 37.8916C215.974 38.4316 216.274 38.9316 216.694 39.8716C219.894 39.6916 222.534 37.4916 225.604 36.6916ZM850.754 82.5016C857.914 84.6416 857.924 84.5916 861.744 82.5816C858.124 81.6916 854.934 81.8716 850.754 82.5016ZM325.014 46.8316C326.704 47.7216 328.144 48.1316 329.514 46.7516C328.774 44.5716 327.794 42.6916 325.064 42.8516C324.704 43.4616 324.094 44.0016 324.154 44.4616C324.264 45.3316 324.754 46.1616 325.014 46.8316ZM649.834 66.0716C649.754 66.5116 649.674 66.9516 649.594 67.3916C651.804 67.5616 654.004 67.7716 656.214 67.8816C656.784 67.9116 657.374 67.6116 657.954 67.4616C657.804 67.1816 657.674 66.6816 657.504 66.6716C654.954 66.4316 652.394 66.2616 649.844 66.0816L649.834 66.0716ZM586.854 54.3916C587.594 54.0116 588.424 53.5816 589.224 53.1616C588.084 49.5216 585.074 50.1616 582.484 49.6216C582.254 52.9116 584.724 53.3816 586.854 54.3916ZM532.394 47.0016C530.824 45.3416 529.194 45.4016 527.504 46.8116C529.534 49.4316 529.654 49.4316 532.394 47.0016ZM673.144 68.9916C670.584 68.0216 668.104 67.7716 665.264 68.7416C668.044 70.0116 670.534 69.7416 673.144 68.9916ZM697.024 70.5916C700.154 72.8516 700.194 72.7516 704.444 71.3816C701.954 70.1816 699.634 69.2416 697.024 70.5916ZM980.864 93.1416C978.494 91.2616 976.114 91.0216 973.604 91.5016C972.744 91.6616 971.764 92.0116 972.344 93.4716C975.014 94.4816 977.734 94.9116 980.864 93.1416ZM476.254 50.7216C473.794 49.9116 472.294 49.3716 471.024 50.9116C472.414 52.2716 473.884 52.1016 476.254 50.7216ZM499.994 52.3416C502.524 53.7116 503.754 54.1316 505.374 52.6416C503.764 52.5516 502.534 52.4816 499.994 52.3416ZM273.104 26.6816C274.874 26.9316 276.774 28.3216 278.624 26.8216C276.934 25.0216 275.004 26.7016 273.104 26.6816ZM1052.38 94.3116C1054.61 95.0616 1056.74 95.2816 1058.41 93.0416C1056.45 91.3416 1054.41 91.5716 1052.3 92.6216C1052.33 93.1916 1052.35 93.7516 1052.38 94.3116ZM928.364 77.8116C927.304 78.6116 926.424 78.9816 926.044 79.6416C925.614 80.3816 926.704 81.5416 927.714 81.4016C928.264 81.3216 929.184 80.8216 929.194 80.5016C929.214 79.7516 928.774 78.9916 928.374 77.8116H928.364ZM869.164 84.7616C871.924 85.3616 873.714 86.9516 875.204 84.4116C873.504 83.5416 871.974 83.4916 869.164 84.7616ZM884.064 84.8616C886.064 86.4916 888.114 86.7716 890.364 85.2016C888.324 83.2416 886.214 84.0316 884.064 84.8616ZM1097.43 97.8616C1092.84 97.6216 1090.86 95.0916 1088.21 97.3616C1091.84 100.782 1092.14 100.912 1097.43 97.8616ZM1057 103.112C1059.02 104.742 1061.05 104.502 1063.13 103.242C1060.89 102.255 1058.84 102.212 1057 103.112ZM428.194 46.9616C426.954 45.7416 425.644 46.1616 424.254 46.6916C425.504 47.8316 426.804 47.5716 428.194 46.9616ZM440.534 48.7416C441.024 48.4716 441.714 48.2916 441.924 47.8816C442.054 47.6116 441.594 46.7616 441.204 46.5716C440.234 46.0816 439.054 46.7816 439.344 47.5816C439.514 48.0516 440.124 48.3616 440.534 48.7516V48.7416ZM551.354 49.1616C553.384 49.3216 554.484 50.3116 556.174 48.7316C554.794 47.7316 553.574 47.7716 551.354 49.1616ZM598.984 53.3116C597.914 52.3216 596.824 51.9016 595.884 53.3116H598.984ZM631.114 55.8416C630.754 55.4616 630.394 55.0716 630.024 54.6916C629.834 54.9316 629.444 55.3216 629.494 55.3916C629.804 55.8216 630.214 56.1916 630.594 56.5816C630.764 56.3416 630.934 56.0916 631.114 55.8416ZM845.044 81.5516C844.784 81.3816 844.504 81.0316 844.274 81.0716C843.374 81.2116 843.204 81.7416 843.844 82.3816C844.004 82.5316 844.514 82.5216 844.724 82.3816C844.924 82.2416 844.944 81.8416 845.044 81.5616V81.5516ZM1003.35 94.8616C1000.58 94.2316 999.074 93.8116 997.664 95.0116C999.074 96.2416 1000.57 96.1616 1003.35 94.8616ZM1044.07 101.132C1047.82 102.082 1047.82 102.072 1049.32 100.702C1047.49 99.9116 1045.72 99.7316 1044.07 101.132ZM420.214 37.2916C421.384 37.2316 422.244 37.1816 423.594 37.1016C422.254 36.6349 421.127 36.6982 420.214 37.2916ZM439.774 38.7316C440.834 39.9416 441.954 39.8516 443.144 38.9516C442.084 37.7016 440.964 37.8916 439.774 38.7316ZM251.744 41.4516C251.744 41.1016 251.724 40.7516 251.714 40.4016H248.494C248.484 40.6616 248.474 40.9116 248.454 41.1716C249.544 41.2616 250.644 41.3616 251.734 41.4516H251.744ZM467.124 40.9016C465.744 39.6616 464.374 39.5616 463.004 40.9016C464.384 41.8816 465.754 42.4716 467.124 40.9016ZM383.714 43.6316C385.754 43.3816 387.074 44.5216 389.014 42.2116C387.104 42.3116 385.784 41.2316 383.714 43.6316ZM412.664 44.9716C411.704 43.8716 410.684 43.8516 409.564 44.7316C410.514 45.9816 411.554 45.7016 412.664 44.9716ZM543.664 48.4616C542.544 47.3416 541.324 47.2816 540.224 48.3516C540.004 48.5716 540.444 49.4616 540.604 50.1816C541.804 49.9116 543.294 50.2816 543.654 48.4616H543.664ZM521.444 54.6616C522.604 56.2216 523.784 56.2716 525.054 54.8016C523.874 53.8016 522.694 53.7016 521.444 54.6616ZM1032.31 99.0716C1033.45 100.362 1034.51 100.822 1035.48 98.8916C1034.32 97.9116 1033.29 97.9416 1032.31 99.0716ZM635.854 64.1616C638.294 65.8516 638.964 66.3116 639.634 66.7716C639.804 66.2716 639.964 65.7716 640.134 65.2716C639.394 65.0816 638.654 64.8816 635.854 64.1516V64.1616ZM559.284 59.7316C561.334 59.5116 562.974 60.8416 564.804 58.1016C562.784 58.2516 561.154 57.0716 559.284 59.7316ZM539.834 56.9716C538.474 55.3916 537.104 55.5416 535.684 56.8916C537.034 58.8916 538.424 57.8416 539.834 56.9716ZM310.444 28.9316C310.294 28.7516 310.174 28.4816 309.984 28.4116C309.724 28.3216 309.314 28.2616 309.144 28.4116C308.594 28.8416 308.804 29.2016 309.674 29.2516C309.924 29.2616 310.194 29.0516 310.454 28.9416L310.444 28.9316ZM323.964 29.0416C323.714 29.4916 323.414 29.8916 323.284 30.3516C323.224 30.5516 323.534 30.8516 323.674 31.1016C324.104 30.8616 324.534 30.6116 324.974 30.3716C324.654 29.9416 324.324 29.5116 323.964 29.0416ZM271.974 34.2316C271.504 34.4916 271.014 34.7416 270.584 35.0516C270.544 35.0816 270.824 35.7616 270.944 35.7616C271.494 35.7416 272.034 35.5916 272.574 35.4916C272.374 35.0716 272.174 34.6516 271.974 34.2316ZM396.354 34.6716C396.104 34.5616 395.844 34.3516 395.604 34.3716C394.774 34.4316 394.594 34.7916 395.164 35.2016C395.334 35.3316 395.724 35.2616 395.964 35.1716C396.134 35.1116 396.224 34.8516 396.354 34.6816V34.6716ZM294.434 36.9216C293.844 35.8716 293.084 36.1916 292.324 36.6816C292.324 36.6816 292.584 37.2916 292.684 37.2816C293.274 37.2216 293.854 37.0516 294.434 36.9216ZM434.124 39.0216C434.094 38.7916 434.104 38.3816 434.014 38.3616C433.494 38.2216 432.944 38.1116 432.404 38.1116C432.254 38.1116 431.964 38.5316 431.994 38.7216C432.024 38.9416 432.334 39.2916 432.514 39.2916C433.054 39.2916 433.594 39.1216 434.124 39.0216ZM346.334 41.4716C346.794 41.2516 347.244 41.0216 347.704 40.8016C347.504 40.6116 347.294 40.2616 347.094 40.2716C346.554 40.2816 346.014 40.4416 345.474 40.5416C345.764 40.8516 346.044 41.1616 346.334 41.4716ZM456.124 48.7116C454.784 47.5016 453.594 47.4416 452.544 49.0516C453.874 50.2116 455.084 50.3616 456.124 48.7116ZM511.824 54.8016C513.564 56.2116 514.694 56.3716 515.554 54.6016C514.374 53.5916 513.314 53.4016 511.824 54.8016ZM1044.8 92.1416L1045.27 91.8016L1044.79 91.5816V92.1516L1044.8 92.1416ZM627.884 65.0916C628.974 66.1316 630.084 66.3716 631.334 65.1916C630.224 63.4916 629.094 63.5316 627.884 65.0916Z" fill="var(--fill-0, black)"/>
<path id="Vector_2" d="M559.504 70.1116C561.724 69.4916 563.954 68.8616 566.784 68.0716C571.154 68.5616 576.114 69.1216 581.084 69.6716C586.054 70.2216 591.024 70.8216 596.004 71.2616C601.644 71.7716 607.304 72.5716 612.924 72.4216C617.964 72.2916 622.744 74.0416 627.744 73.7116C631.894 75.4716 636.374 73.8216 640.584 74.9616C644.764 73.6416 648.424 75.6016 652.714 77.0616C659.884 75.2616 667.324 77.5816 674.844 78.3116C681.374 78.9516 687.794 80.3816 694.444 80.3616C701.734 80.3516 709.044 80.8416 716.274 82.0416C716.604 82.0916 716.934 82.1416 717.274 82.1616C722.864 82.5416 728.434 81.5316 734.084 82.6816C739.604 83.7916 745.334 83.8616 750.964 84.3816C751.624 84.4416 752.304 84.5016 752.964 84.4516C759.324 83.9616 765.574 85.0716 771.874 85.5716C778.204 86.0716 784.464 87.1516 790.744 87.7916C796.604 88.3916 802.604 88.6016 808.554 88.4016C810.544 88.3316 812.624 88.0216 814.524 88.4216C823.384 90.3116 832.384 90.1716 841.354 90.5016C842.024 90.5216 842.704 90.5016 843.354 90.6116C857.514 92.8916 871.924 92.4016 886.114 94.4016C891.034 95.0916 896.094 94.7416 901.084 95.1016C913.064 95.9616 925.044 96.9316 937.024 97.9216C945.654 98.6316 954.374 98.9016 962.884 100.382C970.804 101.762 978.814 101.732 986.734 102.932C994.924 104.162 1003.28 104.282 1011.57 104.932C1013.22 105.062 1014.86 105.392 1016.51 105.632C1027.02 107.142 1037.47 109.012 1048.09 109.632C1051.41 109.822 1054.76 110.272 1058.01 111.012C1064.85 112.572 1071.69 113.902 1078.7 114.432C1080.62 114.572 1082.48 115.582 1085.66 116.612C1088.97 116.442 1093.62 116.212 1098.53 115.962C1101.51 117.392 1104.79 118.982 1108.24 120.642C1114.05 119.032 1119.37 121.372 1124.82 122.702C1125.87 122.962 1126.7 124.122 1127.8 125.012C1124.94 126.142 1122.72 125.252 1120.59 124.412C1117.17 123.082 1113.64 122.962 1110.04 122.602C1100.47 121.632 1090.93 120.292 1081.52 118.202C1079.25 117.702 1076.9 116.882 1074.67 117.082C1065.87 117.892 1057.64 114.862 1049.15 113.672C1048.2 113.542 1047.32 112.892 1046.25 112.422C1044.07 112.802 1041.77 113.192 1039.48 113.582C1038.83 113.482 1038.13 113.482 1037.52 113.262C1031.8 111.202 1025.74 111.102 1019.82 110.242C1015.9 109.672 1011.91 109.512 1007.95 109.152C1007.32 109.092 1006.58 108.632 1006.09 108.832C999.914 111.362 994.324 108.672 988.514 106.912C987.014 107.292 985.414 107.702 983.814 108.112C981.324 107.232 978.864 106.122 976.124 107.022L976.224 107.112C970.444 104.122 964.144 104.022 957.864 103.872C955.534 103.812 953.124 104.232 950.884 103.782C939.424 101.462 927.814 100.922 916.194 100.322C910.544 100.032 904.894 99.7516 899.244 99.3916C898.284 99.3316 897.194 99.1216 896.444 98.5916C894.304 97.0916 891.704 98.3616 889.704 97.4316C887.244 96.2916 885.154 97.4316 882.904 97.5216C880.584 97.6016 878.124 97.9916 875.954 97.4016C868.764 95.4316 861.384 96.1516 854.114 95.4116C852.804 95.2816 851.314 95.7816 850.154 95.3416C844.654 93.2816 838.954 94.0316 833.314 93.8716C831.984 93.8316 830.584 94.1216 829.314 93.8316C818.854 91.4316 808.094 92.6016 797.594 91.0416C794.854 90.6316 792.354 91.7416 789.694 91.4116C787.064 91.0816 784.424 90.8016 781.784 90.6116C775.804 90.1716 769.804 89.8616 763.824 89.3516C761.854 89.1816 759.924 88.5016 757.964 88.1016C754.364 87.3816 750.844 86.9916 747.074 87.5216C743.184 88.0616 738.964 88.1016 735.174 87.1916C728.274 85.5316 721.314 86.1116 714.394 85.5716C712.754 85.4416 711.084 85.4716 709.454 85.2716C701.854 84.3116 694.294 82.8416 686.564 83.9116C684.944 84.1316 683.084 84.1616 681.604 83.5916C676.784 81.7416 671.834 81.8516 666.834 81.9416C665.504 81.9716 664.144 81.5916 662.834 81.7316C660.154 82.0116 658.294 79.2616 655.214 80.2216C652.814 80.9716 649.964 80.5016 647.344 80.2516C643.704 79.9116 640.084 79.2816 636.454 78.7716C634.144 78.4416 631.844 77.9316 629.524 77.7916C624.214 77.4716 618.874 77.4416 613.564 77.0616C608.264 76.6816 603.124 74.9416 597.694 75.3516C593.354 75.6816 589.284 73.6516 584.854 73.7416C580.574 73.8416 576.214 73.8116 571.944 72.5616C569.444 71.8316 566.664 72.1416 564.024 71.8116C562.424 71.6116 560.664 71.5316 559.624 69.9216L559.484 70.1016L559.504 70.1116Z" fill="var(--fill-0, black)"/>
<path id="Vector_3" d="M540.634 73.6916C540.304 75.0016 540.084 75.8516 539.894 76.6016C535.774 78.5216 531.794 76.2516 528.604 77.3816C527.034 76.4116 526.194 75.8816 525.204 75.2716H514.074C514.274 73.8616 514.434 72.6816 514.634 71.3016C519.184 72.7016 523.444 72.4716 527.664 72.6116C531.914 72.7516 536.174 72.6516 540.634 73.6916Z" fill="var(--fill-0, black)"/>
<path id="Vector_4" d="M840.174 103.232C839.454 101.982 839.124 101.422 838.654 100.592C837.544 100.882 836.354 101.192 834.804 101.592C833.984 100.942 832.984 100.142 831.984 99.3616C832.124 99.1216 832.214 98.7516 832.354 98.7216C833.984 98.4416 835.644 97.9416 837.264 98.0216C842.224 98.2716 847.174 98.7516 852.614 99.1716C853.684 100.172 855.024 101.432 856.424 102.732C853.484 105.012 851.044 102.352 848.444 102.772C845.864 103.182 843.194 103.082 840.154 103.232H840.174Z" fill="var(--fill-0, black)"/>
<path id="Vector_5" d="M760.974 94.3516C756.984 94.9616 753.694 95.4516 750.744 95.9016C744.534 94.1116 744.564 94.0316 742.904 91.9716C743.104 91.7516 743.324 91.3216 743.514 91.3316C750.424 91.6816 757.344 91.9516 764.244 92.5116C767.814 92.8016 771.044 94.7516 774.654 95.1316C774.854 95.1516 774.944 96.2616 775.174 97.2416C769.974 98.9816 765.644 96.5416 760.974 94.3516Z" fill="var(--fill-0, black)"/>
<path id="Vector_6" d="M706.634 88.6016C705.314 90.3216 703.624 89.5716 702.294 90.0316C700.764 90.5616 699.264 91.2116 697.544 91.8816C695.074 91.6216 692.444 91.3516 689.894 91.0816C686.854 88.1116 682.254 89.4316 678.934 86.5716H690.324C691.804 87.1516 693.644 87.8816 695.484 88.6016H706.634Z" fill="var(--fill-0, black)"/>
<path id="Vector_7" d="M797.894 97.7816C800.124 97.1516 802.344 96.5116 804.264 95.9716C806.604 96.6416 808.514 97.1916 810.264 97.6916C813.384 97.2216 816.324 96.7716 819.684 96.2616C819.624 97.4916 819.594 98.3216 819.544 99.2616C820.694 99.6016 821.934 99.9616 823.164 100.332C823.584 101.092 823.334 101.612 822.434 101.542C820.114 101.382 817.674 101.502 815.504 100.832C810.954 99.4116 806.474 98.5816 801.774 99.9716C801.204 100.142 800.314 99.9716 799.854 99.6116C799.164 99.0616 798.714 98.1916 798.164 97.4616L797.884 97.7816H797.894Z" fill="var(--fill-0, black)"/>
<path id="Vector_8" d="M649.334 86.6416C647.864 85.9216 646.464 84.9516 644.914 84.5416C642.704 83.9616 640.374 83.7916 638.554 83.5216C635.554 84.3716 633.074 85.4716 630.514 85.7016C627.634 85.9616 624.674 85.4416 621.824 85.2616C621.724 84.2616 621.664 83.6716 621.574 82.7716C624.124 82.5216 626.664 82.0416 629.204 82.0816C634.774 82.1616 640.354 82.5016 645.854 82.7416C647.114 84.2216 648.164 85.4716 649.224 86.7116L649.324 86.6416H649.334Z" fill="var(--fill-0, black)"/>
<path id="Vector_9" d="M936.324 107.092C935.594 107.752 934.864 108.422 934.054 109.162C929.744 110.092 925.604 109.402 921.294 107.222C920.004 107.422 918.404 107.772 916.794 107.872C915.554 107.952 914.284 107.722 912.824 107.612C913.334 106.762 913.514 106.032 913.934 105.842C918.064 103.982 922.344 104.732 927.034 105.312C927.754 105.902 928.734 106.712 930.184 107.912C931.974 107.732 934.234 107.502 936.484 107.272L936.324 107.092Z" fill="var(--fill-0, black)"/>
<path id="Vector_10" d="M608.384 79.9916C608.464 81.6016 608.494 82.1816 608.524 82.7716C606.994 84.0016 605.204 84.0216 593.934 82.8916C592.254 79.6016 592.404 79.3216 596.254 78.7816C596.784 79.4716 597.354 80.2216 597.914 80.9716C601.124 80.6716 604.364 80.3716 608.384 79.9916Z" fill="var(--fill-0, black)"/>
<path id="Vector_11" d="M1044.19 119.412C1043.56 120.122 1042.94 120.822 1042.39 121.442C1037.36 120.712 1032.54 120.002 1027.91 119.332C1026.99 117.392 1028.11 116.652 1029.57 115.662C1033.47 116.022 1037.68 116.412 1041.87 116.802C1042.94 117.502 1042.64 119.452 1044.4 119.432L1044.18 119.402L1044.19 119.412Z" fill="var(--fill-0, black)"/>
<path id="Vector_12" d="M548.664 78.7715C547.724 77.6115 546.924 76.6116 545.734 75.1416C551.874 74.1616 557.164 74.0616 562.274 77.6316C559.774 79.9116 557.634 77.5416 555.504 77.8916C553.244 78.2616 550.954 78.4815 548.654 78.7715H548.664Z" fill="var(--fill-0, black)"/>
<path id="Vector_13" d="M430.464 66.8916C431.864 66.0516 433.254 65.2216 434.534 64.4616H442.174C445.094 66.0416 447.624 67.4016 450.794 69.1116C446.414 69.6816 442.674 70.1716 439.084 68.3116C436.334 66.8816 433.424 66.9016 430.474 66.9016H430.454L430.464 66.8916Z" fill="var(--fill-0, black)"/>
<path id="Vector_14" d="M976.124 107.032C976.684 108.872 978.364 110.312 978.124 112.432C977.964 112.692 977.834 113.142 977.664 113.152C974.774 113.382 971.884 113.552 968.944 113.742C967.294 112.152 965.754 110.662 963.984 108.962C965.154 108.772 966.074 108.632 967.064 108.472C968.624 109.632 970.144 110.762 971.524 111.792C974.324 111.192 975.684 109.562 976.224 107.132L976.124 107.042V107.032Z" fill="var(--fill-0, black)"/>
<path id="Vector_15" d="M993.984 115.032C991.904 115.392 990.944 115.672 989.974 115.682C989.014 115.692 988.044 115.432 987.094 115.282C987.004 113.032 985.424 112.042 983.794 110.992C984.324 110.752 984.804 110.362 985.304 110.342C988.914 110.202 990.254 113.692 993.984 115.022V115.032Z" fill="var(--fill-0, black)"/>
<path id="Vector_16" d="M1079.65 111.252C1077.82 109.712 1076.32 108.452 1074.8 107.172C1075.69 105.902 1077.04 106.452 1078.15 106.182C1080.21 107.122 1082.25 108.062 1084.3 109.002C1083.51 110.742 1082.06 111.272 1079.65 111.252Z" fill="var(--fill-0, black)"/>
<path id="Vector_17" d="M893.954 102.772H899.484C900.554 103.322 899.524 104.112 899.464 104.882C899.414 105.612 899.694 106.372 899.844 107.172C897.094 107.102 895.384 105.902 893.954 102.772Z" fill="var(--fill-0, black)"/>
<path id="Vector_18" d="M936.484 107.272C940.254 107.172 944.044 105.262 947.774 107.302C947.734 109.775 946.577 111.062 944.304 111.162C944.264 110.522 944.224 109.882 944.184 109.242C943.714 108.902 943.254 108.292 942.754 108.262C940.554 108.112 938.204 108.912 936.314 107.092L936.474 107.272H936.484Z" fill="var(--fill-0, black)"/>
<path id="Vector_19" d="M881.094 100.492V105.082C877.384 106.272 875.514 104.482 874.074 101.712C876.204 99.6916 878.404 100.542 881.094 100.492Z" fill="var(--fill-0, black)"/>
<path id="Vector_20" d="M501.554 74.0816C500.194 73.6616 499.004 73.3016 497.824 72.9316C498.104 72.0116 498.274 71.4416 498.454 70.8816C499.044 70.6516 499.644 70.2016 500.214 70.2316C502.994 70.3616 505.824 69.9716 509.074 70.8316C506.494 71.9416 504.444 72.8316 501.544 74.0816H501.554Z" fill="var(--fill-0, black)"/>
<path id="Vector_21" d="M577.614 79.1116C578.764 78.8216 580.004 78.5116 581.254 78.2016C582.404 78.6816 583.864 78.8616 583.624 81.1016C580.934 82.2016 578.064 81.1416 574.944 81.1316C574.734 80.3716 574.324 79.5416 574.324 78.7016C574.324 77.9016 575.004 77.7316 575.794 78.1516C576.364 78.4616 576.934 78.7516 577.614 79.1016V79.1116Z" fill="var(--fill-0, black)"/>
<path id="Vector_22" d="M649.234 86.7116C650.664 85.9716 652.094 85.2316 654.114 84.1816C655.744 84.2816 657.994 84.4216 660.424 84.5716C659.214 87.0716 656.764 87.0416 655.154 88.4016C653.044 87.7616 651.194 87.2016 649.344 86.6416L649.244 86.7116H649.234Z" fill="var(--fill-0, black)"/>
<path id="Vector_23" d="M732.434 90.5216C733.964 92.2016 735.164 93.5016 736.394 94.8616C734.474 95.8816 733.044 95.0716 731.574 94.5816C730.524 93.7416 729.794 92.6916 730.154 91.3216C730.234 91.0116 731.194 90.9316 732.434 90.5216Z" fill="var(--fill-0, black)"/>
<path id="Vector_24" d="M1010.81 117.992C1009.77 116.342 1009.3 115.592 1008.44 114.222C1007.37 113.112 1005.11 114.112 1003.29 113.352C1005.84 111.342 1008.45 113.242 1011.58 112.532C1011.3 114.512 1011.13 115.722 1010.81 117.992Z" fill="var(--fill-0, black)"/>
<path id="Vector_25" d="M122.884 51.3016H114.704C115.274 50.7616 115.544 50.2816 115.824 50.2816C118.124 50.2716 120.424 50.3316 122.714 50.4116C122.994 50.4216 123.264 50.6916 123.544 50.8416C123.354 50.9716 123.174 51.1016 122.874 51.3116L122.884 51.3016Z" fill="var(--fill-0, black)"/>
<path id="Vector_26" d="M797.894 97.7816L798.174 97.4616C795.784 96.7016 793.394 95.9516 790.314 94.9816H795.764C796.394 95.8116 797.144 96.8016 797.894 97.7816Z" fill="var(--fill-0, black)"/>
<path id="Vector_27" d="M1101.21 111.222C1097.66 111.932 1097.65 112.002 1092.94 110.642C1094.35 109.802 1097.11 109.995 1101.21 111.222Z" fill="var(--fill-0, black)"/>
<path id="Vector_28" d="M147.254 52.7416H150.194C150.194 52.8516 150.184 52.9516 150.174 53.0616C149.324 52.9716 148.474 52.8816 147.254 52.7416Z" fill="var(--fill-0, black)"/>
<path id="Vector_29" d="M455.794 68.8216C456.034 68.1016 456.294 67.3016 456.524 66.6216C458.674 66.1516 459.844 66.9216 460.544 68.5816C458.954 70.1416 457.514 70.2016 455.794 68.8216Z" fill="var(--fill-0, black)"/>
<path id="Vector_30" d="M719.304 92.7816C719.084 91.1316 720.144 90.5916 721.464 90.5216C722.014 90.4916 722.694 90.8616 723.124 91.2516C723.744 91.8116 723.064 92.9816 721.994 93.2516C721.684 93.3316 721.344 93.4216 721.054 93.3516C720.464 93.2216 719.894 92.9816 719.304 92.7816Z" fill="var(--fill-0, black)"/>
<path id="Vector_31" d="M864.144 101.042C864.974 100.872 865.804 100.702 867.104 100.442C867.294 101.842 867.444 102.992 867.604 104.152C864.784 104.442 864.764 104.452 864.154 101.052L864.144 101.042Z" fill="var(--fill-0, black)"/>
<path id="Vector_32" d="M1044.4 119.432C1047.31 119.152 1050.22 118.872 1053.86 118.522C1051.97 120.222 1050.47 119.312 1049.12 119.432C1047.49 119.582 1045.83 119.432 1044.18 119.392L1044.4 119.422V119.432Z" fill="var(--fill-0, black)"/>
<path id="Vector_33" d="M1082.4 126.762C1082.4 126.462 1082.28 126.062 1082.42 125.892C1082.88 125.362 1083.3 125.572 1083.42 126.442C1083.45 126.662 1083.19 126.932 1083.06 127.172C1082.83 127.032 1082.61 126.882 1082.4 126.752V126.762Z" fill="var(--fill-0, black)"/>
<path id="Vector_34" d="M1018.96 115.142C1019.48 115.062 1020 114.972 1020.53 114.892C1020.21 116.242 1019.55 115.462 1018.96 115.142Z" fill="var(--fill-0, black)"/>
<path id="Vector_35" d="M177.884 55.1916C177.614 55.1916 177.334 55.2316 177.074 55.1616C177.014 55.1516 177.034 54.8016 177.014 54.6116C177.284 54.6116 177.564 54.5616 177.824 54.6116C177.874 54.6116 177.864 54.9716 177.884 55.1916Z" fill="var(--fill-0, black)"/>
<path id="Vector_36" d="M1072.71 125.602C1072.42 125.532 1071.95 125.552 1071.87 125.382C1071.59 124.782 1071.99 124.452 1072.84 124.622C1073.09 124.672 1073.29 124.982 1073.51 125.182C1073.24 125.322 1072.97 125.472 1072.7 125.612L1072.71 125.602Z" fill="var(--fill-0, black)"/>
<path id="Vector_37" d="M953.954 110.582C954.034 110.292 954.124 109.752 954.184 109.762C954.744 109.802 955.334 109.862 955.854 110.072C956.054 110.152 956.244 110.662 956.184 110.912C956.134 111.142 955.664 111.492 955.514 111.442C954.964 111.242 954.474 110.892 953.964 110.592L953.954 110.582Z" fill="var(--fill-0, black)"/>
</g>
</svg>
