<svg preserveAspectRatio="none" width="100%" height="100%" overflow="visible" style="display: block;" viewBox="0 0 1497.31 388.26" fill="none" xmlns="http://www.w3.org/2000/svg">
<g id="Layer_1-2">
<path id="Vector" d="M296.83 88.79V0C225.9 63.46 94.93 93.99 0 57.38V331.25L239.81 267.01V388.26C353.25 312.74 514.65 312.73 628.07 388.26V0.03L296.83 88.8V88.79ZM239.81 207.98L56.98 256.98V127.2C119.71 135.57 184.68 123.99 239.81 94.87V207.98ZM571.08 301.34C487.6 265.44 380.31 265.43 296.82 301.34V147.79L571.08 74.29V301.35V301.34Z" fill="var(--fill-0, white)"/>
<path id="Vector_2" d="M835.42 62.82H742.02V325.8H835.42C917.11 325.8 969.48 269.4 969.48 192.84C969.48 116.28 918.94 62.82 835.42 62.82ZM832.51 277.82H797.71V110.81H832.51C884.88 110.81 912.35 140.47 912.35 192.85C912.35 245.23 884.88 277.83 832.51 277.83V277.82Z" fill="var(--fill-0, white)"/>
<path id="Vector_3" d="M1159.6 188.45C1183.04 176.37 1196.6 156.95 1196.6 132.77C1196.6 87.72 1162.53 62.82 1107.22 62.82H1008.34V325.8H1111.26C1169.13 325.8 1205.02 297.23 1205.02 248.51C1205.02 219.58 1188.91 198.69 1159.61 188.44L1159.6 188.45ZM1058.87 106.78H1102.83C1129.94 106.78 1143.86 118.5 1143.86 137.18C1143.86 155.86 1129.94 167.94 1102.83 167.94H1058.87V106.78ZM1106.85 281.85H1058.87V212.26H1106.85C1136.89 212.26 1152.64 225.45 1152.64 246.33C1152.64 268.68 1136.89 281.86 1106.85 281.86V281.85Z" fill="var(--fill-0, white)"/>
<path id="Vector_4" d="M1438.34 217.38C1431.74 255.11 1402.81 281.49 1365.46 281.49C1320.41 281.49 1290.01 245.59 1290.01 193.94C1290.01 142.29 1320.41 107.14 1365.46 107.14C1398.81 107.14 1425.74 127.85 1435.56 159.15H1495.22C1481.69 98.18 1429.86 57.32 1364.72 57.32C1290.72 57.32 1232.85 117.02 1232.85 193.94C1232.85 270.86 1290.72 331.31 1364.72 331.31C1433.94 331.31 1488.16 285.52 1497.31 217.39H1438.34V217.38Z" fill="var(--fill-0, white)"/>
</g>
</svg>
