<svg preserveAspectRatio="none" width="100%" height="100%" overflow="visible" style="display: block;" viewBox="0 0 1209.63 91.8294" fill="none" xmlns="http://www.w3.org/2000/svg">
<g id="Layer_1-2">
<path id="Vector" d="M541.269 26.8679C546.399 25.8479 551.009 25.8679 555.709 26.5679C562.309 27.5479 568.929 28.2679 575.659 28.1279C582.669 27.9879 589.679 28.5179 596.459 30.6179C601.419 29.3179 606.409 29.8979 611.389 30.2179C618.729 30.6879 626.069 31.1779 633.399 31.6479C635.069 31.7579 636.769 31.6179 638.409 31.8679C652.019 33.8979 665.749 33.2979 679.419 33.8379C683.759 34.0079 688.089 34.4279 692.429 34.7379C700.099 35.2779 707.749 35.9479 715.459 35.8079C721.129 35.7079 726.809 36.2979 732.489 36.5079C735.139 36.6079 737.799 36.5279 740.799 36.5279C741.929 37.1679 743.349 37.9879 745.389 39.1479C747.799 38.8779 750.759 38.5079 753.729 38.2379C757.049 37.9379 760.389 37.8179 763.699 37.4479C767.329 37.0479 770.689 38.9379 774.549 38.0279C778.019 37.2079 781.859 37.9679 785.529 38.0079C789.209 38.0579 792.889 38.0079 796.569 38.1479C804.919 38.4879 813.259 39.1579 821.609 39.2679C844.339 39.5679 867.059 39.6679 889.789 39.7879C913.529 39.9179 937.259 40.3779 960.969 41.4279C966.979 41.6979 973.009 41.6079 979.029 41.7779C986.379 41.9779 993.729 42.2579 1001.08 42.5279C1009.09 42.8179 1017.1 43.2179 1025.11 43.4179C1048.18 43.9779 1071.22 45.0679 1094.27 46.2079C1109.96 46.9779 1125.68 47.2979 1141.36 48.2679C1156.7 49.2179 1172.01 50.7279 1187.33 51.9979C1188.66 52.1079 1190.02 52.1579 1191.31 52.4679C1196.51 53.7079 1201.69 55.0079 1206.86 56.3579C1207.46 56.5179 1207.95 57.0879 1208.69 57.5979C1208.98 59.0179 1209.37 60.5979 1209.61 62.1979C1209.7 62.8079 1209.43 63.4779 1209.31 64.1879C1206.85 66.8979 1202.93 65.1879 1200.16 67.0679C1199.16 68.7379 1200.69 69.3779 1201.43 70.3979C1201.99 71.1679 1202.32 72.1179 1202.68 72.8579C1201.33 76.1779 1197.83 74.7479 1195.72 76.4479C1193.3 78.4079 1189.97 77.8579 1187.04 78.4479C1184.45 78.9679 1182.02 80.1579 1179.21 79.7979C1176.69 79.4679 1174.05 79.1479 1171.39 80.2579C1173.28 83.1079 1175.98 81.7879 1178.1 82.4879C1180.27 83.2079 1182.74 82.9379 1184.7 84.4579C1184.63 85.8879 1183.4 85.5579 1182.69 85.5579C1179.69 85.5579 1176.68 85.3379 1173.68 85.3079C1167.39 85.2379 1161.07 84.2379 1154.06 86.6079C1153.57 87.5579 1152.67 89.2779 1151.74 91.0879C1151.24 91.2779 1150.63 91.7279 1150.01 91.7279C1144.66 91.7479 1139.29 92.0079 1133.98 91.6079C1117.66 90.3779 1101.34 89.4679 1084.97 89.2779C1083.31 89.2579 1081.65 88.9579 1079.99 88.7979C1079.83 87.9479 1079.92 86.9379 1079.47 86.3379C1078.92 85.6179 1077.91 85.2579 1077.14 84.7679C1077.38 83.9379 1077.57 83.2979 1077.87 82.2479C1072.72 80.3879 1067.26 82.0479 1061.91 80.6379C1061.55 81.6079 1061.28 82.3379 1060.92 83.3079C1064.92 83.6479 1068.56 83.9479 1072.41 84.2779C1072.52 85.3079 1072.62 86.1679 1072.73 87.1379C1071.59 87.4679 1070.66 87.9179 1069.7 87.9779C1067.7 88.0979 1065.69 88.0579 1063.68 88.0079C1048.65 87.6579 1033.59 87.7079 1018.58 86.8079C1002.56 85.8479 986.529 85.6679 970.509 85.1079C967.099 84.9879 963.889 84.5279 960.669 83.1279C952.829 84.5579 944.929 85.2579 936.879 83.9979C932.959 83.3879 928.899 83.5979 924.899 83.5679C915.209 83.4879 905.509 83.4879 895.819 83.4679C887.139 83.4579 878.459 83.4679 871.009 83.4679C867.309 82.2079 865.399 79.7279 862.299 80.8279C858.899 81.5879 855.579 83.3679 851.709 82.1679C850.519 81.7979 849.059 81.9479 847.799 82.2079C842.169 83.3679 836.509 82.8479 830.859 82.6779C829.189 82.6279 827.529 82.1379 825.869 82.1679C813.839 82.4079 801.829 81.6579 789.809 81.6079C774.099 81.5479 758.419 81.4679 742.729 80.3579C731.409 79.5579 720.029 79.6979 708.689 79.3379C706.029 79.2579 703.369 78.8679 700.749 78.6179C699.259 77.7579 697.829 76.9379 695.989 75.8879C694.779 76.6479 693.429 77.4879 692.409 78.1279C683.729 77.9379 675.389 77.7279 667.039 77.5979C662.689 77.5279 658.369 77.3779 654.309 75.7479C653.179 74.3979 653.449 73.3179 654.809 72.4679C655.619 71.9579 656.479 71.5179 657.399 70.9879C655.869 68.5979 653.099 69.4779 651.109 68.1079C648.639 68.5479 646.019 69.0079 643.449 69.4679C642.379 69.3079 641.399 69.1379 640.409 69.0079C637.119 68.5679 633.819 68.1879 630.529 67.7079C625.279 66.9479 619.809 68.3679 614.679 66.0979C613.859 65.7379 612.619 66.3879 611.709 66.1079C608.389 65.0979 605.269 67.2279 601.839 66.3479C598.669 65.5379 595.209 65.8679 591.889 65.5979C589.579 65.4079 587.269 65.0879 584.969 64.7579C579.019 63.9179 573.079 62.5979 567.529 64.8579C551.989 61.7079 536.729 60.7179 521.339 61.1579C518.689 61.2379 515.809 61.2979 513.409 60.3979C508.239 58.4479 502.829 59.0479 497.569 58.2779C493.659 57.6979 489.699 58.9579 485.649 58.2679C481.739 57.5979 477.679 57.7979 473.699 57.5079C472.049 57.3879 470.409 57.0079 468.769 56.7479C466.789 56.4379 464.799 55.7879 462.849 55.8879C458.879 56.0879 455.039 56.2079 451.029 55.4579C447.509 54.8079 443.759 55.1179 440.129 54.3479C438.199 53.9379 436.139 54.2579 434.149 54.0479C430.589 53.6679 426.919 55.8879 423.449 53.5979C419.779 53.7179 416.079 53.8879 412.539 52.7279C409.869 51.8579 407.449 53.9079 404.639 52.9379C402.259 52.1179 399.509 52.3179 396.919 52.1479C394.269 51.9679 391.609 51.9479 388.959 51.7479C387.299 51.6279 385.539 51.6079 384.029 51.0179C376.339 48.0579 368.109 50.0079 360.299 48.2679C357.059 50.2279 353.779 48.5179 350.519 48.3879C341.849 48.0579 333.189 47.6479 324.519 47.3779C323.229 47.3379 321.919 47.8579 320.489 48.1479C319.329 47.6679 318.099 47.1579 316.769 46.6079C305.579 45.8479 294.289 45.0579 282.929 45.3079C278.629 45.3979 274.309 44.4179 268.439 43.7479C268.039 43.8279 266.079 44.2179 262.909 44.8379C260.249 44.7879 256.369 42.6679 252.379 44.8079C251.429 45.3179 249.829 44.5879 248.519 44.4879C241.869 43.9579 235.229 43.3279 228.569 42.9479C223.239 42.6479 217.889 42.9279 212.639 41.5679C211.369 41.2379 209.949 41.1079 208.649 41.2779C200.939 42.2679 193.299 41.1679 185.639 40.6779C182.339 40.4679 178.949 40.2079 175.719 40.7179C172.519 41.2279 169.999 39.6779 166.549 39.7579C167.319 38.1779 167.709 37.3579 168.129 36.4979C166.339 34.9079 164.029 34.5079 161.679 34.9879C156.989 35.9479 152.369 35.0779 147.729 34.7179C144.319 34.4479 141.209 33.4079 138.249 31.0079C129.799 30.6979 121.149 30.3779 111.209 30.0079C105.539 25.7479 97.6685 24.9079 89.5585 24.5279C81.8885 24.1679 74.2585 23.0779 66.5885 22.5479C62.3985 22.2579 58.8985 20.4879 55.3485 18.2679C50.4385 17.9979 45.4485 17.6179 40.4385 17.4779C37.7485 17.3979 35.1985 16.8379 32.5785 16.4179C26.9985 15.5279 21.2885 15.3879 15.6285 15.0479C12.6285 14.8679 9.59852 15.1079 6.62852 14.7679C4.71852 14.5479 2.88852 13.6079 1.40852 13.1179C-1.00148 9.51793 0.348525 6.27793 0.638525 2.65793C2.35852 2.20793 3.90852 1.49793 5.46852 1.43793C19.4885 0.877927 33.5085 0.307927 47.5285 0.0179266C53.1985 -0.102073 58.8785 0.407927 64.5485 0.727927C75.5585 1.34793 86.5785 1.90793 97.5785 2.73793C119.579 4.39793 141.579 5.76793 163.659 5.72793C172.339 5.70793 181.029 6.06793 189.709 6.32793C204.409 6.75793 219.109 7.18793 233.809 7.72793C246.159 8.17793 258.489 8.81793 270.839 9.32793C277.859 9.61793 284.879 9.75793 291.889 10.0879C318.269 11.3479 344.649 12.6579 371.039 13.9579C383.589 16.1479 396.399 15.0579 408.989 16.9179C413.269 17.5479 417.659 17.4579 421.999 17.6679C435.349 18.3179 448.629 19.7479 462.009 20.1879C474.659 20.5979 487.259 22.3079 499.899 23.2279C510.559 24.0079 521.249 24.5179 531.929 25.0879C534.949 25.2479 537.939 25.4179 541.259 26.8779L541.269 26.8679ZM751.569 72.8679C750.839 72.9679 747.859 73.3679 744.969 73.7679C742.939 73.0679 741.059 72.4179 740.209 72.1279C733.159 72.1279 727.159 72.2279 721.169 72.0979C716.189 71.9879 711.169 71.9079 706.249 71.2379C703.239 70.8279 700.349 70.6479 697.339 70.8779C692.019 71.2879 686.679 71.3279 681.399 70.3079C678.719 69.7879 676.099 69.8179 673.559 70.8079C673.319 71.4279 673.089 72.0079 672.869 72.5879C673.289 73.0879 673.649 73.6779 674.159 74.0679C674.669 74.4579 675.339 74.6579 675.939 74.9379C688.559 73.6079 701.159 73.6279 713.569 75.3779C715.999 74.8179 718.269 74.2879 720.529 73.7679C726.669 76.1379 733.019 75.9679 739.359 75.8779C741.689 75.8479 744.029 75.5479 746.349 75.6579C752.649 75.9679 758.929 76.5079 765.259 76.0079C767.879 75.8079 770.559 76.4579 773.209 76.7379C774.539 76.8779 775.859 77.0579 777.059 77.2079C778.459 76.7879 779.739 76.3979 780.809 76.0779C782.989 76.5379 784.929 77.1779 786.899 77.3379C795.879 78.0579 804.919 77.3179 813.899 78.3279C824.559 77.1379 835.259 78.1479 845.929 77.8079C849.259 77.7079 852.619 77.5179 855.929 77.8079C861.939 78.3379 867.939 78.1779 873.949 77.9479C877.289 77.8179 880.629 77.8979 883.969 77.8979C889.309 77.8979 894.649 77.9379 899.989 77.9179C901.709 77.9179 903.359 77.6079 906.009 76.2379C899.459 75.9479 894.149 75.5879 888.839 75.4979C883.499 75.4079 878.109 76.0479 872.819 75.5279C864.859 74.7379 856.809 76.7179 848.929 74.5479C841.959 76.6179 835.009 73.9679 828.089 74.4779C824.819 74.7179 821.499 73.1879 818.269 74.9079C817.519 75.3079 816.249 75.1179 815.369 74.8079C810.819 73.1879 806.259 73.5479 801.639 74.4279C800.019 74.7379 798.269 75.1779 796.709 74.8679C788.109 73.1479 779.419 73.8379 770.759 73.6879C765.089 73.5879 759.429 73.1979 751.539 72.8379L751.569 72.8679ZM948.999 77.1079C949.569 78.5379 949.679 79.1079 949.819 79.1179C954.779 79.4479 959.729 79.7879 964.699 80.0079C968.369 80.1679 972.019 79.9279 976.239 78.5679C972.099 77.4079 968.459 76.5179 964.919 77.2379C959.929 78.2579 955.029 77.7279 948.999 77.1079ZM731.509 64.4779C722.689 63.3279 717.459 63.5179 713.189 65.0379C715.369 66.3179 717.679 65.2479 719.909 65.4779C722.519 65.7479 725.079 66.4079 727.679 66.7279C728.929 66.8779 730.239 66.6679 731.519 64.4779H731.509ZM807.489 68.8179C818.409 70.1979 818.589 70.1879 822.089 67.3979C816.949 67.8879 812.879 67.1679 808.889 65.8379C808.159 65.5979 807.109 66.3179 806.169 66.5979C806.569 67.2779 806.889 67.8079 807.499 68.8179H807.489ZM829.929 68.5179C831.479 69.9879 833.479 69.5279 835.269 69.6379C837.819 69.7879 840.389 69.5279 843.119 69.4279C842.829 68.8079 842.759 68.3979 842.589 68.3379C839.569 67.3579 836.539 66.4279 833.449 65.4679C831.959 66.1079 830.539 66.8079 829.939 68.5179H829.929ZM931.369 74.3679C930.839 78.5679 925.949 75.8879 926.929 80.5079C927.759 80.8479 928.599 81.3179 929.499 81.5279C930.079 81.6679 930.739 81.4279 931.369 81.3679C933.162 79.8146 934.009 78.4146 933.909 77.1679C933.819 77.0679 933.419 76.6279 931.369 74.3679ZM614.589 61.1279H628.559C624.419 60.1779 620.249 59.8179 616.069 59.5179C615.879 59.5079 615.649 59.9579 614.579 61.1279H614.589ZM1021.46 81.1379C1020.97 80.5379 1020.8 80.2579 1020.56 80.0679C1020.32 79.8879 1020.01 79.7179 1019.72 79.6879C1016.55 79.4079 1013.37 79.1579 1010.21 78.8979C1010.08 79.7879 1010 80.3579 1009.86 81.2679C1013.67 81.8079 1017.42 82.1179 1021.45 81.1379H1021.46ZM487.429 52.0879C488.689 53.3679 490.099 53.7079 491.719 52.7979C491.459 50.0679 491.099 49.5279 489.489 49.6279C488.019 49.7279 487.149 50.4479 487.439 52.0879H487.429ZM693.539 61.7479C691.619 61.7479 689.829 60.8179 687.759 62.4179C688.139 63.0579 688.389 64.0979 688.969 64.3379C690.449 64.9379 692.049 64.9779 693.539 63.6979V61.7479ZM913.419 68.5279C917.929 70.9179 917.949 70.9079 918.959 68.3879C917.489 67.4779 915.989 67.9579 913.419 68.5279ZM914.679 76.2979C915.049 76.9679 915.289 78.0779 915.859 78.3079C918.419 79.2979 919.369 78.9479 921.719 75.8679C919.239 75.8279 917.169 74.5379 914.669 76.2979H914.679ZM1161.03 79.4979C1162.68 79.4979 1163.74 79.7779 1164.5 79.4179C1165.21 79.0879 1165.66 78.1079 1166.07 77.3279C1166.12 77.2379 1165.26 76.4779 1164.73 76.3079C1163.49 75.9279 1162.22 75.8379 1161.24 77.0079C1161.19 77.5779 1161.14 78.1579 1161.03 79.4979ZM1036.29 81.5979C1036.41 81.1679 1036.52 80.7379 1036.64 80.3079C1035.69 80.1679 1034.74 79.8979 1033.79 79.9179C1031.86 79.9479 1029.94 80.1379 1027.76 80.2879C1028.2 80.8379 1028.35 81.2179 1028.53 81.2279C1031.12 81.3879 1033.71 81.4879 1036.3 81.6079L1036.29 81.5979ZM1126.45 84.8479C1128.5 88.1979 1130.63 88.3479 1133.37 86.8079C1131.98 83.7479 1129.74 83.7979 1126.45 84.8479ZM785.029 60.7079C785.029 60.6479 785.029 60.5979 785.029 60.5379H781.029C781.029 60.5979 781.029 60.6479 781.029 60.7079H785.029ZM672.769 63.0279C673.919 63.1979 674.799 63.3979 675.699 63.4479C676.969 63.5279 678.329 63.9879 679.379 62.7879C678.839 62.5179 678.279 61.9979 677.759 62.0379C676.179 62.1579 674.479 61.6979 672.769 63.0279ZM177.839 36.3579C179.779 37.0379 181.855 37.1213 184.069 36.6079C183.229 35.3679 181.899 35.7079 180.759 35.6879C179.919 35.6779 179.069 36.0579 177.839 36.3579ZM1138.87 86.6779C1140.8 87.1446 1142.57 87.0379 1144.18 86.3579C1142.38 85.9579 1140.55 84.9779 1138.87 86.6779ZM601.289 52.8279C599.139 50.7179 597.299 51.4379 595.429 52.5979C597.395 53.2779 599.349 53.3546 601.289 52.8279ZM890.249 69.0479C890.269 68.7479 890.289 68.4379 890.309 68.1379C889.099 68.2579 887.889 68.3779 886.279 68.5279C887.269 68.7679 887.849 68.9579 888.429 69.0279C889.029 69.0979 889.639 69.0479 890.249 69.0479ZM991.399 78.7279C994.009 80.5479 994.049 80.6479 995.319 80.1479C995.689 79.9979 995.779 79.1479 995.999 78.6079C994.439 77.5179 992.879 76.7279 991.389 78.7279H991.399ZM512.779 46.5779C510.809 46.0079 510.179 45.6479 509.589 45.7079C509.039 45.7679 508.539 46.2679 508.019 46.5679C508.559 46.8779 509.079 47.3879 509.649 47.4479C510.239 47.5079 510.869 47.1379 512.789 46.5679L512.779 46.5779ZM595.859 56.5179C594.409 56.6979 593.859 57.3979 594.419 58.8279C595.959 58.6979 596.429 57.9579 595.859 56.5179ZM607.279 59.5979C606.819 59.1779 606.399 58.5079 605.879 58.4079C605.039 58.2379 604.649 58.8979 605.189 59.4979C605.579 59.9379 606.319 60.0879 606.919 60.3179C606.939 60.3179 607.149 59.8479 607.279 59.5879V59.5979ZM646.559 62.3679C646.459 62.0679 646.439 61.6879 646.239 61.4779C645.669 60.8779 644.979 60.9279 644.699 61.6979C644.419 62.4579 644.919 62.9479 645.749 62.8479C646.039 62.8179 646.289 62.5379 646.559 62.3779V62.3679ZM756.719 66.1979C756.309 65.7879 755.949 65.1579 755.469 65.0379C754.539 64.7979 753.249 66.1779 753.799 66.6379C754.219 66.9879 754.939 67.1879 755.489 67.1279C755.929 67.0779 756.309 66.5279 756.709 66.1979H756.719ZM737.449 66.1579C737.449 66.3379 737.449 66.5079 737.449 66.6879H739.769C739.769 66.5079 739.769 66.3379 739.769 66.1579H737.449ZM782.679 66.8679C784.949 67.0479 786.029 67.1379 787.539 67.2579C786.149 65.7179 785.019 66.2379 782.679 66.8679ZM864.089 68.5979C864.609 68.8679 865.119 69.3479 865.629 69.3479C866.089 69.3479 866.549 68.8479 867.009 68.5679C866.499 68.2979 865.999 67.8279 865.489 67.8179C865.029 67.8179 864.559 68.3179 864.089 68.5979ZM668.669 71.0179C667.649 69.2379 666.589 69.4479 665.439 70.8979C666.499 71.8879 667.549 72.1879 668.669 71.0179ZM994.249 70.7379C992.709 69.9446 991.335 70.0413 990.129 71.0279C991.589 72.0779 992.969 72.1079 994.249 70.7379ZM348.559 36.0679C349.659 37.6079 350.529 37.6079 351.669 36.0679H348.559ZM436.679 46.3979C435.709 45.2879 434.709 45.2379 433.589 46.2679C434.559 47.9179 435.579 47.7579 436.679 46.3979ZM647.359 46.5579C646.359 45.6179 645.399 45.3279 644.319 46.5779C645.319 47.5379 646.279 47.7779 647.359 46.5579ZM542.679 48.2179C542.409 48.3479 542.129 48.4879 541.859 48.6179C542.409 48.6179 542.959 48.6179 543.509 48.6279C543.229 48.4879 542.959 48.3479 542.679 48.2079V48.2179ZM700.649 49.1279C700.929 49.1179 701.249 49.1679 701.489 49.0679C701.659 48.9979 701.879 48.5979 701.829 48.5279C701.679 48.3279 701.369 48.0579 701.189 48.0979C700.759 48.2079 700.379 48.4779 699.979 48.6879C700.199 48.8379 700.419 48.9879 700.649 49.1379V49.1279ZM620.849 53.5379C620.619 53.7479 620.389 53.9479 620.159 54.1579C620.549 54.5579 620.929 55.2379 621.339 55.2579C621.709 55.2779 622.129 54.5879 622.529 54.2079C621.969 53.9779 621.409 53.7579 620.849 53.5279V53.5379ZM645.469 54.9879C645.449 54.7679 645.509 54.4679 645.379 54.3279C644.789 53.6779 643.139 54.0079 643.299 54.7079C643.349 54.9379 643.679 55.2679 643.879 55.2579C644.409 55.2579 644.929 55.0879 645.459 54.9879H645.469ZM683.979 56.4479C683.079 56.4279 682.859 56.7979 683.419 57.5179C683.469 57.5779 684.009 57.3779 684.169 57.1679C684.259 57.0479 684.049 56.6879 683.979 56.4379V56.4479ZM654.969 62.6779C655.099 62.4479 655.219 62.2279 655.349 61.9979C655.119 61.8979 654.829 61.6679 654.669 61.7479C654.479 61.8379 654.399 62.1679 654.269 62.3979L654.969 62.6779ZM815.759 60.3979L815.409 60.7779H816.099L815.759 60.3979ZM662.889 62.1979C662.759 62.3979 662.639 62.5979 662.509 62.7979C662.789 62.9179 663.079 63.1379 663.359 63.1379C663.639 63.1379 663.929 62.9279 664.209 62.8079C663.769 62.6079 663.329 62.4079 662.889 62.2079V62.1979ZM851.329 67.8279C851.119 68.0179 850.739 68.1979 850.739 68.3879C850.739 68.6179 851.029 68.9979 851.249 69.0479C852.119 69.2379 852.499 68.8579 852.189 68.1279C852.109 67.9379 851.629 67.9279 851.329 67.8279ZM980.689 70.7579L980.109 70.4279L979.979 70.8779L980.699 70.7679L980.689 70.7579ZM1015.24 72.3579L1014.9 72.8279L1015.67 72.7879L1015.25 72.3679L1015.24 72.3579ZM1028.4 73.2479C1028.8 73.0079 1029.21 72.7779 1029.61 72.5379C1029.39 72.3779 1029.11 72.0279 1028.95 72.0779C1028.52 72.2179 1028.13 72.5179 1027.73 72.7479C1027.95 72.9079 1028.18 73.0779 1028.4 73.2379V73.2479ZM941.719 78.0279C941.639 78.2279 941.409 78.5179 941.479 78.6479C941.589 78.8579 941.919 79.0979 942.129 79.0679C942.929 78.9579 943.089 78.5279 942.539 78.0479C942.389 77.9079 942.009 78.0279 941.719 78.0279ZM1002.04 80.3979C1001.52 80.0679 1001.08 79.7179 1000.58 79.5079C1000.46 79.4579 999.919 79.9679 999.949 80.0279C1000.18 80.4879 1000.5 80.8879 1000.79 81.3179C1001.2 81.0179 1001.6 80.7179 1002.03 80.3979H1002.04Z" fill="var(--fill-0, black)"/>
<path id="Vector_2" d="M649.019 73.3779C648.729 73.9079 648.569 74.7179 648.129 74.9079C647.239 75.2879 646.209 75.5079 645.239 75.4879C637.899 75.3779 630.559 75.1979 623.289 75.0479C622.449 72.8279 624.239 72.6279 625.129 72.2879C626.639 71.7079 628.349 71.2879 629.949 71.3579C631.919 71.4379 633.859 72.0979 635.989 72.5479C641.189 71.5746 645.532 71.8546 649.019 73.3879V73.3779Z" fill="var(--fill-0, black)"/>
<path id="Vector_3" d="M590.439 69.3979C591.719 69.2079 593.079 68.6379 594.269 68.8879C596.529 69.3679 598.699 70.3079 600.769 71.0079C605.059 70.2479 605.059 70.2679 606.829 71.9379C599.969 73.9479 598.379 74.0179 585.749 72.7779C587.649 71.3979 589.149 70.3079 590.639 69.2279L590.439 69.3979Z" fill="var(--fill-0, black)"/>
<path id="Vector_4" d="M410.069 57.8779C415.929 57.0079 421.449 57.9979 427.579 57.5979C426.889 59.3579 426.579 60.1579 426.249 60.9879C420.839 62.1879 415.609 61.7879 410.059 60.6879V57.8779H410.069Z" fill="var(--fill-0, black)"/>
<path id="Vector_5" d="M532.519 68.1679C531.039 69.1979 529.809 68.8379 528.289 68.5479C529.769 68.4179 530.969 68.3079 532.519 68.1679Z" fill="var(--fill-0, black)"/>
<path id="Vector_6" d="M445.459 62.8379C447.999 61.6979 448.729 61.3779 449.459 61.0479C449.599 61.5279 449.739 62.0179 449.879 62.4979C449.069 62.5579 448.249 62.6279 445.459 62.8379Z" fill="var(--fill-0, black)"/>
<path id="Vector_7" d="M590.639 69.2379H583.169C584.709 68.6779 587.132 68.7346 590.439 69.4079L590.639 69.2379Z" fill="var(--fill-0, black)"/>
<path id="Vector_8" d="M565.139 70.6179C565.729 70.0879 566.109 69.4679 566.509 69.4479C567.329 69.4079 568.169 69.6979 569.279 69.9079C568.609 70.4579 568.229 71.0379 567.829 71.0479C566.989 71.0679 566.149 70.7979 565.139 70.6179Z" fill="var(--fill-0, black)"/>
<path id="Vector_9" d="M433.879 58.7379C433.699 58.9579 433.569 59.2679 433.339 59.3879C433.119 59.4979 432.669 59.4979 432.559 59.3579C432.009 58.6879 432.249 58.3079 433.169 58.3879C433.419 58.4079 433.649 58.6179 433.879 58.7379Z" fill="var(--fill-0, black)"/>
<path id="Vector_10" d="M542.419 68.9579C542.169 68.8879 541.919 68.8079 541.679 68.7379C541.979 68.4979 542.259 68.2179 542.599 68.0579C542.679 68.0179 542.949 68.3979 543.129 68.5879C542.889 68.7079 542.659 68.8279 542.419 68.9579Z" fill="var(--fill-0, black)"/>
</g>
</svg>
