<svg preserveAspectRatio="none" width="100%" height="100%" overflow="visible" style="display: block;" viewBox="0 0 780.252 68.9" fill="none" xmlns="http://www.w3.org/2000/svg">
<g id="Layer_1-2">
<path id="Vector" d="M395.59 34.77C393.51 34.56 391.98 33.34 390.35 32.38C390.8 31.39 391.05 30.81 391.32 30.22C390.02 27.96 387.87 29.28 386.23 28.46C384.58 30.63 383.23 32.4 381.64 34.47C380.52 33.26 379.68 32.35 378.49 31.07C369.41 29.69 359.42 32.57 350.39 27.98C347.73 28.44 345.12 28.9 342.38 29.38C341.37 30.1 340.3 30.86 338.88 31.88C337.26 31.98 335.27 32.11 333.17 32.24C334.1 30.57 336.66 32.4 337.04 30.07C336.91 29.79 336.85 29.43 336.64 29.25C336.4 29.04 336.03 28.9 335.72 28.9C327.71 28.84 319.69 28.76 311.68 28.78C310.41 28.78 309.14 29.19 307.62 29.46C309.86 31.25 312.67 32.05 312.7 35.68C310.03 36.52 307.6 34.56 303.68 35C303.4 35.08 301.81 35.53 300.03 36.03C292.79 32.76 284.99 36.13 276.91 34.48C275.04 32.94 273.89 30.23 271.89 27.34C269.8 27.19 267.16 26.93 264.52 26.85C260.52 26.73 256.49 27.13 252.63 25.62C252.03 25.39 251.3 25.33 250.65 25.39C244.55 25.95 238.69 24.82 232.87 22.59C230.96 23.24 229.13 24.01 227.22 24.48C225.3 24.96 223.32 25.14 221.52 25.43C220.88 26.43 220.37 27.23 219.77 28.16C218.9 28.23 217.93 28.31 217.06 28.38C215.24 26.78 215.54 23.62 212.67 23.21C210.81 23.86 209.02 24.75 207.13 25.07C205.21 25.39 203.19 25.14 200.96 25.14C200.05 25.84 199.02 26.65 197.49 27.83C193.02 28.07 188.04 28.35 182.91 28.63C178.51 26.27 173.96 24.17 168.72 25.49C167.73 27 169.39 26.85 169.92 27.7C169.93 28.62 168.83 28.64 157.8 27.6C156.38 26.46 154.86 25.23 153.44 24.09C148.753 25.69 142.993 26.43 136.16 26.31C135.02 26.85 133.53 27.56 131.85 28.36C131.06 28.16 130.13 27.8 129.18 27.71C124.87 27.3 120.55 26.96 116.23 26.6C113.28 26.35 110.4 26.49 107.44 25.21C105.21 24.24 102.25 24.94 99.62 24.89C95.58 27.62 91.39 26.71 87.11 25.56C85.2 25.05 83.17 24.98 80.75 24.65C75.95 27.65 70.28 27.87 64.62 27.13C60.29 26.56 56.04 26.68 51.73 27.05C49.08 27.28 46.39 27.09 43.49 27.09C39.42 23.8 34.56 23.12 29.47 22.96C24.48 22.81 19.4 22.89 15.82 21.03C11.67 17.99 8.47 15.65 4.16 12.49C3.36 11.52 1.66 9.48 0 7.47V2.75C0.7 2.02 1.06 1.38 1.6 1.12C4.44 -0.24 7.44 -0.04 10.47 0.1C26.16 0.8 41.84 1.71 57.54 2.04C77.57 2.47 97.6 2.11 117.64 1.49C137 0.89 156.39 0.0699999 175.78 1.14C177.43 1.23 179.09 0.94 180.75 0.94C186.72 0.92 192.73 -0.52 198.64 1.46C204.87 -0.31 211.2 1.54 217.48 0.98C222.12 0.57 226.83 0.64 231.49 0.84C234.81 0.98 238.1 1.71 241.62 2.21C248.6 -0.13 255.73 1.37 263.8 2.54C264.1 2.41 265.29 1.9 266.77 1.28C270.03 2.22 273.46 2.87 277.25 2.14C280.37 1.54 283.79 1.31 287 2.86C288.07 3.38 289.58 3.04 290.88 3C292.53 2.95 294.18 2.68 295.83 2.72C299.17 2.79 302.59 2.6 305.82 3.28C309.24 4 312.35 2.36 315.66 2.85C318.63 3.3 321.71 3.23 324.59 3.97C326.63 4.49 328.34 4.91 330.32 3.88C331.1 3.47 332.34 3.58 333.25 3.85C336.79 4.92 340.65 3.39 344.07 5.23C347.75 4.36 351.43 5.09 354.94 5.82C358.31 6.52 361.51 5.71 364.55 5.7C365.9 6.59 367 7.32 368.45 8.29C370.38 7.71 372.56 7.06 375.13 6.29C380.01 6.53 385.12 8.83 390.49 7.56C395.51 9.85 401.1 8.4 405.78 10.06C408.18 9.5 410.13 9.05 412.16 8.58C419.4 12.94 426.95 11.38 434.42 9.75C437.67 10.76 440.8 11.9 444.01 12.69C447.42 13.54 450.42 11.09 454.38 11.08C459.09 13.09 464.45 15.03 470.25 14.43C475.46 13.89 480.75 16.06 485.52 13.77C486.85 14.25 487.79 14.59 488.8 14.96C490.34 14.66 491.96 14.35 493.63 14.03C494.77 14.72 495.9 15.4 497.27 16.23C499.31 15.96 501.57 15.38 503.82 15.44C505.76 15.49 507.78 16.04 509.6 16.77C512.25 17.83 515.02 17.75 517.47 17.02C522.24 15.6 526.57 16.4 530.92 18.29C531.82 18.68 532.84 18.78 533.87 19.03C535.09 18.57 536.32 18.11 537.54 17.65C539.79 17.51 541.63 19.48 544.23 18.37C547.1 17.13 550.12 17.94 552.73 19.77C553.58 19.35 554.44 18.92 555.46 18.42C556.29 18.56 557.28 18.68 558.24 18.9C562.99 19.99 567.69 22.39 572.6 19.46H580.52C582.13 20.33 583.59 21.11 585.54 22.16C592.43 20.38 599.54 21.87 606.39 23.96C608.24 23.64 609.87 23.37 611.49 23.09C612.71 23.66 613.92 24.22 615.54 24.97C617.15 24.47 619.01 23.89 621.19 23.21H634.5C636.19 24.29 637.58 25.18 638.9 26.03C645.9 24.82 652.85 24.87 659.77 25.39C662.7 25.61 665.56 26.71 669.52 27.67C670.33 27.49 672.22 26.91 674.16 26.69C675.8 26.51 677.5 26.67 679.16 26.81C697.8 28.39 716.47 29.59 734.97 32.59C749.67 34.97 763.39 39.85 776.26 47.25C777.4 47.9 778.35 48.87 779.22 49.56C781.43 53.72 779.76 57.02 777.31 59.87C775.16 62.37 772.51 64.44 770.09 66.7C765.09 67.29 759.87 65.53 755.32 68.9C748.22 66.67 741.22 64.46 734.43 62.33C733.79 61.3 733.28 60.47 732.85 59.77C730.31 58.61 728.12 60.12 725.7 60.19C721.58 59.49 717.33 58.76 712.94 58.01C711.44 56.48 709.66 55.34 707.27 54.82C705.41 54.42 703.76 53.04 701.46 51.8C697.52 53.37 692.86 53.16 688.2 53.21C683.9 53.26 679.75 55.53 674.36 53.82C674.14 53.64 673.15 52.8 671.97 51.8C666.64 51.03 661.07 50.01 655.45 49.46C649.83 48.91 644.17 48.82 638.33 48.52C637.98 47.59 637.66 46.74 637.27 45.71C635.63 44.55 633.67 44.88 631.43 45.38C631.08 46.07 630.66 46.91 629.98 48.25C627.56 49.94 624.3 50.3 621.05 50.32C619.98 49.32 619.02 48.43 617.94 47.43C614.76 47.11 611.46 46.78 608.34 46.47C607.77 45.3 607.35 44.42 606.89 43.47C605.98 43.25 605.02 42.93 604.04 42.81C603.06 42.69 602.06 42.78 601.09 42.78C599.91 43.58 598.82 44.33 597.35 45.34C592.43 45.05 587.13 44.73 581.95 44.42C581.48 43.33 581.11 42.47 580.73 41.62C578.1 39.85 575.7 43.58 573.23 41.81C571.3 43.34 570.44 45.85 568.91 46.15C565.33 46.51 566.12 42.9 563.54 42.71C562.33 42.62 561.27 40.62 560.03 39.38C555.5 38.98 550.93 38.7 546.32 39.76C546.61 40.65 546.81 41.24 547.09 42.08C545.74 42.08 544.42 42.33 543.23 42.04C536.7 40.41 530.03 40.97 523.42 40.59C519.77 40.38 516.12 40.04 513.07 39.8C511.7 38.77 510.9 38.18 509.82 37.37C504.97 39.23 499.74 39.21 494.48 38.43C492.46 37.56 491.21 34.8 488.37 35.9C488.25 36.55 488.14 37.2 487.97 38.15C483.51 38.68 478.96 39.23 474.54 39.76C473.51 38.6 472.64 37.62 471.67 36.54H464.33C464.6 35.5 464.81 34.71 465.08 33.65C458.53 31.63 452.16 32.98 446.23 35.01C441.17 34.86 436.51 34.63 431.85 34.59C426.44 34.54 421.13 34.16 417.24 31.25C412.18 30.52 407.94 29.91 403.69 29.3C403.44 29.78 403.12 30.24 402.97 30.76C402.89 31.03 403.13 31.39 403.23 31.71C402.72 32.06 402.26 32.54 401.69 32.74C399.53 33.47 396.95 33.04 395.27 35.09L395.55 34.82L395.59 34.77ZM286.06 27.51C290.72 30.18 294.58 27.87 299.56 29.8C296.933 27.96 292.433 27.1967 286.06 27.51ZM435.06 32.22C434.97 32.02 434.87 31.83 434.78 31.63C432.53 31.48 430.29 31.28 428.03 31.2C427.35 31.18 426.21 30.9 426.53 32.59C429.39 32.46 432.22 32.34 435.06 32.22ZM294.29 16.25C293.17 15.63 292.04 14.77 290.58 16.07C292.01 16.14 293.15 16.2 294.29 16.25ZM314.83 26.06C313.73 24.76 312.67 24.5 311.59 26.09C312.71 27.1 313.76 26.97 314.83 26.06ZM360.32 28.09C358.08 27.54 357.26 27.22 356.44 27.21C356.15 27.21 355.83 27.94 355.59 28.37C355.57 28.4 356.06 28.88 356.28 28.86C357.15 28.76 358 28.55 360.32 28.09ZM281.64 31.22C281.13 31.08 280.62 30.95 280.11 30.81C280.02 31.26 279.92 31.71 279.83 32.16C280.39 32.11 280.97 32.09 281.51 31.96C281.6 31.94 281.6 31.47 281.64 31.21V31.22ZM523.99 38.03C524.58 38.24 525.08 38.47 525.6 38.56C525.82 38.6 526.1 38.33 526.35 38.2C526 37.92 525.67 37.43 525.3 37.41C524.89 37.39 524.46 37.78 523.98 38.02L523.99 38.03ZM268.95 23.95C269.53 24.09 270.11 24.27 270.71 24.35C270.82 24.36 270.98 23.96 271.12 23.74C270.35 23.27 269.58 22.8 268.95 23.94V23.95ZM281.41 24.08C281.66 24.1 281.91 24.16 282.15 24.11C282.21 24.1 282.22 23.77 282.25 23.59C282 23.57 281.75 23.52 281.52 23.56C281.46 23.57 281.45 23.89 281.42 24.07L281.41 24.08Z" fill="var(--fill-0, black)"/>
<path id="Vector_2" d="M395.31 35.04C396.86 34.73 398.44 34.18 399.84 35.48C399.27 38.71 399.24 38.69 395.13 39.97C394.91 39.46 394.43 38.91 394.51 38.46C394.74 37.2 395.21 35.99 395.58 34.76L395.3 35.03L395.31 35.04Z" fill="var(--fill-0, black)"/>
<path id="Vector_3" d="M533.65 43.53C533.62 43.74 533.62 44.1 533.55 44.12C533.27 44.18 532.75 44.21 532.71 44.1C532.45 43.44 532.81 43.23 533.66 43.53H533.65Z" fill="var(--fill-0, black)"/>
</g>
</svg>
