<svg preserveAspectRatio="none" width="100%" height="100%" overflow="visible" style="display: block;" viewBox="0 0 594.684 495.21" fill="none" xmlns="http://www.w3.org/2000/svg">
<g id="Layer_1-2">
<path id="Vector" d="M346.73 489.84C335.44 482.23 333.97 480.14 326.72 461.97C326.42 456.12 330.54 452.47 333.76 448.53C338.86 442.28 344.41 436.39 349.66 430.25C350.66 429.08 351.13 427.45 351.96 425.79C346.7 423.92 344.53 428.62 341.02 429.89C337.25 431.26 333.64 433.08 329.79 434.78C325.98 438.11 322.08 441.55 318.16 444.95C312.91 449.49 307.58 453.77 300.89 456.29C295.49 458.33 291.04 461.99 286.99 466.32C280.3 473.47 273.03 480.08 266.04 486.96C262.28 490.66 257.83 493.19 252.81 495.21C242.61 492.97 236.75 486.96 236.23 475.36C247.8 452.87 265.6 434.17 283.32 414.43C277.52 412.88 275.09 415.81 272.32 417.35C268.82 419.29 265.61 421.8 262.48 424.31C255.72 429.71 249 435.15 242.45 440.8C238.97 443.8 235.73 447.13 232.63 450.54C227.19 456.52 221.84 462.59 216.62 468.77C213.17 472.86 209.11 475.88 203.55 477.58C195.95 475.67 193.56 469.24 191.48 463.17C191.65 455.83 194.58 450.33 198.69 445.28C208.53 433.2 218.27 421.04 228.1 408.95C232.08 404.06 236.91 399.84 239.96 394.14C238.73 393.52 237.66 392.5 237.03 392.73C231.97 394.53 228.22 398.11 225.05 402.32C220.11 408.87 213.85 413.83 207.1 418.42C193.63 427.56 182.36 439.23 171.51 451.23C162.98 460.66 154.86 470.31 143.21 476.26C139.73 478.04 137.07 481.43 134.3 483.84C132.08 484.14 130.34 484.71 128.69 484.53C125.88 484.21 123.11 483.42 121.24 483.03C111.29 474.98 111.51 465.83 116.26 455.07C97.92 463.34 82.62 474.05 69.16 487.48C56.36 479.96 49.43 469.32 48.01 454.77C44.14 449.39 40.44 443.57 34.94 438.42C31.62 439.6 28.45 440.72 25.3 441.84C24.28 441.45 22.93 441.35 22.29 440.62C13.09 430.19 5.8 418.53 0 406.72C0.02 398.94 4.41 393.94 8.22 389.08C21.75 371.82 34.52 354 49.05 337.48C63.88 320.63 77.26 302.5 90.93 285.36C92.51 279.49 91.26 274.64 89.39 269.63C85.78 259.9 82.7 249.97 79.37 240.06C80.1 235.43 80.82 230.89 81.37 227.39C90.89 211.45 103.02 199.12 114.86 188.15C117.32 183.06 116.31 179.06 115.4 175.15C112.67 163.37 109.7 151.64 106.99 139.86C105.04 131.36 104.23 122.77 105.95 113.86C111.88 103.27 120.15 94.39 129.17 86.26C142.9 73.89 156.85 61.75 173.22 52.81C176.74 50.89 179.86 48.2 183.12 45.8C201.92 31.95 223.17 23.25 245.28 15.55C249.41 18.13 253.12 20.9 257.21 22.89C260.79 24.63 264.79 25.51 268.1 26.61C272.57 29.32 271.38 36.11 278.11 37.22C283.49 34.58 289.65 31.56 295.3 28.79C301.12 28.86 304.49 31.79 307.01 35.89C309.96 40.72 312.75 45.64 315.77 50.79C317.65 50.12 319.51 49.94 320.69 48.95C329.11 41.91 337.65 34.98 345.62 27.45C352 21.42 359.52 17.2 366.76 12.54C369.05 11.06 372.19 10.9 374.37 10.29C382.33 11.99 389.61 13.55 397.66 15.27C401.41 19.06 402.34 25.01 404.79 30.12C407.27 35.29 408.92 40.86 410.94 46.26C412.6 47.16 414.06 47.95 415.99 49C426.6 41.13 436.5 32.27 447.29 24.67C457.65 17.38 466.34 8.18 476.64 0C478.83 1.6 480.58 2.89 482.12 4.02C484.2 12.34 485.52 20.26 486.14 28.36C486.8 36.96 490.26 45.2 489.88 53.99C493.2 61.29 490.52 70.05 494.83 77.27C509.82 70.3 519.78 58.18 531.26 47.97C542.89 37.63 553.2 26.05 562.27 13.38C564.43 13.98 566.03 14.43 567.89 14.94C568.74 17.1 569.99 19.15 570.35 21.36C574.6 46.98 577.32 72.78 579.67 98.29C578.33 101.39 577.2 104.02 575.62 107.68C576.01 110.05 576.54 113.37 577.02 116.27C580.19 117.93 582.71 119.24 584.97 120.42C585.72 121.69 586.58 122.6 586.83 123.65C592 145.67 592.97 168.18 594.67 190.61C594.79 192.26 594.08 193.97 593.77 195.54C586.32 200.27 579.03 204.88 571.57 209.61C570.04 209.37 568.35 209.1 565.68 208.68C552 212.38 538.75 218.66 527.05 228.54C518.71 235.58 509.9 242.14 499.57 246.35C496.58 247.57 493.62 250.02 494.69 254.31C495.71 254.69 496.98 255.64 497.69 255.33C500.82 253.96 503.87 252.35 506.8 250.59C515.7 245.23 524.46 239.62 533.42 234.36C539.36 230.87 545.41 227.45 552.33 226.29C555.57 226.8 557.62 228.77 558.65 231.59C560.03 235.37 561.22 239.25 562.18 243.16C565.46 256.6 566.76 270.36 569.39 282.61C565.68 289.56 558.07 288.59 554.31 294.71C554.74 300.7 555.24 307.54 555.68 313.59C555.2 314.93 555.14 315.59 554.79 315.98C551.74 319.42 548.64 322.81 546 325.73C530.48 333.51 515.64 341.07 504.53 353.47C504.57 374.38 505.87 394.55 503.09 416.82C501.76 421.48 498.89 427.63 492.41 431.57C489.82 430.79 487.17 429.99 483.9 429.01C472.58 438.39 463.09 450.1 452.34 459.16C448.6 459.76 447.24 457.84 445.91 455.99C443.91 453.21 442.01 450.36 440.22 447.75C433.93 446.07 429.75 449.48 425.69 452.51C422.95 454.55 420.8 457.4 418.47 459.96C414.45 464.36 409.56 467.19 404.18 468.29C399.28 468.2 395.93 465.95 393.43 462.65C391.01 459.46 389.07 455.91 387.07 452.76C383.51 451.17 380.99 452.92 379.13 454.98C372.16 462.69 365.46 470.63 358.63 478.46C355.26 482.32 352.65 486.95 346.7 489.83L346.73 489.84ZM448.67 283.68C462.9 280.1 473.78 270.7 485.32 262.47C486.82 261.4 486.67 259.66 484.36 258.84C472.16 263.77 461.24 270.9 451.53 279.9C450.39 280.96 449.81 282.63 448.97 284.02C447.29 284.19 445.27 283.81 443.98 284.61C434.28 290.66 424.8 297.05 416.68 305.2C416.01 305.87 415.92 307.12 415.35 308.67C417.78 308.22 419.9 307.82 421.17 307.58C428.56 301.76 435.3 296.49 442 291.17C444.65 289.07 447.73 287.33 448.66 283.68H448.67ZM463.51 105.75C460.57 106.43 459.33 106.43 458.42 106.97C440.97 117.28 425.78 130.32 412.18 145.28C411.33 146.22 411.85 147.2 414.02 148.1C424.68 141.15 434.73 132.71 444.73 124.2C447.34 121.97 449.35 118.93 452.17 117.08C455.4 114.97 459.24 113.78 462.85 112.18C463.05 110.21 463.22 108.62 463.52 105.75H463.51ZM359.78 184.39C353.23 186.21 348.53 189.95 344.59 194.89C345.84 195.71 346.65 196.24 348.07 197.18C352.69 193.79 357.62 190.5 359.78 184.39ZM404.03 152.91C403.59 153.17 402.79 153.4 402.76 153.69C402.64 155.11 403.45 155.5 404.81 154.66C405.17 154.44 405.28 153.83 405.5 153.4C405.01 153.24 404.52 153.07 404.03 152.91Z" fill="var(--fill-0, black)"/>
</g>
</svg>
