<svg preserveAspectRatio="none" width="100%" height="100%" overflow="visible" style="display: block;" viewBox="0 0 607.961 104.209" fill="none" xmlns="http://www.w3.org/2000/svg">
<g id="Layer_1-2">
<path id="Vector" d="M560.177 99.1581C552.757 96.4981 544.997 97.3681 537.367 97.0281C531.247 96.7481 525.147 97.2981 519.057 95.6181C515.437 94.6181 511.427 95.0481 507.587 94.8681C489.957 94.0081 472.327 93.1781 454.707 92.2581C452.857 92.1581 450.837 92.2181 449.417 90.5981C456.627 83.4581 457.237 82.7781 465.437 83.2981C476.137 83.9781 486.997 82.6981 497.527 85.8081C499.277 86.3281 501.327 85.8081 503.237 85.8081C516.667 85.8481 530.067 86.0681 543.477 87.2881C554.427 88.2881 565.487 88.0381 576.647 88.3581C576.337 86.7181 575.757 86.1781 574.867 86.3981C570.227 87.5081 565.977 84.6781 561.217 85.3281C556.017 86.0381 550.607 85.6281 545.627 83.5081C543.647 82.6681 541.877 83.3681 540.007 83.3681C536.947 83.3681 533.787 83.6781 530.847 83.0381C525.467 81.8681 520.177 82.3881 514.837 82.8281L514.957 82.5581C510.587 78.7681 505.167 78.3281 499.797 77.9681C483.337 76.8481 466.877 75.8581 450.407 74.8081C446.577 74.5581 442.717 74.4281 438.917 73.9281C432.897 73.1481 426.877 71.7881 421.197 75.2681C419.977 76.0181 418.977 75.4681 418.177 74.6481C415.457 71.8981 411.977 72.0481 408.517 71.7881C384.377 69.9881 360.257 68.0981 336.117 66.2481C316.207 64.7281 296.297 63.2181 276.387 61.7481C265.657 60.9481 254.927 60.1281 244.177 59.4881C212.327 57.5981 180.467 55.9481 148.637 53.9181C129.467 52.6981 110.277 52.3381 91.117 51.2881C81.927 50.7781 72.767 49.8081 63.537 50.0481C62.027 50.0881 60.457 50.0681 59.537 51.6981C59.537 51.9681 59.417 52.3681 59.567 52.5781C59.777 52.8681 60.167 53.1481 60.517 53.1881C66.197 53.9181 71.897 55.2681 77.557 55.1481C84.537 55.0081 91.297 55.7481 98.097 57.0581C101.467 57.7081 104.927 57.9181 108.357 58.2481C115.977 58.9781 123.717 58.1881 131.247 60.3481C134.607 61.3081 138.307 61.0281 141.357 59.2481C145.217 56.9881 148.427 57.3081 151.887 59.9781C152.977 60.8181 154.837 60.6281 156.317 60.9981C158.247 61.4881 158.147 62.5481 157.727 64.3681C156.757 68.6081 158.057 70.1881 161.627 70.2481C164.097 70.2881 166.127 69.4981 167.777 67.6781C169.067 66.2681 167.857 65.7881 166.857 65.2581C165.937 64.7581 164.187 64.9081 164.507 63.4181C164.667 62.6981 166.127 61.9781 167.107 61.7681C170.137 61.1281 173.167 61.3281 176.247 61.9481C181.127 62.9281 186.347 62.4681 191.057 63.4681C206.997 66.8681 223.347 63.3881 239.187 67.0081C253.037 66.2081 266.647 69.2981 280.477 69.5281C293.847 69.7481 307.197 71.6781 321.127 72.9081C315.777 75.6881 310.587 75.0581 305.587 75.0181C305.447 76.3381 306.037 76.5281 306.857 76.9381C309.017 78.0181 313.557 75.8881 313.177 79.5081C312.917 81.9781 308.467 81.0781 306.047 80.6381C289.757 77.6981 273.057 79.7581 256.767 76.3481C251.607 75.2681 246.047 76.0981 240.667 75.9981C238.767 75.9581 236.857 75.8481 234.997 75.5281C234.527 75.4481 234.217 74.3981 233.837 73.7981C234.477 73.4281 235.367 72.5681 235.717 72.7581C241.727 75.8981 248.177 75.8081 254.647 75.4681C255.727 75.4081 256.787 74.8381 257.827 74.4181C258.107 74.3081 258.497 73.8481 258.457 73.6281C258.317 72.9281 258.067 72.2281 257.727 71.5881C257.567 71.2881 257.127 70.9881 256.787 70.9581C245.787 69.7981 234.757 68.2781 224.107 72.8281C221.547 73.9281 218.927 74.2781 216.237 74.2281C209.697 74.0981 203.127 74.2281 196.637 73.5581C175.217 71.3381 153.707 70.8381 132.237 70.0081C112.247 69.2381 92.307 67.8881 72.367 66.5081C54.347 65.2581 36.237 65.4481 18.277 62.9981C13.947 62.4081 11.067 60.9281 8.91703 57.5181C7.89703 55.9081 7.05703 54.1481 6.33703 52.3781C5.91703 51.3381 5.96703 50.1281 5.68703 49.0181C3.82703 41.5981 1.12703 34.2781 0.277033 26.7481C-0.522967 19.6381 0.637033 12.2981 0.907033 5.06808C1.01703 1.20808 2.96703 -0.721925 6.80703 0.248075C15.827 2.50808 25.007 3.12808 34.227 3.70808C50.337 4.72808 66.427 6.01808 82.547 6.93808C114.407 8.75808 146.297 10.1981 178.147 12.1781C219.597 14.7581 261.017 17.6681 302.447 20.5181C341.187 23.1781 379.917 26.0581 418.657 28.6381C452.797 30.9181 486.957 32.9981 521.117 35.0181C541.457 36.2181 561.817 37.2481 582.177 38.1181C588.297 38.3781 594.457 37.7181 600.597 37.6981C605.137 37.6781 608.547 40.2981 607.877 44.6381C606.477 53.7181 609.867 63.0581 606.047 71.9181C605.067 74.1881 605.887 76.4681 606.327 78.7081C607.827 86.3381 605.847 93.9981 606.557 101.658C606.697 103.098 605.067 104.678 603.357 104.078C594.177 100.818 584.557 100.568 575.027 99.7881C571.927 99.5381 571.357 98.4081 571.697 95.5481C571.897 93.8781 570.067 93.1181 568.447 93.0481C556.957 92.5281 545.527 91.4481 534.167 89.5881C533.797 89.5281 533.397 89.5381 533.027 89.6081C531.217 89.9381 529.167 89.6981 528.167 91.8581C527.417 93.4581 529.597 95.3581 532.837 95.4381C539.737 95.6081 546.657 95.6581 553.557 95.5581C556.557 95.5081 558.787 96.3881 560.127 99.1381L560.177 99.1781V99.1581ZM274.077 57.2181C276.127 56.5281 278.307 58.4181 281.517 56.0581C278.177 56.5681 276.087 56.8781 273.997 57.1981C273.857 56.8481 273.827 56.3681 273.577 56.1581C269.557 52.7981 264.877 52.7081 260.047 53.5081C259.777 53.5481 259.337 54.1581 259.397 54.2781C259.707 54.8681 260.117 55.8081 260.577 55.8581C265.057 56.3981 269.557 56.7781 274.087 57.2181H274.077ZM151.727 22.6081C156.677 22.7881 161.627 22.9881 166.587 23.1481C167.597 23.1781 168.197 22.6081 167.837 21.8681C167.557 21.2781 166.757 20.4681 166.277 20.5281C161.387 21.1281 156.527 21.8781 151.657 22.5881C150.847 21.8081 150.107 20.4581 149.227 20.3481C145.127 19.8681 140.977 19.5681 136.847 19.5381C133.197 19.5081 129.477 19.1681 123.297 20.3581C134.537 21.2381 143.117 21.9181 151.737 22.5981L151.727 22.6081ZM294.397 30.5481C294.977 32.5281 296.677 32.1081 298.117 32.3181C309.487 34.0181 321.177 31.6481 332.427 34.9481C346.677 34.3281 360.717 37.1881 374.917 37.6181C378.527 37.7281 382.037 38.2081 385.747 36.3881C373.437 34.3081 309.067 30.2181 294.397 30.5481ZM217.417 25.3881C210.507 24.1881 203.467 23.2981 196.507 21.8381C196.147 21.7581 195.737 21.7681 195.367 21.8381C194.077 22.0981 192.037 21.4081 192.177 23.6381C192.217 24.2681 193.847 25.2981 194.767 25.3181C202.317 25.4581 209.867 25.3981 217.417 25.3981V25.3881ZM286.577 30.6781C285.417 27.5381 283.127 28.2781 281.457 27.9381C275.917 26.7981 270.127 28.6381 264.587 26.7581C264.197 26.6281 263.117 27.4381 262.977 27.9681C262.857 28.4381 263.487 29.5181 263.987 29.6681C271.357 31.9281 278.797 30.6081 286.567 30.6781H286.577ZM536.447 46.2481C536.477 45.8981 536.507 45.5481 536.537 45.1981H505.877L505.857 46.2481H536.447ZM134.387 48.9481C138.847 48.9481 141.527 49.0181 144.197 48.8881C144.757 48.8581 145.707 48.0981 145.727 47.6481C145.787 46.3281 144.647 45.7781 143.537 45.7181C138.987 45.4781 134.427 45.3081 129.867 45.2581C129.327 45.2581 128.447 46.0481 128.337 46.5881C128.237 47.0781 128.897 48.1681 129.367 48.2581C131.597 48.6981 133.887 48.8881 134.387 48.9481ZM207.557 67.2981C207.557 67.3681 207.557 67.4381 207.557 67.5081C204.957 67.6281 202.357 67.6681 199.767 67.9381C199.297 67.9881 198.597 68.9581 198.597 69.4981C198.597 70.0381 199.487 71.0981 199.757 71.0281C203.817 70.0081 207.537 71.3481 211.357 72.3381C212.737 72.6881 214.447 71.7381 214.717 70.0981C215.007 68.3281 213.637 67.4681 212.007 67.3281C210.527 67.2081 209.027 67.2981 207.547 67.2981H207.557ZM423.667 39.1781C414.177 36.5581 407.147 38.6781 400.167 38.5081C407.147 38.9781 414.087 41.1881 423.667 39.1781ZM450.587 40.5281C445.467 40.2381 442.917 39.9681 440.367 39.9881C437.567 39.9981 434.767 40.2681 430.147 40.5181C436.337 42.4981 440.847 42.2281 445.307 42.2981C446.207 42.3081 447.127 41.7181 450.587 40.5281ZM409.767 67.6481C412.697 67.4981 415.627 67.4181 418.537 67.1681C419.657 67.0681 420.767 66.4481 420.427 65.0781C420.297 64.5581 419.387 63.9781 418.757 63.8781C415.367 63.3181 412.357 64.4481 409.767 67.6581V67.6481ZM271.357 73.1181C275.707 74.2181 276.447 77.0981 279.127 76.7481C280.347 76.5881 282.437 74.7281 282.127 73.8981C281.677 72.6981 280.587 72.5381 279.577 72.5481C277.747 72.5781 275.927 72.7881 271.357 73.1181ZM178.217 66.0181C180.027 67.9881 181.927 69.7881 184.637 70.1281C186.297 70.3381 187.457 69.5181 187.777 67.7081C188.037 66.2481 187.157 65.5381 186.057 65.2881C183.417 64.6981 180.817 65.1481 178.217 66.0181ZM308.817 59.3481C312.807 60.6481 316.187 61.0481 319.587 59.8281C319.807 59.7481 319.937 59.1181 319.897 58.7681C319.857 58.4581 319.577 58.0081 319.307 57.9281C315.757 56.7681 312.677 58.6081 308.807 59.3581L308.817 59.3481ZM198.857 49.8081C202.937 51.2981 205.027 52.1481 207.167 52.8081C208.267 53.1481 209.677 53.1481 210.137 51.8781C210.657 50.4381 209.337 49.9081 208.257 49.8481C205.797 49.7181 203.327 49.8081 198.857 49.8081ZM236.757 27.2181C239.077 29.0381 240.987 28.3581 242.777 28.4181C244.557 28.4781 246.537 29.1381 247.947 27.3381C248.787 26.2581 245.837 24.9781 242.657 25.0481C240.757 25.0881 238.957 25.4381 236.757 27.2081V27.2181ZM220.357 53.1181C221.297 52.9781 222.447 52.9881 223.427 52.5881C223.907 52.3881 224.437 51.3181 224.287 50.8281C224.137 50.3281 223.207 49.7881 222.607 49.7681C221.547 49.7381 220.397 49.9281 219.427 50.3481C218.907 50.5781 218.687 51.4881 218.327 52.0881C218.947 52.4081 219.577 52.7181 220.357 53.1181ZM479.217 89.1881C478.987 87.4181 476.637 86.8181 473.757 87.9381C473.227 88.1481 472.607 89.0081 472.637 89.5381C472.667 90.0281 473.457 90.7881 473.997 90.8681C475.367 91.0681 476.817 91.0881 478.177 90.8681C478.597 90.7981 478.877 89.7681 479.217 89.1781V89.1881ZM169.247 47.7881C168.097 47.7581 166.977 47.9681 167.007 49.3581C167.007 49.8081 167.897 50.5581 168.427 50.6081C169.527 50.7081 170.677 50.2781 170.737 48.9581C170.757 48.5881 169.777 48.1781 169.247 47.7981V47.7881ZM295.987 75.2681C295.687 73.1181 294.127 72.2581 292.147 72.3681C291.207 72.4181 290.017 73.0781 289.477 73.8381C288.667 74.9881 290.687 77.1781 292.647 77.3081C294.147 77.4081 295.547 77.2081 295.987 75.2681ZM466.247 44.3281C466.967 44.3281 467.707 44.4081 468.417 44.3081C469.317 44.1681 470.647 44.4081 470.617 42.9981C470.607 42.5681 469.647 41.9181 469.037 41.7981C467.647 41.5281 466.197 41.4081 464.787 41.4881C464.397 41.5081 463.997 42.4381 463.727 43.0081C463.647 43.1781 463.937 43.7081 464.167 43.7881C464.827 44.0381 465.547 44.1581 466.247 44.3181V44.3281ZM115.927 45.7181C111.917 44.0781 108.877 43.2781 105.537 45.4181C108.647 47.9581 111.647 47.8081 115.927 45.7181ZM292.737 57.9881C293.557 57.9881 294.317 58.1181 294.987 57.9381C295.457 57.8181 295.807 57.2581 296.217 56.8981C295.907 56.7281 295.617 56.4681 295.287 56.4181C294.577 56.3181 293.837 56.2181 293.137 56.3281C292.287 56.4581 291.087 56.0981 290.897 57.4281C290.887 57.5281 292.157 57.8181 292.737 57.9881ZM555.967 48.1681C553.587 46.8681 551.197 46.5381 548.657 47.7981C551.047 49.4681 553.477 48.7581 555.967 48.1681ZM491.707 42.3981C490.967 42.4581 490.177 42.3981 489.497 42.6281C488.927 42.8181 488.467 43.3581 487.957 43.7381C488.427 44.2281 488.867 45.0681 489.387 45.1281C490.807 45.3081 492.297 45.2881 493.707 45.0481C494.147 44.9781 494.447 43.9581 494.727 43.3281C494.757 43.2581 494.217 42.8181 493.897 42.7381C493.187 42.5581 492.437 42.4981 491.707 42.3881V42.3981ZM478.917 71.0781C480.677 72.0981 482.497 72.1681 484.337 71.7881C484.647 71.7281 485.027 71.3181 485.087 71.0181C485.127 70.8081 484.697 70.3381 484.417 70.2781C482.537 69.8281 480.697 69.8781 478.917 71.0881V71.0781ZM343.257 61.2081C343.797 60.3981 343.647 59.6481 342.727 59.5081C342.127 59.4181 341.257 59.6981 340.827 60.1281C340.187 60.7681 340.437 61.6681 341.307 61.8181C341.907 61.9181 342.607 61.4281 343.257 61.2081ZM157.817 48.2181C157.747 48.0081 157.697 47.6481 157.597 47.6381C156.897 47.5381 156.187 47.4681 155.477 47.4681C155.147 47.4681 154.827 47.6581 154.497 47.7581C154.907 48.0081 155.307 48.4381 155.737 48.4681C156.417 48.5181 157.117 48.3081 157.807 48.2081L157.817 48.2181ZM428.677 65.9981C428.427 66.1581 428.167 66.3181 427.917 66.4781C428.437 66.8281 428.907 67.3181 429.477 67.4781C430.347 67.7181 430.947 67.1481 430.527 66.5281C430.257 66.1181 429.317 66.1581 428.677 65.9981ZM467.067 71.1981C467.457 70.4381 467.237 69.8281 466.347 69.5081C466.037 69.3981 465.577 69.3981 465.317 69.5681C464.527 70.0581 464.367 70.8681 465.077 71.2781C465.567 71.5581 466.397 71.2481 467.067 71.2081V71.1981ZM231.357 25.9481C231.607 25.1181 231.297 24.3081 230.407 24.2981C229.387 24.2981 228.357 24.7481 227.337 24.9981C227.737 25.5781 228.007 26.3881 228.557 26.6981C229.567 27.2581 230.687 27.3081 231.347 25.9481H231.357ZM184.367 49.4181C184.257 49.1581 184.207 48.7781 184.007 48.6681C183.847 48.5781 183.507 48.8081 183.247 48.8881C183.357 49.1481 183.417 49.5181 183.607 49.6281C183.767 49.7181 184.107 49.4981 184.357 49.4181H184.367ZM179.857 22.1481C179.577 22.2881 179.307 22.4381 179.027 22.5781C179.477 22.8181 179.907 23.1281 180.397 23.2581C180.627 23.3181 180.947 22.9981 181.217 22.8581C180.767 22.6181 180.307 22.3881 179.857 22.1481ZM479.057 44.3181C479.687 44.0981 480.317 43.8781 480.947 43.6681C480.727 43.3981 480.527 42.9281 480.287 42.9081C479.617 42.8581 478.817 42.8081 478.297 43.1281C477.757 43.4681 478.127 44.0681 479.047 44.3181H479.057ZM135.327 65.1181C136.307 65.3881 136.867 65.0581 136.787 64.1481C136.767 63.8981 136.307 63.5581 135.997 63.4781C135.047 63.2181 134.457 63.5781 134.517 64.4081C134.537 64.6581 135.047 64.8781 135.327 65.1081V65.1181ZM437.567 67.6881C436.737 68.0181 436.557 68.5381 437.117 69.1281C437.317 69.3381 437.817 69.5581 438.007 69.4581C438.477 69.1881 438.847 68.7481 439.257 68.3681C438.697 68.1381 438.127 67.9181 437.567 67.6881ZM232.657 52.1281C232.687 52.4181 232.607 52.8081 232.767 52.9581C232.967 53.1381 233.447 53.2781 233.637 53.1581C234.407 52.6981 234.347 52.1681 233.477 51.8481C233.267 51.7681 232.937 52.0281 232.657 52.1281ZM453.357 68.9281C453.637 69.0181 453.907 69.1081 454.187 69.1981C454.267 68.9681 454.337 68.7281 454.417 68.4981C454.147 68.4081 453.867 68.2681 453.597 68.2781C453.507 68.2781 453.437 68.6981 453.357 68.9281ZM514.007 89.7981L513.287 89.3481L513.167 90.0381L514.017 89.7981H514.007Z" fill="var(--fill-0, black)"/>
<path id="Vector_2" d="M419.797 89.3481C413.507 88.7081 407.217 88.0681 400.487 87.3881C404.567 85.2681 408.517 87.7881 412.187 86.3981C413.307 85.9781 414.317 85.4281 413.907 84.0681C413.727 83.4581 413.057 82.6781 412.467 82.5381C404.937 80.7081 397.257 80.8081 389.637 81.5181C387.777 81.6881 388.347 83.8081 389.537 85.0581C390.047 85.5881 391.097 86.4781 391.047 86.5481C389.677 88.3381 387.707 87.5681 385.987 87.4581C384.087 87.3481 381.747 86.8781 382.417 84.2681C383.397 80.4181 381.537 79.3181 378.337 79.3381C374.897 79.3581 371.457 79.6281 368.017 79.7981C367.497 81.9981 370.257 81.4581 370.477 82.9381C370.667 84.2381 370.147 85.2081 368.797 85.3881C363.717 86.0781 358.957 84.3281 354.097 83.3781C352.477 83.0581 353.067 81.7381 353.207 80.6381C353.607 77.4681 351.357 76.6381 348.997 76.5581C346.737 76.4781 344.197 76.7581 344.717 80.2381C344.897 81.4881 344.557 82.6881 343.177 82.8081C340.517 83.0381 337.817 83.2181 335.167 83.0181C332.947 82.8481 334.427 82.6981 335.087 81.7681C338.057 77.5781 337.907 77.4781 333.977 74.7781C341.437 74.0981 348.287 74.1681 354.927 75.2581C359.507 76.0081 364.017 76.2981 368.597 76.3681C375.497 76.4681 382.357 76.7281 389.177 78.0481C398.627 79.8681 408.247 79.3981 417.807 79.6081C423.517 79.7381 424.127 80.9081 421.347 86.4981C420.837 87.5181 420.187 88.4781 419.607 89.4681L419.817 89.3681L419.797 89.3481Z" fill="var(--fill-0, black)"/>
<path id="Vector_3" d="M419.587 89.4381C425.997 88.6581 432.397 87.8681 438.807 87.0881C439.977 86.9481 441.297 86.9181 441.507 88.3881C441.707 89.7081 440.587 90.4181 439.427 90.3581C432.917 90.0581 426.407 89.6481 419.847 89.3081C419.787 89.3381 419.587 89.4381 419.587 89.4381Z" fill="var(--fill-0, black)"/>
<path id="Vector_4" d="M432.227 82.0281H449.627C445.577 84.8281 442.737 83.6681 440.107 83.3181C437.657 82.9881 434.937 84.9181 432.227 82.0281Z" fill="var(--fill-0, black)"/>
<path id="Vector_5" d="M560.127 99.1181C561.097 98.7381 562.047 98.2681 563.047 98.0081C563.547 97.8781 564.147 98.1181 564.697 98.1981C564.207 98.3981 563.737 98.6781 563.227 98.7781C562.217 98.9681 561.197 99.0481 560.167 99.1681L560.117 99.1281L560.127 99.1181Z" fill="var(--fill-0, black)"/>
<path id="Vector_6" d="M514.817 82.8281C514.547 81.9881 514.087 81.7581 513.427 82.1381C513.607 82.3481 513.777 82.7081 513.987 82.7381C514.277 82.7881 514.617 82.5981 514.937 82.5281C514.937 82.5481 514.817 82.8181 514.817 82.8181V82.8281Z" fill="var(--fill-0, black)"/>
</g>
</svg>
