<svg preserveAspectRatio="none" width="100%" height="100%" overflow="visible" style="display: block;" viewBox="0 0 494.858 377.304" fill="none" xmlns="http://www.w3.org/2000/svg">
<g id="Layer_1-2">
<path id="Vector" d="M47.6999 106.191C51.2499 104.331 54.7899 102.461 58.3499 100.611C61.0799 99.2012 62.8099 96.9112 64.0799 94.2812C67.0699 91.3212 70.9799 90.2012 74.7199 88.7812C76.7299 86.5812 78.6999 84.4412 80.5999 82.3612C80.5299 80.6612 80.4599 79.2312 80.3999 77.7912C80.7499 77.1712 80.9599 76.4012 81.4699 75.9612C92.5399 66.3012 104.67 58.1212 117.25 50.5912C120.08 48.9012 122.89 47.1612 125.84 45.7112C130.22 43.5612 133.93 40.7612 135.77 36.5412C140.81 34.0812 145.37 31.7812 150 29.6412C152.31 28.5712 154.72 27.6612 157.15 26.8912C165.16 24.3512 173.26 22.0712 181.22 19.3812C185.68 17.8712 189.94 15.7412 195.04 13.5712C198.55 13.3312 202.92 13.0212 207.73 12.6912C210.52 10.8912 213.58 8.92122 216.31 7.16122C221.68 6.11122 226.7 5.13122 231.72 4.16122C237.11 3.12122 242.45 2.07122 248.04 2.61122C251.27 2.92122 254.62 2.41122 257.87 1.94122C275.34 -0.618777 292.92 -0.248777 310.41 0.791223C322.78 1.53122 335.16 3.39122 347.35 5.74122C366.47 9.43122 384.55 16.5112 402.15 24.7712C413.1 29.9112 423.73 35.6712 433.81 42.3012C439.58 46.1012 445.41 49.9412 450.46 54.8012C453.08 57.3212 456.23 59.2912 458.91 61.7612C466.19 68.4612 472.86 75.7812 478.91 83.6012C481.57 87.0312 483.47 91.0712 485.6 94.8912C487.45 98.2112 487.92 101.771 486.89 105.781C488 108.611 489.19 111.651 490.32 114.531C491.55 115.671 492.62 116.661 493.67 117.621C494.35 119.701 492.3 120.911 492.08 123.281C492.13 123.791 491.85 125.141 492.4 125.921C494.88 129.461 494.98 133.711 494.66 137.441C494.25 142.211 494.5 146.871 494.74 151.571C495.29 162.211 493.82 172.701 492.53 183.201C492.31 185.021 492.02 186.821 491.67 189.281C489.14 194.671 486.33 200.601 486.14 207.431C486.07 209.901 484.82 212.341 483.85 215.681C482.81 216.731 481.27 218.281 477.9 221.671C476.67 224.121 474.25 228.961 471.73 233.991C471.02 233.141 470.23 232.551 470.33 232.261C471.82 227.761 473.24 223.221 475.08 218.861C476.41 215.711 476.74 212.531 476.68 209.221C477.59 208.121 479.08 207.121 479.3 205.901C480.64 198.421 484.1 191.611 485.87 184.281C486.01 183.681 485.67 182.961 485.5 182.051C484.13 182.261 482.76 182.481 481.38 182.691C479.01 179.161 479.06 179.141 478.71 176.101C481.69 171.141 482.75 166.451 481.34 164.421C479.33 163.431 478.07 164.281 477.07 166.451C477.4 168.931 477.73 171.701 478.17 174.461C478.28 175.131 478.73 175.741 479.02 176.381C476.52 179.841 474.03 183.311 471.9 186.271C471.39 189.451 471 191.921 470.63 194.251C471.2 196.851 471.74 199.291 472.29 201.801C473.43 202.691 474.54 203.561 475.27 204.131V207.981C472.46 209.941 470.77 212.771 469.67 215.891C467.74 221.361 466.1 226.931 464.18 232.411C463.72 233.741 462.65 234.851 461.68 236.331C459.93 236.441 458.15 236.551 456.41 236.651C456.1 235.111 455.84 233.821 455.58 232.541C455 232.541 454.54 232.401 454.3 232.571C453.43 233.201 452.45 233.801 451.83 234.651C449.91 237.311 448.14 240.081 448.05 243.591C449.98 245.501 451.15 243.171 452.66 242.771C454.05 242.401 455.47 242.171 456.8 241.891C457.25 242.711 457.93 243.371 457.83 243.891C457.65 244.921 457.27 246.091 456.58 246.831C453.34 250.291 452.12 255.091 448.77 258.441C448.53 258.681 448.12 258.751 447.6 259.001C446.39 258.821 445 258.621 443.58 258.411C439.77 262.721 435.95 267.041 432.36 271.101C432.18 272.651 432.05 273.731 431.93 274.821L432.23 274.521C429.12 274.661 426.09 274.951 424.69 278.531C424.89 279.461 425.11 280.441 425.33 281.431L425.61 280.961C424.39 282.411 422.26 283.101 421.93 285.751H425.57L425.37 285.571C424.55 287.581 424.12 289.901 422.82 291.531C419.65 295.501 416.07 299.161 412.56 303.041C412.27 304.321 411.97 305.681 411.6 307.351C409.88 308.281 407.98 309.311 405.93 310.421C406.02 311.361 406.12 312.361 406.2 313.211C404.81 317.671 400.04 319.431 397.82 324.071C399.42 324.071 400.38 323.951 401.29 324.101C402.25 324.261 403.17 324.691 404.7 325.191C401.6 328.911 398.86 332.201 396.32 335.251C392.8 336.951 389.56 338.521 385.45 340.511C384.25 340.231 382.15 339.741 379.71 339.161C373.45 339.791 369.01 344.391 364.01 347.901C363.41 349.681 362.85 351.341 362.33 352.891C359.37 354.441 359.68 351.081 358.23 350.431C355.52 349.791 354.79 350.341 352.02 355.221C350.55 356.111 349 357.061 347.05 358.251C345.21 358.111 343.06 357.961 340.14 357.741C337.13 358.921 333.4 360.391 330.41 361.561C321.36 363.121 313.07 364.511 304.8 365.971C300.09 366.801 295.37 367.331 290.61 366.731C289.19 366.551 287.82 365.951 286.18 365.471C284.6 365.381 284.44 367.251 282.71 368.671C281.78 368.961 280.08 369.851 278.34 369.951C270.69 370.391 263.02 370.551 255.36 370.911C252.83 371.031 250.32 371.441 247.49 371.751C247.82 373.041 248.07 373.971 248.34 375.021C246.73 375.661 245.06 376.331 243.22 377.061C232.77 377.061 222.15 376.591 211.58 377.191C201 377.791 190.47 375.731 179.74 377.131C179.69 376.251 179.64 375.391 179.59 374.431C175.37 373.611 171.15 372.321 166.87 372.111C162.9 371.911 158.96 371.711 154.99 371.281C148.29 370.561 142.23 368.311 136.47 364.951C130.49 361.461 124.67 357.571 118.37 354.771C107.49 349.931 98.5899 342.391 89.4199 335.151C85.4099 331.981 81.4799 328.701 76.6699 324.791C74.4499 321.431 71.3499 317.331 68.9199 312.861C66.6899 308.751 62.7499 305.841 61.1899 301.231C59.2599 300.371 57.2699 299.481 54.7299 298.351C49.0799 291.341 43.1199 283.961 37.1699 276.571C35.5699 274.571 34.1099 272.451 32.4199 270.531C29.2599 266.931 26.3299 263.421 26.1999 258.121C26.1599 256.261 24.2399 254.321 22.8899 252.651C21.2999 250.671 19.3999 248.931 17.6399 247.091C13.8499 243.101 10.7799 238.641 8.39991 232.811C8.32991 227.281 6.90991 221.321 4.85991 215.371C1.75991 206.341 0.539915 196.891 0.0199145 187.371C-0.0400855 186.281 0.0499146 185.171 0.0999146 184.081C0.449915 176.641 4.16991 170.101 5.83991 162.981C7.51991 155.811 11.9499 149.941 16.3499 143.981C24.0099 133.591 33.1799 124.731 42.2499 115.721L41.8799 116.051C44.6599 114.371 47.4999 112.761 50.1899 110.951C50.9099 110.471 51.1999 109.361 51.7999 108.371C50.1999 107.521 48.9499 106.861 47.6999 106.201V106.191ZM337.25 283.061C342.35 284.911 345.31 282.281 347.41 278.081C347.74 277.411 347.46 276.431 347.46 274.771C344.24 277.041 341.62 278.771 339.15 280.701C338.38 281.301 338.04 282.441 337.5 283.331C336.23 283.761 334.85 284.011 333.72 284.681C332.98 285.131 332.24 286.161 334.04 287.521C335.06 286.051 337.45 285.761 337.26 283.061H337.25ZM113.56 63.8412C115.16 63.5212 116.96 63.5712 118.31 62.8112C120.14 61.7812 122.02 61.4412 123.99 61.1712C125.08 61.7012 126.16 62.2312 127.25 62.7712C133.39 61.3112 138.12 57.4312 143.13 54.0412C142.48 52.7012 142.03 51.7712 141.57 50.8412C142.44 48.8412 144.11 48.4112 146.07 48.5612C147.69 49.2912 149.32 50.0112 150.6 50.5812C156.67 49.3312 160.93 45.8912 165.98 42.7712C164.35 40.8112 163.02 39.2212 161.98 37.9812C157.42 37.3912 154.36 39.6612 151.08 41.1412C148.76 42.1912 146.68 44.0512 144.28 44.5612C136.22 46.2612 129.64 50.9612 122.62 54.7212C118.78 56.7712 115.56 59.7412 112.83 63.1912C103.75 65.6512 97.1199 71.9312 90.2299 77.7612C89.6399 78.2612 89.6499 79.4712 89.2099 80.9412C96.1799 80.8912 99.5799 75.0112 104.88 73.2112C105.63 73.4312 106.31 73.7412 107.01 73.8112C108.05 73.9112 109.1 73.8412 111.18 73.8412C111.16 70.3912 111.92 66.9712 113.55 63.8612L113.56 63.8412ZM163.36 226.161C160.61 226.701 159.1 228.851 157.4 230.801C155.97 235.231 153.46 239.581 156.18 244.551C163.38 254.151 172.75 258.261 184.87 255.361C188.84 252.091 193.6 249.821 195.91 244.981C195.63 244.521 195.51 244.091 195.24 243.911C188.85 239.731 181.96 236.311 176.13 231.281C175.86 231.051 175.5 230.911 175.17 230.771C174.83 230.631 174.48 230.531 174.13 230.421C172.71 230.691 171.29 230.961 169.93 231.221C166.86 230.351 165 228.051 163.05 225.871C164.35 225.691 165.79 226.541 167.15 225.081C166.44 224.431 165.74 223.801 165 223.131C164.38 224.271 163.87 225.211 163.37 226.151L163.36 226.161ZM407.95 96.5612C405.14 95.8312 403.91 92.3312 399.92 92.3212C400.09 94.1812 400.72 95.8912 401.06 97.5812C401.56 100.081 402.23 102.541 402.86 105.011C405.28 114.571 407.73 124.121 410.13 133.691C411.39 138.741 411.29 143.861 410.62 148.971C409.25 159.481 407.76 169.971 406.41 180.481C406.34 181.011 407.08 181.641 407.62 182.521C408.38 181.791 409.6 181.181 409.7 180.431C410.13 177.181 410.16 173.881 410.48 170.621C410.62 169.201 410.91 167.711 411.52 166.441C412.15 165.111 413.34 164.211 415.22 164.961C416.91 165.921 415.15 169.441 418.66 169.671C420.06 166.881 421.6 164.001 422.99 161.041C428.94 148.401 431 135.321 427.23 121.621C426.46 118.811 425.85 115.961 425.19 113.241C421.31 110.141 418.68 106.251 416.31 102.131C415.41 100.561 414.35 99.0212 412.27 98.8112C411.92 97.5012 411.57 96.1912 411.27 95.0412C409.41 94.5012 408.3 94.8212 407.96 96.5712L407.95 96.5612ZM364 319.081C367.21 318.321 370.3 317.391 373.12 315.481C389.59 304.291 404.08 290.911 417.16 275.961C422.19 270.221 427 264.291 433.52 260.061C434.66 259.321 435.33 257.841 436.09 256.861C435.79 255.461 435.57 254.411 435.29 253.091C437.29 249.421 439.08 245.421 442.27 242.221C443.54 240.951 444.62 239.371 445.38 237.741C451.12 225.501 457.49 213.521 461.77 200.641C465.34 189.901 469.7 179.401 470.88 167.971C471.93 157.761 472.39 147.561 471.34 136.611C468.61 138.651 466.41 140.351 464.96 142.531C463.8 144.271 463.39 146.591 462.99 148.721C462.58 150.871 462.68 153.101 462.4 155.281C461.99 158.551 461.81 161.911 460.9 165.041C458.25 174.151 455.39 183.211 452.4 192.221C451.13 196.031 449.36 199.681 447.76 203.381C446.29 206.801 444.08 209.651 441.14 211.981C436.8 215.431 433.33 219.591 431.11 224.891C430.98 226.551 430.84 228.341 430.65 230.731C429.1 232.171 427.33 233.931 425.43 235.541C424.09 236.671 422.57 237.591 421.23 238.531C420.39 242.811 420.32 246.931 417.58 250.241C413.62 255.021 410.1 260.211 405.84 264.691C402.69 268.001 400.99 271.941 399.07 275.871C395.61 279.181 392.18 282.461 388.6 285.881C388.01 287.791 387.36 289.881 386.82 291.641C380.77 300.531 371.14 305.321 364.8 313.551C364.53 314.541 364.24 315.601 363.96 316.661C362.87 316.701 361.56 316.341 360.74 316.831C352.91 321.421 345.15 326.131 337.42 330.891C337.12 331.081 337.3 332.041 337.25 332.671C339.26 333.241 340.78 332.061 342.3 331.281C349.11 327.811 355.87 324.241 362.62 320.651C363.2 320.341 363.56 319.601 364.02 319.071L364 319.081ZM37.4599 156.491L37.4399 156.691C39.5999 152.341 38.8299 147.361 40.2999 142.851C40.4099 142.521 39.5799 141.891 39.1999 141.421C36.8099 141.871 35.3699 143.541 33.9999 145.271C29.1999 151.331 25.2499 157.911 21.8999 164.881C14.7699 179.691 13.7299 195.351 16.8899 211.061C19.8499 225.821 25.3799 239.791 33.4799 252.701C38.3599 260.481 43.5499 268.011 49.0999 275.291C64.4799 295.481 81.8499 313.801 101.31 330.101C102.43 331.041 103.58 332.251 104.9 332.561C107.64 333.201 109.12 335.141 110.92 336.971C116.61 342.751 123.21 347.271 130.65 350.531C131.63 350.961 132.66 351.011 133.22 349.131C131.9 347.781 130.51 346.101 128.86 344.731C126.62 342.861 124.11 341.301 121.87 339.431C121.24 338.901 121.14 337.741 120.84 336.981C122.51 335.591 124.07 335.881 125.16 336.811C127.67 338.931 130.08 341.201 132.32 343.601C140.69 352.591 151.49 356.601 163.12 359.171C170.36 360.771 177.63 361.071 184.98 360.761C190.06 360.551 195.14 360.351 200.19 360.141C200.86 359.781 201.47 359.291 202.16 359.111C208.14 357.571 214.14 356.091 219.84 354.671C221.09 355.291 222.05 355.781 223.03 356.271C226.8 354.781 230.51 353.321 234.47 351.761C236.34 352.561 238.25 353.381 239.57 353.951C244.86 352.091 249.67 350.401 254.48 348.711C258.04 344.271 264.42 344.881 268.65 340.851C267.95 340.031 267.41 339.161 266.66 338.571C265.72 337.831 263.85 338.801 263.37 336.781C267.96 333.821 272.41 330.751 277.92 329.431C281.05 328.681 283.96 326.961 286.91 325.551C287.36 325.341 287.45 324.401 287.8 323.591C287.04 322.981 286.23 322.331 285.26 321.551C282.04 322.211 278.69 322.501 275.64 323.601C270.44 325.481 265.12 326.681 259.68 327.471C253.52 328.371 247.33 329.071 241.22 330.211C229.93 332.311 218.6 331.681 207.32 331.421C203.91 329.691 200.68 328.051 197.51 326.451C194.24 327.411 191.11 328.331 188.29 329.161C185.51 328.691 182.92 328.651 181.33 325.861C183.01 324.321 184.6 322.861 186.03 321.561H196.15C200.15 318.511 205.32 319.071 209.52 316.871C212.15 315.491 214.94 314.821 217.88 314.351C222.21 313.661 226.52 312.721 230.76 311.611C236.39 310.141 242.01 308.561 246.88 305.231C246.6 304.431 246.39 303.811 246.01 302.721C239.34 303.901 232.27 301.951 225.65 305.161C224.74 305.601 223.48 305.401 222.39 305.391C214.7 305.371 207 305.391 199.31 305.271C181.96 305.001 166.12 300.041 152.03 289.801C146.7 285.931 141.46 281.921 136.22 278.011C130.2 267.211 121.48 259.011 112.48 252.431C103.99 240.211 96.1699 228.731 89.7899 216.771C89.3999 214.221 89.2199 212.011 88.6999 209.891C88.2699 208.131 87.6599 206.331 86.7499 204.771C82.7999 198.031 81.1799 190.491 79.1599 183.341C77.4099 181.711 77.0499 179.111 74.0799 178.591C73.8599 180.371 73.2099 182.211 73.4999 183.891C74.6199 190.381 75.8299 196.871 77.4099 203.261C78.4599 207.501 80.1599 211.581 81.6299 215.721C82.9799 219.511 84.2299 223.351 85.8599 227.021C90.4699 237.401 95.4499 247.601 101.14 257.451C104.63 263.481 107.97 269.561 112.26 275.091C113.23 276.341 114.97 277.751 113.51 280.251C110.41 278.821 108.13 276.351 106.97 273.481C105.69 270.321 103.49 267.931 101.8 265.151C93.4399 251.401 84.5399 237.951 77.4199 223.481C75.4899 219.561 73.9399 215.461 71.5999 210.011C71.2799 209.611 68.6999 209.041 68.3999 205.971C69.4999 203.251 70.0599 200.071 68.3399 197.091C66.4599 195.741 64.7099 194.491 62.8199 193.131C62.7299 187.451 62.6099 181.991 62.5899 176.521C62.5899 174.691 62.7299 172.851 62.9599 171.041C63.1399 169.601 63.5599 168.191 63.8899 166.771C64.2199 165.371 64.7699 163.991 64.8699 162.581C65.6699 151.701 69.6799 142.001 75.6399 133.031C78.4799 128.771 81.5199 124.641 84.1599 120.891C85.2099 116.761 86.2499 113.241 86.9399 109.661C87.2499 108.041 86.2599 106.971 84.3699 107.371C80.4999 109.731 79.4199 114.341 76.5599 117.671C74.6799 116.541 73.1399 115.621 71.4999 114.631C65.3199 115.721 63.1199 121.051 60.1299 125.311C59.5499 128.401 59.0099 131.231 58.5299 134.081C58.4899 134.291 58.9699 134.591 59.2299 134.871C61.9899 134.941 62.3799 132.261 63.8399 130.831C65.1799 129.521 65.3399 129.471 67.2299 131.041C64.4799 139.651 59.7899 147.631 57.8099 156.601C55.2499 159.941 54.7499 163.971 53.9799 167.931C53.3499 171.151 52.4899 174.331 51.5899 178.121C52.3199 182.251 52.7199 186.921 51.8699 191.721C51.3799 194.541 51.5799 197.641 52.1899 200.461C53.7499 207.601 54.9799 214.821 57.6899 221.701C59.9599 227.451 61.6399 233.441 63.9199 240.381C64.4699 241.221 65.8999 242.951 66.7899 244.921C67.8299 247.231 68.4099 249.761 68.6399 250.501C71.8599 254.841 74.4899 257.531 76.1199 260.731C80.2599 268.861 86.3499 275.961 88.9199 284.961C89.4899 286.941 91.3299 288.561 91.7799 289.201C93.2099 294.761 94.2799 298.961 95.3599 303.171L95.6099 302.931C93.0299 302.861 91.8899 300.821 90.6799 299.071C88.3899 295.771 86.3599 292.301 84.0699 288.991C81.1599 284.791 78.3299 280.511 75.0599 276.611C72.5999 273.681 72.0699 269.951 70.1299 266.921C67.9799 263.561 65.2099 260.601 62.9899 257.271C61.7999 255.501 61.2499 253.311 60.3299 251.351C59.4199 249.391 58.4199 247.471 57.5999 245.831C55.3499 244.511 53.4899 243.421 51.4699 242.241C50.2599 238.861 49.0299 235.441 47.8999 232.291C48.5499 229.571 50.1899 227.161 47.7599 224.841C46.4999 224.221 45.1999 223.581 44.1099 223.041C40.0399 216.161 37.7599 208.871 36.3599 201.291C36.1799 200.311 36.5599 199.231 36.6799 198.251C37.8699 198.131 38.8099 198.041 40.1599 197.911C37.7599 187.071 40.7799 176.631 41.2299 166.081C41.3399 163.581 42.1299 160.991 43.1399 158.671C47.5099 148.641 50.2599 137.961 55.3599 128.231C55.5699 127.831 54.9199 126.981 54.6599 126.331C51.7999 126.631 50.2199 128.601 49.1199 130.911C45.6599 138.151 41.9799 145.301 39.8699 153.121C39.5299 154.391 38.2499 155.401 37.4099 156.541L37.4599 156.491ZM385.7 149.371C380.18 140.591 374.75 131.181 364.35 125.471C362.6 129.891 360.46 133.811 359.51 138.001C357.09 148.651 354.28 159.211 351.8 169.841C351.55 170.901 351.24 171.991 351.24 173.071C351.23 181.621 348.11 189.451 345.65 197.441C344.9 199.871 344.02 202.281 343.46 204.751C343.25 205.681 343.78 206.781 344.06 208.261C345.67 207.731 347.12 207.521 348.3 206.831C357.77 201.371 367.23 195.891 375.22 188.281C377.27 184.871 379.32 181.461 381.65 177.591V165.301C384.15 160.091 388.55 155.831 385.71 149.381L385.7 149.371ZM183.6 166.121C191.91 175.381 202.21 179.881 213 183.521C213.45 183.671 214.18 182.991 215.13 182.521C214.44 176.201 211.07 170.051 212.66 163.341C214.18 156.961 214.24 150.321 216.69 144.091C219.15 137.841 223.4 132.971 227.11 128.161C229.75 127.601 231.79 127.161 234.07 126.681C230.81 122.621 225.28 124.081 217.22 130.651C215.53 130.301 213.79 129.951 212.13 129.611C201.8 137.761 190.9 151.641 183.59 166.111L183.6 166.121ZM224.46 211.411C215.42 210.381 206.5 207.361 197.8 203.501C189.06 199.611 181.81 193.361 173.82 188.571C171.34 190.438 170 193.185 169.8 196.811C182.65 211.001 203.04 222.531 217.6 223.721C221.22 221.361 223.44 217.591 225.97 214.311C225.45 213.301 225.12 212.681 224.47 211.411H224.46ZM371.91 27.3012C374.51 28.7912 376.32 30.0612 378.31 30.9212C387.39 34.8312 396.06 39.5212 404.57 44.5412C408.98 47.1412 413.16 50.1512 417.71 52.4512C422.33 54.7912 426.36 57.8112 430.43 60.9412C435.11 64.5412 439.01 68.8612 443.13 72.9812C445.71 75.5612 448.21 78.2312 450.86 80.7412C451.6 81.4412 452.75 81.6712 453.53 79.8012C447.07 67.2812 438.48 56.0712 427.51 46.6912C423.57 43.3212 419.21 40.7312 414.34 38.9612C408.85 36.9712 403.26 35.1712 397.91 32.8512C392.2 30.3812 386.21 29.0512 380.22 27.6312C379.88 27.5512 379.57 27.3012 379.42 27.2212C378.8 26.1812 378.27 25.2912 377.87 24.6012C375.43 23.7712 374.23 25.2912 371.92 27.2912L371.91 27.3012ZM203.86 273.081C203.49 274.901 204.82 275.741 206.09 276.061C212.09 277.571 218.05 279.201 224.25 279.941C235.45 281.271 244.06 280.011 255.22 274.641C257.14 270.621 255.66 266.241 255.59 261.941C255.56 260.371 254.53 259.311 252.91 258.781C249.23 258.831 246.06 260.871 242.64 262.061C230.25 266.371 218.14 271.661 204.8 272.511C204.48 272.531 204.18 272.881 203.87 273.081H203.86ZM127.03 170.451C126.31 171.241 125.35 171.861 125.01 172.721C121.95 180.571 122.16 188.611 124.96 196.341C127.82 204.231 131.44 211.841 134.92 219.491C136.11 222.111 137.72 224.631 140.56 225.831C141.29 225.481 141.91 225.191 142.82 224.761C144.3 219.271 144.75 213.511 144.46 207.971C141.58 202.911 138.89 198.181 136.13 193.321C134.95 193.091 133.55 192.821 131.99 192.511C131.05 190.151 129.9 187.851 129.23 185.431C128.56 182.991 128.43 180.401 127.93 177.911C127.46 175.551 129.3 172.981 127.01 170.471L127.03 170.451ZM266.96 257.741C265.69 261.251 265.77 264.531 266.06 267.801C266.19 269.271 266.69 270.641 268.38 271.431C273.06 271.101 277.29 269.001 281.42 266.711C285.23 264.591 289.09 262.501 292.64 259.991C294.34 258.791 295.51 256.741 296.64 254.901C297.14 254.091 296.96 252.861 297.21 250.891C288.54 251.431 280.33 252.441 272.21 254.211C270.35 255.461 268.55 256.671 266.96 257.751V257.741ZM412.2 201.221C418.67 193.751 421.89 186.811 425.18 179.921C431.51 166.651 435.87 152.761 438.02 138.191C438.82 132.751 438.52 125.891 437.22 119.561C437.06 120.791 436.78 121.871 436.79 122.951C436.84 132.951 434.5 142.531 431.48 151.931C427.56 164.131 422.76 175.971 416.28 187.081C414.82 189.591 413.6 192.281 412.58 195.001C412.11 196.271 412.37 197.811 412.21 201.211L412.2 201.221ZM143.79 156.021C146.54 165.861 148.65 170.851 152.66 176.521C153.18 177.251 154.44 177.461 155.5 177.981C161.14 172.251 159.46 166.871 155.04 161.481V146.521C154.01 146.351 153.35 146.241 152.45 146.091C149.19 148.741 145.87 151.501 143.79 156.031V156.021ZM258.45 228.401C263.37 223.761 263.84 217.891 265.22 212.591C264.54 211.751 264.11 211.211 263.39 210.321C261.88 210.871 260.25 211.521 258.58 212.061C256.55 212.721 254.49 213.281 252.36 213.911C248.68 218.231 243.84 221.661 241.88 227.411C248.7 229.741 250.81 229.871 258.44 228.391L258.45 228.401ZM269.06 158.601C261.24 155.541 253.86 154.341 246.2 155.961C246.11 156.881 246.04 157.541 245.97 158.201C254.17 163.371 260.26 164.161 269.44 161.251C269.34 160.571 269.25 159.881 269.06 158.601ZM178.08 135.191C173.2 135.091 169.35 137.101 166.4 140.931C167.52 144.251 167.13 147.931 171.4 149.241C174.91 145.751 177.26 141.421 179.8 137.401C179.07 136.461 178.66 135.931 178.08 135.191ZM381.98 238.571C382.96 239.825 384.19 240.368 385.67 240.201C386.89 237.511 388.19 234.651 389.45 231.771C389.54 231.561 389.25 231.191 389.14 230.891C388.86 230.841 388.45 230.641 388.33 230.751C386.07 232.921 383.54 234.891 381.98 238.571ZM294.82 318.041C300.92 317.841 302.03 317.551 306.04 314.841C306.35 314.631 306.17 313.671 306.23 312.801C301.88 313.241 298.27 314.981 294.82 318.041ZM178.59 30.8412C174.44 32.4412 170.99 33.3512 167.81 35.2512C169.24 36.7512 170.17 36.6012 179.14 33.7512C179.02 33.0912 178.89 32.4312 178.59 30.8412ZM310.45 161.161C314.26 159.121 316.83 157.901 317.88 154.991C317.75 154.281 317.68 153.601 317.48 152.951C317.39 152.661 317.05 152.451 316.83 152.201C311.97 156.181 312.05 156.241 310.45 161.161ZM251.66 304.041C255.733 303.141 257.84 301.675 257.98 299.641C255.31 299.111 253.02 299.951 250.93 301.561C251.12 302.201 251.3 302.821 251.66 304.041ZM87.6199 150.231C90.8199 146.861 92.1099 144.201 90.0099 140.231C88.1599 143.201 85.9999 145.521 87.6199 150.231ZM89.3899 162.141C88.9966 165.221 89.3966 167.741 90.5899 169.701C92.5699 165.331 92.4099 164.301 89.3899 162.141ZM316.82 213.191C312.92 215.231 310.95 217.671 309.4 220.821C310.4 221.141 311.33 221.441 312.15 221.711C316.31 218.631 316.28 218.611 316.82 213.191ZM365.48 260.471C363.29 262.021 361.59 263.221 360.03 264.321C359.96 264.921 359.76 265.401 359.92 265.591C360.27 266.041 360.8 266.351 361.27 266.721C363.75 265.711 365.2 263.951 365.48 260.461V260.471ZM391.35 156.381C389.52 158.661 389.71 160.991 391.1 163.381C392.487 160.601 392.57 158.268 391.35 156.381ZM421.5 223.181C421.66 222.891 421.82 222.601 421.98 222.311C421.67 222.261 421.33 222.091 421.06 222.171C420.1 222.471 419.9 223.011 420.56 223.521C420.7 223.631 421.17 223.301 421.49 223.181H421.5ZM364.47 22.1112C365.69 23.3512 366.88 24.0212 367.49 22.1112H364.47ZM228.49 157.851C227.7 158.231 226.85 158.641 226.07 159.011C226.17 160.941 227.13 161.621 228.74 161.581C229.73 160.341 229.86 159.141 228.48 157.851H228.49ZM289.41 204.901C285.01 204.861 284.87 205.041 286.17 207.651C286.93 207.011 287.66 206.391 289.41 204.901ZM303.18 14.0412L303.99 13.8212L303.39 13.3912L303.18 14.0412ZM379.14 244.451C378.78 244.891 378.42 245.341 378.06 245.781C378.3 245.971 378.63 246.381 378.76 246.321C379.3 246.081 379.79 245.701 380.3 245.381C379.92 245.071 379.54 244.761 379.15 244.451H379.14ZM356.82 270.661C356.09 270.061 355.6 269.361 355.27 269.431C354.29 269.631 353.25 270.141 353.36 271.371C353.39 271.741 354.37 272.411 354.62 272.291C355.41 271.931 356.05 271.261 356.82 270.661ZM189.11 282.601C188.75 282.091 188.48 281.331 188 281.141C187.53 280.961 186.84 281.381 186.25 281.541C186.56 282.051 186.79 282.861 187.21 282.981C187.76 283.141 188.47 282.751 189.11 282.591V282.601ZM280.85 346.601C279.61 344.831 278.66 344.941 277.47 346.601H280.85ZM186.79 29.7812C187.11 29.6512 187.44 29.5112 187.76 29.3812C187.49 29.1912 187.23 28.8612 186.94 28.8312C186.63 28.8012 186.3 29.0612 185.98 29.1912C186.25 29.3812 186.52 29.5812 186.8 29.7712L186.79 29.7812ZM314.59 14.1012L314.48 13.6112L313.89 13.8812L314.59 14.1012ZM443.97 180.311C443.8 180.851 443.6 181.391 443.49 181.951C443.48 182.021 443.92 182.181 444.16 182.301C444.32 181.761 444.51 181.231 444.61 180.681C444.62 180.601 444.2 180.441 443.97 180.311Z" fill="var(--fill-0, black)"/>
<path id="Vector_2" d="M436.07 274.691C434.58 280.361 431.05 284.011 425.38 285.541L425.58 285.721C425.59 284.121 425.6 282.531 425.62 280.931L425.34 281.401C429.63 281.091 430.73 277.581 432.24 274.491L431.94 274.791C433.41 274.841 434.88 274.891 436.35 274.941L436.06 274.691H436.07Z" fill="var(--fill-0, black)"/>
<path id="Vector_3" d="M459.01 251.721C460.25 247.521 460.82 245.001 463.5 243.811C465.12 245.251 464.31 246.941 463.91 249.111C462.99 249.601 461.77 250.251 459.01 251.721Z" fill="var(--fill-0, black)"/>
<path id="Vector_4" d="M44.8099 109.621C43.2999 111.521 41.8899 113.461 41.8799 116.051L42.2499 115.721C40.9299 115.411 39.4099 115.761 38.2499 114.351C39.4299 111.431 42.0299 110.411 44.7999 109.621H44.8099Z" fill="var(--fill-0, black)"/>
<path id="Vector_5" d="M436.35 274.941C437.38 273.361 436.72 270.731 439.4 270.061C439.51 272.551 437.69 273.551 436.06 274.691L436.35 274.941Z" fill="var(--fill-0, black)"/>
<path id="Vector_6" d="M124 61.1712C124.47 59.2412 125.43 58.0012 127.9 58.4512C127.68 59.9412 127.47 61.3512 127.26 62.7612C126.17 62.2312 125.09 61.7012 124 61.1612V61.1712Z" fill="var(--fill-0, black)"/>
<path id="Vector_7" d="M116.37 331.691C113.91 331.531 113.01 329.571 111.88 327.861C112.18 327.291 112.34 326.451 112.81 326.221C113.31 325.971 114.24 326.081 114.74 326.411C116.7 327.681 117.74 329.341 116.37 331.691Z" fill="var(--fill-0, black)"/>
<path id="Vector_8" d="M122.37 290.931C120.05 290.771 119.03 289.761 118.43 288.421C118.22 287.961 118.67 287.181 118.9 286.581C118.92 286.521 119.59 286.581 119.85 286.761C121.05 287.591 122.22 288.461 122.37 290.931Z" fill="var(--fill-0, black)"/>
<path id="Vector_9" d="M95.3999 303.121C96.1899 303.791 97.0599 304.391 97.7199 305.171C98.0499 305.551 98.0099 306.251 98.1499 306.881C95.6299 306.511 95.6499 304.691 95.6399 302.881L95.3899 303.121H95.3999Z" fill="var(--fill-0, black)"/>
<path id="Vector_10" d="M37.4599 156.491V161.611C37.3299 161.611 37.2099 161.601 37.0799 161.591C37.1999 159.961 37.3199 158.321 37.4399 156.691L37.4599 156.491Z" fill="var(--fill-0, black)"/>
<path id="Vector_11" d="M129.18 295.571C129.38 296.101 129.59 296.621 129.79 297.151C129.57 297.211 129.18 297.371 129.15 297.321C128.87 296.831 128.64 296.311 128.4 295.801C128.66 295.721 128.92 295.651 129.17 295.571H129.18Z" fill="var(--fill-0, black)"/>
<path id="Vector_12" d="M407.73 96.2312C409.3 97.0112 410.86 97.8012 412.43 98.5812C409.02 100.731 408.98 100.711 407.73 96.2312Z" fill="var(--fill-0, black)"/>
</g>
</svg>
