<svg preserveAspectRatio="none" width="100%" height="100%" overflow="visible" style="display: block;" viewBox="0 0 624.92 71.2918" fill="none" xmlns="http://www.w3.org/2000/svg">
<g id="Layer_1-2">
<path id="Vector" d="M319.227 63.323C289.637 64.853 260.067 66.863 230.467 67.783C203.997 68.603 177.507 69.463 150.987 68.403C139.957 67.963 128.877 68.863 117.827 68.943C88.1465 69.173 58.4565 69.303 28.7765 69.423C24.4165 69.443 20.0565 69.073 15.8465 70.593C11.2665 72.243 7.32652 70.793 3.61652 68.103C0.296521 65.683 -0.833479 63.713 0.626521 60.043C3.96652 51.663 5.59652 42.743 10.0265 34.623C13.9265 27.453 15.8365 19.183 18.5565 11.383C20.5465 5.68301 23.3965 3.53301 29.1665 5.01301C36.9665 7.01301 44.9065 6.91301 52.7665 7.09301C74.1265 7.59301 95.4865 7.48301 116.847 6.05301C129.837 5.18301 142.917 5.62301 155.967 5.47301C179.307 5.21301 202.647 5.17301 225.967 4.61301C243.767 4.19301 261.547 2.99301 279.337 2.37301C300.657 1.62301 321.977 0.713014 343.307 0.663014C354.717 0.633014 366.107 1.42301 377.507 0.103014C379.427 -0.116986 381.537 0.00301391 383.367 0.583014C389.597 2.54301 395.707 3.24301 401.917 0.533014C402.937 0.0930139 404.377 -0.0669861 405.397 0.283014C415.867 3.84301 426.627 0.393014 437.207 1.73301C444.237 2.62301 451.417 1.95301 458.267 4.57301C461.667 5.87301 465.287 5.38301 468.737 4.07301C473.767 2.15301 478.747 2.43301 483.797 4.22301C485.987 4.99301 488.427 5.60301 490.707 5.46301C508.067 4.33301 525.457 7.95301 542.797 5.09301C551.417 6.58301 560.107 6.32301 568.797 6.15301C573.157 6.06301 577.487 6.27301 581.487 3.95301C583.977 2.50301 586.737 2.54301 589.557 3.15301C596.547 4.68301 603.477 5.17301 610.687 3.83301C617.157 2.63301 618.737 4.18301 620.867 10.673C621.357 12.173 622.117 13.663 622.237 15.193C623.207 28.173 624.107 41.163 624.907 54.153C625.117 57.583 622.837 60.323 619.537 60.953C618.007 61.243 616.397 61.153 614.827 61.203C600.987 61.643 587.137 62.463 573.297 62.433C534.907 62.343 496.517 61.783 458.127 61.643C439.927 61.573 421.717 62.063 403.517 62.253C394.417 62.343 385.317 62.173 376.227 62.363C357.237 62.763 338.247 63.323 319.257 63.813C319.257 63.653 319.247 63.493 319.237 63.333L319.227 63.323ZM395.357 22.133C395.287 22.013 395.217 21.893 395.147 21.763C393.317 21.813 391.477 21.863 389.647 21.903C389.647 22.023 389.647 22.153 389.657 22.273C391.557 22.223 393.457 22.173 395.357 22.123V22.133ZM494.957 21.373C494.257 21.393 493.587 21.443 492.917 21.423C491.607 21.373 491.517 21.593 492.717 21.903C493.367 22.073 494.087 21.973 494.777 21.953C494.837 21.953 494.887 21.623 494.957 21.383V21.373ZM429.317 21.553C429.447 21.343 429.587 21.123 429.727 20.903C429.397 20.773 429.057 20.513 428.747 20.553C427.617 20.683 427.427 21.113 428.247 21.563C428.517 21.713 428.947 21.563 429.317 21.563V21.553Z" fill="var(--fill-0, black)"/>
</g>
</svg>
