<svg preserveAspectRatio="none" width="100%" height="100%" overflow="visible" style="display: block;" viewBox="0 0 846.788 103.005" fill="none" xmlns="http://www.w3.org/2000/svg">
<g id="Layer_1-2">
<path id="Vector" d="M377.577 77.8573C371.687 80.0673 365.847 82.4573 359.397 82.5873C359.007 82.5873 358.367 83.7273 358.337 84.3573C358.307 85.0473 358.667 85.9373 359.157 86.4473C360.377 87.6973 362.057 87.5373 363.607 87.3373C371.057 86.3473 378.437 85.0173 385.437 82.0873C388.327 80.8773 391.297 79.8473 394.287 78.9073C394.847 78.7273 395.907 79.1973 396.287 79.7073C396.557 80.0673 396.287 81.3573 395.877 81.5973C393.517 82.9873 391.147 84.4973 388.587 85.3873C379.627 88.4973 370.467 90.9673 361.077 92.3273C353.587 93.4173 346.107 93.4973 338.827 90.7273C330.647 87.6173 322.827 88.2173 314.747 92.0273C307.287 95.5473 299.197 97.7473 291.387 100.547C281.727 104.007 272.167 103.527 262.297 100.887C250.637 97.7673 240.557 92.5073 230.787 85.2273C222.897 79.3473 214.127 73.0773 203.087 73.3073C199.137 73.3873 195.217 73.3373 191.327 74.3673C186.837 75.5573 183.257 77.5373 182.257 82.5573C182.027 83.7073 181.557 84.8373 181.047 85.8973C178.967 90.2273 176.057 91.9773 171.467 90.4873C163.227 87.8073 154.407 86.3573 147.107 81.4173C141.577 77.6773 136.287 77.5473 130.327 79.7273C126.407 81.1673 122.537 83.8973 117.957 81.2073C116.557 80.3873 114.927 81.2073 113.497 82.0173C99.4869 89.9373 84.1169 90.2573 68.6469 89.9773C67.4869 89.9573 66.2669 89.1173 65.1769 89.2973C57.8669 90.4773 53.0869 87.5373 50.3169 80.7873C49.7469 79.3973 48.8169 77.6873 47.5869 77.1273C40.5069 73.9073 33.8869 68.9973 25.2669 71.1273C22.2369 71.8773 18.9069 72.3873 15.8869 71.9273C12.7569 71.4573 9.44689 75.1373 7.05689 72.1573C5.20689 69.8473 4.55689 66.4373 3.76689 63.4173C1.15689 53.4273 0.816887 43.1173 0.0168873 32.8873C-0.143113 30.7973 0.836887 28.9473 2.82689 28.0673C9.31689 25.2073 15.4369 21.3573 22.5369 20.0773C25.6169 19.5273 28.9169 18.9973 31.9269 19.5173C42.1169 21.2773 52.1569 24.0273 59.9969 31.1973C73.2569 43.3173 87.7569 43.0473 102.967 36.1473C109.067 33.3773 115.017 30.1173 120.647 26.4773C132.767 18.6173 145.367 19.0373 158.117 23.9773C163.087 25.9073 167.997 26.3073 173.167 26.5373C178.077 26.7573 182.497 26.1673 186.747 23.4873C203.177 13.1273 219.257 16.4673 235.007 25.2073C239.837 27.8873 244.307 31.2173 249.027 34.1073C264.117 43.3473 279.917 45.7873 296.617 38.7773C303.547 35.8673 310.607 33.2173 317.317 29.8473C325.377 25.8073 333.467 25.8173 341.387 29.1573C352.247 33.7373 363.177 32.6473 374.037 30.2973C381.727 28.6273 389.397 26.3173 396.657 23.2773C415.707 15.2773 435.017 14.4173 454.677 20.0973C462.617 22.3873 470.307 21.7773 478.037 19.5973C484.507 17.7773 491.037 16.1273 497.387 13.9473C502.997 12.0173 508.287 12.7673 513.627 14.5773C515.117 15.0873 516.567 15.7373 518.017 16.3673C525.377 19.5673 532.577 19.0873 539.837 15.8473C545.977 13.1073 552.387 10.9773 558.427 8.04731C564.417 5.13731 570.187 5.39731 575.197 9.18731C584.057 15.8673 593.447 15.6473 603.427 13.0273C609.537 11.4273 615.747 10.2273 621.887 8.74731C627.737 7.33731 633.617 6.26731 639.287 9.07731C653.137 15.9373 667.207 13.8873 680.807 9.14731C687.997 6.64731 693.777 6.97731 699.757 11.1273C706.887 16.0673 714.817 17.7473 723.417 17.1873C734.497 16.4673 745.527 15.4573 756.267 12.5873C763.597 10.6273 770.897 9.07731 778.517 10.2273C782.697 10.8573 786.357 9.55731 789.677 7.20731C799.677 0.107312 810.557 -1.50269 822.417 1.30731C827.387 2.48731 832.607 2.62731 837.677 3.42731C840.387 3.85731 843.057 4.62731 845.677 5.43731C846.207 5.59731 846.757 6.60731 846.787 7.24731C846.817 7.89731 846.357 8.97731 845.847 9.16731C842.547 10.4173 839.177 11.4773 834.357 13.0873C838.457 15.0873 841.417 16.5273 844.367 17.9673C846.277 20.1873 844.597 22.4973 844.497 24.7573C844.327 28.2673 842.877 30.5473 839.127 31.5173C834.617 32.6873 830.657 35.5773 825.517 34.7973C822.587 34.3473 820.297 36.2473 819.277 39.2073C820.947 42.3073 827.617 39.9973 826.567 44.9273C825.887 48.1073 821.437 47.8673 818.237 47.9873C813.517 48.1573 809.667 49.7373 808.467 54.8673C807.997 56.8773 806.527 57.2173 804.967 57.1973C796.717 57.0673 788.747 60.7673 780.347 58.8773C778.937 58.5573 776.927 58.9373 775.777 59.7873C769.867 64.1773 763.717 62.9673 757.807 60.4473C753.497 58.6073 749.457 58.7773 745.117 59.6573C732.797 62.1773 720.467 64.6973 708.087 66.9173C701.987 68.0073 696.507 65.2773 691.057 62.9973C688.287 64.5773 693.327 67.9173 690.097 68.6773C685.747 69.6873 681.337 69.1173 678.697 64.5873C678.307 63.9073 677.937 63.1573 677.817 62.3973C677.587 60.9273 676.477 60.1773 675.387 60.3573C666.787 61.7573 657.957 59.5973 649.467 61.9773C645.887 62.9873 642.497 64.6573 638.327 63.9073C639.687 67.5373 642.987 66.7873 644.367 68.8073C639.147 74.2373 635.057 75.9073 630.737 72.2373C624.427 66.8773 617.967 67.2073 610.847 68.8373C608.677 69.3373 606.357 69.9773 603.967 68.2373C607.287 65.2573 611.057 64.3473 614.997 63.9173C616.597 63.7473 618.137 63.6173 619.287 62.3273C620.127 61.3873 620.587 60.2573 620.007 59.1073C619.727 58.5573 618.727 57.8373 618.287 57.9673C613.157 59.4973 607.137 57.6873 602.767 61.9373C601.887 62.7873 601.207 63.8773 599.887 63.4873C592.707 61.3573 586.807 69.7373 579.437 65.9673C579.137 66.1873 578.867 66.4573 578.547 66.5473C578.317 66.6173 578.017 66.4573 577.747 66.3973C578.347 66.3173 578.947 66.2373 579.537 66.1573C580.367 68.1573 581.897 69.2373 584.007 69.3173C587.117 69.4373 590.227 69.3773 593.337 69.5273C593.897 69.5573 594.817 70.2073 594.877 70.6673C594.967 71.2873 594.557 72.4473 594.087 72.6173C589.347 74.3373 584.637 76.4273 579.727 77.3373C576.387 77.9573 572.377 76.9573 570.037 74.2173C566.737 70.3473 562.137 68.0573 559.077 63.8073C555.267 58.5073 552.867 58.6473 547.497 62.9173C546.607 63.6273 546.017 64.7073 545.287 65.6273L545.347 65.7573C544.137 64.7373 546.897 64.8273 545.327 64.5973C540.087 63.8373 536.367 65.1973 535.447 69.2473C534.607 72.9373 533.417 75.8173 529.987 77.6873C525.857 79.9373 521.657 79.9173 517.397 78.4673C514.417 77.4573 511.537 76.1473 508.587 75.0173C505.807 73.9473 504.117 71.9373 503.217 69.1373C502.647 67.3673 502.797 64.9773 500.237 64.6073C497.517 64.2173 494.337 63.4073 492.377 65.7473C490.147 68.4073 485.877 69.1473 485.317 73.2373C485.047 75.2473 483.777 75.4873 482.107 75.8673C475.237 77.4473 468.447 79.3773 461.567 80.9073C455.997 82.1473 450.427 81.2773 445.407 78.8273C440.267 76.3173 435.087 75.3073 429.427 75.6573C425.937 75.8673 421.917 76.3273 419.427 73.3073C418.137 71.7373 419.467 68.6273 415.467 68.4773C410.577 68.2973 406.037 68.7873 401.727 71.0473C399.987 71.9673 398.187 72.8773 396.687 74.1273C391.617 78.3273 385.367 78.1973 379.387 79.0273C378.767 79.1073 378.027 78.2973 377.377 77.9173C377.407 77.9273 377.967 78.3673 377.967 78.3673L377.577 77.8973V77.8573ZM235.877 80.2673L236.017 81.1073V80.5573L235.497 80.4073C235.497 80.4073 235.877 80.2273 235.877 80.2573V80.2673ZM228.827 75.6973C229.417 76.2073 228.987 76.6773 228.767 76.3373C227.927 75.0073 227.907 77.0173 229.137 76.0273C228.227 76.2473 227.847 76.0373 227.997 75.3873C228.277 75.4973 228.567 75.6073 228.817 75.6973H228.827ZM299.677 94.6773C299.597 91.8573 302.327 92.6773 303.567 91.6073C304.047 91.1973 306.147 90.8773 304.417 89.5373C304.167 89.3373 303.157 90.1173 302.497 90.4473C300.737 91.3173 302.137 94.2773 299.667 94.6773C296.347 93.2373 293.057 92.7973 289.837 94.9373C287.967 95.2473 286.087 95.4673 284.247 95.8973C282.987 96.1973 281.087 94.6573 280.117 97.5273C283.147 97.1373 285.737 96.8173 288.307 96.4373C288.607 96.3973 288.927 96.0573 289.127 95.7773C289.337 95.4773 289.427 95.0873 289.617 94.7673C292.967 94.7373 296.327 94.6973 299.677 94.6673V94.6773ZM250.087 91.1773C249.817 90.7173 249.547 90.2673 249.287 89.8073C249.627 90.1873 249.967 90.5573 250.297 90.9373C256.087 93.0273 261.867 95.1473 267.697 97.1273C268.207 97.2973 269.017 96.5873 271.547 95.4473C263.267 94.1973 257.487 89.5873 250.087 91.1773ZM723.887 55.7373C730.597 56.2173 736.457 52.8473 742.797 51.6073C735.897 49.7873 729.547 50.5373 724.107 55.5873L723.337 55.2573L723.887 55.7373ZM441.687 70.5973C440.197 68.9073 438.907 67.0873 437.237 65.7473C436.607 65.2373 434.847 65.4773 434.037 66.0173C433.187 66.5873 432.547 67.8873 432.377 68.9573C432.157 70.3473 433.427 70.9273 434.607 71.1773C436.877 71.6773 439.177 72.0473 441.697 70.5973H441.687ZM460.597 75.0473C461.657 76.6673 463.337 76.4273 464.867 76.3173C465.787 76.2473 467.247 76.5473 467.157 74.9473C467.137 74.6573 465.827 74.2773 465.087 74.2273C463.547 74.1273 461.907 73.7773 460.597 75.0473ZM208.067 70.3073C209.167 70.6273 209.847 70.9273 210.557 71.0173C211.277 71.1073 212.157 71.2073 212.717 70.8773C213.277 70.5473 212.807 69.9573 211.747 69.9973C210.647 70.0373 209.557 70.1773 208.067 70.3073ZM344.867 83.8473C344.197 84.1073 343.537 84.3773 342.867 84.6373C343.467 84.9573 344.027 85.3473 344.667 85.5473C344.947 85.6373 345.457 85.4073 345.687 85.1673C346.257 84.5473 345.937 84.0673 344.867 83.8473ZM418.527 66.2973L418.637 65.5673L417.827 65.8273L418.527 66.2873V66.2973ZM351.547 86.8873L351.007 86.5473L350.947 87.0973L351.547 86.8873Z" fill="var(--fill-0, black)"/>
<path id="Vector_2" d="M545.297 65.5873C545.987 65.5173 546.677 65.4573 547.357 65.3873C547.017 65.3273 546.657 65.1673 546.327 65.2273C545.987 65.2873 545.677 65.5373 545.347 65.7173L545.287 65.5973L545.297 65.5873Z" fill="var(--fill-0, black)"/>
</g>
</svg>
