<svg preserveAspectRatio="none" width="100%" height="100%" overflow="visible" style="display: block;" viewBox="0 0 493.068 448.127" fill="none" xmlns="http://www.w3.org/2000/svg">
<g id="Layer_1-2">
<path id="Vector" d="M359.244 423.487C353.424 429.267 345.294 430.657 338.354 434.307C334.324 436.417 329.704 437.507 325.244 438.657C320.824 439.787 316.394 440.987 311.654 439.647C305.504 437.907 299.424 437.627 293.294 440.607C290.834 441.797 287.534 441.347 284.614 441.477C280.854 441.647 277.034 441.347 273.534 443.147L273.684 442.847C269.344 445.637 263.534 441.417 259.454 445.787C259.294 445.957 258.104 445.067 257.354 444.797C251.304 442.647 245.884 438.417 238.614 440.897C232.304 443.047 225.254 439.927 218.804 443.227C214.544 445.407 211.594 444.597 208.964 439.397C206.924 435.367 202.234 431.827 196.284 434.637C194.834 435.317 192.444 434.637 191.454 435.597C184.844 442.007 179.044 436.607 173.074 434.557C171.004 433.847 169.774 431.957 169.354 429.787C168.524 425.457 165.444 423.587 161.634 422.407C158.844 421.547 155.584 421.267 153.394 419.597C149.164 416.357 145.244 416.617 140.454 418.037C135.714 419.447 130.604 419.607 126.434 415.787L126.074 416.087C127.104 415.567 128.134 415.047 129.164 414.527C128.124 414.077 127.074 413.637 126.034 413.187L126.494 413.517C124.654 410.747 122.774 412.177 120.894 413.447L121.074 413.117C114.264 411.777 108.544 408.577 103.944 403.337C101.994 401.117 99.7844 398.577 96.8044 398.487C90.6544 398.297 87.8744 394.727 86.1444 389.577C85.4544 387.517 84.3344 385.487 82.2644 384.877C73.7544 382.367 70.5844 374.457 65.5744 368.487C62.8844 365.287 60.2044 362.557 56.7144 360.017C48.2044 353.827 41.9044 345.197 35.5444 336.857C27.1444 325.847 18.8344 314.747 14.5544 301.237C13.5644 298.107 11.2844 295.407 9.70442 292.447C6.73442 286.877 4.03442 281.347 5.08442 274.577C5.64442 270.927 5.37442 266.997 2.87442 263.727C0.544424 260.687 2.96442 256.887 1.75442 253.997C-2.16558 244.587 1.90442 235.037 0.564424 225.617C2.69442 227.947 1.42442 230.707 1.66442 233.267C1.77442 234.407 2.22442 236.347 2.81442 236.467C5.06442 236.927 5.22442 234.847 5.40442 233.357C6.90442 221.277 8.36442 209.197 9.71442 197.097C10.0244 194.307 10.9744 192.237 13.8944 191.637C16.3244 191.137 17.3144 189.517 17.7044 187.287C19.0544 179.447 20.3544 171.607 21.8144 163.787C22.4444 160.407 23.1544 156.967 28.2044 158.987C29.9544 159.687 31.4344 157.997 32.1844 156.557C33.7244 153.617 34.9144 150.497 36.2744 147.467C36.7644 146.377 37.6244 144.997 36.1044 144.437C35.1144 144.077 33.7244 144.807 32.5144 145.047L32.8244 145.417C31.8444 144.437 30.8644 143.457 29.8844 142.477L30.2244 142.697C30.2644 140.577 29.4144 137.737 33.3844 138.797C35.3744 138.757 37.3644 138.717 39.3544 138.677L39.1844 138.197C39.1844 138.197 39.3944 138.627 39.3844 138.627C37.3544 138.657 35.3344 138.697 33.3144 138.727C33.7544 131.587 36.5744 125.907 43.1544 122.437C53.0244 117.227 59.9444 109.067 65.6144 99.6971L65.3044 99.8471C66.2744 98.8771 67.2544 97.9071 68.2244 96.9271L68.0444 97.2771C73.3344 96.7271 77.5444 93.4971 82.3244 91.0371C82.7344 93.4771 83.0644 95.4071 83.3944 97.3371C82.6844 97.4271 81.7244 97.2671 81.3244 97.6771C80.7044 98.2971 81.2344 99.0571 82.1744 98.7871C82.6244 98.6571 82.8244 97.6671 83.1344 97.0571C84.1444 96.4971 85.7644 96.1771 86.0844 95.3471C88.7344 88.4971 94.0644 85.6171 100.924 84.7971L100.684 84.4971C104.074 85.7071 106.564 84.1871 108.764 81.8271L108.364 82.1871C110.184 81.2471 112.004 80.3071 113.824 79.3571L113.714 79.6671C117.814 78.4671 121.544 76.5871 124.824 73.8371L124.534 73.6271C125.734 73.3371 127.284 73.4371 128.064 72.7071C133.314 67.8171 139.014 63.7971 146.114 62.0471C146.854 61.8671 147.534 61.1471 148.094 60.5371C148.944 59.6171 149.574 58.4271 148.824 57.2671C148.474 56.7271 147.294 56.2471 146.694 56.4171C143.064 57.4471 139.484 58.6571 135.894 59.8371C133.914 60.4871 132.004 61.5371 129.984 61.7971C127.954 62.0571 125.574 61.7371 125.484 58.8471C125.414 56.5471 124.904 54.9171 122.464 54.0471C117.654 52.3271 115.524 47.9071 113.914 43.7171C111.354 37.0671 109.394 30.1371 107.704 23.1971C106.844 19.6771 108.654 16.4571 111.874 14.7271C114.814 13.1571 118.004 11.9571 121.204 10.9871C138.194 5.82714 155.604 3.21714 173.264 1.35714C192.654 -0.682862 211.954 -0.072862 231.304 0.917138C234.644 1.08714 237.984 1.78714 241.274 2.46714C245.804 3.40714 250.254 5.11714 254.814 5.50714C271.894 6.98714 287.244 14.1071 303.014 19.8271C307.264 21.3671 312.074 22.3271 314.954 26.5071C315.184 26.8371 315.584 27.2071 315.954 27.2571C331.254 29.4271 340.624 42.5471 354.194 47.9171C355.754 48.5371 357.174 49.5471 358.774 50.0071C372.174 53.8671 384.144 60.3871 395.414 68.5471C398.574 70.8371 402.434 73.3871 407.034 71.6971L407.184 72.0171L406.724 72.0771C407.104 71.3271 407.284 70.5271 407.254 69.6871L406.974 70.0071C408.874 70.6871 411.454 70.6071 411.834 73.2571C412.884 80.4771 419.384 84.0871 422.674 89.8171C422.894 90.1971 424.334 90.2971 424.854 89.9771C425.334 89.6771 425.714 88.5071 425.514 87.9271C424.344 84.5371 420.334 82.6171 420.064 77.7871C425.334 80.3871 428.534 84.0871 431.874 87.7771C440.344 97.1471 447.014 108.037 456.404 116.607C457.314 117.437 458.074 118.537 458.654 119.637C467.694 137.167 479.044 153.627 483.114 173.437C485.064 182.917 487.354 192.327 489.534 201.767C492.974 216.677 494.084 231.727 492.054 246.917C491.044 254.447 490.414 261.827 492.354 269.417C493.464 273.777 493.794 278.957 487.074 280.217C486.174 280.387 485.014 281.947 484.894 282.977C483.874 291.627 479.764 299.407 478.094 307.917C476.484 316.117 474.004 324.167 467.884 330.597C464.644 334.007 463.474 338.607 462.954 343.297C462.214 349.947 460.084 355.227 452.554 357.287C449.244 358.197 447.234 361.187 446.024 365.497C443.594 374.187 438.924 378.057 430.724 382.167L430.494 381.857C427.894 384.507 424.394 386.717 422.884 389.887C419.004 398.007 412.394 402.397 404.524 405.557L404.724 405.957C404.514 404.937 404.304 403.907 404.094 402.887C404.214 402.987 404.334 403.087 404.454 403.197C402.894 403.457 401.864 404.237 401.794 405.947L402.114 405.507C396.524 406.147 392.324 409.037 389.174 413.597L389.594 413.237C387.184 413.057 385.264 413.837 384.074 416.047L384.394 415.707C376.884 421.387 368.504 424.137 359.054 423.267C359.064 423.287 358.554 423.227 358.554 423.227L359.264 423.507L359.244 423.487ZM246.614 388.907C248.384 389.017 250.154 389.127 251.914 389.237C252.484 388.437 253.054 387.627 253.624 386.827C253.294 386.887 252.764 386.847 252.684 387.027C252.364 387.707 252.194 388.457 251.944 389.187C250.054 389.117 248.164 389.047 246.274 388.967C246.274 388.967 246.504 388.967 246.604 388.917L246.614 388.907ZM403.834 358.527C403.904 356.957 403.984 355.397 404.054 353.827C405.644 353.117 406.774 352.097 406.584 350.157C408.084 349.517 409.584 348.877 411.084 348.237C411.234 346.717 411.394 345.207 411.544 343.687L412.064 343.847C412.064 343.847 411.484 343.987 411.534 344.087C412.064 345.467 412.654 346.857 411.194 348.137C409.734 348.897 408.274 349.657 406.824 350.417C404.824 350.787 404.514 352.537 403.914 354.067C404.604 355.517 406.674 356.997 403.814 358.357C402.464 359.327 401.104 360.297 399.754 361.267C399.064 361.397 398.254 361.357 397.714 361.707C396.924 362.217 396.984 362.967 397.714 363.357C397.864 363.437 398.374 363.107 398.544 362.847C398.954 362.237 399.254 361.567 399.584 360.887C400.754 359.637 401.784 358.147 403.854 358.537L403.834 358.527ZM190.474 225.017C188.804 224.767 190.404 226.797 189.574 225.337C189.114 224.537 189.314 224.117 190.244 223.907C191.884 223.537 189.324 223.887 190.734 224.747C189.684 224.577 189.594 224.347 190.444 224.057C190.444 224.377 190.464 224.697 190.474 225.027V225.017ZM388.834 158.977C388.634 158.007 388.774 157.877 389.264 158.567C388.974 158.627 388.694 158.687 388.404 158.757C385.454 157.797 386.554 155.887 387.294 154.057H386.454C386.454 154.057 387.084 153.897 387.084 153.937C387.684 155.627 388.274 157.317 388.834 158.977ZM156.564 137.417L156.984 137.287L156.874 137.747C155.584 137.847 155.334 138.107 156.114 138.527C156.264 138.157 156.414 137.787 156.564 137.427V137.417ZM124.064 404.957L123.654 405.467L124.424 405.177C126.024 406.127 127.624 407.077 129.164 407.977L129.064 408.567L129.534 408.377C127.704 407.217 125.874 406.067 124.074 404.947L124.064 404.957ZM212.914 374.257C212.774 374.457 212.644 374.657 212.504 374.847C213.074 373.257 211.644 375.117 213.254 374.607C212.324 375.077 211.614 374.667 212.044 374.137C213.104 372.847 211.294 373.977 212.914 374.247V374.257ZM103.964 370.127L103.354 370.157L104.334 370.257C105.944 370.817 107.554 371.387 109.104 371.927L108.744 372.447C108.984 372.417 109.224 372.387 109.454 372.357C107.634 371.607 105.814 370.867 103.954 370.127H103.964ZM103.124 335.857L103.094 335.007L102.834 335.537C105.014 336.227 107.094 337.467 109.524 336.717C109.394 340.367 110.784 343.087 114.034 344.987C115.764 345.997 118.064 347.357 117.514 349.677C115.884 356.537 120.654 358.207 125.394 359.747C127.324 360.377 129.204 360.587 131.064 361.817C136.924 365.667 143.064 369.097 149.134 372.617C150.284 373.287 151.534 373.007 152.524 372.057C153.614 371.017 153.494 369.547 152.804 368.657C148.804 363.507 145.874 357.457 139.344 354.517C133.864 352.047 131.274 346.067 126.694 342.637C121.754 338.947 114.284 341.367 109.184 336.977C107.304 335.777 105.214 335.757 103.134 335.867L103.124 335.857ZM422.764 332.977C421.624 332.987 420.424 332.797 419.354 333.087C418.444 333.337 418.314 334.307 418.914 335.037C419.094 335.257 419.804 335.347 419.994 335.187C420.864 334.427 421.624 333.557 422.404 332.697C422.674 332.467 423.004 332.267 423.194 331.977C423.264 331.867 423.024 331.547 422.924 331.327C422.874 331.877 422.824 332.437 422.764 332.987V332.977ZM355.754 137.887H356.484L355.394 137.767C354.684 134.697 352.874 133.977 350.144 135.357C349.104 135.887 348.124 136.527 347.114 137.107C347.214 134.517 350.084 131.837 346.644 129.317C345.904 128.777 345.304 126.677 345.714 126.187C346.864 124.787 348.624 125.187 350.294 125.847C352.794 127.347 355.224 128.967 357.814 130.297C360.784 131.827 363.824 133.287 366.964 134.437C369.244 135.277 371.184 137.957 374.754 136.707C370.564 131.777 365.374 129.777 360.834 126.857C357.374 124.637 353.654 124.947 349.914 126.107C350.054 125.707 350.424 125.187 350.294 124.927C347.354 119.317 338.914 114.127 333.134 114.617C332.334 114.687 331.524 116.227 330.964 117.217C330.354 118.307 330.024 119.547 329.564 120.727L329.654 120.847C329.774 120.247 329.774 119.647 329.564 119.107C327.334 118.537 325.264 117.057 322.784 118.007C322.994 115.317 320.784 113.627 320.074 111.397C321.044 111.787 322.014 112.587 322.934 111.347C322.964 111.307 322.474 110.707 322.354 110.747C321.644 110.977 320.974 111.317 320.294 111.617C319.484 111.557 317.984 111.597 317.954 111.417C317.334 107.277 314.874 105.557 310.884 104.567C302.824 102.567 295.264 98.5871 286.574 99.1671C284.594 99.2971 282.454 98.4071 280.514 97.6671C272.504 94.6171 264.184 93.8671 255.784 94.7471C244.574 95.9271 233.324 97.0871 222.244 99.0971C216.124 100.207 210.294 102.737 203.874 102.547C197.714 102.367 192.014 105.487 185.714 105.457C184.984 105.387 184.104 105.557 183.554 105.207C181.924 104.177 180.534 104.187 179.534 105.877C179.184 106.467 179.004 107.667 179.354 108.087C180.814 109.817 182.074 108.487 183.254 107.517C184.174 106.757 185.044 105.927 185.934 105.127C187.524 106.967 188.604 109.027 191.864 108.827C203.554 108.117 215.204 107.257 226.384 103.447C237.254 99.7471 248.644 98.6371 259.824 99.1671C267.194 99.5171 274.604 101.757 282.194 101.717C285.174 101.697 288.104 102.137 290.324 104.397C290.784 104.867 290.884 105.767 290.954 106.487C290.974 106.737 290.414 107.227 290.064 107.277C288.424 107.537 286.724 108.037 285.124 107.827C274.164 106.397 263.494 109.537 252.634 109.897C245.714 110.127 238.914 113.377 231.644 112.947C226.634 112.647 225.214 115.847 225.324 120.207C226.114 120.147 227.364 120.367 227.584 119.987C230.114 115.697 233.784 115.177 238.374 115.797C244.584 116.637 250.964 116.367 257.134 117.417C264.354 118.657 271.104 118.087 277.704 114.947C278.854 115.927 279.984 116.937 281.174 117.867C281.394 118.037 281.874 117.867 282.234 117.837C282.094 117.207 282.094 116.097 281.804 116.017C280.364 115.627 278.854 115.497 277.364 115.277C279.164 113.277 281.464 112.417 284.064 112.767C288.154 113.317 292.134 114.017 295.954 116.017C304.664 120.587 313.764 122.067 323.154 117.667C325.104 119.767 327.484 119.527 329.924 118.887C329.664 120.077 329.194 121.277 329.194 122.467C329.214 127.517 330.604 129.657 334.704 130.547C336.644 130.967 338.854 130.397 340.704 131.007C343.674 131.987 346.974 133.037 347.194 137.117C350.204 135.597 352.884 137.657 355.784 137.867L355.754 137.887ZM118.644 129.857C120.594 131.077 122.464 131.237 123.944 129.177C124.374 128.577 124.824 127.557 124.604 126.997C124.054 125.597 122.744 125.817 121.754 126.477C120.434 127.357 119.014 128.277 118.954 130.167C118.224 130.327 117.374 130.317 116.784 130.707C116.344 130.997 116.234 131.797 115.974 132.367C116.614 132.237 117.464 132.307 117.834 131.927C118.304 131.437 118.394 130.567 118.654 129.867L118.644 129.857ZM242.324 223.557C240.674 223.157 239.004 223.297 237.974 224.637C237.374 225.417 237.044 226.937 237.404 227.777C237.954 229.077 239.464 228.757 240.544 228.257C242.834 227.197 242.784 225.297 242.094 223.277C242.464 223.307 242.874 223.447 243.204 223.347C243.474 223.267 243.664 222.897 243.884 222.657C243.364 222.957 242.844 223.257 242.324 223.557ZM187.584 402.837C186.864 402.497 186.154 402.117 185.414 401.837C185.054 401.697 184.354 401.597 184.284 401.737C183.904 402.447 184.384 402.807 185.534 402.737C186.324 402.687 187.124 402.637 187.924 402.587C187.874 405.617 190.724 405.037 192.274 406.067C193.244 406.707 194.074 406.447 193.994 405.387C193.954 404.807 193.114 404.007 192.474 403.807C190.914 403.317 189.264 403.107 187.594 402.837H187.584ZM75.7544 307.247L73.0444 304.357C70.8144 294.987 64.1144 288.467 58.3844 281.327C57.6744 276.647 54.1544 273.297 52.5644 269.037C50.5344 263.617 48.4944 258.197 46.3644 252.817C45.5044 250.657 43.8844 249.607 41.5344 250.257C41.7644 249.597 41.9944 248.937 42.2244 248.277C41.9944 248.907 41.7744 249.537 41.5444 250.167C43.1544 256.107 45.6444 261.727 47.2844 267.707C48.8244 273.317 52.7544 278.427 58.6544 281.087C58.4444 281.857 57.8444 282.757 58.0744 283.367C60.7844 290.637 65.0544 296.997 70.0244 302.867C70.6844 303.647 72.2244 303.667 73.3444 304.067C73.4244 305.847 74.2944 306.857 76.1144 306.947C75.7644 312.207 80.9444 314.537 82.3844 318.797C82.0644 317.717 82.8544 317.537 82.8344 318.217C82.8044 319.867 83.5544 317.987 81.9844 318.597C84.2144 312.457 79.1344 310.327 75.7444 307.267L75.7544 307.247ZM229.084 429.247L229.664 428.727L228.774 429.227C227.864 428.507 226.994 427.237 226.024 427.147C220.924 426.677 215.784 425.817 210.674 427.197C205.664 421.187 198.844 422.277 192.284 422.347C198.054 425.837 204.394 426.967 211.104 426.937C216.984 428.447 223.264 426.807 229.084 429.247ZM240.324 373.057C241.914 372.877 244.024 373.257 244.984 372.387C246.824 370.717 246.774 368.027 246.464 365.627C246.394 365.117 245.284 364.457 244.604 364.387C243.914 364.317 242.934 364.697 242.464 365.227C240.394 367.577 240.614 370.517 240.584 373.367C239.544 373.077 238.454 372.587 237.904 374.057C237.884 374.117 238.574 374.587 238.674 374.517C239.264 374.097 239.784 373.557 240.324 373.067V373.057ZM288.734 373.517C297.234 372.537 305.994 372.147 312.294 363.447C302.244 363.257 295.224 367.627 288.964 373.777C284.554 371.607 280.934 373.207 276.804 376.827C281.694 376.927 285.674 377.157 288.734 373.517ZM322.044 374.327C318.964 371.907 315.844 370.307 311.654 371.837C307.714 373.267 303.614 374.217 300.524 377.307C299.004 378.827 297.384 380.047 295.084 379.937C287.904 379.587 281.854 384.157 274.854 384.657C274.324 384.697 273.544 385.857 273.494 386.537C273.464 386.997 274.484 387.587 275.104 388.007C275.424 388.217 275.914 388.237 276.324 388.217C290.644 387.297 303.664 381.237 317.334 377.717C319.184 377.237 320.664 375.307 322.264 374.057C322.164 373.877 322.054 373.697 321.954 373.517C321.984 373.787 322.024 374.057 322.054 374.317L322.044 374.327ZM48.9744 306.457C49.1144 305.497 49.2444 304.537 49.3844 303.577C49.2144 304.517 49.0344 305.457 48.8644 306.387C54.1344 312.437 56.8944 319.917 60.4544 326.937C62.9244 331.807 65.6244 336.467 69.8244 340.117C72.4344 342.377 75.4344 344.077 78.7944 344.097C80.8444 344.097 83.8644 345.477 85.1944 342.017C83.4944 339.227 81.8544 336.327 80.0144 333.577C78.8444 331.837 77.0844 329.707 75.1044 330.157C70.6644 331.147 68.8644 329.337 68.3044 325.367C67.8544 322.207 65.8344 319.907 63.4844 318.317C59.5744 315.677 56.5344 312.497 54.3444 308.337C53.2544 306.277 51.2544 305.717 48.9744 306.467V306.457ZM33.7044 298.217L33.3044 298.827L33.8244 298.397C30.0744 289.067 28.0044 279.397 26.7844 269.397C25.8444 261.697 25.5544 253.657 21.5244 245.887C20.4044 247.477 19.2844 248.357 19.1544 249.357C18.4744 254.737 17.3244 260.187 17.6744 265.537C18.3844 276.447 20.9844 286.967 27.2844 296.237C28.9244 298.657 31.0144 299.397 33.7044 298.227V298.217ZM194.154 274.457C190.074 275.677 186.674 275.037 184.944 270.687C183.254 266.437 180.644 262.477 180.514 257.687C180.464 255.937 180.024 254.447 178.464 253.377C170.124 247.707 168.214 238.577 165.954 229.717C165.074 226.277 166.934 221.157 162.544 219.977C159.424 219.147 157.284 223.547 154.604 225.477C147.614 230.527 143.774 239.497 134.434 241.647C133.784 241.797 133.244 242.797 132.844 243.507C130.754 247.217 129.834 251.307 129.224 255.457C128.904 257.687 130.034 259.527 131.694 260.947C142.634 270.267 154.374 278.477 168.264 282.517C173.844 284.137 179.594 286.297 186.124 284.017C192.194 281.887 198.634 282.917 203.394 288.117C202.754 287.807 202.134 287.447 201.464 287.227C201.254 287.157 200.924 287.467 200.654 287.597C201.534 287.747 202.414 287.907 203.294 288.057C204.814 286.007 206.534 284.267 209.224 283.837C211.454 283.487 215.004 284.717 214.824 280.937C214.724 278.847 211.654 278.477 209.734 278.077C206.004 277.297 202.574 276.197 199.614 273.617C197.554 271.827 195.844 274.447 193.904 274.687L194.154 274.427V274.457ZM460.824 241.097C463.124 240.437 462.524 238.457 462.854 236.987C465.104 227.057 463.164 216.987 463.894 207.007C464.324 201.047 463.004 195.437 461.424 189.747C458.304 178.487 451.684 168.537 449.444 156.967C449.334 156.387 448.364 155.737 447.694 155.597C447.374 155.527 446.334 156.697 446.434 157.067C448.234 163.487 448.444 170.307 451.604 176.407C454.894 182.757 457.524 189.287 456.114 196.807C455.754 198.717 456.694 200.897 457.194 202.917C459.504 212.337 460.084 221.887 459.644 231.557C459.504 234.707 458.534 238.157 460.824 241.087V241.097ZM216.754 222.307C229.554 215.787 241.594 210.247 254.344 206.457C255.514 206.107 256.584 205.367 257.634 204.717C257.804 204.617 257.734 203.947 257.604 203.597C257.474 203.257 257.184 202.807 256.884 202.727C255.704 202.427 254.414 201.887 253.294 202.107C248.824 202.957 244.434 204.547 239.934 204.957C231.554 205.727 225.754 211.287 219.184 215.367C217.574 216.367 216.244 218.277 216.754 222.307ZM197.624 233.367C201.671 233.714 204.334 233.207 205.614 231.847C207.484 229.867 208.254 227.727 206.884 225.107C206.284 223.967 206.204 222.797 207.214 221.727C208.064 220.827 208.884 219.877 209.584 218.867C210.484 217.567 211.764 215.967 210.474 214.577C209.234 213.237 207.124 213.687 205.934 214.807C202.334 218.207 198.854 221.747 195.574 225.457C194.554 226.607 194.184 228.427 193.814 230.017C193.534 231.217 193.864 232.597 195.234 233.037C196.384 233.407 197.664 233.387 197.614 233.377L197.624 233.367ZM152.694 409.417C160.744 415.967 169.424 421.057 183.454 418.427C171.514 414.897 162.364 411.597 152.694 409.417ZM81.1444 169.447C71.7344 175.747 68.3644 183.537 65.9944 193.687C74.6144 187.337 78.6044 179.917 81.1444 169.447ZM185.554 117.237C185.134 116.737 184.724 116.237 184.304 115.747C180.964 117.157 177.614 118.527 174.304 120.007C173.064 120.567 172.634 121.757 173.414 122.867C174.214 124.007 175.454 123.957 176.604 123.197C179.594 121.217 182.574 119.217 185.554 117.227V117.237ZM246.254 429.107C245.114 429.767 244.044 430.007 243.784 430.597C243.184 431.957 244.064 432.977 245.274 433.567C246.394 434.117 247.554 434.697 248.764 434.927C250.514 435.267 252.194 434.767 252.694 432.867C253.074 431.447 251.754 430.707 250.634 430.297C249.104 429.737 247.484 429.427 246.254 429.097V429.107ZM113.104 296.767C113.124 293.067 111.024 289.837 108.204 289.287C107.914 289.227 107.354 289.407 107.254 289.627C105.764 292.787 108.164 294.867 109.444 297.247C109.614 297.577 110.054 297.937 110.384 297.967C111.084 298.017 111.834 297.947 112.504 297.747C112.774 297.667 112.904 297.117 113.094 296.777L113.104 296.767ZM244.884 291.927C244.514 291.277 244.234 290.187 243.744 290.067C242.214 289.717 240.574 289.527 239.014 289.677C237.754 289.797 236.734 290.767 237.074 292.207C237.214 292.807 238.054 293.587 238.644 293.657C240.234 293.837 241.874 293.817 243.444 293.567C243.994 293.477 244.404 292.497 244.884 291.917V291.927ZM366.224 343.377C366.004 342.697 365.804 341.447 365.204 340.437C364.944 339.997 363.864 340.037 363.164 339.867C362.794 342.557 362.414 345.237 362.044 347.927C362.764 347.927 363.594 348.177 364.194 347.897C365.844 347.127 366.384 345.637 366.244 343.377H366.224ZM205.534 293.177C208.904 295.587 212.044 296.777 215.954 295.357C212.804 292.677 209.594 291.857 205.534 293.177ZM57.5044 191.967C59.4244 191.447 61.1744 190.137 62.2044 188.217C62.8744 186.967 62.4844 185.797 61.2944 185.067C59.2644 183.817 57.4644 184.967 55.9544 188.427C55.4244 189.637 55.3544 190.827 56.4844 191.757C56.7244 191.957 57.1644 191.907 57.5144 191.967H57.5044ZM161.474 47.9071C163.794 48.5571 164.564 48.7571 165.314 48.9771C167.524 49.6071 169.224 49.0971 170.064 46.7971C170.194 46.4471 170.224 45.8271 170.024 45.6471C168.624 44.3871 167.114 44.8671 165.664 45.5671C164.604 46.0771 163.594 46.7171 161.464 47.9071H161.474ZM217.144 42.1571C216.594 42.4671 216.044 42.7771 215.494 43.0871C216.434 43.6571 217.314 44.3771 218.334 44.7171C218.674 44.8271 219.824 43.8871 219.764 43.5871C219.504 42.2071 218.254 42.2271 217.144 42.1671V42.1571ZM199.524 42.3771C199.744 42.9071 199.844 43.4171 199.984 43.4371C201.134 43.5471 202.374 43.8171 203.434 43.5171C204.354 43.2571 204.154 42.2271 203.034 42.0771C201.924 41.9271 200.744 42.2471 199.514 42.3771H199.524ZM228.544 44.0271C228.964 44.0271 229.384 44.0671 229.794 44.0271C230.884 43.8871 231.534 43.1771 231.034 42.6971C230.534 42.2171 229.544 42.1071 228.764 42.0971C227.674 42.0871 227.184 42.6871 227.544 43.4371C227.684 43.7271 228.204 43.8471 228.554 44.0371L228.544 44.0271ZM175.864 55.8771C176.594 55.6571 177.594 55.6671 177.984 55.1771C178.554 54.4571 178.074 53.5571 177.164 53.5571C176.464 53.5571 175.584 53.8871 175.094 54.3771C174.414 55.0671 174.804 55.6971 175.854 55.8771H175.864ZM248.104 121.917C249.344 121.917 250.504 121.937 251.664 121.877C251.734 121.877 251.784 121.277 251.844 120.957C250.684 120.867 249.534 120.757 248.374 120.707C248.324 120.707 248.254 121.247 248.104 121.917ZM257.594 298.487C256.574 297.867 255.954 297.287 255.224 297.087C253.994 296.747 252.804 296.977 251.944 298.077C252.594 298.497 253.244 299.257 253.904 299.267C255.034 299.267 256.174 298.817 257.604 298.487H257.594ZM381.344 142.187C381.034 142.237 380.504 142.187 380.434 142.337C380.034 143.187 380.384 143.867 381.364 144.137C381.684 144.227 382.084 144.027 382.454 143.957C382.084 143.367 381.714 142.777 381.344 142.187ZM430.784 98.1471C431.364 98.4771 431.974 99.0971 432.524 99.0571C433.484 98.9871 433.644 98.2371 432.964 97.4671C432.734 97.2071 432.204 96.8471 432.064 96.9371C431.574 97.2371 431.204 97.7271 430.784 98.1471ZM153.294 114.207C154.004 114.717 154.524 114.517 154.854 113.617C154.524 113.547 154.154 113.347 153.884 113.447C153.634 113.537 153.494 113.947 153.304 114.207H153.294ZM167.434 363.797C167.054 363.797 166.524 363.647 166.374 363.827C165.784 364.517 166.084 365.077 167.134 365.197C167.374 365.227 167.854 364.867 167.874 364.647C167.904 364.367 167.574 364.057 167.424 363.797H167.434ZM439.674 106.147C439.574 105.847 439.534 105.357 439.354 105.287C439.104 105.197 438.574 105.347 438.464 105.557C438.354 105.767 438.614 106.167 438.704 106.487C439.024 106.377 439.354 106.267 439.674 106.147ZM156.524 55.6371L156.624 54.8171L155.714 55.1371L156.524 55.6371ZM370.494 341.307C370.604 341.017 370.894 340.567 370.794 340.447C370.214 339.747 369.784 339.957 369.744 340.967C369.744 341.067 370.234 341.187 370.504 341.297L370.494 341.307ZM389.554 368.167C388.564 367.837 387.814 368.127 387.524 369.127C387.454 369.367 388.094 370.097 388.244 370.047C388.994 369.837 389.684 369.437 390.394 369.097C390.114 368.787 389.824 368.477 389.544 368.167H389.554ZM141.124 389.767L141.234 389.047L140.344 389.287L141.124 389.767ZM216.484 411.927C216.544 412.167 216.544 412.527 216.694 412.617C216.964 412.777 217.404 412.917 217.634 412.797C218.484 412.367 218.384 411.887 217.394 411.647C217.134 411.587 216.794 411.817 216.484 411.917V411.927ZM94.5344 331.717L95.0044 330.967L94.2544 330.877L94.5344 331.717Z" fill="var(--fill-0, black)"/>
<path id="Vector_2" d="M234.874 446.037C231.974 448.857 228.884 448.397 225.724 447.137C225.444 447.027 225.224 446.467 225.204 446.097C225.184 445.747 225.384 445.297 225.644 445.067C225.914 444.827 226.404 444.607 226.734 444.687C229.344 445.317 232.324 443.827 234.874 446.047V446.037Z" fill="var(--fill-0, black)"/>
<path id="Vector_3" d="M32.5244 145.057C32.2944 147.127 32.1544 149.227 30.3144 150.657C29.0044 151.677 27.8644 151.257 27.3844 149.877C26.3144 146.767 26.8744 144.137 30.2244 142.697L29.8844 142.477C30.8644 143.457 31.8444 144.437 32.8244 145.417L32.5144 145.047L32.5244 145.057Z" fill="var(--fill-0, black)"/>
<path id="Vector_4" d="M389.144 413.577C391.264 414.007 393.374 414.447 395.494 414.877L395.584 414.667C393.124 415.987 390.664 417.297 388.214 418.627C386.361 419.64 385.078 418.657 384.364 415.677L384.044 416.017C386.284 415.877 388.684 416.037 389.564 413.207L389.144 413.567V413.577Z" fill="var(--fill-0, black)"/>
<path id="Vector_5" d="M407.244 69.6571C405.624 68.5471 404.004 67.4371 402.384 66.3371C401.584 65.7971 401.344 64.9971 402.054 64.6271C402.584 64.3571 403.834 64.4771 404.104 64.8771C405.194 66.4771 406.034 68.2471 406.974 69.9671C406.974 69.9771 407.254 69.6671 407.254 69.6671L407.244 69.6571Z" fill="var(--fill-0, black)"/>
<path id="Vector_6" d="M100.924 84.7871C101.354 79.9971 105.224 80.2471 108.494 79.6171L108.334 79.2471C108.334 80.2171 108.354 81.1971 108.364 82.1671L108.764 81.8071C106.074 82.6971 103.374 83.5871 100.684 84.4771L100.924 84.7771V84.7871Z" fill="var(--fill-0, black)"/>
<path id="Vector_7" d="M145.064 426.297C144.694 426.817 144.524 427.307 144.304 427.327C142.964 427.447 142.334 426.547 141.954 425.447C141.884 425.247 142.264 424.887 142.434 424.597C143.304 425.157 144.174 425.727 145.054 426.297H145.064Z" fill="var(--fill-0, black)"/>
<path id="Vector_8" d="M162.074 434.887C162.524 435.427 163.294 435.937 163.344 436.517C163.434 437.517 162.594 437.917 161.844 437.237C161.384 436.827 161.314 435.967 161.154 435.297C161.144 435.237 161.754 435.037 162.074 434.897V434.887Z" fill="var(--fill-0, black)"/>
<path id="Vector_9" d="M188.614 444.457C187.774 443.827 186.944 443.207 186.104 442.577C186.434 442.617 186.934 442.527 187.074 442.707C187.544 443.327 187.884 444.047 188.304 444.697C188.344 444.667 188.614 444.447 188.614 444.447V444.457Z" fill="var(--fill-0, black)"/>
<path id="Vector_10" d="M196.124 447.177C193.644 446.247 191.164 445.317 188.644 444.417C188.604 444.457 188.334 444.667 188.294 444.697C191.524 443.587 194.414 443.517 195.884 447.437L196.124 447.167V447.177Z" fill="var(--fill-0, black)"/>
<path id="Vector_11" d="M65.6244 99.6971C64.3744 98.7571 63.1544 97.4871 64.5644 96.1271C65.9244 94.8071 67.2244 95.8371 68.0544 97.2771L68.2344 96.9271C67.2644 97.8971 66.2844 98.8671 65.3144 99.8471L65.6244 99.6971Z" fill="var(--fill-0, black)"/>
<path id="Vector_12" d="M108.494 79.6171C110.254 77.1371 111.984 78.3971 113.714 79.6571L113.824 79.3471C111.994 79.3171 110.164 79.2871 108.334 79.2571L108.494 79.6271V79.6171Z" fill="var(--fill-0, black)"/>
<path id="Vector_13" d="M126.444 415.797C124.324 415.587 122.294 415.187 121.084 413.137L120.904 413.467C122.774 413.487 124.644 413.507 126.504 413.537L126.044 413.207C126.054 414.177 126.074 415.147 126.084 416.107L126.444 415.807V415.797Z" fill="var(--fill-0, black)"/>
<path id="Vector_14" d="M124.834 73.8271L123.904 74.0471C123.904 74.0471 124.524 73.6471 124.534 73.6371C124.544 73.6271 124.834 73.8271 124.834 73.8271Z" fill="var(--fill-0, black)"/>
<path id="Vector_15" d="M78.6844 87.1871L78.5944 86.6471L78.4144 87.4771L78.6844 87.1871Z" fill="var(--fill-0, black)"/>
<path id="Vector_16" d="M78.4144 87.4771L77.9744 87.4271C77.9744 87.4271 78.7144 87.1471 78.6944 87.1671C78.6844 87.1871 78.4144 87.4771 78.4144 87.4771Z" fill="var(--fill-0, black)"/>
<path id="Vector_17" d="M446.644 373.067C446.984 373.187 447.594 373.437 447.614 373.407C448.104 372.387 447.874 372.167 446.984 372.777L446.644 373.067Z" fill="var(--fill-0, black)"/>
<path id="Vector_18" d="M446.994 372.777C446.924 372.997 446.844 373.207 446.774 373.427C446.984 373.337 447.194 373.257 447.404 373.167C447.174 373.117 446.944 373.057 446.684 373.037C446.654 373.067 446.994 372.777 446.994 372.777Z" fill="var(--fill-0, black)"/>
<path id="Vector_19" d="M440.564 383.637C439.394 382.147 440.234 383.767 440.124 383.917L440.564 383.637Z" fill="var(--fill-0, black)"/>
<path id="Vector_20" d="M430.694 382.157L430.124 382.687C430.124 382.687 430.434 381.857 430.454 381.847C430.474 381.847 430.694 382.157 430.694 382.157Z" fill="var(--fill-0, black)"/>
<path id="Vector_21" d="M440.134 383.927C440.154 383.707 440.164 383.487 440.184 383.267C439.634 383.737 439.774 383.847 440.584 383.617C440.574 383.647 440.134 383.927 440.134 383.927Z" fill="var(--fill-0, black)"/>
<path id="Vector_22" d="M404.494 405.537C403.724 406.847 402.964 408.157 402.194 409.467L402.724 409.267C402.514 408.007 402.294 406.747 402.084 405.487L401.764 405.927C402.744 405.927 403.714 405.927 404.694 405.937L404.494 405.537Z" fill="var(--fill-0, black)"/>
<path id="Vector_23" d="M402.194 409.467C402.284 409.217 402.384 408.977 402.474 408.727C402.294 408.817 402.114 408.897 401.924 408.987C402.194 409.057 402.464 409.137 402.724 409.237C402.714 409.267 402.184 409.467 402.184 409.467H402.194Z" fill="var(--fill-0, black)"/>
<path id="Vector_24" d="M395.494 414.877L395.024 413.977C395.024 413.977 395.534 414.577 395.554 414.627C395.584 414.667 395.494 414.887 395.494 414.887V414.877Z" fill="var(--fill-0, black)"/>
<path id="Vector_25" d="M273.534 443.147L273.184 443.617C273.184 443.617 273.614 442.917 273.654 442.887C273.694 442.857 273.544 443.147 273.544 443.147H273.534Z" fill="var(--fill-0, black)"/>
<path id="Vector_26" d="M193.904 274.717C195.574 274.157 196.864 274.997 198.144 275.887L198.194 275.647C196.644 275.927 195.194 275.897 194.164 274.447C194.154 274.457 193.904 274.717 193.904 274.717Z" fill="var(--fill-0, black)"/>
<path id="Vector_27" d="M198.144 275.887L197.464 276.447C197.464 276.447 198.134 275.737 198.164 275.697C198.194 275.657 198.144 275.897 198.144 275.897V275.887Z" fill="var(--fill-0, black)"/>
<path id="Vector_28" d="M329.544 120.757C329.944 120.757 330.354 120.757 330.754 120.767C330.384 120.797 330.014 120.827 329.644 120.867L329.544 120.757Z" fill="var(--fill-0, black)"/>
</g>
</svg>
