<svg preserveAspectRatio="none" width="100%" height="100%" overflow="visible" style="display: block;" viewBox="0 0 777.647 101.844" fill="none" xmlns="http://www.w3.org/2000/svg">
<g id="Layer_1-2">
<path id="Vector" d="M85.86 52.7545C83.27 51.9745 80.68 51.6745 77.95 52.1845C76.37 52.4845 74.68 52.2345 72.96 52.2345C72.64 51.0645 72.41 50.1945 72.1 49.0545C67.55 47.0045 62.38 48.4845 57.49 47.1645C52.73 45.8845 47.54 46.2545 42.56 45.6945C37.92 45.1745 33.3 44.3845 28.68 43.7045C23.77 42.9845 18.86 42.2545 13.73 41.4945C13.73 40.2645 13.67 39.3345 13.75 38.4045C13.84 37.4145 14.05 36.4345 14.16 35.8045C12.74 31.5845 8.16 32.8645 5.91 30.4445C6.34 26.4945 9.99 23.2445 8.13 18.9445C6.28 17.6845 3.25 18.9445 2.01 15.8845C3.25 13.8245 5.8 13.8945 7.71 12.9445C9.36 12.1145 11.32 11.8945 13.62 11.2745C9.94 7.25451 4.85 8.90451 0.78 6.31451C0.56 5.51451 0.24 4.32451 0 3.47451C1.47 1.12451 3.4 0.504512 5.44 0.504512C8.11 0.504512 10.77 0.914512 13.44 0.974512C15.75 1.02451 18.13 1.12451 20.38 0.684512C27.1 -0.625488 33.83 0.0845124 40.25 1.63451C45.12 2.81451 49.95 3.60451 54.89 4.14451C64.5 5.21451 74.09 6.52451 83.7 7.62451C88.34 8.16451 93.01 8.48451 97.67 8.88451C99.67 9.05451 101.75 8.87451 103.65 9.37451C107.93 10.5145 112.26 10.3545 116.6 10.4745C120.61 10.5845 124.65 10.5445 128.62 11.0145C142.6 12.6745 156.64 12.7445 170.68 12.9845C175.02 13.0545 179.34 13.6345 183.68 13.7445C196.71 14.0545 209.74 14.3145 222.77 14.4745C238.49 14.6745 254.2 14.8245 269.92 14.8845C283.95 14.9345 297.99 14.8045 312.02 14.7945C320.37 14.7945 328.72 14.8345 337.08 14.9445C342.42 15.0145 347.67 15.2045 352.83 13.0245C356.24 11.5845 360.04 12.1445 363.68 13.0645C371.12 14.9345 378.58 16.0045 386.37 15.5645C392.61 15.2145 398.97 14.1445 405.14 15.9245C406.5 15.3845 407.71 14.5145 408.95 14.4745C415.89 14.2945 422.81 13.6145 429.74 15.3445C433.55 16.2945 437.8 16.7145 441.62 16.0445C445.06 15.4445 448.24 16.0345 451.54 16.0545C455.54 16.0845 459.53 15.9445 463.53 15.8645C465.19 15.8345 466.85 15.6945 468.5 15.7445C479.19 16.0845 489.9 16.2145 500.57 16.9045C512.9 17.7045 525.2 19.0345 537.51 20.1245C547.16 20.9745 556.82 21.7645 566.47 22.6645C576.45 23.5945 586.42 24.6645 596.41 25.5945C605.36 26.4345 614.19 28.3345 623.2 28.6745C624.2 28.7145 625.24 28.7345 626.18 29.0245C637.38 32.5645 649.14 32.6945 660.57 34.7845C667.78 36.1045 675.14 36.2045 682.28 38.1945C687.71 39.6945 693.49 39.9245 699.11 40.7345C701.76 41.1145 704.43 41.3745 707.03 41.9645C716.81 44.2045 726.83 44.9045 736.69 46.7145C746.21 48.4645 755.89 49.3645 765.5 50.5945C769.19 51.0645 772.67 52.0945 775.93 53.9845C776.47 54.8045 777.02 55.6345 777.58 56.4845C777.58 57.1545 777.75 57.8645 777.55 58.4545C775.86 63.5245 774.23 68.6245 772.33 73.6145C769.84 80.1645 767.14 86.6245 764.49 93.1145C763.86 94.6545 763.15 96.1845 762.33 97.6245C761.51 99.0545 760.5 100.375 759.96 101.175C757.98 102.305 756.76 101.765 755.5 101.295C746.04 97.8045 736.15 96.1445 726.26 94.5345C708.45 91.6345 690.62 88.8745 672.8 86.0545C671.81 85.8945 670.82 85.7445 669.84 85.5045C667.31 84.8745 664.79 84.2045 662.29 83.5545C662.4 82.8045 662.5 82.1645 662.59 81.5345C658.88 80.1145 655.35 81.9545 652.19 82.2045C646.81 81.3245 641.89 80.5145 637.02 79.7245C636.38 78.3645 635.83 77.1945 635.17 75.7745C630.8 74.9945 626.22 74.4345 621.78 73.3045C617.52 72.2145 613.28 71.9745 608.93 71.9545C606.32 71.9445 603.7 71.0745 601.1 70.5245C586.76 67.5245 572.15 66.3545 557.65 64.5245C549.39 63.4845 541.07 62.7445 532.77 61.8645C520.82 60.5945 508.85 59.5845 496.86 58.7945C492.89 58.5345 488.88 58.5345 484.9 58.2445C468.24 57.0145 451.56 56.1245 434.85 56.1345C433.51 56.1345 432.14 56.3445 430.84 56.1145C420.57 54.2945 410.19 55.2245 399.87 54.8645C389.52 54.5145 379.15 54.5445 368.79 54.4145C367.12 54.3945 365.45 54.4645 363.77 54.4445C356.45 54.3845 349.17 53.4945 341.8 53.9145C334.48 54.3245 327.11 53.7645 319.76 53.7845C299.74 53.8145 279.71 53.9745 259.68 53.9545C255.71 53.9545 251.73 53.3645 246.36 52.9245C244.49 53.1445 241.19 53.8545 237.88 53.8645C227.19 53.9045 216.5 53.7845 205.81 53.5645C189.79 53.2445 173.78 52.6545 157.76 53.2945C156.13 53.3645 154.49 53.0945 152.86 52.9445C150.88 52.7545 148.9 52.3745 146.91 52.3545C139.92 52.2845 132.93 52.4545 125.94 52.3045C122.99 52.2445 120.04 51.6545 117.09 51.2545C108.11 50.0245 99.1 50.7145 89.86 50.6045C88.55 51.3345 87.1 52.1345 85.65 52.9445L85.85 52.7445L85.86 52.7545ZM315.39 38.7445C315.25 39.0845 314.98 39.4245 315.04 39.6845C315.1 39.9345 315.5 40.2845 315.75 40.2845C329.69 40.4045 343.63 40.4745 357.57 40.5945C366.2 40.6645 374.83 40.8145 383.46 40.8545C384.37 40.8545 385.28 40.3245 386.19 40.0345C385.84 38.1645 384.38 38.0345 383.29 38.1145C371.71 38.9145 360.13 38.1145 348.56 38.1945C344.31 38.2245 340.05 37.6045 335.39 37.2445C333.01 38.1045 330.05 39.1645 327.14 38.5345C323.13 37.6645 319.29 38.3545 315.39 38.7545V38.7445ZM474.8 40.5845C469.48 40.5845 465.51 40.6145 461.54 40.5845C457.27 40.5345 453 40.3645 448.73 40.3545C446.74 40.3545 444.74 40.8145 442.77 40.7045C440.51 40.5845 438.27 40.0745 435.67 39.6745C435.76 40.5645 435.84 41.3245 435.92 42.1345C447.79 42.9645 459.44 42.0445 470.9 44.3545C472.82 44.7445 474.87 44.5245 476.86 44.5545C482.17 44.6545 487.48 44.7645 492.79 44.8145C494.76 44.8345 496.73 44.8145 498.69 44.6145C499.42 44.5345 499.46 43.7345 498.85 42.9745C495.03 41.5745 490.95 42.0445 487.08 42.4445C482.59 42.9145 478.5 42.3245 474.81 40.5745L474.8 40.5845ZM295.55 39.5345C288.63 37.3745 282.15 39.9345 276.07 38.0245C276.05 38.0245 275.87 38.5045 275.77 38.7645C280.6 40.7045 284.95 40.9145 295.56 39.5345H295.55ZM265.3 39.8245C265.25 39.6345 265.19 39.4445 265.14 39.2545C259.26 38.9445 253.38 38.6345 247.29 38.3045V40.3345C253.42 40.1645 259.36 39.9945 265.3 39.8245ZM520.72 45.3945C517.7 43.4745 514.33 44.6345 511.23 44.1945C509.94 44.0145 508.19 44.1045 506.92 45.9745C511.42 46.5445 515.61 47.0245 519.86 46.3745C520.11 46.3345 520.29 45.9045 520.72 45.3945ZM407.86 39.1045C405.2 38.9245 403.33 38.7245 401.45 38.7045C400.9 38.7045 400.34 39.2045 399.78 39.4745C402.67 40.7445 402.68 40.8545 407.86 39.1045ZM580.07 51.5345C578.42 49.9545 576.78 50.1745 575.13 51.5445C576.78 52.7245 578.43 53.1745 580.07 51.5345ZM387.67 25.1745C387.45 25.0145 387.24 24.7145 387.02 24.7145C386.12 24.7045 385.84 25.1245 386.31 25.7345C386.43 25.8945 386.91 25.9045 387.16 25.8045C387.38 25.7245 387.5 25.3945 387.66 25.1745H387.67ZM346.95 33.3045C346.71 33.1645 346.47 32.9245 346.22 32.9245C345.97 32.9245 345.73 33.1545 345.49 33.2945C345.87 33.5045 346.25 33.7145 346.63 33.9245C346.74 33.7145 346.84 33.5145 346.95 33.3045ZM370.57 32.9645C370.28 33.0645 369.8 33.1145 369.75 33.2845C369.55 33.9845 369.99 34.2745 370.86 33.9945C371.08 33.9245 371.23 33.6045 371.41 33.4045C371.13 33.2545 370.86 33.1145 370.58 32.9645H370.57ZM239.33 39.0645C239.56 38.9045 239.91 38.7945 240 38.5845C240.09 38.3445 240.05 37.8645 239.88 37.7445C239.26 37.3045 238.83 37.5945 238.82 38.4645C238.82 38.6645 239.15 38.8745 239.33 39.0745V39.0645ZM426.21 40.4645C426.48 40.9545 426.64 41.7145 427.03 41.8545C427.5 42.0245 428.16 41.6545 428.73 41.5245C428.43 41.0245 428.24 40.2945 427.81 40.1045C427.41 39.9245 426.76 40.3245 426.21 40.4645ZM372.66 47.4945C373.67 48.7545 374.68 48.8245 375.71 47.5145C374.7 46.2345 373.69 46.1645 372.66 47.4945ZM559.38 49.8545L560.23 49.6645L559.62 49.2245L559.38 49.8545Z" fill="var(--fill-0, black)"/>
<path id="Vector_2" d="M85.66 52.9545H99.59C93.19 54.4145 91.26 54.3345 85.86 52.7545L85.66 52.9545Z" fill="var(--fill-0, black)"/>
<path id="Vector_3" d="M116.41 55.2645H123.07C123.07 55.4645 123.06 55.6745 123.05 55.8745C120.83 55.7645 118.61 55.6645 116.4 55.5545C116.4 55.4545 116.4 55.3645 116.4 55.2645H116.41Z" fill="var(--fill-0, black)"/>
<path id="Vector_4" d="M183.7 57.7645H179.19V57.5045H183.7V57.7645Z" fill="var(--fill-0, black)"/>
<path id="Vector_5" d="M137.43 55.4545H139.1C138.61 56.7445 138.05 55.7945 137.43 55.4545Z" fill="var(--fill-0, black)"/>
<path id="Vector_6" d="M168.94 57.7045C168.35 57.7545 167.77 57.8045 167.18 57.8545C167.64 56.3645 168.32 57.3745 168.94 57.7045Z" fill="var(--fill-0, black)"/>
<path id="Vector_7" d="M585.11 71.5145C584.61 71.7145 584.17 71.9445 583.71 72.0345C583.46 72.0745 583.17 71.8545 582.82 71.7245C583.32 71.5245 583.76 71.2745 584.22 71.1945C584.46 71.1445 584.75 71.3745 585.11 71.5145Z" fill="var(--fill-0, black)"/>
<path id="Vector_8" d="M612.89 75.5445C613.48 75.4045 614.07 75.2145 614.67 75.1545C614.94 75.1245 615.23 75.3345 615.52 75.4445C615.18 75.7145 614.82 76.2245 614.5 76.2045C613.95 76.1645 613.43 75.7845 612.89 75.5545V75.5445Z" fill="var(--fill-0, black)"/>
<path id="Vector_9" d="M65.51 51.8745C65.2 51.8745 64.88 51.9145 64.59 51.8445C64.52 51.8245 64.55 51.4345 64.53 51.2145C64.84 51.2045 65.15 51.1545 65.45 51.2145C65.51 51.2245 65.5 51.6445 65.52 51.8845L65.51 51.8745Z" fill="var(--fill-0, black)"/>
<path id="Vector_10" d="M626.77 77.4145L627.67 77.6645L626.92 77.9245L626.77 77.4145Z" fill="var(--fill-0, black)"/>
</g>
</svg>
