<svg preserveAspectRatio="none" width="100%" height="100%" overflow="visible" style="display: block;" viewBox="0 0 588.165 240.832" fill="none" xmlns="http://www.w3.org/2000/svg">
<g id="Layer_1-2">
<path id="Vector" d="M317.731 202.66C306.061 203.53 294.321 203.87 282.751 205.44C274.491 206.56 266.021 206.23 257.941 208.78C256.681 209.18 255.291 209.22 253.961 209.26C242.951 209.61 232.221 211.78 221.471 214.01C212.701 215.83 204.001 218.25 194.801 217.43C191.581 217.14 188.241 218.67 184.911 218.92C179.951 219.29 175.171 221.64 170.031 220.25C169.121 220 167.961 220.07 167.071 220.4C157.651 223.93 147.751 225.16 137.881 226.45C129.941 227.49 122.001 228.67 114.031 229.17C108.061 229.54 102.271 232.25 96.1506 230.57C92.2806 232.7 87.7406 232.35 83.7406 233.9C79.5506 235.52 75.3006 236.16 70.9306 235.23C66.4106 234.27 61.4906 236.36 57.2506 233.4C57.0306 233.24 56.4606 233.22 56.3106 233.37C51.0706 238.86 42.4606 233.83 37.1506 239.58C35.6306 241.22 32.9406 240.85 30.4706 240.65C24.9806 240.22 20.1406 237.84 15.1206 236.11C11.3706 234.82 8.62055 230.95 9.89055 227.41C11.5106 222.9 10.6306 219.01 9.87055 214.83C9.52055 212.93 10.3706 211.45 12.2306 211.04C15.1606 210.39 18.1306 209.77 21.1106 209.58C33.4906 208.77 45.9006 208.43 58.2606 207.34C71.6006 206.16 84.9206 204.53 98.2006 202.72C111.141 200.96 124.031 198.79 136.931 196.68C148.151 194.85 159.351 192.85 170.561 190.93C171.331 190.8 171.881 190.08 171.401 189.62C170.751 189 169.671 188.82 168.651 188.41C169.551 187.28 170.851 188.07 171.781 188.22C180.181 189.57 188.421 187.54 196.731 187.16C197.251 187.14 198.081 186.54 198.171 186.09C198.401 184.94 197.501 184.22 196.511 184.05C186.851 182.46 177.111 182.75 167.491 183.97C163.421 184.48 159.641 184.69 155.611 183.91C149.661 182.76 143.791 182.22 138.141 185.86C135.031 187.87 131.081 187.77 127.371 187.04C126.261 186.82 125.661 186.07 126.231 184.86C126.701 183.86 126.801 182.42 125.661 182.47C121.831 182.65 118.531 180.8 114.951 180.19C108.871 179.16 102.951 179.92 97.4106 182.79C96.9906 183.01 96.5606 184.21 96.7206 184.38C97.3606 185.04 98.2406 185.47 99.1806 186.08C99.1806 186.12 99.2406 186.4 99.3006 186.68C98.6406 186.75 97.9806 186.81 97.3206 186.88C93.9906 187.22 90.6606 187.69 87.3306 187.86C75.6206 188.45 63.8906 188.84 52.1806 189.48C42.1506 190.03 32.1406 190.95 22.1106 191.43C17.1106 191.67 12.0706 191.41 7.06055 191.1C4.42055 190.94 2.54055 189.09 2.66055 186.47C2.96055 180.37 0.250555 174.79 0.0505549 168.8C-0.0494451 165.76 -0.239445 162.79 2.17055 160.41C4.32055 158.3 2.90055 157.2 1.17055 155.71C-0.769445 154.04 -0.139445 151.83 2.22055 151.46C5.19055 150.99 8.22055 150.43 11.2006 150.55C30.3206 151.32 49.4006 149.81 68.5006 149.62C92.3106 149.38 116.101 148.93 139.871 147.5C149.561 146.91 159.361 147.48 168.981 146.39C180.991 145.04 193.041 145.24 205.051 144.32C214.031 143.63 223.001 142.93 232.241 142.22C230.651 141.96 232.881 142.64 232.021 141.61C231.841 141.39 231.431 141.28 231.121 141.27C223.761 141.06 216.391 140.89 209.031 140.66C207.711 140.62 206.381 140.46 205.071 140.23C203.751 139.99 205.311 140.61 204.721 139.42C204.561 139.1 205.151 137.97 205.481 137.94C206.791 137.79 208.221 137.64 209.451 138.01C212.431 138.9 215.511 139.27 218.381 138.42C225.881 136.2 232.911 138.55 239.981 140.24C243.911 141.18 247.591 141.78 251.741 141.17C258.291 140.21 264.811 138.57 271.671 140.16C274.161 140.74 277.641 140.16 280.281 138.03C277.731 135.82 274.541 134.7 271.831 135.46C265.591 137.22 259.961 134.39 254.041 134.11C251.721 134 249.341 133.27 247.091 133.59C238.101 134.88 229.151 134.43 220.201 133.47C212.431 132.64 204.961 135.25 197.731 134.85C196.171 136.06 196.781 136.82 197.381 137.63C198.181 138.72 199.071 140.08 196.811 140.27C194.491 140.46 192.131 140.16 189.791 140.08H189.831C188.681 138.18 188.751 134.93 185.771 134.96C182.581 134.99 178.691 133.17 176.271 136.28C172.201 141.5 167.011 141.02 161.931 139.31C159.561 138.51 157.801 137.57 155.591 139.2C155.111 139.55 154.311 139.6 153.661 139.58C135.561 139.01 117.561 141.12 99.5106 141.8C84.4806 142.37 69.3606 142.66 54.5506 146.08C50.0006 147.13 45.2906 147.62 40.5606 147.07C38.1706 146.79 36.5906 145.3 36.9806 143.14C37.8306 138.31 36.5006 133.87 35.4506 129.33C35.3806 129.01 35.4606 128.66 35.4206 128.33C34.5106 121.5 37.6006 114.35 33.7606 107.76C33.7806 100.79 33.9006 93.8202 33.7706 86.8602C33.7206 83.9502 36.3306 82.2102 36.4706 79.4202C36.5706 77.4802 34.6306 75.4802 36.3106 73.7002C38.3806 71.5102 41.3006 72.2902 43.9106 72.0902C66.6206 70.2802 89.3206 68.4702 111.881 65.0302C120.461 63.7202 129.171 63.2802 137.831 62.4302C139.811 62.2402 141.911 62.5102 143.631 61.2402C144.081 60.9102 144.321 60.2402 144.531 59.6802C144.581 59.5602 144.121 59.1802 143.831 59.0202C143.561 58.8702 143.201 58.7302 142.901 58.7702C137.941 59.4502 132.981 59.1902 128.001 59.2102C123.471 59.2302 118.791 59.3902 114.541 62.2902C111.911 64.0802 108.031 64.9602 104.831 63.7402C97.5406 60.9602 90.2306 62.7102 82.9306 62.8402C77.9106 62.9302 72.8906 63.1902 67.8706 63.3002C64.7606 63.3702 61.8806 62.9002 60.0306 59.8802C58.2006 56.8802 54.8306 57.1102 51.9706 56.5202C49.0706 55.9202 47.4206 54.3902 46.0506 51.7602C41.8606 43.6502 38.8406 35.2302 37.8406 26.1202C37.4206 22.3202 39.2306 20.7402 43.2506 22.0402C47.4606 23.4002 51.7606 23.7802 56.1106 24.1102C74.2706 25.4702 92.2706 23.4902 110.311 21.8102C128.001 20.1602 145.721 18.7802 163.451 17.6802C180.521 16.6302 197.611 15.8402 214.701 15.3902C239.461 14.7402 264.241 14.5202 289.011 14.0602C293.701 13.9702 298.381 13.7002 303.061 13.3402C308.741 12.9102 314.401 12.2802 320.081 13.4002C321.371 13.6502 322.771 13.8802 324.031 13.6502C335.991 11.4202 348.101 13.0802 360.111 12.1602C370.451 11.3602 380.851 10.9702 391.221 10.9702C401.281 10.9702 411.181 9.6502 421.151 8.8102C429.801 8.0802 438.561 8.7202 447.241 8.3202C459.611 7.7502 471.971 6.7702 484.331 5.9702C498.031 5.0802 511.731 4.2602 525.421 3.2802C534.441 2.6402 543.451 1.8102 552.461 1.0002C554.791 0.790201 557.101 0.250201 559.431 0.0202012C562.071 -0.249799 564.511 2.2402 563.281 4.2902C559.501 10.6302 559.491 18.5402 554.651 24.4302C553.651 25.6502 553.241 27.4002 552.691 28.9602C550.571 34.9502 548.281 40.8802 546.511 46.9702C545.611 50.0802 543.821 51.2802 540.941 51.8202C531.351 53.6002 521.671 54.5502 511.931 54.6102C497.781 54.7002 483.921 57.2702 469.971 59.1302C467.381 59.4702 464.861 60.3102 462.361 61.4502C471.141 63.6802 480.121 61.6002 488.841 63.0602C497.751 64.5402 506.641 66.1202 515.741 65.9202C503.081 66.1102 490.411 66.4302 477.751 66.4602C467.711 66.4802 457.671 66.2602 447.641 65.9402C441.661 65.7502 435.781 64.5602 429.691 65.7302C427.501 66.1502 425.241 66.2702 423.031 67.0302C420.621 67.8502 417.921 69.2802 416.101 65.7302C415.811 65.1602 414.171 64.7402 413.441 65.0202C408.491 66.8802 403.671 65.2002 398.791 64.7802C397.141 64.6402 395.461 64.8902 393.701 64.9702C393.701 67.3302 395.551 66.1902 396.481 66.6002C397.641 67.1102 397.961 67.7402 396.971 68.6002C395.921 69.5102 394.531 71.1102 396.801 71.1102C400.191 71.1102 403.441 71.4902 406.741 72.0702C408.051 72.3002 409.501 72.7302 410.701 72.4102C418.641 70.2802 426.541 71.2402 434.461 72.4302C435.441 72.5802 436.531 72.2302 437.451 72.5002C440.931 73.5502 443.121 68.3802 447.561 71.1802C450.541 73.0602 455.271 72.2102 459.221 72.4802C462.901 72.7402 466.581 72.8302 470.261 73.0802C471.581 73.1702 473.001 73.9702 474.191 73.6702C482.641 71.5602 490.821 74.1602 499.101 74.8602C504.941 75.3602 510.591 76.2102 516.661 75.6902C529.591 74.5802 542.701 75.7802 555.581 73.2702C565.391 75.9502 574.741 73.3902 584.101 70.8002C585.501 70.4102 586.551 71.1202 587.211 72.5602C588.561 75.5402 588.481 78.4702 586.961 81.2602C582.031 90.3102 578.401 99.8902 575.241 109.66C574.651 111.48 573.481 112.4 571.621 112.52C566.601 112.85 561.581 113.14 556.561 113.48C554.341 113.63 552.901 114.74 552.151 116.91C549.451 124.72 547.311 132.74 543.411 140.11C542.491 141.85 543.931 144.32 546.051 144.63C548.351 144.97 550.901 145.63 552.991 144.99C556.821 143.83 560.161 144.31 563.581 146.03C565.001 146.74 567.191 145.94 568.021 147.67C568.911 149.51 568.811 151.78 567.781 153.47C565.451 157.29 564.171 161.38 563.911 165.76C563.671 169.81 560.881 172.91 560.661 177.21C560.381 182.78 558.071 188.24 556.671 193.76C556.111 195.98 554.751 197.07 552.481 197.37C546.881 198.1 541.521 199.24 535.611 198.18C528.471 196.9 521.011 196.54 513.661 198.11C510.751 198.73 507.611 198.91 504.661 198.55C501.011 198.1 497.441 196.83 494.511 200.24C486.731 200.5 478.581 202.88 471.871 196.66C470.471 195.37 468.971 195.09 467.311 195.19C454.611 195.94 441.851 194.91 429.171 196.42C428.171 196.54 427.171 196.69 426.171 196.67C420.541 196.56 414.921 196.41 409.291 196.27C404.851 200.19 399.071 198.89 393.941 200.11C390.511 200.92 386.721 201.8 384.281 197.5C383.221 195.62 380.791 195.65 378.791 195.63C367.751 195.52 356.691 195.29 345.901 198.33C342.001 199.43 338.011 199.83 333.961 199.4C328.111 198.77 322.661 200.01 317.551 202.88L317.751 202.65L317.731 202.66ZM310.691 148.29C311.501 148.78 312.301 149.29 313.121 149.76C313.371 149.9 313.711 150.04 313.981 149.99C314.201 149.95 314.371 149.63 314.561 149.44C314.151 149.06 313.771 148.42 313.321 148.37C312.401 148.26 311.441 148.47 310.531 148.55L310.781 149.01L310.701 148.3L310.691 148.29ZM298.151 141.02C298.951 140.53 299.701 139.92 300.561 139.58C301.661 139.14 303.311 139.54 303.211 137.59C303.201 137.34 302.921 137.02 302.691 136.89C301.351 136.15 299.971 136.68 299.231 137.61C298.521 138.5 298.471 139.93 298.131 141.04C296.971 139.95 295.901 138.73 294.611 137.83C293.921 137.35 292.691 137.27 292.521 138.6C292.471 139.01 293.091 139.8 293.551 139.94C295.051 140.42 296.621 140.68 298.171 141.03L298.151 141.02ZM400.941 58.3702C400.931 59.0802 400.911 59.7802 400.901 60.4902C411.121 60.1702 421.351 59.8602 431.571 59.5202C431.811 59.5202 432.121 59.1802 432.261 58.9202C432.371 58.7102 432.281 58.3902 432.281 57.3702C427.701 58.1802 422.711 59.6402 418.741 57.4202C412.161 53.7502 406.761 56.9402 400.941 58.3702ZM249.261 45.5102C247.931 45.0602 247.251 44.5602 246.711 44.6902C238.581 46.6202 230.331 46.6602 222.051 46.3802C221.571 46.3602 221.001 46.9802 220.581 47.4002C220.091 47.8902 221.321 49.6602 222.121 49.4402C230.201 47.1902 238.711 49.4302 246.761 46.9802C247.371 46.7902 247.891 46.3302 249.271 45.5202L249.261 45.5102ZM348.581 69.9302C356.741 71.0202 362.541 71.9502 368.391 70.4002C369.371 70.1402 370.181 69.3902 369.731 68.2302C369.381 67.3502 368.891 66.1502 368.171 65.9002C367.011 65.4902 365.561 65.4602 364.341 65.7502C359.861 66.8202 355.431 68.0902 348.581 69.9302ZM181.981 49.4602C193.041 51.4202 201.701 49.5502 210.351 49.9602C210.661 49.9702 211.031 49.8402 211.301 49.6602C211.541 49.4902 211.891 49.0602 211.831 48.9402C211.581 48.4902 211.101 47.7102 210.861 47.7702C201.971 49.6302 192.861 48.0402 181.991 49.4602H181.981ZM64.4106 140.4C72.1206 141.83 78.1406 141.26 84.1606 139.83C78.1906 138.34 72.2906 135.28 64.4106 140.4ZM445.541 123.96C441.971 121.58 438.681 121.62 435.451 121.59C435.001 121.59 434.361 122.23 434.141 122.73C433.821 123.46 434.271 124.15 435.071 124.21C438.271 124.44 441.491 125.03 445.541 123.97V123.96ZM166.481 57.1902C160.321 55.3102 156.441 58.2002 150.851 59.5602C156.641 60.0102 160.921 59.8402 166.481 57.1902ZM168.521 49.0002C168.331 49.0002 167.631 48.8702 167.011 49.0402C166.511 49.1802 166.111 49.6802 165.661 50.0302C166.141 50.4302 166.641 51.2002 167.091 51.1702C168.381 51.0902 169.651 50.6902 170.921 50.3902C171.241 50.3102 171.641 50.2302 171.831 50.0102C172.351 49.4002 172.031 49.1602 170.991 49.2302C170.331 49.2702 169.661 49.1102 168.521 49.0002ZM182.911 193.78C180.861 194.23 179.611 194.4 178.431 194.81C177.631 195.09 176.941 195.69 175.601 196.51C178.771 196.72 180.571 195.79 182.911 193.78ZM471.521 101.72C473.151 102.71 474.681 102.36 476.271 101.48C474.611 101.14 473.051 100.81 471.521 101.72ZM484.461 99.9202C483.501 99.9702 482.771 100.42 482.811 101.58C482.811 101.78 483.251 102.1 483.511 102.13C484.431 102.24 485.441 102.22 485.661 101.09C485.721 100.8 484.921 100.34 484.471 99.9202H484.461ZM428.711 100.18C429.101 99.9502 429.481 99.7302 429.871 99.5002C429.281 99.3802 428.681 99.1402 428.111 99.1902C427.721 99.2202 427.361 99.6502 426.991 99.9102C427.571 100 428.141 100.09 428.721 100.18H428.711ZM215.161 182.74C214.521 182.84 213.781 182.78 213.271 183.09C212.811 183.36 212.571 184.03 212.331 184.57C212.301 184.65 212.771 185.09 213.061 185.15C213.691 185.29 214.361 185.38 215.011 185.34C215.951 185.27 217.201 185.2 217.251 184.04C217.311 182.85 216.091 182.83 215.161 182.74ZM178.441 176.53C178.441 176.37 178.481 176.09 178.441 176.07C178.181 175.99 177.881 175.92 177.621 175.96C177.381 176 177.161 176.19 176.941 176.31C177.441 176.38 177.941 176.45 178.451 176.53H178.441ZM51.2706 183.21C51.0006 183.14 50.6506 182.93 50.4906 183.03C50.2606 183.16 50.0406 183.54 50.0606 183.8C50.1206 184.78 50.5606 184.91 51.1306 184.11C51.2906 183.89 51.2306 183.52 51.2706 183.22V183.21ZM75.5506 182.12C75.2206 182.1 74.7506 181.94 74.5806 182.1C74.0206 182.62 74.2906 183.09 75.2606 183.21C75.5206 183.24 75.8206 182.99 76.1006 182.87C75.9206 182.62 75.7306 182.37 75.5506 182.12ZM36.8706 186.6C37.1706 186.41 37.4706 186.22 37.7706 186.03C37.4906 185.99 37.2006 185.91 36.9306 185.94C36.6806 185.97 36.4306 186.12 36.1906 186.21C36.4206 186.34 36.6506 186.47 36.8706 186.6ZM232.001 194.28C231.381 194.2 230.751 194.07 230.131 194.06C229.991 194.06 229.841 194.43 229.701 194.63C230.331 194.72 230.951 194.85 231.581 194.88C231.711 194.88 231.861 194.49 232.001 194.28ZM230.141 59.6502C230.071 59.4102 230.061 59.0102 229.921 58.9502C229.641 58.8402 229.241 58.8202 228.981 58.9502C228.111 59.3702 228.221 59.7702 229.271 59.9302C229.541 59.9702 229.851 59.7502 230.141 59.6502ZM378.841 69.5702C378.791 69.3302 378.801 68.9602 378.671 68.8902C378.441 68.7802 378.071 68.7702 377.851 68.8902C377.121 69.3002 377.211 69.6902 378.091 69.8402C378.321 69.8802 378.591 69.6702 378.841 69.5702ZM394.871 122.44C395.101 122.27 395.341 122.09 395.571 121.92C395.081 121.67 394.621 121.37 394.101 121.21C393.941 121.16 393.661 121.54 393.441 121.72C393.921 121.96 394.391 122.2 394.871 122.44ZM97.7906 138.2C98.1106 138.22 98.4506 138.29 98.7506 138.22C98.8306 138.2 98.8106 137.75 98.8406 137.5C98.5206 137.47 98.1906 137.38 97.8906 137.45C97.8006 137.47 97.8206 137.94 97.7906 138.21V138.2ZM413.371 192.19C413.131 192.06 412.861 191.79 412.641 191.82C411.791 191.95 411.631 192.36 412.231 192.79C412.411 192.92 412.811 192.89 413.041 192.79C413.201 192.72 413.261 192.4 413.361 192.19H413.371ZM175.741 202.47C175.691 202.22 175.721 201.83 175.571 201.75C175.361 201.63 174.951 201.62 174.751 201.75C174.031 202.19 174.131 202.62 175.001 202.8C175.221 202.84 175.501 202.59 175.751 202.48L175.741 202.47ZM383.241 55.2802L383.901 55.7202L384.041 55.0602L383.241 55.2702V55.2802ZM240.451 57.3202L239.861 57.5902L240.471 57.8102L240.451 57.3202ZM117.791 204.62L117.861 204.14L117.251 204.32L117.801 204.62H117.791ZM377.621 121.58L377.541 122.07L378.151 121.9L377.621 121.58ZM145.791 206.11L145.721 206.74L146.521 206.48L145.791 206.11Z" fill="var(--fill-0, black)"/>
<path id="Vector_2" d="M545.061 65.0802H579.401C568.121 67.9002 556.791 68.0102 545.061 65.0802Z" fill="var(--fill-0, black)"/>
<path id="Vector_3" d="M336.011 206.39C339.371 205.45 340.591 200.81 344.691 200.9C347.801 200.97 350.321 202.24 353.961 204.09C347.671 207.13 342.081 207.47 336.011 206.39Z" fill="var(--fill-0, black)"/>
<path id="Vector_4" d="M211.401 223.64C209.151 223.86 207.491 224.11 205.841 224.13C205.331 224.13 204.811 223.55 204.301 223.23C204.631 222.72 204.871 221.87 205.301 221.77C206.901 221.37 208.551 221.05 210.191 221C214.091 220.89 217.961 217.45 221.891 220.88C218.931 224.72 214.441 222.49 211.411 223.64H211.401Z" fill="var(--fill-0, black)"/>
<path id="Vector_5" d="M317.531 202.89C319.321 207.05 323.651 206.86 327.011 208.87C322.491 209.12 317.971 209.36 312.561 209.66C313.851 206.46 317.941 205.99 317.711 202.69C317.731 202.67 317.531 202.89 317.531 202.89Z" fill="var(--fill-0, black)"/>
<path id="Vector_6" d="M151.011 230.13C150.341 232.25 146.591 233.67 144.631 232.36C143.721 231.76 144.191 230.61 144.801 229.9C146.221 228.24 148.131 228.17 150.041 228.71C150.461 228.83 150.691 229.64 151.011 230.14V230.13Z" fill="var(--fill-0, black)"/>
<path id="Vector_7" d="M166.131 229.12C165.011 229.3 163.771 229.68 162.551 229.62C161.851 229.59 161.681 228.5 162.351 228.19C163.151 227.83 164.171 227.91 165.091 227.88C165.951 227.85 166.321 228.22 166.131 229.11V229.12Z" fill="var(--fill-0, black)"/>
<path id="Vector_8" d="M189.771 140.11H181.621C184.471 138.36 187.111 139.43 189.801 140.11C189.821 140.11 189.771 140.11 189.771 140.11Z" fill="var(--fill-0, black)"/>
<path id="Vector_9" d="M114.781 186.12C115.861 185.95 116.741 185.73 117.621 185.7C118.471 185.67 118.811 186.19 118.311 186.48C117.851 186.76 117.151 186.75 116.581 186.7C116.041 186.65 115.531 186.37 114.781 186.12Z" fill="var(--fill-0, black)"/>
<path id="Vector_10" d="M526.601 66.1802C526.101 65.9802 525.591 65.7802 525.091 65.5802C525.361 65.4702 525.651 65.2202 525.881 65.2702C526.401 65.3702 526.881 65.6202 527.381 65.8102C527.121 65.9302 526.861 66.0602 526.591 66.1802H526.601Z" fill="var(--fill-0, black)"/>
<path id="Vector_11" d="M480.151 69.6902L480.541 69.4102L481.131 69.6302L480.151 69.6902Z" fill="var(--fill-0, black)"/>
<path id="Vector_12" d="M268.471 214.56C268.761 214.45 269.101 214.18 269.301 214.26C270.021 214.55 270.021 215.06 269.301 215.5C269.121 215.61 268.671 215.5 268.491 215.32C268.361 215.2 268.461 214.82 268.461 214.56H268.471Z" fill="var(--fill-0, black)"/>
<path id="Vector_13" d="M306.391 210.1L306.991 210.39L306.361 210.64L306.391 210.1Z" fill="var(--fill-0, black)"/>
<path id="Vector_14" d="M257.461 216.55C257.231 216.63 256.991 216.8 256.781 216.77C256.581 216.74 256.421 216.5 256.241 216.35C256.461 216.27 256.701 216.1 256.911 216.13C257.111 216.16 257.281 216.4 257.461 216.55Z" fill="var(--fill-0, black)"/>
<path id="Vector_15" d="M175.091 228.3C176.061 227.37 175.961 229.36 175.821 228.03C175.801 227.8 175.641 227.4 175.531 227.39C174.751 227.37 174.511 227.78 174.791 228.5L175.091 228.3Z" fill="var(--fill-0, black)"/>
<path id="Vector_16" d="M174.791 228.51C174.591 227.18 175.831 228.61 174.701 227.89C174.831 228.02 174.961 228.15 175.091 228.29C175.091 228.31 174.791 228.51 174.791 228.51Z" fill="var(--fill-0, black)"/>
</g>
</svg>
