<svg preserveAspectRatio="none" width="100%" height="100%" overflow="visible" style="display: block;" viewBox="0 0 964.423 290.385" fill="none" xmlns="http://www.w3.org/2000/svg">
<g id="Layer_1-2">
<path id="Vector" d="M762.233 210.211C762.803 210.851 763.373 211.481 764.023 212.211C766.333 212.381 768.653 212.621 770.973 212.721C785.243 213.301 799.523 213.941 813.793 214.391C822.823 214.671 831.873 214.621 840.913 214.811C845.273 214.901 849.633 215.331 853.993 215.381C857.483 215.421 860.993 215.281 864.453 214.891C867.733 214.521 870.843 214.931 873.913 215.961C874.343 216.101 874.613 216.691 875.153 217.291C871.243 219.701 866.863 220.551 862.573 220.521C855.923 220.481 849.253 220.341 842.623 220.521C836.843 220.671 831.063 218.811 824.583 221.231C823.673 222.651 822.283 224.831 820.883 227.011C820.773 230.851 819.293 234.521 820.743 238.551C821.823 238.911 822.873 239.351 823.973 239.601C825.103 239.861 826.273 239.981 827.433 240.071C838.183 240.881 848.913 241.861 859.673 242.421C874.813 243.201 889.943 244.051 905.033 245.601C913.143 246.431 921.303 246.821 929.433 247.491C935.533 247.991 941.623 248.701 947.723 249.181C951.783 249.501 955.863 249.591 960.553 249.811C961.493 250.501 962.873 251.511 964.423 252.641C964.333 254.141 964.563 255.671 964.123 256.961C961.453 264.661 958.723 272.331 957.863 280.511C957.803 281.081 957.673 281.681 957.453 282.201C956.313 284.861 955.133 287.491 953.983 290.111C951.423 290.901 949.283 289.791 947.133 289.191C945.213 288.651 943.403 287.721 941.543 286.971C943.713 285.581 946.693 287.431 948.893 285.351C948.203 284.901 947.773 284.391 947.283 284.321C943.263 283.741 939.253 282.921 935.213 282.821C930.533 282.701 925.963 282.291 921.333 281.511C916.483 280.701 911.473 280.761 906.523 280.601C903.313 280.501 900.163 280.141 896.973 279.781C890.063 278.991 883.123 278.441 876.153 278.121C866.273 277.661 856.423 276.571 846.563 275.771C843.963 275.561 841.353 275.211 838.763 275.341C832.843 275.641 827.233 274.391 821.523 272.331C816.913 272.661 811.963 275.531 808.033 271.511C805.943 271.941 804.523 272.241 802.693 272.621C798.023 270.691 792.873 270.171 787.643 271.771C785.363 270.961 783.183 270.191 780.433 269.221C778.693 269.331 776.383 269.651 774.083 269.581C770.433 269.471 766.813 269.971 763.203 268.181C760.703 266.941 757.563 266.661 754.803 268.321C751.333 268.221 747.913 266.861 744.433 268.091C740.493 267.071 736.363 267.101 732.463 266.251C726.123 264.851 719.723 265.561 713.403 264.731C709.323 266.011 705.353 264.511 701.343 264.201C698.163 263.951 695.023 263.211 691.853 262.681C690.443 263.091 689.063 263.501 687.683 263.901C687.103 263.831 686.493 263.881 685.963 263.681C682.623 262.461 679.283 262.011 675.703 262.671C673.463 263.081 671.073 262.751 668.333 262.751C666.603 261.931 664.503 260.931 662.663 260.051H649.973C649.093 259.811 647.173 258.971 645.193 258.811C642.633 258.601 640.013 258.881 637.433 259.041C635.693 259.151 633.963 259.401 632.233 259.601C628.663 260.011 625.273 259.631 622.173 257.591C621.473 257.131 620.553 257.001 619.433 256.611C612.793 258.001 605.893 257.921 598.943 257.041C596.103 256.681 593.173 256.981 589.523 256.981C589.183 256.831 588.123 256.351 587.073 255.871C586.503 255.821 585.923 255.691 585.353 255.731C583.903 255.821 582.463 256.141 581.023 256.101C571.993 255.821 562.943 256.181 553.953 254.991C551.943 254.721 549.883 254.491 547.873 254.631C541.753 255.061 535.703 253.911 529.593 254.031C523.773 254.141 517.943 253.991 512.123 253.821C510.753 253.781 509.403 253.211 508.173 252.911C507.503 253.281 507.003 253.561 506.233 253.991C502.243 253.021 497.813 253.511 493.683 251.571C492.263 250.901 490.003 250.931 488.583 251.601C485.753 252.941 482.913 252.601 480.033 252.611C472.453 252.651 464.883 252.671 457.303 252.681C455.853 252.681 454.323 252.831 452.973 252.441C450.943 251.851 449.033 252.021 446.973 252.201C444.403 252.421 441.773 251.971 438.213 251.751C435.473 252.421 431.773 253.241 427.953 252.271C426.843 251.991 425.593 251.761 424.503 251.991C418.753 253.181 412.923 252.391 407.143 252.771C399.923 253.251 392.623 252.991 385.363 253.241C380.713 253.401 376.063 253.431 371.403 253.651C365.043 253.951 358.603 253.811 352.363 251.751C346.483 254.021 340.403 254.291 334.263 254.311C322.023 254.351 309.793 254.561 297.553 254.651C293.773 254.681 289.983 254.381 286.203 254.491C271.353 254.911 256.493 254.311 241.633 255.061C231.173 255.591 220.673 255.141 210.193 255.201C207.293 255.221 204.403 255.501 200.593 255.721C191.973 254.111 182.333 254.711 172.723 254.611C169.823 254.581 166.923 254.341 164.023 254.131C157.363 253.661 150.763 252.351 144.013 252.991C141.773 253.201 139.313 252.771 137.173 252.031C134.603 251.141 132.043 250.941 129.433 251.031C120.413 251.341 111.413 251.871 102.373 251.301C99.783 251.141 97.143 251.711 94.523 251.861C91.903 252.001 89.273 252.131 86.653 252.081C84.343 252.041 82.033 251.741 79.853 251.561C78.803 250.641 77.943 249.881 76.993 249.051C75.703 248.711 74.323 248.351 73.013 248.001C72.673 247.421 72.193 246.951 72.123 246.431C71.563 242.391 71.073 238.341 70.573 234.291C70.363 232.571 70.333 230.801 69.153 229.371C68.653 229.081 68.173 228.571 67.673 228.551C63.613 228.361 59.843 226.551 55.693 226.631C51.353 226.721 47.023 226.441 42.813 224.781C40.433 223.841 37.663 223.431 35.083 223.511C27.143 223.761 19.443 222.041 11.623 221.271C9.473 219.841 7.343 218.421 4.423 216.471C4.093 215.791 2.933 214.301 2.643 212.661C1.593 206.651 0.803 200.601 0.0129995 194.541C-0.0870005 193.761 0.413 192.901 0.723 191.761C2.093 191.561 3.493 191.161 4.883 191.181C11.583 191.291 18.283 191.551 24.983 191.681C26.093 191.701 27.213 191.341 28.413 191.141C30.293 185.891 30.063 180.671 29.403 175.531C28.723 170.251 29.223 165.081 29.683 159.491C30.993 158.611 32.283 157.331 33.833 156.811C36.573 155.901 39.443 155.221 42.313 154.861C48.383 154.101 54.473 153.451 60.623 153.601C62.903 153.661 65.203 153.191 67.553 152.951C69.283 148.611 70.943 144.611 69.653 140.301C68.593 138.781 67.193 138.431 65.703 138.421C62.503 138.391 59.303 138.411 56.033 138.411C54.193 137.251 52.383 135.741 50.313 134.891C48.213 134.031 45.843 133.811 43.613 133.311C42.293 132.311 42.223 130.831 42.043 129.391C41.333 123.911 41.203 118.381 39.373 113.031C38.553 110.641 38.873 107.871 38.703 105.621C37.353 103.301 35.403 102.731 33.353 102.431C31.663 102.181 29.953 102.091 28.333 101.941C26.343 98.1214 26.363 94.3314 26.163 90.5614C25.813 83.8914 25.433 77.2114 24.973 70.5514C24.893 69.4314 24.363 68.3514 24.013 67.1614C21.713 66.3314 19.543 65.5514 17.553 64.8314C17.053 64.2114 16.533 63.8214 16.343 63.3114C14.843 59.1914 13.913 55.0114 13.983 50.5314C14.093 44.4214 13.813 38.3014 13.453 32.1914C13.313 29.7814 13.473 27.5714 14.843 25.1614C16.163 24.5814 17.723 23.9014 19.283 23.2114C19.453 22.6714 19.823 22.1014 19.763 21.5914C19.353 18.1214 18.783 14.6614 18.423 11.1914C18.303 10.0814 18.603 8.92138 18.773 7.79138C18.813 7.55138 19.143 7.36138 19.553 6.92138C21.733 5.73138 24.443 6.50138 26.973 6.04138C29.553 5.57138 32.133 4.97138 34.733 4.80138C42.003 4.32138 49.323 4.33138 56.563 3.59138C71.083 2.12138 85.703 3.07138 100.223 1.41138C105.713 0.781383 111.293 0.921383 116.833 0.731383C123.533 0.501383 130.233 0.211383 136.933 0.101383C143.923 -0.00861726 150.923 -0.0486173 157.923 0.0813827C171.043 0.311383 184.153 0.621383 197.263 1.04138C202.503 1.21138 207.723 1.75138 212.963 2.12138C215.873 2.33138 218.783 2.52138 221.693 2.73138C226.343 3.06138 230.993 3.39138 235.643 3.74138C237.093 3.85138 238.543 4.12138 240.003 4.15138C256.053 4.50138 271.983 6.55138 287.983 7.56138C298.743 8.24138 309.483 9.17138 320.243 9.89138C335.363 10.9014 350.473 12.0214 365.593 13.0714C374.313 13.6814 383.053 14.0814 391.763 14.8514C408.303 16.3014 424.823 17.9514 441.353 19.4714C444.543 19.7614 447.753 19.8214 450.963 20.0014C453.293 20.1314 455.683 19.9714 457.943 20.4514C464.853 21.8914 471.883 21.6114 478.843 22.1714C483.493 22.5414 488.133 23.0114 492.783 23.2814C497.433 23.5514 502.103 23.7114 506.763 23.7614C511.723 23.8114 516.653 24.1514 521.593 24.6214C528.253 25.2514 534.973 25.4114 541.673 25.6014C548.373 25.7814 555.083 25.7414 561.793 25.8214C563.543 25.8414 565.313 25.8114 567.033 26.0714C574.853 27.2414 582.723 27.2914 590.603 27.1814C594.393 27.1314 598.183 27.4014 601.973 27.5214C620.913 28.1114 639.853 28.6514 658.783 29.2914C671.893 29.7414 685.003 30.3814 698.113 30.8214C705.673 31.0814 713.243 31.1214 720.813 31.2614C721.393 31.2714 721.983 31.2714 722.563 31.3414C737.083 33.1714 751.693 32.2614 766.253 32.8314C770.043 32.9814 773.813 33.3514 777.603 33.4714C792.753 33.9414 807.903 34.3714 823.063 34.7914C836.173 35.1614 849.273 35.5714 862.383 35.8614C872.593 36.0914 882.793 36.1214 893.003 36.3214C899.703 36.4514 906.403 36.8014 913.103 36.8614C917.753 36.9014 922.403 36.6114 926.823 36.4714C928.613 37.2914 929.043 38.7314 928.833 40.1914C928.153 44.8114 927.313 49.4014 926.513 54.1114C926.823 55.7014 927.163 57.4114 927.503 59.1614C924.373 71.8914 921.253 84.6214 918.203 97.0414C916.783 99.0014 915.593 100.651 914.553 102.091C910.9 117.251 909.17 126.711 909.363 130.471C910.353 131.791 911.813 131.961 913.263 132.061C919.373 132.481 925.493 132.841 931.593 133.281C934.503 133.491 937.413 133.721 940.293 134.161C941.333 134.321 942.283 135.111 942.823 135.391C943.873 137.321 943.703 138.821 943.373 140.201C940.823 151.211 938.123 162.191 934.613 172.881C931.363 174.181 928.403 175.371 924.893 176.781C921.923 176.781 918.423 176.781 914.933 176.781C911.473 176.791 908.023 175.851 905.003 176.321C902.543 178.181 901.793 180.381 901.593 182.741C901.223 187.171 899.333 191.161 898.053 195.331C897.633 196.691 896.703 197.891 895.863 199.441C894.063 200.001 892.183 200.731 890.223 201.171C888.533 201.541 886.783 201.581 884.783 201.791C883.993 202.941 883.043 204.041 882.413 205.291C881.773 206.561 881.433 207.991 881.103 208.961C878.283 211.631 875.313 212.551 871.973 212.551C862.933 212.531 853.893 212.661 844.853 212.471C837.873 212.321 830.833 212.891 823.923 211.311C816.933 211.781 809.953 211.311 802.963 211.051C793.353 210.711 783.723 210.771 774.133 210.231C770.053 210.001 766.043 210.101 762.003 210.421C760.313 209.671 758.633 208.901 756.513 210.111C758.663 211.281 760.433 210.971 762.213 210.221L762.233 210.211ZM678.853 256.661C679.633 257.021 680.403 257.651 681.203 257.691C684.963 257.911 688.733 258.001 692.493 258.051C693.313 258.061 694.133 257.701 694.943 257.511C689.493 256.911 684.093 256.221 678.653 256.851C677.963 256.331 677.273 255.821 676.203 255.011C671.953 254.931 667.343 254.821 662.733 254.781C662.193 254.781 661.103 254.631 661.523 256.061C667.333 256.261 673.093 256.461 678.843 256.661H678.853ZM631.483 253.221C638.203 254.891 644.343 254.991 652.423 253.531C648.923 253.351 645.723 253.361 642.563 252.991C638.753 252.541 635.023 252.721 631.273 253.391C628.733 251.841 625.993 251.251 623.003 251.271C614.903 251.321 606.813 250.991 598.773 249.861C597.063 249.621 595.323 249.551 593.593 249.541C593.093 249.541 592.593 250.001 591.883 250.361C592.803 250.701 593.563 251.181 594.353 251.241C596.363 251.391 598.453 251.031 600.383 251.451C606.953 252.881 613.593 252.901 620.253 252.861C623.993 252.841 627.743 253.091 631.493 253.221H631.483ZM530.633 247.921C532.323 248.311 534.003 248.991 535.693 249.031C543.793 249.201 551.893 249.171 559.993 249.251C562.293 249.271 564.673 249.091 566.873 249.621C571.713 250.781 576.643 250.581 581.523 251.051C582.173 251.111 582.873 250.591 583.693 250.281C583.243 249.911 583.013 249.581 582.793 249.581C577.613 249.541 572.493 248.801 567.343 248.341C555.853 247.321 544.263 247.991 532.873 246.301C532.053 247.011 531.413 247.561 530.773 248.121C529.743 247.631 528.753 246.851 527.673 246.691C522.013 245.851 516.333 245.591 510.303 246.451C511.103 246.931 511.523 247.391 511.983 247.431C517.683 247.861 523.383 248.261 529.093 248.591C529.593 248.621 530.113 248.161 530.633 247.921ZM581.093 200.481C581.823 200.921 582.503 201.641 583.273 201.741C585.283 202.011 587.333 202.081 589.363 202.111C598.943 202.221 608.523 202.251 618.043 203.501C619.483 203.691 620.953 203.621 622.403 203.671C629.383 203.911 636.353 204.181 643.333 204.381C644.473 204.411 645.623 204.191 646.763 204.001C647.513 203.881 647.743 203.401 647.373 202.461C642.003 202.541 636.553 201.661 631.023 201.891C627.553 202.031 624.003 201.901 620.593 201.301C615.383 200.381 610.173 200.261 604.943 200.331C598.833 200.411 592.743 200.571 586.713 199.251C584.613 198.791 582.673 199.311 580.973 200.661C580.343 200.151 579.753 199.281 579.073 199.201C576.193 198.851 573.293 198.701 570.393 198.551C566.043 198.321 561.683 198.161 557.333 197.941C548.323 197.481 539.323 196.971 530.323 196.561C525.963 196.371 521.473 196.991 517.263 196.141C512.033 195.091 506.853 195.291 501.643 195.141C494.083 194.921 486.513 194.921 478.963 194.571C473.743 194.331 468.563 193.521 463.313 193.541C459.543 193.551 455.773 193.451 452.003 193.291C447.363 193.091 442.723 192.781 438.083 192.501C436.633 192.411 435.183 192.221 433.733 192.171C423.263 191.841 412.793 191.491 402.323 191.231C397.763 191.121 393.183 190.981 388.433 192.251C390.593 193.381 392.623 193.451 394.633 193.471C400.453 193.531 406.273 193.491 412.103 193.581C416.453 193.641 420.883 193.381 425.143 194.071C431.803 195.151 438.473 195.191 445.163 195.321C448.363 195.381 451.563 195.461 454.753 195.641C462.593 196.061 470.423 196.801 478.273 196.931C490.203 197.121 502.123 197.341 514.033 198.071C526.233 198.821 538.443 199.581 550.653 200.181C559.373 200.611 568.093 200.811 576.823 201.031C578.243 201.071 579.673 200.671 581.103 200.471L581.093 200.481ZM523.443 93.3114C531.543 94.1014 539.653 94.8814 547.753 95.6814C549.203 95.8214 550.643 96.0614 552.093 96.1714C557.023 96.5614 561.963 96.9514 566.903 97.2814C569.233 97.4314 571.563 97.3914 573.893 97.5214C580.863 97.9214 587.823 98.5714 594.803 98.7314C609.373 99.0714 623.943 99.1714 638.513 99.3714C640.263 99.3914 642.043 99.2814 643.753 99.5914C649.263 100.571 654.803 100.281 660.323 100.071C668.763 99.7514 677.203 99.8514 685.643 99.5914C701.663 99.1114 717.703 99.1814 733.723 98.9714C738.093 98.9114 742.453 98.6914 746.823 98.5114C747.063 98.5114 747.283 98.2114 747.563 98.0214C747.333 97.6414 747.103 96.9314 746.853 96.9214C743.663 96.7614 740.463 96.8314 737.293 96.5814C721.303 95.3114 705.283 94.9914 689.253 94.9014C680.513 94.8514 671.763 94.7014 663.023 94.4914C650.493 94.2014 637.973 93.6814 625.443 93.5014C601.243 93.1614 577.043 92.9914 552.843 92.7214C551.103 92.7014 549.363 92.4614 547.613 92.3414C539.473 91.7514 531.343 91.4914 523.433 93.3014L523.443 93.3114ZM344.573 191.031C352.683 191.801 359.523 192.381 366.833 190.821C362.763 190.061 359.173 189.401 355.233 188.661C354.263 188.951 352.913 189.361 351.613 189.761C350.683 189.511 349.863 189.261 349.043 189.071C348.243 188.891 347.423 188.771 346.723 188.641C346.213 189.201 345.853 189.601 344.573 191.031ZM392.053 246.981C398.373 246.981 403.493 246.991 408.613 246.971C409.433 246.971 410.253 246.791 411.073 246.701C405.393 246.231 399.713 246.121 394.043 246.041C393.793 246.041 393.543 246.271 392.063 246.991L392.053 246.981ZM748.493 262.191C759.433 263.871 760.533 263.851 765.393 262.181C759.363 261.131 753.913 262.011 748.493 262.191ZM421.363 246.791H434.353C434.463 246.151 434.553 245.691 434.693 244.861C430.193 246.581 425.603 246.041 421.363 246.791ZM464.223 159.931C466.793 159.791 469.363 159.491 471.923 159.551C474.513 159.611 477.093 160.081 479.683 160.251C480.123 160.281 480.603 159.721 481.053 159.431C480.763 159.041 480.463 158.641 480.053 158.081C477.573 158.351 474.973 158.561 472.403 158.921C469.573 159.321 466.723 157.941 464.213 159.931H464.223ZM373.163 192.241C379.453 193.141 379.463 193.131 381.443 191.811C380.823 191.251 380.233 190.701 379.703 190.211C377.453 190.031 375.203 189.281 373.163 192.241ZM702.673 259.521C707.083 259.681 710.813 259.861 714.543 259.921C715.073 259.921 716.263 260.041 715.793 258.371C713.593 258.331 711.313 258.421 709.063 258.221C706.883 258.021 704.723 257.531 702.503 257.161C702.553 257.881 702.593 258.381 702.673 259.521ZM454.223 246.791L454.073 246.061C450.723 245.991 447.383 245.931 444.033 245.861C444.073 246.101 444.113 246.341 444.183 246.791H454.223ZM421.003 157.491C421.873 157.671 422.423 157.891 422.983 157.891C426.463 157.931 429.933 157.921 433.413 157.901C433.583 157.901 433.753 157.621 434.173 157.261C429.723 157.421 425.523 156.481 421.013 157.491H421.003ZM476.293 247.311C481.593 247.311 484.673 247.331 487.753 247.281C488.093 247.281 488.433 246.851 489.383 246.191C485.713 246.081 482.663 245.971 479.613 245.941C479.113 245.941 478.603 246.331 476.303 247.311H476.293ZM383.153 247.231C383.163 246.891 383.183 246.541 383.193 246.201C380.063 246.201 376.923 246.191 373.793 246.221C373.563 246.221 373.343 246.541 373.113 246.711C373.323 246.881 373.543 247.201 373.753 247.211C376.883 247.241 380.013 247.231 383.153 247.231ZM728.303 260.841C732.493 262.181 735.463 261.661 739.473 260.841C735.513 259.971 732.623 259.001 728.303 260.841ZM810.713 266.361C810.723 266.171 810.743 265.981 810.753 265.791C808.083 265.611 805.423 265.371 802.753 265.291C801.983 265.271 801.833 265.831 802.393 266.361H810.723H810.713ZM166.413 195.681C167.623 196.781 168.833 196.641 170.043 195.691C168.863 193.471 167.873 193.471 166.413 195.681ZM144.193 193.961C145.533 196.151 145.783 196.341 147.473 195.811C147.843 195.701 148.043 194.951 148.243 194.461C148.273 194.381 147.893 193.991 147.703 193.981C146.593 193.931 145.483 193.961 144.193 193.961ZM179.733 194.301C179.963 194.791 180.133 195.311 180.433 195.741C180.553 195.921 181.043 196.051 181.213 195.941C181.823 195.581 182.373 195.101 182.993 194.641C181.743 193.381 180.753 193.391 179.733 194.301ZM508.053 188.631C506.583 189.261 504.983 187.601 502.833 189.761C505.073 189.181 506.623 189.891 508.053 188.631ZM405.693 218.181C405.023 217.661 404.443 217.151 403.803 216.741C403.663 216.651 403.243 216.811 403.073 216.981C402.913 217.131 402.783 217.531 402.873 217.691C403.493 218.771 404.293 219.371 405.703 218.181H405.693ZM606.973 188.741C607.713 189.101 608.173 189.501 608.613 189.481C609.003 189.461 609.363 188.971 609.733 188.691C609.413 188.301 608.963 187.521 608.783 187.581C608.173 187.781 607.663 188.271 606.973 188.741ZM662.163 203.211C661.663 203.391 661.023 203.431 660.693 203.771C660.173 204.301 660.393 204.981 661.113 205.071C661.603 205.131 662.143 204.761 662.663 204.581C662.493 204.121 662.333 203.671 662.163 203.211ZM364.003 246.841V246.681H362.013V246.841H364.003ZM191.683 193.351C193.543 195.285 195.08 195.468 196.293 193.901C195.103 193.761 194.113 193.641 191.683 193.351ZM585.203 164.871C584.253 163.861 583.423 164.021 582.183 164.681C583.373 164.761 584.193 164.811 585.203 164.871ZM546.353 162.891C546.853 163.041 547.343 163.241 547.843 163.311C548.053 163.341 548.293 163.061 548.523 162.921C548.183 162.651 547.843 162.171 547.513 162.181C547.123 162.191 546.743 162.631 546.363 162.891H546.353ZM566.123 164.131C565.853 164.061 565.563 163.891 565.313 163.931C564.383 164.071 564.333 164.421 565.183 164.771C565.413 164.871 565.763 164.811 566.013 164.711C566.113 164.671 566.093 164.341 566.133 164.131H566.123ZM213.183 194.531C212.353 194.201 211.903 193.961 211.413 193.851C211.223 193.811 210.913 194.011 210.753 194.181C210.253 194.731 210.753 195.971 211.473 195.841C212.043 195.741 212.523 195.071 213.183 194.531ZM221.853 194.951C223.653 194.691 224.683 195.891 225.623 194.001C224.553 193.231 223.593 193.251 221.853 194.951ZM674.083 204.601C674.503 204.831 674.913 205.121 675.363 205.261C675.533 205.311 675.813 205.011 676.043 204.871C675.493 204.021 674.833 203.991 674.083 204.601ZM453.283 208.571H455.713C454.763 207.341 454.083 207.461 453.283 208.571ZM719.843 208.821C720.603 208.971 721.013 208.721 720.893 208.091C720.853 207.911 720.393 207.621 720.243 207.681C719.833 207.851 719.483 208.171 719.113 208.431C719.353 208.561 719.603 208.691 719.843 208.811V208.821ZM729.543 208.801C729.863 208.571 730.183 208.331 730.503 208.101C730.253 208.021 729.963 207.821 729.773 207.891C729.423 208.021 729.143 208.301 728.823 208.521C729.063 208.611 729.303 208.711 729.543 208.801ZM332.293 216.871C333.443 217.951 334.493 218.061 335.543 216.661C334.313 216.011 333.263 215.891 332.293 216.871ZM363.353 216.511C364.353 218.231 365.333 217.261 368.053 216.921C365.393 216.691 364.513 216.611 363.353 216.511ZM366.493 240.361C366.033 240.641 365.573 240.921 365.123 241.201C365.463 241.531 365.793 242.101 366.153 242.121C366.573 242.141 367.013 241.691 367.453 241.441C367.133 241.081 366.823 240.721 366.503 240.361H366.493ZM349.853 246.671C350.383 246.981 350.963 247.791 351.343 246.531C350.843 246.581 350.343 246.621 349.853 246.671ZM826.243 267.841L826.763 267.621L826.113 267.501L826.243 267.841ZM858.893 269.931C859.823 269.891 860.533 269.851 861.483 269.811C860.473 268.731 859.753 268.641 858.893 269.931ZM355.643 122.401C355.293 122.651 354.923 122.901 354.603 123.191C354.573 123.221 354.863 123.581 355.003 123.791C355.363 123.531 355.723 123.281 356.043 122.991C356.063 122.971 355.783 122.611 355.643 122.411V122.401ZM377.723 183.491C376.983 183.251 376.663 183.441 376.893 184.001C376.933 184.111 377.383 184.091 377.623 184.041C377.693 184.031 377.693 183.681 377.723 183.491ZM548.193 185.761C548.173 185.521 548.183 185.121 548.133 185.111C547.863 185.071 547.583 185.131 547.303 185.151C547.333 185.351 547.303 185.701 547.393 185.731C547.643 185.811 547.923 185.761 548.203 185.761H548.193ZM582.313 192.141C581.393 192.381 581.383 192.651 582.313 192.841C582.513 192.881 582.773 192.621 583.003 192.501C582.773 192.381 582.543 192.261 582.313 192.141ZM139.303 194.251C138.793 194.111 138.233 193.771 137.803 193.901C137.483 194.001 137.343 194.691 137.123 195.121C137.583 195.271 138.163 195.651 138.483 195.501C138.873 195.321 139.043 194.681 139.303 194.241V194.251ZM351.923 206.361C352.043 206.531 352.133 206.771 352.303 206.841C352.513 206.921 352.873 206.971 353.003 206.841C353.453 206.441 353.283 206.111 352.573 206.071C352.363 206.061 352.143 206.251 351.933 206.351L351.923 206.361ZM361.943 206.361C362.383 206.621 362.813 207.081 363.253 207.091C363.713 207.111 364.193 206.701 364.663 206.481C364.223 206.211 363.793 205.761 363.343 205.741C362.883 205.721 362.413 206.131 361.943 206.361ZM396.153 206.771C396.113 206.571 396.143 206.271 396.023 206.211C395.833 206.101 395.503 206.041 395.323 206.141C394.673 206.471 394.733 206.811 395.483 206.971C395.683 207.011 395.923 206.851 396.153 206.781V206.771ZM699.323 207.691C699.733 207.361 700.153 207.031 700.563 206.701C700.183 206.351 699.813 205.741 699.423 205.731C699.013 205.731 698.593 206.291 698.183 206.611C698.563 206.971 698.943 207.331 699.323 207.691ZM442.733 208.481L442.653 208.001L442.043 208.251L442.733 208.481ZM495.773 247.321C496.183 247.121 496.603 246.931 497.013 246.731C496.563 246.541 496.133 246.291 495.673 246.171C495.483 246.121 495.213 246.351 494.983 246.461C495.243 246.751 495.513 247.041 495.773 247.321ZM505.193 247.351C504.223 246.611 503.893 246.271 503.483 246.081C503.303 246.001 502.933 246.151 502.733 246.301C502.573 246.421 502.533 246.691 502.443 246.901C503.133 247.011 503.813 247.121 505.193 247.341V247.351ZM638.463 248.521C638.393 248.311 638.343 247.941 638.253 247.931C637.783 247.871 637.223 247.751 636.863 247.951C636.323 248.261 636.473 248.811 637.163 248.921C637.573 248.981 638.033 248.671 638.473 248.531L638.463 248.521ZM341.233 122.471C341.113 122.261 341.033 121.931 340.853 121.851C340.143 121.551 339.763 121.821 339.913 122.531C339.943 122.691 340.343 122.891 340.553 122.871C340.783 122.851 341.003 122.611 341.223 122.471H341.233ZM265.963 117.161C265.733 117.181 265.403 117.101 265.293 117.221C264.843 117.711 264.983 118.101 265.653 118.191C265.813 118.211 266.113 117.971 266.153 117.801C266.203 117.621 266.033 117.371 265.963 117.151V117.161ZM515.203 161.311C516.003 161.581 516.343 161.381 516.083 160.741C516.033 160.631 515.553 160.651 515.293 160.711C515.223 160.731 515.233 161.101 515.203 161.311ZM259.383 124.421C259.173 124.291 258.973 124.051 258.763 124.041C257.963 124.021 257.803 124.381 258.373 124.931C258.523 125.071 258.893 125.131 259.073 125.041C259.233 124.961 259.283 124.641 259.383 124.421ZM296.223 118.911C296.073 119.081 295.783 119.261 295.793 119.431C295.823 120.161 296.203 120.351 296.743 119.911C296.873 119.801 296.913 119.411 296.823 119.231C296.743 119.071 296.433 119.011 296.223 118.911ZM389.033 125.841H387.653C387.783 126.001 387.883 126.241 388.053 126.301C388.283 126.391 388.593 126.421 388.823 126.341C388.953 126.301 388.983 125.981 389.033 125.841ZM635.403 168.261C635.413 168.091 635.433 167.931 635.443 167.761C634.733 167.701 634.033 167.641 633.323 167.581C633.313 167.761 633.293 167.931 633.283 168.111C633.993 168.161 634.693 168.211 635.403 168.261ZM397.273 126.051C398.233 127.171 399.143 127.021 400.033 125.961C399.073 125.021 398.163 124.831 397.273 126.051ZM324.243 189.121C324.113 188.961 324.023 188.721 323.853 188.651C323.653 188.571 323.303 188.531 323.173 188.651C322.733 189.051 322.903 189.351 323.603 189.371C323.813 189.371 324.023 189.211 324.243 189.121ZM312.433 120.521C311.503 119.551 310.613 119.751 309.693 120.521C310.623 121.761 311.513 121.761 312.433 120.521ZM869.633 269.791L869.543 269.391L868.873 269.571L869.633 269.801V269.791ZM786.293 264.791C786.623 264.791 786.933 264.861 787.173 264.761C787.343 264.691 787.563 264.291 787.503 264.211C787.373 264.001 787.043 263.731 786.873 263.781C786.453 263.891 786.073 264.171 785.673 264.381C785.893 264.531 786.123 264.681 786.293 264.791Z" fill="var(--fill-0, black)"/>
<path id="Vector_2" d="M907.183 283.321C905.793 284.521 904.963 285.241 903.963 286.121C901.733 285.591 899.543 285.071 897.183 284.511C897.603 283.771 897.773 283.081 898.043 283.031C900.873 282.571 903.673 282.911 907.183 283.321Z" fill="var(--fill-0, black)"/>
<path id="Vector_3" d="M466.643 256.991C463.473 257.481 461.763 257.721 460.063 258.011C458.713 258.241 457.553 259.541 456.013 258.761C455.903 258.241 455.793 257.721 455.633 256.991H466.653H466.643Z" fill="var(--fill-0, black)"/>
<path id="Vector_4" d="M438.193 256.951C432.653 258.551 428.993 257.481 425.493 258.241C425.333 258.281 425.073 257.901 424.863 257.711C424.973 257.461 425.083 256.981 425.203 256.981C428.843 256.941 432.483 256.951 438.203 256.951H438.193Z" fill="var(--fill-0, black)"/>
<path id="Vector_5" d="M400.393 257.051C400.363 257.211 400.353 257.491 400.293 257.511C400.073 257.551 399.843 257.511 399.613 257.491C399.873 257.351 400.133 257.201 400.393 257.061V257.051Z" fill="var(--fill-0, black)"/>
<path id="Vector_6" d="M476.323 257.741C476.193 257.591 476.053 257.421 475.903 257.251C476.143 257.161 476.383 256.991 476.623 256.991C477.413 256.991 477.613 257.301 477.103 257.721C476.943 257.851 476.593 257.741 476.313 257.741H476.323Z" fill="var(--fill-0, black)"/>
<path id="Vector_7" d="M529.563 259.351C529.393 259.221 529.233 259.091 529.063 258.951C529.433 259.011 529.813 259.061 530.183 259.121C529.973 259.191 529.763 259.271 529.563 259.341V259.351Z" fill="var(--fill-0, black)"/>
</g>
</svg>
