<svg preserveAspectRatio="none" width="100%" height="100%" overflow="visible" style="display: block;" viewBox="0 0 751.588 195.06" fill="none" xmlns="http://www.w3.org/2000/svg">
<g id="Layer_1-2">
<path id="Vector" d="M49.6975 94.22C57.3575 93.45 65.1575 92.71 72.9975 93.21C73.6975 94.09 74.4075 94.97 75.2775 96.05C79.8375 95.46 84.2975 97.37 88.9675 96.89C89.5275 96.83 90.2275 96.82 90.6775 97.09C93.6375 98.87 96.8675 98.57 100.058 98.3C103.228 98.04 106.438 98.43 109.528 97.06C112.558 95.71 115.798 96 118.908 96.84C119.838 97.6 120.728 98.32 121.618 99.05C123.638 99.22 125.738 99.1 127.658 99.63C131.938 100.81 136.148 101.47 140.588 100.54C141.918 100.26 143.438 100.9 144.958 101.13C145.778 100.37 146.608 99.59 147.658 98.61H156.328C157.058 99.17 157.968 99.87 159.048 100.71C164.588 101.03 170.378 97.63 175.718 101.03C177.478 100.62 178.878 100.28 180.608 99.88C183.288 101.01 186.208 102.24 189.438 103.59C190.268 103.03 191.178 102.42 192.368 101.62C194.108 101.53 196.138 101.43 198.478 101.31C200.288 100.36 202.348 99.29 204.298 98.27C204.978 98.13 205.538 97.93 206.118 97.9C209.028 97.74 211.968 97.32 214.848 97.55C218.448 97.84 221.818 97.38 224.648 95.77C228.588 96.21 232.108 96.34 235.508 97.04C240.188 98.01 244.758 97.98 249.348 96.77C252.478 95.94 255.598 95.98 258.848 96.05C266.908 96.23 275.098 96.85 282.888 93.51C282.548 93.19 282.257 92.65 281.927 92.63C278.727 92.42 275.527 92.31 272.327 92.13C269.717 91.98 267.107 91.78 264.487 91.6C262.747 91.48 260.928 90.98 259.288 91.32C249.918 93.27 240.798 90.02 231.518 90.22C239.048 88.53 246.658 90.01 254.228 89.55C261.728 89.09 269.307 90.15 276.807 88.89C276.717 88 276.657 87.48 276.577 86.65C275.587 86.4 274.498 85.92 273.388 85.87C258.538 85.23 243.688 84.65 228.838 84.08C225.338 83.95 221.838 83.87 218.338 83.83C204.048 83.67 189.758 83.46 175.478 83.4C164.708 83.35 153.928 83.55 143.148 83.54C138.188 83.54 133.238 83.33 128.278 83.2C115.188 82.88 102.088 82.12 89.0075 82.34C72.9575 82.61 56.9575 81.86 40.9475 81.2C29.5975 80.73 18.2775 79.63 6.89751 79.64C4.96751 79.64 3.03751 78.63 0.987509 78.05C-0.812491 72.4 0.307509 66.97 0.777509 61.23C1.60751 60.26 2.63751 59.24 3.44751 58.07C4.23751 56.94 4.80751 55.65 5.48751 54.4H14.3675C15.8875 52.66 17.4175 50.93 18.9275 49.2C18.5775 47.66 17.7575 46.15 18.0475 44.9C19.2475 39.69 17.7275 35.15 15.1675 30.7C13.8875 29.33 12.0875 29.32 10.3775 29C7.84751 28.53 5.09751 28.95 2.52751 27.03C3.77751 25.24 5.02751 23.46 6.30751 21.63C5.30751 20.48 4.37751 19.41 3.31751 18.18C5.64751 15.51 4.18751 12.26 4.87751 9.41C3.63751 8.2 2.60751 7.2 1.38751 6.02C2.57751 3.66 4.99751 5.25 6.94751 4.32C6.16751 3.58 5.47751 2.94 4.79751 2.3C4.94751 2.09 5.06751 1.71 5.24751 1.68C8.40751 1.23 11.5775 0.39 14.7275 0.47C27.8375 0.82 40.9475 1.43 54.0475 1.99C57.8275 2.15 61.5975 2.6 65.3775 2.72C71.7775 2.92 78.1875 2.96 84.5875 3.04C84.7875 3.04 84.9875 2.69 85.1975 2.5C84.5575 1.83 83.9175 1.17 82.7975 0C88.6575 0.47 93.8475 0.89 99.0475 1.32C100.208 1.42 101.368 1.59 102.528 1.69C105.138 1.9 107.758 2.09 110.368 2.28C112.378 4.51 115.388 3.12 117.658 4.26C120.718 5.8 123.238 4.97 125.668 2.96C126.088 2.61 126.728 2.53 127.478 2.25C130.988 2.93 134.688 3.65 138.788 4.44C140.598 4.19 142.858 3.88 145.078 3.57C146.738 4.61 148.208 5.53 149.968 6.63C156.268 5.77 162.828 4.28 169.498 5.74C169.988 6.43 170.478 7.11 170.938 7.75C172.138 8.54 173.198 7.6 174.308 7.59C175.438 7.57 176.568 7.92 177.568 8.09C179.908 7.3 182.108 6.56 184.298 5.82C185.758 5.82 187.248 5.62 188.658 5.87C190.948 6.26 193.278 6.71 195.418 7.56C199.708 9.26 203.868 9.57 207.968 7.03C213.208 8.28 218.298 9.49 223.708 10.77C227.478 8.91 231.698 8.86 236.168 9.42C243.378 10.33 250.648 10.73 257.908 11.18C259.918 11.31 261.967 10.84 264.247 10.63C269.947 12.63 276.088 12.3 282.188 12.26C286.287 12.24 290.357 12.26 294.357 13.27C294.917 13.41 295.507 13.53 296.077 13.56C307.707 14.11 319.267 16.13 330.957 15.22C332.277 14.71 333.638 14.26 334.258 12.46C332.888 11.64 331.478 10.79 329.568 9.65C339.258 9.03 348.418 8.44 359.348 7.74C372.568 11.71 387.867 13.15 403.767 12.71C405.937 13.19 408.488 13.74 411.038 14.3C410.058 16.87 407.087 15.16 405.677 16.8C405.477 17.32 405.278 17.84 405.068 18.41C405.598 19.07 406.138 19.76 406.848 20.65C412.118 21.54 417.517 22.71 423.107 22.57C425.147 22.52 427.257 22.46 429.207 22.92C436.387 24.61 443.697 24.3 450.967 24.68C451.257 24.7 451.557 24.61 451.837 24.66C463.627 26.86 475.668 26.01 487.538 27.59C496.468 28.77 505.467 29.8 514.547 29.67C518.017 29.62 521.487 30.32 524.967 30.64C526.697 30.8 528.437 30.99 530.177 31.01C539.807 31.13 549.397 31.57 558.987 32.57C569.127 33.63 579.317 34.25 589.487 34.98C600.537 35.77 611.608 36.31 622.648 37.26C631.628 38.03 640.588 39.17 649.528 40.33C651.788 40.62 653.957 41.64 655.927 42.26C658.447 42.03 660.788 41.41 663.018 41.69C667.608 42.25 672.207 42.49 676.807 42.6C681.527 42.71 685.917 44.36 690.487 45.15C694.777 45.89 699.047 46.81 703.467 47.68C704.247 48.34 705.137 49.08 706.237 50.01H716.648C721.408 51.84 726.287 53.72 731.797 55.84C732.537 55.9 733.988 56 735.278 56.1C735.778 56.69 736.468 57.12 736.448 57.54C736.378 60.44 738.347 62.32 739.607 64.05C740.877 68.99 737.868 72.2 736.278 76.17C734.868 76.3 733.457 76.58 732.037 76.54C726.207 76.39 720.387 76.13 714.557 75.95C712.807 75.9 711.048 75.85 709.318 76.03C704.088 76.58 698.857 76.67 693.597 76.48C692.497 76.44 691.378 76.83 689.628 77.13C692.248 79.5 695.037 78.81 697.427 79.35C699.967 79.92 702.608 80.12 705.208 80.4C707.798 80.68 710.408 80.87 713.078 81.1C712.988 81.26 711.038 84.97 710.958 85.13C712.368 85.5 713.737 85.87 715.157 86.24C714.747 88.12 712.668 86.91 711.838 88.4C712.388 88.94 713.107 89.65 713.977 90.5V95.58C719.697 98.48 726.528 97.36 732.698 100.23C731.218 101.72 729.528 100.97 728.078 101.12C726.358 101.29 724.608 101.25 722.948 101.3C722.218 102.42 721.638 103.33 720.838 104.55C708.858 104.18 696.717 103.39 684.367 101.79C684.027 102.31 683.627 102.92 682.977 103.92C685.567 104.57 687.758 105.34 690.008 105.61C692.278 105.89 694.598 105.67 696.938 105.67C697.908 106.55 698.747 107.3 699.597 108.07C699.377 109.28 699.198 110.32 699.008 111.35C701.198 112.01 703.388 112.68 705.518 113.32C705.968 114.91 706.338 116.24 706.778 117.78C710.978 119.11 715.427 118.68 719.688 119.57C721.428 120.49 723.437 121.14 723.977 123.65C719.857 124.15 715.787 123.83 711.737 123.56C705.647 123.16 699.587 122.39 693.497 122.12C683.327 121.67 673.188 120.73 663.018 120.14C657.228 119.8 651.447 119.65 645.657 119.38C639.837 119.11 633.998 119.18 628.208 118.64C620.998 117.97 613.687 118.76 606.557 117.01C605.437 116.74 604.238 116.76 603.078 116.77C597.548 116.81 592.028 116.86 586.508 116.98C585.778 117 585.058 117.47 583.778 117.93C585.158 118.32 585.958 118.7 586.778 118.75C599.858 119.52 612.888 121.07 626.028 120.91C630.068 120.86 634.117 121.77 638.177 122.05C641.957 122.3 645.757 122.22 649.537 122.42C659.427 122.93 669.307 123.47 679.188 124.09C688.488 124.68 697.828 125.03 707.068 126.14C715.718 127.18 724.508 127.41 734.068 130.21C734.508 130.82 735.538 132.23 736.528 133.57C739.538 134.36 742.337 135.09 745.467 135.91C746.647 137.24 747.988 138.73 749.318 140.23C748.928 142.37 748.467 144.31 748.237 146.28C747.997 148.28 747.978 150.3 747.828 152.94C748.908 154.66 750.288 156.85 751.588 158.93C751.448 159.65 751.438 160.25 751.208 160.74C749.528 164.413 748.827 168.053 749.107 171.66C748.467 173.14 747.627 174.66 747.157 176.3C746.677 177.95 746.578 179.71 746.278 181.6C747.988 185.71 748.108 189.87 745.208 193.87C744.118 194.25 743.028 194.64 741.828 195.06C741.298 194.31 740.827 193.64 740.037 192.52C739.487 192.24 738.518 191.48 737.438 191.23C733.487 190.3 729.528 189.36 725.528 188.74C720.068 187.89 714.507 187.77 709.117 186.29C706.917 185.68 704.487 185.87 702.157 185.74C685.287 184.81 668.408 183.98 651.588 182.2C645.518 181.56 639.357 181.77 633.237 181.58C630.917 181.51 628.548 181.65 626.278 181.24C619.648 180.04 612.997 179.78 606.287 180.04C603.697 180.14 601.088 180.23 597.518 179.08C604.828 176.98 611.167 179.1 617.417 178.46C623.477 177.84 629.527 179.55 635.297 178.92C636.377 177.35 636.048 176.38 635.008 175.48C632.338 174.31 630.118 176.97 627.508 176.39C622.928 175.6 618.348 174.86 613.778 173.99C612.368 173.72 610.908 173.3 610.068 171.93C609.928 171.7 609.948 171.38 609.888 171.1C610.038 170.88 610.168 170.49 610.338 170.48C612.618 170.32 614.907 170.21 617.107 170.1C617.837 170.97 618.377 171.62 618.997 172.35C619.147 172.41 619.468 172.65 619.688 172.59C622.648 171.68 625.598 170.72 628.518 169.79C628.348 169.07 628.227 168.57 628.047 167.82C619.667 167.82 611.227 167.82 602.787 167.84C602.257 167.84 601.728 168.18 601.188 168.37C600.538 170.49 603.177 170.12 603.537 171.47C603.317 171.9 603.167 172.62 602.847 172.71C601.737 173.02 600.557 173.28 599.417 173.26C588.637 173.07 577.868 172.82 567.088 172.57C566.218 172.55 565.347 172.39 564.477 172.3C561.297 171.97 558.077 171.21 554.927 171.42C551.817 171.63 548.768 172.82 545.828 173.55C544.838 175.06 545.637 175.76 546.727 176.34C548.207 177.12 550.208 175.91 551.588 177.68H542.607C542.417 176.34 542.268 175.26 542.088 173.97C541.398 172.3 539.767 171.65 537.997 171.43C533.357 170.85 528.717 170.71 524.217 172.41C522.237 171.65 520.347 170.92 519.047 170.42C512.077 170.19 505.707 169.96 499.327 169.77C492.967 169.58 486.587 170.62 479.807 169.65C478.837 169.97 477.477 170.43 476.107 170.88C475.547 170.76 474.987 170.67 474.427 170.52C473.037 170.16 471.617 169.37 470.277 169.48C463.577 170.06 456.897 169.38 450.207 169.32C444.907 169.28 439.727 169.55 434.577 171.35C431.207 170.8 427.777 170.19 424.327 169.7C423.187 169.54 421.997 169.5 420.857 169.65C418.227 170 415.678 170.11 413.068 169.33C410.488 168.55 407.767 168.68 405.327 169.71C400.557 171.71 395.648 171.56 390.688 171.22C389.528 171.14 388.367 171.04 387.577 170.98C385.397 170.05 383.557 169.27 381.607 168.44C379.657 169.28 377.827 170.06 375.707 170.97C374.647 170.27 373.447 169.47 372.217 168.66C369.727 168.58 367.138 167.29 364.938 168.96C363.837 170.28 364.238 171.33 364.848 172.38C366.978 173.65 369.308 173.53 371.638 173.32C383.578 172.2 395.517 172.84 407.457 173.14C413.857 173.3 420.268 173.16 426.668 173.15C428.978 173.15 431.297 173.15 433.767 173.15C433.167 175.97 430.957 174.91 429.577 175.27C427.957 175.7 426.167 175.52 424.677 175.59C423.907 176.5 423.357 177.15 422.707 177.92H413.388C412.958 176.94 412.627 176.19 412.297 175.44C411.757 175.23 411.197 174.79 410.688 174.85C405.847 175.41 400.918 175.19 395.038 176.29C393.328 175.97 390.697 174.22 387.688 175.28C387.147 175.47 386.507 175.59 385.967 175.49C375.257 173.55 364.438 175.12 353.688 174.42C347.307 174 340.877 174.34 334.767 174.34C332.877 175.41 331.368 176.25 329.658 177.22C325.648 175.98 321.117 176.98 317.017 175.13C313.837 175.29 310.647 175.45 307.457 175.61C305.717 175.98 304.388 174.42 302.448 174.85C297.628 175.92 292.768 175.99 287.888 174.95C284.378 174.2 280.937 174.68 277.927 176.09C273.357 175.56 269.047 174.99 264.717 174.61C263.307 174.49 261.607 174.48 260.467 175.14C258.187 176.47 255.878 175.02 253.608 175.79C251.368 176.54 249.058 175.68 246.758 175.41C241.868 174.85 236.918 175.03 231.948 176.54C228.098 175.5 224.048 175.29 219.968 175.55C215.958 175.81 211.818 174.91 208.558 176.94C204.218 176.74 200.398 176.82 196.658 176.32C190.638 175.52 185.118 176.79 179.428 179.54C175.358 177.02 171.318 179 167.418 180.76C165.038 179.81 162.878 178.94 160.588 178.03C160.158 177.96 159.588 177.8 159.018 177.77C153.488 177.46 147.968 177.15 142.438 176.88C140.688 176.8 138.938 176.79 137.188 176.86C123.788 177.39 110.388 177.82 96.9975 178.53C86.2275 179.1 75.4875 180.14 64.7275 180.77C55.4175 181.32 46.0875 181.6 36.7675 181.96C35.3875 182.01 33.9675 182.04 32.6575 181.47C33.2675 179.18 37.3675 179.42 35.9075 175.84C32.7975 174.88 29.5375 173.87 25.9375 172.76C26.5275 171.7 26.7375 170.76 27.3075 170.41C29.2875 169.19 31.4075 168.22 33.4175 167.04C33.8375 166.8 33.9875 166.09 34.4375 165.3C32.8675 164.69 31.3375 164.1 29.8175 163.5C31.9575 160.32 36.0175 160.52 38.7475 158.39C39.3575 156.72 39.7075 155.05 38.5975 153.08C36.9775 152.56 35.1275 151.96 32.9875 151.27C34.6975 150.11 36.0575 149.19 37.5275 148.19C35.7808 146.95 31.8942 146.14 25.8675 145.76C24.4375 145.15 23.3475 144.11 23.1575 142.59C22.5175 137.42 21.8975 132.24 21.5575 127.05C21.4475 125.4 22.2975 123.69 22.6075 122C22.9375 120.21 22.6675 118.53 21.0175 116.91C18.2575 116.3 15.1775 115.62 12.4275 115.02C8.62751 110.52 8.85751 105.51 8.55751 100.45C9.35751 98.95 10.3075 97.48 10.9375 95.87C11.4475 94.55 11.5575 93.08 11.8775 91.53C12.6775 91.27 13.4775 90.77 14.2575 90.79C19.4975 90.92 24.7375 91.15 29.9775 91.38C31.4175 91.44 33.0075 92.06 34.2775 91.65C38.8475 90.17 42.8875 91.6 46.9575 93.36C47.4875 93.59 48.0675 93.7 49.6275 94.16L49.6975 94.22ZM475.357 131.68C473.737 132.22 471.958 130.36 470.408 131.99C470.728 133.24 471.377 134.02 473.117 133.68C473.757 133.08 474.608 132.29 475.448 131.51C475.978 132.07 476.477 132.67 477.087 133.13C477.167 133.19 477.797 132.59 478.117 132.24C478.157 132.19 477.878 131.66 477.728 131.65C476.938 131.61 476.147 131.67 475.367 131.69L475.357 131.68ZM209.478 172.56C214.598 172.21 219.718 171.92 224.728 171.28C224.878 169.63 224.448 168.71 222.718 168.19C221.198 168.56 219.298 169.2 217.358 169.46C215.118 169.76 212.748 169.02 210.548 170.36C210.248 171.09 209.918 171.88 209.588 172.68C207.268 170.94 204.798 169.55 201.878 169.42C200.564 170.207 200.304 171.253 201.098 172.56H209.488H209.478ZM344.288 168.19C344.128 169.92 343.127 170.72 341.457 170.79C336.477 168.34 336.488 168.27 331.598 168.14C326.938 168.02 322.267 167.9 317.617 168.11C315.057 168.23 312.518 169.02 309.128 169.67C306.848 169.24 303.737 168.38 300.587 168.12C296.837 167.81 293.027 167.78 289.277 168.06C285.557 168.33 281.888 169.21 278.138 168.45C271.578 170.45 264.818 169.29 258.158 169.59C255.288 169.72 252.408 169.46 249.528 168.62C246.798 167.82 243.808 167.89 241.378 167.63C239.798 168.7 238.038 168.66 237.868 170.53C238.828 171.84 240.248 171.88 241.688 172.01C248.568 172.63 255.518 170.96 262.388 172.74C264.008 173.16 265.837 172.77 267.467 171.93C268.207 171.55 269.147 171.59 270.017 171.43C271.987 172 273.927 172.56 275.217 172.93C279.377 172.71 282.888 172.13 286.318 172.45C290.198 172.82 293.787 171.56 296.397 171.33C299.827 171.64 302.147 171.96 304.467 172.04C306.767 172.13 309.087 171.91 311.397 171.96C313.707 172.01 316.017 172.24 318.327 172.35C320.637 172.47 322.948 172.67 325.258 172.6C327.548 172.52 329.828 172.15 332.598 171.85C333.058 172.11 334.027 172.67 335.177 173.32C337.667 172.97 340.227 172.6 342.647 172.26C343.277 170.62 343.788 169.32 344.288 168.01C345.328 169.37 346.367 170.73 347.277 171.9C353.567 174.01 354.658 173.99 361.758 171.68C361.668 170.98 361.577 170.24 361.497 169.63C358.357 168.03 355.218 167.91 352.038 168.01C349.458 168.09 346.877 168.11 344.307 168.16L344.288 168.19ZM299.577 51.52C295.664 52.44 289.387 52.4467 280.747 51.54C280.037 52.69 279.287 53.9 278.607 54.99C278.987 56.4 279.278 57.48 279.538 58.43C281.998 59.58 284.267 59.42 286.487 58.91C288.177 57.75 289.797 56.64 291.357 55.57C298.877 59.38 306.387 57.05 313.827 56.84C315.247 55.88 316.688 54.91 318.258 53.84C319.338 53.96 320.457 54.09 321.438 54.2C323.537 57.82 327.187 59.03 329.747 61.14C333.307 59.54 336.427 58.13 339.207 56.88C339.717 55.73 340.057 54.96 340.547 53.86C341.927 53.92 343.328 53.98 344.508 54.03C345.538 55.45 346.347 56.57 347.267 57.82C349.557 57.67 351.848 57.21 354.068 58.33C355.048 58.82 356.337 58.8 357.497 58.83C365.937 59.09 374.378 59.42 382.818 59.49C385.978 59.52 389.138 58.93 392.068 58.65C392.868 57.16 394.637 56.49 393.467 54.4C390.787 54.15 387.907 53.91 385.027 53.61C382.197 53.32 379.487 51.57 376.617 52.83V55.17C374.227 54.97 373.778 54.77 371.158 52.7C368.708 52.44 366.108 52.16 364.818 52.02C362.008 50.96 360.397 50.4 358.827 49.73C357.257 49.06 355.738 48.29 353.878 47.42C352.458 47.74 350.778 48.11 349.348 48.43C348.198 49.74 347.268 50.81 346.348 51.88C341.948 52.86 337.807 53.22 333.587 50.89C331.397 49.68 328.567 49.63 326.357 49.13C321.997 51.75 316.667 52.5667 310.367 51.58C308.867 50.29 307.377 48.99 306.077 47.87C303.437 48.32 301.047 47.73 298.997 49.17C299.207 49.97 299.417 50.73 299.617 51.48L299.577 51.52ZM208.768 53.34C208.488 52.39 208.338 51.86 208.148 51.24H205.788C204.598 52.67 203.528 53.95 202.538 55.14C203.868 59.09 207.688 58.98 209.838 60.85C213.688 60.97 217.168 61.09 220.648 61.19C233.978 61.56 247.317 60.46 260.547 61.75C260.817 60.99 260.997 60.5 261.267 59.74C250.257 59.01 239.268 59.43 228.158 58.54C228.608 57.4 229.028 56.62 229.198 55.79C229.298 55.32 228.998 54.76 228.808 53.98C227.788 53.82 226.678 53.52 225.558 53.52C224.428 53.52 223.308 53.82 222.388 53.96C221.298 55.33 220.408 56.45 219.788 57.24C217.698 57.52 216.268 57.85 214.838 57.85C214.278 57.85 213.728 57.09 212.948 56.51C214.098 55.87 214.838 55.46 215.868 54.89C213.868 53.35 211.518 53.77 208.768 53.35V53.34ZM100.518 56.23C99.7775 55.96 98.9775 55.42 98.1775 55.42C94.9975 55.42 91.7875 55.37 88.6375 55.72C83.7175 56.28 78.8675 56.71 73.9675 55.37C72.0675 54.85 69.9375 54.97 67.9175 55.06C63.2875 55.29 58.6575 55.66 54.0375 56.04C53.8075 56.06 53.6175 56.66 53.1575 57.38C67.6075 58.74 81.7775 59.24 95.9675 59.34C97.1175 59.34 98.2875 59.19 99.4075 58.95C99.8975 58.84 100.298 58.31 100.738 57.96C100.668 57.43 100.598 56.89 100.508 56.22L100.518 56.23ZM159.418 58.27C161.068 60.25 163.088 60.4 165.088 60.4C174.308 60.43 183.538 60.42 192.758 60.37C193.158 60.37 193.558 59.76 194.318 59.15C192.338 58.4 190.558 57.72 189.078 57.15C188.618 56.1 188.298 55.38 187.868 54.41C185.918 55.37 184.168 56.24 182.448 57.09C178.678 57.33 174.948 57.56 171.228 57.8C167.368 58.05 163.398 56.48 159.428 58.26L159.418 58.27ZM400.737 16.25C400.217 16.05 399.717 15.72 399.177 15.66C394.297 15.08 389.407 14.44 384.517 14.05C380.797 13.75 377.057 13.4 373.427 13.9C372.677 15.95 373.807 16.82 375.587 18.02C376.467 18.02 377.878 17.96 379.288 18.04C380.418 18.1 381.548 18.3 382.668 18.5C384.088 18.74 385.497 19.16 386.927 19.29C388.357 19.42 389.827 19.43 391.237 19.21C392.647 19 393.988 18.26 395.408 18.09C397.078 17.89 398.788 18.04 400.448 18.04C400.568 17.29 400.657 16.78 400.737 16.27V16.25ZM480.767 165.86C475.947 164.64 473.117 164.27 470.177 164.53C468.747 164.66 467.157 164.89 465.867 164.43C459.907 162.32 453.818 163.21 447.788 163.11C447.418 164.5 448.677 164.29 449.107 164.8C449.797 165.62 450.348 166.56 450.758 167.15C454.358 168.52 456.448 165.13 460.098 165.31C465.798 166.87 472.147 169.34 480.767 165.85V165.86ZM410.948 167.44C413.788 166.53 415.947 165.83 417.857 165.22C419.127 166.13 420.038 166.79 420.948 167.44C423.008 167.12 424.998 166.8 426.758 166.53C427.928 165.49 429.728 165.23 429.198 163.03C420.008 163.17 410.768 162.41 401.408 163.47C404.568 164.6 408.077 164.78 410.957 167.44H410.948ZM554.037 170.11C557.987 169.2 561.877 168.3 565.967 167.36C565.537 166.88 565.397 166.59 565.237 166.57C559.487 165.93 553.757 165.13 547.927 165.71C545.647 165.93 543.308 165.58 541.008 165.43C539.568 165.34 538.128 165.12 536.688 165.02C536.468 165.01 536.227 165.33 535.987 165.5C535.467 167.27 536.617 168.08 537.907 168.81C541.697 170.11 545.328 167.98 549.078 168.3C550.438 168.79 551.787 169.28 554.037 170.1V170.11ZM684.737 179.6C675.207 176.51 667.027 177.19 658.987 176.69C658.507 176.66 657.988 177.19 657.318 177.55C657.568 178.26 657.818 179.01 658.078 179.76C661.858 180.99 665.697 179.62 669.427 180.71C673.287 181.84 677.458 180.4 681.448 181.48C681.958 181.62 682.737 180.78 684.737 179.6ZM485.658 165.18C486.738 166.12 486.948 166.47 487.158 166.46C493.478 166.31 499.778 166.17 506.098 166.67C509.798 166.96 513.557 166.58 517.287 166.38C517.977 166.34 518.068 165.57 517.378 164.61C508.458 164.01 499.238 164.89 490.038 164.41C488.928 164.35 487.788 164.79 485.658 165.18ZM121.978 58.77C123.988 59.18 125.068 59.58 126.148 59.59C134.208 59.61 142.258 59.56 150.318 59.47C150.758 59.47 151.198 58.88 151.808 58.44C150.958 58.06 150.228 57.47 149.458 57.43C146.878 57.27 144.268 57.07 141.708 57.33C139.228 57.58 137.398 55.98 134.878 55.52C131.598 58.59 126.748 56.34 121.978 58.78V58.77ZM457.957 59.5C457.957 59.89 457.937 60.28 457.927 60.67C459.057 60.81 460.177 61.03 461.307 61.09C468.257 61.44 475.248 60.58 482.158 61.94C482.428 61.99 482.847 61.94 482.987 61.78C483.307 61.4 483.497 60.91 483.747 60.47C483.537 60.29 483.337 59.96 483.117 59.95C477.317 59.66 471.507 59.33 465.707 59.17C463.127 59.1 460.537 59.39 457.957 59.51V59.5ZM699.357 180.51C699.127 181.05 698.887 181.59 698.657 182.12C702.807 183.34 706.988 184.29 711.758 183.21C711.688 182.19 711.648 181.49 711.578 180.51H699.357ZM594.028 169.03C582.658 165.47 581.837 165.4 578.717 167.63C583.177 170.19 587.838 169.21 594.028 169.03ZM527.787 136.35C533.087 137.65 533.097 137.68 537.427 136.58C538.107 136.41 538.148 135.73 537.518 134.93C534.728 134.66 531.737 134.37 528.847 134.09C528.487 134.84 528.277 135.31 527.787 136.35ZM214.278 52.01C219.338 52.82 223.458 53.42 227.458 52.23C227.798 50.42 226.708 49.87 225.728 49.06C223.958 49.49 222.108 50.14 220.208 50.33C218.378 50.52 216.318 49.16 214.268 52L214.278 52.01ZM336.767 163.18C332.821 162.787 329.654 163.043 327.267 163.95C330.237 166.16 330.597 166.13 336.767 163.18ZM648.378 176.07C646.068 175.72 644.267 176.42 642.487 177.52V178.9C644.447 180.21 646.298 180.23 648.378 179.08V176.07ZM344.077 155.96C344.857 158.04 346.958 157.53 348.228 158.48C348.798 158.91 349.838 158.72 350.948 158.84C351.658 158.21 352.437 157.5 353.827 156.26C350.087 155.35 347.147 155.38 344.077 155.96ZM368.818 163.77C369.648 164.29 369.877 164.58 370.117 164.57C373.807 164.54 377.488 164.48 381.168 164.41C381.448 164.41 381.787 164.37 381.987 164.21C382.297 163.96 382.498 163.59 383.318 162.53C378.768 162.93 374.848 162.56 370.908 162.79C370.418 162.82 369.957 163.22 368.827 163.76L368.818 163.77ZM530.357 168.73C531.787 167.29 531.618 166.34 530.698 165.41C528.848 164.67 526.997 164.13 524.917 165.27C526.637 166.37 528.267 167.41 530.357 168.74V168.73ZM661.847 170C659.527 169.91 657.847 169.79 656.157 169.81C655.657 169.81 655.157 170.21 654.657 170.43C654.817 170.66 654.938 171.02 655.148 171.09C656.998 171.68 658.867 172.23 660.747 172.74C660.927 172.79 661.198 172.53 661.438 172.41C661.528 171.87 661.617 171.34 661.847 169.99V170ZM576.667 137.09C578.377 139.53 579.747 140.09 581.537 139.27C581.567 138.76 581.597 138.25 581.617 137.74C581.107 137.52 580.617 137.19 580.097 137.12C579.297 137.01 578.477 137.09 576.667 137.09ZM646.997 170.3C644.647 170.67 642.347 169.38 639.977 170.75C642.317 170.75 644.647 171.08 646.997 170.3ZM335.978 63.98C335.758 63.15 335.717 62.29 335.497 62.24C333.957 61.91 332.408 61.82 331.568 64.23C333.258 64.13 334.587 64.06 335.987 63.98H335.978ZM393.047 63.73C394.897 65.01 396.717 65 398.557 63.68C396.697 62.51 394.877 62.52 393.047 63.73ZM511.767 108.85C511.347 110.79 511.488 111.28 512.588 111.41C513.968 111.58 514.747 110.97 514.787 109.52C513.987 108.39 512.917 108.44 511.767 108.85ZM291.568 88.11C292.948 89.41 294.397 88.79 295.867 88.31C294.477 87.26 293.038 87.42 291.568 88.11ZM192.148 172.1C189.208 171.54 188.098 170.83 187.158 172.04C188.128 173.08 189.258 172.51 192.148 172.1ZM351.147 163.83C352.617 164.39 353.737 164.83 355.457 163.16C353.847 162.96 352.737 162.19 351.147 163.83ZM681.708 84.45C684.668 85.08 685.698 85.41 687.278 84.45H681.708ZM305.008 88.23C305.558 88.46 306.048 88.83 306.538 88.82C306.958 88.82 307.367 88.37 307.777 88.13C307.287 87.92 306.797 87.56 306.297 87.56C305.877 87.56 305.458 87.98 305.008 88.23ZM683.138 75.73C683.078 75.89 683.018 76.04 682.958 76.2C683.208 76.22 683.468 76.28 683.698 76.23C683.778 76.21 683.817 75.94 683.867 75.78C683.617 75.76 683.378 75.74 683.128 75.73H683.138ZM370.168 64.29C370.548 64.04 370.928 63.79 371.318 63.55C370.848 63.36 370.378 63.12 369.888 63.02C369.688 62.98 369.428 63.26 369.198 63.39C369.518 63.69 369.838 63.99 370.168 64.29ZM425.198 58.96C425.668 59.18 426.138 59.55 426.628 59.59C427.618 59.67 428.448 58.78 428.068 58.11C427.818 57.68 427.228 57.05 426.948 57.12C426.278 57.29 425.687 57.8 425.117 58.23C425.017 58.31 425.168 58.71 425.198 58.96ZM274.418 53.44C274.128 53.85 273.787 54.24 273.577 54.69C273.527 54.81 273.977 55.34 274.047 55.31C274.517 55.12 274.947 54.82 275.397 54.56C275.067 54.19 274.748 53.82 274.408 53.44H274.418ZM46.8975 47.65C46.6675 48.09 46.3775 48.52 46.2375 48.99C46.1975 49.13 46.6775 49.59 46.7075 49.57C47.1375 49.31 47.5175 48.99 47.9175 48.68C47.5775 48.34 47.2375 48 46.8875 47.65H46.8975ZM570.208 160.07C569.678 159.84 569.078 158.97 568.708 160.23C569.208 160.18 569.708 160.13 570.208 160.07ZM479.297 158.12C479.087 157.97 478.888 157.72 478.668 157.7C478.428 157.68 478.168 157.88 477.908 157.98C478.118 158.12 478.317 158.35 478.527 158.37C478.777 158.39 479.037 158.21 479.297 158.12ZM571.528 136.64C571.258 136.98 570.978 137.33 570.708 137.67C571.178 137.9 571.647 138.33 572.097 138.3C572.407 138.28 572.668 137.62 572.958 137.25C572.478 137.05 572.008 136.84 571.528 136.64ZM545.367 136.98C546.687 137.73 547.118 138.15 547.588 138.19C548.038 138.23 548.517 137.87 548.977 137.69C548.657 137.35 548.388 136.82 548.008 136.71C547.538 136.57 546.967 136.79 545.367 136.98ZM384.188 133.23C385.038 131.55 384.597 130.41 383.237 130.51C382.967 130.53 382.458 131.46 382.568 131.62C382.968 132.22 383.597 132.68 384.177 133.23H384.188ZM310.418 130.05C311.528 131.17 312.678 131.26 313.908 130.24C312.808 128.99 311.638 129.18 310.418 130.05ZM460.767 131.39C461.667 132.07 461.967 132.37 462.327 132.53C462.507 132.61 462.848 132.51 463.038 132.38C463.198 132.27 463.247 131.99 463.337 131.79C462.697 131.69 462.067 131.6 460.767 131.4V131.39ZM701.828 116.36C701.698 116.19 701.597 115.94 701.438 115.88C701.218 115.8 700.848 115.75 700.698 115.88C700.218 116.27 700.397 116.6 701.157 116.66C701.377 116.68 701.608 116.47 701.838 116.37L701.828 116.36ZM554.148 112.33L553.787 112.78H554.487L554.148 112.33ZM188.028 163.52C187.608 163.3 187.208 162.94 186.788 162.93C186.518 162.93 186.238 163.43 185.968 163.71C186.198 163.82 186.448 164.06 186.638 164.02C187.108 163.93 187.558 163.7 188.018 163.52H188.028ZM357.367 93.36C356.597 92.07 355.757 92.15 354.837 93.2C355.617 94.44 356.447 94.42 357.367 93.36ZM546.758 159.88C547.148 160.09 547.527 160.45 547.917 160.45C548.187 160.45 548.457 159.96 548.717 159.68C548.497 159.57 548.258 159.33 548.078 159.37C547.628 159.47 547.198 159.7 546.758 159.88ZM501.587 159.43C501.777 159.31 502.098 159.22 502.138 159.05C502.198 158.84 502.127 158.45 501.967 158.33C501.377 157.91 501.018 158.13 501.098 158.89C501.118 159.08 501.417 159.25 501.587 159.43ZM360.038 158.39C359.588 157.66 359.408 157.03 359.008 156.82C358.688 156.65 357.888 156.87 357.688 157.17C357.487 157.47 357.717 158.48 357.857 158.5C358.517 158.6 359.208 158.46 360.038 158.39ZM335.418 156.01C335.168 156.09 334.727 156.11 334.688 156.26C334.517 156.8 334.908 157.04 335.668 156.82C335.858 156.77 335.998 156.51 336.158 156.35C335.908 156.24 335.668 156.12 335.418 156.01ZM314.087 156.34L314.688 156.69L314.807 156.18L314.087 156.34ZM275.487 155.51C275.277 155.53 274.987 155.46 274.857 155.57C274.347 156.03 274.447 156.39 275.117 156.47C275.287 156.49 275.578 156.29 275.638 156.12C275.698 155.96 275.547 155.71 275.487 155.5V155.51ZM401.938 54.47C401.217 54.89 400.457 55.12 400.438 55.39C400.408 55.86 400.737 56.5 401.117 56.8C401.347 56.98 401.978 56.67 402.418 56.59C402.258 55.92 402.107 55.25 401.927 54.48L401.938 54.47ZM180.438 51.36C181.571 52.2133 182.678 52.1667 183.758 51.22C182.588 49.94 181.498 50.31 180.438 51.36ZM259.598 44.36L260.158 44.67L260.258 44.22L259.598 44.36ZM605.737 139.31C605.727 139.07 605.758 138.7 605.688 138.69C604.827 138.46 604.517 138.71 604.917 139.29C605.007 139.42 605.447 139.31 605.737 139.31ZM421.888 137.21C421.678 137.1 421.477 136.91 421.267 136.91C421.057 136.91 420.848 137.1 420.638 137.2C420.848 137.31 421.048 137.5 421.258 137.5C421.468 137.5 421.678 137.31 421.888 137.21Z" fill="#D8E142"/>
<path id="Vector_2" d="M529.078 176.07C525.148 176.25 523.148 176.44 521.138 176.43C505.728 176.28 490.317 176.1 474.897 175.89C474.387 175.89 473.877 175.54 473.367 175.35C473.527 174.85 473.588 174.02 473.878 173.93C474.948 173.59 476.128 173.26 477.228 173.35C478.648 173.47 480.068 174.42 481.418 174.29C487.238 173.73 492.907 175.31 498.717 175.15C507.437 174.92 516.168 175.2 524.888 175.29C525.648 175.29 526.408 175.56 529.078 176.07Z" fill="#D8E142"/>
<path id="Vector_3" d="M466.038 174.88C463.518 175.24 461.008 175.69 458.478 175.93C457.058 176.07 455.607 175.87 454.177 175.82C451.337 175.71 448.488 175.6 445.538 175.49C444.888 174.05 445.017 173.52 446.217 173.53C451.657 173.55 457.108 173.66 462.538 173.1C463.608 172.99 464.737 173.37 465.837 173.52C465.907 173.97 465.977 174.43 466.047 174.88H466.038Z" fill="#D8E142"/>
<path id="Vector_4" d="M584.128 179.26C581.838 179.09 579.548 178.89 577.258 178.77C572.658 178.52 568.067 178.31 562.227 178.02C569.827 176.04 570.377 176.36 582.467 177.33C582.967 178 583.477 178.7 583.987 179.4L584.128 179.26Z" fill="#D8E142"/>
<path id="Vector_5" d="M219.608 90.27C218.008 90.27 216.638 90.28 215.268 90.26C215.008 90.26 214.758 90.12 214.498 90.04C214.868 89.91 215.258 89.63 215.618 89.66C216.868 89.79 218.238 89.05 219.598 90.26L219.608 90.27Z" fill="#D8E142"/>
<path id="Vector_6" d="M583.987 179.4C587.627 177.46 587.637 177.5 590.847 178.71C590.827 178.92 590.808 179.31 590.778 179.31C588.558 179.31 586.337 179.29 584.117 179.27L583.977 179.41L583.987 179.4Z" fill="#D8E142"/>
<path id="Vector_7" d="M285.687 56.23C285.897 56.36 286.097 56.48 286.307 56.61C286.157 56.79 286.037 57.07 285.857 57.12C285.147 57.33 284.807 57.07 285.017 56.48C285.067 56.34 285.457 56.31 285.697 56.23H285.687Z" fill="#D8E142"/>
</g>
</svg>
