<svg preserveAspectRatio="none" width="100%" height="100%" overflow="visible" style="display: block;" viewBox="0 0 802.974 109.488" fill="none" xmlns="http://www.w3.org/2000/svg">
<g id="Layer_1-2">
<path id="Vector" d="M768.346 56.5909C769.166 52.1009 774.636 52.8809 774.096 48.1309C767.566 47.7809 761.916 50.4109 756.506 53.6209C755.476 54.2409 756.176 55.8309 757.216 56.4509C759.076 57.5709 760.546 58.5609 758.516 60.8309C755.006 64.7409 751.486 68.2109 745.416 67.3209C739.736 66.4909 734.586 69.2509 729.316 70.8409C724.496 72.3009 720.046 72.5509 715.816 69.3109C712.136 66.4809 707.846 66.2209 703.386 66.4309C693.806 66.8909 684.516 69.0009 675.556 72.0909C671.316 73.5509 668.806 72.9709 666.476 69.5209C666.046 68.8809 665.256 68.4909 664.786 67.8609C662.266 64.4809 659.036 63.9709 655.306 65.4209C646.846 68.6909 638.366 71.9108 629.956 75.3008C626.246 76.7908 625.106 76.7708 622.796 74.0508C622.026 73.1508 621.346 72.1709 620.636 71.2209C615.146 63.9109 613.736 63.4609 606.166 67.3609C601.596 69.7209 597.246 72.4909 592.696 74.8809C589.206 76.7209 585.546 78.2508 581.976 79.9408C576.986 82.3008 572.666 81.5509 569.476 76.9009C567.096 73.4209 564.416 74.1509 561.236 75.5409C556.166 77.7609 550.956 79.6509 545.836 81.7509C543.076 82.8809 540.496 82.8808 537.996 81.1208C529.716 75.3108 521.096 76.0008 511.956 79.0808C504.866 81.4708 497.416 82.8209 490.126 84.6409C485.446 85.8109 480.596 86.2708 475.996 85.0808C469.916 83.5008 464.256 84.3709 458.536 86.2509C451.636 88.5209 444.826 90.0709 437.916 85.9209C435.096 84.2209 431.696 84.6909 428.636 85.6509C423.366 87.3009 417.886 88.5108 413.266 91.7608C405.816 96.9908 398.276 96.8709 391.336 91.3109C386.656 87.5609 382.516 87.4209 377.166 89.6709C370.636 92.4209 363.696 94.2309 356.896 96.3409C354.256 97.1609 351.346 98.1309 348.766 96.8109C342.606 93.6509 335.886 93.6909 329.346 92.4709C321.586 91.0109 314.366 91.7908 307.396 94.7608C302.376 96.8908 297.646 96.8409 294.516 92.7209C291.486 88.7309 288.366 88.5109 284.266 89.5309C283.636 89.6909 282.626 89.3009 282.156 88.8209C281.756 88.4009 281.516 87.1808 281.816 86.8308C284.006 84.2408 287.726 84.8708 290.916 82.5808C287.806 80.0208 284.806 79.4308 281.706 81.7608C274.856 86.9008 267.436 89.8109 258.726 88.6709C258.346 88.6209 257.376 89.7409 257.476 89.9809C257.756 90.6509 258.406 91.2108 259.006 91.6908C261.586 93.7808 265.026 91.9009 268.326 93.2309C263.556 97.5609 257.646 97.4409 252.736 99.7309C250.896 100.591 247.936 98.3709 247.466 95.9909C246.926 93.3009 246.866 90.5209 246.486 87.7909C246.146 85.3309 243.916 83.6108 241.396 84.1208C237.926 84.8308 234.446 85.6509 231.116 86.8209C224.416 89.1809 217.836 91.8909 211.156 94.3109C208.456 95.2909 205.916 96.0209 206.656 99.8509C206.756 100.391 205.206 101.611 204.216 101.941C197.386 104.281 192.436 102.171 189.796 95.6809C188.916 93.5209 188.256 91.1509 188.126 88.8509C187.916 85.1009 185.136 84.4409 182.536 83.7909C181.116 83.4309 179.306 83.7209 177.906 84.2909C168.646 88.0709 157.986 88.6909 150.236 96.3609C152.936 100.521 156.706 95.9108 159.896 97.8008C157.716 99.9208 155.616 102.011 153.476 104.051C152.906 104.591 152.236 105.041 151.576 105.461C147.896 107.771 144.216 108.241 140.576 105.371C139.336 104.391 138.026 103.471 136.896 102.371C134.966 100.511 132.676 100.101 130.316 100.901C124.716 102.801 118.566 102.831 113.366 106.071C112.376 106.691 111.176 106.961 110.066 107.401C101.026 110.981 93.1058 110.491 87.0358 101.691C85.5058 99.4708 82.9657 97.9809 81.0257 96.0209C78.6157 93.5909 78.4657 87.7209 74.5957 88.4509C69.7357 89.3709 64.4757 88.0109 59.9157 90.8909C57.5957 92.3509 54.8857 93.1909 52.4357 94.4709C49.9057 95.7909 47.7657 97.2909 48.6657 100.911C49.3457 103.631 47.1858 105.241 45.1258 106.441C43.2858 107.521 40.8258 107.721 39.9458 105.591C36.4658 97.1609 30.2257 94.9308 21.7557 96.3308C19.9957 96.6208 18.0857 95.4809 16.0057 95.7509C7.57575 96.8509 7.57575 96.7509 4.80575 88.7209C4.29575 87.2309 3.36575 85.8009 3.23575 84.2909C2.07575 71.6909 1.09575 59.0809 0.0357486 46.4809C-0.224251 43.3609 0.925749 41.1309 3.75575 39.7609C10.1957 36.6509 16.8757 34.2309 23.9057 32.8509C30.3057 31.5909 35.9557 33.0509 39.3457 38.9109C45.2057 49.0509 47.4658 46.6409 55.6058 43.4309C60.3758 41.5509 65.3557 40.1609 70.0857 38.1909C76.0957 35.7009 81.9158 36.1609 87.1058 39.6209C96.4058 45.8209 105.726 44.6009 115.456 41.1109C120.656 39.2509 126.106 38.1009 131.416 36.5409C135.556 35.3209 139.346 35.7409 142.296 39.0609C146.696 44.0109 151.826 43.7809 157.476 41.8509C164.216 39.5509 170.996 37.3709 177.836 35.3609C180.846 34.4809 184.006 33.9309 187.136 33.6609C191.566 33.2909 195.576 34.0309 199.136 37.4209C205.766 43.7509 213.496 45.0209 222.166 41.5409C228.756 38.9009 236.006 37.6509 242.186 34.3209C247.086 31.6809 251.486 31.1109 255.436 34.0909C261.106 38.3709 266.606 36.9309 272.306 35.2509C277.996 33.5709 283.556 31.4609 289.246 29.7609C294.296 28.2509 299.356 27.7709 304.046 31.0809C307.906 33.8009 312.166 33.8309 316.566 32.8709C323.486 31.3609 330.746 31.2409 337.136 27.5709C340.906 25.4009 345.116 25.5509 348.306 28.2109C352.886 32.0309 357.796 31.3809 362.926 30.8509C369.606 30.1609 376.286 29.4009 382.996 29.0209C386.046 28.8509 388.286 27.7709 390.116 25.4809C392.116 22.9809 394.616 23.5209 396.166 25.4809C400.826 31.3809 406.316 30.4309 412.226 28.1809C418.136 25.9309 424.056 23.7009 430.046 21.6609C436.206 19.5609 442.356 19.0009 448.516 22.0409C451.776 23.6509 455.096 24.1809 458.796 22.5109C461.996 21.0609 465.806 20.9909 469.036 19.5909C474.046 17.4209 478.656 17.5109 483.896 19.1209C491.676 21.5009 499.626 19.6209 507.376 17.9909C512.396 16.9309 517.336 15.3909 522.246 13.8909C530.496 11.3609 538.576 10.9409 546.396 15.2709C550.536 17.5609 554.576 17.2409 558.926 15.5609C564.846 13.2609 570.666 10.9609 575.796 7.04086C578.806 4.74086 580.686 5.42085 582.446 8.64085C583.006 9.67085 583.166 10.9309 583.746 11.9309C585.486 14.9109 587.396 15.9209 590.656 14.7809C595.866 12.9609 600.956 10.7709 606.036 8.60085C611.856 6.12085 617.506 3.24086 623.416 1.00086C628.746 -1.01914 633.736 -0.169145 636.746 5.28086C639.686 10.6109 643.596 10.7309 648.776 8.82086C656.186 6.09086 663.826 3.94086 671.366 1.57086C676.496 -0.0391446 681.366 -0.849144 685.266 4.39086C687.406 7.27086 690.766 6.97086 694.006 6.59086C703.436 5.48086 712.876 4.42086 722.316 3.42086C725.846 3.05086 729.526 2.30086 732.816 4.12086C738.106 7.04086 743.586 6.55086 748.986 5.18086C758.736 2.70086 768.396 2.22086 778.356 4.12086C784.036 5.20086 789.986 5.22086 795.806 5.16086C802.216 5.09086 802.336 4.80086 802.646 10.4609C803.146 19.5409 803.346 28.4809 801.196 37.5709C799.496 44.7609 799.876 52.4609 799.486 59.9409C799.146 66.4609 798.266 67.7208 792.476 68.6908C790.916 68.9508 789.326 69.0509 787.746 69.1009C783.916 69.2409 781.226 65.7409 781.556 61.1109C781.826 57.3209 780.606 55.9209 777.006 56.1209C775.436 56.2009 773.886 56.6709 772.316 56.8009C771.166 56.8909 770.006 56.7009 768.356 56.6009L768.346 56.5909ZM200.006 93.3409C200.666 93.0809 200.726 93.2009 200.206 93.7209C200.146 93.5409 200.076 93.3708 200.016 93.1908L199.886 92.9109C199.886 92.9109 200.016 93.3809 200.006 93.3409ZM25.2457 87.2309V86.4509C25.2457 86.4509 25.4757 87.1009 25.4357 87.1009L24.8557 86.8509L25.2457 87.2309ZM586.656 68.2809C591.416 66.4609 596.276 64.8609 600.906 62.7609C605.526 60.6709 609.946 58.1109 614.386 55.6409C614.916 55.3509 615.356 54.3109 615.276 53.6909C615.196 53.1209 614.396 52.2309 613.866 52.2009C611.266 52.0309 608.416 50.4309 606.136 52.9209C600.846 58.7109 594.736 63.2809 587.346 66.0909C586.926 66.2509 586.916 67.4809 586.696 68.2109C586.086 68.0309 585.476 67.8609 584.866 67.6809C585.456 67.8809 586.056 68.0809 586.646 68.2709L586.656 68.2809ZM677.356 60.8609C689.026 63.9209 699.676 59.6309 710.586 59.2009C713.836 59.0709 716.696 56.3009 716.386 54.4009C715.976 51.8809 712.336 49.0209 709.406 49.0209C708.236 49.0209 707.066 49.2609 705.896 49.3809C695.566 50.3909 686.046 53.5009 677.356 60.8609ZM634.006 64.6609C641.816 63.9009 648.256 62.3909 654.446 60.1109C657.306 59.0609 659.886 57.0509 662.336 55.1409C663.746 54.0309 662.936 52.1809 662.336 50.7809C661.636 49.1209 660.106 48.4909 658.496 49.2109C650.006 53.0009 641.386 56.6209 633.996 64.6709L634.006 64.6609ZM485.466 75.7709C487.366 75.5009 488.516 75.2509 489.686 75.1709C501.076 74.4209 511.476 68.8709 522.916 68.3109C523.366 68.2909 524.016 67.1909 524.116 66.5209C524.296 65.2709 523.566 64.1509 522.326 64.0209C519.536 63.7209 516.916 64.5409 514.326 65.5709C511.426 66.7209 508.446 68.7409 505.556 68.6509C497.576 68.4009 490.366 72.4809 482.466 72.1409C482.116 72.1209 481.656 72.3509 481.406 72.6109C481.216 72.8109 481.186 73.2609 481.246 73.5709C481.316 73.9109 481.506 74.3809 481.766 74.4809C483.176 75.0309 484.626 75.4909 485.466 75.7709ZM132.656 89.9209C123.456 85.9509 116.216 87.7909 109.876 91.9609C107.336 93.6309 105.316 95.8708 102.106 96.3708C101.116 96.5208 100.886 97.4008 101.526 98.0508C102.056 98.5808 102.716 99.0909 103.416 99.3109C104.126 99.5409 104.986 99.5709 105.716 99.4009C114.486 97.3809 123.166 95.1009 132.656 89.9209ZM301.466 84.3708C305.026 89.0708 309.176 88.5408 312.926 87.9408C318.706 87.0208 324.396 85.4709 330.106 84.1009C331.386 83.7909 333.256 83.8809 332.956 81.3409C322.916 82.3009 312.906 83.2609 301.466 84.3609V84.3708ZM364.366 83.0709C371.476 82.9009 376.766 80.1709 382.316 78.4109C382.676 78.3009 382.986 78.0309 383.326 77.8409C385.196 76.8009 386.126 74.4109 385.166 72.9109C384.216 71.4109 382.676 70.8709 381.146 71.4909C378.276 72.6509 374.696 73.4408 372.936 75.6208C370.636 78.4808 366.846 79.1009 364.356 83.0709H364.366ZM728.236 59.7109C736.066 62.2009 742.166 59.9409 748.156 57.3109C749.656 56.6509 750.606 55.1109 749.606 53.4909C749.086 52.6509 747.606 51.6209 746.856 51.8209C740.526 53.4709 734.736 56.3609 728.236 59.7109ZM546.726 69.8109C551.756 71.4509 556.146 70.1709 560.346 68.1009C560.986 67.7909 561.486 67.0108 561.816 66.3308C562.126 65.6908 562.416 64.7709 562.166 64.2309C561.936 63.7409 560.776 63.1709 560.356 63.3609C555.776 65.4309 551.256 67.6409 546.726 69.8109ZM467.936 71.8209C467.296 71.5409 466.546 70.8709 466.046 71.0309C463.066 71.9509 460.156 73.0709 457.216 74.0909C455.446 74.7109 453.196 74.6609 452.706 77.1009C452.416 78.5509 456.056 79.2208 458.736 78.0108C461.566 76.7408 464.326 75.2809 467.026 73.7509C467.536 73.4609 467.646 72.4809 467.936 71.8109V71.8209ZM377.486 38.2609C382.036 36.0009 385.366 37.2809 387.126 33.8409C387.246 33.6109 386.966 32.8709 386.836 32.8609C383.656 32.6009 381.116 33.7809 377.496 38.2609H377.486ZM772.846 41.6809C773.336 40.8409 773.196 40.1509 772.346 39.7909C772.076 39.6809 771.406 39.8309 771.356 40.0009C771.166 40.6509 770.846 41.5109 771.126 41.9909C771.526 42.6909 772.316 42.4709 772.846 41.6809ZM431.396 72.6208C431.076 72.7208 430.496 72.7909 430.476 72.9309C430.356 73.7809 430.826 73.9609 431.656 73.3809C431.716 73.3409 431.486 72.8808 431.396 72.6208ZM500.896 40.6109C501.476 40.3609 502.056 40.1109 502.636 39.8609C502.446 39.5809 502.186 39.0509 502.066 39.0709C501.486 39.2009 500.946 39.4909 500.396 39.7209C500.566 40.0209 500.726 40.3109 500.896 40.6109ZM534.076 65.4709L533.646 66.0909L534.336 66.1809L534.076 65.4809V65.4709Z" fill="var(--fill-0, black)"/>
</g>
</svg>
