<svg xmlns="http://www.w3.org/2000/svg" width="24" height="24" fill="none"><path fill="#999" d="M10.724 13.91a2.295 2.295 0 1 0 2.551-3.818 2.295 2.295 0 0 0-2.55 3.817Z"/><path fill="#999" fill-rule="evenodd" d="M14.784 6.393c-.727-.033-.945-.04-2.784-.04-1.84 0-2.057.007-2.784.04-.671.03-1.036.143-1.279.237-.299.11-.57.287-.792.515a2.134 2.134 0 0 0-.515.792c-.094.243-.207.608-.237 1.28-.033.726-.04.944-.04 2.783 0 1.84.007 2.057.04 2.784.03.671.143 1.036.237 1.279.11.299.287.57.515.792.223.229.493.405.792.515.243.094.608.207 1.28.237.726.033.944.04 2.783.04 1.84 0 2.057-.007 2.784-.04.671-.03 1.036-.143 1.279-.237a2.281 2.281 0 0 0 1.307-1.307c.094-.243.207-.608.237-1.28.033-.726.04-.944.04-2.783 0-1.84-.007-2.057-.04-2.783-.03-.672-.143-1.037-.237-1.28-.11-.299-.287-.57-.515-.792a2.134 2.134 0 0 0-.792-.515c-.243-.094-.608-.206-1.28-.237Zm-4.75 2.666a3.538 3.538 0 1 1 3.931 5.883 3.538 3.538 0 0 1-3.93-5.883Zm5.643.09a.827.827 0 1 0 0-1.653.827.827 0 0 0 0 1.654Z" clip-rule="evenodd"/><path fill="#999" fill-rule="evenodd" d="M24 12c0 6.627-5.373 12-12 12S0 18.627 0 12 5.373 0 12 0s12 5.373 12 12ZM9.16 5.153c.735-.033.97-.041 2.84-.041 1.87 0 2.105.008 2.84.041.733.033 1.234.15 1.672.32.46.173.876.444 1.22.795.35.344.622.76.795 1.22.17.438.287.939.32 1.672.034.735.042.97.042 2.84 0 1.87-.008 2.105-.042 2.84-.033.733-.15 1.234-.32 1.672a3.524 3.524 0 0 1-2.015 2.015c-.438.17-.939.287-1.672.32-.734.034-.97.041-2.84.041-1.87 0-2.105-.008-2.84-.041-.733-.034-1.234-.15-1.672-.32a3.377 3.377 0 0 1-1.22-.795 3.377 3.377 0 0 1-.795-1.22c-.17-.438-.286-.939-.32-1.672-.033-.735-.041-.97-.041-2.84 0-1.87.008-2.105.041-2.84.033-.733.15-1.234.32-1.672.173-.46.444-.876.795-1.22.344-.35.76-.622 1.22-.795.438-.17.939-.287 1.672-.32Z" clip-rule="evenodd"/></svg>