<svg width="24" height="24" viewBox="0 0 24 24" fill="none" xmlns="http://www.w3.org/2000/svg">
<path fill-rule="evenodd" clip-rule="evenodd" d="M12 24C18.6274 24 24 18.6274 24 12C24 5.37258 18.6274 0 12 0C5.37258 0 0 5.37258 0 12C0 18.6274 5.37258 24 12 24ZM20.6236 7.87394C20.4162 7.13594 19.8072 6.55597 19.0322 6.35842C17.6291 6 12 6 12 6C12 6 6.37092 6 4.96773 6.35842C4.19279 6.55597 3.5838 7.13594 3.37636 7.87394C3 9.21025 3 12 3 12C3 12 3 14.7898 3.37636 16.1261C3.5838 16.8641 4.19279 17.444 4.96773 17.6416C6.37092 18 12 18 12 18C12 18 17.6291 18 19.0322 17.6416C19.8072 17.444 20.4162 16.8641 20.6236 16.1261C21 14.7898 21 12 21 12C21 12 20.9985 9.21025 20.6236 7.87394ZM10.1983 14.5712L14.8746 12.0002L10.1983 9.4292V14.5712Z" fill="#999"/>
</svg>
