<svg xmlns="http://www.w3.org/2000/svg" width="36" height="20"><path fill="#fff" d="M3.325 1h29.35A2.324 2.324 0 0 1 35 3.325v13.35A2.325 2.325 0 0 1 32.675 19H3.325A2.325 2.325 0 0 1 1 16.675V3.325A2.325 2.325 0 0 1 3.325 1Z"/><path fill="#111" d="M32.675 1A2.328 2.328 0 0 1 35 3.325v13.35A2.328 2.328 0 0 1 32.675 19H3.325A2.327 2.327 0 0 1 1 16.675V3.325A2.327 2.327 0 0 1 3.325 1h29.35Zm0-1H3.325A3.325 3.325 0 0 0 0 3.325v13.35A3.325 3.325 0 0 0 3.325 20h29.35A3.325 3.325 0 0 0 36 16.675V3.325A3.325 3.325 0 0 0 32.675 0Z" opacity=".12"/><g clip-path="url(#a)"><path fill="#000" d="M10.388 6.29c-.282.337-.732.603-1.182.565-.056-.456.164-.942.422-1.241.282-.348.774-.595 1.172-.614.047.476-.136.942-.412 1.29Zm.408.656c-.652-.038-1.21.376-1.52.376-.313 0-.787-.357-1.302-.348-.67.01-1.294.395-1.636 1.009-.703 1.227-.183 3.045.497 4.044.332.494.73 1.037 1.256 1.018.497-.02.694-.329 1.294-.329.604 0 .778.329 1.303.32.543-.01.886-.496 1.218-.99.38-.562.535-1.109.544-1.137-.01-.01-1.05-.414-1.06-1.632-.009-1.018.821-1.503.859-1.532-.47-.704-1.2-.78-1.454-.8Zm3.764-1.38v7.417h1.134v-2.536h1.57c1.435 0 2.442-.999 2.442-2.445 0-1.446-.989-2.436-2.404-2.436H14.56Zm1.134.97h1.308c.984 0 1.547.533 1.547 1.47 0 .938-.563 1.475-1.552 1.475h-1.303V6.537Zm6.084 6.504c.713 0 1.374-.366 1.674-.947h.023v.89h1.05V9.29c0-1.07-.844-1.76-2.142-1.76-1.205 0-2.095.7-2.128 1.66h1.022c.084-.456.501-.756 1.073-.756.694 0 1.083.328 1.083.932v.41l-1.416.085c-1.317.08-2.03.628-2.03 1.58 0 .96.737 1.598 1.791 1.598Zm.305-.88c-.605 0-.99-.295-.99-.747 0-.466.371-.738 1.08-.78l1.26-.081v.418c0 .695-.581 1.19-1.35 1.19ZM25.927 15c1.106 0 1.626-.428 2.081-1.727L30 7.603h-1.153l-1.336 4.38h-.023l-1.336-4.38h-1.186l1.922 5.399-.103.328c-.174.557-.455.77-.957.77-.089 0-.262-.009-.332-.018v.89c.065.019.346.028.43.028Z"/></g><defs><clipPath id="a"><path fill="#fff" d="M0 0h24v10H0z" transform="translate(6 5)"/></clipPath></defs></svg>
