<svg xmlns="http://www.w3.org/2000/svg" width="36" height="20"><g data-name="Mastercard Light"><rect width="34" height="18" x="1" y="1" fill="#fff" rx="2.32"/><path fill="#111" d="M32.68 1A2.32 2.32 0 0 1 35 3.32v13.36A2.32 2.32 0 0 1 32.68 19H3.32A2.32 2.32 0 0 1 1 16.68V3.32A2.32 2.32 0 0 1 3.32 1h29.36m0-1H3.32A3.32 3.32 0 0 0 0 3.32v13.36A3.32 3.32 0 0 0 3.32 20h29.36A3.32 3.32 0 0 0 36 16.68V3.32A3.32 3.32 0 0 0 32.68 0Z" opacity=".12"/><path d="M13.07 16v-.79a.47.47 0 0 0-.5-.51.53.53 0 0 0-.45.23.46.46 0 0 0-.43-.23.43.43 0 0 0-.37.19v-.19H11V16h.28v-.7c0-.23.12-.33.31-.33s.28.12.28.33v.7h.27v-.7a.29.29 0 0 1 .31-.33c.18 0 .28.12.28.33v.7Zm4.13-1.3h-.45v-.39h-.28v.39h-.25v.3h.25v.59c0 .29.12.46.44.46a.82.82 0 0 0 .35-.09l-.08-.24a.47.47 0 0 1-.24.06c-.14 0-.19-.08-.19-.21V15h.45v-.3Zm2.37 0a.39.39 0 0 0-.34.19v-.19H19V16h.27v-.72c0-.21.1-.33.27-.33h.17l.08-.27Zm-3.57.1a1 1 0 0 0-.52-.13c-.32 0-.53.16-.53.41s.16.34.44.37h.13c.14 0 .22.06.22.13s-.1.16-.29.16a.77.77 0 0 1-.42-.13l-.14.21a.94.94 0 0 0 .55.16c.37 0 .58-.17.58-.41s-.17-.35-.44-.39h-.13c-.12 0-.21 0-.21-.12s.09-.15.24-.15a1 1 0 0 1 .4.11l.12-.22Zm7.4-.13a.37.37 0 0 0-.33.19v-.16h-.28V16h.28v-.72c0-.21.09-.33.27-.33h.17l.08-.26a.62.62 0 0 0-.19 0Zm-3.56.67a.64.64 0 0 0 .68.66.63.63 0 0 0 .45-.15l-.13-.22a.54.54 0 0 1-.33.12.38.38 0 0 1-.39-.41.39.39 0 0 1 .39-.41.59.59 0 0 1 .33.11l.13-.22a.63.63 0 0 0-.45-.15.64.64 0 0 0-.68.67Zm2.58 0v-.64h-.28v.16a.47.47 0 0 0-.4-.19.67.67 0 0 0 0 1.33.45.45 0 0 0 .4-.19V16h.28v-.63Zm-1 0a.38.38 0 0 1 .38-.41.38.38 0 0 1 .39.41.39.39 0 1 1-.77 0Zm-3.33-.67a.67.67 0 0 0 0 1.33.81.81 0 0 0 .52-.17l-.13-.2a.65.65 0 0 1-.38.13.36.36 0 0 1-.38-.31h.94v-.1a.59.59 0 0 0-.58-.68Zm0 .24a.32.32 0 0 1 .32.31h-.67a.34.34 0 0 1 .35-.31Zm6.91.43V14.2h-.3v.66a.47.47 0 0 0-.4-.19.67.67 0 0 0 0 1.33.45.45 0 0 0 .4-.19V16h.3v-.63Zm-1 0a.39.39 0 1 1 .77 0 .4.4 0 0 1-.39.41.4.4 0 0 1-.38-.41Zm-9.32 0v-.64h-.28v.16a.47.47 0 0 0-.4-.19.67.67 0 0 0 0 1.33.45.45 0 0 0 .4-.19V16h.28v-.63Zm-1 0a.38.38 0 0 1 .38-.41.38.38 0 0 1 .39.41.39.39 0 1 1-.77 0Z"/><path fill="#ff5a00" d="M15.9 5.02h4.18v7.51H15.9z"/><path fill="#eb001b" d="M16.18 8.78A4.81 4.81 0 0 1 18 5a4.78 4.78 0 1 0-2.95 8.54 4.74 4.74 0 0 0 2.95-1 4.77 4.77 0 0 1-1.82-3.76Z"/><path fill="#f79e1b" d="M25.73 8.78A4.77 4.77 0 0 1 18 12.53a4.76 4.76 0 0 0 1.82-3.75A4.81 4.81 0 0 0 18 5a4.78 4.78 0 0 1 7.73 3.76Z"/></g></svg>
