<svg xmlns="http://www.w3.org/2000/svg" width="36" height="20"><g data-name="PayPal Light"><rect width="34" height="18" x="1" y="1" fill="#fff" rx="2.32"/><path fill="#111" d="M32.68 1A2.32 2.32 0 0 1 35 3.32v13.36A2.32 2.32 0 0 1 32.68 19H3.32A2.32 2.32 0 0 1 1 16.68V3.32A2.32 2.32 0 0 1 3.32 1h29.36m0-1H3.32A3.32 3.32 0 0 0 0 3.32v13.36A3.32 3.32 0 0 0 3.32 20h29.36A3.32 3.32 0 0 0 36 16.68V3.32A3.32 3.32 0 0 0 32.68 0Z" opacity=".12"/><path fill="#253b80" d="M7.36 6.27H5.18a.31.31 0 0 0-.3.26L4 12.11a.18.18 0 0 0 .18.21h1a.3.3 0 0 0 .3-.26l.24-1.5a.3.3 0 0 1 .3-.26h.69a2.24 2.24 0 0 0 2.52-2.07A1.7 1.7 0 0 0 9 6.83a2 2 0 0 0-1.64-.56Zm.25 2c-.12.78-.71.78-1.29.78H6l.23-1.46a.17.17 0 0 1 .18-.15h.15c.39 0 .76 0 1 .22a.77.77 0 0 1 .05.65Zm6.26.01h-1a.18.18 0 0 0-.18.16l-.05.29-.07-.11a1.51 1.51 0 0 0-1.23-.43A2.39 2.39 0 0 0 9 10.28a2 2 0 0 0 .39 1.61 1.63 1.63 0 0 0 1.31.53 2 2 0 0 0 1.44-.6v.29a.18.18 0 0 0 .18.21h.94a.31.31 0 0 0 .3-.26l.56-3.57a.18.18 0 0 0-.25-.21Zm-1.45 2a1.17 1.17 0 0 1-1.18 1 .8.8 0 0 1-.86-1 1.16 1.16 0 0 1 1.16-1 .88.88 0 0 1 .7.29.9.9 0 0 1 .18.74Zm7-2h-1a.29.29 0 0 0-.25.14l-1.45 2.13-.65-2.05a.31.31 0 0 0-.29-.22h-1a.18.18 0 0 0-.17.24l1.15 3.39-1.09 1.53a.19.19 0 0 0 .15.29h1.05a.31.31 0 0 0 .25-.13l3.48-5a.18.18 0 0 0-.18-.32Z"/><path fill="#179bd7" d="M22.89 6.27h-2.17a.3.3 0 0 0-.3.26l-.88 5.58a.18.18 0 0 0 .18.21h1.11a.21.21 0 0 0 .21-.18l.25-1.58a.31.31 0 0 1 .3-.26h.69a2.24 2.24 0 0 0 2.48-2.07 1.66 1.66 0 0 0-.28-1.4 2 2 0 0 0-1.59-.56Zm.26 2c-.12.78-.72.78-1.3.78h-.33l.23-1.46a.18.18 0 0 1 .18-.15h.15c.4 0 .77 0 1 .22a.76.76 0 0 1 .07.65Zm6.25.01h-1a.19.19 0 0 0-.18.16v.29l-.08-.11a1.5 1.5 0 0 0-1.23-.43 2.41 2.41 0 0 0-2.33 2.09 2 2 0 0 0 .39 1.61 1.65 1.65 0 0 0 1.32.53 2 2 0 0 0 1.44-.6v.29a.18.18 0 0 0 .18.21h.94a.3.3 0 0 0 .3-.26l.56-3.57a.18.18 0 0 0-.31-.21Zm-1.45 2a1.16 1.16 0 0 1-1.18 1 .9.9 0 0 1-.7-.28.89.89 0 0 1-.16-.73 1.17 1.17 0 0 1 1.17-1 .85.85 0 0 1 .69.29.87.87 0 0 1 .23.75Zm2.68-3.86-.89 5.69a.18.18 0 0 0 .18.21h.9a.31.31 0 0 0 .3-.26L32 6.48a.18.18 0 0 0-.18-.21h-1a.18.18 0 0 0-.19.15Z"/></g></svg>
