<svg xmlns="http://www.w3.org/2000/svg" width="36" height="20"><defs><style>.cls-3{fill:#1a1f71}</style></defs><g id="Visa_Light" data-name="Visa Light"><rect width="34" height="18" x="1" y="1" fill="#fff" rx="2.32"/><path id="Stroke" fill="#111" d="M32.68 1A2.32 2.32 0 0 1 35 3.32v13.36A2.32 2.32 0 0 1 32.68 19H3.32A2.32 2.32 0 0 1 1 16.68V3.32A2.32 2.32 0 0 1 3.32 1h29.36m0-1H3.32A3.32 3.32 0 0 0 0 3.32v13.36A3.32 3.32 0 0 0 3.32 20h29.36A3.32 3.32 0 0 0 36 16.68V3.32A3.32 3.32 0 0 0 32.68 0Z" opacity=".12"/><g id="g4158"><path id="polygon9" d="M16.35 13.88h-2l1.25-7.74h2l-1.25 7.74z" class="cls-3"/><path id="path11" d="M23.61 6.33a4.84 4.84 0 0 0-1.8-.33c-2 0-3.36 1-3.37 2.56 0 1.11 1 1.73 1.75 2.1s1 .63 1 1c0 .52-.63.76-1.2.76a4 4 0 0 1-1.84-.42l-.27-.12-.28 1.74a6.26 6.26 0 0 0 2.24.41c2.1 0 3.47-1 3.48-2.64 0-.89-.52-1.56-1.68-2.11-.7-.36-1.13-.6-1.13-1s.37-.67 1.16-.67a3.43 3.43 0 0 1 1.49.3l.18.08.27-1.67Z" class="cls-3"/><path id="path13" d="M26.27 11.14c.17-.44.8-2.17.8-2.17s.17-.45.27-.74l.14.67s.37 1.85.46 2.24Zm2.47-5H27.2a1 1 0 0 0-1.05.64l-3 7.1h2.11s.34-1 .42-1.16h2.57c.05.27.24 1.16.24 1.16h1.85l-1.6-7.74Z" class="cls-3"/><path d="m12.68 6.14-2 5.28-.22-1.07-.66-3.56a.83.83 0 0 0-.9-.65H5.67v.16a8 8 0 0 1 2.1.85l1.79 6.73h2.12l3.14-7.74Z" class="cls-3"/></g></g></svg>
