<?xml version="1.0" encoding="UTF-8"?><svg id="Layer_2" xmlns="http://www.w3.org/2000/svg" viewBox="0 0 624.91 71.3"><g id="Layer_1-2"><path d="M319.22,63.33c-29.59,1.53-59.16,3.54-88.76,4.46-26.47.82-52.96,1.68-79.48.62-11.03-.44-22.11.46-33.16.54-29.68.23-59.37.36-89.05.48-4.36.02-8.72-.35-12.93,1.17-4.58,1.65-8.52.2-12.23-2.49-3.32-2.42-4.45-4.39-2.99-8.06,3.34-8.38,4.97-17.3,9.4-25.42,3.9-7.17,5.81-15.44,8.53-23.24,1.99-5.7,4.84-7.85,10.61-6.37,7.8,2,15.74,1.9,23.6,2.08,21.36.5,42.72.39,64.08-1.04,12.99-.87,26.07-.43,39.12-.58,23.34-.26,46.68-.3,70-.86,17.8-.42,35.58-1.62,53.37-2.24,21.32-.75,42.64-1.66,63.97-1.71,11.41-.03,22.8.76,34.2-.56,1.92-.22,4.03-.1,5.86.48,6.23,1.96,12.34,2.66,18.55-.05,1.02-.44,2.46-.6,3.48-.25,10.47,3.56,21.23.11,31.81,1.45,7.03.89,14.21.22,21.06,2.84,3.4,1.3,7.02.81,10.47-.5,5.03-1.92,10.01-1.64,15.06.15,2.19.77,4.63,1.38,6.91,1.24,17.36-1.13,34.75,2.49,52.09-.37,8.62,1.49,17.31,1.23,26,1.06,4.36-.09,8.69.12,12.69-2.2,2.49-1.45,5.25-1.41,8.07-.8,6.99,1.53,13.92,2.02,21.13.68,6.47-1.2,8.05.35,10.18,6.84.49,1.5,1.25,2.99,1.37,4.52.97,12.98,1.87,25.97,2.67,38.96.21,3.43-2.07,6.17-5.37,6.8-1.53.29-3.14.2-4.71.25-13.84.44-27.69,1.26-41.53,1.23-38.39-.09-76.78-.65-115.17-.79-18.2-.07-36.41.42-54.61.61-9.1.09-18.2-.08-27.29.11-18.99.4-37.98.96-56.97,1.45,0-.16-.01-.32-.02-.48ZM395.35,22.14c-.07-.12-.14-.24-.21-.37-1.83.05-3.67.1-5.5.14,0,.12,0,.25.01.37,1.9-.05,3.8-.1,5.7-.15ZM494.95,21.38c-.7.02-1.37.07-2.04.05-1.31-.05-1.4.17-.2.48.65.17,1.37.07,2.06.05.06,0,.11-.33.18-.57ZM429.31,21.56c.13-.21.27-.43.41-.65-.33-.13-.67-.39-.98-.35-1.13.13-1.32.56-.5,1.01.27.15.7,0,1.07,0Z"/></g></svg>