<?xml version="1.0" encoding="UTF-8"?><svg id="Layer_2" xmlns="http://www.w3.org/2000/svg" xmlns:xlink="http://www.w3.org/1999/xlink" viewBox="0 0 3236.42 2081.35"><defs><style>.cls-1{fill:url(#linear-gradient-8);}.cls-2{fill:url(#linear-gradient-7);}.cls-3{fill:url(#linear-gradient-5);}.cls-4{fill:url(#linear-gradient-6);}.cls-5{fill:url(#linear-gradient-9);}.cls-6{fill:url(#linear-gradient-4);}.cls-7{fill:url(#linear-gradient-3);}.cls-8{fill:url(#linear-gradient-2);}.cls-9{fill:url(#linear-gradient);}.cls-10{fill:url(#linear-gradient-10);}</style><linearGradient id="linear-gradient" x1="-722.06" y1="41.97" x2="1850" y2="-411.55" gradientTransform="translate(702.2 773.79) rotate(-10.54)" gradientUnits="userSpaceOnUse"><stop offset="0" stop-color="#034638" stop-opacity="0"/><stop offset=".53" stop-color="#034437" stop-opacity=".04"/><stop offset=".72" stop-color="#034133" stop-opacity=".19"/><stop offset=".85" stop-color="#033a2e" stop-opacity=".46"/><stop offset=".96" stop-color="#033126" stop-opacity=".83"/><stop offset="1" stop-color="#042d23"/></linearGradient><linearGradient id="linear-gradient-2" x1="-371.71" y1="287.29" x2="2200.35" y2="-166.24" xlink:href="#linear-gradient"/><linearGradient id="linear-gradient-3" x1="-196.54" y1="409.94" x2="2375.52" y2="-43.58" xlink:href="#linear-gradient"/><linearGradient id="linear-gradient-4" x1="-21.36" y1="532.6" x2="2550.69" y2="79.08" xlink:href="#linear-gradient"/><linearGradient id="linear-gradient-5" x1="-542.36" y1="167.79" x2="2029.69" y2="-285.73" xlink:href="#linear-gradient"/><linearGradient id="linear-gradient-6" x1="-511.73" y1="1234.79" x2="2060.33" y2="781.27" xlink:href="#linear-gradient"/><linearGradient id="linear-gradient-7" x1="-266.41" y1="884.45" x2="2305.65" y2="430.92" xlink:href="#linear-gradient"/><linearGradient id="linear-gradient-8" x1="-143.76" y1="709.27" x2="2428.3" y2="255.75" xlink:href="#linear-gradient"/><linearGradient id="linear-gradient-9" x1="-21.1" y1="534.1" x2="2550.95" y2="80.57" xlink:href="#linear-gradient"/><linearGradient id="linear-gradient-10" x1="-385.9" y1="1055.1" x2="2186.15" y2="601.57" xlink:href="#linear-gradient"/></defs><g id="Layer_1-2"><polygon class="cls-9" points="0 947.12 2434.18 0 2457.28 61.67 0 947.12"/><polygon class="cls-8" points="389.31 1124.22 2823.49 177.1 2846.59 238.78 389.31 1124.22"/><polygon class="cls-7" points="583.96 1212.77 3018.13 265.66 3041.24 327.33 583.96 1212.77"/><polygon class="cls-6" points="778.61 1301.33 3212.78 354.21 3235.88 415.89 778.61 1301.33"/><polygon class="cls-3" points="199.68 1037.96 2633.85 90.84 2656.96 152.51 199.68 1037.96"/><polygon class="cls-4" points="424.93 2081.35 2882.22 1195.91 2859.11 1134.24 424.93 2081.35"/><polygon class="cls-2" points="602.03 1692.04 3059.33 806.61 3036.22 744.93 602.03 1692.04"/><polygon class="cls-1" points="690.58 1497.39 3147.87 611.96 3124.77 550.29 690.58 1497.39"/><polygon class="cls-5" points="779.14 1302.73 3236.42 417.31 3213.31 355.63 779.14 1302.73"/><polygon class="cls-10" points="515.77 1881.67 2973.05 996.24 2949.95 934.56 515.77 1881.67"/></g></svg>